<svg width="330" height="530" viewBox="0 0 330 530" fill="none" xmlns="http://www.w3.org/2000/svg">
<rect width="330" height="530" fill="white"/>
<path d="M99 27C99 22.3406 99 20.0109 99.7612 18.1732C100.776 15.7229 102.723 13.7761 105.173 12.7612C107.011 12 109.341 12 114 12H216C220.659 12 222.989 12 224.827 12.7612C227.277 13.7761 229.224 15.7229 230.239 18.1732C231 20.0109 231 22.3406 231 27V67.7072C231 72.3666 231 74.6963 230.239 76.534C229.224 78.9843 227.277 80.9311 224.827 81.946C222.989 82.7072 220.659 82.7072 216 82.7072H114C109.341 82.7072 107.011 82.7072 105.173 81.946C102.723 80.9311 100.776 78.9843 99.7612 76.534C99 74.6963 99 72.3666 99 67.7072V27Z" fill="#142032"/>
<path d="M165 66.3114L193.579 98.5908H136.421L165 66.3114Z" fill="#142032"/>
<path d="M129.38 43.2V51H134.78V49.392H131.36V47.88H134.264V46.236H131.36V44.796H134.78V43.2H129.38ZM135.973 48.336H140.437V46.656H135.973V48.336ZM145.544 44.724C146.516 44.724 147.068 45.18 147.212 46.092H149.192V45.936C149 44.112 147.368 43.02 145.448 43.02C143.24 43.02 141.452 44.676 141.452 46.98V47.268C141.452 49.644 143.252 51.18 145.448 51.18C147.44 51.18 148.964 50.064 149.192 48.132V47.964H147.224C147.14 48.864 146.636 49.464 145.544 49.464C144.152 49.464 143.528 48.372 143.528 47.088C143.528 45.816 144.152 44.724 145.544 44.724ZM149.901 48.12C149.901 50.04 151.377 51.192 153.129 51.192C154.821 51.192 156.309 50.04 156.309 48.108V47.88C156.309 45.96 154.833 44.808 153.105 44.808C151.377 44.808 149.901 45.96 149.901 47.892V48.12ZM151.881 47.976C151.881 47.076 152.265 46.368 153.105 46.368C153.945 46.368 154.329 47.1 154.329 48.012C154.329 48.912 153.945 49.62 153.105 49.62C152.265 49.62 151.881 48.888 151.881 47.976ZM162.569 45.792C162.245 45.204 161.693 44.82 160.793 44.82C160.073 44.82 159.509 45.096 159.137 45.768H159.113L158.873 45H157.409V51H159.293V47.436C159.293 46.668 159.617 46.38 160.157 46.38C160.625 46.38 160.961 46.596 160.961 47.412V51H162.857V47.412C162.857 46.656 163.181 46.38 163.721 46.38C164.189 46.38 164.525 46.596 164.525 47.412V51H166.409V46.848C166.409 45.696 165.749 44.82 164.357 44.82C163.637 44.82 162.977 45.12 162.593 45.792H162.569ZM172.869 45.792C172.545 45.204 171.993 44.82 171.093 44.82C170.373 44.82 169.809 45.096 169.437 45.768H169.413L169.173 45H167.709V51H169.593V47.436C169.593 46.668 169.917 46.38 170.457 46.38C170.925 46.38 171.261 46.596 171.261 47.412V51H173.157V47.412C173.157 46.656 173.481 46.38 174.021 46.38C174.489 46.38 174.825 46.596 174.825 47.412V51H176.709V46.848C176.709 45.696 176.049 44.82 174.657 44.82C173.937 44.82 173.277 45.12 172.893 45.792H172.869ZM180.794 44.808C179.066 44.808 177.698 46.032 177.698 47.916V48.12C177.698 50.04 179.174 51.192 180.866 51.192C182.246 51.192 183.47 50.52 183.758 49.128H181.994C181.814 49.596 181.406 49.752 180.914 49.752C180.134 49.752 179.702 49.212 179.618 48.456H183.746C183.758 48.324 183.77 48.036 183.77 47.796C183.77 45.78 182.342 44.808 180.794 44.808ZM179.654 47.256C179.75 46.632 180.11 46.152 180.842 46.152C181.478 46.152 181.898 46.596 181.898 47.256H179.654ZM186.761 48.168C186.761 47.388 186.941 46.776 188.009 46.776H188.777V45.024C188.621 44.976 188.357 44.952 188.177 44.952C187.409 44.952 186.737 45.42 186.653 46.272H186.617L186.269 45H184.877V51H186.761V48.168ZM192.516 46.308C193.14 46.308 193.56 46.68 193.692 47.352H195.408V47.196C195.276 45.66 193.956 44.808 192.432 44.808C190.704 44.808 189.3 46.068 189.3 47.892V48.12C189.3 50.004 190.752 51.192 192.444 51.192C193.884 51.192 195.252 50.34 195.408 48.804V48.648H193.692C193.536 49.356 193.188 49.692 192.516 49.692C191.616 49.692 191.208 48.972 191.208 48C191.208 47.04 191.616 46.308 192.516 46.308ZM199.134 44.808C197.406 44.808 196.038 46.032 196.038 47.916V48.12C196.038 50.04 197.514 51.192 199.206 51.192C200.586 51.192 201.81 50.52 202.098 49.128H200.334C200.154 49.596 199.746 49.752 199.254 49.752C198.474 49.752 198.042 49.212 197.958 48.456H202.086C202.098 48.324 202.11 48.036 202.11 47.796C202.11 45.78 200.682 44.808 199.134 44.808ZM197.994 47.256C198.09 46.632 198.45 46.152 199.182 46.152C199.818 46.152 200.238 46.596 200.238 47.256H197.994Z" fill="white"/>
<line x1="164.671" y1="98" x2="164.671" y2="164.608" stroke="black" stroke-width="0.5"/>
<line x1="198" y1="164.286" x2="132" y2="164.286" stroke="white"/>
<line x1="198" y1="160.174" x2="132" y2="160.174" stroke="white"/>
<line x1="198" y1="156.063" x2="132" y2="156.063" stroke="white"/>
<line x1="198" y1="151.951" x2="132" y2="151.951" stroke="white"/>
<line x1="198" y1="148.662" x2="132" y2="148.662" stroke="white"/>
<line x1="198" y1="144.55" x2="132" y2="144.55" stroke="white"/>
<line x1="198" y1="140.439" x2="132" y2="140.439" stroke="white"/>
<line x1="198" y1="136.327" x2="132" y2="136.327" stroke="white"/>
<line x1="198" y1="133.038" x2="132" y2="133.038" stroke="white"/>
<line x1="198" y1="128.926" x2="132" y2="128.926" stroke="white"/>
<line x1="198" y1="124.814" x2="132" y2="124.814" stroke="white"/>
<line x1="198" y1="120.703" x2="132" y2="120.703" stroke="white"/>
<line x1="198" y1="117.413" x2="132" y2="117.413" stroke="white"/>
<line x1="198" y1="113.302" x2="132" y2="113.302" stroke="white"/>
<line x1="198" y1="109.19" x2="132" y2="109.19" stroke="white"/>
<line x1="198" y1="105.079" x2="132" y2="105.079" stroke="white"/>
<line x1="198" y1="100.967" x2="132" y2="100.967" stroke="white"/>
<path d="M165.591 163.506C165.243 164.309 164.104 164.309 163.756 163.506L162.68 161.022C162.395 160.362 162.879 159.625 163.598 159.625H165.749C166.468 159.625 166.952 160.362 166.666 161.022L165.591 163.506Z" fill="black"/>
<rect x="103" y="164" width="122.425" height="32.7918" rx="10" fill="#F71963"/>
<path d="M149.487 179.878H145.719V181.462H147.723V182.23C147.303 182.554 146.763 182.77 146.007 182.77C144.507 182.77 143.667 181.69 143.667 180.31C143.667 178.786 144.351 177.862 145.779 177.862C146.655 177.862 147.243 178.162 147.375 178.87H149.307V178.714C149.055 176.95 147.675 176.218 145.719 176.218C143.427 176.218 141.627 177.802 141.627 180.154V180.442C141.627 182.686 143.271 184.378 145.827 184.378C147.735 184.378 148.983 183.454 149.487 182.794V179.878ZM153.198 182.938C152.706 182.938 152.37 182.758 152.37 182.326C152.37 181.762 152.874 181.606 153.39 181.606C153.714 181.606 154.002 181.69 154.23 181.798V182.05C154.23 182.638 153.63 182.938 153.198 182.938ZM154.446 183.502L154.674 184.198H156.078V180.478C156.078 179.71 155.922 179.122 155.502 178.702C154.974 178.162 154.254 178.018 153.354 178.018C152.142 178.018 150.81 178.654 150.81 179.902V180.058H152.61V180.034C152.646 179.686 152.85 179.362 153.426 179.362C153.966 179.362 154.23 179.686 154.23 180.298V180.574C153.858 180.478 153.57 180.442 153.174 180.442C152.298 180.442 151.446 180.694 151.002 181.162C150.654 181.51 150.486 181.906 150.486 182.374V182.506C150.486 183.694 151.506 184.378 152.694 184.378C153.474 184.378 154.098 184.042 154.422 183.502H154.446ZM159.345 178.27V176.842H158.577C158.121 177.73 157.701 178.294 156.705 178.75V179.626H157.461V182.41C157.461 183.814 158.337 184.318 159.489 184.318C159.909 184.318 160.557 184.186 160.833 184.006V182.614H160.689C160.461 182.71 160.185 182.806 159.945 182.806C159.573 182.806 159.357 182.65 159.357 182.206V179.626H160.713V178.27H159.345ZM164.516 178.006C162.788 178.006 161.42 179.23 161.42 181.114V181.318C161.42 183.238 162.896 184.39 164.588 184.39C165.968 184.39 167.192 183.718 167.48 182.326H165.716C165.536 182.794 165.128 182.95 164.636 182.95C163.856 182.95 163.424 182.41 163.34 181.654H167.468C167.48 181.522 167.492 181.234 167.492 180.994C167.492 178.978 166.064 178.006 164.516 178.006ZM163.376 180.454C163.472 179.83 163.832 179.35 164.564 179.35C165.2 179.35 165.62 179.794 165.62 180.454H163.376ZM174.929 180.886C174.821 181.222 174.761 181.594 174.677 182.026H174.653C174.581 181.594 174.497 181.21 174.389 180.874L173.597 178.198H171.725L170.957 180.886C170.861 181.222 170.801 181.594 170.717 182.026H170.693C170.621 181.594 170.537 181.21 170.429 180.874L169.637 178.198H167.789V178.414L169.661 184.198H171.425L172.637 180.478L173.837 184.198H175.625L177.473 178.402V178.198H175.721L174.929 180.886ZM180.397 182.938C179.905 182.938 179.569 182.758 179.569 182.326C179.569 181.762 180.073 181.606 180.589 181.606C180.913 181.606 181.201 181.69 181.429 181.798V182.05C181.429 182.638 180.829 182.938 180.397 182.938ZM181.645 183.502L181.873 184.198H183.277V180.478C183.277 179.71 183.121 179.122 182.701 178.702C182.173 178.162 181.453 178.018 180.553 178.018C179.341 178.018 178.009 178.654 178.009 179.902V180.058H179.809V180.034C179.845 179.686 180.049 179.362 180.625 179.362C181.165 179.362 181.429 179.686 181.429 180.298V180.574C181.057 180.478 180.769 180.442 180.373 180.442C179.497 180.442 178.645 180.694 178.201 181.162C177.853 181.51 177.685 181.906 177.685 182.374V182.506C177.685 183.694 178.705 184.378 179.893 184.378C180.673 184.378 181.297 184.042 181.621 183.502H181.645ZM187.046 182.23C186.95 181.81 186.818 181.318 186.674 180.946L185.714 178.198H183.71V178.402L185.99 183.91L184.934 186.166V186.358H186.95L190.238 178.402V178.198H188.354L187.418 180.946C187.286 181.318 187.154 181.81 187.07 182.23H187.046Z" fill="white"/>
<line x1="132.671" y1="197" x2="132.671" y2="263.608" stroke="black" stroke-width="0.5"/>
<line x1="166" y1="259.174" x2="100" y2="259.174" stroke="white"/>
<line x1="166" y1="255.063" x2="100" y2="255.063" stroke="white"/>
<line x1="166" y1="250.951" x2="100" y2="250.951" stroke="white"/>
<line x1="166" y1="247.662" x2="100" y2="247.662" stroke="white"/>
<line x1="166" y1="243.55" x2="100" y2="243.55" stroke="white"/>
<line x1="166" y1="239.439" x2="100" y2="239.439" stroke="white"/>
<line x1="166" y1="235.327" x2="100" y2="235.327" stroke="white"/>
<line x1="166" y1="232.038" x2="100" y2="232.038" stroke="white"/>
<line x1="166" y1="227.926" x2="100" y2="227.926" stroke="white"/>
<line x1="166" y1="223.814" x2="100" y2="223.814" stroke="white"/>
<line x1="166" y1="219.703" x2="100" y2="219.703" stroke="white"/>
<line x1="166" y1="216.413" x2="100" y2="216.413" stroke="white"/>
<line x1="166" y1="212.302" x2="100" y2="212.302" stroke="white"/>
<line x1="166" y1="208.19" x2="100" y2="208.19" stroke="white"/>
<line x1="166" y1="204.079" x2="100" y2="204.079" stroke="white"/>
<line x1="166" y1="199.967" x2="100" y2="199.967" stroke="white"/>
<path d="M133.591 262.506C133.243 263.309 132.104 263.309 131.756 262.506L130.68 260.022C130.395 259.362 130.879 258.625 131.598 258.625H133.749C134.468 258.625 134.952 259.362 134.666 260.022L133.591 262.506Z" fill="black"/>
<line x1="195.329" y1="263.608" x2="195.329" y2="197" stroke="black" stroke-width="0.5"/>
<line x1="162" y1="197.322" x2="228" y2="197.322" stroke="white"/>
<line x1="162" y1="201.434" x2="228" y2="201.434" stroke="white"/>
<line x1="162" y1="205.546" x2="228" y2="205.546" stroke="white"/>
<line x1="162" y1="209.657" x2="228" y2="209.657" stroke="white"/>
<line x1="162" y1="212.946" x2="228" y2="212.946" stroke="white"/>
<line x1="162" y1="217.058" x2="228" y2="217.058" stroke="white"/>
<line x1="162" y1="221.17" x2="228" y2="221.17" stroke="white"/>
<line x1="162" y1="225.281" x2="228" y2="225.281" stroke="white"/>
<line x1="162" y1="228.571" x2="228" y2="228.571" stroke="white"/>
<line x1="162" y1="232.682" x2="228" y2="232.682" stroke="white"/>
<line x1="162" y1="236.794" x2="228" y2="236.794" stroke="white"/>
<line x1="162" y1="240.905" x2="228" y2="240.905" stroke="white"/>
<line x1="162" y1="244.195" x2="228" y2="244.195" stroke="white"/>
<line x1="162" y1="248.306" x2="228" y2="248.306" stroke="white"/>
<line x1="162" y1="252.418" x2="228" y2="252.418" stroke="white"/>
<line x1="162" y1="256.53" x2="228" y2="256.53" stroke="white"/>
<line x1="162" y1="260.641" x2="228" y2="260.641" stroke="white"/>
<path d="M194.409 198.103C194.757 197.299 195.896 197.299 196.244 198.103L197.32 200.586C197.605 201.246 197.121 201.983 196.402 201.983H194.251C193.532 201.983 193.048 201.246 193.334 200.586L194.409 198.103Z" fill="black"/>
<rect x="103" y="263" width="122.425" height="32.7918" rx="10" fill="#00BBD4"/>
<path d="M138.493 277.222C138.589 277.654 138.769 278.206 138.925 278.65L139.525 280.306H137.437L138.037 278.65C138.193 278.206 138.373 277.654 138.469 277.222H138.493ZM140.569 283.198H142.585V282.982L139.537 275.398H137.401L134.353 282.982V283.198H136.393L136.885 281.842H140.077L140.569 283.198ZM144.861 280.174C144.861 279.274 145.257 278.566 146.109 278.566C146.961 278.566 147.357 279.298 147.357 280.21C147.357 281.11 146.961 281.818 146.109 281.818C145.257 281.818 144.861 281.086 144.861 280.174ZM142.881 280.342C142.881 282.226 144.237 283.378 145.629 283.378C146.445 283.378 147.033 283.126 147.501 282.466H147.525L147.765 283.198H149.205V274.798H147.333V277.606H147.309C146.961 277.21 146.433 277.018 145.713 277.018C144.093 277.018 142.881 278.422 142.881 280.114V280.342ZM154.751 282.67V285.358H156.635V277.198H155.291L155.051 277.894H155.027C154.631 277.33 153.983 277.018 153.167 277.018C151.535 277.018 150.311 278.422 150.311 280.114V280.342C150.311 282.19 151.631 283.378 153.023 283.378C153.779 283.378 154.391 283.102 154.727 282.67H154.751ZM152.291 280.174C152.291 279.274 152.687 278.566 153.539 278.566C154.391 278.566 154.787 279.298 154.787 280.21C154.787 281.11 154.391 281.818 153.539 281.818C152.687 281.818 152.291 281.086 152.291 280.174ZM159.816 277.198H157.932V280.702C157.932 282.49 158.952 283.378 160.692 283.378C162.432 283.378 163.464 282.514 163.464 280.702V277.198H161.64V280.822C161.64 281.602 161.196 281.878 160.728 281.878C160.284 281.878 159.816 281.602 159.816 280.822V277.198ZM166.831 275.542C166.831 274.918 166.303 274.546 165.679 274.546C165.043 274.546 164.527 274.918 164.527 275.542V275.626C164.527 276.25 165.043 276.598 165.679 276.598C166.303 276.598 166.831 276.25 166.831 275.626V275.542ZM166.627 283.198V277.198H164.731V283.198H166.627ZM169.897 280.366C169.897 279.586 170.077 278.974 171.145 278.974H171.913V277.222C171.757 277.174 171.493 277.15 171.313 277.15C170.545 277.15 169.873 277.618 169.789 278.47H169.753L169.405 277.198H168.013V283.198H169.897V280.366ZM175.532 277.006C173.804 277.006 172.436 278.23 172.436 280.114V280.318C172.436 282.238 173.912 283.39 175.604 283.39C176.984 283.39 178.208 282.718 178.496 281.326H176.732C176.552 281.794 176.144 281.95 175.652 281.95C174.872 281.95 174.44 281.41 174.356 280.654H178.484C178.496 280.522 178.508 280.234 178.508 279.994C178.508 277.978 177.08 277.006 175.532 277.006ZM174.392 279.454C174.488 278.83 174.848 278.35 175.58 278.35C176.216 278.35 176.636 278.794 176.636 279.454H174.392ZM181.499 279.718C181.499 278.95 181.871 278.578 182.483 278.578C183.011 278.578 183.407 278.914 183.407 279.718V283.198H185.291V279.154C185.291 277.99 184.595 277.018 183.119 277.018C182.351 277.018 181.763 277.306 181.343 277.978H181.319L181.079 277.198H179.615V283.198H181.499V279.718ZM188.536 277.27V275.842H187.768C187.312 276.73 186.892 277.294 185.896 277.75V278.626H186.652V281.41C186.652 282.814 187.528 283.318 188.68 283.318C189.1 283.318 189.748 283.186 190.024 283.006V281.614H189.88C189.652 281.71 189.376 281.806 189.136 281.806C188.764 281.806 188.548 281.65 188.548 281.206V278.626H189.904V277.27H188.536ZM193.707 277.006C191.979 277.006 190.611 278.23 190.611 280.114V280.318C190.611 282.238 192.087 283.39 193.779 283.39C195.159 283.39 196.383 282.718 196.671 281.326H194.907C194.727 281.794 194.319 281.95 193.827 281.95C193.047 281.95 192.615 281.41 192.531 280.654H196.659C196.671 280.522 196.683 280.234 196.683 279.994C196.683 277.978 195.255 277.006 193.707 277.006ZM192.567 279.454C192.663 278.83 193.023 278.35 193.755 278.35C194.391 278.35 194.811 278.794 194.811 279.454H192.567Z" fill="white"/>
<line x1="132.671" y1="297" x2="132.671" y2="363.608" stroke="black" stroke-width="0.5"/>
<line x1="166" y1="359.174" x2="100" y2="359.174" stroke="white"/>
<line x1="166" y1="355.063" x2="100" y2="355.063" stroke="white"/>
<line x1="166" y1="350.951" x2="100" y2="350.951" stroke="white"/>
<line x1="166" y1="347.662" x2="100" y2="347.662" stroke="white"/>
<line x1="166" y1="343.55" x2="100" y2="343.55" stroke="white"/>
<line x1="166" y1="339.439" x2="100" y2="339.439" stroke="white"/>
<line x1="166" y1="335.327" x2="100" y2="335.327" stroke="white"/>
<line x1="166" y1="332.038" x2="100" y2="332.038" stroke="white"/>
<line x1="166" y1="327.926" x2="100" y2="327.926" stroke="white"/>
<line x1="166" y1="323.814" x2="100" y2="323.814" stroke="white"/>
<line x1="166" y1="319.703" x2="100" y2="319.703" stroke="white"/>
<line x1="166" y1="316.413" x2="100" y2="316.413" stroke="white"/>
<line x1="166" y1="312.302" x2="100" y2="312.302" stroke="white"/>
<line x1="166" y1="308.19" x2="100" y2="308.19" stroke="white"/>
<line x1="166" y1="304.079" x2="100" y2="304.079" stroke="white"/>
<line x1="166" y1="299.967" x2="100" y2="299.967" stroke="white"/>
<path d="M133.591 362.506C133.243 363.309 132.104 363.309 131.756 362.506L130.68 360.022C130.395 359.362 130.879 358.625 131.598 358.625H133.749C134.468 358.625 134.952 359.362 134.666 360.022L133.591 362.506Z" fill="black"/>
<line x1="196.329" y1="363.608" x2="196.329" y2="297" stroke="black" stroke-width="0.5"/>
<line x1="163" y1="297.322" x2="229" y2="297.322" stroke="white"/>
<line x1="163" y1="301.434" x2="229" y2="301.434" stroke="white"/>
<line x1="163" y1="305.546" x2="229" y2="305.546" stroke="white"/>
<line x1="163" y1="309.657" x2="229" y2="309.657" stroke="white"/>
<line x1="163" y1="312.946" x2="229" y2="312.946" stroke="white"/>
<line x1="163" y1="317.058" x2="229" y2="317.058" stroke="white"/>
<line x1="163" y1="321.17" x2="229" y2="321.17" stroke="white"/>
<line x1="163" y1="325.281" x2="229" y2="325.281" stroke="white"/>
<line x1="163" y1="328.571" x2="229" y2="328.571" stroke="white"/>
<line x1="163" y1="332.682" x2="229" y2="332.682" stroke="white"/>
<line x1="163" y1="336.794" x2="229" y2="336.794" stroke="white"/>
<line x1="163" y1="340.906" x2="229" y2="340.906" stroke="white"/>
<line x1="163" y1="344.195" x2="229" y2="344.195" stroke="white"/>
<line x1="163" y1="348.306" x2="229" y2="348.306" stroke="white"/>
<line x1="163" y1="352.418" x2="229" y2="352.418" stroke="white"/>
<line x1="163" y1="356.53" x2="229" y2="356.53" stroke="white"/>
<line x1="163" y1="360.641" x2="229" y2="360.641" stroke="white"/>
<path d="M195.409 298.103C195.757 297.299 196.896 297.299 197.244 298.103L198.32 300.586C198.605 301.246 198.121 301.983 197.402 301.983H195.251C194.532 301.983 194.048 301.246 194.334 300.586L195.409 298.103Z" fill="black"/>
<rect x="103" y="365" width="122.425" height="32.7918" rx="10" fill="#00BBD4"/>
<path d="M113.382 381.166C114.006 380.914 114.414 380.326 114.414 379.558V379.438C114.414 377.95 113.13 377.398 111.462 377.398H108.426V385.198H111.81C113.502 385.198 114.678 384.562 114.678 383.074V382.954C114.678 382.126 114.102 381.382 113.382 381.19V381.166ZM111.618 378.862C112.182 378.862 112.41 379.246 112.41 379.63C112.41 379.966 112.206 380.518 111.594 380.518H110.334V378.862H111.618ZM111.726 381.982C112.554 381.982 112.71 382.606 112.71 382.894C112.71 383.326 112.566 383.722 111.714 383.722H110.334V381.982H111.726ZM118.253 383.938C117.761 383.938 117.425 383.758 117.425 383.326C117.425 382.762 117.929 382.606 118.445 382.606C118.769 382.606 119.057 382.69 119.285 382.798V383.05C119.285 383.638 118.685 383.938 118.253 383.938ZM119.501 384.502L119.729 385.198H121.133V381.478C121.133 380.71 120.977 380.122 120.557 379.702C120.029 379.162 119.309 379.018 118.409 379.018C117.197 379.018 115.865 379.654 115.865 380.902V381.058H117.665V381.034C117.701 380.686 117.905 380.362 118.481 380.362C119.021 380.362 119.285 380.686 119.285 381.298V381.574C118.913 381.478 118.625 381.442 118.229 381.442C117.353 381.442 116.501 381.694 116.057 382.162C115.709 382.51 115.541 382.906 115.541 383.374V383.506C115.541 384.694 116.561 385.378 117.749 385.378C118.529 385.378 119.153 385.042 119.477 384.502H119.501ZM124.335 381.718C124.335 380.95 124.707 380.578 125.319 380.578C125.847 380.578 126.243 380.914 126.243 381.718V385.198H128.127V381.154C128.127 379.99 127.431 379.018 125.955 379.018C125.187 379.018 124.599 379.306 124.179 379.978H124.155L123.915 379.198H122.451V385.198H124.335V381.718ZM131.091 382.174C131.091 381.274 131.487 380.566 132.339 380.566C133.191 380.566 133.587 381.298 133.587 382.21C133.587 383.11 133.191 383.818 132.339 383.818C131.487 383.818 131.091 383.086 131.091 382.174ZM129.111 382.342C129.111 384.226 130.467 385.378 131.859 385.378C132.675 385.378 133.263 385.126 133.731 384.466H133.755L133.995 385.198H135.435V376.798H133.563V379.606H133.539C133.191 379.21 132.663 379.018 131.943 379.018C130.323 379.018 129.111 380.422 129.111 382.114V382.342ZM139.637 379.006C137.909 379.006 136.541 380.23 136.541 382.114V382.318C136.541 384.238 138.017 385.39 139.709 385.39C141.089 385.39 142.313 384.718 142.601 383.326H140.837C140.657 383.794 140.249 383.95 139.757 383.95C138.977 383.95 138.545 383.41 138.461 382.654H142.589C142.601 382.522 142.613 382.234 142.613 381.994C142.613 379.978 141.185 379.006 139.637 379.006ZM138.497 381.454C138.593 380.83 138.953 380.35 139.685 380.35C140.321 380.35 140.741 380.794 140.741 381.454H138.497ZM145.604 382.366C145.604 381.586 145.784 380.974 146.852 380.974H147.62V379.222C147.464 379.174 147.2 379.15 147.02 379.15C146.252 379.15 145.58 379.618 145.496 380.47H145.46L145.112 379.198H143.72V385.198H145.604V382.366ZM150.784 383.938C150.292 383.938 149.956 383.758 149.956 383.326C149.956 382.762 150.46 382.606 150.976 382.606C151.3 382.606 151.588 382.69 151.816 382.798V383.05C151.816 383.638 151.216 383.938 150.784 383.938ZM152.032 384.502L152.26 385.198H153.664V381.478C153.664 380.71 153.508 380.122 153.088 379.702C152.56 379.162 151.84 379.018 150.94 379.018C149.728 379.018 148.396 379.654 148.396 380.902V381.058H150.196V381.034C150.232 380.686 150.436 380.362 151.012 380.362C151.552 380.362 151.816 380.686 151.816 381.298V381.574C151.444 381.478 151.156 381.442 150.76 381.442C149.884 381.442 149.032 381.694 148.588 382.162C148.24 382.51 148.072 382.906 148.072 383.374V383.506C148.072 384.694 149.092 385.378 150.28 385.378C151.06 385.378 151.684 385.042 152.008 384.502H152.032ZM158.806 382.174C158.806 381.274 159.202 380.566 160.054 380.566C160.906 380.566 161.302 381.298 161.302 382.21C161.302 383.11 160.906 383.818 160.054 383.818C159.202 383.818 158.806 383.086 158.806 382.174ZM156.826 382.342C156.826 384.226 158.182 385.378 159.574 385.378C160.39 385.378 160.978 385.126 161.446 384.466H161.47L161.71 385.198H163.15V376.798H161.278V379.606H161.254C160.906 379.21 160.378 379.018 159.658 379.018C158.038 379.018 156.826 380.422 156.826 382.114V382.342ZM167.352 379.006C165.624 379.006 164.256 380.23 164.256 382.114V382.318C164.256 384.238 165.732 385.39 167.424 385.39C168.804 385.39 170.028 384.718 170.316 383.326H168.552C168.372 383.794 167.964 383.95 167.472 383.95C166.692 383.95 166.26 383.41 166.176 382.654H170.304C170.316 382.522 170.328 382.234 170.328 381.994C170.328 379.978 168.9 379.006 167.352 379.006ZM166.212 381.454C166.308 380.83 166.668 380.35 167.4 380.35C168.036 380.35 168.456 380.794 168.456 381.454H166.212ZM175.415 376.798H173.531V383.362C173.531 384.742 174.263 385.27 175.463 385.27C175.799 385.27 176.015 385.246 176.363 385.162V383.77H176.219C175.607 383.854 175.415 383.614 175.415 383.026V376.798ZM179.706 383.938C179.214 383.938 178.878 383.758 178.878 383.326C178.878 382.762 179.382 382.606 179.898 382.606C180.222 382.606 180.51 382.69 180.738 382.798V383.05C180.738 383.638 180.138 383.938 179.706 383.938ZM180.954 384.502L181.182 385.198H182.586V381.478C182.586 380.71 182.43 380.122 182.01 379.702C181.482 379.162 180.762 379.018 179.862 379.018C178.65 379.018 177.318 379.654 177.318 380.902V381.058H179.118V381.034C179.154 380.686 179.358 380.362 179.934 380.362C180.474 380.362 180.738 380.686 180.738 381.298V381.574C180.366 381.478 180.078 381.442 179.682 381.442C178.806 381.442 177.954 381.694 177.51 382.162C177.162 382.51 176.994 382.906 176.994 383.374V383.506C176.994 384.694 178.014 385.378 179.202 385.378C179.982 385.378 180.606 385.042 180.93 384.502H180.954ZM185.7 378.994H187.92V385.198H189.9V378.994H192.036V377.398H185.7V378.994ZM194.331 383.938C193.839 383.938 193.503 383.758 193.503 383.326C193.503 382.762 194.007 382.606 194.523 382.606C194.847 382.606 195.135 382.69 195.363 382.798V383.05C195.363 383.638 194.763 383.938 194.331 383.938ZM195.579 384.502L195.807 385.198H197.211V381.478C197.211 380.71 197.055 380.122 196.635 379.702C196.107 379.162 195.387 379.018 194.487 379.018C193.275 379.018 191.943 379.654 191.943 380.902V381.058H193.743V381.034C193.779 380.686 193.983 380.362 194.559 380.362C195.099 380.362 195.363 380.686 195.363 381.298V381.574C194.991 381.478 194.703 381.442 194.307 381.442C193.431 381.442 192.579 381.694 192.135 382.162C191.787 382.51 191.619 382.906 191.619 383.374V383.506C191.619 384.694 192.639 385.378 193.827 385.378C194.607 385.378 195.231 385.042 195.555 384.502H195.579ZM200.413 382.366C200.413 381.586 200.593 380.974 201.661 380.974H202.429V379.222C202.273 379.174 202.009 379.15 201.829 379.15C201.061 379.15 200.389 379.618 200.305 380.47H200.269L199.921 379.198H198.529V385.198H200.413V382.366ZM205.456 377.542C205.456 376.918 204.928 376.546 204.304 376.546C203.668 376.546 203.152 376.918 203.152 377.542V377.626C203.152 378.25 203.668 378.598 204.304 378.598C204.928 378.598 205.456 378.25 205.456 377.626V377.542ZM204.052 387.358C204.808 386.794 205.252 385.762 205.252 384.658V379.198H203.356V384.574C203.356 385.378 203.092 386.542 202.216 387.154V387.358H204.052ZM209.434 379.006C207.706 379.006 206.338 380.23 206.338 382.114V382.318C206.338 384.238 207.814 385.39 209.506 385.39C210.886 385.39 212.11 384.718 212.398 383.326H210.634C210.454 383.794 210.046 383.95 209.554 383.95C208.774 383.95 208.342 383.41 208.258 382.654H212.386C212.398 382.522 212.41 382.234 212.41 381.994C212.41 379.978 210.982 379.006 209.434 379.006ZM208.294 381.454C208.39 380.83 208.75 380.35 209.482 380.35C210.118 380.35 210.538 380.794 210.538 381.454H208.294ZM215.431 379.27V377.842H214.663C214.207 378.73 213.787 379.294 212.791 379.75V380.626H213.547V383.41C213.547 384.814 214.423 385.318 215.575 385.318C215.995 385.318 216.643 385.186 216.919 385.006V383.614H216.775C216.547 383.71 216.271 383.806 216.031 383.806C215.659 383.806 215.443 383.65 215.443 383.206V380.626H216.799V379.27H215.431ZM220.323 383.938C219.831 383.938 219.495 383.758 219.495 383.326C219.495 382.762 219.999 382.606 220.515 382.606C220.839 382.606 221.127 382.69 221.355 382.798V383.05C221.355 383.638 220.755 383.938 220.323 383.938ZM221.571 384.502L221.799 385.198H223.203V381.478C223.203 380.71 223.047 380.122 222.627 379.702C222.099 379.162 221.379 379.018 220.479 379.018C219.267 379.018 217.935 379.654 217.935 380.902V381.058H219.735V381.034C219.771 380.686 219.975 380.362 220.551 380.362C221.091 380.362 221.355 380.686 221.355 381.298V381.574C220.983 381.478 220.695 381.442 220.299 381.442C219.423 381.442 218.571 381.694 218.127 382.162C217.779 382.51 217.611 382.906 217.611 383.374V383.506C217.611 384.694 218.631 385.378 219.819 385.378C220.599 385.378 221.223 385.042 221.547 384.502H221.571Z" fill="white"/>
<line x1="131.671" y1="398" x2="131.671" y2="464.608" stroke="black" stroke-width="0.5"/>
<line x1="165" y1="460.174" x2="99" y2="460.174" stroke="white"/>
<line x1="165" y1="456.063" x2="99" y2="456.063" stroke="white"/>
<line x1="165" y1="451.951" x2="99" y2="451.951" stroke="white"/>
<line x1="165" y1="448.662" x2="99" y2="448.662" stroke="white"/>
<line x1="165" y1="444.55" x2="99" y2="444.55" stroke="white"/>
<line x1="165" y1="440.439" x2="99" y2="440.439" stroke="white"/>
<line x1="165" y1="436.327" x2="99" y2="436.327" stroke="white"/>
<line x1="165" y1="433.038" x2="99" y2="433.038" stroke="white"/>
<line x1="165" y1="428.926" x2="99" y2="428.926" stroke="white"/>
<line x1="165" y1="424.814" x2="99" y2="424.814" stroke="white"/>
<line x1="165" y1="420.703" x2="99" y2="420.703" stroke="white"/>
<line x1="165" y1="417.413" x2="99" y2="417.413" stroke="white"/>
<line x1="165" y1="413.302" x2="99" y2="413.302" stroke="white"/>
<line x1="165" y1="409.19" x2="99" y2="409.19" stroke="white"/>
<line x1="165" y1="405.079" x2="99" y2="405.079" stroke="white"/>
<line x1="165" y1="400.967" x2="99" y2="400.967" stroke="white"/>
<path d="M132.591 463.506C132.243 464.309 131.104 464.309 130.756 463.506L129.68 461.022C129.395 460.362 129.879 459.625 130.598 459.625H132.749C133.468 459.625 133.952 460.362 133.666 461.022L132.591 463.506Z" fill="black"/>
<line x1="195.329" y1="464.608" x2="195.329" y2="398" stroke="black" stroke-width="0.5"/>
<line x1="162" y1="398.322" x2="228" y2="398.322" stroke="white"/>
<line x1="162" y1="402.434" x2="228" y2="402.434" stroke="white"/>
<line x1="162" y1="406.546" x2="228" y2="406.546" stroke="white"/>
<line x1="162" y1="410.657" x2="228" y2="410.657" stroke="white"/>
<line x1="162" y1="413.946" x2="228" y2="413.946" stroke="white"/>
<line x1="162" y1="418.058" x2="228" y2="418.058" stroke="white"/>
<line x1="162" y1="422.17" x2="228" y2="422.17" stroke="white"/>
<line x1="162" y1="426.281" x2="228" y2="426.281" stroke="white"/>
<line x1="162" y1="429.571" x2="228" y2="429.571" stroke="white"/>
<line x1="162" y1="433.682" x2="228" y2="433.682" stroke="white"/>
<line x1="162" y1="437.794" x2="228" y2="437.794" stroke="white"/>
<line x1="162" y1="441.906" x2="228" y2="441.906" stroke="white"/>
<line x1="162" y1="445.195" x2="228" y2="445.195" stroke="white"/>
<line x1="162" y1="449.306" x2="228" y2="449.306" stroke="white"/>
<line x1="162" y1="453.418" x2="228" y2="453.418" stroke="white"/>
<line x1="162" y1="457.53" x2="228" y2="457.53" stroke="white"/>
<line x1="162" y1="461.641" x2="228" y2="461.641" stroke="white"/>
<path d="M194.409 399.103C194.757 398.299 195.896 398.299 196.244 399.103L197.32 401.586C197.605 402.246 197.121 402.983 196.402 402.983H194.251C193.532 402.983 193.048 402.246 193.334 401.586L194.409 399.103Z" fill="black"/>
<rect x="103" y="465" width="122.427" height="32.7918" rx="10" fill="#00BBD4"/>
<path d="M133.785 481.166C134.409 480.914 134.817 480.326 134.817 479.558V479.438C134.817 477.95 133.533 477.398 131.865 477.398H128.829V485.198H132.213C133.905 485.198 135.081 484.562 135.081 483.074V482.954C135.081 482.126 134.505 481.382 133.785 481.19V481.166ZM132.021 478.862C132.585 478.862 132.813 479.246 132.813 479.63C132.813 479.966 132.609 480.518 131.997 480.518H130.737V478.862H132.021ZM132.129 481.982C132.957 481.982 133.113 482.606 133.113 482.894C133.113 483.326 132.969 483.722 132.117 483.722H130.737V481.982H132.129ZM138.656 483.938C138.164 483.938 137.828 483.758 137.828 483.326C137.828 482.762 138.332 482.606 138.848 482.606C139.172 482.606 139.46 482.69 139.688 482.798V483.05C139.688 483.638 139.088 483.938 138.656 483.938ZM139.904 484.502L140.132 485.198H141.536V481.478C141.536 480.71 141.38 480.122 140.96 479.702C140.432 479.162 139.712 479.018 138.812 479.018C137.6 479.018 136.268 479.654 136.268 480.902V481.058H138.068V481.034C138.104 480.686 138.308 480.362 138.884 480.362C139.424 480.362 139.688 480.686 139.688 481.298V481.574C139.316 481.478 139.028 481.442 138.632 481.442C137.756 481.442 136.904 481.694 136.46 482.162C136.112 482.51 135.944 482.906 135.944 483.374V483.506C135.944 484.694 136.964 485.378 138.152 485.378C138.932 485.378 139.556 485.042 139.88 484.502H139.904ZM144.738 481.718C144.738 480.95 145.11 480.578 145.722 480.578C146.25 480.578 146.646 480.914 146.646 481.718V485.198H148.53V481.154C148.53 479.99 147.834 479.018 146.358 479.018C145.59 479.018 145.002 479.306 144.582 479.978H144.558L144.318 479.198H142.854V485.198H144.738V481.718ZM152.731 480.506C153.355 480.506 153.775 480.878 153.907 481.55H155.623V481.394C155.491 479.858 154.171 479.006 152.647 479.006C150.919 479.006 149.515 480.266 149.515 482.09V482.318C149.515 484.202 150.967 485.39 152.659 485.39C154.099 485.39 155.467 484.538 155.623 483.002V482.846H153.907C153.751 483.554 153.403 483.89 152.731 483.89C151.831 483.89 151.423 483.17 151.423 482.198C151.423 481.238 151.831 480.506 152.731 480.506ZM156.253 482.318C156.253 484.238 157.729 485.39 159.481 485.39C161.173 485.39 162.661 484.238 162.661 482.306V482.078C162.661 480.158 161.185 479.006 159.457 479.006C157.729 479.006 156.253 480.158 156.253 482.09V482.318ZM158.233 482.174C158.233 481.274 158.617 480.566 159.457 480.566C160.297 480.566 160.681 481.298 160.681 482.21C160.681 483.11 160.297 483.818 159.457 483.818C158.617 483.818 158.233 483.086 158.233 482.174ZM166.036 477.398V485.198H171.436V483.59H168.016V482.078H170.92V480.434H168.016V478.994H171.436V477.398H166.036ZM177.873 479.99C177.549 479.402 176.997 479.018 176.097 479.018C175.377 479.018 174.813 479.294 174.441 479.966H174.417L174.177 479.198H172.713V485.198H174.597V481.634C174.597 480.866 174.921 480.578 175.461 480.578C175.929 480.578 176.265 480.794 176.265 481.61V485.198H178.161V481.61C178.161 480.854 178.485 480.578 179.025 480.578C179.493 480.578 179.829 480.794 179.829 481.61V485.198H181.713V481.046C181.713 479.894 181.053 479.018 179.661 479.018C178.941 479.018 178.281 479.318 177.897 479.99H177.873ZM185.09 477.542C185.09 476.918 184.562 476.546 183.938 476.546C183.302 476.546 182.786 476.918 182.786 477.542V477.626C182.786 478.25 183.302 478.598 183.938 478.598C184.562 478.598 185.09 478.25 185.09 477.626V477.542ZM184.886 485.198V479.198H182.99V485.198H184.886ZM185.996 480.998C185.996 481.418 186.164 481.838 186.44 482.114C187.04 482.714 187.952 482.774 188.564 482.93C189.08 483.062 189.212 483.29 189.212 483.566C189.212 483.938 188.924 484.106 188.492 484.106C187.976 484.106 187.664 483.818 187.628 483.242H185.924V483.374C185.984 484.838 187.112 485.378 188.492 485.378C189.716 485.378 191.06 484.814 191.06 483.398V483.278C191.06 482.858 190.916 482.45 190.664 482.174C190.076 481.55 189.152 481.442 188.408 481.322C188.084 481.262 187.868 481.106 187.868 480.782C187.868 480.506 188.072 480.29 188.492 480.29C188.96 480.29 189.2 480.53 189.2 480.926H190.904V480.794C190.904 479.534 189.74 479.006 188.456 479.006C187.304 479.006 185.996 479.498 185.996 480.902V480.998ZM191.761 482.318C191.761 484.238 193.237 485.39 194.989 485.39C196.681 485.39 198.169 484.238 198.169 482.306V482.078C198.169 480.158 196.693 479.006 194.965 479.006C193.237 479.006 191.761 480.158 191.761 482.09V482.318ZM193.741 482.174C193.741 481.274 194.125 480.566 194.965 480.566C195.805 480.566 196.189 481.298 196.189 482.21C196.189 483.11 195.805 483.818 194.965 483.818C194.125 483.818 193.741 483.086 193.741 482.174ZM201.152 482.366C201.152 481.586 201.332 480.974 202.4 480.974H203.168V479.222C203.012 479.174 202.748 479.15 202.568 479.15C201.8 479.15 201.128 479.618 201.044 480.47H201.008L200.66 479.198H199.268V485.198H201.152V482.366Z" fill="white"/>
<circle cx="60" cy="47" r="14" fill="#F71963"/>
<path d="M61.3 51V43.152H59.728C59.536 44.184 58.804 44.292 57.88 44.352V45.684H59.368V51H61.3Z" fill="white"/>
<circle cx="60" cy="180" r="14" fill="#F71963"/>
<path d="M62.6747 178.48C62.6747 176.812 61.4507 176.02 59.8667 176.02C58.4267 176.02 57.0347 176.788 57.0347 178.408C57.0347 178.804 57.1067 179.2 57.1907 179.392H58.9067V179.176C58.8587 178.948 58.8347 178.696 58.8347 178.54C58.8347 177.916 59.1947 177.508 59.8187 177.508C60.4907 177.508 60.8027 177.904 60.8027 178.528C60.8027 179.248 60.5627 179.692 60.0467 180.22C59.1347 181.168 58.2107 182.008 57.0587 182.932V184H62.8427V182.404H61.1267C60.8867 182.404 60.2027 182.416 59.9627 182.452V182.428C61.1747 181.432 62.6747 180.184 62.6747 178.648V178.48Z" fill="white"/>
<circle cx="60" cy="279" r="14" fill="#F71963"/>
<path d="M58.879 279.256L59.011 279.316C59.191 279.292 59.395 279.28 59.599 279.28C60.499 279.28 61.063 279.556 61.063 280.528C61.063 281.236 60.655 281.716 59.935 281.716C59.227 281.716 58.807 281.32 58.759 280.6H56.959V280.768C57.043 282.388 58.147 283.18 59.887 283.18C61.603 283.18 62.899 282.352 62.899 280.408V280.288C62.899 279.124 62.143 278.248 60.991 278.056L62.539 276.28V275.2H57.283V276.7H58.891C59.155 276.7 60.043 276.7 60.307 276.664V276.688C60.007 276.976 59.599 277.468 59.359 277.744L58.687 278.5L58.879 279.256Z" fill="white"/>
<circle cx="60" cy="381" r="14" fill="#F71963"/>
<path d="M56.6493 383.104H60.3333V385H62.2413V383.104H63.3933V381.58H62.2413V377.2H60.3093L56.4933 382.06L56.6493 383.104ZM59.2413 381.58C59.0373 381.58 58.7853 381.58 58.6533 381.616V381.592C58.7973 381.412 58.9653 381.184 59.0973 380.992L60.0573 379.72C60.2373 379.492 60.3573 379.228 60.4653 379.024H60.4893C60.4653 379.312 60.4533 379.588 60.4533 379.864V381.58H59.2413Z" fill="white"/>
<circle cx="60" cy="481" r="14" fill="#F71963"/>
<path d="M57.6288 481.592C57.9768 481.532 58.6368 481.448 59.2008 481.448C60.1128 481.448 60.9288 481.64 60.9288 482.504C60.9288 483.128 60.5088 483.584 59.5368 483.584C58.7568 483.584 58.1088 483.392 57.3408 482.996H57.1368V484.7C57.9048 485.072 58.7448 485.18 59.6088 485.18C61.1928 485.18 62.8008 484.376 62.8008 482.504V482.336C62.8008 480.68 61.0968 479.78 59.3208 479.936L59.4528 478.736H62.4168V477.2H57.8808L57.4368 481.436L57.6288 481.592Z" fill="white"/>
</svg>
