<svg width="703" height="115" viewBox="0 0 703 115" fill="none" xmlns="http://www.w3.org/2000/svg">
<rect width="703" height="115" fill="white"/>
<path d="M456 60C456 55.3406 456 53.0109 456.761 51.1732C457.776 48.7229 459.723 46.7761 462.173 45.7612C464.011 45 466.341 45 471 45H491C495.659 45 497.989 45 499.827 45.7612C502.277 46.7761 504.224 48.7229 505.239 51.1732C506 53.0109 506 55.3406 506 60V80C506 84.6594 506 86.9891 505.239 88.8268C504.224 91.2771 502.277 93.2239 499.827 94.2388C497.989 95 495.659 95 491 95H471C466.341 95 464.011 95 462.173 94.2388C459.723 93.2239 457.776 91.2771 456.761 88.8268C456 86.9891 456 84.6594 456 80V60Z" fill="#142032"/>
<path d="M426.539 30.84C428.279 30.84 429.611 29.892 429.611 28.164V27.972C429.611 26.184 428.231 25.2 426.647 25.2H423.047V33H425.039V30.84H426.539ZM426.443 26.724C427.319 26.724 427.619 27.264 427.619 28.068C427.619 28.788 427.295 29.304 426.383 29.304H425.039V26.724H426.443ZM433.964 26.724C434.84 26.724 435.104 27.252 435.104 27.732C435.104 28.32 434.792 28.848 433.832 28.848H432.632V26.724H433.964ZM437.036 27.684C437.036 26.016 435.656 25.2 434.012 25.2H430.652V33H432.632V30.264H433.268L435.248 33H437.348V32.76L435.332 30.096C436.388 29.748 437.036 28.944 437.036 27.876V27.684ZM438.246 25.2V33H443.646V31.392H440.226V29.88H443.13V28.236H440.226V26.796H443.646V25.2H438.246ZM447.927 35.34C448.695 35.34 449.571 35.124 449.571 34.308C449.571 33.912 449.151 33.612 448.755 33.552L448.851 33.168C450.639 33.012 451.983 31.92 452.175 30.132V29.964H450.207C450.123 30.864 449.619 31.464 448.527 31.464C447.135 31.464 446.511 30.372 446.511 29.088C446.511 27.816 447.135 26.724 448.527 26.724C449.499 26.724 450.051 27.18 450.195 28.092H452.175V27.936C451.983 26.112 450.351 25.02 448.431 25.02C446.223 25.02 444.435 26.676 444.435 28.98V29.268C444.435 31.44 445.959 32.928 447.915 33.156L447.651 33.756L447.723 33.888C448.107 33.9 448.299 34.008 448.299 34.212C448.299 34.392 448.071 34.488 447.723 34.488C447.507 34.488 447.243 34.428 446.943 34.296H446.751V35.16C447.039 35.268 447.531 35.34 447.927 35.34ZM452.884 29.244C452.884 31.584 454.684 33.18 457 33.18C459.316 33.18 461.116 31.584 461.116 29.244V28.956C461.116 26.616 459.304 25.02 457 25.02C454.696 25.02 452.884 26.616 452.884 28.956V29.244ZM454.96 29.1C454.96 27.756 455.632 26.688 456.988 26.688C458.368 26.688 459.04 27.756 459.04 29.1C459.04 30.444 458.308 31.512 456.988 31.512C455.692 31.512 454.96 30.444 454.96 29.1ZM468.168 26.724C469.14 26.724 469.692 27.18 469.836 28.092H471.816V27.936C471.624 26.112 469.992 25.02 468.072 25.02C465.864 25.02 464.076 26.676 464.076 28.98V29.268C464.076 31.644 465.876 33.18 468.072 33.18C470.064 33.18 471.588 32.064 471.816 30.132V29.964H469.848C469.764 30.864 469.26 31.464 468.168 31.464C466.776 31.464 466.152 30.372 466.152 29.088C466.152 27.816 466.776 26.724 468.168 26.724ZM472.525 29.244C472.525 31.584 474.325 33.18 476.641 33.18C478.957 33.18 480.757 31.584 480.757 29.244V28.956C480.757 26.616 478.945 25.02 476.641 25.02C474.337 25.02 472.525 26.616 472.525 28.956V29.244ZM474.601 29.1C474.601 27.756 475.273 26.688 476.629 26.688C478.009 26.688 478.681 27.756 478.681 29.1C478.681 30.444 477.949 31.512 476.629 31.512C475.333 31.512 474.601 30.444 474.601 29.1ZM488.694 29.22C488.862 28.824 489.066 28.02 489.126 27.516H489.15C489.114 28.02 489.162 28.824 489.222 29.328L489.75 33H491.706V32.784L490.566 25.2H488.694L486.594 30.24H486.57L484.494 25.2H482.574L481.386 32.784V33H483.282L483.81 29.436C483.87 28.956 483.87 28.032 483.834 27.516H483.858C483.954 27.984 484.23 28.98 484.362 29.268L485.826 32.88H487.242L488.694 29.22ZM496.476 30.84C498.216 30.84 499.548 29.892 499.548 28.164V27.972C499.548 26.184 498.168 25.2 496.584 25.2H492.984V33H494.976V30.84H496.476ZM496.38 26.724C497.256 26.724 497.556 27.264 497.556 28.068C497.556 28.788 497.232 29.304 496.32 29.304H494.976V26.724H496.38ZM507.262 25.2H505.318V30.324C505.318 31.14 504.694 31.536 503.962 31.536C503.098 31.536 502.546 31.14 502.546 30.324V25.2H500.542V30.012C500.542 32.076 501.67 33.18 503.914 33.18C506.122 33.18 507.262 32.076 507.262 30.012V25.2ZM508.395 26.796H510.615V33H512.595V26.796H514.731V25.2H508.395V26.796ZM518.269 27.024C518.365 27.456 518.545 28.008 518.701 28.452L519.301 30.108H517.213L517.813 28.452C517.969 28.008 518.149 27.456 518.245 27.024H518.269ZM520.345 33H522.361V32.784L519.313 25.2H517.177L514.129 32.784V33H516.169L516.661 31.644H519.853L520.345 33ZM523.207 25.2V33H526.543C528.511 33 530.347 31.74 530.347 29.244V28.956C530.347 26.496 528.511 25.2 526.555 25.2H523.207ZM526.447 26.748C527.695 26.748 528.295 27.624 528.295 29.064C528.295 30.504 527.731 31.452 526.423 31.452H525.163V26.748H526.447ZM531.142 29.244C531.142 31.584 532.942 33.18 535.258 33.18C537.574 33.18 539.374 31.584 539.374 29.244V28.956C539.374 26.616 537.562 25.02 535.258 25.02C532.954 25.02 531.142 26.616 531.142 28.956V29.244ZM533.218 29.1C533.218 27.756 533.89 26.688 535.246 26.688C536.626 26.688 537.298 27.756 537.298 29.1C537.298 30.444 536.566 31.512 535.246 31.512C533.95 31.512 533.218 30.444 533.218 29.1Z" fill="black"/>
<path d="M189 60C189 55.3406 189 53.0109 189.761 51.1732C190.776 48.7229 192.723 46.7761 195.173 45.7612C197.011 45 199.341 45 204 45H224C228.659 45 230.989 45 232.827 45.7612C235.277 46.7761 237.224 48.7229 238.239 51.1732C239 53.0109 239 55.3406 239 60V80C239 84.6594 239 86.9891 238.239 88.8268C237.224 91.2771 235.277 93.2239 232.827 94.2388C230.989 95 228.659 95 224 95H204C199.341 95 197.011 95 195.173 94.2388C192.723 93.2239 190.776 91.2771 189.761 88.8268C189 86.9891 189 84.6594 189 80V60Z" fill="#F71963"/>
<path d="M182.312 30.84C184.052 30.84 185.384 29.892 185.384 28.164V27.972C185.384 26.184 184.004 25.2 182.42 25.2H178.82V33H180.812V30.84H182.312ZM182.216 26.724C183.092 26.724 183.392 27.264 183.392 28.068C183.392 28.788 183.068 29.304 182.156 29.304H180.812V26.724H182.216ZM189.738 26.724C190.614 26.724 190.878 27.252 190.878 27.732C190.878 28.32 190.566 28.848 189.606 28.848H188.406V26.724H189.738ZM192.81 27.684C192.81 26.016 191.43 25.2 189.786 25.2H186.426V33H188.406V30.264H189.042L191.022 33H193.122V32.76L191.106 30.096C192.162 29.748 192.81 28.944 192.81 27.876V27.684ZM194.019 25.2V33H199.419V31.392H195.999V29.88H198.903V28.236H195.999V26.796H199.419V25.2H194.019ZM203.701 35.34C204.469 35.34 205.345 35.124 205.345 34.308C205.345 33.912 204.925 33.612 204.529 33.552L204.625 33.168C206.413 33.012 207.757 31.92 207.949 30.132V29.964H205.98C205.897 30.864 205.393 31.464 204.301 31.464C202.909 31.464 202.285 30.372 202.285 29.088C202.285 27.816 202.909 26.724 204.301 26.724C205.273 26.724 205.825 27.18 205.969 28.092H207.949V27.936C207.757 26.112 206.125 25.02 204.205 25.02C201.997 25.02 200.208 26.676 200.208 28.98V29.268C200.208 31.44 201.733 32.928 203.689 33.156L203.425 33.756L203.497 33.888C203.881 33.9 204.073 34.008 204.073 34.212C204.073 34.392 203.845 34.488 203.497 34.488C203.281 34.488 203.017 34.428 202.717 34.296H202.525V35.16C202.812 35.268 203.305 35.34 203.701 35.34ZM208.658 29.244C208.658 31.584 210.458 33.18 212.774 33.18C215.09 33.18 216.89 31.584 216.89 29.244V28.956C216.89 26.616 215.078 25.02 212.774 25.02C210.47 25.02 208.658 26.616 208.658 28.956V29.244ZM210.734 29.1C210.734 27.756 211.406 26.688 212.762 26.688C214.142 26.688 214.814 27.756 214.814 29.1C214.814 30.444 214.082 31.512 212.762 31.512C211.466 31.512 210.734 30.444 210.734 29.1ZM225.237 28.968C225.861 28.716 226.269 28.128 226.269 27.36V27.24C226.269 25.752 224.985 25.2 223.317 25.2H220.281V33H223.665C225.357 33 226.533 32.364 226.533 30.876V30.756C226.533 29.928 225.957 29.184 225.237 28.992V28.968ZM223.473 26.664C224.037 26.664 224.265 27.048 224.265 27.432C224.265 27.768 224.061 28.32 223.449 28.32H222.189V26.664H223.473ZM223.581 29.784C224.409 29.784 224.565 30.408 224.565 30.696C224.565 31.128 224.421 31.524 223.569 31.524H222.189V29.784H223.581ZM231.059 27.024C231.155 27.456 231.335 28.008 231.491 28.452L232.091 30.108H230.003L230.603 28.452C230.759 28.008 230.939 27.456 231.035 27.024H231.059ZM233.135 33H235.151V32.784L232.103 25.2H229.967L226.919 32.784V33H228.959L229.451 31.644H232.643L233.135 33ZM235.732 27.564C235.732 28.104 236.008 28.692 236.332 29.016C236.908 29.592 238.156 29.76 239.02 30.084C239.704 30.312 239.836 30.528 239.836 30.948C239.836 31.392 239.416 31.74 238.744 31.74C238.024 31.74 237.544 31.452 237.508 30.744H235.576V30.912C235.732 32.58 237.028 33.18 238.672 33.18C240.184 33.18 241.78 32.556 241.78 30.684V30.564C241.78 29.976 241.492 29.388 241.168 29.064C240.592 28.488 239.392 28.236 238.6 28.02C238.072 27.876 237.724 27.732 237.724 27.216C237.724 26.796 238.06 26.508 238.732 26.508C239.416 26.508 239.692 26.856 239.728 27.3H241.612V27.144C241.48 25.608 240.184 25.056 238.672 25.056C237.256 25.056 235.732 25.68 235.732 27.444V27.564ZM243.039 25.2V33H248.439V31.392H245.019V29.88H247.923V28.236H245.019V26.796H248.439V25.2H243.039Z" fill="black"/>
<path d="M296.773 26.724C297.649 26.724 297.913 27.252 297.913 27.732C297.913 28.32 297.601 28.848 296.641 28.848H295.441V26.724H296.773ZM299.845 27.684C299.845 26.016 298.465 25.2 296.821 25.2H293.461V33H295.441V30.264H296.077L298.057 33H300.157V32.76L298.141 30.096C299.197 29.748 299.845 28.944 299.845 27.876V27.684ZM301.055 25.2V33H306.455V31.392H303.035V29.88H305.939V28.236H303.035V26.796H306.455V25.2H301.055ZM315.104 28.68H311.336V30.264H313.34V31.032C312.92 31.356 312.38 31.572 311.624 31.572C310.124 31.572 309.284 30.492 309.284 29.112C309.284 27.588 309.968 26.664 311.396 26.664C312.272 26.664 312.86 26.964 312.992 27.672H314.924V27.516C314.672 25.752 313.292 25.02 311.336 25.02C309.044 25.02 307.244 26.604 307.244 28.956V29.244C307.244 31.488 308.888 33.18 311.444 33.18C313.352 33.18 314.6 32.256 315.104 31.596V28.68ZM319.859 26.724C320.735 26.724 320.999 27.252 320.999 27.732C320.999 28.32 320.687 28.848 319.727 28.848H318.527V26.724H319.859ZM322.931 27.684C322.931 26.016 321.551 25.2 319.907 25.2H316.547V33H318.527V30.264H319.163L321.143 33H323.243V32.76L321.227 30.096C322.283 29.748 322.931 28.944 322.931 27.876V27.684ZM327.477 27.024C327.573 27.456 327.753 28.008 327.909 28.452L328.509 30.108H326.421L327.021 28.452C327.177 28.008 327.357 27.456 327.453 27.024H327.477ZM329.553 33H331.569V32.784L328.521 25.2H326.385L323.337 32.784V33H325.377L325.869 31.644H329.061L329.553 33ZM334.57 25.2V33H337.906C339.874 33 341.71 31.74 341.71 29.244V28.956C341.71 26.496 339.874 25.2 337.918 25.2H334.57ZM337.81 26.748C339.058 26.748 339.658 27.624 339.658 29.064C339.658 30.504 339.094 31.452 337.786 31.452H336.526V26.748H337.81ZM342.937 25.2V33H348.337V31.392H344.917V29.88H347.821V28.236H344.917V26.796H348.337V25.2H342.937ZM355.383 30.84C357.122 30.84 358.455 29.892 358.455 28.164V27.972C358.455 26.184 357.075 25.2 355.491 25.2H351.891V33H353.883V30.84H355.383ZM355.287 26.724C356.163 26.724 356.463 27.264 356.463 28.068C356.463 28.788 356.139 29.304 355.227 29.304H353.883V26.724H355.287ZM362.808 26.724C363.684 26.724 363.948 27.252 363.948 27.732C363.948 28.32 363.636 28.848 362.676 28.848H361.476V26.724H362.808ZM365.88 27.684C365.88 26.016 364.5 25.2 362.856 25.2H359.496V33H361.476V30.264H362.112L364.092 33H366.192V32.76L364.176 30.096C365.232 29.748 365.88 28.944 365.88 27.876V27.684ZM367.09 25.2V33H372.49V31.392H369.07V29.88H371.974V28.236H369.07V26.796H372.49V25.2H367.09ZM376.771 35.34C377.539 35.34 378.415 35.124 378.415 34.308C378.415 33.912 377.995 33.612 377.599 33.552L377.695 33.168C379.483 33.012 380.827 31.92 381.019 30.132V29.964H379.051C378.967 30.864 378.463 31.464 377.371 31.464C375.979 31.464 375.355 30.372 375.355 29.088C375.355 27.816 375.979 26.724 377.371 26.724C378.343 26.724 378.895 27.18 379.039 28.092H381.019V27.936C380.827 26.112 379.195 25.02 377.275 25.02C375.067 25.02 373.279 26.676 373.279 28.98V29.268C373.279 31.44 374.803 32.928 376.759 33.156L376.495 33.756L376.567 33.888C376.951 33.9 377.143 34.008 377.143 34.212C377.143 34.392 376.915 34.488 376.567 34.488C376.351 34.488 376.087 34.428 375.787 34.296H375.595V35.16C375.883 35.268 376.375 35.34 376.771 35.34ZM381.728 29.244C381.728 31.584 383.528 33.18 385.844 33.18C388.16 33.18 389.96 31.584 389.96 29.244V28.956C389.96 26.616 388.148 25.02 385.844 25.02C383.54 25.02 381.728 26.616 381.728 28.956V29.244ZM383.804 29.1C383.804 27.756 384.476 26.688 385.832 26.688C387.212 26.688 387.884 27.756 387.884 29.1C387.884 30.444 387.152 31.512 385.832 31.512C384.536 31.512 383.804 30.444 383.804 29.1Z" fill="black"/>
<path d="M405.278 65.806H412.726V63.958H405.278V65.806ZM405.278 68.858H412.726V67.024H405.278V68.858Z" fill="black"/>
<path d="M273.48 72L274.964 69.9L276.448 72H278.8V71.762L276.28 68.248L278.492 65.238V65H276.238L275.048 66.778L273.872 65H271.52V65.238L273.746 68.304L271.198 71.762V72H273.48Z" fill="black"/>
<path d="M317 70C317 56.1929 328.193 45 342 45V45C355.807 45 367 56.1929 367 70V70C367 83.8071 355.807 95 342 95V95C328.193 95 317 83.8071 317 70V70Z" fill="#00BBD4"/>
</svg>
