<svg width="584" height="162" viewBox="0 0 584 162" fill="none" xmlns="http://www.w3.org/2000/svg">
<rect width="584" height="162" fill="white"/>
<rect x="24" y="31" width="111" height="101" fill="#FFE0EF"/>
<path d="M50.4433 61.4H39.9633V63.06H44.2233V75H46.2033V63.06H50.4433V61.4ZM55.2372 64.9C52.8972 64.9 51.3572 66.1 50.9972 67.94L52.7372 68.52C52.9372 67.18 53.9372 66.52 55.1372 66.52C56.5572 66.52 57.4572 67.24 57.4972 68.88L54.6572 69.3C52.6172 69.58 50.6772 70.24 50.6772 72.42C50.6772 74.28 51.9972 75.2 53.8372 75.2C55.5972 75.2 57.0772 74.16 57.5572 72.04H57.5972V75H59.3372V69.06C59.3372 66.3 57.7372 64.9 55.2372 64.9ZM54.2572 73.62C53.2772 73.62 52.5772 73.22 52.5772 72.26C52.5772 71.12 53.6372 70.84 54.9372 70.64L57.5172 70.26V70.28C57.5172 71.76 56.2572 73.62 54.2572 73.62ZM64.0495 75V69.76C64.0495 67.84 65.0695 66.76 66.8895 66.76C67.2495 66.76 67.7295 66.8 68.0095 66.86L67.9095 65.04C67.6095 64.96 67.2095 64.92 66.8695 64.92C65.4295 64.92 64.5095 65.56 63.9895 67.98H63.9295V65.12H62.2095V75H64.0495ZM70.6919 63.6C71.4919 63.6 71.9319 63.12 71.9319 62.4C71.9319 61.66 71.4919 61.18 70.6919 61.18C69.9119 61.18 69.4519 61.66 69.4519 62.4C69.4519 63.12 69.9119 63.6 70.6919 63.6ZM71.5919 75V65.12H69.7519V75H71.5919ZM77.7114 64.34C77.7114 63 78.3114 62.64 79.3314 62.64C79.8314 62.64 80.2114 62.72 80.4714 62.82L80.3314 61.38C79.8914 61.24 79.2914 61.2 78.9114 61.2C77.1914 61.2 75.8714 62.2 75.8714 64.26V65.12H73.7714V66.66H75.8714V75H77.7114V66.66H80.3514V65.12H77.7114V64.34ZM86.3309 64.9C83.9909 64.9 82.4509 66.1 82.0909 67.94L83.8309 68.52C84.0309 67.18 85.0309 66.52 86.2309 66.52C87.6509 66.52 88.5509 67.24 88.5909 68.88L85.7509 69.3C83.7109 69.58 81.7709 70.24 81.7709 72.42C81.7709 74.28 83.0909 75.2 84.9309 75.2C86.6909 75.2 88.1709 74.16 88.6509 72.04H88.6909V75H90.4309V69.06C90.4309 66.3 88.8309 64.9 86.3309 64.9ZM85.3509 73.62C84.3709 73.62 83.6709 73.22 83.6709 72.26C83.6709 71.12 84.7309 70.84 86.0309 70.64L88.6109 70.26V70.28C88.6109 71.76 87.3509 73.62 85.3509 73.62ZM101.947 75.2C103.747 75.2 104.767 74.18 105.287 72.14H105.327V75H107.147V61.4H105.327V67.78H105.287C104.847 65.64 103.547 64.94 101.807 64.94C99.5466 64.94 97.7866 66.6 97.7866 70C97.7866 73.44 99.6466 75.2 101.947 75.2ZM102.487 73.58C100.887 73.58 99.7266 72.4 99.7266 70C99.7266 67.68 100.847 66.54 102.487 66.54C104.147 66.54 105.267 67.7 105.267 70C105.267 72.38 104.107 73.58 102.487 73.58ZM118.682 69.7C118.682 66.62 117.102 64.9 114.382 64.9C111.382 64.9 109.642 67.08 109.642 70.26C109.642 73.36 111.282 75.2 114.282 75.2C116.722 75.2 118.242 74 118.622 72.1L116.922 71.68C116.662 73.04 115.702 73.66 114.322 73.66C112.502 73.66 111.582 72.54 111.562 70.18H118.662C118.662 70.08 118.682 70.02 118.682 69.7ZM114.302 66.4C115.822 66.4 116.682 67.36 116.722 68.9H111.662C111.942 67.26 112.862 66.4 114.302 66.4ZM65.4032 100V98.26H58.4432V93.78H64.3832V92.08H58.4432V88.14H65.3832V86.4H56.4632V100H65.4032ZM69.3132 100V93.98C69.3132 92.46 70.1132 91.54 71.7532 91.54C73.2532 91.54 73.9932 92.44 73.9932 93.98V100H75.8332V93.86C75.8332 91.16 74.5932 89.9 72.4132 89.9C70.7532 89.9 69.6532 90.78 69.2732 92.62H69.2132V90.12H67.4732V100H69.3132ZM82.1335 98.78L79.4535 90.12H77.3535L80.6335 100H83.5335L86.8335 90.12H84.8535L82.1335 98.78ZM89.8618 88.6C90.6618 88.6 91.1018 88.12 91.1018 87.4C91.1018 86.66 90.6618 86.18 89.8618 86.18C89.0818 86.18 88.6218 86.66 88.6218 87.4C88.6218 88.12 89.0818 88.6 89.8618 88.6ZM90.7618 100V90.12H88.9218V100H90.7618ZM98.3013 100.2C101.001 100.2 103.141 98.42 103.141 95.06C103.141 91.68 101.001 89.9 98.3013 89.9C95.5813 89.9 93.4213 91.68 93.4213 95.06C93.4213 98.42 95.5813 100.2 98.3013 100.2ZM98.3013 98.58C96.5413 98.58 95.3613 97.3 95.3613 95.06C95.3613 92.8 96.5413 91.54 98.3013 91.54C100.061 91.54 101.221 92.8 101.221 95.06C101.221 97.3 100.061 98.58 98.3013 98.58Z" fill="black"/>
<rect x="449" y="31" width="111" height="101" fill="#FFE0EF"/>
<path d="M469.592 75L465.012 61.4H462.332L457.752 75H459.912L460.912 71.76H466.372L467.392 75H469.592ZM463.652 63.02L465.852 70.1H461.432L463.652 63.02ZM474.603 75.2C476.403 75.2 477.423 74.18 477.943 72.14H477.983V75H479.803V61.4H477.983V67.78H477.943C477.503 65.64 476.203 64.94 474.463 64.94C472.203 64.94 470.443 66.6 470.443 70C470.443 73.44 472.303 75.2 474.603 75.2ZM475.143 73.58C473.543 73.58 472.383 72.4 472.383 70C472.383 67.68 473.503 66.54 475.143 66.54C476.803 66.54 477.923 67.7 477.923 70C477.923 72.38 476.763 73.58 475.143 73.58ZM483.758 63.6C484.558 63.6 484.998 63.12 484.998 62.4C484.998 61.66 484.558 61.18 483.758 61.18C482.978 61.18 482.518 61.66 482.518 62.4C482.518 63.12 482.978 63.6 483.758 63.6ZM484.658 75V65.12H482.818V75H484.658ZM492.118 75.2C494.598 75.2 496.258 73.92 496.598 71.5L494.838 71.18C494.438 72.84 493.538 73.58 492.198 73.58C490.558 73.58 489.258 72.6 489.258 70.1C489.258 67.72 490.478 66.54 492.198 66.54C493.598 66.54 494.518 67.2 494.758 68.8L496.558 68.42C496.198 66.06 494.518 64.92 492.258 64.92C489.458 64.92 487.318 66.72 487.318 70.08C487.318 73.5 489.398 75.2 492.118 75.2ZM499.969 63.6C500.769 63.6 501.209 63.12 501.209 62.4C501.209 61.66 500.769 61.18 499.969 61.18C499.189 61.18 498.729 61.66 498.729 62.4C498.729 63.12 499.189 63.6 499.969 63.6ZM500.869 75V65.12H499.029V75H500.869ZM508.409 75.2C511.109 75.2 513.249 73.42 513.249 70.06C513.249 66.68 511.109 64.9 508.409 64.9C505.689 64.9 503.529 66.68 503.529 70.06C503.529 73.42 505.689 75.2 508.409 75.2ZM508.409 73.58C506.649 73.58 505.469 72.3 505.469 70.06C505.469 67.8 506.649 66.54 508.409 66.54C510.169 66.54 511.329 67.8 511.329 70.06C511.329 72.3 510.169 73.58 508.409 73.58ZM517.604 75V68.98C517.604 67.46 518.404 66.54 520.044 66.54C521.544 66.54 522.284 67.44 522.284 68.98V75H524.124V68.86C524.124 66.16 522.884 64.9 520.704 64.9C519.044 64.9 517.944 65.78 517.564 67.62H517.504V65.12H515.764V75H517.604ZM530.96 64.9C528.62 64.9 527.08 66.1 526.72 67.94L528.46 68.52C528.66 67.18 529.66 66.52 530.86 66.52C532.28 66.52 533.18 67.24 533.22 68.88L530.38 69.3C528.34 69.58 526.4 70.24 526.4 72.42C526.4 74.28 527.72 75.2 529.56 75.2C531.32 75.2 532.8 74.16 533.28 72.04H533.32V75H535.06V69.06C535.06 66.3 533.46 64.9 530.96 64.9ZM529.98 73.62C529 73.62 528.3 73.22 528.3 72.26C528.3 71.12 529.36 70.84 530.66 70.64L533.24 70.26V70.28C533.24 71.76 531.98 73.62 529.98 73.62ZM539.012 63.6C539.812 63.6 540.252 63.12 540.252 62.4C540.252 61.66 539.812 61.18 539.012 61.18C538.232 61.18 537.772 61.66 537.772 62.4C537.772 63.12 538.232 63.6 539.012 63.6ZM539.912 75V65.12H538.072V75H539.912ZM546.732 75.2C549.272 75.2 550.892 74.04 550.892 71.9C550.892 69.88 549.212 69.48 547.552 69.2L546.112 68.98C545.152 68.82 544.492 68.58 544.492 67.74C544.492 66.84 545.292 66.38 546.392 66.38C547.672 66.38 548.532 66.98 548.692 68.28L550.512 67.88C550.272 65.92 548.552 64.92 546.472 64.92C544.252 64.92 542.612 66.02 542.612 67.88C542.612 69.66 544.052 70.22 545.412 70.46L546.992 70.7C548.252 70.9 549.012 71.16 549.012 72.12C549.012 73.12 548.212 73.72 546.672 73.72C545.292 73.72 544.352 73.04 544.192 71.52L542.292 71.92C542.452 74.1 544.212 75.2 546.732 75.2ZM473.841 100.2C475.641 100.2 476.661 99.18 477.181 97.14H477.221V100H479.041V86.4H477.221V92.78H477.181C476.741 90.64 475.441 89.94 473.701 89.94C471.441 89.94 469.681 91.6 469.681 95C469.681 98.44 471.541 100.2 473.841 100.2ZM474.381 98.58C472.781 98.58 471.621 97.4 471.621 95C471.621 92.68 472.741 91.54 474.381 91.54C476.041 91.54 477.161 92.7 477.161 95C477.161 97.38 476.001 98.58 474.381 98.58ZM490.577 94.7C490.577 91.62 488.997 89.9 486.277 89.9C483.277 89.9 481.537 92.08 481.537 95.26C481.537 98.36 483.177 100.2 486.177 100.2C488.617 100.2 490.137 99 490.517 97.1L488.817 96.68C488.557 98.04 487.597 98.66 486.217 98.66C484.397 98.66 483.477 97.54 483.457 95.18H490.557C490.557 95.08 490.577 95.02 490.577 94.7ZM486.197 91.4C487.717 91.4 488.577 92.36 488.617 93.9H483.557C483.837 92.26 484.757 91.4 486.197 91.4ZM500.915 89.34C500.915 88 501.515 87.64 502.535 87.64C503.035 87.64 503.415 87.72 503.675 87.82L503.535 86.38C503.095 86.24 502.495 86.2 502.115 86.2C500.395 86.2 499.075 87.2 499.075 89.26V90.12H496.975V91.66H499.075V100H500.915V91.66H503.555V90.12H500.915V89.34ZM507.194 100V94.76C507.194 92.84 508.214 91.76 510.034 91.76C510.394 91.76 510.874 91.8 511.154 91.86L511.054 90.04C510.754 89.96 510.354 89.92 510.014 89.92C508.574 89.92 507.654 90.56 507.134 92.98H507.074V90.12H505.354V100H507.194ZM521.045 94.7C521.045 91.62 519.465 89.9 516.745 89.9C513.745 89.9 512.005 92.08 512.005 95.26C512.005 98.36 513.645 100.2 516.645 100.2C519.085 100.2 520.605 99 520.985 97.1L519.285 96.68C519.025 98.04 518.065 98.66 516.685 98.66C514.865 98.66 513.945 97.54 513.925 95.18H521.025C521.025 95.08 521.045 95.02 521.045 94.7ZM516.665 91.4C518.185 91.4 519.045 92.36 519.085 93.9H514.025C514.305 92.26 515.225 91.4 516.665 91.4ZM527.26 98.6C526.42 98.6 526 98.34 526 97.38V91.66H528.76V90.12H526V87.38H524.76C524.6 89.32 524 90.12 522.5 90.54V91.66H524.16V97.78C524.16 99.62 525.18 100.2 526.76 100.2C527.46 100.2 528.14 100.1 528.66 99.96L528.9 98.34C528.48 98.46 527.9 98.6 527.26 98.6ZM539.424 94.7C539.424 91.62 537.844 89.9 535.124 89.9C532.124 89.9 530.384 92.08 530.384 95.26C530.384 98.36 532.024 100.2 535.024 100.2C537.464 100.2 538.984 99 539.364 97.1L537.664 96.68C537.404 98.04 536.444 98.66 535.064 98.66C533.244 98.66 532.324 97.54 532.304 95.18H539.404C539.404 95.08 539.424 95.02 539.424 94.7ZM535.044 91.4C536.564 91.4 537.424 92.36 537.464 93.9H532.404C532.684 92.26 533.604 91.4 535.044 91.4Z" fill="black"/>
<rect x="237" y="31" width="110" height="101" fill="#FFE0EF"/>
<path d="M257.582 74.4H247.102V76.06H251.362V88H253.342V76.06H257.582V74.4ZM262.376 77.9C260.036 77.9 258.496 79.1 258.136 80.94L259.876 81.52C260.076 80.18 261.076 79.52 262.276 79.52C263.696 79.52 264.596 80.24 264.636 81.88L261.796 82.3C259.756 82.58 257.816 83.24 257.816 85.42C257.816 87.28 259.136 88.2 260.976 88.2C262.736 88.2 264.216 87.16 264.696 85.04H264.736V88H266.476V82.06C266.476 79.3 264.876 77.9 262.376 77.9ZM261.396 86.62C260.416 86.62 259.716 86.22 259.716 85.26C259.716 84.12 260.776 83.84 262.076 83.64L264.656 83.26V83.28C264.656 84.76 263.396 86.62 261.396 86.62ZM271.188 88V82.76C271.188 80.84 272.208 79.76 274.028 79.76C274.388 79.76 274.868 79.8 275.148 79.86L275.048 78.04C274.748 77.96 274.348 77.92 274.008 77.92C272.568 77.92 271.648 78.56 271.128 80.98H271.068V78.12H269.348V88H271.188ZM277.831 76.6C278.631 76.6 279.071 76.12 279.071 75.4C279.071 74.66 278.631 74.18 277.831 74.18C277.051 74.18 276.591 74.66 276.591 75.4C276.591 76.12 277.051 76.6 277.831 76.6ZM278.731 88V78.12H276.891V88H278.731ZM284.85 77.34C284.85 76 285.45 75.64 286.47 75.64C286.97 75.64 287.35 75.72 287.61 75.82L287.47 74.38C287.03 74.24 286.43 74.2 286.05 74.2C284.33 74.2 283.01 75.2 283.01 77.26V78.12H280.91V79.66H283.01V88H284.85V79.66H287.49V78.12H284.85V77.34ZM293.47 77.9C291.13 77.9 289.59 79.1 289.23 80.94L290.97 81.52C291.17 80.18 292.17 79.52 293.37 79.52C294.79 79.52 295.69 80.24 295.73 81.88L292.89 82.3C290.85 82.58 288.91 83.24 288.91 85.42C288.91 87.28 290.23 88.2 292.07 88.2C293.83 88.2 295.31 87.16 295.79 85.04H295.83V88H297.57V82.06C297.57 79.3 295.97 77.9 293.47 77.9ZM292.49 86.62C291.51 86.62 290.81 86.22 290.81 85.26C290.81 84.12 291.87 83.84 293.17 83.64L295.75 83.26V83.28C295.75 84.76 294.49 86.62 292.49 86.62ZM313.925 74.18C313.125 74.18 312.665 74.66 312.665 75.4C312.665 76.12 313.125 76.6 313.925 76.6C314.705 76.6 315.145 76.12 315.145 75.4C315.145 74.66 314.705 74.18 313.925 74.18ZM310.005 75.64C310.505 75.64 310.885 75.72 311.145 75.82L311.005 74.38C310.565 74.24 309.965 74.2 309.585 74.2C307.865 74.2 306.545 75.2 306.545 77.26V78.12H304.445V79.66H306.545V88H308.385V79.66H311.025V78.12H308.385V77.34C308.385 76 308.985 75.64 310.005 75.64ZM314.805 88V78.12H312.985V88H314.805ZM322.628 83.02L326.228 78.12H323.948L321.508 81.68L318.968 78.12H316.688L320.428 83.04L316.828 88H319.008L321.488 84.36L324.108 88H326.408L322.628 83.02ZM331.966 77.9C329.626 77.9 328.086 79.1 327.726 80.94L329.466 81.52C329.666 80.18 330.666 79.52 331.866 79.52C333.286 79.52 334.186 80.24 334.226 81.88L331.386 82.3C329.346 82.58 327.406 83.24 327.406 85.42C327.406 87.28 328.726 88.2 330.566 88.2C332.326 88.2 333.806 87.16 334.286 85.04H334.326V88H336.066V82.06C336.066 79.3 334.466 77.9 331.966 77.9ZM330.986 86.62C330.006 86.62 329.306 86.22 329.306 85.26C329.306 84.12 330.366 83.84 331.666 83.64L334.246 83.26V83.28C334.246 84.76 332.986 86.62 330.986 86.62Z" fill="black"/>
<path d="M194.781 82.1016H178.492V78.957H194.781V82.1016ZM194.781 90.207H178.492V87.082H194.781V90.207Z" fill="black"/>
<path d="M406.738 82.7461H414.668V86.1641H406.738V95.1484H403.105V86.1641H395.176V82.7461H403.105V74.4453H406.738V82.7461Z" fill="black"/>
</svg>
