<svg width="703" height="316" viewBox="0 0 703 316" fill="none" xmlns="http://www.w3.org/2000/svg">
<rect width="703" height="316" fill="white"/>
<path d="M258 48C258 43.3406 258 41.0109 258.761 39.1732C259.776 36.7229 261.723 34.7761 264.173 33.7612C266.011 33 268.341 33 273 33H444C448.659 33 450.989 33 452.827 33.7612C455.277 34.7761 457.224 36.7229 458.239 39.1732C459 41.0109 459 43.3406 459 48V268C459 272.659 459 274.989 458.239 276.827C457.224 279.277 455.277 281.224 452.827 282.239C450.989 283 448.659 283 444 283H273C268.341 283 266.011 283 264.173 282.239C261.723 281.224 259.776 279.277 258.761 276.827C258 274.989 258 272.659 258 268V48Z" fill="#F71963"/>
<path d="M280 94C280 89.3406 280 87.0109 280.761 85.1732C281.776 82.7229 283.723 80.7761 286.173 79.7612C288.011 79 290.341 79 295 79H392C396.659 79 398.989 79 400.827 79.7612C403.277 80.7761 405.224 82.7229 406.239 85.1732C407 87.0109 407 89.3406 407 94V222C407 226.659 407 228.989 406.239 230.827C405.224 233.277 403.277 235.224 400.827 236.239C398.989 237 396.659 237 392 237H295C290.341 237 288.011 237 286.173 236.239C283.723 235.224 281.776 233.277 280.761 230.827C280 228.989 280 226.659 280 222V94Z" fill="#142032"/>
<path d="M307.873 99.2C309.323 99.2 310.433 98.41 310.433 96.97V96.81C310.433 95.32 309.283 94.5 307.963 94.5H304.963V101H306.623V99.2H307.873ZM307.793 95.77C308.523 95.77 308.773 96.22 308.773 96.89C308.773 97.49 308.503 97.92 307.743 97.92H306.623V95.77H307.793ZM314.061 95.77C314.791 95.77 315.011 96.21 315.011 96.61C315.011 97.1 314.751 97.54 313.951 97.54H312.951V95.77H314.061ZM316.621 96.57C316.621 95.18 315.471 94.5 314.101 94.5H311.301V101H312.951V98.72H313.481L315.131 101H316.881V100.8L315.201 98.58C316.081 98.29 316.621 97.62 316.621 96.73V96.57ZM319.279 101V94.5H317.629V101H319.279ZM323.697 95.77C324.507 95.77 324.967 96.15 325.087 96.91H326.737V96.78C326.577 95.26 325.217 94.35 323.617 94.35C321.777 94.35 320.287 95.73 320.287 97.65V97.89C320.287 99.87 321.787 101.15 323.617 101.15C325.277 101.15 326.547 100.22 326.737 98.61V98.47H325.097C325.027 99.22 324.607 99.72 323.697 99.72C322.537 99.72 322.017 98.81 322.017 97.74C322.017 96.68 322.537 95.77 323.697 95.77ZM327.688 94.5V101H332.188V99.66H329.338V98.4H331.758V97.03H329.338V95.83H332.188V94.5H327.688ZM334.749 95.83H336.599V101H338.249V95.83H340.029V94.5H334.749V95.83ZM342.978 96.02C343.058 96.38 343.208 96.84 343.338 97.21L343.838 98.59H342.098L342.598 97.21C342.728 96.84 342.878 96.38 342.958 96.02H342.978ZM344.708 101H346.388V100.82L343.848 94.5H342.068L339.528 100.82V101H341.228L341.638 99.87H344.298L344.708 101ZM351.222 97.64C351.742 97.43 352.082 96.94 352.082 96.3V96.2C352.082 94.96 351.012 94.5 349.622 94.5H347.092V101H349.912C351.322 101 352.302 100.47 352.302 99.23V99.13C352.302 98.44 351.822 97.82 351.222 97.66V97.64ZM349.752 95.72C350.222 95.72 350.412 96.04 350.412 96.36C350.412 96.64 350.242 97.1 349.732 97.1H348.682V95.72H349.752ZM349.842 98.32C350.532 98.32 350.662 98.84 350.662 99.08C350.662 99.44 350.542 99.77 349.832 99.77H348.682V98.32H349.842ZM353.391 101H357.791V99.69H355.041V94.5H353.391V101ZM358.753 94.5V101H363.253V99.66H360.403V98.4H362.823V97.03H360.403V95.83H363.253V94.5H358.753Z" fill="white"/>
<path d="M296.423 129.923C296.423 130.328 296.63 130.769 296.873 131.012C297.305 131.444 298.241 131.57 298.889 131.813C299.402 131.984 299.501 132.146 299.501 132.461C299.501 132.794 299.186 133.055 298.682 133.055C298.142 133.055 297.782 132.839 297.755 132.308H296.306V132.434C296.423 133.685 297.395 134.135 298.628 134.135C299.762 134.135 300.959 133.667 300.959 132.263V132.173C300.959 131.732 300.743 131.291 300.5 131.048C300.068 130.616 299.168 130.427 298.574 130.265C298.178 130.157 297.917 130.049 297.917 129.662C297.917 129.347 298.169 129.131 298.673 129.131C299.186 129.131 299.393 129.392 299.42 129.725H300.833V129.608C300.734 128.456 299.762 128.042 298.628 128.042C297.566 128.042 296.423 128.51 296.423 129.833V129.923ZM305.368 134H307.051V133.838L304.774 130.913L306.952 128.312V128.15H305.35L303.388 130.508V128.15H301.903V134H303.388V131.408L305.368 134ZM312.559 128.15H311.101V131.993C311.101 132.605 310.633 132.902 310.084 132.902C309.436 132.902 309.022 132.605 309.022 131.993V128.15H307.519V131.759C307.519 133.307 308.365 134.135 310.048 134.135C311.704 134.135 312.559 133.307 312.559 131.759V128.15ZM317.366 134V128.114H316.187C316.043 128.888 315.494 128.969 314.801 129.014V130.013H315.917V134H317.366ZM321.719 132.002H325.067V130.742H321.719V132.002ZM330.388 132.38C331.693 132.38 332.692 131.669 332.692 130.373V130.229C332.692 128.888 331.657 128.15 330.469 128.15H327.769V134H329.263V132.38H330.388ZM330.316 129.293C330.973 129.293 331.198 129.698 331.198 130.301C331.198 130.841 330.955 131.228 330.271 131.228H329.263V129.293H330.316ZM334.797 131.876C334.797 131.291 334.932 130.832 335.733 130.832H336.309V129.518C336.192 129.482 335.994 129.464 335.859 129.464C335.283 129.464 334.779 129.815 334.716 130.454H334.689L334.428 129.5H333.384V134H334.797V131.876ZM338.579 128.258C338.579 127.79 338.183 127.511 337.715 127.511C337.238 127.511 336.851 127.79 336.851 128.258V128.321C336.851 128.789 337.238 129.05 337.715 129.05C338.183 129.05 338.579 128.789 338.579 128.321V128.258ZM338.426 134V129.5H337.004V134H338.426ZM341.644 130.481C342.112 130.481 342.427 130.76 342.526 131.264H343.813V131.147C343.714 129.995 342.724 129.356 341.581 129.356C340.285 129.356 339.232 130.301 339.232 131.669V131.84C339.232 133.253 340.321 134.144 341.59 134.144C342.67 134.144 343.696 133.505 343.813 132.353V132.236H342.526C342.409 132.767 342.148 133.019 341.644 133.019C340.969 133.019 340.663 132.479 340.663 131.75C340.663 131.03 340.969 130.481 341.644 130.481ZM346.607 129.356C345.311 129.356 344.285 130.274 344.285 131.687V131.84C344.285 133.28 345.392 134.144 346.661 134.144C347.696 134.144 348.614 133.64 348.83 132.596H347.507C347.372 132.947 347.066 133.064 346.697 133.064C346.112 133.064 345.788 132.659 345.725 132.092H348.821C348.83 131.993 348.839 131.777 348.839 131.597C348.839 130.085 347.768 129.356 346.607 129.356ZM345.752 131.192C345.824 130.724 346.094 130.364 346.643 130.364C347.12 130.364 347.435 130.697 347.435 131.192H345.752ZM353.357 134V128.114H352.178C352.034 128.888 351.485 128.969 350.792 129.014V130.013H351.908V134H353.357ZM296.423 141.923C296.423 142.328 296.63 142.769 296.873 143.012C297.305 143.444 298.241 143.57 298.889 143.813C299.402 143.984 299.501 144.146 299.501 144.461C299.501 144.794 299.186 145.055 298.682 145.055C298.142 145.055 297.782 144.839 297.755 144.308H296.306V144.434C296.423 145.685 297.395 146.135 298.628 146.135C299.762 146.135 300.959 145.667 300.959 144.263V144.173C300.959 143.732 300.743 143.291 300.5 143.048C300.068 142.616 299.168 142.427 298.574 142.265C298.178 142.157 297.917 142.049 297.917 141.662C297.917 141.347 298.169 141.131 298.673 141.131C299.186 141.131 299.393 141.392 299.42 141.725H300.833V141.608C300.734 140.456 299.762 140.042 298.628 140.042C297.566 140.042 296.423 140.51 296.423 141.833V141.923ZM305.368 146H307.051V145.838L304.774 142.913L306.952 140.312V140.15H305.35L303.388 142.508V140.15H301.903V146H303.388V143.408L305.368 146ZM312.559 140.15H311.101V143.993C311.101 144.605 310.633 144.902 310.084 144.902C309.436 144.902 309.022 144.605 309.022 143.993V140.15H307.519V143.759C307.519 145.307 308.365 146.135 310.048 146.135C311.704 146.135 312.559 145.307 312.559 143.759V140.15ZM319.355 141.86C319.355 140.609 318.437 140.015 317.249 140.015C316.169 140.015 315.125 140.591 315.125 141.806C315.125 142.103 315.179 142.4 315.242 142.544H316.529V142.382C316.493 142.211 316.475 142.022 316.475 141.905C316.475 141.437 316.745 141.131 317.213 141.131C317.717 141.131 317.951 141.428 317.951 141.896C317.951 142.436 317.771 142.769 317.384 143.165C316.7 143.876 316.007 144.506 315.143 145.199V146H319.481V144.803H318.194C318.014 144.803 317.501 144.812 317.321 144.839V144.821C318.23 144.074 319.355 143.138 319.355 141.986V141.86ZM322.018 144.002H325.366V142.742H322.018V144.002ZM330.687 144.38C331.992 144.38 332.991 143.669 332.991 142.373V142.229C332.991 140.888 331.956 140.15 330.768 140.15H328.068V146H329.562V144.38H330.687ZM330.615 141.293C331.272 141.293 331.497 141.698 331.497 142.301C331.497 142.841 331.254 143.228 330.57 143.228H329.562V141.293H330.615ZM335.095 143.876C335.095 143.291 335.23 142.832 336.031 142.832H336.607V141.518C336.49 141.482 336.292 141.464 336.157 141.464C335.581 141.464 335.077 141.815 335.014 142.454H334.987L334.726 141.5H333.682V146H335.095V143.876ZM338.878 140.258C338.878 139.79 338.482 139.511 338.014 139.511C337.537 139.511 337.15 139.79 337.15 140.258V140.321C337.15 140.789 337.537 141.05 338.014 141.05C338.482 141.05 338.878 140.789 338.878 140.321V140.258ZM338.725 146V141.5H337.303V146H338.725ZM341.942 142.481C342.41 142.481 342.725 142.76 342.824 143.264H344.111V143.147C344.012 141.995 343.022 141.356 341.879 141.356C340.583 141.356 339.53 142.301 339.53 143.669V143.84C339.53 145.253 340.619 146.144 341.888 146.144C342.968 146.144 343.994 145.505 344.111 144.353V144.236H342.824C342.707 144.767 342.446 145.019 341.942 145.019C341.267 145.019 340.961 144.479 340.961 143.75C340.961 143.03 341.267 142.481 341.942 142.481ZM346.906 141.356C345.61 141.356 344.584 142.274 344.584 143.687V143.84C344.584 145.28 345.691 146.144 346.96 146.144C347.995 146.144 348.913 145.64 349.129 144.596H347.806C347.671 144.947 347.365 145.064 346.996 145.064C346.411 145.064 346.087 144.659 346.024 144.092H349.12C349.129 143.993 349.138 143.777 349.138 143.597C349.138 142.085 348.067 141.356 346.906 141.356ZM346.051 143.192C346.123 142.724 346.393 142.364 346.942 142.364C347.419 142.364 347.734 142.697 347.734 143.192H346.051ZM355.645 141.86C355.645 140.609 354.727 140.015 353.539 140.015C352.459 140.015 351.415 140.591 351.415 141.806C351.415 142.103 351.469 142.4 351.532 142.544H352.819V142.382C352.783 142.211 352.765 142.022 352.765 141.905C352.765 141.437 353.035 141.131 353.503 141.131C354.007 141.131 354.241 141.428 354.241 141.896C354.241 142.436 354.061 142.769 353.674 143.165C352.99 143.876 352.297 144.506 351.433 145.199V146H355.771V144.803H354.484C354.304 144.803 353.791 144.812 353.611 144.839V144.821C354.52 144.074 355.645 143.138 355.645 141.986V141.86ZM296.423 153.923C296.423 154.328 296.63 154.769 296.873 155.012C297.305 155.444 298.241 155.57 298.889 155.813C299.402 155.984 299.501 156.146 299.501 156.461C299.501 156.794 299.186 157.055 298.682 157.055C298.142 157.055 297.782 156.839 297.755 156.308H296.306V156.434C296.423 157.685 297.395 158.135 298.628 158.135C299.762 158.135 300.959 157.667 300.959 156.263V156.173C300.959 155.732 300.743 155.291 300.5 155.048C300.068 154.616 299.168 154.427 298.574 154.265C298.178 154.157 297.917 154.049 297.917 153.662C297.917 153.347 298.169 153.131 298.673 153.131C299.186 153.131 299.393 153.392 299.42 153.725H300.833V153.608C300.734 152.456 299.762 152.042 298.628 152.042C297.566 152.042 296.423 152.51 296.423 153.833V153.923ZM305.368 158H307.051V157.838L304.774 154.913L306.952 152.312V152.15H305.35L303.388 154.508V152.15H301.903V158H303.388V155.408L305.368 158ZM312.559 152.15H311.101V155.993C311.101 156.605 310.633 156.902 310.084 156.902C309.436 156.902 309.022 156.605 309.022 155.993V152.15H307.519V155.759C307.519 157.307 308.365 158.135 310.048 158.135C311.704 158.135 312.559 157.307 312.559 155.759V152.15ZM316.394 155.192L316.493 155.237C316.628 155.219 316.781 155.21 316.934 155.21C317.609 155.21 318.032 155.417 318.032 156.146C318.032 156.677 317.726 157.037 317.186 157.037C316.655 157.037 316.34 156.74 316.304 156.2H314.954V156.326C315.017 157.541 315.845 158.135 317.15 158.135C318.437 158.135 319.409 157.514 319.409 156.056V155.966C319.409 155.093 318.842 154.436 317.978 154.292L319.139 152.96V152.15H315.197V153.275H316.403C316.601 153.275 317.267 153.275 317.465 153.248V153.266C317.24 153.482 316.934 153.851 316.754 154.058L316.25 154.625L316.394 155.192ZM321.789 156.002H325.137V154.742H321.789V156.002ZM330.459 156.38C331.764 156.38 332.763 155.669 332.763 154.373V154.229C332.763 152.888 331.728 152.15 330.54 152.15H327.84V158H329.334V156.38H330.459ZM330.387 153.293C331.044 153.293 331.269 153.698 331.269 154.301C331.269 154.841 331.026 155.228 330.342 155.228H329.334V153.293H330.387ZM334.867 155.876C334.867 155.291 335.002 154.832 335.803 154.832H336.379V153.518C336.262 153.482 336.064 153.464 335.929 153.464C335.353 153.464 334.849 153.815 334.786 154.454H334.759L334.498 153.5H333.454V158H334.867V155.876ZM338.65 152.258C338.65 151.79 338.254 151.511 337.786 151.511C337.309 151.511 336.922 151.79 336.922 152.258V152.321C336.922 152.789 337.309 153.05 337.786 153.05C338.254 153.05 338.65 152.789 338.65 152.321V152.258ZM338.497 158V153.5H337.075V158H338.497ZM341.714 154.481C342.182 154.481 342.497 154.76 342.596 155.264H343.883V155.147C343.784 153.995 342.794 153.356 341.651 153.356C340.355 153.356 339.302 154.301 339.302 155.669V155.84C339.302 157.253 340.391 158.144 341.66 158.144C342.74 158.144 343.766 157.505 343.883 156.353V156.236H342.596C342.479 156.767 342.218 157.019 341.714 157.019C341.039 157.019 340.733 156.479 340.733 155.75C340.733 155.03 341.039 154.481 341.714 154.481ZM346.678 153.356C345.382 153.356 344.356 154.274 344.356 155.687V155.84C344.356 157.28 345.463 158.144 346.732 158.144C347.767 158.144 348.685 157.64 348.901 156.596H347.578C347.443 156.947 347.137 157.064 346.768 157.064C346.183 157.064 345.859 156.659 345.796 156.092H348.892C348.901 155.993 348.91 155.777 348.91 155.597C348.91 154.085 347.839 153.356 346.678 153.356ZM345.823 155.192C345.895 154.724 346.165 154.364 346.714 154.364C347.191 154.364 347.506 154.697 347.506 155.192H345.823ZM352.455 155.192L352.554 155.237C352.689 155.219 352.842 155.21 352.995 155.21C353.67 155.21 354.093 155.417 354.093 156.146C354.093 156.677 353.787 157.037 353.247 157.037C352.716 157.037 352.401 156.74 352.365 156.2H351.015V156.326C351.078 157.541 351.906 158.135 353.211 158.135C354.498 158.135 355.47 157.514 355.47 156.056V155.966C355.47 155.093 354.903 154.436 354.039 154.292L355.2 152.96V152.15H351.258V153.275H352.464C352.662 153.275 353.328 153.275 353.526 153.248V153.266C353.301 153.482 352.995 153.851 352.815 154.058L352.311 154.625L352.455 155.192ZM296.423 164.923C296.423 165.328 296.63 165.769 296.873 166.012C297.305 166.444 298.241 166.57 298.889 166.813C299.402 166.984 299.501 167.146 299.501 167.461C299.501 167.794 299.186 168.055 298.682 168.055C298.142 168.055 297.782 167.839 297.755 167.308H296.306V167.434C296.423 168.685 297.395 169.135 298.628 169.135C299.762 169.135 300.959 168.667 300.959 167.263V167.173C300.959 166.732 300.743 166.291 300.5 166.048C300.068 165.616 299.168 165.427 298.574 165.265C298.178 165.157 297.917 165.049 297.917 164.662C297.917 164.347 298.169 164.131 298.673 164.131C299.186 164.131 299.393 164.392 299.42 164.725H300.833V164.608C300.734 163.456 299.762 163.042 298.628 163.042C297.566 163.042 296.423 163.51 296.423 164.833V164.923ZM305.368 169H307.051V168.838L304.774 165.913L306.952 163.312V163.15H305.35L303.388 165.508V163.15H301.903V169H303.388V166.408L305.368 169ZM312.559 163.15H311.101V166.993C311.101 167.605 310.633 167.902 310.084 167.902C309.436 167.902 309.022 167.605 309.022 166.993V163.15H307.519V166.759C307.519 168.307 308.365 169.135 310.048 169.135C311.704 169.135 312.559 168.307 312.559 166.759V163.15ZM314.981 167.578H317.744V169H319.175V167.578H320.039V166.435H319.175V163.15H317.726L314.864 166.795L314.981 167.578ZM316.925 166.435C316.772 166.435 316.583 166.435 316.484 166.462V166.444C316.592 166.309 316.718 166.138 316.817 165.994L317.537 165.04C317.672 164.869 317.762 164.671 317.843 164.518H317.861C317.843 164.734 317.834 164.941 317.834 165.148V166.435H316.925ZM322.308 167.002H325.656V165.742H322.308V167.002ZM330.977 167.38C332.282 167.38 333.281 166.669 333.281 165.373V165.229C333.281 163.888 332.246 163.15 331.058 163.15H328.358V169H329.852V167.38H330.977ZM330.905 164.293C331.562 164.293 331.787 164.698 331.787 165.301C331.787 165.841 331.544 166.228 330.86 166.228H329.852V164.293H330.905ZM335.385 166.876C335.385 166.291 335.52 165.832 336.321 165.832H336.897V164.518C336.78 164.482 336.582 164.464 336.447 164.464C335.871 164.464 335.367 164.815 335.304 165.454H335.277L335.016 164.5H333.972V169H335.385V166.876ZM339.168 163.258C339.168 162.79 338.772 162.511 338.304 162.511C337.827 162.511 337.44 162.79 337.44 163.258V163.321C337.44 163.789 337.827 164.05 338.304 164.05C338.772 164.05 339.168 163.789 339.168 163.321V163.258ZM339.015 169V164.5H337.593V169H339.015ZM342.232 165.481C342.7 165.481 343.015 165.76 343.114 166.264H344.401V166.147C344.302 164.995 343.312 164.356 342.169 164.356C340.873 164.356 339.82 165.301 339.82 166.669V166.84C339.82 168.253 340.909 169.144 342.178 169.144C343.258 169.144 344.284 168.505 344.401 167.353V167.236H343.114C342.997 167.767 342.736 168.019 342.232 168.019C341.557 168.019 341.251 167.479 341.251 166.75C341.251 166.03 341.557 165.481 342.232 165.481ZM347.196 164.356C345.9 164.356 344.874 165.274 344.874 166.687V166.84C344.874 168.28 345.981 169.144 347.25 169.144C348.285 169.144 349.203 168.64 349.419 167.596H348.096C347.961 167.947 347.655 168.064 347.286 168.064C346.701 168.064 346.377 167.659 346.314 167.092H349.41C349.419 166.993 349.428 166.777 349.428 166.597C349.428 165.085 348.357 164.356 347.196 164.356ZM346.341 166.192C346.413 165.724 346.683 165.364 347.232 165.364C347.709 165.364 348.024 165.697 348.024 166.192H346.341ZM351.561 167.578H354.324V169H355.755V167.578H356.619V166.435H355.755V163.15H354.306L351.444 166.795L351.561 167.578ZM353.505 166.435C353.352 166.435 353.163 166.435 353.064 166.462V166.444C353.172 166.309 353.298 166.138 353.397 165.994L354.117 165.04C354.252 164.869 354.342 164.671 354.423 164.518H354.441C354.423 164.734 354.414 164.941 354.414 165.148V166.435H353.505ZM298.439 180.208C298.439 179.704 298.052 179.398 297.557 179.398C297.062 179.398 296.675 179.704 296.675 180.208V180.28C296.675 180.793 297.062 181.072 297.557 181.072C298.052 181.072 298.439 180.793 298.439 180.28V180.208ZM301.55 180.208C301.55 179.704 301.163 179.398 300.668 179.398C300.173 179.398 299.786 179.704 299.786 180.208V180.28C299.786 180.793 300.173 181.072 300.668 181.072C301.163 181.072 301.55 180.793 301.55 180.28V180.208ZM304.662 180.208C304.662 179.704 304.275 179.398 303.78 179.398C303.285 179.398 302.898 179.704 302.898 180.208V180.28C302.898 180.793 303.285 181.072 303.78 181.072C304.275 181.072 304.662 180.793 304.662 180.28V180.208ZM296.423 187.923C296.423 188.328 296.63 188.769 296.873 189.012C297.305 189.444 298.241 189.57 298.889 189.813C299.402 189.984 299.501 190.146 299.501 190.461C299.501 190.794 299.186 191.055 298.682 191.055C298.142 191.055 297.782 190.839 297.755 190.308H296.306V190.434C296.423 191.685 297.395 192.135 298.628 192.135C299.762 192.135 300.959 191.667 300.959 190.263V190.173C300.959 189.732 300.743 189.291 300.5 189.048C300.068 188.616 299.168 188.427 298.574 188.265C298.178 188.157 297.917 188.049 297.917 187.662C297.917 187.347 298.169 187.131 298.673 187.131C299.186 187.131 299.393 187.392 299.42 187.725H300.833V187.608C300.734 186.456 299.762 186.042 298.628 186.042C297.566 186.042 296.423 186.51 296.423 187.833V187.923ZM305.368 192H307.051V191.838L304.774 188.913L306.952 186.312V186.15H305.35L303.388 188.508V186.15H301.903V192H303.388V189.408L305.368 192ZM312.559 186.15H311.101V189.993C311.101 190.605 310.633 190.902 310.084 190.902C309.436 190.902 309.022 190.605 309.022 189.993V186.15H307.519V189.759C307.519 191.307 308.365 192.135 310.048 192.135C311.704 192.135 312.559 191.307 312.559 189.759V186.15ZM318.326 189.39C318.326 188.814 318.605 188.535 319.064 188.535C319.46 188.535 319.757 188.787 319.757 189.39V192H321.17V188.967C321.17 188.094 320.648 187.365 319.541 187.365C318.965 187.365 318.524 187.581 318.209 188.085H318.191L318.011 187.5H316.913V192H318.326V189.39ZM323.697 190.002H327.045V188.742H323.697V190.002ZM332.366 190.38C333.671 190.38 334.67 189.669 334.67 188.373V188.229C334.67 186.888 333.635 186.15 332.447 186.15H329.747V192H331.241V190.38H332.366ZM332.294 187.293C332.951 187.293 333.176 187.698 333.176 188.301C333.176 188.841 332.933 189.228 332.249 189.228H331.241V187.293H332.294ZM336.774 189.876C336.774 189.291 336.909 188.832 337.71 188.832H338.286V187.518C338.169 187.482 337.971 187.464 337.836 187.464C337.26 187.464 336.756 187.815 336.693 188.454H336.666L336.405 187.5H335.361V192H336.774V189.876ZM340.557 186.258C340.557 185.79 340.161 185.511 339.693 185.511C339.216 185.511 338.829 185.79 338.829 186.258V186.321C338.829 186.789 339.216 187.05 339.693 187.05C340.161 187.05 340.557 186.789 340.557 186.321V186.258ZM340.404 192V187.5H338.982V192H340.404ZM343.621 188.481C344.089 188.481 344.404 188.76 344.503 189.264H345.79V189.147C345.691 187.995 344.701 187.356 343.558 187.356C342.262 187.356 341.209 188.301 341.209 189.669V189.84C341.209 191.253 342.298 192.144 343.567 192.144C344.647 192.144 345.673 191.505 345.79 190.353V190.236H344.503C344.386 190.767 344.125 191.019 343.621 191.019C342.946 191.019 342.64 190.479 342.64 189.75C342.64 189.03 342.946 188.481 343.621 188.481ZM348.585 187.356C347.289 187.356 346.263 188.274 346.263 189.687V189.84C346.263 191.28 347.37 192.144 348.639 192.144C349.674 192.144 350.592 191.64 350.808 190.596H349.485C349.35 190.947 349.044 191.064 348.675 191.064C348.09 191.064 347.766 190.659 347.703 190.092H350.799C350.808 189.993 350.817 189.777 350.817 189.597C350.817 188.085 349.746 187.356 348.585 187.356ZM347.73 189.192C347.802 188.724 348.072 188.364 348.621 188.364C349.098 188.364 349.413 188.697 349.413 189.192H347.73ZM354.677 189.39C354.677 188.814 354.956 188.535 355.415 188.535C355.811 188.535 356.108 188.787 356.108 189.39V192H357.521V188.967C357.521 188.094 356.999 187.365 355.892 187.365C355.316 187.365 354.875 187.581 354.56 188.085H354.542L354.362 187.5H353.264V192H354.677V189.39Z" fill="white"/>
<path d="M282.013 48.724C282.985 48.724 283.537 49.18 283.681 50.092H285.661V49.936C285.469 48.112 283.837 47.02 281.917 47.02C279.709 47.02 277.921 48.676 277.921 50.98V51.268C277.921 53.644 279.721 55.18 281.917 55.18C283.909 55.18 285.433 54.064 285.661 52.132V51.964H283.693C283.609 52.864 283.105 53.464 282.013 53.464C280.621 53.464 279.997 52.372 279.997 51.088C279.997 49.816 280.621 48.724 282.013 48.724ZM286.371 51.244C286.371 53.584 288.171 55.18 290.487 55.18C292.803 55.18 294.603 53.584 294.603 51.244V50.956C294.603 48.616 292.791 47.02 290.487 47.02C288.183 47.02 286.371 48.616 286.371 50.956V51.244ZM288.447 51.1C288.447 49.756 289.119 48.688 290.475 48.688C291.855 48.688 292.527 49.756 292.527 51.1C292.527 52.444 291.795 53.512 290.475 53.512C289.179 53.512 288.447 52.444 288.447 51.1ZM301.046 47.2L301.058 50.044C301.058 50.8 301.13 51.856 301.13 52.108H301.106C300.914 51.784 300.458 50.932 300.014 50.296L297.698 47.2H295.838V55H297.77V52.024C297.77 51.388 297.686 50.32 297.686 50.068H297.71C297.902 50.428 298.37 51.22 298.778 51.796L301.202 55H302.978V47.2H301.046ZM304.147 48.796H306.367V55H308.347V48.796H310.483V47.2H304.147V48.796ZM311.646 47.2V55H317.046V53.392H313.626V51.88H316.53V50.236H313.626V48.796H317.046V47.2H311.646ZM320.315 47.2H318.131V47.416L320.567 50.872L317.747 54.784V55H319.883L321.683 52.408L323.363 55H325.559V54.784L322.871 50.836L325.175 47.416V47.2H323.087L321.755 49.432L320.315 47.2ZM325.803 48.796H328.023V55H330.003V48.796H332.139V47.2H325.803V48.796Z" fill="white"/>
<rect x="288.5" y="115.5" width="101" height="108" rx="9.5" stroke="white"/>
</svg>
