<svg width="902" height="167" viewBox="0 0 902 167" fill="none" xmlns="http://www.w3.org/2000/svg">
<rect width="902" height="167" fill="white"/>
<rect x="44" y="33" width="111" height="101" fill="#FFE0EF"/>
<path d="M70.7496 68L66.8566 56.44H64.5786L60.6856 68H62.5216L63.3716 65.246H68.0126L68.8796 68H70.7496ZM65.7006 57.817L67.5706 63.835H63.8136L65.7006 57.817ZM75.0088 68.17C76.5388 68.17 77.4058 67.303 77.8478 65.569H77.8818V68H79.4288V56.44H77.8818V61.863H77.8478C77.4738 60.044 76.3688 59.449 74.8898 59.449C72.9688 59.449 71.4728 60.86 71.4728 63.75C71.4728 66.674 73.0538 68.17 75.0088 68.17ZM75.4678 66.793C74.1078 66.793 73.1218 65.79 73.1218 63.75C73.1218 61.778 74.0738 60.809 75.4678 60.809C76.8788 60.809 77.8308 61.795 77.8308 63.75C77.8308 65.773 76.8448 66.793 75.4678 66.793ZM85.0859 68.17C86.6159 68.17 87.4829 67.303 87.9249 65.569H87.9589V68H89.5059V56.44H87.9589V61.863H87.9249C87.5509 60.044 86.4459 59.449 84.9669 59.449C83.0459 59.449 81.5499 60.86 81.5499 63.75C81.5499 66.674 83.1309 68.17 85.0859 68.17ZM85.5449 66.793C84.1849 66.793 83.1989 65.79 83.1989 63.75C83.1989 61.778 84.1509 60.809 85.5449 60.809C86.9559 60.809 87.9079 61.795 87.9079 63.75C87.9079 65.773 86.9219 66.793 85.5449 66.793ZM92.8681 58.31C93.5481 58.31 93.9221 57.902 93.9221 57.29C93.9221 56.661 93.5481 56.253 92.8681 56.253C92.2051 56.253 91.8141 56.661 91.8141 57.29C91.8141 57.902 92.2051 58.31 92.8681 58.31ZM93.6331 68V59.602H92.0691V68H93.6331ZM99.4637 66.81C98.7497 66.81 98.3927 66.589 98.3927 65.773V60.911H100.739V59.602H98.3927V57.273H97.3387C97.2027 58.922 96.6927 59.602 95.4177 59.959V60.911H96.8287V66.113C96.8287 67.677 97.6957 68.17 99.0387 68.17C99.6337 68.17 100.212 68.085 100.654 67.966L100.858 66.589C100.501 66.691 100.008 66.81 99.4637 66.81ZM103.609 58.31C104.289 58.31 104.663 57.902 104.663 57.29C104.663 56.661 104.289 56.253 103.609 56.253C102.946 56.253 102.555 56.661 102.555 57.29C102.555 57.902 102.946 58.31 103.609 58.31ZM104.374 68V59.602H102.81V68H104.374ZM110.783 68.17C113.078 68.17 114.897 66.657 114.897 63.801C114.897 60.928 113.078 59.415 110.783 59.415C108.471 59.415 106.635 60.928 106.635 63.801C106.635 66.657 108.471 68.17 110.783 68.17ZM110.783 66.793C109.287 66.793 108.284 65.705 108.284 63.801C108.284 61.88 109.287 60.809 110.783 60.809C112.279 60.809 113.265 61.88 113.265 63.801C113.265 65.705 112.279 66.793 110.783 66.793ZM118.599 68V62.883C118.599 61.591 119.279 60.809 120.673 60.809C121.948 60.809 122.577 61.574 122.577 62.883V68H124.141V62.781C124.141 60.486 123.087 59.415 121.234 59.415C119.823 59.415 118.888 60.163 118.565 61.727H118.514V59.602H117.035V68H118.599ZM129.951 59.415C127.962 59.415 126.653 60.435 126.347 61.999L127.826 62.492C127.996 61.353 128.846 60.792 129.866 60.792C131.073 60.792 131.838 61.404 131.872 62.798L129.458 63.155C127.724 63.393 126.075 63.954 126.075 65.807C126.075 67.388 127.197 68.17 128.761 68.17C130.257 68.17 131.515 67.286 131.923 65.484H131.957V68H133.436V62.951C133.436 60.605 132.076 59.415 129.951 59.415ZM129.118 66.827C128.285 66.827 127.69 66.487 127.69 65.671C127.69 64.702 128.591 64.464 129.696 64.294L131.889 63.971V63.988C131.889 65.246 130.818 66.827 129.118 66.827ZM137.442 68V56.44H135.878V68H137.442ZM71.3647 89.17C73.5237 89.17 74.9007 88.184 74.9007 86.365C74.9007 84.648 73.4727 84.308 72.0617 84.07L70.8377 83.883C70.0217 83.747 69.4607 83.543 69.4607 82.829C69.4607 82.064 70.1407 81.673 71.0757 81.673C72.1637 81.673 72.8947 82.183 73.0307 83.288L74.5777 82.948C74.3737 81.282 72.9117 80.432 71.1437 80.432C69.2567 80.432 67.8627 81.367 67.8627 82.948C67.8627 84.461 69.0867 84.937 70.2427 85.141L71.5857 85.345C72.6567 85.515 73.3027 85.736 73.3027 86.552C73.3027 87.402 72.6227 87.912 71.3137 87.912C70.1407 87.912 69.3417 87.334 69.2057 86.042L67.5907 86.382C67.7267 88.235 69.2227 89.17 71.3647 89.17ZM78.3485 89V83.883C78.3485 82.591 78.9945 81.809 80.3375 81.809C81.6635 81.809 82.3265 82.574 82.3265 83.883V88.983H83.8905V83.781C83.8905 81.486 82.8365 80.415 80.9835 80.415C79.5725 80.415 78.6545 81.163 78.3145 82.71H78.2805V77.406H76.7845V89H78.3485ZM87.0658 79.31C87.7458 79.31 88.1198 78.902 88.1198 78.29C88.1198 77.661 87.7458 77.253 87.0658 77.253C86.4028 77.253 86.0118 77.661 86.0118 78.29C86.0118 78.902 86.4028 79.31 87.0658 79.31ZM87.8308 89V80.602H86.2668V89H87.8308ZM91.9784 92.162V86.484H91.9954C92.3694 88.558 93.4404 89.17 94.9194 89.17C96.8574 89.17 98.3704 87.759 98.3704 84.852C98.3704 81.928 96.7894 80.449 94.8174 80.449C93.3044 80.449 92.4374 81.299 91.9954 82.846H91.9614V80.602H90.4144V92.162H91.9784ZM94.3754 87.793C92.9644 87.793 92.0124 86.824 92.0124 84.852C92.0124 82.829 92.9984 81.809 94.3754 81.809C95.7354 81.809 96.7214 82.812 96.7214 84.852C96.7214 86.824 95.7864 87.793 94.3754 87.793ZM101.989 92.162V86.484H102.006C102.38 88.558 103.451 89.17 104.93 89.17C106.868 89.17 108.381 87.759 108.381 84.852C108.381 81.928 106.8 80.449 104.828 80.449C103.315 80.449 102.448 81.299 102.006 82.846H101.972V80.602H100.425V92.162H101.989ZM104.386 87.793C102.975 87.793 102.023 86.824 102.023 84.852C102.023 82.829 103.009 81.809 104.386 81.809C105.746 81.809 106.732 82.812 106.732 84.852C106.732 86.824 105.797 87.793 104.386 87.793ZM111.42 79.31C112.1 79.31 112.474 78.902 112.474 78.29C112.474 77.661 112.1 77.253 111.42 77.253C110.757 77.253 110.366 77.661 110.366 78.29C110.366 78.902 110.757 79.31 111.42 79.31ZM112.185 89V80.602H110.621V89H112.185ZM116.333 89V83.883C116.333 82.591 117.013 81.809 118.407 81.809C119.682 81.809 120.311 82.574 120.311 83.883V89H121.875V83.781C121.875 81.486 120.821 80.415 118.968 80.415C117.557 80.415 116.622 81.163 116.299 82.727H116.248V80.602H114.769V89H116.333ZM128.858 87.232C128.059 87.232 126.835 87.317 126.291 87.317C125.696 87.3 125.492 87.113 125.492 86.773C125.492 86.433 125.713 86.127 126.376 86.042C126.682 86.093 127.022 86.127 127.362 86.127C129.249 86.127 130.643 85.107 130.643 83.424C130.643 82.523 130.133 81.673 128.399 81.299L128.416 81.265C130.031 81.265 130.626 81.486 131.051 81.979H131.442V80.602H127.889C124.999 80.602 123.911 81.911 123.911 83.356C123.911 84.784 124.778 85.634 126.019 85.957C124.727 86.025 124.064 86.569 124.064 87.334C124.064 87.929 124.387 88.303 124.965 88.507C125.135 88.558 125.322 88.592 125.526 88.626C123.996 88.813 123.333 89.391 123.333 90.326C123.333 91.669 124.727 92.315 127.328 92.315C129.946 92.315 131.833 91.346 131.833 89.408C131.833 87.912 130.847 87.249 128.858 87.232ZM125.526 83.373C125.526 82.404 126.138 81.843 127.311 81.843C128.484 81.843 129.062 82.404 129.062 83.373C129.062 84.342 128.484 84.903 127.311 84.903C126.138 84.903 125.526 84.342 125.526 83.373ZM127.396 90.989C125.849 90.989 124.914 90.598 124.914 89.731C124.914 89.17 125.356 88.796 126.121 88.66H126.189C126.92 88.677 127.872 88.609 128.603 88.626C129.759 88.626 130.218 88.966 130.218 89.612C130.218 90.53 129.045 90.989 127.396 90.989ZM83.0982 110.17C85.2062 110.17 86.6172 109.082 86.9062 107.025L85.4102 106.753C85.0702 108.164 84.3052 108.793 83.1662 108.793C81.7722 108.793 80.6672 107.96 80.6672 105.835C80.6672 103.812 81.7042 102.809 83.1662 102.809C84.3562 102.809 85.1382 103.37 85.3422 104.73L86.8722 104.407C86.5662 102.401 85.1382 101.432 83.2172 101.432C80.8372 101.432 79.0182 102.962 79.0182 105.818C79.0182 108.725 80.7862 110.17 83.0982 110.17ZM92.4465 110.17C94.7415 110.17 96.5605 108.657 96.5605 105.801C96.5605 102.928 94.7415 101.415 92.4465 101.415C90.1345 101.415 88.2985 102.928 88.2985 105.801C88.2985 108.657 90.1345 110.17 92.4465 110.17ZM92.4465 108.793C90.9505 108.793 89.9475 107.705 89.9475 105.801C89.9475 103.88 90.9505 102.809 92.4465 102.809C93.9425 102.809 94.9285 103.88 94.9285 105.801C94.9285 107.705 93.9425 108.793 92.4465 108.793ZM101.746 110.17C103.905 110.17 105.282 109.184 105.282 107.365C105.282 105.648 103.854 105.308 102.443 105.07L101.219 104.883C100.403 104.747 99.8416 104.543 99.8416 103.829C99.8416 103.064 100.522 102.673 101.457 102.673C102.545 102.673 103.276 103.183 103.412 104.288L104.959 103.948C104.755 102.282 103.293 101.432 101.525 101.432C99.6376 101.432 98.2436 102.367 98.2436 103.948C98.2436 105.461 99.4676 105.937 100.624 106.141L101.967 106.345C103.038 106.515 103.684 106.736 103.684 107.552C103.684 108.402 103.004 108.912 101.695 108.912C100.522 108.912 99.7226 108.334 99.5866 107.042L97.9716 107.382C98.1076 109.235 99.6036 110.17 101.746 110.17ZM110.329 108.81C109.615 108.81 109.258 108.589 109.258 107.773V102.911H111.604V101.602H109.258V99.273H108.204C108.068 100.922 107.558 101.602 106.283 101.959V102.911H107.694V108.113C107.694 109.677 108.561 110.17 109.904 110.17C110.499 110.17 111.077 110.085 111.519 109.966L111.723 108.589C111.366 108.691 110.873 108.81 110.329 108.81ZM116.687 110.17C118.846 110.17 120.223 109.184 120.223 107.365C120.223 105.648 118.795 105.308 117.384 105.07L116.16 104.883C115.344 104.747 114.783 104.543 114.783 103.829C114.783 103.064 115.463 102.673 116.398 102.673C117.486 102.673 118.217 103.183 118.353 104.288L119.9 103.948C119.696 102.282 118.234 101.432 116.466 101.432C114.579 101.432 113.185 102.367 113.185 103.948C113.185 105.461 114.409 105.937 115.565 106.141L116.908 106.345C117.979 106.515 118.625 106.736 118.625 107.552C118.625 108.402 117.945 108.912 116.636 108.912C115.463 108.912 114.664 108.334 114.528 107.042L112.913 107.382C113.049 109.235 114.545 110.17 116.687 110.17Z" fill="black"/>
<rect x="396" y="33" width="111" height="101" fill="#FFE0EF"/>
<path d="M406.601 56.44V68H408.284V63.359H410.29C413.214 63.359 414.693 62.118 414.693 59.891C414.693 57.698 413.214 56.44 410.273 56.44H406.601ZM408.284 61.914V57.885H410.273C412.041 57.885 412.942 58.599 412.942 59.891C412.942 61.251 412.041 61.914 410.273 61.914H408.284ZM418.105 68V63.546C418.105 61.914 418.972 60.996 420.519 60.996C420.825 60.996 421.233 61.03 421.471 61.081L421.386 59.534C421.131 59.466 420.791 59.432 420.502 59.432C419.278 59.432 418.496 59.976 418.054 62.033H418.003V59.602H416.541V68H418.105ZM423.751 58.31C424.431 58.31 424.805 57.902 424.805 57.29C424.805 56.661 424.431 56.253 423.751 56.253C423.088 56.253 422.697 56.661 422.697 57.29C422.697 57.902 423.088 58.31 423.751 58.31ZM424.516 68V59.602H422.952V68H424.516ZM430.856 68.17C432.964 68.17 434.375 67.082 434.664 65.025L433.168 64.753C432.828 66.164 432.063 66.793 430.924 66.793C429.53 66.793 428.425 65.96 428.425 63.835C428.425 61.812 429.462 60.809 430.924 60.809C432.114 60.809 432.896 61.37 433.1 62.73L434.63 62.407C434.324 60.401 432.896 59.432 430.975 59.432C428.595 59.432 426.776 60.962 426.776 63.818C426.776 66.725 428.544 68.17 430.856 68.17ZM443.741 63.495C443.741 60.877 442.398 59.415 440.086 59.415C437.536 59.415 436.057 61.268 436.057 63.971C436.057 66.606 437.451 68.17 440.001 68.17C442.075 68.17 443.367 67.15 443.69 65.535L442.245 65.178C442.024 66.334 441.208 66.861 440.035 66.861C438.488 66.861 437.706 65.909 437.689 63.903H443.724C443.724 63.818 443.741 63.767 443.741 63.495ZM440.018 60.69C441.31 60.69 442.041 61.506 442.075 62.815H437.774C438.012 61.421 438.794 60.69 440.018 60.69ZM449.635 64.192V62.9H445.266V64.192H449.635ZM455.939 68.17C457.928 68.17 459.526 66.674 459.526 63.75C459.526 60.86 458.013 59.449 456.075 59.449C454.596 59.449 453.593 60.333 453.151 61.88H453.134V56.44H451.57V68H453.117V65.552H453.151C453.627 67.303 454.596 68.17 455.939 68.17ZM455.531 66.793C454.154 66.793 453.168 65.773 453.168 63.75C453.168 61.795 454.12 60.809 455.531 60.809C456.942 60.809 457.877 61.778 457.877 63.75C457.877 65.79 456.891 66.793 455.531 66.793ZM465.184 59.415C463.195 59.415 461.886 60.435 461.58 61.999L463.059 62.492C463.229 61.353 464.079 60.792 465.099 60.792C466.306 60.792 467.071 61.404 467.105 62.798L464.691 63.155C462.957 63.393 461.308 63.954 461.308 65.807C461.308 67.388 462.43 68.17 463.994 68.17C465.49 68.17 466.748 67.286 467.156 65.484H467.19V68H468.669V62.951C468.669 60.605 467.309 59.415 465.184 59.415ZM464.351 66.827C463.518 66.827 462.923 66.487 462.923 65.671C462.923 64.702 463.824 64.464 464.929 64.294L467.122 63.971V63.988C467.122 65.246 466.051 66.827 464.351 66.827ZM474.323 68.17C476.482 68.17 477.859 67.184 477.859 65.365C477.859 63.648 476.431 63.308 475.02 63.07L473.796 62.883C472.98 62.747 472.419 62.543 472.419 61.829C472.419 61.064 473.099 60.673 474.034 60.673C475.122 60.673 475.853 61.183 475.989 62.288L477.536 61.948C477.332 60.282 475.87 59.432 474.102 59.432C472.215 59.432 470.821 60.367 470.821 61.948C470.821 63.461 472.045 63.937 473.201 64.141L474.544 64.345C475.615 64.515 476.261 64.736 476.261 65.552C476.261 66.402 475.581 66.912 474.272 66.912C473.099 66.912 472.3 66.334 472.164 65.042L470.549 65.382C470.685 67.235 472.181 68.17 474.323 68.17ZM486.938 63.495C486.938 60.877 485.595 59.415 483.283 59.415C480.733 59.415 479.254 61.268 479.254 63.971C479.254 66.606 480.648 68.17 483.198 68.17C485.272 68.17 486.564 67.15 486.887 65.535L485.442 65.178C485.221 66.334 484.405 66.861 483.232 66.861C481.685 66.861 480.903 65.909 480.886 63.903H486.921C486.921 63.818 486.938 63.767 486.938 63.495ZM483.215 60.69C484.507 60.69 485.238 61.506 485.272 62.815H480.971C481.209 61.421 481.991 60.69 483.215 60.69ZM492.187 68.17C493.717 68.17 494.584 67.303 495.026 65.569H495.06V68H496.607V56.44H495.06V61.863H495.026C494.652 60.044 493.547 59.449 492.068 59.449C490.147 59.449 488.651 60.86 488.651 63.75C488.651 66.674 490.232 68.17 492.187 68.17ZM492.646 66.793C491.286 66.793 490.3 65.79 490.3 63.75C490.3 61.778 491.252 60.809 492.646 60.809C494.057 60.809 495.009 61.795 495.009 63.75C495.009 65.773 494.023 66.793 492.646 66.793ZM417.487 80.415C415.498 80.415 414.189 81.435 413.883 82.999L415.362 83.492C415.532 82.353 416.382 81.792 417.402 81.792C418.609 81.792 419.374 82.404 419.408 83.798L416.994 84.155C415.26 84.393 413.611 84.954 413.611 86.807C413.611 88.388 414.733 89.17 416.297 89.17C417.793 89.17 419.051 88.286 419.459 86.484H419.493V89H420.972V83.951C420.972 81.605 419.612 80.415 417.487 80.415ZM416.654 87.827C415.821 87.827 415.226 87.487 415.226 86.671C415.226 85.702 416.127 85.464 417.232 85.294L419.425 84.971V84.988C419.425 86.246 418.354 87.827 416.654 87.827ZM426.627 89.17C428.157 89.17 429.024 88.303 429.466 86.569H429.5V89H431.047V77.44H429.5V82.863H429.466C429.092 81.044 427.987 80.449 426.508 80.449C424.587 80.449 423.091 81.86 423.091 84.75C423.091 87.674 424.672 89.17 426.627 89.17ZM427.086 87.793C425.726 87.793 424.74 86.79 424.74 84.75C424.74 82.778 425.692 81.809 427.086 81.809C428.497 81.809 429.449 82.795 429.449 84.75C429.449 86.773 428.463 87.793 427.086 87.793ZM436.704 89.17C438.234 89.17 439.101 88.303 439.543 86.569H439.577V89H441.124V77.44H439.577V82.863H439.543C439.169 81.044 438.064 80.449 436.585 80.449C434.664 80.449 433.168 81.86 433.168 84.75C433.168 87.674 434.749 89.17 436.704 89.17ZM437.163 87.793C435.803 87.793 434.817 86.79 434.817 84.75C434.817 82.778 435.769 81.809 437.163 81.809C438.574 81.809 439.526 82.795 439.526 84.75C439.526 86.773 438.54 87.793 437.163 87.793ZM444.486 79.31C445.166 79.31 445.54 78.902 445.54 78.29C445.54 77.661 445.166 77.253 444.486 77.253C443.823 77.253 443.432 77.661 443.432 78.29C443.432 78.902 443.823 79.31 444.486 79.31ZM445.251 89V80.602H443.687V89H445.251ZM451.082 87.81C450.368 87.81 450.011 87.589 450.011 86.773V81.911H452.357V80.602H450.011V78.273H448.957C448.821 79.922 448.311 80.602 447.036 80.959V81.911H448.447V87.113C448.447 88.677 449.314 89.17 450.657 89.17C451.252 89.17 451.83 89.085 452.272 88.966L452.476 87.589C452.119 87.691 451.626 87.81 451.082 87.81ZM455.227 79.31C455.907 79.31 456.281 78.902 456.281 78.29C456.281 77.661 455.907 77.253 455.227 77.253C454.564 77.253 454.173 77.661 454.173 78.29C454.173 78.902 454.564 79.31 455.227 79.31ZM455.992 89V80.602H454.428V89H455.992ZM462.401 89.17C464.696 89.17 466.515 87.657 466.515 84.801C466.515 81.928 464.696 80.415 462.401 80.415C460.089 80.415 458.253 81.928 458.253 84.801C458.253 87.657 460.089 89.17 462.401 89.17ZM462.401 87.793C460.905 87.793 459.902 86.705 459.902 84.801C459.902 82.88 460.905 81.809 462.401 81.809C463.897 81.809 464.883 82.88 464.883 84.801C464.883 86.705 463.897 87.793 462.401 87.793ZM470.217 89V83.883C470.217 82.591 470.897 81.809 472.291 81.809C473.566 81.809 474.195 82.574 474.195 83.883V89H475.759V83.781C475.759 81.486 474.705 80.415 472.852 80.415C471.441 80.415 470.506 81.163 470.183 82.727H470.132V80.602H468.653V89H470.217ZM481.569 80.415C479.58 80.415 478.271 81.435 477.965 82.999L479.444 83.492C479.614 82.353 480.464 81.792 481.484 81.792C482.691 81.792 483.456 82.404 483.49 83.798L481.076 84.155C479.342 84.393 477.693 84.954 477.693 86.807C477.693 88.388 478.815 89.17 480.379 89.17C481.875 89.17 483.133 88.286 483.541 86.484H483.575V89H485.054V83.951C485.054 81.605 483.694 80.415 481.569 80.415ZM480.736 87.827C479.903 87.827 479.308 87.487 479.308 86.671C479.308 85.702 480.209 85.464 481.314 85.294L483.507 84.971V84.988C483.507 86.246 482.436 87.827 480.736 87.827ZM489.06 89V77.44H487.496V89H489.06ZM430.143 110.17C432.251 110.17 433.662 109.082 433.951 107.025L432.455 106.753C432.115 108.164 431.35 108.793 430.211 108.793C428.817 108.793 427.712 107.96 427.712 105.835C427.712 103.812 428.749 102.809 430.211 102.809C431.401 102.809 432.183 103.37 432.387 104.73L433.917 104.407C433.611 102.401 432.183 101.432 430.262 101.432C427.882 101.432 426.063 102.962 426.063 105.818C426.063 108.725 427.831 110.17 430.143 110.17ZM437.413 110V104.883C437.413 103.591 438.059 102.809 439.402 102.809C440.728 102.809 441.391 103.574 441.391 104.883V109.983H442.955V104.781C442.955 102.486 441.901 101.415 440.048 101.415C438.637 101.415 437.719 102.163 437.379 103.71H437.345V98.406H435.849V110H437.413ZM448.765 101.415C446.776 101.415 445.467 102.435 445.161 103.999L446.64 104.492C446.81 103.353 447.66 102.792 448.68 102.792C449.887 102.792 450.652 103.404 450.686 104.798L448.272 105.155C446.538 105.393 444.889 105.954 444.889 107.807C444.889 109.388 446.011 110.17 447.575 110.17C449.071 110.17 450.329 109.286 450.737 107.484H450.771V110H452.25V104.951C452.25 102.605 450.89 101.415 448.765 101.415ZM447.932 108.827C447.099 108.827 446.504 108.487 446.504 107.671C446.504 106.702 447.405 106.464 448.51 106.294L450.703 105.971V105.988C450.703 107.246 449.632 108.827 447.932 108.827ZM456.255 110V105.546C456.255 103.914 457.122 102.996 458.669 102.996C458.975 102.996 459.383 103.03 459.621 103.081L459.536 101.534C459.281 101.466 458.941 101.432 458.652 101.432C457.428 101.432 456.646 101.976 456.204 104.033H456.153V101.602H454.691V110H456.255ZM465.643 108.232C464.844 108.232 463.62 108.317 463.076 108.317C462.481 108.3 462.277 108.113 462.277 107.773C462.277 107.433 462.498 107.127 463.161 107.042C463.467 107.093 463.807 107.127 464.147 107.127C466.034 107.127 467.428 106.107 467.428 104.424C467.428 103.523 466.918 102.673 465.184 102.299L465.201 102.265C466.816 102.265 467.411 102.486 467.836 102.979H468.227V101.602H464.674C461.784 101.602 460.696 102.911 460.696 104.356C460.696 105.784 461.563 106.634 462.804 106.957C461.512 107.025 460.849 107.569 460.849 108.334C460.849 108.929 461.172 109.303 461.75 109.507C461.92 109.558 462.107 109.592 462.311 109.626C460.781 109.813 460.118 110.391 460.118 111.326C460.118 112.669 461.512 113.315 464.113 113.315C466.731 113.315 468.618 112.346 468.618 110.408C468.618 108.912 467.632 108.249 465.643 108.232ZM462.311 104.373C462.311 103.404 462.923 102.843 464.096 102.843C465.269 102.843 465.847 103.404 465.847 104.373C465.847 105.342 465.269 105.903 464.096 105.903C462.923 105.903 462.311 105.342 462.311 104.373ZM464.181 111.989C462.634 111.989 461.699 111.598 461.699 110.731C461.699 110.17 462.141 109.796 462.906 109.66H462.974C463.705 109.677 464.657 109.609 465.388 109.626C466.544 109.626 467.003 109.966 467.003 110.612C467.003 111.53 465.83 111.989 464.181 111.989ZM477.027 105.495C477.027 102.877 475.684 101.415 473.372 101.415C470.822 101.415 469.343 103.268 469.343 105.971C469.343 108.606 470.737 110.17 473.287 110.17C475.361 110.17 476.653 109.15 476.976 107.535L475.531 107.178C475.31 108.334 474.494 108.861 473.321 108.861C471.774 108.861 470.992 107.909 470.975 105.903H477.01C477.01 105.818 477.027 105.767 477.027 105.495ZM473.304 102.69C474.596 102.69 475.327 103.506 475.361 104.815H471.06C471.298 103.421 472.08 102.69 473.304 102.69Z" fill="black"/>
<rect x="225" y="33" width="111" height="101" fill="#FFE0EF"/>
<path d="M238.523 66.181L235.854 56.44H234.086L231.604 66.351L229.53 56.44H227.677L230.414 68H232.624L234.953 58.905L237.384 68H239.577L242.297 56.44H240.512L238.523 66.181ZM250.818 63.495C250.818 60.877 249.475 59.415 247.163 59.415C244.613 59.415 243.134 61.268 243.134 63.971C243.134 66.606 244.528 68.17 247.078 68.17C249.152 68.17 250.444 67.15 250.767 65.535L249.322 65.178C249.101 66.334 248.285 66.861 247.112 66.861C245.565 66.861 244.783 65.909 244.766 63.903H250.801C250.801 63.818 250.818 63.767 250.818 63.495ZM247.095 60.69C248.387 60.69 249.118 61.506 249.152 62.815H244.851C245.089 61.421 245.871 60.69 247.095 60.69ZM253.772 58.31C254.452 58.31 254.826 57.902 254.826 57.29C254.826 56.661 254.452 56.253 253.772 56.253C253.109 56.253 252.718 56.661 252.718 57.29C252.718 57.902 253.109 58.31 253.772 58.31ZM254.537 68V59.602H252.973V68H254.537ZM261.846 66.232C261.047 66.232 259.823 66.317 259.279 66.317C258.684 66.3 258.48 66.113 258.48 65.773C258.48 65.433 258.701 65.127 259.364 65.042C259.67 65.093 260.01 65.127 260.35 65.127C262.237 65.127 263.631 64.107 263.631 62.424C263.631 61.523 263.121 60.673 261.387 60.299L261.404 60.265C263.019 60.265 263.614 60.486 264.039 60.979H264.43V59.602H260.877C257.987 59.602 256.899 60.911 256.899 62.356C256.899 63.784 257.766 64.634 259.007 64.957C257.715 65.025 257.052 65.569 257.052 66.334C257.052 66.929 257.375 67.303 257.953 67.507C258.123 67.558 258.31 67.592 258.514 67.626C256.984 67.813 256.321 68.391 256.321 69.326C256.321 70.669 257.715 71.315 260.316 71.315C262.934 71.315 264.821 70.346 264.821 68.408C264.821 66.912 263.835 66.249 261.846 66.232ZM258.514 62.373C258.514 61.404 259.126 60.843 260.299 60.843C261.472 60.843 262.05 61.404 262.05 62.373C262.05 63.342 261.472 63.903 260.299 63.903C259.126 63.903 258.514 63.342 258.514 62.373ZM260.384 69.989C258.837 69.989 257.902 69.598 257.902 68.731C257.902 68.17 258.344 67.796 259.109 67.66H259.177C259.908 67.677 260.86 67.609 261.591 67.626C262.747 67.626 263.206 67.966 263.206 68.612C263.206 69.53 262.033 69.989 260.384 69.989ZM267.849 68V62.883C267.849 61.591 268.495 60.809 269.838 60.809C271.164 60.809 271.827 61.574 271.827 62.883V67.983H273.391V62.781C273.391 60.486 272.337 59.415 270.484 59.415C269.073 59.415 268.155 60.163 267.815 61.71H267.781V56.406H266.285V68H267.849ZM278.895 66.81C278.181 66.81 277.824 66.589 277.824 65.773V60.911H280.17V59.602H277.824V57.273H276.77C276.634 58.922 276.124 59.602 274.849 59.959V60.911H276.26V66.113C276.26 67.677 277.127 68.17 278.47 68.17C279.065 68.17 279.643 68.085 280.085 67.966L280.289 66.589C279.932 66.691 279.439 66.81 278.895 66.81ZM285.981 64.192V62.9H281.612V64.192H285.981ZM292.285 68.17C294.274 68.17 295.872 66.674 295.872 63.75C295.872 60.86 294.359 59.449 292.421 59.449C290.942 59.449 289.939 60.333 289.497 61.88H289.48V56.44H287.916V68H289.463V65.552H289.497C289.973 67.303 290.942 68.17 292.285 68.17ZM291.877 66.793C290.5 66.793 289.514 65.773 289.514 63.75C289.514 61.795 290.466 60.809 291.877 60.809C293.288 60.809 294.223 61.778 294.223 63.75C294.223 65.79 293.237 66.793 291.877 66.793ZM301.53 59.415C299.541 59.415 298.232 60.435 297.926 61.999L299.405 62.492C299.575 61.353 300.425 60.792 301.445 60.792C302.652 60.792 303.417 61.404 303.451 62.798L301.037 63.155C299.303 63.393 297.654 63.954 297.654 65.807C297.654 67.388 298.776 68.17 300.34 68.17C301.836 68.17 303.094 67.286 303.502 65.484H303.536V68H305.015V62.951C305.015 60.605 303.655 59.415 301.53 59.415ZM300.697 66.827C299.864 66.827 299.269 66.487 299.269 65.671C299.269 64.702 300.17 64.464 301.275 64.294L303.468 63.971V63.988C303.468 65.246 302.397 66.827 300.697 66.827ZM310.669 68.17C312.828 68.17 314.205 67.184 314.205 65.365C314.205 63.648 312.777 63.308 311.366 63.07L310.142 62.883C309.326 62.747 308.765 62.543 308.765 61.829C308.765 61.064 309.445 60.673 310.38 60.673C311.468 60.673 312.199 61.183 312.335 62.288L313.882 61.948C313.678 60.282 312.216 59.432 310.448 59.432C308.561 59.432 307.167 60.367 307.167 61.948C307.167 63.461 308.391 63.937 309.547 64.141L310.89 64.345C311.961 64.515 312.607 64.736 312.607 65.552C312.607 66.402 311.927 66.912 310.618 66.912C309.445 66.912 308.646 66.334 308.51 65.042L306.895 65.382C307.031 67.235 308.527 68.17 310.669 68.17ZM323.284 63.495C323.284 60.877 321.941 59.415 319.629 59.415C317.079 59.415 315.6 61.268 315.6 63.971C315.6 66.606 316.994 68.17 319.544 68.17C321.618 68.17 322.91 67.15 323.233 65.535L321.788 65.178C321.567 66.334 320.751 66.861 319.578 66.861C318.031 66.861 317.249 65.909 317.232 63.903H323.267C323.267 63.818 323.284 63.767 323.284 63.495ZM319.561 60.69C320.853 60.69 321.584 61.506 321.618 62.815H317.317C317.555 61.421 318.337 60.69 319.561 60.69ZM328.533 68.17C330.063 68.17 330.93 67.303 331.372 65.569H331.406V68H332.953V56.44H331.406V61.863H331.372C330.998 60.044 329.893 59.449 328.414 59.449C326.493 59.449 324.997 60.86 324.997 63.75C324.997 66.674 326.578 68.17 328.533 68.17ZM328.992 66.793C327.632 66.793 326.646 65.79 326.646 63.75C326.646 61.778 327.598 60.809 328.992 60.809C330.403 60.809 331.355 61.795 331.355 63.75C331.355 65.773 330.369 66.793 328.992 66.793ZM246.487 80.415C244.498 80.415 243.189 81.435 242.883 82.999L244.362 83.492C244.532 82.353 245.382 81.792 246.402 81.792C247.609 81.792 248.374 82.404 248.408 83.798L245.994 84.155C244.26 84.393 242.611 84.954 242.611 86.807C242.611 88.388 243.733 89.17 245.297 89.17C246.793 89.17 248.051 88.286 248.459 86.484H248.493V89H249.972V83.951C249.972 81.605 248.612 80.415 246.487 80.415ZM245.654 87.827C244.821 87.827 244.226 87.487 244.226 86.671C244.226 85.702 245.127 85.464 246.232 85.294L248.425 84.971V84.988C248.425 86.246 247.354 87.827 245.654 87.827ZM255.627 89.17C257.157 89.17 258.024 88.303 258.466 86.569H258.5V89H260.047V77.44H258.5V82.863H258.466C258.092 81.044 256.987 80.449 255.508 80.449C253.587 80.449 252.091 81.86 252.091 84.75C252.091 87.674 253.672 89.17 255.627 89.17ZM256.086 87.793C254.726 87.793 253.74 86.79 253.74 84.75C253.74 82.778 254.692 81.809 256.086 81.809C257.497 81.809 258.449 82.795 258.449 84.75C258.449 86.773 257.463 87.793 256.086 87.793ZM265.704 89.17C267.234 89.17 268.101 88.303 268.543 86.569H268.577V89H270.124V77.44H268.577V82.863H268.543C268.169 81.044 267.064 80.449 265.585 80.449C263.664 80.449 262.168 81.86 262.168 84.75C262.168 87.674 263.749 89.17 265.704 89.17ZM266.163 87.793C264.803 87.793 263.817 86.79 263.817 84.75C263.817 82.778 264.769 81.809 266.163 81.809C267.574 81.809 268.526 82.795 268.526 84.75C268.526 86.773 267.54 87.793 266.163 87.793ZM273.486 79.31C274.166 79.31 274.54 78.902 274.54 78.29C274.54 77.661 274.166 77.253 273.486 77.253C272.823 77.253 272.432 77.661 272.432 78.29C272.432 78.902 272.823 79.31 273.486 79.31ZM274.251 89V80.602H272.687V89H274.251ZM280.082 87.81C279.368 87.81 279.011 87.589 279.011 86.773V81.911H281.357V80.602H279.011V78.273H277.957C277.821 79.922 277.311 80.602 276.036 80.959V81.911H277.447V87.113C277.447 88.677 278.314 89.17 279.657 89.17C280.252 89.17 280.83 89.085 281.272 88.966L281.476 87.589C281.119 87.691 280.626 87.81 280.082 87.81ZM284.227 79.31C284.907 79.31 285.281 78.902 285.281 78.29C285.281 77.661 284.907 77.253 284.227 77.253C283.564 77.253 283.173 77.661 283.173 78.29C283.173 78.902 283.564 79.31 284.227 79.31ZM284.992 89V80.602H283.428V89H284.992ZM291.401 89.17C293.696 89.17 295.515 87.657 295.515 84.801C295.515 81.928 293.696 80.415 291.401 80.415C289.089 80.415 287.253 81.928 287.253 84.801C287.253 87.657 289.089 89.17 291.401 89.17ZM291.401 87.793C289.905 87.793 288.902 86.705 288.902 84.801C288.902 82.88 289.905 81.809 291.401 81.809C292.897 81.809 293.883 82.88 293.883 84.801C293.883 86.705 292.897 87.793 291.401 87.793ZM299.217 89V83.883C299.217 82.591 299.897 81.809 301.291 81.809C302.566 81.809 303.195 82.574 303.195 83.883V89H304.759V83.781C304.759 81.486 303.705 80.415 301.852 80.415C300.441 80.415 299.506 81.163 299.183 82.727H299.132V80.602H297.653V89H299.217ZM310.569 80.415C308.58 80.415 307.271 81.435 306.965 82.999L308.444 83.492C308.614 82.353 309.464 81.792 310.484 81.792C311.691 81.792 312.456 82.404 312.49 83.798L310.076 84.155C308.342 84.393 306.693 84.954 306.693 86.807C306.693 88.388 307.815 89.17 309.379 89.17C310.875 89.17 312.133 88.286 312.541 86.484H312.575V89H314.054V83.951C314.054 81.605 312.694 80.415 310.569 80.415ZM309.736 87.827C308.903 87.827 308.308 87.487 308.308 86.671C308.308 85.702 309.209 85.464 310.314 85.294L312.507 84.971V84.988C312.507 86.246 311.436 87.827 309.736 87.827ZM318.06 89V77.44H316.496V89H318.06ZM259.143 110.17C261.251 110.17 262.662 109.082 262.951 107.025L261.455 106.753C261.115 108.164 260.35 108.793 259.211 108.793C257.817 108.793 256.712 107.96 256.712 105.835C256.712 103.812 257.749 102.809 259.211 102.809C260.401 102.809 261.183 103.37 261.387 104.73L262.917 104.407C262.611 102.401 261.183 101.432 259.262 101.432C256.882 101.432 255.063 102.962 255.063 105.818C255.063 108.725 256.831 110.17 259.143 110.17ZM266.413 110V104.883C266.413 103.591 267.059 102.809 268.402 102.809C269.728 102.809 270.391 103.574 270.391 104.883V109.983H271.955V104.781C271.955 102.486 270.901 101.415 269.048 101.415C267.637 101.415 266.719 102.163 266.379 103.71H266.345V98.406H264.849V110H266.413ZM277.765 101.415C275.776 101.415 274.467 102.435 274.161 103.999L275.64 104.492C275.81 103.353 276.66 102.792 277.68 102.792C278.887 102.792 279.652 103.404 279.686 104.798L277.272 105.155C275.538 105.393 273.889 105.954 273.889 107.807C273.889 109.388 275.011 110.17 276.575 110.17C278.071 110.17 279.329 109.286 279.737 107.484H279.771V110H281.25V104.951C281.25 102.605 279.89 101.415 277.765 101.415ZM276.932 108.827C276.099 108.827 275.504 108.487 275.504 107.671C275.504 106.702 276.405 106.464 277.51 106.294L279.703 105.971V105.988C279.703 107.246 278.632 108.827 276.932 108.827ZM285.255 110V105.546C285.255 103.914 286.122 102.996 287.669 102.996C287.975 102.996 288.383 103.03 288.621 103.081L288.536 101.534C288.281 101.466 287.941 101.432 287.652 101.432C286.428 101.432 285.646 101.976 285.204 104.033H285.153V101.602H283.691V110H285.255ZM294.643 108.232C293.844 108.232 292.62 108.317 292.076 108.317C291.481 108.3 291.277 108.113 291.277 107.773C291.277 107.433 291.498 107.127 292.161 107.042C292.467 107.093 292.807 107.127 293.147 107.127C295.034 107.127 296.428 106.107 296.428 104.424C296.428 103.523 295.918 102.673 294.184 102.299L294.201 102.265C295.816 102.265 296.411 102.486 296.836 102.979H297.227V101.602H293.674C290.784 101.602 289.696 102.911 289.696 104.356C289.696 105.784 290.563 106.634 291.804 106.957C290.512 107.025 289.849 107.569 289.849 108.334C289.849 108.929 290.172 109.303 290.75 109.507C290.92 109.558 291.107 109.592 291.311 109.626C289.781 109.813 289.118 110.391 289.118 111.326C289.118 112.669 290.512 113.315 293.113 113.315C295.731 113.315 297.618 112.346 297.618 110.408C297.618 108.912 296.632 108.249 294.643 108.232ZM291.311 104.373C291.311 103.404 291.923 102.843 293.096 102.843C294.269 102.843 294.847 103.404 294.847 104.373C294.847 105.342 294.269 105.903 293.096 105.903C291.923 105.903 291.311 105.342 291.311 104.373ZM293.181 111.989C291.634 111.989 290.699 111.598 290.699 110.731C290.699 110.17 291.141 109.796 291.906 109.66H291.974C292.705 109.677 293.657 109.609 294.388 109.626C295.544 109.626 296.003 109.966 296.003 110.612C296.003 111.53 294.83 111.989 293.181 111.989ZM306.027 105.495C306.027 102.877 304.684 101.415 302.372 101.415C299.822 101.415 298.343 103.268 298.343 105.971C298.343 108.606 299.737 110.17 302.287 110.17C304.361 110.17 305.653 109.15 305.976 107.535L304.531 107.178C304.31 108.334 303.494 108.861 302.321 108.861C300.774 108.861 299.992 107.909 299.975 105.903H306.01C306.01 105.818 306.027 105.767 306.027 105.495ZM302.304 102.69C303.596 102.69 304.327 103.506 304.361 104.815H300.06C300.298 103.421 301.08 102.69 302.304 102.69Z" fill="black"/>
<rect x="748" y="33" width="111" height="101" fill="#FFE0EF"/>
<path d="M774.75 68L770.857 56.44H768.579L764.686 68H766.522L767.372 65.246H772.013L772.88 68H774.75ZM769.701 57.817L771.571 63.835H767.814L769.701 57.817ZM779.009 68.17C780.539 68.17 781.406 67.303 781.848 65.569H781.882V68H783.429V56.44H781.882V61.863H781.848C781.474 60.044 780.369 59.449 778.89 59.449C776.969 59.449 775.473 60.86 775.473 63.75C775.473 66.674 777.054 68.17 779.009 68.17ZM779.468 66.793C778.108 66.793 777.122 65.79 777.122 63.75C777.122 61.778 778.074 60.809 779.468 60.809C780.879 60.809 781.831 61.795 781.831 63.75C781.831 65.773 780.845 66.793 779.468 66.793ZM789.086 68.17C790.616 68.17 791.483 67.303 791.925 65.569H791.959V68H793.506V56.44H791.959V61.863H791.925C791.551 60.044 790.446 59.449 788.967 59.449C787.046 59.449 785.55 60.86 785.55 63.75C785.55 66.674 787.131 68.17 789.086 68.17ZM789.545 66.793C788.185 66.793 787.199 65.79 787.199 63.75C787.199 61.778 788.151 60.809 789.545 60.809C790.956 60.809 791.908 61.795 791.908 63.75C791.908 65.773 790.922 66.793 789.545 66.793ZM796.868 58.31C797.548 58.31 797.922 57.902 797.922 57.29C797.922 56.661 797.548 56.253 796.868 56.253C796.205 56.253 795.814 56.661 795.814 57.29C795.814 57.902 796.205 58.31 796.868 58.31ZM797.633 68V59.602H796.069V68H797.633ZM803.464 66.81C802.75 66.81 802.393 66.589 802.393 65.773V60.911H804.739V59.602H802.393V57.273H801.339C801.203 58.922 800.693 59.602 799.418 59.959V60.911H800.829V66.113C800.829 67.677 801.696 68.17 803.039 68.17C803.634 68.17 804.212 68.085 804.654 67.966L804.858 66.589C804.501 66.691 804.008 66.81 803.464 66.81ZM807.609 58.31C808.289 58.31 808.663 57.902 808.663 57.29C808.663 56.661 808.289 56.253 807.609 56.253C806.946 56.253 806.555 56.661 806.555 57.29C806.555 57.902 806.946 58.31 807.609 58.31ZM808.374 68V59.602H806.81V68H808.374ZM814.783 68.17C817.078 68.17 818.897 66.657 818.897 63.801C818.897 60.928 817.078 59.415 814.783 59.415C812.471 59.415 810.635 60.928 810.635 63.801C810.635 66.657 812.471 68.17 814.783 68.17ZM814.783 66.793C813.287 66.793 812.284 65.705 812.284 63.801C812.284 61.88 813.287 60.809 814.783 60.809C816.279 60.809 817.265 61.88 817.265 63.801C817.265 65.705 816.279 66.793 814.783 66.793ZM822.599 68V62.883C822.599 61.591 823.279 60.809 824.673 60.809C825.948 60.809 826.577 61.574 826.577 62.883V68H828.141V62.781C828.141 60.486 827.087 59.415 825.234 59.415C823.823 59.415 822.888 60.163 822.565 61.727H822.514V59.602H821.035V68H822.599ZM833.951 59.415C831.962 59.415 830.653 60.435 830.347 61.999L831.826 62.492C831.996 61.353 832.846 60.792 833.866 60.792C835.073 60.792 835.838 61.404 835.872 62.798L833.458 63.155C831.724 63.393 830.075 63.954 830.075 65.807C830.075 67.388 831.197 68.17 832.761 68.17C834.257 68.17 835.515 67.286 835.923 65.484H835.957V68H837.436V62.951C837.436 60.605 836.076 59.415 833.951 59.415ZM833.118 66.827C832.285 66.827 831.69 66.487 831.69 65.671C831.69 64.702 832.591 64.464 833.696 64.294L835.889 63.971V63.988C835.889 65.246 834.818 66.827 833.118 66.827ZM841.442 68V56.44H839.878V68H841.442ZM775.365 89.17C777.524 89.17 778.901 88.184 778.901 86.365C778.901 84.648 777.473 84.308 776.062 84.07L774.838 83.883C774.022 83.747 773.461 83.543 773.461 82.829C773.461 82.064 774.141 81.673 775.076 81.673C776.164 81.673 776.895 82.183 777.031 83.288L778.578 82.948C778.374 81.282 776.912 80.432 775.144 80.432C773.257 80.432 771.863 81.367 771.863 82.948C771.863 84.461 773.087 84.937 774.243 85.141L775.586 85.345C776.657 85.515 777.303 85.736 777.303 86.552C777.303 87.402 776.623 87.912 775.314 87.912C774.141 87.912 773.342 87.334 773.206 86.042L771.591 86.382C771.727 88.235 773.223 89.17 775.365 89.17ZM782.349 89V83.883C782.349 82.591 782.995 81.809 784.338 81.809C785.664 81.809 786.327 82.574 786.327 83.883V88.983H787.891V83.781C787.891 81.486 786.837 80.415 784.984 80.415C783.573 80.415 782.655 81.163 782.315 82.71H782.281V77.406H780.785V89H782.349ZM791.066 79.31C791.746 79.31 792.12 78.902 792.12 78.29C792.12 77.661 791.746 77.253 791.066 77.253C790.403 77.253 790.012 77.661 790.012 78.29C790.012 78.902 790.403 79.31 791.066 79.31ZM791.831 89V80.602H790.267V89H791.831ZM795.978 92.162V86.484H795.995C796.369 88.558 797.44 89.17 798.919 89.17C800.857 89.17 802.37 87.759 802.37 84.852C802.37 81.928 800.789 80.449 798.817 80.449C797.304 80.449 796.437 81.299 795.995 82.846H795.961V80.602H794.414V92.162H795.978ZM798.375 87.793C796.964 87.793 796.012 86.824 796.012 84.852C796.012 82.829 796.998 81.809 798.375 81.809C799.735 81.809 800.721 82.812 800.721 84.852C800.721 86.824 799.786 87.793 798.375 87.793ZM805.989 92.162V86.484H806.006C806.38 88.558 807.451 89.17 808.93 89.17C810.868 89.17 812.381 87.759 812.381 84.852C812.381 81.928 810.8 80.449 808.828 80.449C807.315 80.449 806.448 81.299 806.006 82.846H805.972V80.602H804.425V92.162H805.989ZM808.386 87.793C806.975 87.793 806.023 86.824 806.023 84.852C806.023 82.829 807.009 81.809 808.386 81.809C809.746 81.809 810.732 82.812 810.732 84.852C810.732 86.824 809.797 87.793 808.386 87.793ZM815.42 79.31C816.1 79.31 816.474 78.902 816.474 78.29C816.474 77.661 816.1 77.253 815.42 77.253C814.757 77.253 814.366 77.661 814.366 78.29C814.366 78.902 814.757 79.31 815.42 79.31ZM816.185 89V80.602H814.621V89H816.185ZM820.333 89V83.883C820.333 82.591 821.013 81.809 822.407 81.809C823.682 81.809 824.311 82.574 824.311 83.883V89H825.875V83.781C825.875 81.486 824.821 80.415 822.968 80.415C821.557 80.415 820.622 81.163 820.299 82.727H820.248V80.602H818.769V89H820.333ZM832.858 87.232C832.059 87.232 830.835 87.317 830.291 87.317C829.696 87.3 829.492 87.113 829.492 86.773C829.492 86.433 829.713 86.127 830.376 86.042C830.682 86.093 831.022 86.127 831.362 86.127C833.249 86.127 834.643 85.107 834.643 83.424C834.643 82.523 834.133 81.673 832.399 81.299L832.416 81.265C834.031 81.265 834.626 81.486 835.051 81.979H835.442V80.602H831.889C828.999 80.602 827.911 81.911 827.911 83.356C827.911 84.784 828.778 85.634 830.019 85.957C828.727 86.025 828.064 86.569 828.064 87.334C828.064 87.929 828.387 88.303 828.965 88.507C829.135 88.558 829.322 88.592 829.526 88.626C827.996 88.813 827.333 89.391 827.333 90.326C827.333 91.669 828.727 92.315 831.328 92.315C833.946 92.315 835.833 91.346 835.833 89.408C835.833 87.912 834.847 87.249 832.858 87.232ZM829.526 83.373C829.526 82.404 830.138 81.843 831.311 81.843C832.484 81.843 833.062 82.404 833.062 83.373C833.062 84.342 832.484 84.903 831.311 84.903C830.138 84.903 829.526 84.342 829.526 83.373ZM831.396 90.989C829.849 90.989 828.914 90.598 828.914 89.731C828.914 89.17 829.356 88.796 830.121 88.66H830.189C830.92 88.677 831.872 88.609 832.603 88.626C833.759 88.626 834.218 88.966 834.218 89.612C834.218 90.53 833.045 90.989 831.396 90.989ZM782.143 110.17C784.251 110.17 785.662 109.082 785.951 107.025L784.455 106.753C784.115 108.164 783.35 108.793 782.211 108.793C780.817 108.793 779.712 107.96 779.712 105.835C779.712 103.812 780.749 102.809 782.211 102.809C783.401 102.809 784.183 103.37 784.387 104.73L785.917 104.407C785.611 102.401 784.183 101.432 782.262 101.432C779.882 101.432 778.063 102.962 778.063 105.818C778.063 108.725 779.831 110.17 782.143 110.17ZM789.413 110V104.883C789.413 103.591 790.059 102.809 791.402 102.809C792.728 102.809 793.391 103.574 793.391 104.883V109.983H794.955V104.781C794.955 102.486 793.901 101.415 792.048 101.415C790.637 101.415 789.719 102.163 789.379 103.71H789.345V98.406H787.849V110H789.413ZM800.765 101.415C798.776 101.415 797.467 102.435 797.161 103.999L798.64 104.492C798.81 103.353 799.66 102.792 800.68 102.792C801.887 102.792 802.652 103.404 802.686 104.798L800.272 105.155C798.538 105.393 796.889 105.954 796.889 107.807C796.889 109.388 798.011 110.17 799.575 110.17C801.071 110.17 802.329 109.286 802.737 107.484H802.771V110H804.25V104.951C804.25 102.605 802.89 101.415 800.765 101.415ZM799.932 108.827C799.099 108.827 798.504 108.487 798.504 107.671C798.504 106.702 799.405 106.464 800.51 106.294L802.703 105.971V105.988C802.703 107.246 801.632 108.827 799.932 108.827ZM808.255 110V105.546C808.255 103.914 809.122 102.996 810.669 102.996C810.975 102.996 811.383 103.03 811.621 103.081L811.536 101.534C811.281 101.466 810.941 101.432 810.652 101.432C809.428 101.432 808.646 101.976 808.204 104.033H808.153V101.602H806.691V110H808.255ZM817.643 108.232C816.844 108.232 815.62 108.317 815.076 108.317C814.481 108.3 814.277 108.113 814.277 107.773C814.277 107.433 814.498 107.127 815.161 107.042C815.467 107.093 815.807 107.127 816.147 107.127C818.034 107.127 819.428 106.107 819.428 104.424C819.428 103.523 818.918 102.673 817.184 102.299L817.201 102.265C818.816 102.265 819.411 102.486 819.836 102.979H820.227V101.602H816.674C813.784 101.602 812.696 102.911 812.696 104.356C812.696 105.784 813.563 106.634 814.804 106.957C813.512 107.025 812.849 107.569 812.849 108.334C812.849 108.929 813.172 109.303 813.75 109.507C813.92 109.558 814.107 109.592 814.311 109.626C812.781 109.813 812.118 110.391 812.118 111.326C812.118 112.669 813.512 113.315 816.113 113.315C818.731 113.315 820.618 112.346 820.618 110.408C820.618 108.912 819.632 108.249 817.643 108.232ZM814.311 104.373C814.311 103.404 814.923 102.843 816.096 102.843C817.269 102.843 817.847 103.404 817.847 104.373C817.847 105.342 817.269 105.903 816.096 105.903C814.923 105.903 814.311 105.342 814.311 104.373ZM816.181 111.989C814.634 111.989 813.699 111.598 813.699 110.731C813.699 110.17 814.141 109.796 814.906 109.66H814.974C815.705 109.677 816.657 109.609 817.388 109.626C818.544 109.626 819.003 109.966 819.003 110.612C819.003 111.53 817.83 111.989 816.181 111.989ZM829.027 105.495C829.027 102.877 827.684 101.415 825.372 101.415C822.822 101.415 821.343 103.268 821.343 105.971C821.343 108.606 822.737 110.17 825.287 110.17C827.361 110.17 828.653 109.15 828.976 107.535L827.531 107.178C827.31 108.334 826.494 108.861 825.321 108.861C823.774 108.861 822.992 107.909 822.975 105.903H829.01C829.01 105.818 829.027 105.767 829.027 105.495ZM825.304 102.69C826.596 102.69 827.327 103.506 827.361 104.815H823.06C823.298 103.421 824.08 102.69 825.304 102.69Z" fill="black"/>
<rect x="572" y="33" width="111" height="101" fill="#FFE0EF"/>
<path d="M598.75 68L594.857 56.44H592.579L588.686 68H590.522L591.372 65.246H596.013L596.88 68H598.75ZM593.701 57.817L595.571 63.835H591.814L593.701 57.817ZM603.009 68.17C604.539 68.17 605.406 67.303 605.848 65.569H605.882V68H607.429V56.44H605.882V61.863H605.848C605.474 60.044 604.369 59.449 602.89 59.449C600.969 59.449 599.473 60.86 599.473 63.75C599.473 66.674 601.054 68.17 603.009 68.17ZM603.468 66.793C602.108 66.793 601.122 65.79 601.122 63.75C601.122 61.778 602.074 60.809 603.468 60.809C604.879 60.809 605.831 61.795 605.831 63.75C605.831 65.773 604.845 66.793 603.468 66.793ZM613.086 68.17C614.616 68.17 615.483 67.303 615.925 65.569H615.959V68H617.506V56.44H615.959V61.863H615.925C615.551 60.044 614.446 59.449 612.967 59.449C611.046 59.449 609.55 60.86 609.55 63.75C609.55 66.674 611.131 68.17 613.086 68.17ZM613.545 66.793C612.185 66.793 611.199 65.79 611.199 63.75C611.199 61.778 612.151 60.809 613.545 60.809C614.956 60.809 615.908 61.795 615.908 63.75C615.908 65.773 614.922 66.793 613.545 66.793ZM620.868 58.31C621.548 58.31 621.922 57.902 621.922 57.29C621.922 56.661 621.548 56.253 620.868 56.253C620.205 56.253 619.814 56.661 619.814 57.29C619.814 57.902 620.205 58.31 620.868 58.31ZM621.633 68V59.602H620.069V68H621.633ZM627.464 66.81C626.75 66.81 626.393 66.589 626.393 65.773V60.911H628.739V59.602H626.393V57.273H625.339C625.203 58.922 624.693 59.602 623.418 59.959V60.911H624.829V66.113C624.829 67.677 625.696 68.17 627.039 68.17C627.634 68.17 628.212 68.085 628.654 67.966L628.858 66.589C628.501 66.691 628.008 66.81 627.464 66.81ZM631.609 58.31C632.289 58.31 632.663 57.902 632.663 57.29C632.663 56.661 632.289 56.253 631.609 56.253C630.946 56.253 630.555 56.661 630.555 57.29C630.555 57.902 630.946 58.31 631.609 58.31ZM632.374 68V59.602H630.81V68H632.374ZM638.783 68.17C641.078 68.17 642.897 66.657 642.897 63.801C642.897 60.928 641.078 59.415 638.783 59.415C636.471 59.415 634.635 60.928 634.635 63.801C634.635 66.657 636.471 68.17 638.783 68.17ZM638.783 66.793C637.287 66.793 636.284 65.705 636.284 63.801C636.284 61.88 637.287 60.809 638.783 60.809C640.279 60.809 641.265 61.88 641.265 63.801C641.265 65.705 640.279 66.793 638.783 66.793ZM646.599 68V62.883C646.599 61.591 647.279 60.809 648.673 60.809C649.948 60.809 650.577 61.574 650.577 62.883V68H652.141V62.781C652.141 60.486 651.087 59.415 649.234 59.415C647.823 59.415 646.888 60.163 646.565 61.727H646.514V59.602H645.035V68H646.599ZM657.951 59.415C655.962 59.415 654.653 60.435 654.347 61.999L655.826 62.492C655.996 61.353 656.846 60.792 657.866 60.792C659.073 60.792 659.838 61.404 659.872 62.798L657.458 63.155C655.724 63.393 654.075 63.954 654.075 65.807C654.075 67.388 655.197 68.17 656.761 68.17C658.257 68.17 659.515 67.286 659.923 65.484H659.957V68H661.436V62.951C661.436 60.605 660.076 59.415 657.951 59.415ZM657.118 66.827C656.285 66.827 655.69 66.487 655.69 65.671C655.69 64.702 656.591 64.464 657.696 64.294L659.889 63.971V63.988C659.889 65.246 658.818 66.827 657.118 66.827ZM665.442 68V56.44H663.878V68H665.442ZM592.023 79.31C592.703 79.31 593.077 78.902 593.077 78.29C593.077 77.661 592.703 77.253 592.023 77.253C591.36 77.253 590.969 77.661 590.969 78.29C590.969 78.902 591.36 79.31 592.023 79.31ZM592.788 89V80.602H591.224V89H592.788ZM596.935 89V83.883C596.935 82.591 597.615 81.809 599.009 81.809C600.284 81.809 600.913 82.574 600.913 83.883V89H602.477V83.781C602.477 81.486 601.423 80.415 599.57 80.415C598.159 80.415 597.224 81.163 596.901 82.727H596.85V80.602H595.371V89H596.935ZM607.948 89.17C610.107 89.17 611.484 88.184 611.484 86.365C611.484 84.648 610.056 84.308 608.645 84.07L607.421 83.883C606.605 83.747 606.044 83.543 606.044 82.829C606.044 82.064 606.724 81.673 607.659 81.673C608.747 81.673 609.478 82.183 609.614 83.288L611.161 82.948C610.957 81.282 609.495 80.432 607.727 80.432C605.84 80.432 604.446 81.367 604.446 82.948C604.446 84.461 605.67 84.937 606.826 85.141L608.169 85.345C609.24 85.515 609.886 85.736 609.886 86.552C609.886 87.402 609.206 87.912 607.897 87.912C606.724 87.912 605.925 87.334 605.789 86.042L604.174 86.382C604.31 88.235 605.806 89.17 607.948 89.17ZM618.74 80.602V85.719C618.74 87.011 618.043 87.793 616.649 87.793C615.374 87.793 614.745 87.028 614.745 85.719V80.602H613.181V85.821C613.181 88.116 614.235 89.204 616.088 89.204C617.516 89.204 618.434 88.439 618.774 86.892H618.808V89H620.287V80.602H618.74ZM624.295 89V84.546C624.295 82.914 625.162 81.996 626.709 81.996C627.015 81.996 627.423 82.03 627.661 82.081L627.576 80.534C627.321 80.466 626.981 80.432 626.692 80.432C625.468 80.432 624.686 80.976 624.244 83.033H624.193V80.602H622.731V89H624.295ZM632.377 80.415C630.388 80.415 629.079 81.435 628.773 82.999L630.252 83.492C630.422 82.353 631.272 81.792 632.292 81.792C633.499 81.792 634.264 82.404 634.298 83.798L631.884 84.155C630.15 84.393 628.501 84.954 628.501 86.807C628.501 88.388 629.623 89.17 631.187 89.17C632.683 89.17 633.941 88.286 634.349 86.484H634.383V89H635.862V83.951C635.862 81.605 634.502 80.415 632.377 80.415ZM631.544 87.827C630.711 87.827 630.116 87.487 630.116 86.671C630.116 85.702 631.017 85.464 632.122 85.294L634.315 84.971V84.988C634.315 86.246 633.244 87.827 631.544 87.827ZM639.867 89V83.883C639.867 82.591 640.547 81.809 641.941 81.809C643.216 81.809 643.845 82.574 643.845 83.883V89H645.409V83.781C645.409 81.486 644.355 80.415 642.502 80.415C641.091 80.415 640.156 81.163 639.833 82.727H639.782V80.602H638.303V89H639.867ZM651.423 89.17C653.531 89.17 654.942 88.082 655.231 86.025L653.735 85.753C653.395 87.164 652.63 87.793 651.491 87.793C650.097 87.793 648.992 86.96 648.992 84.835C648.992 82.812 650.029 81.809 651.491 81.809C652.681 81.809 653.463 82.37 653.667 83.73L655.197 83.407C654.891 81.401 653.463 80.432 651.542 80.432C649.162 80.432 647.343 81.962 647.343 84.818C647.343 87.725 649.111 89.17 651.423 89.17ZM664.308 84.495C664.308 81.877 662.965 80.415 660.653 80.415C658.103 80.415 656.624 82.268 656.624 84.971C656.624 87.606 658.018 89.17 660.568 89.17C662.642 89.17 663.934 88.15 664.257 86.535L662.812 86.178C662.591 87.334 661.775 87.861 660.602 87.861C659.055 87.861 658.273 86.909 658.256 84.903H664.291C664.291 84.818 664.308 84.767 664.308 84.495ZM660.585 81.69C661.877 81.69 662.608 82.506 662.642 83.815H658.341C658.579 82.421 659.361 81.69 660.585 81.69ZM606.143 110.17C608.251 110.17 609.662 109.082 609.951 107.025L608.455 106.753C608.115 108.164 607.35 108.793 606.211 108.793C604.817 108.793 603.712 107.96 603.712 105.835C603.712 103.812 604.749 102.809 606.211 102.809C607.401 102.809 608.183 103.37 608.387 104.73L609.917 104.407C609.611 102.401 608.183 101.432 606.262 101.432C603.882 101.432 602.063 102.962 602.063 105.818C602.063 108.725 603.831 110.17 606.143 110.17ZM613.413 110V104.883C613.413 103.591 614.059 102.809 615.402 102.809C616.728 102.809 617.391 103.574 617.391 104.883V109.983H618.955V104.781C618.955 102.486 617.901 101.415 616.048 101.415C614.637 101.415 613.719 102.163 613.379 103.71H613.345V98.406H611.849V110H613.413ZM624.765 101.415C622.776 101.415 621.467 102.435 621.161 103.999L622.64 104.492C622.81 103.353 623.66 102.792 624.68 102.792C625.887 102.792 626.652 103.404 626.686 104.798L624.272 105.155C622.538 105.393 620.889 105.954 620.889 107.807C620.889 109.388 622.011 110.17 623.575 110.17C625.071 110.17 626.329 109.286 626.737 107.484H626.771V110H628.25V104.951C628.25 102.605 626.89 101.415 624.765 101.415ZM623.932 108.827C623.099 108.827 622.504 108.487 622.504 107.671C622.504 106.702 623.405 106.464 624.51 106.294L626.703 105.971V105.988C626.703 107.246 625.632 108.827 623.932 108.827ZM632.255 110V105.546C632.255 103.914 633.122 102.996 634.669 102.996C634.975 102.996 635.383 103.03 635.621 103.081L635.536 101.534C635.281 101.466 634.941 101.432 634.652 101.432C633.428 101.432 632.646 101.976 632.204 104.033H632.153V101.602H630.691V110H632.255ZM641.643 108.232C640.844 108.232 639.62 108.317 639.076 108.317C638.481 108.3 638.277 108.113 638.277 107.773C638.277 107.433 638.498 107.127 639.161 107.042C639.467 107.093 639.807 107.127 640.147 107.127C642.034 107.127 643.428 106.107 643.428 104.424C643.428 103.523 642.918 102.673 641.184 102.299L641.201 102.265C642.816 102.265 643.411 102.486 643.836 102.979H644.227V101.602H640.674C637.784 101.602 636.696 102.911 636.696 104.356C636.696 105.784 637.563 106.634 638.804 106.957C637.512 107.025 636.849 107.569 636.849 108.334C636.849 108.929 637.172 109.303 637.75 109.507C637.92 109.558 638.107 109.592 638.311 109.626C636.781 109.813 636.118 110.391 636.118 111.326C636.118 112.669 637.512 113.315 640.113 113.315C642.731 113.315 644.618 112.346 644.618 110.408C644.618 108.912 643.632 108.249 641.643 108.232ZM638.311 104.373C638.311 103.404 638.923 102.843 640.096 102.843C641.269 102.843 641.847 103.404 641.847 104.373C641.847 105.342 641.269 105.903 640.096 105.903C638.923 105.903 638.311 105.342 638.311 104.373ZM640.181 111.989C638.634 111.989 637.699 111.598 637.699 110.731C637.699 110.17 638.141 109.796 638.906 109.66H638.974C639.705 109.677 640.657 109.609 641.388 109.626C642.544 109.626 643.003 109.966 643.003 110.612C643.003 111.53 641.83 111.989 640.181 111.989ZM653.027 105.495C653.027 102.877 651.684 101.415 649.372 101.415C646.822 101.415 645.343 103.268 645.343 105.971C645.343 108.606 646.737 110.17 649.287 110.17C651.361 110.17 652.653 109.15 652.976 107.535L651.531 107.178C651.31 108.334 650.494 108.861 649.321 108.861C647.774 108.861 646.992 107.909 646.975 105.903H653.01C653.01 105.818 653.027 105.767 653.027 105.495ZM649.304 102.69C650.596 102.69 651.327 103.506 651.361 104.815H647.06C647.298 103.421 648.08 102.69 649.304 102.69Z" fill="black"/>
<path d="M195.781 83.1016H179.492V79.957H195.781V83.1016ZM195.781 91.207H179.492V88.082H195.781V91.207Z" fill="black"/>
<path d="M365.238 82.7461H373.168V86.1641H365.238V95.1484H361.605V86.1641H353.676V82.7461H361.605V74.4453H365.238V82.7461Z" fill="black"/>
<path d="M546.238 82.7461H554.168V86.1641H546.238V95.1484H542.605V86.1641H534.676V82.7461H542.605V74.4453H546.238V82.7461Z" fill="black"/>
<path d="M717.238 82.7461H725.168V86.1641H717.238V95.1484H713.605V86.1641H705.676V82.7461H713.605V74.4453H717.238V82.7461Z" fill="black"/>
</svg>
