<svg width="584" height="162" viewBox="0 0 584 162" fill="none" xmlns="http://www.w3.org/2000/svg">
<rect width="584" height="162" fill="white"/>
<rect x="24" y="31" width="111" height="101" fill="#FFE0EF"/>
<path d="M46.4348 75.22C49.3948 75.22 51.5348 73.7 51.5348 71.02C51.5348 68.38 49.6548 67.54 46.6148 67.04C44.4148 66.68 43.5748 66.2 43.5748 64.82C43.5748 63.58 44.6148 62.92 46.1548 62.92C47.8748 62.92 48.9548 63.54 49.2748 65.58L51.0548 65.06C50.7348 62.36 48.8748 61.2 46.2348 61.2C43.4148 61.2 41.5948 62.7 41.5948 64.98C41.5948 67.38 43.1548 68.26 46.0748 68.72C48.2548 69.1 49.4748 69.48 49.4748 71.12C49.4748 72.52 48.2948 73.48 46.4748 73.48C44.6148 73.48 43.2348 72.86 42.8948 70.4L40.9748 70.88C41.2548 73.92 43.2948 75.22 46.4348 75.22ZM55.6609 75V68.98C55.6609 67.46 56.4209 66.54 58.0009 66.54C59.5609 66.54 60.3409 67.44 60.3409 68.98V74.98H62.1809V68.86C62.1809 66.16 60.9409 64.9 58.7609 64.9C57.1009 64.9 56.0209 65.78 55.6209 67.6H55.5809V61.36H53.8209V75H55.6609ZM65.9165 63.6C66.7165 63.6 67.1565 63.12 67.1565 62.4C67.1565 61.66 66.7165 61.18 65.9165 61.18C65.1365 61.18 64.6765 61.66 64.6765 62.4C64.6765 63.12 65.1365 63.6 65.9165 63.6ZM66.8165 75V65.12H64.9765V75H66.8165ZM71.696 78.72V72.04H71.716C72.156 74.48 73.416 75.2 75.156 75.2C77.436 75.2 79.216 73.54 79.216 70.12C79.216 66.68 77.356 64.94 75.036 64.94C73.256 64.94 72.236 65.94 71.716 67.76H71.676V65.12H69.856V78.72H71.696ZM74.516 73.58C72.856 73.58 71.736 72.44 71.736 70.12C71.736 67.74 72.896 66.54 74.516 66.54C76.116 66.54 77.276 67.72 77.276 70.12C77.276 72.44 76.176 73.58 74.516 73.58ZM83.4734 78.72V72.04H83.4934C83.9334 74.48 85.1934 75.2 86.9334 75.2C89.2134 75.2 90.9934 73.54 90.9934 70.12C90.9934 66.68 89.1334 64.94 86.8134 64.94C85.0334 64.94 84.0134 65.94 83.4934 67.76H83.4534V65.12H81.6334V78.72H83.4734ZM86.2934 73.58C84.6334 73.58 83.5134 72.44 83.5134 70.12C83.5134 67.74 84.6734 66.54 86.2934 66.54C87.8934 66.54 89.0534 67.72 89.0534 70.12C89.0534 72.44 87.9534 73.58 86.2934 73.58ZM94.5688 63.6C95.3688 63.6 95.8088 63.12 95.8088 62.4C95.8088 61.66 95.3688 61.18 94.5688 61.18C93.7888 61.18 93.3288 61.66 93.3288 62.4C93.3288 63.12 93.7888 63.6 94.5688 63.6ZM95.4688 75V65.12H93.6288V75H95.4688ZM100.348 75V68.98C100.348 67.46 101.148 66.54 102.788 66.54C104.288 66.54 105.028 67.44 105.028 68.98V75H106.868V68.86C106.868 66.16 105.628 64.9 103.448 64.9C101.788 64.9 100.688 65.78 100.308 67.62H100.248V65.12H98.5084V75H100.348ZM115.084 72.92C114.144 72.92 112.704 73.02 112.064 73.02C111.364 73 111.124 72.78 111.124 72.38C111.124 71.98 111.384 71.62 112.164 71.52C112.524 71.58 112.924 71.62 113.324 71.62C115.544 71.62 117.184 70.42 117.184 68.44C117.184 67.38 116.584 66.38 114.544 65.94L114.564 65.9C116.464 65.9 117.164 66.16 117.664 66.74H118.124V65.12H113.944C110.544 65.12 109.264 66.66 109.264 68.36C109.264 70.04 110.284 71.04 111.744 71.42C110.224 71.5 109.444 72.14 109.444 73.04C109.444 73.74 109.824 74.18 110.504 74.42C110.704 74.48 110.924 74.52 111.164 74.56C109.364 74.78 108.584 75.46 108.584 76.56C108.584 78.14 110.224 78.9 113.284 78.9C116.364 78.9 118.584 77.76 118.584 75.48C118.584 73.72 117.424 72.94 115.084 72.92ZM111.164 68.38C111.164 67.24 111.884 66.58 113.264 66.58C114.644 66.58 115.324 67.24 115.324 68.38C115.324 69.52 114.644 70.18 113.264 70.18C111.884 70.18 111.164 69.52 111.164 68.38ZM113.364 77.34C111.544 77.34 110.444 76.88 110.444 75.86C110.444 75.2 110.964 74.76 111.864 74.6H111.944C112.804 74.62 113.924 74.54 114.784 74.56C116.144 74.56 116.684 74.96 116.684 75.72C116.684 76.8 115.304 77.34 113.364 77.34ZM64.5671 100V94.76C64.5671 92.84 65.5871 91.76 67.4071 91.76C67.7671 91.76 68.2471 91.8 68.5271 91.86L68.4271 90.04C68.1271 89.96 67.7271 89.92 67.3871 89.92C65.9471 89.92 65.0271 90.56 64.5071 92.98H64.4471V90.12H62.7271V100H64.5671ZM74.0751 89.9C71.7351 89.9 70.1951 91.1 69.8351 92.94L71.5751 93.52C71.7751 92.18 72.7751 91.52 73.9751 91.52C75.3951 91.52 76.2951 92.24 76.3351 93.88L73.4951 94.3C71.4551 94.58 69.5151 95.24 69.5151 97.42C69.5151 99.28 70.8351 100.2 72.6751 100.2C74.4351 100.2 75.9151 99.16 76.3951 97.04H76.4351V100H78.1751V94.06C78.1751 91.3 76.5751 89.9 74.0751 89.9ZM73.0951 98.62C72.1151 98.62 71.4151 98.22 71.4151 97.26C71.4151 96.12 72.4751 95.84 73.7751 95.64L76.3551 95.26V95.28C76.3551 96.76 75.0951 98.62 73.0951 98.62ZM84.594 98.6C83.754 98.6 83.334 98.34 83.334 97.38V91.66H86.094V90.12H83.334V87.38H82.094C81.934 89.32 81.334 90.12 79.834 90.54V91.66H81.494V97.78C81.494 99.62 82.514 100.2 84.094 100.2C84.794 100.2 85.474 100.1 85.994 99.96L86.234 98.34C85.814 98.46 85.234 98.6 84.594 98.6ZM96.7582 94.7C96.7582 91.62 95.1782 89.9 92.4582 89.9C89.4582 89.9 87.7182 92.08 87.7182 95.26C87.7182 98.36 89.3582 100.2 92.3582 100.2C94.7982 100.2 96.3182 99 96.6982 97.1L94.9982 96.68C94.7382 98.04 93.7782 98.66 92.3982 98.66C90.5782 98.66 89.6582 97.54 89.6382 95.18H96.7382C96.7382 95.08 96.7582 95.02 96.7582 94.7ZM92.3782 91.4C93.8982 91.4 94.7582 92.36 94.7982 93.9H89.7382C90.0182 92.26 90.9382 91.4 92.3782 91.4Z" fill="black"/>
<rect x="449" y="31" width="111" height="101" fill="#FFE0EF"/>
<path d="M470.676 63L466.096 49.4H463.416L458.836 63H460.996L461.996 59.76H467.456L468.476 63H470.676ZM464.736 51.02L466.936 58.1H462.516L464.736 51.02ZM475.687 63.2C477.487 63.2 478.507 62.18 479.027 60.14H479.067V63H480.887V49.4H479.067V55.78H479.027C478.587 53.64 477.287 52.94 475.547 52.94C473.287 52.94 471.527 54.6 471.527 58C471.527 61.44 473.387 63.2 475.687 63.2ZM476.227 61.58C474.627 61.58 473.467 60.4 473.467 58C473.467 55.68 474.587 54.54 476.227 54.54C477.887 54.54 479.007 55.7 479.007 58C479.007 60.38 477.847 61.58 476.227 61.58ZM487.542 63.2C489.342 63.2 490.362 62.18 490.882 60.14H490.922V63H492.742V49.4H490.922V55.78H490.882C490.442 53.64 489.142 52.94 487.402 52.94C485.142 52.94 483.382 54.6 483.382 58C483.382 61.44 485.242 63.2 487.542 63.2ZM488.082 61.58C486.482 61.58 485.322 60.4 485.322 58C485.322 55.68 486.442 54.54 488.082 54.54C489.742 54.54 490.862 55.7 490.862 58C490.862 60.38 489.702 61.58 488.082 61.58ZM496.698 51.6C497.498 51.6 497.938 51.12 497.938 50.4C497.938 49.66 497.498 49.18 496.698 49.18C495.918 49.18 495.458 49.66 495.458 50.4C495.458 51.12 495.918 51.6 496.698 51.6ZM497.598 63V53.12H495.758V63H497.598ZM504.457 61.6C503.617 61.6 503.197 61.34 503.197 60.38V54.66H505.957V53.12H503.197V50.38H501.957C501.797 52.32 501.197 53.12 499.697 53.54V54.66H501.357V60.78C501.357 62.62 502.377 63.2 503.957 63.2C504.657 63.2 505.337 63.1 505.857 62.96L506.097 61.34C505.677 61.46 505.097 61.6 504.457 61.6ZM509.334 51.6C510.134 51.6 510.574 51.12 510.574 50.4C510.574 49.66 510.134 49.18 509.334 49.18C508.554 49.18 508.094 49.66 508.094 50.4C508.094 51.12 508.554 51.6 509.334 51.6ZM510.234 63V53.12H508.394V63H510.234ZM517.774 63.2C520.474 63.2 522.614 61.42 522.614 58.06C522.614 54.68 520.474 52.9 517.774 52.9C515.054 52.9 512.894 54.68 512.894 58.06C512.894 61.42 515.054 63.2 517.774 63.2ZM517.774 61.58C516.014 61.58 514.834 60.3 514.834 58.06C514.834 55.8 516.014 54.54 517.774 54.54C519.534 54.54 520.694 55.8 520.694 58.06C520.694 60.3 519.534 61.58 517.774 61.58ZM526.969 63V56.98C526.969 55.46 527.769 54.54 529.409 54.54C530.909 54.54 531.649 55.44 531.649 56.98V63H533.489V56.86C533.489 54.16 532.249 52.9 530.069 52.9C528.409 52.9 527.309 53.78 526.929 55.62H526.869V53.12H525.129V63H526.969ZM540.325 52.9C537.985 52.9 536.445 54.1 536.085 55.94L537.825 56.52C538.025 55.18 539.025 54.52 540.225 54.52C541.645 54.52 542.545 55.24 542.585 56.88L539.745 57.3C537.705 57.58 535.765 58.24 535.765 60.42C535.765 62.28 537.085 63.2 538.925 63.2C540.685 63.2 542.165 62.16 542.645 60.04H542.685V63H544.425V57.06C544.425 54.3 542.825 52.9 540.325 52.9ZM539.345 61.62C538.365 61.62 537.665 61.22 537.665 60.26C537.665 59.12 538.725 58.84 540.025 58.64L542.605 58.26V58.28C542.605 59.76 541.345 61.62 539.345 61.62ZM549.137 63V49.4H547.297V63H549.137ZM471.4 88.2C473.94 88.2 475.56 87.04 475.56 84.9C475.56 82.88 473.88 82.48 472.22 82.2L470.78 81.98C469.82 81.82 469.16 81.58 469.16 80.74C469.16 79.84 469.96 79.38 471.06 79.38C472.34 79.38 473.2 79.98 473.36 81.28L475.18 80.88C474.94 78.92 473.22 77.92 471.14 77.92C468.92 77.92 467.28 79.02 467.28 80.88C467.28 82.66 468.72 83.22 470.08 83.46L471.66 83.7C472.92 83.9 473.68 84.16 473.68 85.12C473.68 86.12 472.88 86.72 471.34 86.72C469.96 86.72 469.02 86.04 468.86 84.52L466.96 84.92C467.12 87.1 468.88 88.2 471.4 88.2ZM479.616 88V81.98C479.616 80.46 480.376 79.54 481.956 79.54C483.516 79.54 484.296 80.44 484.296 81.98V87.98H486.136V81.86C486.136 79.16 484.896 77.9 482.716 77.9C481.056 77.9 479.976 78.78 479.576 80.6H479.536V74.36H477.776V88H479.616ZM489.872 76.6C490.672 76.6 491.112 76.12 491.112 75.4C491.112 74.66 490.672 74.18 489.872 74.18C489.092 74.18 488.632 74.66 488.632 75.4C488.632 76.12 489.092 76.6 489.872 76.6ZM490.772 88V78.12H488.932V88H490.772ZM495.651 91.72V85.04H495.671C496.111 87.48 497.371 88.2 499.111 88.2C501.391 88.2 503.171 86.54 503.171 83.12C503.171 79.68 501.311 77.94 498.991 77.94C497.211 77.94 496.191 78.94 495.671 80.76H495.631V78.12H493.811V91.72H495.651ZM498.471 86.58C496.811 86.58 495.691 85.44 495.691 83.12C495.691 80.74 496.851 79.54 498.471 79.54C500.071 79.54 501.231 80.72 501.231 83.12C501.231 85.44 500.131 86.58 498.471 86.58ZM507.428 91.72V85.04H507.448C507.888 87.48 509.148 88.2 510.888 88.2C513.168 88.2 514.948 86.54 514.948 83.12C514.948 79.68 513.088 77.94 510.768 77.94C508.988 77.94 507.968 78.94 507.448 80.76H507.408V78.12H505.588V91.72H507.428ZM510.248 86.58C508.588 86.58 507.468 85.44 507.468 83.12C507.468 80.74 508.628 79.54 510.248 79.54C511.848 79.54 513.008 80.72 513.008 83.12C513.008 85.44 511.908 86.58 510.248 86.58ZM518.524 76.6C519.324 76.6 519.764 76.12 519.764 75.4C519.764 74.66 519.324 74.18 518.524 74.18C517.744 74.18 517.284 74.66 517.284 75.4C517.284 76.12 517.744 76.6 518.524 76.6ZM519.424 88V78.12H517.584V88H519.424ZM524.303 88V81.98C524.303 80.46 525.103 79.54 526.743 79.54C528.243 79.54 528.983 80.44 528.983 81.98V88H530.823V81.86C530.823 79.16 529.583 77.9 527.403 77.9C525.743 77.9 524.643 78.78 524.263 80.62H524.203V78.12H522.463V88H524.303ZM539.039 85.92C538.099 85.92 536.659 86.02 536.019 86.02C535.319 86 535.079 85.78 535.079 85.38C535.079 84.98 535.339 84.62 536.119 84.52C536.479 84.58 536.879 84.62 537.279 84.62C539.499 84.62 541.139 83.42 541.139 81.44C541.139 80.38 540.539 79.38 538.499 78.94L538.519 78.9C540.419 78.9 541.119 79.16 541.619 79.74H542.079V78.12H537.899C534.499 78.12 533.219 79.66 533.219 81.36C533.219 83.04 534.239 84.04 535.699 84.42C534.179 84.5 533.399 85.14 533.399 86.04C533.399 86.74 533.779 87.18 534.459 87.42C534.659 87.48 534.879 87.52 535.119 87.56C533.319 87.78 532.539 88.46 532.539 89.56C532.539 91.14 534.179 91.9 537.239 91.9C540.319 91.9 542.539 90.76 542.539 88.48C542.539 86.72 541.379 85.94 539.039 85.92ZM535.119 81.38C535.119 80.24 535.839 79.58 537.219 79.58C538.599 79.58 539.279 80.24 539.279 81.38C539.279 82.52 538.599 83.18 537.219 83.18C535.839 83.18 535.119 82.52 535.119 81.38ZM537.319 90.34C535.499 90.34 534.399 89.88 534.399 88.86C534.399 88.2 534.919 87.76 535.819 87.6H535.899C536.759 87.62 537.879 87.54 538.739 87.56C540.099 87.56 540.639 87.96 540.639 88.72C540.639 89.8 539.259 90.34 537.319 90.34ZM485.204 113.2C487.684 113.2 489.344 111.92 489.684 109.5L487.924 109.18C487.524 110.84 486.624 111.58 485.284 111.58C483.644 111.58 482.344 110.6 482.344 108.1C482.344 105.72 483.564 104.54 485.284 104.54C486.684 104.54 487.604 105.2 487.844 106.8L489.644 106.42C489.284 104.06 487.604 102.92 485.344 102.92C482.544 102.92 480.404 104.72 480.404 108.08C480.404 111.5 482.484 113.2 485.204 113.2ZM496.202 113.2C498.902 113.2 501.042 111.42 501.042 108.06C501.042 104.68 498.902 102.9 496.202 102.9C493.482 102.9 491.322 104.68 491.322 108.06C491.322 111.42 493.482 113.2 496.202 113.2ZM496.202 111.58C494.442 111.58 493.262 110.3 493.262 108.06C493.262 105.8 494.442 104.54 496.202 104.54C497.962 104.54 499.122 105.8 499.122 108.06C499.122 110.3 497.962 111.58 496.202 111.58ZM507.142 113.2C509.682 113.2 511.302 112.04 511.302 109.9C511.302 107.88 509.622 107.48 507.962 107.2L506.522 106.98C505.562 106.82 504.902 106.58 504.902 105.74C504.902 104.84 505.702 104.38 506.802 104.38C508.082 104.38 508.942 104.98 509.102 106.28L510.922 105.88C510.682 103.92 508.962 102.92 506.882 102.92C504.662 102.92 503.022 104.02 503.022 105.88C503.022 107.66 504.462 108.22 505.822 108.46L507.402 108.7C508.662 108.9 509.422 109.16 509.422 110.12C509.422 111.12 508.622 111.72 507.082 111.72C505.702 111.72 504.762 111.04 504.602 109.52L502.702 109.92C502.862 112.1 504.622 113.2 507.142 113.2ZM517.24 111.6C516.4 111.6 515.98 111.34 515.98 110.38V104.66H518.74V103.12H515.98V100.38H514.74C514.58 102.32 513.98 103.12 512.48 103.54V104.66H514.14V110.78C514.14 112.62 515.16 113.2 516.74 113.2C517.44 113.2 518.12 113.1 518.64 112.96L518.88 111.34C518.46 111.46 517.88 111.6 517.24 111.6ZM524.72 113.2C527.26 113.2 528.88 112.04 528.88 109.9C528.88 107.88 527.2 107.48 525.54 107.2L524.1 106.98C523.14 106.82 522.48 106.58 522.48 105.74C522.48 104.84 523.28 104.38 524.38 104.38C525.66 104.38 526.52 104.98 526.68 106.28L528.5 105.88C528.26 103.92 526.54 102.92 524.46 102.92C522.24 102.92 520.6 104.02 520.6 105.88C520.6 107.66 522.04 108.22 523.4 108.46L524.98 108.7C526.24 108.9 527 109.16 527 110.12C527 111.12 526.2 111.72 524.66 111.72C523.28 111.72 522.34 111.04 522.18 109.52L520.28 109.92C520.44 112.1 522.2 113.2 524.72 113.2Z" fill="black"/>
<rect x="237" y="31" width="110" height="101" fill="#FFE0EF"/>
<path d="M264.525 74.4H255.985V88H257.965V82.12H263.705V80.5H257.965V76.06H264.525V74.4ZM268.464 88V74.4H266.624V88H268.464ZM275.53 77.9C273.19 77.9 271.65 79.1 271.29 80.94L273.03 81.52C273.23 80.18 274.23 79.52 275.43 79.52C276.85 79.52 277.75 80.24 277.79 81.88L274.95 82.3C272.91 82.58 270.97 83.24 270.97 85.42C270.97 87.28 272.29 88.2 274.13 88.2C275.89 88.2 277.37 87.16 277.85 85.04H277.89V88H279.63V82.06C279.63 79.3 278.03 77.9 275.53 77.9ZM274.55 86.62C273.57 86.62 272.87 86.22 272.87 85.26C272.87 84.12 273.93 83.84 275.23 83.64L277.81 83.26V83.28C277.81 84.76 276.55 86.62 274.55 86.62ZM286.049 86.6C285.209 86.6 284.789 86.34 284.789 85.38V79.66H287.549V78.12H284.789V75.38H283.549C283.389 77.32 282.789 78.12 281.289 78.54V79.66H282.949V85.78C282.949 87.62 283.969 88.2 285.549 88.2C286.249 88.2 286.929 88.1 287.449 87.96L287.689 86.34C287.269 86.46 286.689 86.6 286.049 86.6ZM296.55 88V82.76C296.55 80.84 297.57 79.76 299.39 79.76C299.75 79.76 300.23 79.8 300.51 79.86L300.41 78.04C300.11 77.96 299.71 77.92 299.37 77.92C297.93 77.92 297.01 78.56 296.49 80.98H296.43V78.12H294.71V88H296.55ZM306.058 77.9C303.718 77.9 302.178 79.1 301.818 80.94L303.558 81.52C303.758 80.18 304.758 79.52 305.958 79.52C307.378 79.52 308.278 80.24 308.318 81.88L305.478 82.3C303.438 82.58 301.498 83.24 301.498 85.42C301.498 87.28 302.818 88.2 304.658 88.2C306.418 88.2 307.898 87.16 308.378 85.04H308.418V88H310.158V82.06C310.158 79.3 308.558 77.9 306.058 77.9ZM305.078 86.62C304.098 86.62 303.398 86.22 303.398 85.26C303.398 84.12 304.458 83.84 305.758 83.64L308.338 83.26V83.28C308.338 84.76 307.078 86.62 305.078 86.62ZM316.576 86.6C315.736 86.6 315.316 86.34 315.316 85.38V79.66H318.076V78.12H315.316V75.38H314.076C313.916 77.32 313.316 78.12 311.816 78.54V79.66H313.476V85.78C313.476 87.62 314.496 88.2 316.076 88.2C316.776 88.2 317.456 88.1 317.976 87.96L318.216 86.34C317.796 86.46 317.216 86.6 316.576 86.6ZM328.741 82.7C328.741 79.62 327.161 77.9 324.441 77.9C321.441 77.9 319.701 80.08 319.701 83.26C319.701 86.36 321.341 88.2 324.341 88.2C326.781 88.2 328.301 87 328.681 85.1L326.981 84.68C326.721 86.04 325.761 86.66 324.381 86.66C322.561 86.66 321.641 85.54 321.621 83.18H328.721C328.721 83.08 328.741 83.02 328.741 82.7ZM324.361 79.4C325.881 79.4 326.741 80.36 326.781 81.9H321.721C322.001 80.26 322.921 79.4 324.361 79.4Z" fill="black"/>
<path d="M194.781 82.1016H178.492V78.957H194.781V82.1016ZM194.781 90.207H178.492V87.082H194.781V90.207Z" fill="black"/>
<path d="M406.738 82.7461H414.668V86.1641H406.738V95.1484H403.105V86.1641H395.176V82.7461H403.105V74.4453H406.738V82.7461Z" fill="black"/>
</svg>
