<svg width="800" height="527" viewBox="0 0 800 527" fill="none" xmlns="http://www.w3.org/2000/svg">
<rect width="800" height="527" fill="white"/>
<rect x="61" y="51" width="129" height="103" fill="#FFE0EF"/>
<path d="M73.5136 82.4H63.0336V84.06H67.2936V96H69.2736V84.06H73.5136V82.4ZM78.0416 96.2C80.7416 96.2 82.8816 94.42 82.8816 91.06C82.8816 87.68 80.7416 85.9 78.0416 85.9C75.3216 85.9 73.1616 87.68 73.1616 91.06C73.1616 94.42 75.3216 96.2 78.0416 96.2ZM78.0416 94.58C76.2816 94.58 75.1016 93.3 75.1016 91.06C75.1016 88.8 76.2816 87.54 78.0416 87.54C79.8016 87.54 80.9616 88.8 80.9616 91.06C80.9616 93.3 79.8016 94.58 78.0416 94.58ZM88.8264 94.6C87.9864 94.6 87.5664 94.34 87.5664 93.38V87.66H90.3264V86.12H87.5664V83.38H86.3264C86.1664 85.32 85.5664 86.12 84.0664 86.54V87.66H85.7264V93.78C85.7264 95.62 86.7464 96.2 88.3264 96.2C89.0264 96.2 89.7064 96.1 90.2264 95.96L90.4664 94.34C90.0464 94.46 89.4664 94.6 88.8264 94.6ZM96.8036 85.9C94.4636 85.9 92.9236 87.1 92.5636 88.94L94.3036 89.52C94.5036 88.18 95.5036 87.52 96.7036 87.52C98.1236 87.52 99.0236 88.24 99.0636 89.88L96.2236 90.3C94.1836 90.58 92.2436 91.24 92.2436 93.42C92.2436 95.28 93.5636 96.2 95.4036 96.2C97.1636 96.2 98.6436 95.16 99.1236 93.04H99.1636V96H100.904V90.06C100.904 87.3 99.3036 85.9 96.8036 85.9ZM95.8236 94.62C94.8436 94.62 94.1436 94.22 94.1436 93.26C94.1436 92.12 95.2036 91.84 96.5036 91.64L99.0836 91.26V91.28C99.0836 92.76 97.8236 94.62 95.8236 94.62ZM105.616 96V82.4H103.776V96H105.616ZM117.146 96.2C119.686 96.2 121.306 95.04 121.306 92.9C121.306 90.88 119.626 90.48 117.966 90.2L116.526 89.98C115.566 89.82 114.906 89.58 114.906 88.74C114.906 87.84 115.706 87.38 116.806 87.38C118.086 87.38 118.946 87.98 119.106 89.28L120.926 88.88C120.686 86.92 118.966 85.92 116.886 85.92C114.666 85.92 113.026 87.02 113.026 88.88C113.026 90.66 114.466 91.22 115.826 91.46L117.406 91.7C118.666 91.9 119.426 92.16 119.426 93.12C119.426 94.12 118.626 94.72 117.086 94.72C115.706 94.72 114.766 94.04 114.606 92.52L112.706 92.92C112.866 95.1 114.626 96.2 117.146 96.2ZM125.362 96V89.98C125.362 88.46 126.122 87.54 127.702 87.54C129.262 87.54 130.042 88.44 130.042 89.98V95.98H131.882V89.86C131.882 87.16 130.642 85.9 128.462 85.9C126.802 85.9 125.722 86.78 125.322 88.6H125.282V82.36H123.522V96H125.362ZM135.618 84.6C136.418 84.6 136.858 84.12 136.858 83.4C136.858 82.66 136.418 82.18 135.618 82.18C134.838 82.18 134.378 82.66 134.378 83.4C134.378 84.12 134.838 84.6 135.618 84.6ZM136.518 96V86.12H134.678V96H136.518ZM141.397 99.72V93.04H141.417C141.857 95.48 143.117 96.2 144.857 96.2C147.137 96.2 148.917 94.54 148.917 91.12C148.917 87.68 147.057 85.94 144.737 85.94C142.957 85.94 141.937 86.94 141.417 88.76H141.377V86.12H139.557V99.72H141.397ZM144.217 94.58C142.557 94.58 141.437 93.44 141.437 91.12C141.437 88.74 142.597 87.54 144.217 87.54C145.817 87.54 146.977 88.72 146.977 91.12C146.977 93.44 145.877 94.58 144.217 94.58ZM153.175 99.72V93.04H153.195C153.635 95.48 154.895 96.2 156.635 96.2C158.915 96.2 160.695 94.54 160.695 91.12C160.695 87.68 158.835 85.94 156.515 85.94C154.735 85.94 153.715 86.94 153.195 88.76H153.155V86.12H151.335V99.72H153.175ZM155.995 94.58C154.335 94.58 153.215 93.44 153.215 91.12C153.215 88.74 154.375 87.54 155.995 87.54C157.595 87.54 158.755 88.72 158.755 91.12C158.755 93.44 157.655 94.58 155.995 94.58ZM164.27 84.6C165.07 84.6 165.51 84.12 165.51 83.4C165.51 82.66 165.07 82.18 164.27 82.18C163.49 82.18 163.03 82.66 163.03 83.4C163.03 84.12 163.49 84.6 164.27 84.6ZM165.17 96V86.12H163.33V96H165.17ZM170.05 96V89.98C170.05 88.46 170.85 87.54 172.49 87.54C173.99 87.54 174.73 88.44 174.73 89.98V96H176.57V89.86C176.57 87.16 175.33 85.9 173.15 85.9C171.49 85.9 170.39 86.78 170.01 88.62H169.95V86.12H168.21V96H170.05ZM184.785 93.92C183.845 93.92 182.405 94.02 181.765 94.02C181.065 94 180.825 93.78 180.825 93.38C180.825 92.98 181.085 92.62 181.865 92.52C182.225 92.58 182.625 92.62 183.025 92.62C185.245 92.62 186.885 91.42 186.885 89.44C186.885 88.38 186.285 87.38 184.245 86.94L184.265 86.9C186.165 86.9 186.865 87.16 187.365 87.74H187.825V86.12H183.645C180.245 86.12 178.965 87.66 178.965 89.36C178.965 91.04 179.985 92.04 181.445 92.42C179.925 92.5 179.145 93.14 179.145 94.04C179.145 94.74 179.525 95.18 180.205 95.42C180.405 95.48 180.625 95.52 180.865 95.56C179.065 95.78 178.285 96.46 178.285 97.56C178.285 99.14 179.925 99.9 182.985 99.9C186.065 99.9 188.285 98.76 188.285 96.48C188.285 94.72 187.125 93.94 184.785 93.92ZM180.865 89.38C180.865 88.24 181.585 87.58 182.965 87.58C184.345 87.58 185.025 88.24 185.025 89.38C185.025 90.52 184.345 91.18 182.965 91.18C181.585 91.18 180.865 90.52 180.865 89.38ZM183.065 98.34C181.245 98.34 180.145 97.88 180.145 96.86C180.145 96.2 180.665 95.76 181.565 95.6H181.645C182.505 95.62 183.625 95.54 184.485 95.56C185.845 95.56 186.385 95.96 186.385 96.72C186.385 97.8 185.005 98.34 183.065 98.34ZM111.233 121.2C113.713 121.2 115.373 119.92 115.713 117.5L113.953 117.18C113.553 118.84 112.653 119.58 111.313 119.58C109.673 119.58 108.373 118.6 108.373 116.1C108.373 113.72 109.593 112.54 111.313 112.54C112.713 112.54 113.633 113.2 113.873 114.8L115.673 114.42C115.313 112.06 113.633 110.92 111.373 110.92C108.573 110.92 106.433 112.72 106.433 116.08C106.433 119.5 108.513 121.2 111.233 121.2ZM122.231 121.2C124.931 121.2 127.071 119.42 127.071 116.06C127.071 112.68 124.931 110.9 122.231 110.9C119.511 110.9 117.351 112.68 117.351 116.06C117.351 119.42 119.511 121.2 122.231 121.2ZM122.231 119.58C120.471 119.58 119.291 118.3 119.291 116.06C119.291 113.8 120.471 112.54 122.231 112.54C123.991 112.54 125.151 113.8 125.151 116.06C125.151 118.3 123.991 119.58 122.231 119.58ZM133.171 121.2C135.711 121.2 137.331 120.04 137.331 117.9C137.331 115.88 135.651 115.48 133.991 115.2L132.551 114.98C131.591 114.82 130.931 114.58 130.931 113.74C130.931 112.84 131.731 112.38 132.831 112.38C134.111 112.38 134.971 112.98 135.131 114.28L136.951 113.88C136.711 111.92 134.991 110.92 132.911 110.92C130.691 110.92 129.051 112.02 129.051 113.88C129.051 115.66 130.491 116.22 131.851 116.46L133.431 116.7C134.691 116.9 135.451 117.16 135.451 118.12C135.451 119.12 134.651 119.72 133.111 119.72C131.731 119.72 130.791 119.04 130.631 117.52L128.731 117.92C128.891 120.1 130.651 121.2 133.171 121.2ZM143.27 119.6C142.43 119.6 142.01 119.34 142.01 118.38V112.66H144.77V111.12H142.01V108.38H140.77C140.61 110.32 140.01 111.12 138.51 111.54V112.66H140.17V118.78C140.17 120.62 141.19 121.2 142.77 121.2C143.47 121.2 144.15 121.1 144.67 120.96L144.91 119.34C144.49 119.46 143.91 119.6 143.27 119.6Z" fill="black"/>
<rect x="273" y="51" width="128" height="103" fill="#FFE0EF"/>
<rect x="273" y="51" width="128" height="103" fill="#FFE0EF"/>
<rect x="201" y="229" width="114" height="92" fill="#E7E9EE"/>
<path d="M231.898 269.08H223.785V282H225.666V276.414H231.119V274.875H225.666V270.657H231.898V269.08ZM235.64 282V269.08H233.892V282H235.64ZM242.354 272.405C240.131 272.405 238.668 273.545 238.326 275.293L239.979 275.844C240.169 274.571 241.119 273.944 242.259 273.944C243.608 273.944 244.463 274.628 244.501 276.186L241.803 276.585C239.865 276.851 238.022 277.478 238.022 279.549C238.022 281.316 239.276 282.19 241.024 282.19C242.696 282.19 244.102 281.202 244.558 279.188H244.596V282H246.249V276.357C246.249 273.735 244.729 272.405 242.354 272.405ZM241.423 280.689C240.492 280.689 239.827 280.309 239.827 279.397C239.827 278.314 240.834 278.048 242.069 277.858L244.52 277.497V277.516C244.52 278.922 243.323 280.689 241.423 280.689ZM252.347 280.67C251.549 280.67 251.15 280.423 251.15 279.511V274.077H253.772V272.614H251.15V270.011H249.972C249.82 271.854 249.25 272.614 247.825 273.013V274.077H249.402V279.891C249.402 281.639 250.371 282.19 251.872 282.19C252.537 282.19 253.183 282.095 253.677 281.962L253.905 280.423C253.506 280.537 252.955 280.67 252.347 280.67ZM262.322 282V277.022C262.322 275.198 263.291 274.172 265.02 274.172C265.362 274.172 265.818 274.21 266.084 274.267L265.989 272.538C265.704 272.462 265.324 272.424 265.001 272.424C263.633 272.424 262.759 273.032 262.265 275.331H262.208V272.614H260.574V282H262.322ZM271.355 272.405C269.132 272.405 267.669 273.545 267.327 275.293L268.98 275.844C269.17 274.571 270.12 273.944 271.26 273.944C272.609 273.944 273.464 274.628 273.502 276.186L270.804 276.585C268.866 276.851 267.023 277.478 267.023 279.549C267.023 281.316 268.277 282.19 270.025 282.19C271.697 282.19 273.103 281.202 273.559 279.188H273.597V282H275.25V276.357C275.25 273.735 273.73 272.405 271.355 272.405ZM270.424 280.689C269.493 280.689 268.828 280.309 268.828 279.397C268.828 278.314 269.835 278.048 271.07 277.858L273.521 277.497V277.516C273.521 278.922 272.324 280.689 270.424 280.689ZM281.348 280.67C280.55 280.67 280.151 280.423 280.151 279.511V274.077H282.773V272.614H280.151V270.011H278.973C278.821 271.854 278.251 272.614 276.826 273.013V274.077H278.403V279.891C278.403 281.639 279.372 282.19 280.873 282.19C281.538 282.19 282.184 282.095 282.678 281.962L282.906 280.423C282.507 280.537 281.956 280.67 281.348 280.67ZM292.904 276.965C292.904 274.039 291.403 272.405 288.819 272.405C285.969 272.405 284.316 274.476 284.316 277.497C284.316 280.442 285.874 282.19 288.724 282.19C291.042 282.19 292.486 281.05 292.847 279.245L291.232 278.846C290.985 280.138 290.073 280.727 288.762 280.727C287.033 280.727 286.159 279.663 286.14 277.421H292.885C292.885 277.326 292.904 277.269 292.904 276.965ZM288.743 273.83C290.187 273.83 291.004 274.742 291.042 276.205H286.235C286.501 274.647 287.375 273.83 288.743 273.83Z" fill="black"/>
<rect x="361" y="229" width="114" height="92" fill="#E7E9EE"/>
<path d="M385.867 258L381.516 245.08H378.97L374.619 258H376.671L377.621 254.922H382.808L383.777 258H385.867ZM380.224 246.619L382.314 253.345H378.115L380.224 246.619ZM390.627 258.19C392.337 258.19 393.306 257.221 393.8 255.283H393.838V258H395.567V245.08H393.838V251.141H393.8C393.382 249.108 392.147 248.443 390.494 248.443C388.347 248.443 386.675 250.02 386.675 253.25C386.675 256.518 388.442 258.19 390.627 258.19ZM391.14 256.651C389.62 256.651 388.518 255.53 388.518 253.25C388.518 251.046 389.582 249.963 391.14 249.963C392.717 249.963 393.781 251.065 393.781 253.25C393.781 255.511 392.679 256.651 391.14 256.651ZM401.89 258.19C403.6 258.19 404.569 257.221 405.063 255.283H405.101V258H406.83V245.08H405.101V251.141H405.063C404.645 249.108 403.41 248.443 401.757 248.443C399.61 248.443 397.938 250.02 397.938 253.25C397.938 256.518 399.705 258.19 401.89 258.19ZM402.403 256.651C400.883 256.651 399.781 255.53 399.781 253.25C399.781 251.046 400.845 249.963 402.403 249.963C403.98 249.963 405.044 251.065 405.044 253.25C405.044 255.511 403.942 256.651 402.403 256.651ZM410.588 247.17C411.348 247.17 411.766 246.714 411.766 246.03C411.766 245.327 411.348 244.871 410.588 244.871C409.847 244.871 409.41 245.327 409.41 246.03C409.41 246.714 409.847 247.17 410.588 247.17ZM411.443 258V248.614H409.695V258H411.443ZM417.959 256.67C417.161 256.67 416.762 256.423 416.762 255.511V250.077H419.384V248.614H416.762V246.011H415.584C415.432 247.854 414.862 248.614 413.437 249.013V250.077H415.014V255.891C415.014 257.639 415.983 258.19 417.484 258.19C418.149 258.19 418.795 258.095 419.289 257.962L419.517 256.423C419.118 256.537 418.567 256.67 417.959 256.67ZM422.593 247.17C423.353 247.17 423.771 246.714 423.771 246.03C423.771 245.327 423.353 244.871 422.593 244.871C421.852 244.871 421.415 245.327 421.415 246.03C421.415 246.714 421.852 247.17 422.593 247.17ZM423.448 258V248.614H421.7V258H423.448ZM430.61 258.19C433.175 258.19 435.208 256.499 435.208 253.307C435.208 250.096 433.175 248.405 430.61 248.405C428.026 248.405 425.974 250.096 425.974 253.307C425.974 256.499 428.026 258.19 430.61 258.19ZM430.61 256.651C428.938 256.651 427.817 255.435 427.817 253.307C427.817 251.16 428.938 249.963 430.61 249.963C432.282 249.963 433.384 251.16 433.384 253.307C433.384 255.435 432.282 256.651 430.61 256.651ZM439.346 258V252.281C439.346 250.837 440.106 249.963 441.664 249.963C443.089 249.963 443.792 250.818 443.792 252.281V258H445.54V252.167C445.54 249.602 444.362 248.405 442.291 248.405C440.714 248.405 439.669 249.241 439.308 250.989H439.251V248.614H437.598V258H439.346ZM452.034 248.405C449.811 248.405 448.348 249.545 448.006 251.293L449.659 251.844C449.849 250.571 450.799 249.944 451.939 249.944C453.288 249.944 454.143 250.628 454.181 252.186L451.483 252.585C449.545 252.851 447.702 253.478 447.702 255.549C447.702 257.316 448.956 258.19 450.704 258.19C452.376 258.19 453.782 257.202 454.238 255.188H454.276V258H455.929V252.357C455.929 249.735 454.409 248.405 452.034 248.405ZM451.103 256.689C450.172 256.689 449.507 256.309 449.507 255.397C449.507 254.314 450.514 254.048 451.749 253.858L454.2 253.497V253.516C454.2 254.922 453.003 256.689 451.103 256.689ZM460.406 258V245.08H458.658V258H460.406ZM386.555 281.19C388.968 281.19 390.507 280.088 390.507 278.055C390.507 276.136 388.911 275.756 387.334 275.49L385.966 275.281C385.054 275.129 384.427 274.901 384.427 274.103C384.427 273.248 385.187 272.811 386.232 272.811C387.448 272.811 388.265 273.381 388.417 274.616L390.146 274.236C389.918 272.374 388.284 271.424 386.308 271.424C384.199 271.424 382.641 272.469 382.641 274.236C382.641 275.927 384.009 276.459 385.301 276.687L386.802 276.915C387.999 277.105 388.721 277.352 388.721 278.264C388.721 279.214 387.961 279.784 386.498 279.784C385.187 279.784 384.294 279.138 384.142 277.694L382.337 278.074C382.489 280.145 384.161 281.19 386.555 281.19ZM394.36 281V275.281C394.36 273.837 395.082 272.963 396.583 272.963C398.065 272.963 398.806 273.818 398.806 275.281V280.981H400.554V275.167C400.554 272.602 399.376 271.405 397.305 271.405C395.728 271.405 394.702 272.241 394.322 273.97H394.284V268.042H392.612V281H394.36ZM404.103 270.17C404.863 270.17 405.281 269.714 405.281 269.03C405.281 268.327 404.863 267.871 404.103 267.871C403.362 267.871 402.925 268.327 402.925 269.03C402.925 269.714 403.362 270.17 404.103 270.17ZM404.958 281V271.614H403.21V281H404.958ZM409.594 284.534V278.188H409.613C410.031 280.506 411.228 281.19 412.881 281.19C415.047 281.19 416.738 279.613 416.738 276.364C416.738 273.096 414.971 271.443 412.767 271.443C411.076 271.443 410.107 272.393 409.613 274.122H409.575V271.614H407.846V284.534H409.594ZM412.273 279.651C410.696 279.651 409.632 278.568 409.632 276.364C409.632 274.103 410.734 272.963 412.273 272.963C413.793 272.963 414.895 274.084 414.895 276.364C414.895 278.568 413.85 279.651 412.273 279.651ZM420.782 284.534V278.188H420.801C421.219 280.506 422.416 281.19 424.069 281.19C426.235 281.19 427.926 279.613 427.926 276.364C427.926 273.096 426.159 271.443 423.955 271.443C422.264 271.443 421.295 272.393 420.801 274.122H420.763V271.614H419.034V284.534H420.782ZM423.461 279.651C421.884 279.651 420.82 278.568 420.82 276.364C420.82 274.103 421.922 272.963 423.461 272.963C424.981 272.963 426.083 274.084 426.083 276.364C426.083 278.568 425.038 279.651 423.461 279.651ZM431.323 270.17C432.083 270.17 432.501 269.714 432.501 269.03C432.501 268.327 432.083 267.871 431.323 267.871C430.582 267.871 430.145 268.327 430.145 269.03C430.145 269.714 430.582 270.17 431.323 270.17ZM432.178 281V271.614H430.43V281H432.178ZM436.813 281V275.281C436.813 273.837 437.573 272.963 439.131 272.963C440.556 272.963 441.259 273.818 441.259 275.281V281H443.007V275.167C443.007 272.602 441.829 271.405 439.758 271.405C438.181 271.405 437.136 272.241 436.775 273.989H436.718V271.614H435.065V281H436.813ZM450.812 279.024C449.919 279.024 448.551 279.119 447.943 279.119C447.278 279.1 447.05 278.891 447.05 278.511C447.05 278.131 447.297 277.789 448.038 277.694C448.38 277.751 448.76 277.789 449.14 277.789C451.249 277.789 452.807 276.649 452.807 274.768C452.807 273.761 452.237 272.811 450.299 272.393L450.318 272.355C452.123 272.355 452.788 272.602 453.263 273.153H453.7V271.614H449.729C446.499 271.614 445.283 273.077 445.283 274.692C445.283 276.288 446.252 277.238 447.639 277.599C446.195 277.675 445.454 278.283 445.454 279.138C445.454 279.803 445.815 280.221 446.461 280.449C446.651 280.506 446.86 280.544 447.088 280.582C445.378 280.791 444.637 281.437 444.637 282.482C444.637 283.983 446.195 284.705 449.102 284.705C452.028 284.705 454.137 283.622 454.137 281.456C454.137 279.784 453.035 279.043 450.812 279.024ZM447.088 274.711C447.088 273.628 447.772 273.001 449.083 273.001C450.394 273.001 451.04 273.628 451.04 274.711C451.04 275.794 450.394 276.421 449.083 276.421C447.772 276.421 447.088 275.794 447.088 274.711ZM449.178 283.223C447.449 283.223 446.404 282.786 446.404 281.817C446.404 281.19 446.898 280.772 447.753 280.62H447.829C448.646 280.639 449.71 280.563 450.527 280.582C451.819 280.582 452.332 280.962 452.332 281.684C452.332 282.71 451.021 283.223 449.178 283.223ZM399.669 304.19C402.025 304.19 403.602 302.974 403.925 300.675L402.253 300.371C401.873 301.948 401.018 302.651 399.745 302.651C398.187 302.651 396.952 301.72 396.952 299.345C396.952 297.084 398.111 295.963 399.745 295.963C401.075 295.963 401.949 296.59 402.177 298.11L403.887 297.749C403.545 295.507 401.949 294.424 399.802 294.424C397.142 294.424 395.109 296.134 395.109 299.326C395.109 302.575 397.085 304.19 399.669 304.19ZM410.117 304.19C412.682 304.19 414.715 302.499 414.715 299.307C414.715 296.096 412.682 294.405 410.117 294.405C407.533 294.405 405.481 296.096 405.481 299.307C405.481 302.499 407.533 304.19 410.117 304.19ZM410.117 302.651C408.445 302.651 407.324 301.435 407.324 299.307C407.324 297.16 408.445 295.963 410.117 295.963C411.789 295.963 412.891 297.16 412.891 299.307C412.891 301.435 411.789 302.651 410.117 302.651ZM420.51 304.19C422.923 304.19 424.462 303.088 424.462 301.055C424.462 299.136 422.866 298.756 421.289 298.49L419.921 298.281C419.009 298.129 418.382 297.901 418.382 297.103C418.382 296.248 419.142 295.811 420.187 295.811C421.403 295.811 422.22 296.381 422.372 297.616L424.101 297.236C423.873 295.374 422.239 294.424 420.263 294.424C418.154 294.424 416.596 295.469 416.596 297.236C416.596 298.927 417.964 299.459 419.256 299.687L420.757 299.915C421.954 300.105 422.676 300.352 422.676 301.264C422.676 302.214 421.916 302.784 420.453 302.784C419.142 302.784 418.249 302.138 418.097 300.694L416.292 301.074C416.444 303.145 418.116 304.19 420.51 304.19ZM430.103 302.67C429.305 302.67 428.906 302.423 428.906 301.511V296.077H431.528V294.614H428.906V292.011H427.728C427.576 293.854 427.006 294.614 425.581 295.013V296.077H427.158V301.891C427.158 303.639 428.127 304.19 429.628 304.19C430.293 304.19 430.939 304.095 431.433 303.962L431.661 302.423C431.262 302.537 430.711 302.67 430.103 302.67ZM437.209 304.19C439.622 304.19 441.161 303.088 441.161 301.055C441.161 299.136 439.565 298.756 437.988 298.49L436.62 298.281C435.708 298.129 435.081 297.901 435.081 297.103C435.081 296.248 435.841 295.811 436.886 295.811C438.102 295.811 438.919 296.381 439.071 297.616L440.8 297.236C440.572 295.374 438.938 294.424 436.962 294.424C434.853 294.424 433.295 295.469 433.295 297.236C433.295 298.927 434.663 299.459 435.955 299.687L437.456 299.915C438.653 300.105 439.375 300.352 439.375 301.264C439.375 302.214 438.615 302.784 437.152 302.784C435.841 302.784 434.948 302.138 434.796 300.694L432.991 301.074C433.143 303.145 434.815 304.19 437.209 304.19Z" fill="black"/>
<path d="M285.976 108.209C288.788 108.209 290.821 106.765 290.821 104.219C290.821 101.711 289.035 100.913 286.147 100.438C284.057 100.096 283.259 99.64 283.259 98.329C283.259 97.151 284.247 96.524 285.71 96.524C287.344 96.524 288.37 97.113 288.674 99.051L290.365 98.557C290.061 95.992 288.294 94.89 285.786 94.89C283.107 94.89 281.378 96.315 281.378 98.481C281.378 100.761 282.86 101.597 285.634 102.034C287.705 102.395 288.864 102.756 288.864 104.314C288.864 105.644 287.743 106.556 286.014 106.556C284.247 106.556 282.936 105.967 282.613 103.63L280.789 104.086C281.055 106.974 282.993 108.209 285.976 108.209ZM294.741 108V102.281C294.741 100.837 295.463 99.963 296.964 99.963C298.446 99.963 299.187 100.818 299.187 102.281V107.981H300.935V102.167C300.935 99.602 299.757 98.405 297.686 98.405C296.109 98.405 295.083 99.241 294.703 100.97H294.665V95.042H292.993V108H294.741ZM304.483 97.17C305.243 97.17 305.661 96.714 305.661 96.03C305.661 95.327 305.243 94.871 304.483 94.871C303.742 94.871 303.305 95.327 303.305 96.03C303.305 96.714 303.742 97.17 304.483 97.17ZM305.338 108V98.614H303.59V108H305.338ZM309.974 111.534V105.188H309.993C310.411 107.506 311.608 108.19 313.261 108.19C315.427 108.19 317.118 106.613 317.118 103.364C317.118 100.096 315.351 98.443 313.147 98.443C311.456 98.443 310.487 99.393 309.993 101.122H309.955V98.614H308.226V111.534H309.974ZM312.653 106.651C311.076 106.651 310.012 105.568 310.012 103.364C310.012 101.103 311.114 99.963 312.653 99.963C314.173 99.963 315.275 101.084 315.275 103.364C315.275 105.568 314.23 106.651 312.653 106.651ZM321.162 111.534V105.188H321.181C321.599 107.506 322.796 108.19 324.449 108.19C326.615 108.19 328.306 106.613 328.306 103.364C328.306 100.096 326.539 98.443 324.335 98.443C322.644 98.443 321.675 99.393 321.181 101.122H321.143V98.614H319.414V111.534H321.162ZM323.841 106.651C322.264 106.651 321.2 105.568 321.2 103.364C321.2 101.103 322.302 99.963 323.841 99.963C325.361 99.963 326.463 101.084 326.463 103.364C326.463 105.568 325.418 106.651 323.841 106.651ZM331.703 97.17C332.463 97.17 332.881 96.714 332.881 96.03C332.881 95.327 332.463 94.871 331.703 94.871C330.962 94.871 330.525 95.327 330.525 96.03C330.525 96.714 330.962 97.17 331.703 97.17ZM332.558 108V98.614H330.81V108H332.558ZM337.194 108V102.281C337.194 100.837 337.954 99.963 339.512 99.963C340.937 99.963 341.64 100.818 341.64 102.281V108H343.388V102.167C343.388 99.602 342.21 98.405 340.139 98.405C338.562 98.405 337.517 99.241 337.156 100.989H337.099V98.614H335.446V108H337.194ZM351.192 106.024C350.299 106.024 348.931 106.119 348.323 106.119C347.658 106.1 347.43 105.891 347.43 105.511C347.43 105.131 347.677 104.789 348.418 104.694C348.76 104.751 349.14 104.789 349.52 104.789C351.629 104.789 353.187 103.649 353.187 101.768C353.187 100.761 352.617 99.811 350.679 99.393L350.698 99.355C352.503 99.355 353.168 99.602 353.643 100.153H354.08V98.614H350.109C346.879 98.614 345.663 100.077 345.663 101.692C345.663 103.288 346.632 104.238 348.019 104.599C346.575 104.675 345.834 105.283 345.834 106.138C345.834 106.803 346.195 107.221 346.841 107.449C347.031 107.506 347.24 107.544 347.468 107.582C345.758 107.791 345.017 108.437 345.017 109.482C345.017 110.983 346.575 111.705 349.482 111.705C352.408 111.705 354.517 110.622 354.517 108.456C354.517 106.784 353.415 106.043 351.192 106.024ZM347.468 101.711C347.468 100.628 348.152 100.001 349.463 100.001C350.774 100.001 351.42 100.628 351.42 101.711C351.42 102.794 350.774 103.421 349.463 103.421C348.152 103.421 347.468 102.794 347.468 101.711ZM349.558 110.223C347.829 110.223 346.784 109.786 346.784 108.817C346.784 108.19 347.278 107.772 348.133 107.62H348.209C349.026 107.639 350.09 107.563 350.907 107.582C352.199 107.582 352.712 107.962 352.712 108.684C352.712 109.71 351.401 110.223 349.558 110.223ZM362.521 108V103.022C362.521 101.198 363.49 100.172 365.219 100.172C365.561 100.172 366.017 100.21 366.283 100.267L366.188 98.538C365.903 98.462 365.523 98.424 365.2 98.424C363.832 98.424 362.958 99.032 362.464 101.331H362.407V98.614H360.773V108H362.521ZM371.553 98.405C369.33 98.405 367.867 99.545 367.525 101.293L369.178 101.844C369.368 100.571 370.318 99.944 371.458 99.944C372.807 99.944 373.662 100.628 373.7 102.186L371.002 102.585C369.064 102.851 367.221 103.478 367.221 105.549C367.221 107.316 368.475 108.19 370.223 108.19C371.895 108.19 373.301 107.202 373.757 105.188H373.795V108H375.448V102.357C375.448 99.735 373.928 98.405 371.553 98.405ZM370.622 106.689C369.691 106.689 369.026 106.309 369.026 105.397C369.026 104.314 370.033 104.048 371.268 103.858L373.719 103.497V103.516C373.719 104.922 372.522 106.689 370.622 106.689ZM381.546 106.67C380.748 106.67 380.349 106.423 380.349 105.511V100.077H382.971V98.614H380.349V96.011H379.171C379.019 97.854 378.449 98.614 377.024 99.013V100.077H378.601V105.891C378.601 107.639 379.57 108.19 381.071 108.19C381.736 108.19 382.382 108.095 382.876 107.962L383.104 106.423C382.705 106.537 382.154 106.67 381.546 106.67ZM393.102 102.965C393.102 100.039 391.601 98.405 389.017 98.405C386.167 98.405 384.514 100.476 384.514 103.497C384.514 106.442 386.072 108.19 388.922 108.19C391.24 108.19 392.684 107.05 393.045 105.245L391.43 104.846C391.183 106.138 390.271 106.727 388.96 106.727C387.231 106.727 386.357 105.663 386.338 103.421H393.083C393.083 103.326 393.102 103.269 393.102 102.965ZM388.941 99.83C390.385 99.83 391.202 100.742 391.24 102.205H386.433C386.699 100.647 387.573 99.83 388.941 99.83Z" fill="black"/>
<rect x="485" y="51" width="129" height="103" fill="#FFE0EF"/>
<path d="M498.214 84.76H496.432V97H503.974V95.416H498.214V84.76ZM509.301 97.18C511.731 97.18 513.657 95.578 513.657 92.554C513.657 89.512 511.731 87.91 509.301 87.91C506.853 87.91 504.909 89.512 504.909 92.554C504.909 95.578 506.853 97.18 509.301 97.18ZM509.301 95.722C507.717 95.722 506.655 94.57 506.655 92.554C506.655 90.52 507.717 89.386 509.301 89.386C510.885 89.386 511.929 90.52 511.929 92.554C511.929 94.57 510.885 95.722 509.301 95.722ZM519.665 87.91C517.559 87.91 516.173 88.99 515.849 90.646L517.415 91.168C517.595 89.962 518.495 89.368 519.575 89.368C520.853 89.368 521.663 90.016 521.699 91.492L519.143 91.87C517.307 92.122 515.561 92.716 515.561 94.678C515.561 96.352 516.749 97.18 518.405 97.18C519.989 97.18 521.321 96.244 521.753 94.336H521.789V97H523.355V91.654C523.355 89.17 521.915 87.91 519.665 87.91ZM518.783 95.758C517.901 95.758 517.271 95.398 517.271 94.534C517.271 93.508 518.225 93.256 519.395 93.076L521.717 92.734V92.752C521.717 94.084 520.583 95.758 518.783 95.758ZM529.343 97.18C530.963 97.18 531.881 96.262 532.349 94.426H532.385V97H534.023V84.76H532.385V90.502H532.349C531.953 88.576 530.783 87.946 529.217 87.946C527.183 87.946 525.599 89.44 525.599 92.5C525.599 95.596 527.273 97.18 529.343 97.18ZM529.829 95.722C528.389 95.722 527.345 94.66 527.345 92.5C527.345 90.412 528.353 89.386 529.829 89.386C531.323 89.386 532.331 90.43 532.331 92.5C532.331 94.642 531.287 95.722 529.829 95.722ZM537.582 86.74C538.302 86.74 538.698 86.308 538.698 85.66C538.698 84.994 538.302 84.562 537.582 84.562C536.88 84.562 536.466 84.994 536.466 85.66C536.466 86.308 536.88 86.74 537.582 86.74ZM538.392 97V88.108H536.736V97H538.392ZM542.784 97V91.582C542.784 90.214 543.504 89.386 544.98 89.386C546.33 89.386 546.996 90.196 546.996 91.582V97H548.652V91.474C548.652 89.044 547.536 87.91 545.574 87.91C544.08 87.91 543.09 88.702 542.748 90.358H542.694V88.108H541.128V97H542.784ZM556.046 95.128C555.2 95.128 553.904 95.218 553.328 95.218C552.698 95.2 552.482 95.002 552.482 94.642C552.482 94.282 552.716 93.958 553.418 93.868C553.742 93.922 554.102 93.958 554.462 93.958C556.46 93.958 557.936 92.878 557.936 91.096C557.936 90.142 557.396 89.242 555.56 88.846L555.578 88.81C557.288 88.81 557.918 89.044 558.368 89.566H558.782V88.108H555.02C551.96 88.108 550.808 89.494 550.808 91.024C550.808 92.536 551.726 93.436 553.04 93.778C551.672 93.85 550.97 94.426 550.97 95.236C550.97 95.866 551.312 96.262 551.924 96.478C552.104 96.532 552.302 96.568 552.518 96.604C550.898 96.802 550.196 97.414 550.196 98.404C550.196 99.826 551.672 100.51 554.426 100.51C557.198 100.51 559.196 99.484 559.196 97.432C559.196 95.848 558.152 95.146 556.046 95.128ZM552.518 91.042C552.518 90.016 553.166 89.422 554.408 89.422C555.65 89.422 556.262 90.016 556.262 91.042C556.262 92.068 555.65 92.662 554.408 92.662C553.166 92.662 552.518 92.068 552.518 91.042ZM554.498 99.106C552.86 99.106 551.87 98.692 551.87 97.774C551.87 97.18 552.338 96.784 553.148 96.64H553.22C553.994 96.658 555.002 96.586 555.776 96.604C557 96.604 557.486 96.964 557.486 97.648C557.486 98.62 556.244 99.106 554.498 99.106ZM568.524 97.18C570.144 97.18 571.062 96.262 571.53 94.426H571.566V97H573.204V84.76H571.566V90.502H571.53C571.134 88.576 569.964 87.946 568.398 87.946C566.364 87.946 564.78 89.44 564.78 92.5C564.78 95.596 566.454 97.18 568.524 97.18ZM569.01 95.722C567.57 95.722 566.526 94.66 566.526 92.5C566.526 90.412 567.534 89.386 569.01 89.386C570.504 89.386 571.512 90.43 571.512 92.5C571.512 94.642 570.468 95.722 569.01 95.722ZM579.842 97.18C582.272 97.18 584.198 95.578 584.198 92.554C584.198 89.512 582.272 87.91 579.842 87.91C577.394 87.91 575.45 89.512 575.45 92.554C575.45 95.578 577.394 97.18 579.842 97.18ZM579.842 95.722C578.258 95.722 577.196 94.57 577.196 92.554C577.196 90.52 578.258 89.386 579.842 89.386C581.426 89.386 582.47 90.52 582.47 92.554C582.47 94.57 581.426 95.722 579.842 95.722ZM590.229 97.18C592.461 97.18 593.955 96.028 594.261 93.85L592.677 93.562C592.317 95.056 591.507 95.722 590.301 95.722C588.825 95.722 587.655 94.84 587.655 92.59C587.655 90.448 588.753 89.386 590.301 89.386C591.561 89.386 592.389 89.98 592.605 91.42L594.225 91.078C593.901 88.954 592.389 87.928 590.355 87.928C587.835 87.928 585.909 89.548 585.909 92.572C585.909 95.65 587.781 97.18 590.229 97.18ZM603.921 88.198V88.108H601.671L597.927 91.672V84.76H596.271V97H597.927V93.634L598.827 92.824L601.923 97H603.939V96.928L599.997 91.762L603.921 88.198ZM540.367 109.406C540.367 108.2 540.907 107.876 541.825 107.876C542.275 107.876 542.617 107.948 542.851 108.038L542.725 106.742C542.329 106.616 541.789 106.58 541.447 106.58C539.899 106.58 538.711 107.48 538.711 109.334V110.108H536.821V111.494H538.711V119H540.367V111.494H542.743V110.108H540.367V109.406ZM551.893 114.23C551.893 111.458 550.471 109.91 548.023 109.91C545.323 109.91 543.757 111.872 543.757 114.734C543.757 117.524 545.233 119.18 547.933 119.18C550.129 119.18 551.497 118.1 551.839 116.39L550.309 116.012C550.075 117.236 549.211 117.794 547.969 117.794C546.331 117.794 545.503 116.786 545.485 114.662H551.875C551.875 114.572 551.893 114.518 551.893 114.23ZM547.951 111.26C549.319 111.26 550.093 112.124 550.129 113.51H545.575C545.827 112.034 546.655 111.26 547.951 111.26ZM561.842 114.23C561.842 111.458 560.42 109.91 557.972 109.91C555.272 109.91 553.706 111.872 553.706 114.734C553.706 117.524 555.182 119.18 557.882 119.18C560.078 119.18 561.446 118.1 561.788 116.39L560.258 116.012C560.024 117.236 559.16 117.794 557.918 117.794C556.28 117.794 555.452 116.786 555.434 114.662H561.824C561.824 114.572 561.842 114.518 561.842 114.23ZM557.9 111.26C559.268 111.26 560.042 112.124 560.078 113.51H555.524C555.776 112.034 556.604 111.26 557.9 111.26Z" fill="black"/>
<path d="M239.781 112.102H223.492V108.957H239.781V112.102ZM239.781 120.207H223.492V117.082H239.781V120.207Z" fill="black"/>
<path d="M446.238 106.746H454.168V110.164H446.238V119.148H442.605V110.164H434.676V106.746H442.605V98.4453H446.238V106.746Z" fill="black"/>
<path d="M338.238 272.746H346.168V276.164H338.238V285.148H334.605V276.164H326.676V272.746H334.605V264.445H338.238V272.746Z" fill="black"/>
<rect x="100" y="399" width="125" height="76" fill="#FFF3F6"/>
<rect x="100" y="399" width="125" height="76" fill="#FFF3F6"/>
<rect x="271" y="399" width="125" height="76" fill="#FFF3F6"/>
<path d="M117.554 418.074L114.728 407.76H112.856L110.228 418.254L108.032 407.76H106.07L108.968 420H111.308L113.774 410.37L116.348 420H118.67L121.55 407.76H119.66L117.554 418.074ZM130.572 415.23C130.572 412.458 129.15 410.91 126.702 410.91C124.002 410.91 122.436 412.872 122.436 415.734C122.436 418.524 123.912 420.18 126.612 420.18C128.808 420.18 130.176 419.1 130.518 417.39L128.988 417.012C128.754 418.236 127.89 418.794 126.648 418.794C125.01 418.794 124.182 417.786 124.164 415.662H130.554C130.554 415.572 130.572 415.518 130.572 415.23ZM126.63 412.26C127.998 412.26 128.772 413.124 128.808 414.51H124.254C124.506 413.034 125.334 412.26 126.63 412.26ZM133.7 409.74C134.42 409.74 134.816 409.308 134.816 408.66C134.816 407.994 134.42 407.562 133.7 407.562C132.998 407.562 132.584 407.994 132.584 408.66C132.584 409.308 132.998 409.74 133.7 409.74ZM134.51 420V411.108H132.854V420H134.51ZM142.249 418.128C141.403 418.128 140.107 418.218 139.531 418.218C138.901 418.2 138.685 418.002 138.685 417.642C138.685 417.282 138.919 416.958 139.621 416.868C139.945 416.922 140.305 416.958 140.665 416.958C142.663 416.958 144.139 415.878 144.139 414.096C144.139 413.142 143.599 412.242 141.763 411.846L141.781 411.81C143.491 411.81 144.121 412.044 144.571 412.566H144.985V411.108H141.223C138.163 411.108 137.011 412.494 137.011 414.024C137.011 415.536 137.929 416.436 139.243 416.778C137.875 416.85 137.173 417.426 137.173 418.236C137.173 418.866 137.515 419.262 138.127 419.478C138.307 419.532 138.505 419.568 138.721 419.604C137.101 419.802 136.399 420.414 136.399 421.404C136.399 422.826 137.875 423.51 140.629 423.51C143.401 423.51 145.399 422.484 145.399 420.432C145.399 418.848 144.355 418.146 142.249 418.128ZM138.721 414.042C138.721 413.016 139.369 412.422 140.611 412.422C141.853 412.422 142.465 413.016 142.465 414.042C142.465 415.068 141.853 415.662 140.611 415.662C139.369 415.662 138.721 415.068 138.721 414.042ZM140.701 422.106C139.063 422.106 138.073 421.692 138.073 420.774C138.073 420.18 138.541 419.784 139.351 419.64H139.423C140.197 419.658 141.205 419.586 141.979 419.604C143.203 419.604 143.689 419.964 143.689 420.648C143.689 421.62 142.447 422.106 140.701 422.106ZM148.604 420V414.582C148.604 413.214 149.288 412.386 150.71 412.386C152.114 412.386 152.816 413.196 152.816 414.582V419.982H154.472V414.474C154.472 412.044 153.356 410.91 151.394 410.91C149.9 410.91 148.928 411.702 148.568 413.34H148.532V407.724H146.948V420H148.604ZM160.3 418.74C159.544 418.74 159.166 418.506 159.166 417.642V412.494H161.65V411.108H159.166V408.642H158.05C157.906 410.388 157.366 411.108 156.016 411.486V412.494H157.51V418.002C157.51 419.658 158.428 420.18 159.85 420.18C160.48 420.18 161.092 420.09 161.56 419.964L161.776 418.506C161.398 418.614 160.876 418.74 160.3 418.74ZM167.804 415.968V414.6H163.178V415.968H167.804ZM174.479 420.18C176.585 420.18 178.277 418.596 178.277 415.5C178.277 412.44 176.675 410.946 174.623 410.946C173.057 410.946 171.995 411.882 171.527 413.52H171.509V407.76H169.853V420H171.491V417.408H171.527C172.031 419.262 173.057 420.18 174.479 420.18ZM174.047 418.722C172.589 418.722 171.545 417.642 171.545 415.5C171.545 413.43 172.553 412.386 174.047 412.386C175.541 412.386 176.531 413.412 176.531 415.5C176.531 417.66 175.487 418.722 174.047 418.722ZM184.267 410.91C182.161 410.91 180.775 411.99 180.451 413.646L182.017 414.168C182.197 412.962 183.097 412.368 184.177 412.368C185.455 412.368 186.265 413.016 186.301 414.492L183.745 414.87C181.909 415.122 180.163 415.716 180.163 417.678C180.163 419.352 181.351 420.18 183.007 420.18C184.591 420.18 185.923 419.244 186.355 417.336H186.391V420H187.957V414.654C187.957 412.17 186.517 410.91 184.267 410.91ZM183.385 418.758C182.503 418.758 181.873 418.398 181.873 417.534C181.873 416.508 182.827 416.256 183.997 416.076L186.319 415.734V415.752C186.319 417.084 185.185 418.758 183.385 418.758ZM193.944 420.18C196.23 420.18 197.688 419.136 197.688 417.21C197.688 415.392 196.176 415.032 194.682 414.78L193.386 414.582C192.522 414.438 191.928 414.222 191.928 413.466C191.928 412.656 192.648 412.242 193.638 412.242C194.79 412.242 195.564 412.782 195.708 413.952L197.346 413.592C197.13 411.828 195.582 410.928 193.71 410.928C191.712 410.928 190.236 411.918 190.236 413.592C190.236 415.194 191.532 415.698 192.756 415.914L194.178 416.13C195.312 416.31 195.996 416.544 195.996 417.408C195.996 418.308 195.276 418.848 193.89 418.848C192.648 418.848 191.802 418.236 191.658 416.868L189.948 417.228C190.092 419.19 191.676 420.18 193.944 420.18ZM207.301 415.23C207.301 412.458 205.879 410.91 203.431 410.91C200.731 410.91 199.165 412.872 199.165 415.734C199.165 418.524 200.641 420.18 203.341 420.18C205.537 420.18 206.905 419.1 207.247 417.39L205.717 417.012C205.483 418.236 204.619 418.794 203.377 418.794C201.739 418.794 200.911 417.786 200.893 415.662H207.283C207.283 415.572 207.301 415.518 207.301 415.23ZM203.359 412.26C204.727 412.26 205.501 413.124 205.537 414.51H200.983C201.235 413.034 202.063 412.26 203.359 412.26ZM212.858 420.18C214.478 420.18 215.396 419.262 215.864 417.426H215.9V420H217.538V407.76H215.9V413.502H215.864C215.468 411.576 214.298 410.946 212.732 410.946C210.698 410.946 209.114 412.44 209.114 415.5C209.114 418.596 210.788 420.18 212.858 420.18ZM213.344 418.722C211.904 418.722 210.86 417.66 210.86 415.5C210.86 413.412 211.868 412.386 213.344 412.386C214.838 412.386 215.846 413.43 215.846 415.5C215.846 417.642 214.802 418.722 213.344 418.722ZM125.987 432.91C123.881 432.91 122.495 433.99 122.171 435.646L123.737 436.168C123.917 434.962 124.817 434.368 125.897 434.368C127.175 434.368 127.985 435.016 128.021 436.492L125.465 436.87C123.629 437.122 121.883 437.716 121.883 439.678C121.883 441.352 123.071 442.18 124.727 442.18C126.311 442.18 127.643 441.244 128.075 439.336H128.111V442H129.677V436.654C129.677 434.17 128.237 432.91 125.987 432.91ZM125.105 440.758C124.223 440.758 123.593 440.398 123.593 439.534C123.593 438.508 124.547 438.256 125.717 438.076L128.039 437.734V437.752C128.039 439.084 126.905 440.758 125.105 440.758ZM135.664 442.18C137.284 442.18 138.202 441.262 138.67 439.426H138.706V442H140.344V429.76H138.706V435.502H138.67C138.274 433.576 137.104 432.946 135.538 432.946C133.504 432.946 131.92 434.44 131.92 437.5C131.92 440.596 133.594 442.18 135.664 442.18ZM136.15 440.722C134.71 440.722 133.666 439.66 133.666 437.5C133.666 435.412 134.674 434.386 136.15 434.386C137.644 434.386 138.652 435.43 138.652 437.5C138.652 439.642 137.608 440.722 136.15 440.722ZM146.334 442.18C147.954 442.18 148.872 441.262 149.34 439.426H149.376V442H151.014V429.76H149.376V435.502H149.34C148.944 433.576 147.774 432.946 146.208 432.946C144.174 432.946 142.59 434.44 142.59 437.5C142.59 440.596 144.264 442.18 146.334 442.18ZM146.82 440.722C145.38 440.722 144.336 439.66 144.336 437.5C144.336 435.412 145.344 434.386 146.82 434.386C148.314 434.386 149.322 435.43 149.322 437.5C149.322 439.642 148.278 440.722 146.82 440.722ZM154.574 431.74C155.294 431.74 155.69 431.308 155.69 430.66C155.69 429.994 155.294 429.562 154.574 429.562C153.872 429.562 153.458 429.994 153.458 430.66C153.458 431.308 153.872 431.74 154.574 431.74ZM155.384 442V433.108H153.728V442H155.384ZM161.557 440.74C160.801 440.74 160.423 440.506 160.423 439.642V434.494H162.907V433.108H160.423V430.642H159.307C159.163 432.388 158.623 433.108 157.273 433.486V434.494H158.767V440.002C158.767 441.658 159.685 442.18 161.107 442.18C161.737 442.18 162.349 442.09 162.817 441.964L163.033 440.506C162.655 440.614 162.133 440.74 161.557 440.74ZM165.947 431.74C166.667 431.74 167.063 431.308 167.063 430.66C167.063 429.994 166.667 429.562 165.947 429.562C165.245 429.562 164.831 429.994 164.831 430.66C164.831 431.308 165.245 431.74 165.947 431.74ZM166.757 442V433.108H165.101V442H166.757ZM173.542 442.18C175.972 442.18 177.898 440.578 177.898 437.554C177.898 434.512 175.972 432.91 173.542 432.91C171.094 432.91 169.15 434.512 169.15 437.554C169.15 440.578 171.094 442.18 173.542 442.18ZM173.542 440.722C171.958 440.722 170.896 439.57 170.896 437.554C170.896 435.52 171.958 434.386 173.542 434.386C175.126 434.386 176.17 435.52 176.17 437.554C176.17 439.57 175.126 440.722 173.542 440.722ZM181.818 442V436.582C181.818 435.214 182.538 434.386 184.014 434.386C185.364 434.386 186.03 435.196 186.03 436.582V442H187.686V436.474C187.686 434.044 186.57 432.91 184.608 432.91C183.114 432.91 182.124 433.702 181.782 435.358H181.728V433.108H180.162V442H181.818ZM193.838 432.91C191.732 432.91 190.346 433.99 190.022 435.646L191.588 436.168C191.768 434.962 192.668 434.368 193.748 434.368C195.026 434.368 195.836 435.016 195.872 436.492L193.316 436.87C191.48 437.122 189.734 437.716 189.734 439.678C189.734 441.352 190.922 442.18 192.578 442.18C194.162 442.18 195.494 441.244 195.926 439.336H195.962V442H197.528V436.654C197.528 434.17 196.088 432.91 193.838 432.91ZM192.956 440.758C192.074 440.758 191.444 440.398 191.444 439.534C191.444 438.508 192.398 438.256 193.568 438.076L195.89 437.734V437.752C195.89 439.084 194.756 440.758 192.956 440.758ZM201.769 442V429.76H200.113V442H201.769ZM139.386 464.18C141.618 464.18 143.112 463.028 143.418 460.85L141.834 460.562C141.474 462.056 140.664 462.722 139.458 462.722C137.982 462.722 136.812 461.84 136.812 459.59C136.812 457.448 137.91 456.386 139.458 456.386C140.718 456.386 141.546 456.98 141.762 458.42L143.382 458.078C143.058 455.954 141.546 454.928 139.512 454.928C136.992 454.928 135.066 456.548 135.066 459.572C135.066 462.65 136.938 464.18 139.386 464.18ZM147.084 464V458.582C147.084 457.214 147.768 456.386 149.19 456.386C150.594 456.386 151.296 457.196 151.296 458.582V463.982H152.952V458.474C152.952 456.044 151.836 454.91 149.874 454.91C148.38 454.91 147.408 455.702 147.048 457.34H147.012V451.724H145.428V464H147.084ZM159.104 454.91C156.998 454.91 155.612 455.99 155.288 457.646L156.854 458.168C157.034 456.962 157.934 456.368 159.014 456.368C160.292 456.368 161.102 457.016 161.138 458.492L158.582 458.87C156.746 459.122 155 459.716 155 461.678C155 463.352 156.188 464.18 157.844 464.18C159.428 464.18 160.76 463.244 161.192 461.336H161.228V464H162.794V458.654C162.794 456.17 161.354 454.91 159.104 454.91ZM158.222 462.758C157.34 462.758 156.71 462.398 156.71 461.534C156.71 460.508 157.664 460.256 158.834 460.076L161.156 459.734V459.752C161.156 461.084 160.022 462.758 158.222 462.758ZM167.035 464V459.284C167.035 457.556 167.953 456.584 169.591 456.584C169.915 456.584 170.347 456.62 170.599 456.674L170.509 455.036C170.239 454.964 169.879 454.928 169.573 454.928C168.277 454.928 167.449 455.504 166.981 457.682H166.927V455.108H165.379V464H167.035ZM176.975 462.128C176.129 462.128 174.833 462.218 174.257 462.218C173.627 462.2 173.411 462.002 173.411 461.642C173.411 461.282 173.645 460.958 174.347 460.868C174.671 460.922 175.031 460.958 175.391 460.958C177.389 460.958 178.865 459.878 178.865 458.096C178.865 457.142 178.325 456.242 176.489 455.846L176.507 455.81C178.217 455.81 178.847 456.044 179.297 456.566H179.711V455.108H175.949C172.889 455.108 171.737 456.494 171.737 458.024C171.737 459.536 172.655 460.436 173.969 460.778C172.601 460.85 171.899 461.426 171.899 462.236C171.899 462.866 172.241 463.262 172.853 463.478C173.033 463.532 173.231 463.568 173.447 463.604C171.827 463.802 171.125 464.414 171.125 465.404C171.125 466.826 172.601 467.51 175.355 467.51C178.127 467.51 180.125 466.484 180.125 464.432C180.125 462.848 179.081 462.146 176.975 462.128ZM173.447 458.042C173.447 457.016 174.095 456.422 175.337 456.422C176.579 456.422 177.191 457.016 177.191 458.042C177.191 459.068 176.579 459.662 175.337 459.662C174.095 459.662 173.447 459.068 173.447 458.042ZM175.427 466.106C173.789 466.106 172.799 465.692 172.799 464.774C172.799 464.18 173.267 463.784 174.077 463.64H174.149C174.923 463.658 175.931 463.586 176.705 463.604C177.929 463.604 178.415 463.964 178.415 464.648C178.415 465.62 177.173 466.106 175.427 466.106ZM189.028 459.23C189.028 456.458 187.606 454.91 185.158 454.91C182.458 454.91 180.892 456.872 180.892 459.734C180.892 462.524 182.368 464.18 185.068 464.18C187.264 464.18 188.632 463.1 188.974 461.39L187.444 461.012C187.21 462.236 186.346 462.794 185.104 462.794C183.466 462.794 182.638 461.786 182.62 459.662H189.01C189.01 459.572 189.028 459.518 189.028 459.23ZM185.086 456.26C186.454 456.26 187.228 457.124 187.264 458.51H182.71C182.962 457.034 183.79 456.26 185.086 456.26Z" fill="black"/>
<path d="M285.46 407.76V420H287.242V415.086H289.366C292.462 415.086 294.028 413.772 294.028 411.414C294.028 409.092 292.462 407.76 289.348 407.76H285.46ZM287.242 413.556V409.29H289.348C291.22 409.29 292.174 410.046 292.174 411.414C292.174 412.854 291.22 413.556 289.348 413.556H287.242ZM297.64 420V415.284C297.64 413.556 298.558 412.584 300.196 412.584C300.52 412.584 300.952 412.62 301.204 412.674L301.114 411.036C300.844 410.964 300.484 410.928 300.178 410.928C298.882 410.928 298.054 411.504 297.586 413.682H297.532V411.108H295.984V420H297.64ZM303.619 409.74C304.339 409.74 304.735 409.308 304.735 408.66C304.735 407.994 304.339 407.562 303.619 407.562C302.917 407.562 302.503 407.994 302.503 408.66C302.503 409.308 302.917 409.74 303.619 409.74ZM304.429 420V411.108H302.773V420H304.429ZM311.142 420.18C313.374 420.18 314.868 419.028 315.174 416.85L313.59 416.562C313.23 418.056 312.42 418.722 311.214 418.722C309.738 418.722 308.568 417.84 308.568 415.59C308.568 413.448 309.666 412.386 311.214 412.386C312.474 412.386 313.302 412.98 313.518 414.42L315.138 414.078C314.814 411.954 313.302 410.928 311.268 410.928C308.748 410.928 306.822 412.548 306.822 415.572C306.822 418.65 308.694 420.18 311.142 420.18ZM324.784 415.23C324.784 412.458 323.362 410.91 320.914 410.91C318.214 410.91 316.648 412.872 316.648 415.734C316.648 418.524 318.124 420.18 320.824 420.18C323.02 420.18 324.388 419.1 324.73 417.39L323.2 417.012C322.966 418.236 322.102 418.794 320.86 418.794C319.222 418.794 318.394 417.786 318.376 415.662H324.766C324.766 415.572 324.784 415.518 324.784 415.23ZM320.842 412.26C322.21 412.26 322.984 413.124 323.02 414.51H318.466C318.718 413.034 319.546 412.26 320.842 412.26ZM331.026 415.968V414.6H326.4V415.968H331.026ZM337.7 420.18C339.806 420.18 341.498 418.596 341.498 415.5C341.498 412.44 339.896 410.946 337.844 410.946C336.278 410.946 335.216 411.882 334.748 413.52H334.73V407.76H333.074V420H334.712V417.408H334.748C335.252 419.262 336.278 420.18 337.7 420.18ZM337.268 418.722C335.81 418.722 334.766 417.642 334.766 415.5C334.766 413.43 335.774 412.386 337.268 412.386C338.762 412.386 339.752 413.412 339.752 415.5C339.752 417.66 338.708 418.722 337.268 418.722ZM347.489 410.91C345.383 410.91 343.997 411.99 343.673 413.646L345.239 414.168C345.419 412.962 346.319 412.368 347.399 412.368C348.677 412.368 349.487 413.016 349.523 414.492L346.967 414.87C345.131 415.122 343.385 415.716 343.385 417.678C343.385 419.352 344.573 420.18 346.229 420.18C347.813 420.18 349.145 419.244 349.577 417.336H349.613V420H351.179V414.654C351.179 412.17 349.739 410.91 347.489 410.91ZM346.607 418.758C345.725 418.758 345.095 418.398 345.095 417.534C345.095 416.508 346.049 416.256 347.219 416.076L349.541 415.734V415.752C349.541 417.084 348.407 418.758 346.607 418.758ZM357.166 420.18C359.452 420.18 360.91 419.136 360.91 417.21C360.91 415.392 359.398 415.032 357.904 414.78L356.608 414.582C355.744 414.438 355.15 414.222 355.15 413.466C355.15 412.656 355.87 412.242 356.86 412.242C358.012 412.242 358.786 412.782 358.93 413.952L360.568 413.592C360.352 411.828 358.804 410.928 356.932 410.928C354.934 410.928 353.458 411.918 353.458 413.592C353.458 415.194 354.754 415.698 355.978 415.914L357.4 416.13C358.534 416.31 359.218 416.544 359.218 417.408C359.218 418.308 358.498 418.848 357.112 418.848C355.87 418.848 355.024 418.236 354.88 416.868L353.17 417.228C353.314 419.19 354.898 420.18 357.166 420.18ZM370.523 415.23C370.523 412.458 369.101 410.91 366.653 410.91C363.953 410.91 362.387 412.872 362.387 415.734C362.387 418.524 363.863 420.18 366.563 420.18C368.759 420.18 370.127 419.1 370.469 417.39L368.939 417.012C368.705 418.236 367.841 418.794 366.599 418.794C364.961 418.794 364.133 417.786 364.115 415.662H370.505C370.505 415.572 370.523 415.518 370.523 415.23ZM366.581 412.26C367.949 412.26 368.723 413.124 368.759 414.51H364.205C364.457 413.034 365.285 412.26 366.581 412.26ZM376.08 420.18C377.7 420.18 378.618 419.262 379.086 417.426H379.122V420H380.76V407.76H379.122V413.502H379.086C378.69 411.576 377.52 410.946 375.954 410.946C373.92 410.946 372.336 412.44 372.336 415.5C372.336 418.596 374.01 420.18 376.08 420.18ZM376.566 418.722C375.126 418.722 374.082 417.66 374.082 415.5C374.082 413.412 375.09 412.386 376.566 412.386C378.06 412.386 379.068 413.43 379.068 415.5C379.068 417.642 378.024 418.722 376.566 418.722ZM296.987 432.91C294.881 432.91 293.495 433.99 293.171 435.646L294.737 436.168C294.917 434.962 295.817 434.368 296.897 434.368C298.175 434.368 298.985 435.016 299.021 436.492L296.465 436.87C294.629 437.122 292.883 437.716 292.883 439.678C292.883 441.352 294.071 442.18 295.727 442.18C297.311 442.18 298.643 441.244 299.075 439.336H299.111V442H300.677V436.654C300.677 434.17 299.237 432.91 296.987 432.91ZM296.105 440.758C295.223 440.758 294.593 440.398 294.593 439.534C294.593 438.508 295.547 438.256 296.717 438.076L299.039 437.734V437.752C299.039 439.084 297.905 440.758 296.105 440.758ZM306.664 442.18C308.284 442.18 309.202 441.262 309.67 439.426H309.706V442H311.344V429.76H309.706V435.502H309.67C309.274 433.576 308.104 432.946 306.538 432.946C304.504 432.946 302.92 434.44 302.92 437.5C302.92 440.596 304.594 442.18 306.664 442.18ZM307.15 440.722C305.71 440.722 304.666 439.66 304.666 437.5C304.666 435.412 305.674 434.386 307.15 434.386C308.644 434.386 309.652 435.43 309.652 437.5C309.652 439.642 308.608 440.722 307.15 440.722ZM317.334 442.18C318.954 442.18 319.872 441.262 320.34 439.426H320.376V442H322.014V429.76H320.376V435.502H320.34C319.944 433.576 318.774 432.946 317.208 432.946C315.174 432.946 313.59 434.44 313.59 437.5C313.59 440.596 315.264 442.18 317.334 442.18ZM317.82 440.722C316.38 440.722 315.336 439.66 315.336 437.5C315.336 435.412 316.344 434.386 317.82 434.386C319.314 434.386 320.322 435.43 320.322 437.5C320.322 439.642 319.278 440.722 317.82 440.722ZM325.574 431.74C326.294 431.74 326.69 431.308 326.69 430.66C326.69 429.994 326.294 429.562 325.574 429.562C324.872 429.562 324.458 429.994 324.458 430.66C324.458 431.308 324.872 431.74 325.574 431.74ZM326.384 442V433.108H324.728V442H326.384ZM332.557 440.74C331.801 440.74 331.423 440.506 331.423 439.642V434.494H333.907V433.108H331.423V430.642H330.307C330.163 432.388 329.623 433.108 328.273 433.486V434.494H329.767V440.002C329.767 441.658 330.685 442.18 332.107 442.18C332.737 442.18 333.349 442.09 333.817 441.964L334.033 440.506C333.655 440.614 333.133 440.74 332.557 440.74ZM336.947 431.74C337.667 431.74 338.063 431.308 338.063 430.66C338.063 429.994 337.667 429.562 336.947 429.562C336.245 429.562 335.831 429.994 335.831 430.66C335.831 431.308 336.245 431.74 336.947 431.74ZM337.757 442V433.108H336.101V442H337.757ZM344.542 442.18C346.972 442.18 348.898 440.578 348.898 437.554C348.898 434.512 346.972 432.91 344.542 432.91C342.094 432.91 340.15 434.512 340.15 437.554C340.15 440.578 342.094 442.18 344.542 442.18ZM344.542 440.722C342.958 440.722 341.896 439.57 341.896 437.554C341.896 435.52 342.958 434.386 344.542 434.386C346.126 434.386 347.17 435.52 347.17 437.554C347.17 439.57 346.126 440.722 344.542 440.722ZM352.818 442V436.582C352.818 435.214 353.538 434.386 355.014 434.386C356.364 434.386 357.03 435.196 357.03 436.582V442H358.686V436.474C358.686 434.044 357.57 432.91 355.608 432.91C354.114 432.91 353.124 433.702 352.782 435.358H352.728V433.108H351.162V442H352.818ZM364.838 432.91C362.732 432.91 361.346 433.99 361.022 435.646L362.588 436.168C362.768 434.962 363.668 434.368 364.748 434.368C366.026 434.368 366.836 435.016 366.872 436.492L364.316 436.87C362.48 437.122 360.734 437.716 360.734 439.678C360.734 441.352 361.922 442.18 363.578 442.18C365.162 442.18 366.494 441.244 366.926 439.336H366.962V442H368.528V436.654C368.528 434.17 367.088 432.91 364.838 432.91ZM363.956 440.758C363.074 440.758 362.444 440.398 362.444 439.534C362.444 438.508 363.398 438.256 364.568 438.076L366.89 437.734V437.752C366.89 439.084 365.756 440.758 363.956 440.758ZM372.769 442V429.76H371.113V442H372.769ZM310.386 464.18C312.618 464.18 314.112 463.028 314.418 460.85L312.834 460.562C312.474 462.056 311.664 462.722 310.458 462.722C308.982 462.722 307.812 461.84 307.812 459.59C307.812 457.448 308.91 456.386 310.458 456.386C311.718 456.386 312.546 456.98 312.762 458.42L314.382 458.078C314.058 455.954 312.546 454.928 310.512 454.928C307.992 454.928 306.066 456.548 306.066 459.572C306.066 462.65 307.938 464.18 310.386 464.18ZM318.084 464V458.582C318.084 457.214 318.768 456.386 320.19 456.386C321.594 456.386 322.296 457.196 322.296 458.582V463.982H323.952V458.474C323.952 456.044 322.836 454.91 320.874 454.91C319.38 454.91 318.408 455.702 318.048 457.34H318.012V451.724H316.428V464H318.084ZM330.104 454.91C327.998 454.91 326.612 455.99 326.288 457.646L327.854 458.168C328.034 456.962 328.934 456.368 330.014 456.368C331.292 456.368 332.102 457.016 332.138 458.492L329.582 458.87C327.746 459.122 326 459.716 326 461.678C326 463.352 327.188 464.18 328.844 464.18C330.428 464.18 331.76 463.244 332.192 461.336H332.228V464H333.794V458.654C333.794 456.17 332.354 454.91 330.104 454.91ZM329.222 462.758C328.34 462.758 327.71 462.398 327.71 461.534C327.71 460.508 328.664 460.256 329.834 460.076L332.156 459.734V459.752C332.156 461.084 331.022 462.758 329.222 462.758ZM338.035 464V459.284C338.035 457.556 338.953 456.584 340.591 456.584C340.915 456.584 341.347 456.62 341.599 456.674L341.509 455.036C341.239 454.964 340.879 454.928 340.573 454.928C339.277 454.928 338.449 455.504 337.981 457.682H337.927V455.108H336.379V464H338.035ZM347.975 462.128C347.129 462.128 345.833 462.218 345.257 462.218C344.627 462.2 344.411 462.002 344.411 461.642C344.411 461.282 344.645 460.958 345.347 460.868C345.671 460.922 346.031 460.958 346.391 460.958C348.389 460.958 349.865 459.878 349.865 458.096C349.865 457.142 349.325 456.242 347.489 455.846L347.507 455.81C349.217 455.81 349.847 456.044 350.297 456.566H350.711V455.108H346.949C343.889 455.108 342.737 456.494 342.737 458.024C342.737 459.536 343.655 460.436 344.969 460.778C343.601 460.85 342.899 461.426 342.899 462.236C342.899 462.866 343.241 463.262 343.853 463.478C344.033 463.532 344.231 463.568 344.447 463.604C342.827 463.802 342.125 464.414 342.125 465.404C342.125 466.826 343.601 467.51 346.355 467.51C349.127 467.51 351.125 466.484 351.125 464.432C351.125 462.848 350.081 462.146 347.975 462.128ZM344.447 458.042C344.447 457.016 345.095 456.422 346.337 456.422C347.579 456.422 348.191 457.016 348.191 458.042C348.191 459.068 347.579 459.662 346.337 459.662C345.095 459.662 344.447 459.068 344.447 458.042ZM346.427 466.106C344.789 466.106 343.799 465.692 343.799 464.774C343.799 464.18 344.267 463.784 345.077 463.64H345.149C345.923 463.658 346.931 463.586 347.705 463.604C348.929 463.604 349.415 463.964 349.415 464.648C349.415 465.62 348.173 466.106 346.427 466.106ZM360.028 459.23C360.028 456.458 358.606 454.91 356.158 454.91C353.458 454.91 351.892 456.872 351.892 459.734C351.892 462.524 353.368 464.18 356.068 464.18C358.264 464.18 359.632 463.1 359.974 461.39L358.444 461.012C358.21 462.236 357.346 462.794 356.104 462.794C354.466 462.794 353.638 461.786 353.62 459.662H360.01C360.01 459.572 360.028 459.518 360.028 459.23ZM356.086 456.26C357.454 456.26 358.228 457.124 358.264 458.51H353.71C353.962 457.034 354.79 456.26 356.086 456.26Z" fill="black"/>
<rect x="613" y="399" width="125" height="76" fill="#FFF3F6"/>
<path d="M644.558 420L640.436 407.76H638.024L633.902 420H635.846L636.746 417.084H641.66L642.578 420H644.558ZM639.212 409.218L641.192 415.59H637.214L639.212 409.218ZM649.068 420.18C650.688 420.18 651.606 419.262 652.074 417.426H652.11V420H653.748V407.76H652.11V413.502H652.074C651.678 411.576 650.508 410.946 648.942 410.946C646.908 410.946 645.324 412.44 645.324 415.5C645.324 418.596 646.998 420.18 649.068 420.18ZM649.554 418.722C648.114 418.722 647.07 417.66 647.07 415.5C647.07 413.412 648.078 412.386 649.554 412.386C651.048 412.386 652.056 413.43 652.056 415.5C652.056 417.642 651.012 418.722 649.554 418.722ZM659.738 420.18C661.358 420.18 662.276 419.262 662.744 417.426H662.78V420H664.418V407.76H662.78V413.502H662.744C662.348 411.576 661.178 410.946 659.612 410.946C657.578 410.946 655.994 412.44 655.994 415.5C655.994 418.596 657.668 420.18 659.738 420.18ZM660.224 418.722C658.784 418.722 657.74 417.66 657.74 415.5C657.74 413.412 658.748 412.386 660.224 412.386C661.718 412.386 662.726 413.43 662.726 415.5C662.726 417.642 661.682 418.722 660.224 418.722ZM667.978 409.74C668.698 409.74 669.094 409.308 669.094 408.66C669.094 407.994 668.698 407.562 667.978 407.562C667.276 407.562 666.862 407.994 666.862 408.66C666.862 409.308 667.276 409.74 667.978 409.74ZM668.788 420V411.108H667.132V420H668.788ZM674.962 418.74C674.206 418.74 673.828 418.506 673.828 417.642V412.494H676.312V411.108H673.828V408.642H672.712C672.568 410.388 672.028 411.108 670.678 411.486V412.494H672.172V418.002C672.172 419.658 673.09 420.18 674.512 420.18C675.142 420.18 675.754 420.09 676.222 419.964L676.438 418.506C676.06 418.614 675.538 418.74 674.962 418.74ZM679.351 409.74C680.071 409.74 680.467 409.308 680.467 408.66C680.467 407.994 680.071 407.562 679.351 407.562C678.649 407.562 678.235 407.994 678.235 408.66C678.235 409.308 678.649 409.74 679.351 409.74ZM680.161 420V411.108H678.505V420H680.161ZM686.947 420.18C689.377 420.18 691.303 418.578 691.303 415.554C691.303 412.512 689.377 410.91 686.947 410.91C684.499 410.91 682.555 412.512 682.555 415.554C682.555 418.578 684.499 420.18 686.947 420.18ZM686.947 418.722C685.363 418.722 684.301 417.57 684.301 415.554C684.301 413.52 685.363 412.386 686.947 412.386C688.531 412.386 689.575 413.52 689.575 415.554C689.575 417.57 688.531 418.722 686.947 418.722ZM695.223 420V414.582C695.223 413.214 695.943 412.386 697.419 412.386C698.769 412.386 699.435 413.196 699.435 414.582V420H701.091V414.474C701.091 412.044 699.975 410.91 698.013 410.91C696.519 410.91 695.529 411.702 695.187 413.358H695.133V411.108H693.567V420H695.223ZM707.243 410.91C705.137 410.91 703.751 411.99 703.427 413.646L704.993 414.168C705.173 412.962 706.073 412.368 707.153 412.368C708.431 412.368 709.241 413.016 709.277 414.492L706.721 414.87C704.885 415.122 703.139 415.716 703.139 417.678C703.139 419.352 704.327 420.18 705.983 420.18C707.567 420.18 708.899 419.244 709.331 417.336H709.367V420H710.933V414.654C710.933 412.17 709.493 410.91 707.243 410.91ZM706.361 418.758C705.479 418.758 704.849 418.398 704.849 417.534C704.849 416.508 705.803 416.256 706.973 416.076L709.295 415.734V415.752C709.295 417.084 708.161 418.758 706.361 418.758ZM715.174 420V407.76H713.518V420H715.174ZM645.21 442.18C647.496 442.18 648.954 441.136 648.954 439.21C648.954 437.392 647.442 437.032 645.948 436.78L644.652 436.582C643.788 436.438 643.194 436.222 643.194 435.466C643.194 434.656 643.914 434.242 644.904 434.242C646.056 434.242 646.83 434.782 646.974 435.952L648.612 435.592C648.396 433.828 646.848 432.928 644.976 432.928C642.978 432.928 641.502 433.918 641.502 435.592C641.502 437.194 642.798 437.698 644.022 437.914L645.444 438.13C646.578 438.31 647.262 438.544 647.262 439.408C647.262 440.308 646.542 440.848 645.156 440.848C643.914 440.848 643.068 440.236 642.924 438.868L641.214 439.228C641.358 441.19 642.942 442.18 645.21 442.18ZM652.604 442V436.582C652.604 435.214 653.288 434.386 654.71 434.386C656.114 434.386 656.816 435.196 656.816 436.582V441.982H658.472V436.474C658.472 434.044 657.356 432.91 655.394 432.91C653.9 432.91 652.928 433.702 652.568 435.34H652.532V429.724H650.948V442H652.604ZM661.834 431.74C662.554 431.74 662.95 431.308 662.95 430.66C662.95 429.994 662.554 429.562 661.834 429.562C661.132 429.562 660.718 429.994 660.718 430.66C660.718 431.308 661.132 431.74 661.834 431.74ZM662.644 442V433.108H660.988V442H662.644ZM667.036 445.348V439.336H667.054C667.45 441.532 668.584 442.18 670.15 442.18C672.202 442.18 673.804 440.686 673.804 437.608C673.804 434.512 672.13 432.946 670.042 432.946C668.44 432.946 667.522 433.846 667.054 435.484H667.018V433.108H665.38V445.348H667.036ZM669.574 440.722C668.08 440.722 667.072 439.696 667.072 437.608C667.072 435.466 668.116 434.386 669.574 434.386C671.014 434.386 672.058 435.448 672.058 437.608C672.058 439.696 671.068 440.722 669.574 440.722ZM677.636 445.348V439.336H677.654C678.05 441.532 679.184 442.18 680.75 442.18C682.802 442.18 684.404 440.686 684.404 437.608C684.404 434.512 682.73 432.946 680.642 432.946C679.04 432.946 678.122 433.846 677.654 435.484H677.618V433.108H675.98V445.348H677.636ZM680.174 440.722C678.68 440.722 677.672 439.696 677.672 437.608C677.672 435.466 678.716 434.386 680.174 434.386C681.614 434.386 682.658 435.448 682.658 437.608C682.658 439.696 681.668 440.722 680.174 440.722ZM687.622 431.74C688.342 431.74 688.738 431.308 688.738 430.66C688.738 429.994 688.342 429.562 687.622 429.562C686.92 429.562 686.506 429.994 686.506 430.66C686.506 431.308 686.92 431.74 687.622 431.74ZM688.432 442V433.108H686.776V442H688.432ZM692.823 442V436.582C692.823 435.214 693.543 434.386 695.019 434.386C696.369 434.386 697.035 435.196 697.035 436.582V442H698.691V436.474C698.691 434.044 697.575 432.91 695.613 432.91C694.119 432.91 693.129 433.702 692.787 435.358H692.733V433.108H691.167V442H692.823ZM706.085 440.128C705.239 440.128 703.943 440.218 703.367 440.218C702.737 440.2 702.521 440.002 702.521 439.642C702.521 439.282 702.755 438.958 703.457 438.868C703.781 438.922 704.141 438.958 704.501 438.958C706.499 438.958 707.975 437.878 707.975 436.096C707.975 435.142 707.435 434.242 705.599 433.846L705.617 433.81C707.327 433.81 707.957 434.044 708.407 434.566H708.821V433.108H705.059C701.999 433.108 700.847 434.494 700.847 436.024C700.847 437.536 701.765 438.436 703.079 438.778C701.711 438.85 701.009 439.426 701.009 440.236C701.009 440.866 701.351 441.262 701.963 441.478C702.143 441.532 702.341 441.568 702.557 441.604C700.937 441.802 700.235 442.414 700.235 443.404C700.235 444.826 701.711 445.51 704.465 445.51C707.237 445.51 709.235 444.484 709.235 442.432C709.235 440.848 708.191 440.146 706.085 440.128ZM702.557 436.042C702.557 435.016 703.205 434.422 704.447 434.422C705.689 434.422 706.301 435.016 706.301 436.042C706.301 437.068 705.689 437.662 704.447 437.662C703.205 437.662 702.557 437.068 702.557 436.042ZM704.537 444.106C702.899 444.106 701.909 443.692 701.909 442.774C701.909 442.18 702.377 441.784 703.187 441.64H703.259C704.033 441.658 705.041 441.586 705.815 441.604C707.039 441.604 707.525 441.964 707.525 442.648C707.525 443.62 706.283 444.106 704.537 444.106ZM652.386 464.18C654.618 464.18 656.112 463.028 656.418 460.85L654.834 460.562C654.474 462.056 653.664 462.722 652.458 462.722C650.982 462.722 649.812 461.84 649.812 459.59C649.812 457.448 650.91 456.386 652.458 456.386C653.718 456.386 654.546 456.98 654.762 458.42L656.382 458.078C656.058 455.954 654.546 454.928 652.512 454.928C649.992 454.928 648.066 456.548 648.066 459.572C648.066 462.65 649.938 464.18 652.386 464.18ZM660.084 464V458.582C660.084 457.214 660.768 456.386 662.19 456.386C663.594 456.386 664.296 457.196 664.296 458.582V463.982H665.952V458.474C665.952 456.044 664.836 454.91 662.874 454.91C661.38 454.91 660.408 455.702 660.048 457.34H660.012V451.724H658.428V464H660.084ZM672.104 454.91C669.998 454.91 668.612 455.99 668.288 457.646L669.854 458.168C670.034 456.962 670.934 456.368 672.014 456.368C673.292 456.368 674.102 457.016 674.138 458.492L671.582 458.87C669.746 459.122 668 459.716 668 461.678C668 463.352 669.188 464.18 670.844 464.18C672.428 464.18 673.76 463.244 674.192 461.336H674.228V464H675.794V458.654C675.794 456.17 674.354 454.91 672.104 454.91ZM671.222 462.758C670.34 462.758 669.71 462.398 669.71 461.534C669.71 460.508 670.664 460.256 671.834 460.076L674.156 459.734V459.752C674.156 461.084 673.022 462.758 671.222 462.758ZM680.035 464V459.284C680.035 457.556 680.953 456.584 682.591 456.584C682.915 456.584 683.347 456.62 683.599 456.674L683.509 455.036C683.239 454.964 682.879 454.928 682.573 454.928C681.277 454.928 680.449 455.504 679.981 457.682H679.927V455.108H678.379V464H680.035ZM689.975 462.128C689.129 462.128 687.833 462.218 687.257 462.218C686.627 462.2 686.411 462.002 686.411 461.642C686.411 461.282 686.645 460.958 687.347 460.868C687.671 460.922 688.031 460.958 688.391 460.958C690.389 460.958 691.865 459.878 691.865 458.096C691.865 457.142 691.325 456.242 689.489 455.846L689.507 455.81C691.217 455.81 691.847 456.044 692.297 456.566H692.711V455.108H688.949C685.889 455.108 684.737 456.494 684.737 458.024C684.737 459.536 685.655 460.436 686.969 460.778C685.601 460.85 684.899 461.426 684.899 462.236C684.899 462.866 685.241 463.262 685.853 463.478C686.033 463.532 686.231 463.568 686.447 463.604C684.827 463.802 684.125 464.414 684.125 465.404C684.125 466.826 685.601 467.51 688.355 467.51C691.127 467.51 693.125 466.484 693.125 464.432C693.125 462.848 692.081 462.146 689.975 462.128ZM686.447 458.042C686.447 457.016 687.095 456.422 688.337 456.422C689.579 456.422 690.191 457.016 690.191 458.042C690.191 459.068 689.579 459.662 688.337 459.662C687.095 459.662 686.447 459.068 686.447 458.042ZM688.427 466.106C686.789 466.106 685.799 465.692 685.799 464.774C685.799 464.18 686.267 463.784 687.077 463.64H687.149C687.923 463.658 688.931 463.586 689.705 463.604C690.929 463.604 691.415 463.964 691.415 464.648C691.415 465.62 690.173 466.106 688.427 466.106ZM702.028 459.23C702.028 456.458 700.606 454.91 698.158 454.91C695.458 454.91 693.892 456.872 693.892 459.734C693.892 462.524 695.368 464.18 698.068 464.18C700.264 464.18 701.632 463.1 701.974 461.39L700.444 461.012C700.21 462.236 699.346 462.794 698.104 462.794C696.466 462.794 695.638 461.786 695.62 459.662H702.01C702.01 459.572 702.028 459.518 702.028 459.23ZM698.086 456.26C699.454 456.26 700.228 457.124 700.264 458.51H695.71C695.962 457.034 696.79 456.26 698.086 456.26Z" fill="black"/>
<rect x="441" y="399" width="125" height="76" fill="#FFF3F6"/>
<path d="M472.558 420L468.436 407.76H466.024L461.902 420H463.846L464.746 417.084H469.66L470.578 420H472.558ZM467.212 409.218L469.192 415.59H465.214L467.212 409.218ZM477.068 420.18C478.688 420.18 479.606 419.262 480.074 417.426H480.11V420H481.748V407.76H480.11V413.502H480.074C479.678 411.576 478.508 410.946 476.942 410.946C474.908 410.946 473.324 412.44 473.324 415.5C473.324 418.596 474.998 420.18 477.068 420.18ZM477.554 418.722C476.114 418.722 475.07 417.66 475.07 415.5C475.07 413.412 476.078 412.386 477.554 412.386C479.048 412.386 480.056 413.43 480.056 415.5C480.056 417.642 479.012 418.722 477.554 418.722ZM487.738 420.18C489.358 420.18 490.276 419.262 490.744 417.426H490.78V420H492.418V407.76H490.78V413.502H490.744C490.348 411.576 489.178 410.946 487.612 410.946C485.578 410.946 483.994 412.44 483.994 415.5C483.994 418.596 485.668 420.18 487.738 420.18ZM488.224 418.722C486.784 418.722 485.74 417.66 485.74 415.5C485.74 413.412 486.748 412.386 488.224 412.386C489.718 412.386 490.726 413.43 490.726 415.5C490.726 417.642 489.682 418.722 488.224 418.722ZM495.978 409.74C496.698 409.74 497.094 409.308 497.094 408.66C497.094 407.994 496.698 407.562 495.978 407.562C495.276 407.562 494.862 407.994 494.862 408.66C494.862 409.308 495.276 409.74 495.978 409.74ZM496.788 420V411.108H495.132V420H496.788ZM502.962 418.74C502.206 418.74 501.828 418.506 501.828 417.642V412.494H504.312V411.108H501.828V408.642H500.712C500.568 410.388 500.028 411.108 498.678 411.486V412.494H500.172V418.002C500.172 419.658 501.09 420.18 502.512 420.18C503.142 420.18 503.754 420.09 504.222 419.964L504.438 418.506C504.06 418.614 503.538 418.74 502.962 418.74ZM507.351 409.74C508.071 409.74 508.467 409.308 508.467 408.66C508.467 407.994 508.071 407.562 507.351 407.562C506.649 407.562 506.235 407.994 506.235 408.66C506.235 409.308 506.649 409.74 507.351 409.74ZM508.161 420V411.108H506.505V420H508.161ZM514.947 420.18C517.377 420.18 519.303 418.578 519.303 415.554C519.303 412.512 517.377 410.91 514.947 410.91C512.499 410.91 510.555 412.512 510.555 415.554C510.555 418.578 512.499 420.18 514.947 420.18ZM514.947 418.722C513.363 418.722 512.301 417.57 512.301 415.554C512.301 413.52 513.363 412.386 514.947 412.386C516.531 412.386 517.575 413.52 517.575 415.554C517.575 417.57 516.531 418.722 514.947 418.722ZM523.223 420V414.582C523.223 413.214 523.943 412.386 525.419 412.386C526.769 412.386 527.435 413.196 527.435 414.582V420H529.091V414.474C529.091 412.044 527.975 410.91 526.013 410.91C524.519 410.91 523.529 411.702 523.187 413.358H523.133V411.108H521.567V420H523.223ZM535.243 410.91C533.137 410.91 531.751 411.99 531.427 413.646L532.993 414.168C533.173 412.962 534.073 412.368 535.153 412.368C536.431 412.368 537.241 413.016 537.277 414.492L534.721 414.87C532.885 415.122 531.139 415.716 531.139 417.678C531.139 419.352 532.327 420.18 533.983 420.18C535.567 420.18 536.899 419.244 537.331 417.336H537.367V420H538.933V414.654C538.933 412.17 537.493 410.91 535.243 410.91ZM534.361 418.758C533.479 418.758 532.849 418.398 532.849 417.534C532.849 416.508 533.803 416.256 534.973 416.076L537.295 415.734V415.752C537.295 417.084 536.161 418.758 534.361 418.758ZM543.174 420V407.76H541.518V420H543.174ZM465.436 431.74C466.156 431.74 466.552 431.308 466.552 430.66C466.552 429.994 466.156 429.562 465.436 429.562C464.734 429.562 464.32 429.994 464.32 430.66C464.32 431.308 464.734 431.74 465.436 431.74ZM466.246 442V433.108H464.59V442H466.246ZM470.638 442V436.582C470.638 435.214 471.358 434.386 472.834 434.386C474.184 434.386 474.85 435.196 474.85 436.582V442H476.506V436.474C476.506 434.044 475.39 432.91 473.428 432.91C471.934 432.91 470.944 433.702 470.602 435.358H470.548V433.108H468.982V442H470.638ZM482.298 442.18C484.584 442.18 486.042 441.136 486.042 439.21C486.042 437.392 484.53 437.032 483.036 436.78L481.74 436.582C480.876 436.438 480.282 436.222 480.282 435.466C480.282 434.656 481.002 434.242 481.992 434.242C483.144 434.242 483.918 434.782 484.062 435.952L485.7 435.592C485.484 433.828 483.936 432.928 482.064 432.928C480.066 432.928 478.59 433.918 478.59 435.592C478.59 437.194 479.886 437.698 481.11 437.914L482.532 438.13C483.666 438.31 484.35 438.544 484.35 439.408C484.35 440.308 483.63 440.848 482.244 440.848C481.002 440.848 480.156 440.236 480.012 438.868L478.302 439.228C478.446 441.19 480.03 442.18 482.298 442.18ZM493.724 433.108V438.526C493.724 439.894 492.986 440.722 491.51 440.722C490.16 440.722 489.494 439.912 489.494 438.526V433.108H487.838V438.634C487.838 441.064 488.954 442.216 490.916 442.216C492.428 442.216 493.4 441.406 493.76 439.768H493.796V442H495.362V433.108H493.724ZM499.606 442V437.284C499.606 435.556 500.524 434.584 502.162 434.584C502.486 434.584 502.918 434.62 503.17 434.674L503.08 433.036C502.81 432.964 502.45 432.928 502.144 432.928C500.848 432.928 500.02 433.504 499.552 435.682H499.498V433.108H497.95V442H499.606ZM508.163 432.91C506.057 432.91 504.671 433.99 504.347 435.646L505.913 436.168C506.093 434.962 506.993 434.368 508.073 434.368C509.351 434.368 510.161 435.016 510.197 436.492L507.641 436.87C505.805 437.122 504.059 437.716 504.059 439.678C504.059 441.352 505.247 442.18 506.903 442.18C508.487 442.18 509.819 441.244 510.251 439.336H510.287V442H511.853V436.654C511.853 434.17 510.413 432.91 508.163 432.91ZM507.281 440.758C506.399 440.758 505.769 440.398 505.769 439.534C505.769 438.508 506.723 438.256 507.893 438.076L510.215 437.734V437.752C510.215 439.084 509.081 440.758 507.281 440.758ZM516.095 442V436.582C516.095 435.214 516.815 434.386 518.291 434.386C519.641 434.386 520.307 435.196 520.307 436.582V442H521.963V436.474C521.963 434.044 520.847 432.91 518.885 432.91C517.391 432.91 516.401 433.702 516.059 435.358H516.005V433.108H514.439V442H516.095ZM528.331 442.18C530.563 442.18 532.057 441.028 532.363 438.85L530.779 438.562C530.419 440.056 529.609 440.722 528.403 440.722C526.927 440.722 525.757 439.84 525.757 437.59C525.757 435.448 526.855 434.386 528.403 434.386C529.663 434.386 530.491 434.98 530.707 436.42L532.327 436.078C532.003 433.954 530.491 432.928 528.457 432.928C525.937 432.928 524.011 434.548 524.011 437.572C524.011 440.65 525.883 442.18 528.331 442.18ZM541.973 437.23C541.973 434.458 540.551 432.91 538.103 432.91C535.403 432.91 533.837 434.872 533.837 437.734C533.837 440.524 535.313 442.18 538.013 442.18C540.209 442.18 541.577 441.1 541.919 439.39L540.389 439.012C540.155 440.236 539.291 440.794 538.049 440.794C536.411 440.794 535.583 439.786 535.565 437.662H541.955C541.955 437.572 541.973 437.518 541.973 437.23ZM538.031 434.26C539.399 434.26 540.173 435.124 540.209 436.51H535.655C535.907 435.034 536.735 434.26 538.031 434.26ZM480.386 464.18C482.618 464.18 484.112 463.028 484.418 460.85L482.834 460.562C482.474 462.056 481.664 462.722 480.458 462.722C478.982 462.722 477.812 461.84 477.812 459.59C477.812 457.448 478.91 456.386 480.458 456.386C481.718 456.386 482.546 456.98 482.762 458.42L484.382 458.078C484.058 455.954 482.546 454.928 480.512 454.928C477.992 454.928 476.066 456.548 476.066 459.572C476.066 462.65 477.938 464.18 480.386 464.18ZM488.084 464V458.582C488.084 457.214 488.768 456.386 490.19 456.386C491.594 456.386 492.296 457.196 492.296 458.582V463.982H493.952V458.474C493.952 456.044 492.836 454.91 490.874 454.91C489.38 454.91 488.408 455.702 488.048 457.34H488.012V451.724H486.428V464H488.084ZM500.104 454.91C497.998 454.91 496.612 455.99 496.288 457.646L497.854 458.168C498.034 456.962 498.934 456.368 500.014 456.368C501.292 456.368 502.102 457.016 502.138 458.492L499.582 458.87C497.746 459.122 496 459.716 496 461.678C496 463.352 497.188 464.18 498.844 464.18C500.428 464.18 501.76 463.244 502.192 461.336H502.228V464H503.794V458.654C503.794 456.17 502.354 454.91 500.104 454.91ZM499.222 462.758C498.34 462.758 497.71 462.398 497.71 461.534C497.71 460.508 498.664 460.256 499.834 460.076L502.156 459.734V459.752C502.156 461.084 501.022 462.758 499.222 462.758ZM508.035 464V459.284C508.035 457.556 508.953 456.584 510.591 456.584C510.915 456.584 511.347 456.62 511.599 456.674L511.509 455.036C511.239 454.964 510.879 454.928 510.573 454.928C509.277 454.928 508.449 455.504 507.981 457.682H507.927V455.108H506.379V464H508.035ZM517.975 462.128C517.129 462.128 515.833 462.218 515.257 462.218C514.627 462.2 514.411 462.002 514.411 461.642C514.411 461.282 514.645 460.958 515.347 460.868C515.671 460.922 516.031 460.958 516.391 460.958C518.389 460.958 519.865 459.878 519.865 458.096C519.865 457.142 519.325 456.242 517.489 455.846L517.507 455.81C519.217 455.81 519.847 456.044 520.297 456.566H520.711V455.108H516.949C513.889 455.108 512.737 456.494 512.737 458.024C512.737 459.536 513.655 460.436 514.969 460.778C513.601 460.85 512.899 461.426 512.899 462.236C512.899 462.866 513.241 463.262 513.853 463.478C514.033 463.532 514.231 463.568 514.447 463.604C512.827 463.802 512.125 464.414 512.125 465.404C512.125 466.826 513.601 467.51 516.355 467.51C519.127 467.51 521.125 466.484 521.125 464.432C521.125 462.848 520.081 462.146 517.975 462.128ZM514.447 458.042C514.447 457.016 515.095 456.422 516.337 456.422C517.579 456.422 518.191 457.016 518.191 458.042C518.191 459.068 517.579 459.662 516.337 459.662C515.095 459.662 514.447 459.068 514.447 458.042ZM516.427 466.106C514.789 466.106 513.799 465.692 513.799 464.774C513.799 464.18 514.267 463.784 515.077 463.64H515.149C515.923 463.658 516.931 463.586 517.705 463.604C518.929 463.604 519.415 463.964 519.415 464.648C519.415 465.62 518.173 466.106 516.427 466.106ZM530.028 459.23C530.028 456.458 528.606 454.91 526.158 454.91C523.458 454.91 521.892 456.872 521.892 459.734C521.892 462.524 523.368 464.18 526.068 464.18C528.264 464.18 529.632 463.1 529.974 461.39L528.444 461.012C528.21 462.236 527.346 462.794 526.104 462.794C524.466 462.794 523.638 461.786 523.62 459.662H530.01C530.01 459.572 530.028 459.518 530.028 459.23ZM526.086 456.26C527.454 456.26 528.228 457.124 528.264 458.51H523.71C523.962 457.034 524.79 456.26 526.086 456.26Z" fill="black"/>
<path d="M419.238 435.746H427.168V439.164H419.238V448.148H415.605V439.164H407.676V435.746H415.605V427.445H419.238V435.746Z" fill="black"/>
<path d="M249.238 435.746H257.168V439.164H249.238V448.148H245.605V439.164H237.676V435.746H245.605V427.445H249.238V435.746Z" fill="black"/>
<path d="M590.238 441.746H598.168V445.164H590.238V454.148H586.605V445.164H578.676V441.746H586.605V433.445H590.238V441.746Z" fill="black"/>
<path d="M335.939 199.06C336.524 199.646 337.474 199.647 338.06 199.061L347.613 189.522C348.199 188.937 348.2 187.987 347.614 187.401C347.029 186.815 346.079 186.814 345.493 187.4L337.002 195.879L328.522 187.387C327.937 186.801 326.987 186.8 326.401 187.386C325.815 187.971 325.814 188.921 326.4 189.507L335.939 199.06ZM335.527 160.999L335.5 197.999L338.5 198.001L338.527 161.001L335.527 160.999Z" fill="black"/>
<path d="M416.939 368.06C417.524 368.646 418.474 368.647 419.06 368.061L428.613 358.522C429.199 357.937 429.2 356.987 428.614 356.401C428.029 355.815 427.079 355.814 426.493 356.4L418.002 364.879L409.522 356.387C408.937 355.801 407.987 355.8 407.401 356.386C406.815 356.971 406.814 357.921 407.4 358.507L416.939 368.06ZM416.527 329.999L416.5 366.999L419.5 367.001L419.527 330.001L416.527 329.999Z" fill="black"/>
</svg>
