<svg width="703" height="115" viewBox="0 0 703 115" fill="none" xmlns="http://www.w3.org/2000/svg">
<rect width="703" height="115" fill="white"/>
<path d="M384 60C384 55.3406 384 53.0109 384.761 51.1732C385.776 48.7229 387.723 46.7761 390.173 45.7612C392.011 45 394.341 45 399 45H419C423.659 45 425.989 45 427.827 45.7612C430.277 46.7761 432.224 48.7229 433.239 51.1732C434 53.0109 434 55.3406 434 60V80C434 84.6594 434 86.9891 433.239 88.8268C432.224 91.2771 430.277 93.2239 427.827 94.2388C425.989 95 423.659 95 419 95H399C394.341 95 392.011 95 390.173 94.2388C387.723 93.2239 385.776 91.2771 384.761 88.8268C384 86.9891 384 84.6594 384 80V60Z" fill="#142032"/>
<path d="M354.539 30.84C356.279 30.84 357.611 29.892 357.611 28.164V27.972C357.611 26.184 356.231 25.2 354.647 25.2H351.047V33H353.039V30.84H354.539ZM354.443 26.724C355.319 26.724 355.619 27.264 355.619 28.068C355.619 28.788 355.295 29.304 354.383 29.304H353.039V26.724H354.443ZM361.964 26.724C362.84 26.724 363.104 27.252 363.104 27.732C363.104 28.32 362.792 28.848 361.832 28.848H360.632V26.724H361.964ZM365.036 27.684C365.036 26.016 363.656 25.2 362.012 25.2H358.652V33H360.632V30.264H361.268L363.248 33H365.348V32.76L363.332 30.096C364.388 29.748 365.036 28.944 365.036 27.876V27.684ZM366.246 25.2V33H371.646V31.392H368.226V29.88H371.13V28.236H368.226V26.796H371.646V25.2H366.246ZM375.927 35.34C376.695 35.34 377.571 35.124 377.571 34.308C377.571 33.912 377.151 33.612 376.755 33.552L376.851 33.168C378.639 33.012 379.983 31.92 380.175 30.132V29.964H378.207C378.123 30.864 377.619 31.464 376.527 31.464C375.135 31.464 374.511 30.372 374.511 29.088C374.511 27.816 375.135 26.724 376.527 26.724C377.499 26.724 378.051 27.18 378.195 28.092H380.175V27.936C379.983 26.112 378.351 25.02 376.431 25.02C374.223 25.02 372.435 26.676 372.435 28.98V29.268C372.435 31.44 373.959 32.928 375.915 33.156L375.651 33.756L375.723 33.888C376.107 33.9 376.299 34.008 376.299 34.212C376.299 34.392 376.071 34.488 375.723 34.488C375.507 34.488 375.243 34.428 374.943 34.296H374.751V35.16C375.039 35.268 375.531 35.34 375.927 35.34ZM380.884 29.244C380.884 31.584 382.684 33.18 385 33.18C387.316 33.18 389.116 31.584 389.116 29.244V28.956C389.116 26.616 387.304 25.02 385 25.02C382.696 25.02 380.884 26.616 380.884 28.956V29.244ZM382.96 29.1C382.96 27.756 383.632 26.688 384.988 26.688C386.368 26.688 387.04 27.756 387.04 29.1C387.04 30.444 386.308 31.512 384.988 31.512C383.692 31.512 382.96 30.444 382.96 29.1ZM396.168 26.724C397.14 26.724 397.692 27.18 397.836 28.092H399.816V27.936C399.624 26.112 397.992 25.02 396.072 25.02C393.864 25.02 392.076 26.676 392.076 28.98V29.268C392.076 31.644 393.876 33.18 396.072 33.18C398.064 33.18 399.588 32.064 399.816 30.132V29.964H397.848C397.764 30.864 397.26 31.464 396.168 31.464C394.776 31.464 394.152 30.372 394.152 29.088C394.152 27.816 394.776 26.724 396.168 26.724ZM400.525 29.244C400.525 31.584 402.325 33.18 404.641 33.18C406.957 33.18 408.757 31.584 408.757 29.244V28.956C408.757 26.616 406.945 25.02 404.641 25.02C402.337 25.02 400.525 26.616 400.525 28.956V29.244ZM402.601 29.1C402.601 27.756 403.273 26.688 404.629 26.688C406.009 26.688 406.681 27.756 406.681 29.1C406.681 30.444 405.949 31.512 404.629 31.512C403.333 31.512 402.601 30.444 402.601 29.1ZM416.694 29.22C416.862 28.824 417.066 28.02 417.126 27.516H417.15C417.114 28.02 417.162 28.824 417.222 29.328L417.75 33H419.706V32.784L418.566 25.2H416.694L414.594 30.24H414.57L412.494 25.2H410.574L409.386 32.784V33H411.282L411.81 29.436C411.87 28.956 411.87 28.032 411.834 27.516H411.858C411.954 27.984 412.23 28.98 412.362 29.268L413.826 32.88H415.242L416.694 29.22ZM424.476 30.84C426.216 30.84 427.548 29.892 427.548 28.164V27.972C427.548 26.184 426.168 25.2 424.584 25.2H420.984V33H422.976V30.84H424.476ZM424.38 26.724C425.256 26.724 425.556 27.264 425.556 28.068C425.556 28.788 425.232 29.304 424.32 29.304H422.976V26.724H424.38ZM435.262 25.2H433.318V30.324C433.318 31.14 432.694 31.536 431.962 31.536C431.098 31.536 430.546 31.14 430.546 30.324V25.2H428.542V30.012C428.542 32.076 429.67 33.18 431.914 33.18C434.122 33.18 435.262 32.076 435.262 30.012V25.2ZM436.395 26.796H438.615V33H440.595V26.796H442.731V25.2H436.395V26.796ZM446.269 27.024C446.365 27.456 446.545 28.008 446.701 28.452L447.301 30.108H445.213L445.813 28.452C445.969 28.008 446.149 27.456 446.245 27.024H446.269ZM448.345 33H450.361V32.784L447.313 25.2H445.177L442.129 32.784V33H444.169L444.661 31.644H447.853L448.345 33ZM451.207 25.2V33H454.543C456.511 33 458.347 31.74 458.347 29.244V28.956C458.347 26.496 456.511 25.2 454.555 25.2H451.207ZM454.447 26.748C455.695 26.748 456.295 27.624 456.295 29.064C456.295 30.504 455.731 31.452 454.423 31.452H453.163V26.748H454.447ZM459.142 29.244C459.142 31.584 460.942 33.18 463.258 33.18C465.574 33.18 467.374 31.584 467.374 29.244V28.956C467.374 26.616 465.562 25.02 463.258 25.02C460.954 25.02 459.142 26.616 459.142 28.956V29.244ZM461.218 29.1C461.218 27.756 461.89 26.688 463.246 26.688C464.626 26.688 465.298 27.756 465.298 29.1C465.298 30.444 464.566 31.512 463.246 31.512C461.95 31.512 461.218 30.444 461.218 29.1Z" fill="black"/>
<path d="M260 60C260 55.3406 260 53.0109 260.761 51.1732C261.776 48.7229 263.723 46.7761 266.173 45.7612C268.011 45 270.341 45 275 45H295C299.659 45 301.989 45 303.827 45.7612C306.277 46.7761 308.224 48.7229 309.239 51.1732C310 53.0109 310 55.3406 310 60V80C310 84.6594 310 86.9891 309.239 88.8268C308.224 91.2771 306.277 93.2239 303.827 94.2388C301.989 95 299.659 95 295 95H275C270.341 95 268.011 95 266.173 94.2388C263.723 93.2239 261.776 91.2771 260.761 88.8268C260 86.9891 260 84.6594 260 80V60Z" fill="#F71963"/>
<path d="M253.312 30.84C255.052 30.84 256.384 29.892 256.384 28.164V27.972C256.384 26.184 255.004 25.2 253.42 25.2H249.82V33H251.812V30.84H253.312ZM253.216 26.724C254.092 26.724 254.392 27.264 254.392 28.068C254.392 28.788 254.068 29.304 253.156 29.304H251.812V26.724H253.216ZM260.738 26.724C261.614 26.724 261.878 27.252 261.878 27.732C261.878 28.32 261.566 28.848 260.606 28.848H259.406V26.724H260.738ZM263.81 27.684C263.81 26.016 262.43 25.2 260.786 25.2H257.426V33H259.406V30.264H260.042L262.022 33H264.122V32.76L262.106 30.096C263.162 29.748 263.81 28.944 263.81 27.876V27.684ZM265.019 25.2V33H270.419V31.392H266.999V29.88H269.903V28.236H266.999V26.796H270.419V25.2H265.019ZM274.701 35.34C275.469 35.34 276.345 35.124 276.345 34.308C276.345 33.912 275.925 33.612 275.529 33.552L275.625 33.168C277.413 33.012 278.757 31.92 278.949 30.132V29.964H276.98C276.897 30.864 276.393 31.464 275.301 31.464C273.909 31.464 273.285 30.372 273.285 29.088C273.285 27.816 273.909 26.724 275.301 26.724C276.273 26.724 276.825 27.18 276.969 28.092H278.949V27.936C278.757 26.112 277.125 25.02 275.205 25.02C272.997 25.02 271.208 26.676 271.208 28.98V29.268C271.208 31.44 272.733 32.928 274.689 33.156L274.425 33.756L274.497 33.888C274.881 33.9 275.073 34.008 275.073 34.212C275.073 34.392 274.845 34.488 274.497 34.488C274.281 34.488 274.017 34.428 273.717 34.296H273.525V35.16C273.812 35.268 274.305 35.34 274.701 35.34ZM279.658 29.244C279.658 31.584 281.458 33.18 283.774 33.18C286.09 33.18 287.89 31.584 287.89 29.244V28.956C287.89 26.616 286.078 25.02 283.774 25.02C281.47 25.02 279.658 26.616 279.658 28.956V29.244ZM281.734 29.1C281.734 27.756 282.406 26.688 283.762 26.688C285.142 26.688 285.814 27.756 285.814 29.1C285.814 30.444 285.082 31.512 283.762 31.512C282.466 31.512 281.734 30.444 281.734 29.1ZM296.237 28.968C296.861 28.716 297.269 28.128 297.269 27.36V27.24C297.269 25.752 295.985 25.2 294.317 25.2H291.281V33H294.665C296.357 33 297.533 32.364 297.533 30.876V30.756C297.533 29.928 296.957 29.184 296.237 28.992V28.968ZM294.473 26.664C295.037 26.664 295.265 27.048 295.265 27.432C295.265 27.768 295.061 28.32 294.449 28.32H293.189V26.664H294.473ZM294.581 29.784C295.409 29.784 295.565 30.408 295.565 30.696C295.565 31.128 295.421 31.524 294.569 31.524H293.189V29.784H294.581ZM302.059 27.024C302.155 27.456 302.335 28.008 302.491 28.452L303.091 30.108H301.003L301.603 28.452C301.759 28.008 301.939 27.456 302.035 27.024H302.059ZM304.135 33H306.151V32.784L303.103 25.2H300.967L297.919 32.784V33H299.959L300.451 31.644H303.643L304.135 33ZM306.732 27.564C306.732 28.104 307.008 28.692 307.332 29.016C307.908 29.592 309.156 29.76 310.02 30.084C310.704 30.312 310.836 30.528 310.836 30.948C310.836 31.392 310.416 31.74 309.744 31.74C309.024 31.74 308.544 31.452 308.508 30.744H306.576V30.912C306.732 32.58 308.028 33.18 309.672 33.18C311.184 33.18 312.78 32.556 312.78 30.684V30.564C312.78 29.976 312.492 29.388 312.168 29.064C311.592 28.488 310.392 28.236 309.6 28.02C309.072 27.876 308.724 27.732 308.724 27.216C308.724 26.796 309.06 26.508 309.732 26.508C310.416 26.508 310.692 26.856 310.728 27.3H312.612V27.144C312.48 25.608 311.184 25.056 309.672 25.056C308.256 25.056 306.732 25.68 306.732 27.444V27.564ZM314.039 25.2V33H319.439V31.392H316.019V29.88H318.923V28.236H316.019V26.796H319.439V25.2H314.039Z" fill="black"/>
<path d="M343.278 64.806H350.726V62.958H343.278V64.806ZM343.278 67.858H350.726V66.024H343.278V67.858Z" fill="black"/>
</svg>
