<svg width="703" height="115" viewBox="0 0 703 115" fill="none" xmlns="http://www.w3.org/2000/svg">
<rect width="703" height="115" fill="white"/>
<path d="M528 60C528 55.3406 528 53.0109 528.761 51.1732C529.776 48.7229 531.723 46.7761 534.173 45.7612C536.011 45 538.341 45 543 45H563C567.659 45 569.989 45 571.827 45.7612C574.277 46.7761 576.224 48.7229 577.239 51.1732C578 53.0109 578 55.3406 578 60V80C578 84.6594 578 86.9891 577.239 88.8268C576.224 91.2771 574.277 93.2239 571.827 94.2388C569.989 95 567.659 95 563 95H543C538.341 95 536.011 95 534.173 94.2388C531.723 93.2239 529.776 91.2771 528.761 88.8268C528 86.9891 528 84.6594 528 80V60Z" fill="#142032"/>
<path d="M498.539 30.84C500.279 30.84 501.611 29.892 501.611 28.164V27.972C501.611 26.184 500.231 25.2 498.647 25.2H495.047V33H497.039V30.84H498.539ZM498.443 26.724C499.319 26.724 499.619 27.264 499.619 28.068C499.619 28.788 499.295 29.304 498.383 29.304H497.039V26.724H498.443ZM505.964 26.724C506.84 26.724 507.104 27.252 507.104 27.732C507.104 28.32 506.792 28.848 505.832 28.848H504.632V26.724H505.964ZM509.036 27.684C509.036 26.016 507.656 25.2 506.012 25.2H502.652V33H504.632V30.264H505.268L507.248 33H509.348V32.76L507.332 30.096C508.388 29.748 509.036 28.944 509.036 27.876V27.684ZM510.246 25.2V33H515.646V31.392H512.226V29.88H515.13V28.236H512.226V26.796H515.646V25.2H510.246ZM519.927 35.34C520.695 35.34 521.571 35.124 521.571 34.308C521.571 33.912 521.151 33.612 520.755 33.552L520.851 33.168C522.639 33.012 523.983 31.92 524.175 30.132V29.964H522.207C522.123 30.864 521.619 31.464 520.527 31.464C519.135 31.464 518.511 30.372 518.511 29.088C518.511 27.816 519.135 26.724 520.527 26.724C521.499 26.724 522.051 27.18 522.195 28.092H524.175V27.936C523.983 26.112 522.351 25.02 520.431 25.02C518.223 25.02 516.435 26.676 516.435 28.98V29.268C516.435 31.44 517.959 32.928 519.915 33.156L519.651 33.756L519.723 33.888C520.107 33.9 520.299 34.008 520.299 34.212C520.299 34.392 520.071 34.488 519.723 34.488C519.507 34.488 519.243 34.428 518.943 34.296H518.751V35.16C519.039 35.268 519.531 35.34 519.927 35.34ZM524.884 29.244C524.884 31.584 526.684 33.18 529 33.18C531.316 33.18 533.116 31.584 533.116 29.244V28.956C533.116 26.616 531.304 25.02 529 25.02C526.696 25.02 524.884 26.616 524.884 28.956V29.244ZM526.96 29.1C526.96 27.756 527.632 26.688 528.988 26.688C530.368 26.688 531.04 27.756 531.04 29.1C531.04 30.444 530.308 31.512 528.988 31.512C527.692 31.512 526.96 30.444 526.96 29.1ZM540.168 26.724C541.14 26.724 541.692 27.18 541.836 28.092H543.816V27.936C543.624 26.112 541.992 25.02 540.072 25.02C537.864 25.02 536.076 26.676 536.076 28.98V29.268C536.076 31.644 537.876 33.18 540.072 33.18C542.064 33.18 543.588 32.064 543.816 30.132V29.964H541.848C541.764 30.864 541.26 31.464 540.168 31.464C538.776 31.464 538.152 30.372 538.152 29.088C538.152 27.816 538.776 26.724 540.168 26.724ZM544.525 29.244C544.525 31.584 546.325 33.18 548.641 33.18C550.957 33.18 552.757 31.584 552.757 29.244V28.956C552.757 26.616 550.945 25.02 548.641 25.02C546.337 25.02 544.525 26.616 544.525 28.956V29.244ZM546.601 29.1C546.601 27.756 547.273 26.688 548.629 26.688C550.009 26.688 550.681 27.756 550.681 29.1C550.681 30.444 549.949 31.512 548.629 31.512C547.333 31.512 546.601 30.444 546.601 29.1ZM560.694 29.22C560.862 28.824 561.066 28.02 561.126 27.516H561.15C561.114 28.02 561.162 28.824 561.222 29.328L561.75 33H563.706V32.784L562.566 25.2H560.694L558.594 30.24H558.57L556.494 25.2H554.574L553.386 32.784V33H555.282L555.81 29.436C555.87 28.956 555.87 28.032 555.834 27.516H555.858C555.954 27.984 556.23 28.98 556.362 29.268L557.826 32.88H559.242L560.694 29.22ZM568.476 30.84C570.216 30.84 571.548 29.892 571.548 28.164V27.972C571.548 26.184 570.168 25.2 568.584 25.2H564.984V33H566.976V30.84H568.476ZM568.38 26.724C569.256 26.724 569.556 27.264 569.556 28.068C569.556 28.788 569.232 29.304 568.32 29.304H566.976V26.724H568.38ZM579.262 25.2H577.318V30.324C577.318 31.14 576.694 31.536 575.962 31.536C575.098 31.536 574.546 31.14 574.546 30.324V25.2H572.542V30.012C572.542 32.076 573.67 33.18 575.914 33.18C578.122 33.18 579.262 32.076 579.262 30.012V25.2ZM580.395 26.796H582.615V33H584.595V26.796H586.731V25.2H580.395V26.796ZM590.269 27.024C590.365 27.456 590.545 28.008 590.701 28.452L591.301 30.108H589.213L589.813 28.452C589.969 28.008 590.149 27.456 590.245 27.024H590.269ZM592.345 33H594.361V32.784L591.313 25.2H589.177L586.129 32.784V33H588.169L588.661 31.644H591.853L592.345 33ZM595.207 25.2V33H598.543C600.511 33 602.347 31.74 602.347 29.244V28.956C602.347 26.496 600.511 25.2 598.555 25.2H595.207ZM598.447 26.748C599.695 26.748 600.295 27.624 600.295 29.064C600.295 30.504 599.731 31.452 598.423 31.452H597.163V26.748H598.447ZM603.142 29.244C603.142 31.584 604.942 33.18 607.258 33.18C609.574 33.18 611.374 31.584 611.374 29.244V28.956C611.374 26.616 609.562 25.02 607.258 25.02C604.954 25.02 603.142 26.616 603.142 28.956V29.244ZM605.218 29.1C605.218 27.756 605.89 26.688 607.246 26.688C608.626 26.688 609.298 27.756 609.298 29.1C609.298 30.444 608.566 31.512 607.246 31.512C605.95 31.512 605.218 30.444 605.218 29.1Z" fill="black"/>
<path d="M117 60C117 55.3406 117 53.0109 117.761 51.1732C118.776 48.7229 120.723 46.7761 123.173 45.7612C125.011 45 127.341 45 132 45H152C156.659 45 158.989 45 160.827 45.7612C163.277 46.7761 165.224 48.7229 166.239 51.1732C167 53.0109 167 55.3406 167 60V80C167 84.6594 167 86.9891 166.239 88.8268C165.224 91.2771 163.277 93.2239 160.827 94.2388C158.989 95 156.659 95 152 95H132C127.341 95 125.011 95 123.173 94.2388C120.723 93.2239 118.776 91.2771 117.761 88.8268C117 86.9891 117 84.6594 117 80V60Z" fill="#F71963"/>
<path d="M110.312 30.84C112.052 30.84 113.384 29.892 113.384 28.164V27.972C113.384 26.184 112.004 25.2 110.42 25.2H106.82V33H108.812V30.84H110.312ZM110.216 26.724C111.092 26.724 111.392 27.264 111.392 28.068C111.392 28.788 111.068 29.304 110.156 29.304H108.812V26.724H110.216ZM117.738 26.724C118.614 26.724 118.878 27.252 118.878 27.732C118.878 28.32 118.566 28.848 117.606 28.848H116.406V26.724H117.738ZM120.81 27.684C120.81 26.016 119.43 25.2 117.786 25.2H114.426V33H116.406V30.264H117.042L119.022 33H121.122V32.76L119.106 30.096C120.162 29.748 120.81 28.944 120.81 27.876V27.684ZM122.019 25.2V33H127.419V31.392H123.999V29.88H126.903V28.236H123.999V26.796H127.419V25.2H122.019ZM131.701 35.34C132.469 35.34 133.345 35.124 133.345 34.308C133.345 33.912 132.925 33.612 132.529 33.552L132.625 33.168C134.413 33.012 135.757 31.92 135.949 30.132V29.964H133.98C133.897 30.864 133.393 31.464 132.301 31.464C130.909 31.464 130.285 30.372 130.285 29.088C130.285 27.816 130.909 26.724 132.301 26.724C133.273 26.724 133.825 27.18 133.969 28.092H135.949V27.936C135.757 26.112 134.125 25.02 132.205 25.02C129.997 25.02 128.208 26.676 128.208 28.98V29.268C128.208 31.44 129.733 32.928 131.689 33.156L131.425 33.756L131.497 33.888C131.881 33.9 132.073 34.008 132.073 34.212C132.073 34.392 131.845 34.488 131.497 34.488C131.281 34.488 131.017 34.428 130.717 34.296H130.525V35.16C130.812 35.268 131.305 35.34 131.701 35.34ZM136.658 29.244C136.658 31.584 138.458 33.18 140.774 33.18C143.09 33.18 144.89 31.584 144.89 29.244V28.956C144.89 26.616 143.078 25.02 140.774 25.02C138.47 25.02 136.658 26.616 136.658 28.956V29.244ZM138.734 29.1C138.734 27.756 139.406 26.688 140.762 26.688C142.142 26.688 142.814 27.756 142.814 29.1C142.814 30.444 142.082 31.512 140.762 31.512C139.466 31.512 138.734 30.444 138.734 29.1ZM153.237 28.968C153.861 28.716 154.269 28.128 154.269 27.36V27.24C154.269 25.752 152.985 25.2 151.317 25.2H148.281V33H151.665C153.357 33 154.533 32.364 154.533 30.876V30.756C154.533 29.928 153.957 29.184 153.237 28.992V28.968ZM151.473 26.664C152.037 26.664 152.265 27.048 152.265 27.432C152.265 27.768 152.061 28.32 151.449 28.32H150.189V26.664H151.473ZM151.581 29.784C152.409 29.784 152.565 30.408 152.565 30.696C152.565 31.128 152.421 31.524 151.569 31.524H150.189V29.784H151.581ZM159.059 27.024C159.155 27.456 159.335 28.008 159.491 28.452L160.091 30.108H158.003L158.603 28.452C158.759 28.008 158.939 27.456 159.035 27.024H159.059ZM161.135 33H163.151V32.784L160.103 25.2H157.967L154.919 32.784V33H156.959L157.451 31.644H160.643L161.135 33ZM163.732 27.564C163.732 28.104 164.008 28.692 164.332 29.016C164.908 29.592 166.156 29.76 167.02 30.084C167.704 30.312 167.836 30.528 167.836 30.948C167.836 31.392 167.416 31.74 166.744 31.74C166.024 31.74 165.544 31.452 165.508 30.744H163.576V30.912C163.732 32.58 165.028 33.18 166.672 33.18C168.184 33.18 169.78 32.556 169.78 30.684V30.564C169.78 29.976 169.492 29.388 169.168 29.064C168.592 28.488 167.392 28.236 166.6 28.02C166.072 27.876 165.724 27.732 165.724 27.216C165.724 26.796 166.06 26.508 166.732 26.508C167.416 26.508 167.692 26.856 167.728 27.3H169.612V27.144C169.48 25.608 168.184 25.056 166.672 25.056C165.256 25.056 163.732 25.68 163.732 27.444V27.564ZM171.039 25.2V33H176.439V31.392H173.019V29.88H175.923V28.236H173.019V26.796H176.439V25.2H171.039Z" fill="black"/>
<path d="M224.773 26.724C225.649 26.724 225.913 27.252 225.913 27.732C225.913 28.32 225.601 28.848 224.641 28.848H223.441V26.724H224.773ZM227.845 27.684C227.845 26.016 226.465 25.2 224.821 25.2H221.461V33H223.441V30.264H224.077L226.057 33H228.157V32.76L226.141 30.096C227.197 29.748 227.845 28.944 227.845 27.876V27.684ZM229.055 25.2V33H234.455V31.392H231.035V29.88H233.939V28.236H231.035V26.796H234.455V25.2H229.055ZM243.104 28.68H239.336V30.264H241.34V31.032C240.92 31.356 240.38 31.572 239.624 31.572C238.124 31.572 237.284 30.492 237.284 29.112C237.284 27.588 237.968 26.664 239.396 26.664C240.272 26.664 240.86 26.964 240.992 27.672H242.924V27.516C242.672 25.752 241.292 25.02 239.336 25.02C237.044 25.02 235.244 26.604 235.244 28.956V29.244C235.244 31.488 236.888 33.18 239.444 33.18C241.352 33.18 242.6 32.256 243.104 31.596V28.68ZM247.859 26.724C248.735 26.724 248.999 27.252 248.999 27.732C248.999 28.32 248.687 28.848 247.727 28.848H246.527V26.724H247.859ZM250.931 27.684C250.931 26.016 249.551 25.2 247.907 25.2H244.547V33H246.527V30.264H247.163L249.143 33H251.243V32.76L249.227 30.096C250.283 29.748 250.931 28.944 250.931 27.876V27.684ZM255.477 27.024C255.573 27.456 255.753 28.008 255.909 28.452L256.509 30.108H254.421L255.021 28.452C255.177 28.008 255.357 27.456 255.453 27.024H255.477ZM257.553 33H259.569V32.784L256.521 25.2H254.385L251.337 32.784V33H253.377L253.869 31.644H257.061L257.553 33ZM262.57 25.2V33H265.906C267.874 33 269.71 31.74 269.71 29.244V28.956C269.71 26.496 267.874 25.2 265.918 25.2H262.57ZM265.81 26.748C267.058 26.748 267.658 27.624 267.658 29.064C267.658 30.504 267.094 31.452 265.786 31.452H264.526V26.748H265.81ZM270.937 25.2V33H276.337V31.392H272.917V29.88H275.821V28.236H272.917V26.796H276.337V25.2H270.937ZM283.383 30.84C285.122 30.84 286.455 29.892 286.455 28.164V27.972C286.455 26.184 285.075 25.2 283.491 25.2H279.891V33H281.883V30.84H283.383ZM283.287 26.724C284.163 26.724 284.463 27.264 284.463 28.068C284.463 28.788 284.139 29.304 283.227 29.304H281.883V26.724H283.287ZM290.808 26.724C291.684 26.724 291.948 27.252 291.948 27.732C291.948 28.32 291.636 28.848 290.676 28.848H289.476V26.724H290.808ZM293.88 27.684C293.88 26.016 292.5 25.2 290.856 25.2H287.496V33H289.476V30.264H290.112L292.092 33H294.192V32.76L292.176 30.096C293.232 29.748 293.88 28.944 293.88 27.876V27.684ZM295.09 25.2V33H300.49V31.392H297.07V29.88H299.974V28.236H297.07V26.796H300.49V25.2H295.09ZM304.771 35.34C305.539 35.34 306.415 35.124 306.415 34.308C306.415 33.912 305.995 33.612 305.599 33.552L305.695 33.168C307.483 33.012 308.827 31.92 309.019 30.132V29.964H307.051C306.967 30.864 306.463 31.464 305.371 31.464C303.979 31.464 303.355 30.372 303.355 29.088C303.355 27.816 303.979 26.724 305.371 26.724C306.343 26.724 306.895 27.18 307.039 28.092H309.019V27.936C308.827 26.112 307.195 25.02 305.275 25.02C303.067 25.02 301.279 26.676 301.279 28.98V29.268C301.279 31.44 302.803 32.928 304.759 33.156L304.495 33.756L304.567 33.888C304.951 33.9 305.143 34.008 305.143 34.212C305.143 34.392 304.915 34.488 304.567 34.488C304.351 34.488 304.087 34.428 303.787 34.296H303.595V35.16C303.883 35.268 304.375 35.34 304.771 35.34ZM309.728 29.244C309.728 31.584 311.528 33.18 313.844 33.18C316.16 33.18 317.96 31.584 317.96 29.244V28.956C317.96 26.616 316.148 25.02 313.844 25.02C311.54 25.02 309.728 26.616 309.728 28.956V29.244ZM311.804 29.1C311.804 27.756 312.476 26.688 313.832 26.688C315.212 26.688 315.884 27.756 315.884 29.1C315.884 30.444 315.152 31.512 313.832 31.512C312.536 31.512 311.804 30.444 311.804 29.1Z" fill="black"/>
<path d="M477.278 65.806H484.726V63.958H477.278V65.806ZM477.278 68.858H484.726V67.024H477.278V68.858Z" fill="black"/>
<path d="M201.48 72L202.964 69.9L204.448 72H206.8V71.762L204.28 68.248L206.492 65.238V65H204.238L203.048 66.778L201.872 65H199.52V65.238L201.746 68.304L199.198 71.762V72H201.48Z" fill="black"/>
<path d="M245 70C245 56.1929 256.193 45 270 45V45C283.807 45 295 56.1929 295 70V70C295 83.8071 283.807 95 270 95V95C256.193 95 245 83.8071 245 70V70Z" fill="#00BBD4"/>
<path d="M354.142 30.84C355.882 30.84 357.214 29.892 357.214 28.164V27.972C357.214 26.184 355.834 25.2 354.25 25.2H350.65V33H352.642V30.84H354.142ZM354.046 26.724C354.922 26.724 355.222 27.264 355.222 28.068C355.222 28.788 354.898 29.304 353.986 29.304H352.642V26.724H354.046ZM361.568 26.724C362.444 26.724 362.708 27.252 362.708 27.732C362.708 28.32 362.396 28.848 361.436 28.848H360.236V26.724H361.568ZM364.64 27.684C364.64 26.016 363.26 25.2 361.616 25.2H358.256V33H360.236V30.264H360.872L362.852 33H364.952V32.76L362.936 30.096C363.992 29.748 364.64 28.944 364.64 27.876V27.684ZM365.849 25.2V33H371.249V31.392H367.829V29.88H370.733V28.236H367.829V26.796H371.249V25.2H365.849ZM375.531 35.34C376.299 35.34 377.175 35.124 377.175 34.308C377.175 33.912 376.755 33.612 376.359 33.552L376.455 33.168C378.243 33.012 379.587 31.92 379.779 30.132V29.964H377.811C377.727 30.864 377.223 31.464 376.131 31.464C374.739 31.464 374.115 30.372 374.115 29.088C374.115 27.816 374.739 26.724 376.131 26.724C377.103 26.724 377.655 27.18 377.799 28.092H379.779V27.936C379.587 26.112 377.955 25.02 376.035 25.02C373.827 25.02 372.039 26.676 372.039 28.98V29.268C372.039 31.44 373.563 32.928 375.519 33.156L375.255 33.756L375.327 33.888C375.711 33.9 375.903 34.008 375.903 34.212C375.903 34.392 375.675 34.488 375.327 34.488C375.111 34.488 374.847 34.428 374.547 34.296H374.355V35.16C374.643 35.268 375.135 35.34 375.531 35.34ZM380.488 29.244C380.488 31.584 382.288 33.18 384.604 33.18C386.92 33.18 388.72 31.584 388.72 29.244V28.956C388.72 26.616 386.908 25.02 384.604 25.02C382.3 25.02 380.488 26.616 380.488 28.956V29.244ZM382.564 29.1C382.564 27.756 383.236 26.688 384.592 26.688C385.972 26.688 386.644 27.756 386.644 29.1C386.644 30.444 385.912 31.512 384.592 31.512C383.296 31.512 382.564 30.444 382.564 29.1ZM395.603 30.84C397.343 30.84 398.675 29.892 398.675 28.164V27.972C398.675 26.184 397.295 25.2 395.711 25.2H392.111V33H394.103V30.84H395.603ZM395.507 26.724C396.383 26.724 396.683 27.264 396.683 28.068C396.683 28.788 396.359 29.304 395.447 29.304H394.103V26.724H395.507ZM399.453 27.564C399.453 28.104 399.729 28.692 400.053 29.016C400.629 29.592 401.877 29.76 402.741 30.084C403.425 30.312 403.557 30.528 403.557 30.948C403.557 31.392 403.137 31.74 402.465 31.74C401.745 31.74 401.265 31.452 401.229 30.744H399.297V30.912C399.453 32.58 400.749 33.18 402.393 33.18C403.905 33.18 405.501 32.556 405.501 30.684V30.564C405.501 29.976 405.213 29.388 404.889 29.064C404.313 28.488 403.113 28.236 402.321 28.02C401.793 27.876 401.445 27.732 401.445 27.216C401.445 26.796 401.781 26.508 402.453 26.508C403.137 26.508 403.413 26.856 403.449 27.3H405.333V27.144C405.201 25.608 403.905 25.056 402.393 25.056C400.977 25.056 399.453 25.68 399.453 27.444V27.564ZM408.74 33V25.2H406.76V33H408.74ZM414.041 26.724C415.013 26.724 415.565 27.18 415.709 28.092H417.689V27.936C417.497 26.112 415.865 25.02 413.945 25.02C411.737 25.02 409.949 26.676 409.949 28.98V29.268C409.949 31.644 411.749 33.18 413.945 33.18C415.937 33.18 417.461 32.064 417.689 30.132V29.964H415.721C415.637 30.864 415.133 31.464 414.041 31.464C412.649 31.464 412.025 30.372 412.025 29.088C412.025 27.816 412.649 26.724 414.041 26.724ZM418.398 29.244C418.398 31.584 420.198 33.18 422.514 33.18C424.83 33.18 426.63 31.584 426.63 29.244V28.956C426.63 26.616 424.818 25.02 422.514 25.02C420.21 25.02 418.398 26.616 418.398 28.956V29.244ZM420.474 29.1C420.474 27.756 421.146 26.688 422.502 26.688C423.882 26.688 424.554 27.756 424.554 29.1C424.554 30.444 423.822 31.512 422.502 31.512C421.206 31.512 420.474 30.444 420.474 29.1ZM427.865 33H433.145V31.428H429.845V25.2H427.865V33ZM433.562 29.244C433.562 31.584 435.362 33.18 437.678 33.18C439.994 33.18 441.794 31.584 441.794 29.244V28.956C441.794 26.616 439.982 25.02 437.678 25.02C435.374 25.02 433.562 26.616 433.562 28.956V29.244ZM435.638 29.1C435.638 27.756 436.31 26.688 437.666 26.688C439.046 26.688 439.718 27.756 439.718 29.1C439.718 30.444 438.986 31.512 437.666 31.512C436.37 31.512 435.638 30.444 435.638 29.1ZM436.346 24.732L439.622 23.496L438.926 22.02L435.866 23.688L436.346 24.732ZM450.457 28.68H446.689V30.264H448.693V31.032C448.273 31.356 447.733 31.572 446.977 31.572C445.477 31.572 444.637 30.492 444.637 29.112C444.637 27.588 445.321 26.664 446.749 26.664C447.625 26.664 448.213 26.964 448.345 27.672H450.277V27.516C450.025 25.752 448.645 25.02 446.689 25.02C444.397 25.02 442.597 26.604 442.597 28.956V29.244C442.597 31.488 444.241 33.18 446.797 33.18C448.705 33.18 449.953 32.256 450.457 31.596V28.68ZM453.88 33V25.2H451.9V33H453.88ZM459.181 26.724C460.153 26.724 460.705 27.18 460.849 28.092H462.829V27.936C462.637 26.112 461.005 25.02 459.085 25.02C456.877 25.02 455.089 26.676 455.089 28.98V29.268C455.089 31.644 456.889 33.18 459.085 33.18C461.077 33.18 462.601 32.064 462.829 30.132V29.964H460.861C460.777 30.864 460.273 31.464 459.181 31.464C457.789 31.464 457.165 30.372 457.165 29.088C457.165 27.816 457.789 26.724 459.181 26.724ZM463.539 29.244C463.539 31.584 465.339 33.18 467.655 33.18C469.971 33.18 471.771 31.584 471.771 29.244V28.956C471.771 26.616 469.959 25.02 467.655 25.02C465.351 25.02 463.539 26.616 463.539 28.956V29.244ZM465.615 29.1C465.615 27.756 466.287 26.688 467.643 26.688C469.023 26.688 469.695 27.756 469.695 29.1C469.695 30.444 468.963 31.512 467.643 31.512C466.347 31.512 465.615 30.444 465.615 29.1Z" fill="black"/>
<path d="M335.48 73L336.964 70.9L338.448 73H340.8V72.762L338.28 69.248L340.492 66.238V66H338.238L337.048 67.778L335.872 66H333.52V66.238L335.746 69.304L333.198 72.762V73H335.48Z" fill="black"/>
<path d="M384 71C384 57.1929 395.193 46 409 46V46C422.807 46 434 57.1929 434 71V71C434 84.8071 422.807 96 409 96V96C395.193 96 384 84.8071 384 71V71Z" fill="#D6D8E0"/>
</svg>
