<svg width="703" height="316" viewBox="0 0 703 316" fill="none" xmlns="http://www.w3.org/2000/svg">
<rect width="703" height="316" fill="white"/>
<path d="M258 48C258 43.3406 258 41.0109 258.761 39.1732C259.776 36.7229 261.723 34.7761 264.173 33.7612C266.011 33 268.341 33 273 33H444C448.659 33 450.989 33 452.827 33.7612C455.277 34.7761 457.224 36.7229 458.239 39.1732C459 41.0109 459 43.3406 459 48V268C459 272.659 459 274.989 458.239 276.827C457.224 279.277 455.277 281.224 452.827 282.239C450.989 283 448.659 283 444 283H273C268.341 283 266.011 283 264.173 282.239C261.723 281.224 259.776 279.277 258.761 276.827C258 274.989 258 272.659 258 268V48Z" fill="#F71963"/>
<path d="M280 94C280 89.3406 280 87.0109 280.761 85.1732C281.776 82.7229 283.723 80.7761 286.173 79.7612C288.011 79 290.341 79 295 79H392C396.659 79 398.989 79 400.827 79.7612C403.277 80.7761 405.224 82.7229 406.239 85.1732C407 87.0109 407 89.3406 407 94V222C407 226.659 407 228.989 406.239 230.827C405.224 233.277 403.277 235.224 400.827 236.239C398.989 237 396.659 237 392 237H295C290.341 237 288.011 237 286.173 236.239C283.723 235.224 281.776 233.277 280.761 230.827C280 228.989 280 226.659 280 222V94Z" fill="#142032"/>
<path d="M291.717 95.83H293.567V101H295.217V95.83H296.997V94.5H291.717V95.83ZM299.946 96.02C300.026 96.38 300.176 96.84 300.306 97.21L300.806 98.59H299.066L299.566 97.21C299.696 96.84 299.846 96.38 299.926 96.02H299.946ZM301.676 101H303.356V100.82L300.816 94.5H299.036L296.496 100.82V101H298.196L298.606 99.87H301.266L301.676 101ZM308.19 97.64C308.71 97.43 309.05 96.94 309.05 96.3V96.2C309.05 94.96 307.98 94.5 306.59 94.5H304.06V101H306.88C308.29 101 309.27 100.47 309.27 99.23V99.13C309.27 98.44 308.79 97.82 308.19 97.66V97.64ZM306.72 95.72C307.19 95.72 307.38 96.04 307.38 96.36C307.38 96.64 307.21 97.1 306.7 97.1H305.65V95.72H306.72ZM306.81 98.32C307.5 98.32 307.63 98.84 307.63 99.08C307.63 99.44 307.51 99.77 306.8 99.77H305.65V98.32H306.81ZM310.359 94.5V101H314.859V99.66H312.009V98.4H314.429V97.03H312.009V95.83H314.859V94.5H310.359ZM316.023 101H320.423V99.69H317.673V94.5H316.023V101ZM324.164 96.02C324.244 96.38 324.394 96.84 324.524 97.21L325.024 98.59H323.284L323.784 97.21C323.914 96.84 324.064 96.38 324.144 96.02H324.164ZM325.894 101H327.574V100.82L325.034 94.5H323.254L320.714 100.82V101H322.414L322.824 99.87H325.484L325.894 101ZM330.076 94.5V101H332.856C334.496 101 336.026 99.95 336.026 97.87V97.63C336.026 95.58 334.496 94.5 332.866 94.5H330.076ZM332.776 95.79C333.816 95.79 334.316 96.52 334.316 97.72C334.316 98.92 333.846 99.71 332.756 99.71H331.706V95.79H332.776ZM337.048 94.5V101H341.548V99.66H338.698V98.4H341.118V97.03H338.698V95.83H341.548V94.5H337.048ZM347.419 99.2C348.869 99.2 349.979 98.41 349.979 96.97V96.81C349.979 95.32 348.829 94.5 347.509 94.5H344.509V101H346.169V99.2H347.419ZM347.339 95.77C348.069 95.77 348.319 96.22 348.319 96.89C348.319 97.49 348.049 97.92 347.289 97.92H346.169V95.77H347.339ZM353.607 95.77C354.337 95.77 354.557 96.21 354.557 96.61C354.557 97.1 354.297 97.54 353.497 97.54H352.497V95.77H353.607ZM356.167 96.57C356.167 95.18 355.017 94.5 353.647 94.5H350.847V101H352.497V98.72H353.027L354.677 101H356.427V100.8L354.747 98.58C355.627 98.29 356.167 97.62 356.167 96.73V96.57ZM357.175 94.5V101H361.675V99.66H358.825V98.4H361.245V97.03H358.825V95.83H361.675V94.5H357.175ZM365.243 102.95C365.883 102.95 366.613 102.77 366.613 102.09C366.613 101.76 366.263 101.51 365.933 101.46L366.013 101.14C367.503 101.01 368.623 100.1 368.783 98.61V98.47H367.143C367.073 99.22 366.653 99.72 365.743 99.72C364.583 99.72 364.063 98.81 364.063 97.74C364.063 96.68 364.583 95.77 365.743 95.77C366.553 95.77 367.013 96.15 367.133 96.91H368.783V96.78C368.623 95.26 367.263 94.35 365.663 94.35C363.823 94.35 362.333 95.73 362.333 97.65V97.89C362.333 99.7 363.603 100.94 365.233 101.13L365.013 101.63L365.073 101.74C365.393 101.75 365.553 101.84 365.553 102.01C365.553 102.16 365.363 102.24 365.073 102.24C364.893 102.24 364.673 102.19 364.423 102.08H364.263V102.8C364.503 102.89 364.913 102.95 365.243 102.95ZM369.374 97.87C369.374 99.82 370.874 101.15 372.804 101.15C374.734 101.15 376.234 99.82 376.234 97.87V97.63C376.234 95.68 374.724 94.35 372.804 94.35C370.884 94.35 369.374 95.68 369.374 97.63V97.87ZM371.104 97.75C371.104 96.63 371.664 95.74 372.794 95.74C373.944 95.74 374.504 96.63 374.504 97.75C374.504 98.87 373.894 99.76 372.794 99.76C371.714 99.76 371.104 98.87 371.104 97.75Z" fill="white"/>
<path d="M296.423 129.923C296.423 130.328 296.63 130.769 296.873 131.012C297.305 131.444 298.241 131.57 298.889 131.813C299.402 131.984 299.501 132.146 299.501 132.461C299.501 132.794 299.186 133.055 298.682 133.055C298.142 133.055 297.782 132.839 297.755 132.308H296.306V132.434C296.423 133.685 297.395 134.135 298.628 134.135C299.762 134.135 300.959 133.667 300.959 132.263V132.173C300.959 131.732 300.743 131.291 300.5 131.048C300.068 130.616 299.168 130.427 298.574 130.265C298.178 130.157 297.917 130.049 297.917 129.662C297.917 129.347 298.169 129.131 298.673 129.131C299.186 129.131 299.393 129.392 299.42 129.725H300.833V129.608C300.734 128.456 299.762 128.042 298.628 128.042C297.566 128.042 296.423 128.51 296.423 129.833V129.923ZM305.368 134H307.051V133.838L304.774 130.913L306.952 128.312V128.15H305.35L303.388 130.508V128.15H301.903V134H303.388V131.408L305.368 134ZM312.559 128.15H311.101V131.993C311.101 132.605 310.633 132.902 310.084 132.902C309.436 132.902 309.022 132.605 309.022 131.993V128.15H307.519V131.759C307.519 133.307 308.365 134.135 310.048 134.135C311.704 134.135 312.559 133.307 312.559 131.759V128.15ZM317.366 134V128.114H316.187C316.043 128.888 315.494 128.969 314.801 129.014V130.013H315.917V134H317.366ZM321.719 132.002H325.067V130.742H321.719V132.002ZM330.388 132.38C331.693 132.38 332.692 131.669 332.692 130.373V130.229C332.692 128.888 331.657 128.15 330.469 128.15H327.769V134H329.263V132.38H330.388ZM330.316 129.293C330.973 129.293 331.198 129.698 331.198 130.301C331.198 130.841 330.955 131.228 330.271 131.228H329.263V129.293H330.316ZM334.797 131.876C334.797 131.291 334.932 130.832 335.733 130.832H336.309V129.518C336.192 129.482 335.994 129.464 335.859 129.464C335.283 129.464 334.779 129.815 334.716 130.454H334.689L334.428 129.5H333.384V134H334.797V131.876ZM339.022 129.356C337.726 129.356 336.7 130.274 336.7 131.687V131.84C336.7 133.28 337.807 134.144 339.076 134.144C340.111 134.144 341.029 133.64 341.245 132.596H339.922C339.787 132.947 339.481 133.064 339.112 133.064C338.527 133.064 338.203 132.659 338.14 132.092H341.236C341.245 131.993 341.254 131.777 341.254 131.597C341.254 130.085 340.183 129.356 339.022 129.356ZM338.167 131.192C338.239 130.724 338.509 130.364 339.058 130.364C339.535 130.364 339.85 130.697 339.85 131.192H338.167ZM343.894 135.755C344.47 135.755 345.127 135.593 345.127 134.981C345.127 134.684 344.812 134.459 344.515 134.414L344.587 134.117C345.514 133.973 346.333 133.37 346.432 132.353V132.236H345.145C345.028 132.767 344.767 133.019 344.263 133.019C343.588 133.019 343.282 132.479 343.282 131.75C343.282 131.03 343.588 130.481 344.263 130.481C344.731 130.481 345.046 130.76 345.145 131.264H346.432V131.147C346.333 129.995 345.343 129.356 344.2 129.356C342.904 129.356 341.851 130.301 341.851 131.669V131.84C341.851 133.136 342.751 133.982 343.876 134.126L343.687 134.567L343.741 134.666C344.029 134.675 344.173 134.756 344.173 134.909C344.173 135.044 344.002 135.116 343.741 135.116C343.579 135.116 343.381 135.071 343.156 134.972H343.012V135.62C343.228 135.701 343.597 135.755 343.894 135.755ZM346.904 131.84C346.904 133.28 348.011 134.144 349.325 134.144C350.594 134.144 351.71 133.28 351.71 131.831V131.66C351.71 130.22 350.603 129.356 349.307 129.356C348.011 129.356 346.904 130.22 346.904 131.669V131.84ZM348.389 131.732C348.389 131.057 348.677 130.526 349.307 130.526C349.937 130.526 350.225 131.075 350.225 131.759C350.225 132.434 349.937 132.965 349.307 132.965C348.677 132.965 348.389 132.416 348.389 131.732ZM356.222 134V128.114H355.043C354.899 128.888 354.35 128.969 353.657 129.014V130.013H354.773V134H356.222ZM296.423 141.923C296.423 142.328 296.63 142.769 296.873 143.012C297.305 143.444 298.241 143.57 298.889 143.813C299.402 143.984 299.501 144.146 299.501 144.461C299.501 144.794 299.186 145.055 298.682 145.055C298.142 145.055 297.782 144.839 297.755 144.308H296.306V144.434C296.423 145.685 297.395 146.135 298.628 146.135C299.762 146.135 300.959 145.667 300.959 144.263V144.173C300.959 143.732 300.743 143.291 300.5 143.048C300.068 142.616 299.168 142.427 298.574 142.265C298.178 142.157 297.917 142.049 297.917 141.662C297.917 141.347 298.169 141.131 298.673 141.131C299.186 141.131 299.393 141.392 299.42 141.725H300.833V141.608C300.734 140.456 299.762 140.042 298.628 140.042C297.566 140.042 296.423 140.51 296.423 141.833V141.923ZM305.368 146H307.051V145.838L304.774 142.913L306.952 140.312V140.15H305.35L303.388 142.508V140.15H301.903V146H303.388V143.408L305.368 146ZM312.559 140.15H311.101V143.993C311.101 144.605 310.633 144.902 310.084 144.902C309.436 144.902 309.022 144.605 309.022 143.993V140.15H307.519V143.759C307.519 145.307 308.365 146.135 310.048 146.135C311.704 146.135 312.559 145.307 312.559 143.759V140.15ZM319.355 141.86C319.355 140.609 318.437 140.015 317.249 140.015C316.169 140.015 315.125 140.591 315.125 141.806C315.125 142.103 315.179 142.4 315.242 142.544H316.529V142.382C316.493 142.211 316.475 142.022 316.475 141.905C316.475 141.437 316.745 141.131 317.213 141.131C317.717 141.131 317.951 141.428 317.951 141.896C317.951 142.436 317.771 142.769 317.384 143.165C316.7 143.876 316.007 144.506 315.143 145.199V146H319.481V144.803H318.194C318.014 144.803 317.501 144.812 317.321 144.839V144.821C318.23 144.074 319.355 143.138 319.355 141.986V141.86ZM322.018 144.002H325.366V142.742H322.018V144.002ZM330.687 144.38C331.992 144.38 332.991 143.669 332.991 142.373V142.229C332.991 140.888 331.956 140.15 330.768 140.15H328.068V146H329.562V144.38H330.687ZM330.615 141.293C331.272 141.293 331.497 141.698 331.497 142.301C331.497 142.841 331.254 143.228 330.57 143.228H329.562V141.293H330.615ZM335.095 143.876C335.095 143.291 335.23 142.832 336.031 142.832H336.607V141.518C336.49 141.482 336.292 141.464 336.157 141.464C335.581 141.464 335.077 141.815 335.014 142.454H334.987L334.726 141.5H333.682V146H335.095V143.876ZM339.321 141.356C338.025 141.356 336.999 142.274 336.999 143.687V143.84C336.999 145.28 338.106 146.144 339.375 146.144C340.41 146.144 341.328 145.64 341.544 144.596H340.221C340.086 144.947 339.78 145.064 339.411 145.064C338.826 145.064 338.502 144.659 338.439 144.092H341.535C341.544 143.993 341.553 143.777 341.553 143.597C341.553 142.085 340.482 141.356 339.321 141.356ZM338.466 143.192C338.538 142.724 338.808 142.364 339.357 142.364C339.834 142.364 340.149 142.697 340.149 143.192H338.466ZM344.193 147.755C344.769 147.755 345.426 147.593 345.426 146.981C345.426 146.684 345.111 146.459 344.814 146.414L344.886 146.117C345.813 145.973 346.632 145.37 346.731 144.353V144.236H345.444C345.327 144.767 345.066 145.019 344.562 145.019C343.887 145.019 343.581 144.479 343.581 143.75C343.581 143.03 343.887 142.481 344.562 142.481C345.03 142.481 345.345 142.76 345.444 143.264H346.731V143.147C346.632 141.995 345.642 141.356 344.499 141.356C343.203 141.356 342.15 142.301 342.15 143.669V143.84C342.15 145.136 343.05 145.982 344.175 146.126L343.986 146.567L344.04 146.666C344.328 146.675 344.472 146.756 344.472 146.909C344.472 147.044 344.301 147.116 344.04 147.116C343.878 147.116 343.68 147.071 343.455 146.972H343.311V147.62C343.527 147.701 343.896 147.755 344.193 147.755ZM347.203 143.84C347.203 145.28 348.31 146.144 349.624 146.144C350.893 146.144 352.009 145.28 352.009 143.831V143.66C352.009 142.22 350.902 141.356 349.606 141.356C348.31 141.356 347.203 142.22 347.203 143.669V143.84ZM348.688 143.732C348.688 143.057 348.976 142.526 349.606 142.526C350.236 142.526 350.524 143.075 350.524 143.759C350.524 144.434 350.236 144.965 349.606 144.965C348.976 144.965 348.688 144.416 348.688 143.732ZM358.51 141.86C358.51 140.609 357.592 140.015 356.404 140.015C355.324 140.015 354.28 140.591 354.28 141.806C354.28 142.103 354.334 142.4 354.397 142.544H355.684V142.382C355.648 142.211 355.63 142.022 355.63 141.905C355.63 141.437 355.9 141.131 356.368 141.131C356.872 141.131 357.106 141.428 357.106 141.896C357.106 142.436 356.926 142.769 356.539 143.165C355.855 143.876 355.162 144.506 354.298 145.199V146H358.636V144.803H357.349C357.169 144.803 356.656 144.812 356.476 144.839V144.821C357.385 144.074 358.51 143.138 358.51 141.986V141.86ZM296.423 153.923C296.423 154.328 296.63 154.769 296.873 155.012C297.305 155.444 298.241 155.57 298.889 155.813C299.402 155.984 299.501 156.146 299.501 156.461C299.501 156.794 299.186 157.055 298.682 157.055C298.142 157.055 297.782 156.839 297.755 156.308H296.306V156.434C296.423 157.685 297.395 158.135 298.628 158.135C299.762 158.135 300.959 157.667 300.959 156.263V156.173C300.959 155.732 300.743 155.291 300.5 155.048C300.068 154.616 299.168 154.427 298.574 154.265C298.178 154.157 297.917 154.049 297.917 153.662C297.917 153.347 298.169 153.131 298.673 153.131C299.186 153.131 299.393 153.392 299.42 153.725H300.833V153.608C300.734 152.456 299.762 152.042 298.628 152.042C297.566 152.042 296.423 152.51 296.423 153.833V153.923ZM305.368 158H307.051V157.838L304.774 154.913L306.952 152.312V152.15H305.35L303.388 154.508V152.15H301.903V158H303.388V155.408L305.368 158ZM312.559 152.15H311.101V155.993C311.101 156.605 310.633 156.902 310.084 156.902C309.436 156.902 309.022 156.605 309.022 155.993V152.15H307.519V155.759C307.519 157.307 308.365 158.135 310.048 158.135C311.704 158.135 312.559 157.307 312.559 155.759V152.15ZM316.394 155.192L316.493 155.237C316.628 155.219 316.781 155.21 316.934 155.21C317.609 155.21 318.032 155.417 318.032 156.146C318.032 156.677 317.726 157.037 317.186 157.037C316.655 157.037 316.34 156.74 316.304 156.2H314.954V156.326C315.017 157.541 315.845 158.135 317.15 158.135C318.437 158.135 319.409 157.514 319.409 156.056V155.966C319.409 155.093 318.842 154.436 317.978 154.292L319.139 152.96V152.15H315.197V153.275H316.403C316.601 153.275 317.267 153.275 317.465 153.248V153.266C317.24 153.482 316.934 153.851 316.754 154.058L316.25 154.625L316.394 155.192ZM321.789 156.002H325.137V154.742H321.789V156.002ZM330.459 156.38C331.764 156.38 332.763 155.669 332.763 154.373V154.229C332.763 152.888 331.728 152.15 330.54 152.15H327.84V158H329.334V156.38H330.459ZM330.387 153.293C331.044 153.293 331.269 153.698 331.269 154.301C331.269 154.841 331.026 155.228 330.342 155.228H329.334V153.293H330.387ZM334.867 155.876C334.867 155.291 335.002 154.832 335.803 154.832H336.379V153.518C336.262 153.482 336.064 153.464 335.929 153.464C335.353 153.464 334.849 153.815 334.786 154.454H334.759L334.498 153.5H333.454V158H334.867V155.876ZM339.093 153.356C337.797 153.356 336.771 154.274 336.771 155.687V155.84C336.771 157.28 337.878 158.144 339.147 158.144C340.182 158.144 341.1 157.64 341.316 156.596H339.993C339.858 156.947 339.552 157.064 339.183 157.064C338.598 157.064 338.274 156.659 338.211 156.092H341.307C341.316 155.993 341.325 155.777 341.325 155.597C341.325 154.085 340.254 153.356 339.093 153.356ZM338.238 155.192C338.31 154.724 338.58 154.364 339.129 154.364C339.606 154.364 339.921 154.697 339.921 155.192H338.238ZM343.964 159.755C344.54 159.755 345.197 159.593 345.197 158.981C345.197 158.684 344.882 158.459 344.585 158.414L344.657 158.117C345.584 157.973 346.403 157.37 346.502 156.353V156.236H345.215C345.098 156.767 344.837 157.019 344.333 157.019C343.658 157.019 343.352 156.479 343.352 155.75C343.352 155.03 343.658 154.481 344.333 154.481C344.801 154.481 345.116 154.76 345.215 155.264H346.502V155.147C346.403 153.995 345.413 153.356 344.27 153.356C342.974 153.356 341.921 154.301 341.921 155.669V155.84C341.921 157.136 342.821 157.982 343.946 158.126L343.757 158.567L343.811 158.666C344.099 158.675 344.243 158.756 344.243 158.909C344.243 159.044 344.072 159.116 343.811 159.116C343.649 159.116 343.451 159.071 343.226 158.972H343.082V159.62C343.298 159.701 343.667 159.755 343.964 159.755ZM346.975 155.84C346.975 157.28 348.082 158.144 349.396 158.144C350.665 158.144 351.781 157.28 351.781 155.831V155.66C351.781 154.22 350.674 153.356 349.378 153.356C348.082 153.356 346.975 154.22 346.975 155.669V155.84ZM348.46 155.732C348.46 155.057 348.748 154.526 349.378 154.526C350.008 154.526 350.296 155.075 350.296 155.759C350.296 156.434 350.008 156.965 349.378 156.965C348.748 156.965 348.46 156.416 348.46 155.732ZM355.32 155.192L355.419 155.237C355.554 155.219 355.707 155.21 355.86 155.21C356.535 155.21 356.958 155.417 356.958 156.146C356.958 156.677 356.652 157.037 356.112 157.037C355.581 157.037 355.266 156.74 355.23 156.2H353.88V156.326C353.943 157.541 354.771 158.135 356.076 158.135C357.363 158.135 358.335 157.514 358.335 156.056V155.966C358.335 155.093 357.768 154.436 356.904 154.292L358.065 152.96V152.15H354.123V153.275H355.329C355.527 153.275 356.193 153.275 356.391 153.248V153.266C356.166 153.482 355.86 153.851 355.68 154.058L355.176 154.625L355.32 155.192ZM296.423 164.923C296.423 165.328 296.63 165.769 296.873 166.012C297.305 166.444 298.241 166.57 298.889 166.813C299.402 166.984 299.501 167.146 299.501 167.461C299.501 167.794 299.186 168.055 298.682 168.055C298.142 168.055 297.782 167.839 297.755 167.308H296.306V167.434C296.423 168.685 297.395 169.135 298.628 169.135C299.762 169.135 300.959 168.667 300.959 167.263V167.173C300.959 166.732 300.743 166.291 300.5 166.048C300.068 165.616 299.168 165.427 298.574 165.265C298.178 165.157 297.917 165.049 297.917 164.662C297.917 164.347 298.169 164.131 298.673 164.131C299.186 164.131 299.393 164.392 299.42 164.725H300.833V164.608C300.734 163.456 299.762 163.042 298.628 163.042C297.566 163.042 296.423 163.51 296.423 164.833V164.923ZM305.368 169H307.051V168.838L304.774 165.913L306.952 163.312V163.15H305.35L303.388 165.508V163.15H301.903V169H303.388V166.408L305.368 169ZM312.559 163.15H311.101V166.993C311.101 167.605 310.633 167.902 310.084 167.902C309.436 167.902 309.022 167.605 309.022 166.993V163.15H307.519V166.759C307.519 168.307 308.365 169.135 310.048 169.135C311.704 169.135 312.559 168.307 312.559 166.759V163.15ZM314.981 167.578H317.744V169H319.175V167.578H320.039V166.435H319.175V163.15H317.726L314.864 166.795L314.981 167.578ZM316.925 166.435C316.772 166.435 316.583 166.435 316.484 166.462V166.444C316.592 166.309 316.718 166.138 316.817 165.994L317.537 165.04C317.672 164.869 317.762 164.671 317.843 164.518H317.861C317.843 164.734 317.834 164.941 317.834 165.148V166.435H316.925ZM322.308 167.002H325.656V165.742H322.308V167.002ZM330.977 167.38C332.282 167.38 333.281 166.669 333.281 165.373V165.229C333.281 163.888 332.246 163.15 331.058 163.15H328.358V169H329.852V167.38H330.977ZM330.905 164.293C331.562 164.293 331.787 164.698 331.787 165.301C331.787 165.841 331.544 166.228 330.86 166.228H329.852V164.293H330.905ZM335.385 166.876C335.385 166.291 335.52 165.832 336.321 165.832H336.897V164.518C336.78 164.482 336.582 164.464 336.447 164.464C335.871 164.464 335.367 164.815 335.304 165.454H335.277L335.016 164.5H333.972V169H335.385V166.876ZM339.611 164.356C338.315 164.356 337.289 165.274 337.289 166.687V166.84C337.289 168.28 338.396 169.144 339.665 169.144C340.7 169.144 341.618 168.64 341.834 167.596H340.511C340.376 167.947 340.07 168.064 339.701 168.064C339.116 168.064 338.792 167.659 338.729 167.092H341.825C341.834 166.993 341.843 166.777 341.843 166.597C341.843 165.085 340.772 164.356 339.611 164.356ZM338.756 166.192C338.828 165.724 339.098 165.364 339.647 165.364C340.124 165.364 340.439 165.697 340.439 166.192H338.756ZM344.483 170.755C345.059 170.755 345.716 170.593 345.716 169.981C345.716 169.684 345.401 169.459 345.104 169.414L345.176 169.117C346.103 168.973 346.922 168.37 347.021 167.353V167.236H345.734C345.617 167.767 345.356 168.019 344.852 168.019C344.177 168.019 343.871 167.479 343.871 166.75C343.871 166.03 344.177 165.481 344.852 165.481C345.32 165.481 345.635 165.76 345.734 166.264H347.021V166.147C346.922 164.995 345.932 164.356 344.789 164.356C343.493 164.356 342.44 165.301 342.44 166.669V166.84C342.44 168.136 343.34 168.982 344.465 169.126L344.276 169.567L344.33 169.666C344.618 169.675 344.762 169.756 344.762 169.909C344.762 170.044 344.591 170.116 344.33 170.116C344.168 170.116 343.97 170.071 343.745 169.972H343.601V170.62C343.817 170.701 344.186 170.755 344.483 170.755ZM347.493 166.84C347.493 168.28 348.6 169.144 349.914 169.144C351.183 169.144 352.299 168.28 352.299 166.831V166.66C352.299 165.22 351.192 164.356 349.896 164.356C348.6 164.356 347.493 165.22 347.493 166.669V166.84ZM348.978 166.732C348.978 166.057 349.266 165.526 349.896 165.526C350.526 165.526 350.814 166.075 350.814 166.759C350.814 167.434 350.526 167.965 349.896 167.965C349.266 167.965 348.978 167.416 348.978 166.732ZM354.426 167.578H357.189V169H358.62V167.578H359.484V166.435H358.62V163.15H357.171L354.309 166.795L354.426 167.578ZM356.37 166.435C356.217 166.435 356.028 166.435 355.929 166.462V166.444C356.037 166.309 356.163 166.138 356.262 165.994L356.982 165.04C357.117 164.869 357.207 164.671 357.288 164.518H357.306C357.288 164.734 357.279 164.941 357.279 165.148V166.435H356.37ZM298.439 180.208C298.439 179.704 298.052 179.398 297.557 179.398C297.062 179.398 296.675 179.704 296.675 180.208V180.28C296.675 180.793 297.062 181.072 297.557 181.072C298.052 181.072 298.439 180.793 298.439 180.28V180.208ZM301.55 180.208C301.55 179.704 301.163 179.398 300.668 179.398C300.173 179.398 299.786 179.704 299.786 180.208V180.28C299.786 180.793 300.173 181.072 300.668 181.072C301.163 181.072 301.55 180.793 301.55 180.28V180.208ZM304.662 180.208C304.662 179.704 304.275 179.398 303.78 179.398C303.285 179.398 302.898 179.704 302.898 180.208V180.28C302.898 180.793 303.285 181.072 303.78 181.072C304.275 181.072 304.662 180.793 304.662 180.28V180.208ZM296.423 187.923C296.423 188.328 296.63 188.769 296.873 189.012C297.305 189.444 298.241 189.57 298.889 189.813C299.402 189.984 299.501 190.146 299.501 190.461C299.501 190.794 299.186 191.055 298.682 191.055C298.142 191.055 297.782 190.839 297.755 190.308H296.306V190.434C296.423 191.685 297.395 192.135 298.628 192.135C299.762 192.135 300.959 191.667 300.959 190.263V190.173C300.959 189.732 300.743 189.291 300.5 189.048C300.068 188.616 299.168 188.427 298.574 188.265C298.178 188.157 297.917 188.049 297.917 187.662C297.917 187.347 298.169 187.131 298.673 187.131C299.186 187.131 299.393 187.392 299.42 187.725H300.833V187.608C300.734 186.456 299.762 186.042 298.628 186.042C297.566 186.042 296.423 186.51 296.423 187.833V187.923ZM305.368 192H307.051V191.838L304.774 188.913L306.952 186.312V186.15H305.35L303.388 188.508V186.15H301.903V192H303.388V189.408L305.368 192ZM312.559 186.15H311.101V189.993C311.101 190.605 310.633 190.902 310.084 190.902C309.436 190.902 309.022 190.605 309.022 189.993V186.15H307.519V189.759C307.519 191.307 308.365 192.135 310.048 192.135C311.704 192.135 312.559 191.307 312.559 189.759V186.15ZM318.326 189.39C318.326 188.814 318.605 188.535 319.064 188.535C319.46 188.535 319.757 188.787 319.757 189.39V192H321.17V188.967C321.17 188.094 320.648 187.365 319.541 187.365C318.965 187.365 318.524 187.581 318.209 188.085H318.191L318.011 187.5H316.913V192H318.326V189.39ZM323.697 190.002H327.045V188.742H323.697V190.002ZM332.366 190.38C333.671 190.38 334.67 189.669 334.67 188.373V188.229C334.67 186.888 333.635 186.15 332.447 186.15H329.747V192H331.241V190.38H332.366ZM332.294 187.293C332.951 187.293 333.176 187.698 333.176 188.301C333.176 188.841 332.933 189.228 332.249 189.228H331.241V187.293H332.294ZM336.774 189.876C336.774 189.291 336.909 188.832 337.71 188.832H338.286V187.518C338.169 187.482 337.971 187.464 337.836 187.464C337.26 187.464 336.756 187.815 336.693 188.454H336.666L336.405 187.5H335.361V192H336.774V189.876ZM341 187.356C339.704 187.356 338.678 188.274 338.678 189.687V189.84C338.678 191.28 339.785 192.144 341.054 192.144C342.089 192.144 343.007 191.64 343.223 190.596H341.9C341.765 190.947 341.459 191.064 341.09 191.064C340.505 191.064 340.181 190.659 340.118 190.092H343.214C343.223 189.993 343.232 189.777 343.232 189.597C343.232 188.085 342.161 187.356 341 187.356ZM340.145 189.192C340.217 188.724 340.487 188.364 341.036 188.364C341.513 188.364 341.828 188.697 341.828 189.192H340.145ZM345.871 193.755C346.447 193.755 347.104 193.593 347.104 192.981C347.104 192.684 346.789 192.459 346.492 192.414L346.564 192.117C347.491 191.973 348.31 191.37 348.409 190.353V190.236H347.122C347.005 190.767 346.744 191.019 346.24 191.019C345.565 191.019 345.259 190.479 345.259 189.75C345.259 189.03 345.565 188.481 346.24 188.481C346.708 188.481 347.023 188.76 347.122 189.264H348.409V189.147C348.31 187.995 347.32 187.356 346.177 187.356C344.881 187.356 343.828 188.301 343.828 189.669V189.84C343.828 191.136 344.728 191.982 345.853 192.126L345.664 192.567L345.718 192.666C346.006 192.675 346.15 192.756 346.15 192.909C346.15 193.044 345.979 193.116 345.718 193.116C345.556 193.116 345.358 193.071 345.133 192.972H344.989V193.62C345.205 193.701 345.574 193.755 345.871 193.755ZM348.882 189.84C348.882 191.28 349.989 192.144 351.303 192.144C352.572 192.144 353.688 191.28 353.688 189.831V189.66C353.688 188.22 352.581 187.356 351.285 187.356C349.989 187.356 348.882 188.22 348.882 189.669V189.84ZM350.367 189.732C350.367 189.057 350.655 188.526 351.285 188.526C351.915 188.526 352.203 189.075 352.203 189.759C352.203 190.434 351.915 190.965 351.285 190.965C350.655 190.965 350.367 190.416 350.367 189.732ZM357.543 189.39C357.543 188.814 357.822 188.535 358.281 188.535C358.677 188.535 358.974 188.787 358.974 189.39V192H360.387V188.967C360.387 188.094 359.865 187.365 358.758 187.365C358.182 187.365 357.741 187.581 357.426 188.085H357.408L357.228 187.5H356.13V192H357.543V189.39Z" fill="white"/>
<path d="M277.677 48.724C278.649 48.724 279.201 49.18 279.345 50.092H281.325V49.936C281.133 48.112 279.501 47.02 277.581 47.02C275.373 47.02 273.585 48.676 273.585 50.98V51.268C273.585 53.644 275.385 55.18 277.581 55.18C279.573 55.18 281.097 54.064 281.325 52.132V51.964H279.357C279.273 52.864 278.769 53.464 277.677 53.464C276.285 53.464 275.661 52.372 275.661 51.088C275.661 49.816 276.285 48.724 277.677 48.724ZM282.035 51.244C282.035 53.584 283.835 55.18 286.151 55.18C288.467 55.18 290.267 53.584 290.267 51.244V50.956C290.267 48.616 288.455 47.02 286.151 47.02C283.847 47.02 282.035 48.616 282.035 50.956V51.244ZM284.111 51.1C284.111 49.756 284.783 48.688 286.139 48.688C287.519 48.688 288.191 49.756 288.191 51.1C288.191 52.444 287.459 53.512 286.139 53.512C284.843 53.512 284.111 52.444 284.111 51.1ZM296.71 47.2L296.722 50.044C296.722 50.8 296.794 51.856 296.794 52.108H296.77C296.578 51.784 296.122 50.932 295.678 50.296L293.362 47.2H291.502V55H293.434V52.024C293.434 51.388 293.35 50.32 293.35 50.068H293.374C293.566 50.428 294.034 51.22 294.442 51.796L296.866 55H298.642V47.2H296.71ZM299.811 48.796H302.031V55H304.011V48.796H306.147V47.2H299.811V48.796ZM307.31 47.2V55H312.71V53.392H309.29V51.88H312.194V50.236H309.29V48.796H312.71V47.2H307.31ZM315.979 47.2H313.795V47.416L316.231 50.872L313.411 54.784V55H315.547L317.347 52.408L319.027 55H321.223V54.784L318.535 50.836L320.839 47.416V47.2H318.751L317.419 49.432L315.979 47.2ZM321.467 48.796H323.687V55H325.667V48.796H327.803V47.2H321.467V48.796ZM328.171 51.244C328.171 53.584 329.971 55.18 332.287 55.18C334.603 55.18 336.403 53.584 336.403 51.244V50.956C336.403 48.616 334.591 47.02 332.287 47.02C329.983 47.02 328.171 48.616 328.171 50.956V51.244ZM330.247 51.1C330.247 49.756 330.919 48.688 332.275 48.688C333.655 48.688 334.327 49.756 334.327 51.1C334.327 52.444 333.595 53.512 332.275 53.512C330.979 53.512 330.247 52.444 330.247 51.1Z" fill="white"/>
<rect x="288.5" y="115.5" width="101" height="108" rx="9.5" stroke="white"/>
</svg>
