<svg width="703" height="115" viewBox="0 0 703 115" fill="none" xmlns="http://www.w3.org/2000/svg">
<rect width="703" height="115" fill="white"/>
<path d="M371 61C371 56.3406 371 54.0109 371.761 52.1732C372.776 49.7229 374.723 47.7761 377.173 46.7612C379.011 46 381.341 46 386 46H406C410.659 46 412.989 46 414.827 46.7612C417.277 47.7761 419.224 49.7229 420.239 52.1732C421 54.0109 421 56.3406 421 61V81C421 85.6594 421 87.9891 420.239 89.8268C419.224 92.2771 417.277 94.2239 414.827 95.2388C412.989 96 410.659 96 406 96H386C381.341 96 379.011 96 377.173 95.2388C374.723 94.2239 372.776 92.2771 371.761 89.8268C371 87.9891 371 85.6594 371 81V61Z" fill="#142032"/>
<path d="M360.101 26.724C361.073 26.724 361.625 27.18 361.769 28.092H363.749V27.936C363.557 26.112 361.925 25.02 360.005 25.02C357.797 25.02 356.009 26.676 356.009 28.98V29.268C356.009 31.644 357.809 33.18 360.005 33.18C361.997 33.18 363.521 32.064 363.749 30.132V29.964H361.781C361.697 30.864 361.193 31.464 360.101 31.464C358.709 31.464 358.085 30.372 358.085 29.088C358.085 27.816 358.709 26.724 360.101 26.724ZM364.458 29.244C364.458 31.584 366.259 33.18 368.575 33.18C370.891 33.18 372.691 31.584 372.691 29.244V28.956C372.691 26.616 370.879 25.02 368.575 25.02C366.271 25.02 364.458 26.616 364.458 28.956V29.244ZM366.535 29.1C366.535 27.756 367.207 26.688 368.563 26.688C369.943 26.688 370.615 27.756 370.615 29.1C370.615 30.444 369.883 31.512 368.563 31.512C367.267 31.512 366.535 30.444 366.535 29.1ZM380.627 29.22C380.795 28.824 380.999 28.02 381.059 27.516H381.083C381.047 28.02 381.095 28.824 381.155 29.328L381.683 33H383.639V32.784L382.499 25.2H380.627L378.527 30.24H378.503L376.427 25.2H374.507L373.319 32.784V33H375.215L375.743 29.436C375.803 28.956 375.803 28.032 375.767 27.516H375.791C375.887 27.984 376.163 28.98 376.295 29.268L377.759 32.88H379.175L380.627 29.22ZM388.41 30.84C390.15 30.84 391.482 29.892 391.482 28.164V27.972C391.482 26.184 390.102 25.2 388.518 25.2H384.918V33H386.91V30.84H388.41ZM388.314 26.724C389.19 26.724 389.49 27.264 389.49 28.068C389.49 28.788 389.166 29.304 388.254 29.304H386.91V26.724H388.314ZM399.195 25.2H397.251V30.324C397.251 31.14 396.627 31.536 395.895 31.536C395.031 31.536 394.479 31.14 394.479 30.324V25.2H392.475V30.012C392.475 32.076 393.603 33.18 395.847 33.18C398.055 33.18 399.195 32.076 399.195 30.012V25.2ZM400.328 26.796H402.548V33H404.528V26.796H406.664V25.2H400.328V26.796ZM407.828 25.2V33H413.228V31.392H409.808V29.88H412.712V28.236H409.808V26.796H413.228V25.2H407.828ZM414.625 25.2V33H417.961C419.929 33 421.765 31.74 421.765 29.244V28.956C421.765 26.496 419.929 25.2 417.973 25.2H414.625ZM417.865 26.748C419.113 26.748 419.713 27.624 419.713 29.064C419.713 30.504 419.149 31.452 417.841 31.452H416.581V26.748H417.865ZM428.64 30.84C430.38 30.84 431.712 29.892 431.712 28.164V27.972C431.712 26.184 430.332 25.2 428.748 25.2H425.148V33H427.14V30.84H428.64ZM428.544 26.724C429.42 26.724 429.72 27.264 429.72 28.068C429.72 28.788 429.396 29.304 428.484 29.304H427.14V26.724H428.544ZM436.066 26.724C436.942 26.724 437.206 27.252 437.206 27.732C437.206 28.32 436.894 28.848 435.934 28.848H434.734V26.724H436.066ZM439.138 27.684C439.138 26.016 437.758 25.2 436.114 25.2H432.754V33H434.734V30.264H435.37L437.35 33H439.45V32.76L437.434 30.096C438.49 29.748 439.138 28.944 439.138 27.876V27.684ZM442.328 33V25.2H440.348V33H442.328ZM447.629 26.724C448.601 26.724 449.153 27.18 449.297 28.092H451.277V27.936C451.085 26.112 449.453 25.02 447.533 25.02C445.325 25.02 443.537 26.676 443.537 28.98V29.268C443.537 31.644 445.337 33.18 447.533 33.18C449.525 33.18 451.049 32.064 451.277 30.132V29.964H449.309C449.225 30.864 448.721 31.464 447.629 31.464C446.237 31.464 445.613 30.372 445.613 29.088C445.613 27.816 446.237 26.724 447.629 26.724ZM452.418 25.2V33H457.818V31.392H454.398V29.88H457.302V28.236H454.398V26.796H457.818V25.2H452.418Z" fill="black"/>
<path d="M263.5 61C263.5 58.6498 263.501 56.9622 263.592 55.6306C263.682 54.3124 263.855 53.4528 264.147 52.7472C265.01 50.6645 266.664 49.0097 268.747 48.147C269.453 47.8547 270.312 47.6816 271.631 47.5917C272.962 47.5008 274.65 47.5 277 47.5H297C299.35 47.5 301.038 47.5008 302.369 47.5917C303.688 47.6816 304.547 47.8547 305.253 48.147C307.336 49.0097 308.99 50.6645 309.853 52.7472C310.145 53.4528 310.318 54.3124 310.408 55.6306C310.499 56.9622 310.5 58.6498 310.5 61V81C310.5 83.3502 310.499 85.0378 310.408 86.3694C310.318 87.6876 310.145 88.5472 309.853 89.2528C308.99 91.3355 307.336 92.9903 305.253 93.853C304.547 94.1453 303.688 94.3184 302.369 94.4083C301.038 94.4992 299.35 94.5 297 94.5H277C274.65 94.5 272.962 94.4992 271.631 94.4083C270.312 94.3184 269.453 94.1453 268.747 93.853C266.664 92.9903 265.01 91.3355 264.147 89.2528C263.855 88.5472 263.682 87.6876 263.592 86.3694C263.501 85.0378 263.5 83.3502 263.5 81V61Z" fill="#142032" stroke="#F71963" stroke-width="3"/>
<path d="M252.453 25.2V33H254.433V30.084H257.457V28.44H254.409V26.796H257.973V25.2H252.453ZM261.101 33V25.2H259.121V33H261.101ZM264.614 25.2H262.43V25.416L264.866 28.872L262.046 32.784V33H264.182L265.982 30.408L267.662 33H269.858V32.784L267.17 28.836L269.474 25.416V25.2H267.386L266.054 27.432L264.614 25.2ZM270.816 25.2V33H276.216V31.392H272.796V29.88H275.7V28.236H272.796V26.796H276.216V25.2H270.816ZM277.613 25.2V33H280.949C282.917 33 284.753 31.74 284.753 29.244V28.956C284.753 26.496 282.917 25.2 280.961 25.2H277.613ZM280.853 26.748C282.101 26.748 282.701 27.624 282.701 29.064C282.701 30.504 282.137 31.452 280.829 31.452H279.569V26.748H280.853ZM291.629 30.84C293.369 30.84 294.701 29.892 294.701 28.164V27.972C294.701 26.184 293.321 25.2 291.737 25.2H288.137V33H290.129V30.84H291.629ZM291.533 26.724C292.409 26.724 292.709 27.264 292.709 28.068C292.709 28.788 292.385 29.304 291.473 29.304H290.129V26.724H291.533ZM299.054 26.724C299.93 26.724 300.194 27.252 300.194 27.732C300.194 28.32 299.882 28.848 298.922 28.848H297.722V26.724H299.054ZM302.126 27.684C302.126 26.016 300.746 25.2 299.102 25.2H295.742V33H297.722V30.264H298.358L300.338 33H302.438V32.76L300.422 30.096C301.478 29.748 302.126 28.944 302.126 27.876V27.684ZM305.316 33V25.2H303.336V33H305.316ZM310.617 26.724C311.589 26.724 312.141 27.18 312.285 28.092H314.265V27.936C314.073 26.112 312.441 25.02 310.521 25.02C308.313 25.02 306.525 26.676 306.525 28.98V29.268C306.525 31.644 308.325 33.18 310.521 33.18C312.513 33.18 314.037 32.064 314.265 30.132V29.964H312.297C312.213 30.864 311.709 31.464 310.617 31.464C309.225 31.464 308.601 30.372 308.601 29.088C308.601 27.816 309.225 26.724 310.617 26.724ZM315.406 25.2V33H320.806V31.392H317.386V29.88H320.29V28.236H317.386V26.796H320.806V25.2H315.406Z" fill="black"/>
<path d="M338.278 70.806H345.726V68.958H338.278V70.806ZM338.278 73.858H345.726V72.024H338.278V73.858Z" fill="black"/>
</svg>
