<svg width="703" height="115" viewBox="0 0 703 115" fill="none" xmlns="http://www.w3.org/2000/svg">
<rect width="703" height="115" fill="white"/>
<path d="M384 60C384 55.3406 384 53.0109 384.761 51.1732C385.776 48.7229 387.723 46.7761 390.173 45.7612C392.011 45 394.341 45 399 45H419C423.659 45 425.989 45 427.827 45.7612C430.277 46.7761 432.224 48.7229 433.239 51.1732C434 53.0109 434 55.3406 434 60V80C434 84.6594 434 86.9891 433.239 88.8268C432.224 91.2771 430.277 93.2239 427.827 94.2388C425.989 95 423.659 95 419 95H399C394.341 95 392.011 95 390.173 94.2388C387.723 93.2239 385.776 91.2771 384.761 88.8268C384 86.9891 384 84.6594 384 80V60Z" fill="#142032"/>
<path d="M362.101 26.724C363.073 26.724 363.625 27.18 363.769 28.092H365.749V27.936C365.557 26.112 363.925 25.02 362.005 25.02C359.797 25.02 358.009 26.676 358.009 28.98V29.268C358.009 31.644 359.809 33.18 362.005 33.18C363.997 33.18 365.521 32.064 365.749 30.132V29.964H363.781C363.697 30.864 363.193 31.464 362.101 31.464C360.709 31.464 360.085 30.372 360.085 29.088C360.085 27.816 360.709 26.724 362.101 26.724ZM366.458 29.244C366.458 31.584 368.259 33.18 370.575 33.18C372.891 33.18 374.691 31.584 374.691 29.244V28.956C374.691 26.616 372.879 25.02 370.575 25.02C368.271 25.02 366.458 26.616 366.458 28.956V29.244ZM368.535 29.1C368.535 27.756 369.207 26.688 370.563 26.688C371.943 26.688 372.615 27.756 372.615 29.1C372.615 30.444 371.883 31.512 370.563 31.512C369.267 31.512 368.535 30.444 368.535 29.1ZM382.627 29.22C382.795 28.824 382.999 28.02 383.059 27.516H383.083C383.047 28.02 383.095 28.824 383.155 29.328L383.683 33H385.639V32.784L384.499 25.2H382.627L380.527 30.24H380.503L378.427 25.2H376.507L375.319 32.784V33H377.215L377.743 29.436C377.803 28.956 377.803 28.032 377.767 27.516H377.791C377.887 27.984 378.163 28.98 378.295 29.268L379.759 32.88H381.175L382.627 29.22ZM390.41 30.84C392.15 30.84 393.482 29.892 393.482 28.164V27.972C393.482 26.184 392.102 25.2 390.518 25.2H386.918V33H388.91V30.84H390.41ZM390.314 26.724C391.19 26.724 391.49 27.264 391.49 28.068C391.49 28.788 391.166 29.304 390.254 29.304H388.91V26.724H390.314ZM401.195 25.2H399.251V30.324C399.251 31.14 398.627 31.536 397.895 31.536C397.031 31.536 396.479 31.14 396.479 30.324V25.2H394.475V30.012C394.475 32.076 395.603 33.18 397.847 33.18C400.055 33.18 401.195 32.076 401.195 30.012V25.2ZM402.328 26.796H404.548V33H406.528V26.796H408.664V25.2H402.328V26.796ZM409.828 25.2V33H415.228V31.392H411.808V29.88H414.712V28.236H411.808V26.796H415.228V25.2H409.828ZM416.625 25.2V33H419.961C421.929 33 423.765 31.74 423.765 29.244V28.956C423.765 26.496 421.929 25.2 419.973 25.2H416.625ZM419.865 26.748C421.113 26.748 421.713 27.624 421.713 29.064C421.713 30.504 421.149 31.452 419.841 31.452H418.581V26.748H419.865ZM430.64 30.84C432.38 30.84 433.712 29.892 433.712 28.164V27.972C433.712 26.184 432.332 25.2 430.748 25.2H427.148V33H429.14V30.84H430.64ZM430.544 26.724C431.42 26.724 431.72 27.264 431.72 28.068C431.72 28.788 431.396 29.304 430.484 29.304H429.14V26.724H430.544ZM438.066 26.724C438.942 26.724 439.206 27.252 439.206 27.732C439.206 28.32 438.894 28.848 437.934 28.848H436.734V26.724H438.066ZM441.138 27.684C441.138 26.016 439.758 25.2 438.114 25.2H434.754V33H436.734V30.264H437.37L439.35 33H441.45V32.76L439.434 30.096C440.49 29.748 441.138 28.944 441.138 27.876V27.684ZM444.328 33V25.2H442.348V33H444.328ZM449.629 26.724C450.601 26.724 451.153 27.18 451.297 28.092H453.277V27.936C453.085 26.112 451.453 25.02 449.533 25.02C447.325 25.02 445.537 26.676 445.537 28.98V29.268C445.537 31.644 447.337 33.18 449.533 33.18C451.525 33.18 453.049 32.064 453.277 30.132V29.964H451.309C451.225 30.864 450.721 31.464 449.629 31.464C448.237 31.464 447.613 30.372 447.613 29.088C447.613 27.816 448.237 26.724 449.629 26.724ZM454.418 25.2V33H459.818V31.392H456.398V29.88H459.302V28.236H456.398V26.796H459.818V25.2H454.418Z" fill="black"/>
<path d="M260 60C260 55.3406 260 53.0109 260.761 51.1732C261.776 48.7229 263.723 46.7761 266.173 45.7612C268.011 45 270.341 45 275 45H295C299.659 45 301.989 45 303.827 45.7612C306.277 46.7761 308.224 48.7229 309.239 51.1732C310 53.0109 310 55.3406 310 60V80C310 84.6594 310 86.9891 309.239 88.8268C308.224 91.2771 306.277 93.2239 303.827 94.2388C301.989 95 299.659 95 295 95H275C270.341 95 268.011 95 266.173 94.2388C263.723 93.2239 261.776 91.2771 260.761 88.8268C260 86.9891 260 84.6594 260 80V60Z" fill="#F71963"/>
<path d="M257.395 28.968C258.019 28.716 258.427 28.128 258.427 27.36V27.24C258.427 25.752 257.143 25.2 255.475 25.2H252.439V33H255.823C257.515 33 258.691 32.364 258.691 30.876V30.756C258.691 29.928 258.115 29.184 257.395 28.992V28.968ZM255.631 26.664C256.195 26.664 256.423 27.048 256.423 27.432C256.423 27.768 256.219 28.32 255.607 28.32H254.347V26.664H255.631ZM255.739 29.784C256.567 29.784 256.723 30.408 256.723 30.696C256.723 31.128 256.579 31.524 255.727 31.524H254.347V29.784H255.739ZM263.217 27.024C263.313 27.456 263.493 28.008 263.649 28.452L264.249 30.108H262.161L262.761 28.452C262.917 28.008 263.097 27.456 263.193 27.024H263.217ZM265.293 33H267.309V32.784L264.261 25.2H262.125L259.077 32.784V33H261.117L261.609 31.644H264.801L265.293 33ZM267.89 27.564C267.89 28.104 268.166 28.692 268.49 29.016C269.066 29.592 270.314 29.76 271.178 30.084C271.862 30.312 271.994 30.528 271.994 30.948C271.994 31.392 271.574 31.74 270.902 31.74C270.182 31.74 269.702 31.452 269.666 30.744H267.734V30.912C267.89 32.58 269.186 33.18 270.83 33.18C272.342 33.18 273.938 32.556 273.938 30.684V30.564C273.938 29.976 273.65 29.388 273.326 29.064C272.75 28.488 271.55 28.236 270.758 28.02C270.23 27.876 269.882 27.732 269.882 27.216C269.882 26.796 270.218 26.508 270.89 26.508C271.574 26.508 271.85 26.856 271.886 27.3H273.77V27.144C273.638 25.608 272.342 25.056 270.83 25.056C269.414 25.056 267.89 25.68 267.89 27.444V27.564ZM275.197 25.2V33H280.597V31.392H277.177V29.88H280.081V28.236H277.177V26.796H280.597V25.2H275.197ZM287.642 30.84C289.382 30.84 290.714 29.892 290.714 28.164V27.972C290.714 26.184 289.334 25.2 287.75 25.2H284.15V33H286.142V30.84H287.642ZM287.546 26.724C288.422 26.724 288.722 27.264 288.722 28.068C288.722 28.788 288.398 29.304 287.486 29.304H286.142V26.724H287.546ZM295.068 26.724C295.944 26.724 296.208 27.252 296.208 27.732C296.208 28.32 295.896 28.848 294.936 28.848H293.736V26.724H295.068ZM298.14 27.684C298.14 26.016 296.76 25.2 295.116 25.2H291.756V33H293.736V30.264H294.372L296.352 33H298.452V32.76L296.436 30.096C297.492 29.748 298.14 28.944 298.14 27.876V27.684ZM301.329 33V25.2H299.349V33H301.329ZM306.631 26.724C307.603 26.724 308.155 27.18 308.299 28.092H310.279V27.936C310.087 26.112 308.455 25.02 306.535 25.02C304.327 25.02 302.539 26.676 302.539 28.98V29.268C302.539 31.644 304.339 33.18 306.535 33.18C308.527 33.18 310.051 32.064 310.279 30.132V29.964H308.311C308.227 30.864 307.723 31.464 306.631 31.464C305.239 31.464 304.615 30.372 304.615 29.088C304.615 27.816 305.239 26.724 306.631 26.724ZM311.42 25.2V33H316.82V31.392H313.4V29.88H316.304V28.236H313.4V26.796H316.82V25.2H311.42Z" fill="black"/>
<path d="M343.278 64.806H350.726V62.958H343.278V64.806ZM343.278 67.858H350.726V66.024H343.278V67.858Z" fill="black"/>
</svg>
