<svg width="703" height="115" viewBox="0 0 703 115" fill="none" xmlns="http://www.w3.org/2000/svg">
<rect width="703" height="115" fill="white"/>
<path d="M456 60C456 55.3406 456 53.0109 456.761 51.1732C457.776 48.7229 459.723 46.7761 462.173 45.7612C464.011 45 466.341 45 471 45H491C495.659 45 497.989 45 499.827 45.7612C502.277 46.7761 504.224 48.7229 505.239 51.1732C506 53.0109 506 55.3406 506 60V80C506 84.6594 506 86.9891 505.239 88.8268C504.224 91.2771 502.277 93.2239 499.827 94.2388C497.989 95 495.659 95 491 95H471C466.341 95 464.011 95 462.173 94.2388C459.723 93.2239 457.776 91.2771 456.761 88.8268C456 86.9891 456 84.6594 456 80V60Z" fill="#142032"/>
<path d="M434.101 26.724C435.073 26.724 435.625 27.18 435.769 28.092H437.749V27.936C437.557 26.112 435.925 25.02 434.005 25.02C431.797 25.02 430.009 26.676 430.009 28.98V29.268C430.009 31.644 431.809 33.18 434.005 33.18C435.997 33.18 437.521 32.064 437.749 30.132V29.964H435.781C435.697 30.864 435.193 31.464 434.101 31.464C432.709 31.464 432.085 30.372 432.085 29.088C432.085 27.816 432.709 26.724 434.101 26.724ZM438.458 29.244C438.458 31.584 440.259 33.18 442.575 33.18C444.891 33.18 446.691 31.584 446.691 29.244V28.956C446.691 26.616 444.879 25.02 442.575 25.02C440.271 25.02 438.458 26.616 438.458 28.956V29.244ZM440.535 29.1C440.535 27.756 441.207 26.688 442.563 26.688C443.943 26.688 444.615 27.756 444.615 29.1C444.615 30.444 443.883 31.512 442.563 31.512C441.267 31.512 440.535 30.444 440.535 29.1ZM454.627 29.22C454.795 28.824 454.999 28.02 455.059 27.516H455.083C455.047 28.02 455.095 28.824 455.155 29.328L455.683 33H457.639V32.784L456.499 25.2H454.627L452.527 30.24H452.503L450.427 25.2H448.507L447.319 32.784V33H449.215L449.743 29.436C449.803 28.956 449.803 28.032 449.767 27.516H449.791C449.887 27.984 450.163 28.98 450.295 29.268L451.759 32.88H453.175L454.627 29.22ZM462.41 30.84C464.15 30.84 465.482 29.892 465.482 28.164V27.972C465.482 26.184 464.102 25.2 462.518 25.2H458.918V33H460.91V30.84H462.41ZM462.314 26.724C463.19 26.724 463.49 27.264 463.49 28.068C463.49 28.788 463.166 29.304 462.254 29.304H460.91V26.724H462.314ZM473.195 25.2H471.251V30.324C471.251 31.14 470.627 31.536 469.895 31.536C469.031 31.536 468.479 31.14 468.479 30.324V25.2H466.475V30.012C466.475 32.076 467.603 33.18 469.847 33.18C472.055 33.18 473.195 32.076 473.195 30.012V25.2ZM474.328 26.796H476.548V33H478.528V26.796H480.664V25.2H474.328V26.796ZM481.828 25.2V33H487.228V31.392H483.808V29.88H486.712V28.236H483.808V26.796H487.228V25.2H481.828ZM488.625 25.2V33H491.961C493.929 33 495.765 31.74 495.765 29.244V28.956C495.765 26.496 493.929 25.2 491.973 25.2H488.625ZM491.865 26.748C493.113 26.748 493.713 27.624 493.713 29.064C493.713 30.504 493.149 31.452 491.841 31.452H490.581V26.748H491.865ZM502.64 30.84C504.38 30.84 505.712 29.892 505.712 28.164V27.972C505.712 26.184 504.332 25.2 502.748 25.2H499.148V33H501.14V30.84H502.64ZM502.544 26.724C503.42 26.724 503.72 27.264 503.72 28.068C503.72 28.788 503.396 29.304 502.484 29.304H501.14V26.724H502.544ZM510.066 26.724C510.942 26.724 511.206 27.252 511.206 27.732C511.206 28.32 510.894 28.848 509.934 28.848H508.734V26.724H510.066ZM513.138 27.684C513.138 26.016 511.758 25.2 510.114 25.2H506.754V33H508.734V30.264H509.37L511.35 33H513.45V32.76L511.434 30.096C512.49 29.748 513.138 28.944 513.138 27.876V27.684ZM516.328 33V25.2H514.348V33H516.328ZM521.629 26.724C522.601 26.724 523.153 27.18 523.297 28.092H525.277V27.936C525.085 26.112 523.453 25.02 521.533 25.02C519.325 25.02 517.537 26.676 517.537 28.98V29.268C517.537 31.644 519.337 33.18 521.533 33.18C523.525 33.18 525.049 32.064 525.277 30.132V29.964H523.309C523.225 30.864 522.721 31.464 521.629 31.464C520.237 31.464 519.613 30.372 519.613 29.088C519.613 27.816 520.237 26.724 521.629 26.724ZM526.418 25.2V33H531.818V31.392H528.398V29.88H531.302V28.236H528.398V26.796H531.818V25.2H526.418Z" fill="black"/>
<path d="M189 60C189 55.3406 189 53.0109 189.761 51.1732C190.776 48.7229 192.723 46.7761 195.173 45.7612C197.011 45 199.341 45 204 45H224C228.659 45 230.989 45 232.827 45.7612C235.277 46.7761 237.224 48.7229 238.239 51.1732C239 53.0109 239 55.3406 239 60V80C239 84.6594 239 86.9891 238.239 88.8268C237.224 91.2771 235.277 93.2239 232.827 94.2388C230.989 95 228.659 95 224 95H204C199.341 95 197.011 95 195.173 94.2388C192.723 93.2239 190.776 91.2771 189.761 88.8268C189 86.9891 189 84.6594 189 80V60Z" fill="#F71963"/>
<path d="M186.395 28.968C187.019 28.716 187.427 28.128 187.427 27.36V27.24C187.427 25.752 186.143 25.2 184.475 25.2H181.439V33H184.823C186.515 33 187.691 32.364 187.691 30.876V30.756C187.691 29.928 187.115 29.184 186.395 28.992V28.968ZM184.631 26.664C185.195 26.664 185.423 27.048 185.423 27.432C185.423 27.768 185.219 28.32 184.607 28.32H183.347V26.664H184.631ZM184.739 29.784C185.567 29.784 185.723 30.408 185.723 30.696C185.723 31.128 185.579 31.524 184.727 31.524H183.347V29.784H184.739ZM192.217 27.024C192.313 27.456 192.493 28.008 192.649 28.452L193.249 30.108H191.161L191.761 28.452C191.917 28.008 192.097 27.456 192.193 27.024H192.217ZM194.293 33H196.309V32.784L193.261 25.2H191.125L188.077 32.784V33H190.117L190.609 31.644H193.801L194.293 33ZM196.89 27.564C196.89 28.104 197.166 28.692 197.49 29.016C198.066 29.592 199.314 29.76 200.178 30.084C200.862 30.312 200.994 30.528 200.994 30.948C200.994 31.392 200.574 31.74 199.902 31.74C199.182 31.74 198.702 31.452 198.666 30.744H196.734V30.912C196.89 32.58 198.186 33.18 199.83 33.18C201.342 33.18 202.938 32.556 202.938 30.684V30.564C202.938 29.976 202.65 29.388 202.326 29.064C201.75 28.488 200.55 28.236 199.758 28.02C199.23 27.876 198.882 27.732 198.882 27.216C198.882 26.796 199.218 26.508 199.89 26.508C200.574 26.508 200.85 26.856 200.886 27.3H202.77V27.144C202.638 25.608 201.342 25.056 199.83 25.056C198.414 25.056 196.89 25.68 196.89 27.444V27.564ZM204.197 25.2V33H209.597V31.392H206.177V29.88H209.081V28.236H206.177V26.796H209.597V25.2H204.197ZM216.642 30.84C218.382 30.84 219.714 29.892 219.714 28.164V27.972C219.714 26.184 218.334 25.2 216.75 25.2H213.15V33H215.142V30.84H216.642ZM216.546 26.724C217.422 26.724 217.722 27.264 217.722 28.068C217.722 28.788 217.398 29.304 216.486 29.304H215.142V26.724H216.546ZM224.068 26.724C224.944 26.724 225.208 27.252 225.208 27.732C225.208 28.32 224.896 28.848 223.936 28.848H222.736V26.724H224.068ZM227.14 27.684C227.14 26.016 225.76 25.2 224.116 25.2H220.756V33H222.736V30.264H223.372L225.352 33H227.452V32.76L225.436 30.096C226.492 29.748 227.14 28.944 227.14 27.876V27.684ZM230.329 33V25.2H228.349V33H230.329ZM235.631 26.724C236.603 26.724 237.155 27.18 237.299 28.092H239.279V27.936C239.087 26.112 237.455 25.02 235.535 25.02C233.327 25.02 231.539 26.676 231.539 28.98V29.268C231.539 31.644 233.339 33.18 235.535 33.18C237.527 33.18 239.051 32.064 239.279 30.132V29.964H237.311C237.227 30.864 236.723 31.464 235.631 31.464C234.239 31.464 233.615 30.372 233.615 29.088C233.615 27.816 234.239 26.724 235.631 26.724ZM240.42 25.2V33H245.82V31.392H242.4V29.88H245.304V28.236H242.4V26.796H245.82V25.2H240.42Z" fill="black"/>
<path d="M313.154 30.84C314.894 30.84 316.226 29.892 316.226 28.164V27.972C316.226 26.184 314.846 25.2 313.262 25.2H309.662V33H311.654V30.84H313.154ZM313.058 26.724C313.934 26.724 314.234 27.264 314.234 28.068C314.234 28.788 313.91 29.304 312.998 29.304H311.654V26.724H313.058ZM320.579 26.724C321.455 26.724 321.719 27.252 321.719 27.732C321.719 28.32 321.407 28.848 320.447 28.848H319.247V26.724H320.579ZM323.651 27.684C323.651 26.016 322.271 25.2 320.627 25.2H317.267V33H319.247V30.264H319.883L321.863 33H323.963V32.76L321.947 30.096C323.003 29.748 323.651 28.944 323.651 27.876V27.684ZM326.841 33V25.2H324.861V33H326.841ZM332.142 26.724C333.114 26.724 333.666 27.18 333.81 28.092H335.79V27.936C335.598 26.112 333.966 25.02 332.046 25.02C329.838 25.02 328.05 26.676 328.05 28.98V29.268C328.05 31.644 329.85 33.18 332.046 33.18C334.038 33.18 335.562 32.064 335.79 30.132V29.964H333.822C333.738 30.864 333.234 31.464 332.142 31.464C330.75 31.464 330.126 30.372 330.126 29.088C330.126 27.816 330.75 26.724 332.142 26.724ZM336.932 25.2V33H342.332V31.392H338.912V29.88H341.816V28.236H338.912V26.796H342.332V25.2H336.932ZM349.197 26.724C350.073 26.724 350.337 27.252 350.337 27.732C350.337 28.32 350.025 28.848 349.065 28.848H347.865V26.724H349.197ZM352.269 27.684C352.269 26.016 350.889 25.2 349.245 25.2H345.885V33H347.865V30.264H348.501L350.481 33H352.581V32.76L350.565 30.096C351.621 29.748 352.269 28.944 352.269 27.876V27.684ZM360.15 25.2H358.206V30.324C358.206 31.14 357.582 31.536 356.85 31.536C355.986 31.536 355.434 31.14 355.434 30.324V25.2H353.43V30.012C353.43 32.076 354.558 33.18 356.802 33.18C359.01 33.18 360.15 32.076 360.15 30.012V25.2ZM361.764 33H367.044V31.428H363.744V25.2H361.764V33ZM368.197 25.2V33H373.597V31.392H370.177V29.88H373.081V28.236H370.177V26.796H373.597V25.2H368.197Z" fill="black"/>
<path d="M405.278 65.806H412.726V63.958H405.278V65.806ZM405.278 68.858H412.726V67.024H405.278V68.858Z" fill="black"/>
<path d="M273.48 72L274.964 69.9L276.448 72H278.8V71.762L276.28 68.248L278.492 65.238V65H276.238L275.048 66.778L273.872 65H271.52V65.238L273.746 68.304L271.198 71.762V72H273.48Z" fill="black"/>
<path d="M317 70C317 56.1929 328.193 45 342 45C355.807 45 367 56.1929 367 70C367 83.8071 355.807 95 342 95C328.193 95 317 83.8071 317 70Z" fill="#00BBD4"/>
</svg>
