<svg width="330" height="530" viewBox="0 0 330 530" fill="none" xmlns="http://www.w3.org/2000/svg">
<rect width="330" height="530" fill="white"/>
<path d="M99 27C99 22.3406 99 20.0109 99.7612 18.1732C100.776 15.7229 102.723 13.7761 105.173 12.7612C107.011 12 109.341 12 114 12H216C220.659 12 222.989 12 224.827 12.7612C227.277 13.7761 229.224 15.7229 230.239 18.1732C231 20.0109 231 22.3406 231 27V67.7072C231 72.3666 231 74.6963 230.239 76.534C229.224 78.9843 227.277 80.9311 224.827 81.946C222.989 82.7072 220.659 82.7072 216 82.7072H114C109.341 82.7072 107.011 82.7072 105.173 81.946C102.723 80.9311 100.776 78.9843 99.7612 76.534C99 74.6963 99 72.3666 99 67.7072V27Z" fill="#142032"/>
<path d="M165 66.3114L193.579 98.5908H136.421L165 66.3114Z" fill="#142032"/>
<path d="M129.38 43.2V51H134.78V49.392H131.36V47.88H134.264V46.236H131.36V44.796H134.78V43.2H129.38ZM135.973 48.336H140.437V46.656H135.973V48.336ZM145.544 44.724C146.516 44.724 147.068 45.18 147.212 46.092H149.192V45.936C149 44.112 147.368 43.02 145.448 43.02C143.24 43.02 141.452 44.676 141.452 46.98V47.268C141.452 49.644 143.252 51.18 145.448 51.18C147.44 51.18 148.964 50.064 149.192 48.132V47.964H147.224C147.14 48.864 146.636 49.464 145.544 49.464C144.152 49.464 143.528 48.372 143.528 47.088C143.528 45.816 144.152 44.724 145.544 44.724ZM149.901 48.12C149.901 50.04 151.377 51.192 153.129 51.192C154.821 51.192 156.309 50.04 156.309 48.108V47.88C156.309 45.96 154.833 44.808 153.105 44.808C151.377 44.808 149.901 45.96 149.901 47.892V48.12ZM151.881 47.976C151.881 47.076 152.265 46.368 153.105 46.368C153.945 46.368 154.329 47.1 154.329 48.012C154.329 48.912 153.945 49.62 153.105 49.62C152.265 49.62 151.881 48.888 151.881 47.976ZM162.569 45.792C162.245 45.204 161.693 44.82 160.793 44.82C160.073 44.82 159.509 45.096 159.137 45.768H159.113L158.873 45H157.409V51H159.293V47.436C159.293 46.668 159.617 46.38 160.157 46.38C160.625 46.38 160.961 46.596 160.961 47.412V51H162.857V47.412C162.857 46.656 163.181 46.38 163.721 46.38C164.189 46.38 164.525 46.596 164.525 47.412V51H166.409V46.848C166.409 45.696 165.749 44.82 164.357 44.82C163.637 44.82 162.977 45.12 162.593 45.792H162.569ZM172.869 45.792C172.545 45.204 171.993 44.82 171.093 44.82C170.373 44.82 169.809 45.096 169.437 45.768H169.413L169.173 45H167.709V51H169.593V47.436C169.593 46.668 169.917 46.38 170.457 46.38C170.925 46.38 171.261 46.596 171.261 47.412V51H173.157V47.412C173.157 46.656 173.481 46.38 174.021 46.38C174.489 46.38 174.825 46.596 174.825 47.412V51H176.709V46.848C176.709 45.696 176.049 44.82 174.657 44.82C173.937 44.82 173.277 45.12 172.893 45.792H172.869ZM180.794 44.808C179.066 44.808 177.698 46.032 177.698 47.916V48.12C177.698 50.04 179.174 51.192 180.866 51.192C182.246 51.192 183.47 50.52 183.758 49.128H181.994C181.814 49.596 181.406 49.752 180.914 49.752C180.134 49.752 179.702 49.212 179.618 48.456H183.746C183.758 48.324 183.77 48.036 183.77 47.796C183.77 45.78 182.342 44.808 180.794 44.808ZM179.654 47.256C179.75 46.632 180.11 46.152 180.842 46.152C181.478 46.152 181.898 46.596 181.898 47.256H179.654ZM186.761 48.168C186.761 47.388 186.941 46.776 188.009 46.776H188.777V45.024C188.621 44.976 188.357 44.952 188.177 44.952C187.409 44.952 186.737 45.42 186.653 46.272H186.617L186.269 45H184.877V51H186.761V48.168ZM192.516 46.308C193.14 46.308 193.56 46.68 193.692 47.352H195.408V47.196C195.276 45.66 193.956 44.808 192.432 44.808C190.704 44.808 189.3 46.068 189.3 47.892V48.12C189.3 50.004 190.752 51.192 192.444 51.192C193.884 51.192 195.252 50.34 195.408 48.804V48.648H193.692C193.536 49.356 193.188 49.692 192.516 49.692C191.616 49.692 191.208 48.972 191.208 48C191.208 47.04 191.616 46.308 192.516 46.308ZM199.134 44.808C197.406 44.808 196.038 46.032 196.038 47.916V48.12C196.038 50.04 197.514 51.192 199.206 51.192C200.586 51.192 201.81 50.52 202.098 49.128H200.334C200.154 49.596 199.746 49.752 199.254 49.752C198.474 49.752 198.042 49.212 197.958 48.456H202.086C202.098 48.324 202.11 48.036 202.11 47.796C202.11 45.78 200.682 44.808 199.134 44.808ZM197.994 47.256C198.09 46.632 198.45 46.152 199.182 46.152C199.818 46.152 200.238 46.596 200.238 47.256H197.994Z" fill="white"/>
<line x1="164.671" y1="98" x2="164.671" y2="164.608" stroke="black" stroke-width="0.5"/>
<line x1="198" y1="164.286" x2="132" y2="164.286" stroke="white"/>
<line x1="198" y1="160.174" x2="132" y2="160.174" stroke="white"/>
<line x1="198" y1="156.063" x2="132" y2="156.063" stroke="white"/>
<line x1="198" y1="151.951" x2="132" y2="151.951" stroke="white"/>
<line x1="198" y1="148.662" x2="132" y2="148.662" stroke="white"/>
<line x1="198" y1="144.55" x2="132" y2="144.55" stroke="white"/>
<line x1="198" y1="140.439" x2="132" y2="140.439" stroke="white"/>
<line x1="198" y1="136.327" x2="132" y2="136.327" stroke="white"/>
<line x1="198" y1="133.038" x2="132" y2="133.038" stroke="white"/>
<line x1="198" y1="128.926" x2="132" y2="128.926" stroke="white"/>
<line x1="198" y1="124.814" x2="132" y2="124.814" stroke="white"/>
<line x1="198" y1="120.703" x2="132" y2="120.703" stroke="white"/>
<line x1="198" y1="117.413" x2="132" y2="117.413" stroke="white"/>
<line x1="198" y1="113.302" x2="132" y2="113.302" stroke="white"/>
<line x1="198" y1="109.19" x2="132" y2="109.19" stroke="white"/>
<line x1="198" y1="105.079" x2="132" y2="105.079" stroke="white"/>
<line x1="198" y1="100.967" x2="132" y2="100.967" stroke="white"/>
<path d="M165.591 163.506C165.243 164.309 164.104 164.309 163.756 163.506L162.68 161.022C162.395 160.362 162.879 159.625 163.598 159.625H165.749C166.468 159.625 166.952 160.362 166.666 161.022L165.591 163.506Z" fill="black"/>
<rect x="103" y="164" width="122.425" height="32.7918" rx="10" fill="#F71963"/>
<path d="M149.487 179.878H145.719V181.462H147.723V182.23C147.303 182.554 146.763 182.77 146.007 182.77C144.507 182.77 143.667 181.69 143.667 180.31C143.667 178.786 144.351 177.862 145.779 177.862C146.655 177.862 147.243 178.162 147.375 178.87H149.307V178.714C149.055 176.95 147.675 176.218 145.719 176.218C143.427 176.218 141.627 177.802 141.627 180.154V180.442C141.627 182.686 143.271 184.378 145.827 184.378C147.735 184.378 148.983 183.454 149.487 182.794V179.878ZM153.198 182.938C152.706 182.938 152.37 182.758 152.37 182.326C152.37 181.762 152.874 181.606 153.39 181.606C153.714 181.606 154.002 181.69 154.23 181.798V182.05C154.23 182.638 153.63 182.938 153.198 182.938ZM154.446 183.502L154.674 184.198H156.078V180.478C156.078 179.71 155.922 179.122 155.502 178.702C154.974 178.162 154.254 178.018 153.354 178.018C152.142 178.018 150.81 178.654 150.81 179.902V180.058H152.61V180.034C152.646 179.686 152.85 179.362 153.426 179.362C153.966 179.362 154.23 179.686 154.23 180.298V180.574C153.858 180.478 153.57 180.442 153.174 180.442C152.298 180.442 151.446 180.694 151.002 181.162C150.654 181.51 150.486 181.906 150.486 182.374V182.506C150.486 183.694 151.506 184.378 152.694 184.378C153.474 184.378 154.098 184.042 154.422 183.502H154.446ZM159.345 178.27V176.842H158.577C158.121 177.73 157.701 178.294 156.705 178.75V179.626H157.461V182.41C157.461 183.814 158.337 184.318 159.489 184.318C159.909 184.318 160.557 184.186 160.833 184.006V182.614H160.689C160.461 182.71 160.185 182.806 159.945 182.806C159.573 182.806 159.357 182.65 159.357 182.206V179.626H160.713V178.27H159.345ZM164.516 178.006C162.788 178.006 161.42 179.23 161.42 181.114V181.318C161.42 183.238 162.896 184.39 164.588 184.39C165.968 184.39 167.192 183.718 167.48 182.326H165.716C165.536 182.794 165.128 182.95 164.636 182.95C163.856 182.95 163.424 182.41 163.34 181.654H167.468C167.48 181.522 167.492 181.234 167.492 180.994C167.492 178.978 166.064 178.006 164.516 178.006ZM163.376 180.454C163.472 179.83 163.832 179.35 164.564 179.35C165.2 179.35 165.62 179.794 165.62 180.454H163.376ZM174.929 180.886C174.821 181.222 174.761 181.594 174.677 182.026H174.653C174.581 181.594 174.497 181.21 174.389 180.874L173.597 178.198H171.725L170.957 180.886C170.861 181.222 170.801 181.594 170.717 182.026H170.693C170.621 181.594 170.537 181.21 170.429 180.874L169.637 178.198H167.789V178.414L169.661 184.198H171.425L172.637 180.478L173.837 184.198H175.625L177.473 178.402V178.198H175.721L174.929 180.886ZM180.397 182.938C179.905 182.938 179.569 182.758 179.569 182.326C179.569 181.762 180.073 181.606 180.589 181.606C180.913 181.606 181.201 181.69 181.429 181.798V182.05C181.429 182.638 180.829 182.938 180.397 182.938ZM181.645 183.502L181.873 184.198H183.277V180.478C183.277 179.71 183.121 179.122 182.701 178.702C182.173 178.162 181.453 178.018 180.553 178.018C179.341 178.018 178.009 178.654 178.009 179.902V180.058H179.809V180.034C179.845 179.686 180.049 179.362 180.625 179.362C181.165 179.362 181.429 179.686 181.429 180.298V180.574C181.057 180.478 180.769 180.442 180.373 180.442C179.497 180.442 178.645 180.694 178.201 181.162C177.853 181.51 177.685 181.906 177.685 182.374V182.506C177.685 183.694 178.705 184.378 179.893 184.378C180.673 184.378 181.297 184.042 181.621 183.502H181.645ZM187.046 182.23C186.95 181.81 186.818 181.318 186.674 180.946L185.714 178.198H183.71V178.402L185.99 183.91L184.934 186.166V186.358H186.95L190.238 178.402V178.198H188.354L187.418 180.946C187.286 181.318 187.154 181.81 187.07 182.23H187.046Z" fill="white"/>
<line x1="132.671" y1="197" x2="132.671" y2="263.608" stroke="black" stroke-width="0.5"/>
<line x1="166" y1="259.174" x2="100" y2="259.174" stroke="white"/>
<line x1="166" y1="255.063" x2="100" y2="255.063" stroke="white"/>
<line x1="166" y1="250.951" x2="100" y2="250.951" stroke="white"/>
<line x1="166" y1="247.662" x2="100" y2="247.662" stroke="white"/>
<line x1="166" y1="243.55" x2="100" y2="243.55" stroke="white"/>
<line x1="166" y1="239.439" x2="100" y2="239.439" stroke="white"/>
<line x1="166" y1="235.327" x2="100" y2="235.327" stroke="white"/>
<line x1="166" y1="232.038" x2="100" y2="232.038" stroke="white"/>
<line x1="166" y1="227.926" x2="100" y2="227.926" stroke="white"/>
<line x1="166" y1="223.814" x2="100" y2="223.814" stroke="white"/>
<line x1="166" y1="219.703" x2="100" y2="219.703" stroke="white"/>
<line x1="166" y1="216.413" x2="100" y2="216.413" stroke="white"/>
<line x1="166" y1="212.302" x2="100" y2="212.302" stroke="white"/>
<line x1="166" y1="208.19" x2="100" y2="208.19" stroke="white"/>
<line x1="166" y1="204.079" x2="100" y2="204.079" stroke="white"/>
<line x1="166" y1="199.967" x2="100" y2="199.967" stroke="white"/>
<path d="M133.591 262.506C133.243 263.309 132.104 263.309 131.756 262.506L130.68 260.022C130.395 259.362 130.879 258.625 131.598 258.625H133.749C134.468 258.625 134.952 259.362 134.666 260.022L133.591 262.506Z" fill="black"/>
<line x1="195.329" y1="263.608" x2="195.329" y2="197" stroke="black" stroke-width="0.5"/>
<line x1="162" y1="197.322" x2="228" y2="197.322" stroke="white"/>
<line x1="162" y1="201.434" x2="228" y2="201.434" stroke="white"/>
<line x1="162" y1="205.546" x2="228" y2="205.546" stroke="white"/>
<line x1="162" y1="209.657" x2="228" y2="209.657" stroke="white"/>
<line x1="162" y1="212.946" x2="228" y2="212.946" stroke="white"/>
<line x1="162" y1="217.058" x2="228" y2="217.058" stroke="white"/>
<line x1="162" y1="221.17" x2="228" y2="221.17" stroke="white"/>
<line x1="162" y1="225.281" x2="228" y2="225.281" stroke="white"/>
<line x1="162" y1="228.571" x2="228" y2="228.571" stroke="white"/>
<line x1="162" y1="232.682" x2="228" y2="232.682" stroke="white"/>
<line x1="162" y1="236.794" x2="228" y2="236.794" stroke="white"/>
<line x1="162" y1="240.905" x2="228" y2="240.905" stroke="white"/>
<line x1="162" y1="244.195" x2="228" y2="244.195" stroke="white"/>
<line x1="162" y1="248.306" x2="228" y2="248.306" stroke="white"/>
<line x1="162" y1="252.418" x2="228" y2="252.418" stroke="white"/>
<line x1="162" y1="256.53" x2="228" y2="256.53" stroke="white"/>
<line x1="162" y1="260.641" x2="228" y2="260.641" stroke="white"/>
<path d="M194.409 198.103C194.757 197.299 195.896 197.299 196.244 198.103L197.32 200.586C197.605 201.246 197.121 201.983 196.402 201.983H194.251C193.532 201.983 193.048 201.246 193.334 200.586L194.409 198.103Z" fill="black"/>
<rect x="103" y="263" width="122.425" height="32.7918" rx="10" fill="#00BBD4"/>
<path d="M145.501 277.222C145.597 277.654 145.777 278.206 145.933 278.65L146.533 280.306H144.445L145.045 278.65C145.201 278.206 145.381 277.654 145.477 277.222H145.501ZM147.577 283.198H149.593V282.982L146.545 275.398H144.409L141.361 282.982V283.198H143.401L143.893 281.842H147.085L147.577 283.198ZM153.105 278.506C153.729 278.506 154.149 278.878 154.281 279.55H155.997V279.394C155.865 277.858 154.545 277.006 153.021 277.006C151.293 277.006 149.889 278.266 149.889 280.09V280.318C149.889 282.202 151.341 283.39 153.033 283.39C154.473 283.39 155.841 282.538 155.997 281.002V280.846H154.281C154.125 281.554 153.777 281.89 153.105 281.89C152.205 281.89 151.797 281.17 151.797 280.198C151.797 279.238 152.205 278.506 153.105 278.506ZM161.067 282.67V285.358H162.951V277.198H161.607L161.367 277.894H161.343C160.947 277.33 160.299 277.018 159.483 277.018C157.851 277.018 156.627 278.422 156.627 280.114V280.342C156.627 282.19 157.947 283.378 159.339 283.378C160.095 283.378 160.707 283.102 161.043 282.67H161.067ZM158.607 280.174C158.607 279.274 159.003 278.566 159.855 278.566C160.707 278.566 161.103 279.298 161.103 280.21C161.103 281.11 160.707 281.818 159.855 281.818C159.003 281.818 158.607 281.086 158.607 280.174ZM166.133 277.198H164.249V280.702C164.249 282.49 165.269 283.378 167.009 283.378C168.749 283.378 169.781 282.514 169.781 280.702V277.198H167.957V280.822C167.957 281.602 167.513 281.878 167.045 281.878C166.601 281.878 166.133 281.602 166.133 280.822V277.198ZM173.148 275.542C173.148 274.918 172.62 274.546 171.996 274.546C171.36 274.546 170.844 274.918 170.844 275.542V275.626C170.844 276.25 171.36 276.598 171.996 276.598C172.62 276.598 173.148 276.25 173.148 275.626V275.542ZM172.944 283.198V277.198H171.048V283.198H172.944ZM176.214 280.366C176.214 279.586 176.394 278.974 177.462 278.974H178.23V277.222C178.074 277.174 177.81 277.15 177.63 277.15C176.862 277.15 176.19 277.618 176.106 278.47H176.07L175.722 277.198H174.33V283.198H176.214V280.366ZM181.848 277.006C180.12 277.006 178.752 278.23 178.752 280.114V280.318C178.752 282.238 180.228 283.39 181.92 283.39C183.3 283.39 184.524 282.718 184.812 281.326H183.048C182.868 281.794 182.46 281.95 181.968 281.95C181.188 281.95 180.756 281.41 180.672 280.654H184.8C184.812 280.522 184.824 280.234 184.824 279.994C184.824 277.978 183.396 277.006 181.848 277.006ZM180.708 279.454C180.804 278.83 181.164 278.35 181.896 278.35C182.532 278.35 182.952 278.794 182.952 279.454H180.708ZM187.815 280.366C187.815 279.586 187.995 278.974 189.063 278.974H189.831V277.222C189.675 277.174 189.411 277.15 189.231 277.15C188.463 277.15 187.791 277.618 187.707 278.47H187.671L187.323 277.198H185.931V283.198H187.815V280.366Z" fill="white"/>
<line x1="132.671" y1="297" x2="132.671" y2="363.608" stroke="black" stroke-width="0.5"/>
<line x1="166" y1="359.174" x2="100" y2="359.174" stroke="white"/>
<line x1="166" y1="355.063" x2="100" y2="355.063" stroke="white"/>
<line x1="166" y1="350.951" x2="100" y2="350.951" stroke="white"/>
<line x1="166" y1="347.662" x2="100" y2="347.662" stroke="white"/>
<line x1="166" y1="343.55" x2="100" y2="343.55" stroke="white"/>
<line x1="166" y1="339.439" x2="100" y2="339.439" stroke="white"/>
<line x1="166" y1="335.327" x2="100" y2="335.327" stroke="white"/>
<line x1="166" y1="332.038" x2="100" y2="332.038" stroke="white"/>
<line x1="166" y1="327.926" x2="100" y2="327.926" stroke="white"/>
<line x1="166" y1="323.814" x2="100" y2="323.814" stroke="white"/>
<line x1="166" y1="319.703" x2="100" y2="319.703" stroke="white"/>
<line x1="166" y1="316.413" x2="100" y2="316.413" stroke="white"/>
<line x1="166" y1="312.302" x2="100" y2="312.302" stroke="white"/>
<line x1="166" y1="308.19" x2="100" y2="308.19" stroke="white"/>
<line x1="166" y1="304.079" x2="100" y2="304.079" stroke="white"/>
<line x1="166" y1="299.967" x2="100" y2="299.967" stroke="white"/>
<path d="M133.591 362.506C133.243 363.309 132.104 363.309 131.756 362.506L130.68 360.022C130.395 359.362 130.879 358.625 131.598 358.625H133.749C134.468 358.625 134.952 359.362 134.666 360.022L133.591 362.506Z" fill="black"/>
<line x1="196.329" y1="363.608" x2="196.329" y2="297" stroke="black" stroke-width="0.5"/>
<line x1="163" y1="297.322" x2="229" y2="297.322" stroke="white"/>
<line x1="163" y1="301.434" x2="229" y2="301.434" stroke="white"/>
<line x1="163" y1="305.546" x2="229" y2="305.546" stroke="white"/>
<line x1="163" y1="309.657" x2="229" y2="309.657" stroke="white"/>
<line x1="163" y1="312.946" x2="229" y2="312.946" stroke="white"/>
<line x1="163" y1="317.058" x2="229" y2="317.058" stroke="white"/>
<line x1="163" y1="321.17" x2="229" y2="321.17" stroke="white"/>
<line x1="163" y1="325.281" x2="229" y2="325.281" stroke="white"/>
<line x1="163" y1="328.571" x2="229" y2="328.571" stroke="white"/>
<line x1="163" y1="332.682" x2="229" y2="332.682" stroke="white"/>
<line x1="163" y1="336.794" x2="229" y2="336.794" stroke="white"/>
<line x1="163" y1="340.906" x2="229" y2="340.906" stroke="white"/>
<line x1="163" y1="344.195" x2="229" y2="344.195" stroke="white"/>
<line x1="163" y1="348.306" x2="229" y2="348.306" stroke="white"/>
<line x1="163" y1="352.418" x2="229" y2="352.418" stroke="white"/>
<line x1="163" y1="356.53" x2="229" y2="356.53" stroke="white"/>
<line x1="163" y1="360.641" x2="229" y2="360.641" stroke="white"/>
<path d="M195.409 298.103C195.757 297.299 196.896 297.299 197.244 298.103L198.32 300.586C198.605 301.246 198.121 301.983 197.402 301.983H195.251C194.532 301.983 194.048 301.246 194.334 300.586L195.409 298.103Z" fill="black"/>
<rect x="103" y="365" width="122.425" height="32.7918" rx="10" fill="#00BBD4"/>
<path d="M138.905 378.922C139.877 378.922 140.429 379.378 140.573 380.29H142.553V380.134C142.361 378.31 140.729 377.218 138.809 377.218C136.601 377.218 134.813 378.874 134.813 381.178V381.466C134.813 383.842 136.613 385.378 138.809 385.378C140.801 385.378 142.325 384.262 142.553 382.33V382.162H140.585C140.501 383.062 139.997 383.662 138.905 383.662C137.513 383.662 136.889 382.57 136.889 381.286C136.889 380.014 137.513 378.922 138.905 378.922ZM145.962 383.938C145.47 383.938 145.134 383.758 145.134 383.326C145.134 382.762 145.638 382.606 146.154 382.606C146.478 382.606 146.766 382.69 146.994 382.798V383.05C146.994 383.638 146.394 383.938 145.962 383.938ZM147.21 384.502L147.438 385.198H148.842V381.478C148.842 380.71 148.686 380.122 148.266 379.702C147.738 379.162 147.018 379.018 146.118 379.018C144.906 379.018 143.574 379.654 143.574 380.902V381.058H145.374V381.034C145.41 380.686 145.614 380.362 146.19 380.362C146.73 380.362 146.994 380.686 146.994 381.298V381.574C146.622 381.478 146.334 381.442 145.938 381.442C145.062 381.442 144.21 381.694 143.766 382.162C143.418 382.51 143.25 382.906 143.25 383.374V383.506C143.25 384.694 144.27 385.378 145.458 385.378C146.238 385.378 146.862 385.042 147.186 384.502H147.21ZM152.044 382.366C152.044 381.586 152.224 380.974 153.292 380.974H154.06V379.222C153.904 379.174 153.64 379.15 153.46 379.15C152.692 379.15 152.02 379.618 151.936 380.47H151.9L151.552 379.198H150.16V385.198H152.044V382.366ZM156.562 382.174C156.562 381.274 156.958 380.566 157.81 380.566C158.662 380.566 159.058 381.298 159.058 382.21C159.058 383.11 158.662 383.818 157.81 383.818C156.958 383.818 156.562 383.086 156.562 382.174ZM154.582 382.342C154.582 384.226 155.938 385.378 157.33 385.378C158.146 385.378 158.734 385.126 159.202 384.466H159.226L159.466 385.198H160.906V376.798H159.034V379.606H159.01C158.662 379.21 158.134 379.018 157.414 379.018C155.794 379.018 154.582 380.422 154.582 382.114V382.342ZM169.556 381.166C170.18 380.914 170.588 380.326 170.588 379.558V379.438C170.588 377.95 169.304 377.398 167.636 377.398H164.6V385.198H167.984C169.676 385.198 170.852 384.562 170.852 383.074V382.954C170.852 382.126 170.276 381.382 169.556 381.19V381.166ZM167.792 378.862C168.356 378.862 168.584 379.246 168.584 379.63C168.584 379.966 168.38 380.518 167.768 380.518H166.508V378.862H167.792ZM167.9 381.982C168.728 381.982 168.884 382.606 168.884 382.894C168.884 383.326 168.74 383.722 167.888 383.722H166.508V381.982H167.9ZM173.923 382.366C173.923 381.586 174.103 380.974 175.171 380.974H175.939V379.222C175.783 379.174 175.519 379.15 175.339 379.15C174.571 379.15 173.899 379.618 173.815 380.47H173.779L173.431 379.198H172.039V385.198H173.923V382.366ZM179.102 383.938C178.61 383.938 178.274 383.758 178.274 383.326C178.274 382.762 178.778 382.606 179.294 382.606C179.618 382.606 179.906 382.69 180.134 382.798V383.05C180.134 383.638 179.534 383.938 179.102 383.938ZM180.35 384.502L180.578 385.198H181.982V381.478C181.982 380.71 181.826 380.122 181.406 379.702C180.878 379.162 180.158 379.018 179.258 379.018C178.046 379.018 176.714 379.654 176.714 380.902V381.058H178.514V381.034C178.55 380.686 178.754 380.362 179.33 380.362C179.87 380.362 180.134 380.686 180.134 381.298V381.574C179.762 381.478 179.474 381.442 179.078 381.442C178.202 381.442 177.35 381.694 176.906 382.162C176.558 382.51 176.39 382.906 176.39 383.374V383.506C176.39 384.694 177.41 385.378 178.598 385.378C179.378 385.378 180.002 385.042 180.326 384.502H180.35ZM185.184 381.718C185.184 380.95 185.556 380.578 186.168 380.578C186.696 380.578 187.092 380.914 187.092 381.718V385.198H188.976V381.154C188.976 379.99 188.28 379.018 186.804 379.018C186.036 379.018 185.448 379.306 185.028 379.978H185.004L184.764 379.198H183.3V385.198H185.184V381.718ZM191.941 382.174C191.941 381.274 192.337 380.566 193.189 380.566C194.041 380.566 194.437 381.298 194.437 382.21C194.437 383.11 194.041 383.818 193.189 383.818C192.337 383.818 191.941 383.086 191.941 382.174ZM189.961 382.342C189.961 384.226 191.317 385.378 192.709 385.378C193.525 385.378 194.113 385.126 194.581 384.466H194.605L194.845 385.198H196.285V376.798H194.413V379.606H194.389C194.041 379.21 193.513 379.018 192.793 379.018C191.173 379.018 189.961 380.422 189.961 382.114V382.342Z" fill="white"/>
<line x1="131.671" y1="398" x2="131.671" y2="464.608" stroke="black" stroke-width="0.5"/>
<line x1="165" y1="460.174" x2="99" y2="460.174" stroke="white"/>
<line x1="165" y1="456.063" x2="99" y2="456.063" stroke="white"/>
<line x1="165" y1="451.951" x2="99" y2="451.951" stroke="white"/>
<line x1="165" y1="448.662" x2="99" y2="448.662" stroke="white"/>
<line x1="165" y1="444.55" x2="99" y2="444.55" stroke="white"/>
<line x1="165" y1="440.439" x2="99" y2="440.439" stroke="white"/>
<line x1="165" y1="436.327" x2="99" y2="436.327" stroke="white"/>
<line x1="165" y1="433.038" x2="99" y2="433.038" stroke="white"/>
<line x1="165" y1="428.926" x2="99" y2="428.926" stroke="white"/>
<line x1="165" y1="424.814" x2="99" y2="424.814" stroke="white"/>
<line x1="165" y1="420.703" x2="99" y2="420.703" stroke="white"/>
<line x1="165" y1="417.413" x2="99" y2="417.413" stroke="white"/>
<line x1="165" y1="413.302" x2="99" y2="413.302" stroke="white"/>
<line x1="165" y1="409.19" x2="99" y2="409.19" stroke="white"/>
<line x1="165" y1="405.079" x2="99" y2="405.079" stroke="white"/>
<line x1="165" y1="400.967" x2="99" y2="400.967" stroke="white"/>
<path d="M132.591 463.506C132.243 464.309 131.104 464.309 130.756 463.506L129.68 461.022C129.395 460.362 129.879 459.625 130.598 459.625H132.749C133.468 459.625 133.952 460.362 133.666 461.022L132.591 463.506Z" fill="black"/>
<line x1="195.329" y1="464.608" x2="195.329" y2="398" stroke="black" stroke-width="0.5"/>
<line x1="162" y1="398.322" x2="228" y2="398.322" stroke="white"/>
<line x1="162" y1="402.434" x2="228" y2="402.434" stroke="white"/>
<line x1="162" y1="406.546" x2="228" y2="406.546" stroke="white"/>
<line x1="162" y1="410.657" x2="228" y2="410.657" stroke="white"/>
<line x1="162" y1="413.946" x2="228" y2="413.946" stroke="white"/>
<line x1="162" y1="418.058" x2="228" y2="418.058" stroke="white"/>
<line x1="162" y1="422.17" x2="228" y2="422.17" stroke="white"/>
<line x1="162" y1="426.281" x2="228" y2="426.281" stroke="white"/>
<line x1="162" y1="429.571" x2="228" y2="429.571" stroke="white"/>
<line x1="162" y1="433.682" x2="228" y2="433.682" stroke="white"/>
<line x1="162" y1="437.794" x2="228" y2="437.794" stroke="white"/>
<line x1="162" y1="441.906" x2="228" y2="441.906" stroke="white"/>
<line x1="162" y1="445.195" x2="228" y2="445.195" stroke="white"/>
<line x1="162" y1="449.306" x2="228" y2="449.306" stroke="white"/>
<line x1="162" y1="453.418" x2="228" y2="453.418" stroke="white"/>
<line x1="162" y1="457.53" x2="228" y2="457.53" stroke="white"/>
<line x1="162" y1="461.641" x2="228" y2="461.641" stroke="white"/>
<path d="M194.409 399.103C194.757 398.299 195.896 398.299 196.244 399.103L197.32 401.586C197.605 402.246 197.121 402.983 196.402 402.983H194.251C193.532 402.983 193.048 402.246 193.334 401.586L194.409 399.103Z" fill="black"/>
<rect x="103" y="465" width="122.427" height="32.7918" rx="10" fill="#00BBD4"/>
<path d="M134.055 485.198V477.398H132.075V485.198H134.055ZM135.301 480.998C135.301 481.418 135.469 481.838 135.745 482.114C136.345 482.714 137.257 482.774 137.869 482.93C138.385 483.062 138.517 483.29 138.517 483.566C138.517 483.938 138.229 484.106 137.797 484.106C137.281 484.106 136.969 483.818 136.933 483.242H135.229V483.374C135.289 484.838 136.417 485.378 137.797 485.378C139.021 485.378 140.365 484.814 140.365 483.398V483.278C140.365 482.858 140.221 482.45 139.969 482.174C139.381 481.55 138.457 481.442 137.713 481.322C137.389 481.262 137.173 481.106 137.173 480.782C137.173 480.506 137.377 480.29 137.797 480.29C138.265 480.29 138.505 480.53 138.505 480.926H140.209V480.794C140.209 479.534 139.045 479.006 137.761 479.006C136.609 479.006 135.301 479.498 135.301 480.902V480.998ZM141.101 480.998C141.101 481.418 141.269 481.838 141.545 482.114C142.145 482.714 143.057 482.774 143.669 482.93C144.185 483.062 144.317 483.29 144.317 483.566C144.317 483.938 144.029 484.106 143.597 484.106C143.081 484.106 142.769 483.818 142.733 483.242H141.029V483.374C141.089 484.838 142.217 485.378 143.597 485.378C144.821 485.378 146.165 484.814 146.165 483.398V483.278C146.165 482.858 146.021 482.45 145.769 482.174C145.181 481.55 144.257 481.442 143.513 481.322C143.189 481.262 142.973 481.106 142.973 480.782C142.973 480.506 143.177 480.29 143.597 480.29C144.065 480.29 144.305 480.53 144.305 480.926H146.009V480.794C146.009 479.534 144.845 479.006 143.561 479.006C142.409 479.006 141.101 479.498 141.101 480.902V480.998ZM148.942 479.198H147.058V482.702C147.058 484.49 148.078 485.378 149.818 485.378C151.558 485.378 152.59 484.514 152.59 482.702V479.198H150.766V482.822C150.766 483.602 150.322 483.878 149.854 483.878C149.41 483.878 148.942 483.602 148.942 482.822V479.198ZM155.957 477.542C155.957 476.918 155.429 476.546 154.805 476.546C154.169 476.546 153.653 476.918 153.653 477.542V477.626C153.653 478.25 154.169 478.598 154.805 478.598C155.429 478.598 155.957 478.25 155.957 477.626V477.542ZM155.753 485.198V479.198H153.857V485.198H155.753ZM159.023 481.718C159.023 480.95 159.395 480.578 160.007 480.578C160.535 480.578 160.931 480.914 160.931 481.718V485.198H162.815V481.154C162.815 479.99 162.119 479.018 160.643 479.018C159.875 479.018 159.287 479.306 158.867 479.978H158.843L158.603 479.198H157.139V485.198H159.023V481.718ZM166.728 480.242C167.268 480.242 167.604 480.53 167.604 481.094C167.604 481.658 167.256 481.946 166.728 481.946C166.2 481.946 165.852 481.658 165.852 481.094C165.852 480.53 166.188 480.242 166.728 480.242ZM169.872 485.462C169.872 484.298 168.684 483.794 167.532 483.794H166.14C165.804 483.794 165.576 483.686 165.576 483.362C165.576 483.254 165.588 483.134 165.648 483.038C165.972 483.122 166.344 483.158 166.728 483.158C168.216 483.158 169.404 482.57 169.404 481.178V481.046C169.404 480.386 169.152 479.918 168.72 479.582L169.872 478.202V477.986H168.228L167.328 479.042C167.136 479.018 166.932 479.006 166.728 479.006C165.216 479.006 164.052 479.666 164.052 481.046V481.166C164.052 481.79 164.292 482.258 164.688 482.582C164.076 482.966 163.944 483.314 163.944 483.734C163.944 484.262 164.244 484.49 164.568 484.718C164.004 484.91 163.608 485.534 163.608 485.87V485.966C163.608 487.25 165.324 487.538 166.56 487.538C168.06 487.538 169.872 486.998 169.872 485.546V485.462ZM166.74 486.254C165.84 486.254 165.48 486.062 165.48 485.618C165.48 485.474 165.576 485.246 165.816 485.162H167.4C167.82 485.162 168.036 485.318 168.036 485.63C168.036 486.05 167.64 486.254 166.74 486.254ZM177.895 481.166C178.519 480.914 178.927 480.326 178.927 479.558V479.438C178.927 477.95 177.643 477.398 175.975 477.398H172.939V485.198H176.323C178.015 485.198 179.191 484.562 179.191 483.074V482.954C179.191 482.126 178.615 481.382 177.895 481.19V481.166ZM176.131 478.862C176.695 478.862 176.923 479.246 176.923 479.63C176.923 479.966 176.719 480.518 176.107 480.518H174.847V478.862H176.131ZM176.239 481.982C177.067 481.982 177.223 482.606 177.223 482.894C177.223 483.326 177.079 483.722 176.227 483.722H174.847V481.982H176.239ZM182.765 483.938C182.273 483.938 181.937 483.758 181.937 483.326C181.937 482.762 182.441 482.606 182.957 482.606C183.281 482.606 183.569 482.69 183.797 482.798V483.05C183.797 483.638 183.197 483.938 182.765 483.938ZM184.013 484.502L184.241 485.198H185.645V481.478C185.645 480.71 185.489 480.122 185.069 479.702C184.541 479.162 183.821 479.018 182.921 479.018C181.709 479.018 180.377 479.654 180.377 480.902V481.058H182.177V481.034C182.213 480.686 182.417 480.362 182.993 480.362C183.533 480.362 183.797 480.686 183.797 481.298V481.574C183.425 481.478 183.137 481.442 182.741 481.442C181.865 481.442 181.013 481.694 180.569 482.162C180.221 482.51 180.053 482.906 180.053 483.374V483.506C180.053 484.694 181.073 485.378 182.261 485.378C183.041 485.378 183.665 485.042 183.989 484.502H184.013ZM188.847 481.718C188.847 480.95 189.219 480.578 189.831 480.578C190.359 480.578 190.755 480.914 190.755 481.718V485.198H192.639V481.154C192.639 479.99 191.943 479.018 190.467 479.018C189.699 479.018 189.111 479.306 188.691 479.978H188.667L188.427 479.198H186.963V485.198H188.847V481.718ZM197.992 485.198H200.164V484.994L197.62 481.898L199.612 479.402V479.198H197.596L195.832 481.526V476.798H193.936V485.198H195.832V482.546L197.992 485.198Z" fill="white"/>
<circle cx="60" cy="47" r="14" fill="#F71963"/>
<path d="M61.3 51V43.152H59.728C59.536 44.184 58.804 44.292 57.88 44.352V45.684H59.368V51H61.3Z" fill="white"/>
<circle cx="60" cy="180" r="14" fill="#F71963"/>
<path d="M62.6747 178.48C62.6747 176.812 61.4507 176.02 59.8667 176.02C58.4267 176.02 57.0347 176.788 57.0347 178.408C57.0347 178.804 57.1067 179.2 57.1907 179.392H58.9067V179.176C58.8587 178.948 58.8347 178.696 58.8347 178.54C58.8347 177.916 59.1947 177.508 59.8187 177.508C60.4907 177.508 60.8027 177.904 60.8027 178.528C60.8027 179.248 60.5627 179.692 60.0467 180.22C59.1347 181.168 58.2107 182.008 57.0587 182.932V184H62.8427V182.404H61.1267C60.8867 182.404 60.2027 182.416 59.9627 182.452V182.428C61.1747 181.432 62.6747 180.184 62.6747 178.648V178.48Z" fill="white"/>
<circle cx="60" cy="279" r="14" fill="#F71963"/>
<path d="M58.879 279.256L59.011 279.316C59.191 279.292 59.395 279.28 59.599 279.28C60.499 279.28 61.063 279.556 61.063 280.528C61.063 281.236 60.655 281.716 59.935 281.716C59.227 281.716 58.807 281.32 58.759 280.6H56.959V280.768C57.043 282.388 58.147 283.18 59.887 283.18C61.603 283.18 62.899 282.352 62.899 280.408V280.288C62.899 279.124 62.143 278.248 60.991 278.056L62.539 276.28V275.2H57.283V276.7H58.891C59.155 276.7 60.043 276.7 60.307 276.664V276.688C60.007 276.976 59.599 277.468 59.359 277.744L58.687 278.5L58.879 279.256Z" fill="white"/>
<circle cx="60" cy="381" r="14" fill="#F71963"/>
<path d="M56.6493 383.104H60.3333V385H62.2413V383.104H63.3933V381.58H62.2413V377.2H60.3093L56.4933 382.06L56.6493 383.104ZM59.2413 381.58C59.0373 381.58 58.7853 381.58 58.6533 381.616V381.592C58.7973 381.412 58.9653 381.184 59.0973 380.992L60.0573 379.72C60.2373 379.492 60.3573 379.228 60.4653 379.024H60.4893C60.4653 379.312 60.4533 379.588 60.4533 379.864V381.58H59.2413Z" fill="white"/>
<circle cx="60" cy="481" r="14" fill="#F71963"/>
<path d="M57.6288 481.592C57.9768 481.532 58.6368 481.448 59.2008 481.448C60.1128 481.448 60.9288 481.64 60.9288 482.504C60.9288 483.128 60.5088 483.584 59.5368 483.584C58.7568 483.584 58.1088 483.392 57.3408 482.996H57.1368V484.7C57.9048 485.072 58.7448 485.18 59.6088 485.18C61.1928 485.18 62.8008 484.376 62.8008 482.504V482.336C62.8008 480.68 61.0968 479.78 59.3208 479.936L59.4528 478.736H62.4168V477.2H57.8808L57.4368 481.436L57.6288 481.592Z" fill="white"/>
</svg>
