<svg width="703" height="115" viewBox="0 0 703 115" fill="none" xmlns="http://www.w3.org/2000/svg">
<rect width="703" height="115" fill="white"/>
<path d="M528 60C528 55.3406 528 53.0109 528.761 51.1732C529.776 48.7229 531.723 46.7761 534.173 45.7612C536.011 45 538.341 45 543 45H563C567.659 45 569.989 45 571.827 45.7612C574.277 46.7761 576.224 48.7229 577.239 51.1732C578 53.0109 578 55.3406 578 60V80C578 84.6594 578 86.9891 577.239 88.8268C576.224 91.2771 574.277 93.2239 571.827 94.2388C569.989 95 567.659 95 563 95H543C538.341 95 536.011 95 534.173 94.2388C531.723 93.2239 529.776 91.2771 528.761 88.8268C528 86.9891 528 84.6594 528 80V60Z" fill="#142032"/>
<path d="M498.931 30.84C500.671 30.84 502.003 29.892 502.003 28.164V27.972C502.003 26.184 500.623 25.2 499.039 25.2H495.439V33H497.431V30.84H498.931ZM498.835 26.724C499.711 26.724 500.011 27.264 500.011 28.068C500.011 28.788 499.687 29.304 498.775 29.304H497.431V26.724H498.835ZM506.357 26.724C507.233 26.724 507.497 27.252 507.497 27.732C507.497 28.32 507.185 28.848 506.225 28.848H505.025V26.724H506.357ZM509.429 27.684C509.429 26.016 508.049 25.2 506.405 25.2H503.045V33H505.025V30.264H505.661L507.641 33H509.741V32.76L507.725 30.096C508.781 29.748 509.429 28.944 509.429 27.876V27.684ZM510.639 25.2V33H516.039V31.392H512.619V29.88H515.523V28.236H512.619V26.796H516.039V25.2H510.639ZM520.92 26.724C521.892 26.724 522.444 27.18 522.588 28.092H524.568V27.936C524.376 26.112 522.744 25.02 520.824 25.02C518.616 25.02 516.828 26.676 516.828 28.98V29.268C516.828 31.644 518.628 33.18 520.824 33.18C522.816 33.18 524.34 32.064 524.568 30.132V29.964H522.6C522.516 30.864 522.012 31.464 520.92 31.464C519.528 31.464 518.904 30.372 518.904 29.088C518.904 27.816 519.528 26.724 520.92 26.724ZM527.689 33V25.2H525.709V33H527.689ZM528.898 29.244C528.898 31.584 530.698 33.18 533.014 33.18C535.33 33.18 537.13 31.584 537.13 29.244V28.956C537.13 26.616 535.318 25.02 533.014 25.02C530.71 25.02 528.898 26.616 528.898 28.956V29.244ZM530.974 29.1C530.974 27.756 531.646 26.688 533.002 26.688C534.382 26.688 535.054 27.756 535.054 29.1C535.054 30.444 534.322 31.512 533.002 31.512C531.706 31.512 530.974 30.444 530.974 29.1ZM544.181 26.724C545.153 26.724 545.705 27.18 545.849 28.092H547.829V27.936C547.637 26.112 546.005 25.02 544.085 25.02C541.877 25.02 540.089 26.676 540.089 28.98V29.268C540.089 31.644 541.889 33.18 544.085 33.18C546.077 33.18 547.601 32.064 547.829 30.132V29.964H545.861C545.777 30.864 545.273 31.464 544.181 31.464C542.789 31.464 542.165 30.372 542.165 29.088C542.165 27.816 542.789 26.724 544.181 26.724ZM552.307 27.024C552.403 27.456 552.583 28.008 552.739 28.452L553.339 30.108H551.251L551.851 28.452C552.007 28.008 552.187 27.456 552.283 27.024H552.307ZM554.383 33H556.399V32.784L553.351 25.2H551.215L548.167 32.784V33H550.207L550.699 31.644H553.891L554.383 33ZM557.244 33H562.524V31.428H559.224V25.2H557.244V33ZM567.033 26.724C568.005 26.724 568.557 27.18 568.701 28.092H570.681V27.936C570.489 26.112 568.857 25.02 566.937 25.02C564.729 25.02 562.941 26.676 562.941 28.98V29.268C562.941 31.644 564.741 33.18 566.937 33.18C568.929 33.18 570.453 32.064 570.681 30.132V29.964H568.713C568.629 30.864 568.125 31.464 567.033 31.464C565.641 31.464 565.017 30.372 565.017 29.088C565.017 27.816 565.641 26.724 567.033 26.724ZM578.494 25.2H576.55V30.324C576.55 31.14 575.926 31.536 575.194 31.536C574.33 31.536 573.778 31.14 573.778 30.324V25.2H571.774V30.012C571.774 32.076 572.902 33.18 575.146 33.18C577.354 33.18 578.494 32.076 578.494 30.012V25.2ZM580.107 33H585.387V31.428H582.087V25.2H580.107V33ZM589.877 27.024C589.973 27.456 590.153 28.008 590.309 28.452L590.909 30.108H588.821L589.421 28.452C589.577 28.008 589.757 27.456 589.853 27.024H589.877ZM591.953 33H593.969V32.784L590.921 25.2H588.785L585.737 32.784V33H587.777L588.269 31.644H591.461L591.953 33ZM594.814 25.2V33H598.15C600.118 33 601.954 31.74 601.954 29.244V28.956C601.954 26.496 600.118 25.2 598.162 25.2H594.814ZM598.054 26.748C599.302 26.748 599.902 27.624 599.902 29.064C599.902 30.504 599.338 31.452 598.03 31.452H596.77V26.748H598.054ZM602.75 29.244C602.75 31.584 604.55 33.18 606.866 33.18C609.182 33.18 610.982 31.584 610.982 29.244V28.956C610.982 26.616 609.17 25.02 606.866 25.02C604.562 25.02 602.75 26.616 602.75 28.956V29.244ZM604.826 29.1C604.826 27.756 605.498 26.688 606.854 26.688C608.234 26.688 608.906 27.756 608.906 29.1C608.906 30.444 608.174 31.512 606.854 31.512C605.558 31.512 604.826 30.444 604.826 29.1Z" fill="black"/>
<path d="M117 60C117 55.3406 117 53.0109 117.761 51.1732C118.776 48.7229 120.723 46.7761 123.173 45.7612C125.011 45 127.341 45 132 45H152C156.659 45 158.989 45 160.827 45.7612C163.277 46.7761 165.224 48.7229 166.239 51.1732C167 53.0109 167 55.3406 167 60V80C167 84.6594 167 86.9891 166.239 88.8268C165.224 91.2771 163.277 93.2239 160.827 94.2388C158.989 95 156.659 95 152 95H132C127.341 95 125.011 95 123.173 94.2388C120.723 93.2239 118.776 91.2771 117.761 88.8268C117 86.9891 117 84.6594 117 80V60Z" fill="#F71963"/>
<path d="M114.395 28.968C115.019 28.716 115.427 28.128 115.427 27.36V27.24C115.427 25.752 114.143 25.2 112.475 25.2H109.439V33H112.823C114.515 33 115.691 32.364 115.691 30.876V30.756C115.691 29.928 115.115 29.184 114.395 28.992V28.968ZM112.631 26.664C113.195 26.664 113.423 27.048 113.423 27.432C113.423 27.768 113.219 28.32 112.607 28.32H111.347V26.664H112.631ZM112.739 29.784C113.567 29.784 113.723 30.408 113.723 30.696C113.723 31.128 113.579 31.524 112.727 31.524H111.347V29.784H112.739ZM120.217 27.024C120.313 27.456 120.493 28.008 120.649 28.452L121.249 30.108H119.161L119.761 28.452C119.917 28.008 120.097 27.456 120.193 27.024H120.217ZM122.293 33H124.309V32.784L121.261 25.2H119.125L116.077 32.784V33H118.117L118.609 31.644H121.801L122.293 33ZM124.89 27.564C124.89 28.104 125.166 28.692 125.49 29.016C126.066 29.592 127.314 29.76 128.178 30.084C128.862 30.312 128.994 30.528 128.994 30.948C128.994 31.392 128.574 31.74 127.902 31.74C127.182 31.74 126.702 31.452 126.666 30.744H124.734V30.912C124.89 32.58 126.186 33.18 127.83 33.18C129.342 33.18 130.938 32.556 130.938 30.684V30.564C130.938 29.976 130.65 29.388 130.326 29.064C129.75 28.488 128.55 28.236 127.758 28.02C127.23 27.876 126.882 27.732 126.882 27.216C126.882 26.796 127.218 26.508 127.89 26.508C128.574 26.508 128.85 26.856 128.886 27.3H130.77V27.144C130.638 25.608 129.342 25.056 127.83 25.056C126.414 25.056 124.89 25.68 124.89 27.444V27.564ZM132.197 25.2V33H137.597V31.392H134.177V29.88H137.081V28.236H134.177V26.796H137.597V25.2H132.197ZM144.642 30.84C146.382 30.84 147.714 29.892 147.714 28.164V27.972C147.714 26.184 146.334 25.2 144.75 25.2H141.15V33H143.142V30.84H144.642ZM144.546 26.724C145.422 26.724 145.722 27.264 145.722 28.068C145.722 28.788 145.398 29.304 144.486 29.304H143.142V26.724H144.546ZM152.068 26.724C152.944 26.724 153.208 27.252 153.208 27.732C153.208 28.32 152.896 28.848 151.936 28.848H150.736V26.724H152.068ZM155.14 27.684C155.14 26.016 153.76 25.2 152.116 25.2H148.756V33H150.736V30.264H151.372L153.352 33H155.452V32.76L153.436 30.096C154.492 29.748 155.14 28.944 155.14 27.876V27.684ZM158.329 33V25.2H156.349V33H158.329ZM163.631 26.724C164.603 26.724 165.155 27.18 165.299 28.092H167.279V27.936C167.087 26.112 165.455 25.02 163.535 25.02C161.327 25.02 159.539 26.676 159.539 28.98V29.268C159.539 31.644 161.339 33.18 163.535 33.18C165.527 33.18 167.051 32.064 167.279 30.132V29.964H165.311C165.227 30.864 164.723 31.464 163.631 31.464C162.239 31.464 161.615 30.372 161.615 29.088C161.615 27.816 162.239 26.724 163.631 26.724ZM168.42 25.2V33H173.82V31.392H170.4V29.88H173.304V28.236H170.4V26.796H173.82V25.2H168.42Z" fill="black"/>
<path d="M242.562 19.724C243.438 19.724 243.702 20.252 243.702 20.732C243.702 21.32 243.39 21.848 242.43 21.848H241.23V19.724H242.562ZM245.634 20.684C245.634 19.016 244.254 18.2 242.61 18.2H239.25V26H241.23V23.264H241.866L243.846 26H245.946V25.76L243.93 23.096C244.986 22.748 245.634 21.944 245.634 20.876V20.684ZM246.844 18.2V26H252.244V24.392H248.824V22.88H251.728V21.236H248.824V19.796H252.244V18.2H246.844ZM260.893 21.68H257.125V23.264H259.129V24.032C258.709 24.356 258.169 24.572 257.413 24.572C255.913 24.572 255.073 23.492 255.073 22.112C255.073 20.588 255.757 19.664 257.185 19.664C258.061 19.664 258.649 19.964 258.781 20.672H260.713V20.516C260.461 18.752 259.081 18.02 257.125 18.02C254.833 18.02 253.033 19.604 253.033 21.956V22.244C253.033 24.488 254.677 26.18 257.233 26.18C259.141 26.18 260.389 25.256 260.893 24.596V21.68ZM262.336 26H267.616V24.428H264.316V18.2H262.336V26ZM272.105 20.024C272.201 20.456 272.381 21.008 272.537 21.452L273.137 23.108H271.049L271.649 21.452C271.805 21.008 271.985 20.456 272.081 20.024H272.105ZM274.181 26H276.197V25.784L273.149 18.2H271.013L267.965 25.784V26H270.005L270.497 24.644H273.689L274.181 26ZM276.779 20.564C276.779 21.104 277.055 21.692 277.379 22.016C277.955 22.592 279.203 22.76 280.067 23.084C280.751 23.312 280.883 23.528 280.883 23.948C280.883 24.392 280.463 24.74 279.791 24.74C279.071 24.74 278.591 24.452 278.555 23.744H276.623V23.912C276.779 25.58 278.075 26.18 279.719 26.18C281.231 26.18 282.827 25.556 282.827 23.684V23.564C282.827 22.976 282.539 22.388 282.215 22.064C281.639 21.488 280.439 21.236 279.647 21.02C279.119 20.876 278.771 20.732 278.771 20.216C278.771 19.796 279.107 19.508 279.779 19.508C280.463 19.508 280.739 19.856 280.775 20.3H282.659V20.144C282.527 18.608 281.231 18.056 279.719 18.056C278.303 18.056 276.779 18.68 276.779 20.444V20.564ZM286.242 18.2V26H289.578C291.546 26 293.382 24.74 293.382 22.244V21.956C293.382 19.496 291.546 18.2 289.59 18.2H286.242ZM289.482 19.748C290.73 19.748 291.33 20.624 291.33 22.064C291.33 23.504 290.766 24.452 289.458 24.452H288.198V19.748H289.482ZM294.609 18.2V26H300.009V24.392H296.589V22.88H299.493V21.236H296.589V19.796H300.009V18.2H294.609ZM252.357 38.84C254.097 38.84 255.429 37.892 255.429 36.164V35.972C255.429 34.184 254.049 33.2 252.465 33.2H248.865V41H250.857V38.84H252.357ZM252.261 34.724C253.137 34.724 253.437 35.264 253.437 36.068C253.437 36.788 253.113 37.304 252.201 37.304H250.857V34.724H252.261ZM259.783 34.724C260.659 34.724 260.923 35.252 260.923 35.732C260.923 36.32 260.611 36.848 259.651 36.848H258.451V34.724H259.783ZM262.855 35.684C262.855 34.016 261.475 33.2 259.831 33.2H256.471V41H258.451V38.264H259.087L261.067 41H263.167V40.76L261.151 38.096C262.207 37.748 262.855 36.944 262.855 35.876V35.684ZM264.064 33.2V41H269.464V39.392H266.044V37.88H268.948V36.236H266.044V34.796H269.464V33.2H264.064ZM274.345 34.724C275.317 34.724 275.869 35.18 276.013 36.092H277.993V35.936C277.801 34.112 276.169 33.02 274.249 33.02C272.041 33.02 270.253 34.676 270.253 36.98V37.268C270.253 39.644 272.053 41.18 274.249 41.18C276.241 41.18 277.765 40.064 277.993 38.132V37.964H276.025C275.941 38.864 275.437 39.464 274.345 39.464C272.953 39.464 272.329 38.372 272.329 37.088C272.329 35.816 272.953 34.724 274.345 34.724ZM281.115 41V33.2H279.135V41H281.115ZM282.324 37.244C282.324 39.584 284.124 41.18 286.44 41.18C288.756 41.18 290.556 39.584 290.556 37.244V36.956C290.556 34.616 288.744 33.02 286.44 33.02C284.136 33.02 282.324 34.616 282.324 36.956V37.244ZM284.4 37.1C284.4 35.756 285.072 34.688 286.428 34.688C287.808 34.688 288.48 35.756 288.48 37.1C288.48 38.444 287.748 39.512 286.428 39.512C285.132 39.512 284.4 38.444 284.4 37.1Z" fill="black"/>
<path d="M477.278 65.806H484.726V63.958H477.278V65.806ZM477.278 68.858H484.726V67.024H477.278V68.858Z" fill="black"/>
<path d="M201.48 72L202.964 69.9L204.448 72H206.8V71.762L204.28 68.248L206.492 65.238V65H204.238L203.048 66.778L201.872 65H199.52V65.238L201.746 68.304L199.198 71.762V72H201.48Z" fill="black"/>
<path d="M245 70C245 56.1929 256.193 45 270 45C283.807 45 295 56.1929 295 70C295 83.8071 283.807 95 270 95C256.193 95 245 83.8071 245 70Z" fill="#00BBD4"/>
<path d="M352.332 30.84C354.072 30.84 355.404 29.892 355.404 28.164V27.972C355.404 26.184 354.024 25.2 352.44 25.2H348.84V33H350.832V30.84H352.332ZM352.236 26.724C353.112 26.724 353.412 27.264 353.412 28.068C353.412 28.788 353.088 29.304 352.176 29.304H350.832V26.724H352.236ZM359.757 26.724C360.633 26.724 360.897 27.252 360.897 27.732C360.897 28.32 360.585 28.848 359.625 28.848H358.425V26.724H359.757ZM362.829 27.684C362.829 26.016 361.449 25.2 359.805 25.2H356.445V33H358.425V30.264H359.061L361.041 33H363.141V32.76L361.125 30.096C362.181 29.748 362.829 28.944 362.829 27.876V27.684ZM364.039 25.2V33H369.439V31.392H366.019V29.88H368.923V28.236H366.019V26.796H369.439V25.2H364.039ZM374.32 26.724C375.292 26.724 375.844 27.18 375.988 28.092H377.968V27.936C377.776 26.112 376.144 25.02 374.224 25.02C372.016 25.02 370.228 26.676 370.228 28.98V29.268C370.228 31.644 372.028 33.18 374.224 33.18C376.216 33.18 377.74 32.064 377.968 30.132V29.964H376C375.916 30.864 375.412 31.464 374.32 31.464C372.928 31.464 372.304 30.372 372.304 29.088C372.304 27.816 372.928 26.724 374.32 26.724ZM381.089 33V25.2H379.109V33H381.089ZM382.298 29.244C382.298 31.584 384.098 33.18 386.414 33.18C388.73 33.18 390.53 31.584 390.53 29.244V28.956C390.53 26.616 388.718 25.02 386.414 25.02C384.11 25.02 382.298 26.616 382.298 28.956V29.244ZM384.374 29.1C384.374 27.756 385.046 26.688 386.402 26.688C387.782 26.688 388.454 27.756 388.454 29.1C388.454 30.444 387.722 31.512 386.402 31.512C385.106 31.512 384.374 30.444 384.374 29.1ZM397.414 30.84C399.154 30.84 400.486 29.892 400.486 28.164V27.972C400.486 26.184 399.106 25.2 397.522 25.2H393.922V33H395.914V30.84H397.414ZM397.318 26.724C398.194 26.724 398.494 27.264 398.494 28.068C398.494 28.788 398.17 29.304 397.258 29.304H395.914V26.724H397.318ZM401.263 27.564C401.263 28.104 401.539 28.692 401.863 29.016C402.439 29.592 403.687 29.76 404.551 30.084C405.235 30.312 405.367 30.528 405.367 30.948C405.367 31.392 404.947 31.74 404.275 31.74C403.555 31.74 403.075 31.452 403.039 30.744H401.107V30.912C401.263 32.58 402.559 33.18 404.203 33.18C405.715 33.18 407.311 32.556 407.311 30.684V30.564C407.311 29.976 407.023 29.388 406.699 29.064C406.123 28.488 404.923 28.236 404.131 28.02C403.603 27.876 403.255 27.732 403.255 27.216C403.255 26.796 403.591 26.508 404.263 26.508C404.947 26.508 405.223 26.856 405.259 27.3H407.143V27.144C407.011 25.608 405.715 25.056 404.203 25.056C402.787 25.056 401.263 25.68 401.263 27.444V27.564ZM410.55 33V25.2H408.57V33H410.55ZM415.851 26.724C416.823 26.724 417.375 27.18 417.519 28.092H419.499V27.936C419.307 26.112 417.675 25.02 415.755 25.02C413.547 25.02 411.759 26.676 411.759 28.98V29.268C411.759 31.644 413.559 33.18 415.755 33.18C417.747 33.18 419.271 32.064 419.499 30.132V29.964H417.531C417.447 30.864 416.943 31.464 415.851 31.464C414.459 31.464 413.835 30.372 413.835 29.088C413.835 27.816 414.459 26.724 415.851 26.724ZM420.208 29.244C420.208 31.584 422.009 33.18 424.325 33.18C426.641 33.18 428.441 31.584 428.441 29.244V28.956C428.441 26.616 426.629 25.02 424.325 25.02C422.021 25.02 420.208 26.616 420.208 28.956V29.244ZM422.285 29.1C422.285 27.756 422.957 26.688 424.313 26.688C425.693 26.688 426.365 27.756 426.365 29.1C426.365 30.444 425.633 31.512 424.313 31.512C423.017 31.512 422.285 30.444 422.285 29.1ZM429.676 33H434.956V31.428H431.656V25.2H429.676V33ZM435.373 29.244C435.373 31.584 437.173 33.18 439.489 33.18C441.805 33.18 443.605 31.584 443.605 29.244V28.956C443.605 26.616 441.793 25.02 439.489 25.02C437.185 25.02 435.373 26.616 435.373 28.956V29.244ZM437.449 29.1C437.449 27.756 438.121 26.688 439.477 26.688C440.857 26.688 441.529 27.756 441.529 29.1C441.529 30.444 440.797 31.512 439.477 31.512C438.181 31.512 437.449 30.444 437.449 29.1ZM452.268 28.68H448.5V30.264H450.504V31.032C450.084 31.356 449.544 31.572 448.788 31.572C447.288 31.572 446.448 30.492 446.448 29.112C446.448 27.588 447.132 26.664 448.56 26.664C449.436 26.664 450.024 26.964 450.156 27.672H452.088V27.516C451.836 25.752 450.456 25.02 448.5 25.02C446.208 25.02 444.408 26.604 444.408 28.956V29.244C444.408 31.488 446.052 33.18 448.608 33.18C450.516 33.18 451.764 32.256 452.268 31.596V28.68ZM455.691 33V25.2H453.711V33H455.691ZM460.992 26.724C461.964 26.724 462.516 27.18 462.66 28.092H464.64V27.936C464.448 26.112 462.816 25.02 460.896 25.02C458.688 25.02 456.9 26.676 456.9 28.98V29.268C456.9 31.644 458.7 33.18 460.896 33.18C462.888 33.18 464.412 32.064 464.64 30.132V29.964H462.672C462.588 30.864 462.084 31.464 460.992 31.464C459.6 31.464 458.976 30.372 458.976 29.088C458.976 27.816 459.6 26.724 460.992 26.724ZM465.349 29.244C465.349 31.584 467.149 33.18 469.465 33.18C471.781 33.18 473.581 31.584 473.581 29.244V28.956C473.581 26.616 471.769 25.02 469.465 25.02C467.161 25.02 465.349 26.616 465.349 28.956V29.244ZM467.425 29.1C467.425 27.756 468.097 26.688 469.453 26.688C470.833 26.688 471.505 27.756 471.505 29.1C471.505 30.444 470.773 31.512 469.453 31.512C468.157 31.512 467.425 30.444 467.425 29.1Z" fill="black"/>
<path d="M335.48 73L336.964 70.9L338.448 73H340.8V72.762L338.28 69.248L340.492 66.238V66H338.238L337.048 67.778L335.872 66H333.52V66.238L335.746 69.304L333.198 72.762V73H335.48Z" fill="black"/>
<path d="M384 71C384 57.1929 395.193 46 409 46C422.807 46 434 57.1929 434 71C434 84.8071 422.807 96 409 96C395.193 96 384 84.8071 384 71Z" fill="#D6D8E0"/>
</svg>
