<svg width="703" height="115" viewBox="0 0 703 115" fill="none" xmlns="http://www.w3.org/2000/svg">
<rect width="703" height="115" fill="white"/>
<path d="M384 60C384 55.3406 384 53.0109 384.761 51.1732C385.776 48.7229 387.723 46.7761 390.173 45.7612C392.011 45 394.341 45 399 45H419C423.659 45 425.989 45 427.827 45.7612C430.277 46.7761 432.224 48.7229 433.239 51.1732C434 53.0109 434 55.3406 434 60V80C434 84.6594 434 86.9891 433.239 88.8268C432.224 91.2771 430.277 93.2239 427.827 94.2388C425.989 95 423.659 95 419 95H399C394.341 95 392.011 95 390.173 94.2388C387.723 93.2239 385.776 91.2771 384.761 88.8268C384 86.9891 384 84.6594 384 80V60Z" fill="#142032"/>
<path d="M354.931 30.84C356.671 30.84 358.003 29.892 358.003 28.164V27.972C358.003 26.184 356.623 25.2 355.039 25.2H351.439V33H353.431V30.84H354.931ZM354.835 26.724C355.711 26.724 356.011 27.264 356.011 28.068C356.011 28.788 355.687 29.304 354.775 29.304H353.431V26.724H354.835ZM362.357 26.724C363.233 26.724 363.497 27.252 363.497 27.732C363.497 28.32 363.185 28.848 362.225 28.848H361.025V26.724H362.357ZM365.429 27.684C365.429 26.016 364.049 25.2 362.405 25.2H359.045V33H361.025V30.264H361.661L363.641 33H365.741V32.76L363.725 30.096C364.781 29.748 365.429 28.944 365.429 27.876V27.684ZM366.639 25.2V33H372.039V31.392H368.619V29.88H371.523V28.236H368.619V26.796H372.039V25.2H366.639ZM376.92 26.724C377.892 26.724 378.444 27.18 378.588 28.092H380.568V27.936C380.376 26.112 378.744 25.02 376.824 25.02C374.616 25.02 372.828 26.676 372.828 28.98V29.268C372.828 31.644 374.628 33.18 376.824 33.18C378.816 33.18 380.34 32.064 380.568 30.132V29.964H378.6C378.516 30.864 378.012 31.464 376.92 31.464C375.528 31.464 374.904 30.372 374.904 29.088C374.904 27.816 375.528 26.724 376.92 26.724ZM383.689 33V25.2H381.709V33H383.689ZM384.898 29.244C384.898 31.584 386.698 33.18 389.014 33.18C391.33 33.18 393.13 31.584 393.13 29.244V28.956C393.13 26.616 391.318 25.02 389.014 25.02C386.71 25.02 384.898 26.616 384.898 28.956V29.244ZM386.974 29.1C386.974 27.756 387.646 26.688 389.002 26.688C390.382 26.688 391.054 27.756 391.054 29.1C391.054 30.444 390.322 31.512 389.002 31.512C387.706 31.512 386.974 30.444 386.974 29.1ZM400.181 26.724C401.153 26.724 401.705 27.18 401.849 28.092H403.829V27.936C403.637 26.112 402.005 25.02 400.085 25.02C397.877 25.02 396.089 26.676 396.089 28.98V29.268C396.089 31.644 397.889 33.18 400.085 33.18C402.077 33.18 403.601 32.064 403.829 30.132V29.964H401.861C401.777 30.864 401.273 31.464 400.181 31.464C398.789 31.464 398.165 30.372 398.165 29.088C398.165 27.816 398.789 26.724 400.181 26.724ZM408.307 27.024C408.403 27.456 408.583 28.008 408.739 28.452L409.339 30.108H407.251L407.851 28.452C408.007 28.008 408.187 27.456 408.283 27.024H408.307ZM410.383 33H412.399V32.784L409.351 25.2H407.215L404.167 32.784V33H406.207L406.699 31.644H409.891L410.383 33ZM413.244 33H418.524V31.428H415.224V25.2H413.244V33ZM423.033 26.724C424.005 26.724 424.557 27.18 424.701 28.092H426.681V27.936C426.489 26.112 424.857 25.02 422.937 25.02C420.729 25.02 418.941 26.676 418.941 28.98V29.268C418.941 31.644 420.741 33.18 422.937 33.18C424.929 33.18 426.453 32.064 426.681 30.132V29.964H424.713C424.629 30.864 424.125 31.464 423.033 31.464C421.641 31.464 421.017 30.372 421.017 29.088C421.017 27.816 421.641 26.724 423.033 26.724ZM434.494 25.2H432.55V30.324C432.55 31.14 431.926 31.536 431.194 31.536C430.33 31.536 429.778 31.14 429.778 30.324V25.2H427.774V30.012C427.774 32.076 428.902 33.18 431.146 33.18C433.354 33.18 434.494 32.076 434.494 30.012V25.2ZM436.107 33H441.387V31.428H438.087V25.2H436.107V33ZM445.877 27.024C445.973 27.456 446.153 28.008 446.309 28.452L446.909 30.108H444.821L445.421 28.452C445.577 28.008 445.757 27.456 445.853 27.024H445.877ZM447.953 33H449.969V32.784L446.921 25.2H444.785L441.737 32.784V33H443.777L444.269 31.644H447.461L447.953 33ZM450.814 25.2V33H454.15C456.118 33 457.954 31.74 457.954 29.244V28.956C457.954 26.496 456.118 25.2 454.162 25.2H450.814ZM454.054 26.748C455.302 26.748 455.902 27.624 455.902 29.064C455.902 30.504 455.338 31.452 454.03 31.452H452.77V26.748H454.054ZM458.75 29.244C458.75 31.584 460.55 33.18 462.866 33.18C465.182 33.18 466.982 31.584 466.982 29.244V28.956C466.982 26.616 465.17 25.02 462.866 25.02C460.562 25.02 458.75 26.616 458.75 28.956V29.244ZM460.826 29.1C460.826 27.756 461.498 26.688 462.854 26.688C464.234 26.688 464.906 27.756 464.906 29.1C464.906 30.444 464.174 31.512 462.854 31.512C461.558 31.512 460.826 30.444 460.826 29.1Z" fill="black"/>
<path d="M260 60C260 55.3406 260 53.0109 260.761 51.1732C261.776 48.7229 263.723 46.7761 266.173 45.7612C268.011 45 270.341 45 275 45H295C299.659 45 301.989 45 303.827 45.7612C306.277 46.7761 308.224 48.7229 309.239 51.1732C310 53.0109 310 55.3406 310 60V80C310 84.6594 310 86.9891 309.239 88.8268C308.224 91.2771 306.277 93.2239 303.827 94.2388C301.989 95 299.659 95 295 95H275C270.341 95 268.011 95 266.173 94.2388C263.723 93.2239 261.776 91.2771 260.761 88.8268C260 86.9891 260 84.6594 260 80V60Z" fill="#F71963"/>
<path d="M251.502 30.84C253.242 30.84 254.574 29.892 254.574 28.164V27.972C254.574 26.184 253.194 25.2 251.61 25.2H248.01V33H250.002V30.84H251.502ZM251.406 26.724C252.282 26.724 252.582 27.264 252.582 28.068C252.582 28.788 252.258 29.304 251.346 29.304H250.002V26.724H251.406ZM258.927 26.724C259.803 26.724 260.067 27.252 260.067 27.732C260.067 28.32 259.755 28.848 258.795 28.848H257.595V26.724H258.927ZM261.999 27.684C261.999 26.016 260.619 25.2 258.975 25.2H255.615V33H257.595V30.264H258.231L260.211 33H262.311V32.76L260.295 30.096C261.351 29.748 261.999 28.944 261.999 27.876V27.684ZM263.209 25.2V33H268.609V31.392H265.189V29.88H268.093V28.236H265.189V26.796H268.609V25.2H263.209ZM273.49 26.724C274.462 26.724 275.014 27.18 275.158 28.092H277.138V27.936C276.946 26.112 275.314 25.02 273.394 25.02C271.186 25.02 269.398 26.676 269.398 28.98V29.268C269.398 31.644 271.198 33.18 273.394 33.18C275.386 33.18 276.91 32.064 277.138 30.132V29.964H275.17C275.086 30.864 274.582 31.464 273.49 31.464C272.098 31.464 271.474 30.372 271.474 29.088C271.474 27.816 272.098 26.724 273.49 26.724ZM280.259 33V25.2H278.279V33H280.259ZM281.468 29.244C281.468 31.584 283.268 33.18 285.584 33.18C287.9 33.18 289.7 31.584 289.7 29.244V28.956C289.7 26.616 287.888 25.02 285.584 25.02C283.28 25.02 281.468 26.616 281.468 28.956V29.244ZM283.544 29.1C283.544 27.756 284.216 26.688 285.572 26.688C286.952 26.688 287.624 27.756 287.624 29.1C287.624 30.444 286.892 31.512 285.572 31.512C284.276 31.512 283.544 30.444 283.544 29.1ZM298.048 28.968C298.672 28.716 299.08 28.128 299.08 27.36V27.24C299.08 25.752 297.796 25.2 296.128 25.2H293.092V33H296.476C298.168 33 299.344 32.364 299.344 30.876V30.756C299.344 29.928 298.768 29.184 298.048 28.992V28.968ZM296.284 26.664C296.848 26.664 297.076 27.048 297.076 27.432C297.076 27.768 296.872 28.32 296.26 28.32H295V26.664H296.284ZM296.392 29.784C297.22 29.784 297.376 30.408 297.376 30.696C297.376 31.128 297.232 31.524 296.38 31.524H295V29.784H296.392ZM303.869 27.024C303.965 27.456 304.145 28.008 304.301 28.452L304.901 30.108H302.813L303.413 28.452C303.569 28.008 303.749 27.456 303.845 27.024H303.869ZM305.945 33H307.961V32.784L304.913 25.2H302.777L299.729 32.784V33H301.769L302.261 31.644H305.453L305.945 33ZM308.543 27.564C308.543 28.104 308.819 28.692 309.143 29.016C309.719 29.592 310.967 29.76 311.831 30.084C312.515 30.312 312.647 30.528 312.647 30.948C312.647 31.392 312.227 31.74 311.555 31.74C310.835 31.74 310.355 31.452 310.319 30.744H308.387V30.912C308.543 32.58 309.839 33.18 311.483 33.18C312.995 33.18 314.591 32.556 314.591 30.684V30.564C314.591 29.976 314.303 29.388 313.979 29.064C313.403 28.488 312.203 28.236 311.411 28.02C310.883 27.876 310.535 27.732 310.535 27.216C310.535 26.796 310.871 26.508 311.543 26.508C312.227 26.508 312.503 26.856 312.539 27.3H314.423V27.144C314.291 25.608 312.995 25.056 311.483 25.056C310.067 25.056 308.543 25.68 308.543 27.444V27.564ZM315.849 25.2V33H321.249V31.392H317.829V29.88H320.733V28.236H317.829V26.796H321.249V25.2H315.849Z" fill="black"/>
<path d="M343.278 64.806H350.726V62.958H343.278V64.806ZM343.278 67.858H350.726V66.024H343.278V67.858Z" fill="black"/>
</svg>
