<svg width="293" height="115" viewBox="0 0 293 115" fill="none" xmlns="http://www.w3.org/2000/svg">
<rect width="293" height="115" fill="white"/>
<path d="M83 58C83 57.0681 83 56.6022 83.1522 56.2346C83.3552 55.7446 83.7446 55.3552 84.2346 55.1522C84.6022 55 85.0681 55 86 55H223C223.932 55 224.398 55 224.765 55.1522C225.255 55.3552 225.645 55.7446 225.848 56.2346C226 56.6022 226 57.0681 226 58V66C226 66.9319 226 67.3978 225.848 67.7654C225.645 68.2554 225.255 68.6448 224.765 68.8478C224.398 69 223.932 69 223 69H86C85.0681 69 84.6022 69 84.2346 68.8478C83.7446 68.6448 83.3552 68.2554 83.1522 67.7654C83 67.3978 83 66.9319 83 66V58Z" fill="#142032" fill-opacity="0.8"/>
<path d="M143.638 60.4C143.638 59.01 142.618 58.35 141.298 58.35C140.098 58.35 138.938 58.99 138.938 60.34C138.938 60.67 138.998 61 139.068 61.16H140.498V60.98C140.458 60.79 140.438 60.58 140.438 60.45C140.438 59.93 140.738 59.59 141.258 59.59C141.818 59.59 142.078 59.92 142.078 60.44C142.078 61.04 141.878 61.41 141.448 61.85C140.688 62.64 139.918 63.34 138.958 64.11V65H143.778V63.67H142.348C142.148 63.67 141.578 63.68 141.378 63.71V63.69C142.388 62.86 143.638 61.82 143.638 60.54V60.4ZM144.484 61.85C144.484 63.79 145.364 65.15 147.094 65.15C148.854 65.15 149.704 63.79 149.704 61.85V61.65C149.704 59.69 148.824 58.35 147.094 58.35C145.364 58.35 144.484 59.69 144.484 61.65V61.85ZM147.084 59.64C147.894 59.64 148.074 60.48 148.074 61.75C148.074 63.02 147.864 63.86 147.104 63.86C146.344 63.86 146.104 63.03 146.104 61.75C146.104 60.48 146.314 59.64 147.084 59.64ZM150.402 61.85C150.402 63.79 151.282 65.15 153.012 65.15C154.772 65.15 155.622 63.79 155.622 61.85V61.65C155.622 59.69 154.742 58.35 153.012 58.35C151.282 58.35 150.402 59.69 150.402 61.65V61.85ZM153.002 59.64C153.812 59.64 153.992 60.48 153.992 61.75C153.992 63.02 153.782 63.86 153.022 63.86C152.262 63.86 152.022 63.03 152.022 61.75C152.022 60.48 152.232 59.64 153.002 59.64ZM156.139 66.27H157.319L158.399 63.49V63.33H156.609L156.139 66.27ZM158.976 61.85C158.976 63.79 159.856 65.15 161.586 65.15C163.346 65.15 164.196 63.79 164.196 61.85V61.65C164.196 59.69 163.316 58.35 161.586 58.35C159.856 58.35 158.976 59.69 158.976 61.65V61.85ZM161.576 59.64C162.386 59.64 162.566 60.48 162.566 61.75C162.566 63.02 162.356 63.86 161.596 63.86C160.836 63.86 160.596 63.03 160.596 61.75C160.596 60.48 160.806 59.64 161.576 59.64ZM164.894 61.85C164.894 63.79 165.774 65.15 167.504 65.15C169.264 65.15 170.114 63.79 170.114 61.85V61.65C170.114 59.69 169.234 58.35 167.504 58.35C165.774 58.35 164.894 59.69 164.894 61.65V61.85ZM167.494 59.64C168.304 59.64 168.484 60.48 168.484 61.75C168.484 63.02 168.274 63.86 167.514 63.86C166.754 63.86 166.514 63.03 166.514 61.75C166.514 60.48 166.724 59.64 167.494 59.64Z" fill="white"/>
<line x1="63" y1="51.5" x2="227" y2="51.5" stroke="black"/>
<line x1="83.5" y1="46" x2="83.5" y2="52" stroke="black"/>
<line x1="143.5" y1="46" x2="143.5" y2="51" stroke="black"/>
<path d="M86.6205 36.56C86.6205 34.614 85.1925 33.69 83.3445 33.69C81.6645 33.69 80.0405 34.586 80.0405 36.476C80.0405 36.938 80.1245 37.4 80.2225 37.624H82.2245V37.372C82.1685 37.106 82.1405 36.812 82.1405 36.63C82.1405 35.902 82.5605 35.426 83.2885 35.426C84.0725 35.426 84.4365 35.888 84.4365 36.616C84.4365 37.456 84.1565 37.974 83.5545 38.59C82.4905 39.696 81.4125 40.676 80.0685 41.754V43H86.8165V41.138H84.8145C84.5345 41.138 83.7365 41.152 83.4565 41.194V41.166C84.8705 40.004 86.6205 38.548 86.6205 36.756V36.56Z" fill="black"/>
<path d="M141.234 39.024C141.64 38.954 142.41 38.856 143.068 38.856C144.132 38.856 145.084 39.08 145.084 40.088C145.084 40.816 144.594 41.348 143.46 41.348C142.55 41.348 141.794 41.124 140.898 40.662H140.66V42.65C141.556 43.084 142.536 43.21 143.544 43.21C145.392 43.21 147.268 42.272 147.268 40.088V39.892C147.268 37.96 145.28 36.91 143.208 37.092L143.362 35.692H146.82V33.9H141.528L141.01 38.842L141.234 39.024Z" fill="black"/>
<path d="M226.165 49.25L229.915 51.4151L226.165 53.5801L226.165 49.25Z" fill="black"/>
<path d="M143 73C143 72.0681 143 71.6022 143.152 71.2346C143.355 70.7446 143.745 70.3552 144.235 70.1522C144.602 70 145.068 70 146 70H223C223.932 70 224.398 70 224.765 70.1522C225.255 70.3552 225.645 70.7446 225.848 71.2346C226 71.6022 226 72.0681 226 73V81C226 81.9319 226 82.3978 225.848 82.7654C225.645 83.2554 225.255 83.6448 224.765 83.8478C224.398 84 223.932 84 223 84H146C145.068 84 144.602 84 144.235 83.8478C143.745 83.6448 143.355 83.2554 143.152 82.7654C143 82.3978 143 81.9319 143 81V73Z" fill="#F71963" fill-opacity="0.8"/>
<path d="M172.419 81V74.46H171.109C170.949 75.32 170.339 75.41 169.569 75.46V76.57H170.809V81H172.419ZM173.493 77.85C173.493 79.79 174.373 81.15 176.103 81.15C177.863 81.15 178.713 79.79 178.713 77.85V77.65C178.713 75.69 177.833 74.35 176.103 74.35C174.373 74.35 173.493 75.69 173.493 77.65V77.85ZM176.093 75.64C176.903 75.64 177.083 76.48 177.083 77.75C177.083 79.02 176.873 79.86 176.113 79.86C175.353 79.86 175.113 79.03 175.113 77.75C175.113 76.48 175.323 75.64 176.093 75.64ZM179.411 77.85C179.411 79.79 180.291 81.15 182.021 81.15C183.781 81.15 184.631 79.79 184.631 77.85V77.65C184.631 75.69 183.751 74.35 182.021 74.35C180.291 74.35 179.411 75.69 179.411 77.65V77.85ZM182.011 75.64C182.821 75.64 183.001 76.48 183.001 77.75C183.001 79.02 182.791 79.86 182.031 79.86C181.271 79.86 181.031 79.03 181.031 77.75C181.031 76.48 181.241 75.64 182.011 75.64ZM185.148 82.27H186.328L187.408 79.49V79.33H185.618L185.148 82.27ZM187.985 77.85C187.985 79.79 188.865 81.15 190.595 81.15C192.355 81.15 193.205 79.79 193.205 77.85V77.65C193.205 75.69 192.325 74.35 190.595 74.35C188.865 74.35 187.985 75.69 187.985 77.65V77.85ZM190.585 75.64C191.395 75.64 191.575 76.48 191.575 77.75C191.575 79.02 191.365 79.86 190.605 79.86C189.845 79.86 189.605 79.03 189.605 77.75C189.605 76.48 189.815 75.64 190.585 75.64ZM193.903 77.85C193.903 79.79 194.783 81.15 196.513 81.15C198.273 81.15 199.123 79.79 199.123 77.85V77.65C199.123 75.69 198.243 74.35 196.513 74.35C194.783 74.35 193.903 75.69 193.903 77.65V77.85ZM196.503 75.64C197.313 75.64 197.493 76.48 197.493 77.75C197.493 79.02 197.283 79.86 196.523 79.86C195.763 79.86 195.523 79.03 195.523 77.75C195.523 76.48 195.733 75.64 196.503 75.64Z" fill="white"/>
</svg>
