<svg width="480" height="350" viewBox="0 0 480 350" fill="none" xmlns="http://www.w3.org/2000/svg">
<rect width="480" height="350" fill="#142032"/>
<path d="M195.291 250.924C200.211 247.288 203.988 238.039 203.988 238.039C203.988 238.039 208.239 235.087 209.568 231.319C210.897 227.551 209.643 222.433 209.643 222.433C209.643 222.433 213.411 211.375 211.638 208.273C209.865 205.171 202.332 203.176 202.332 203.176C202.332 203.176 199.23 197.416 192.804 196.306C188.592 195.865 184.38 192.982 184.38 187C184.38 181.018 190.362 171.268 190.362 171.268C190.362 171.268 196.566 168.232 197.454 166.018C198.342 163.804 198.642 158.638 198.642 158.638C198.642 158.638 204.543 148.222 201.219 142.24C200.16 140.332 195.237 138.916 195.237 138.916L188.334 128.563" stroke="#F71963" stroke-width="2" stroke-miterlimit="10"/>
<path d="M301.557 234.91C294.03 231.301 280.863 228.289 280.863 228.289C280.863 228.289 271.242 217.579 264.927 218.467C258.612 219.355 252.186 226.444 252.186 226.444C252.186 226.444 252.63 239.518 250.635 240.184C248.64 240.85 243.321 237.304 240 239.962C236.676 242.62 238.593 250.117 238.593 250.117C238.593 250.117 231.357 252.373 230.472 254.809C229.587 257.245 233.106 262.675 233.775 264.757" stroke="#F71963" stroke-width="2" stroke-miterlimit="10"/>
<path d="M241.683 109.042C241.119 109.03 240.567 109 240 109C196.923 109 162 143.923 162 187C162 230.077 196.923 265 240 265C283.077 265 318 230.077 318 187C318 178.627 316.68 170.563 314.238 163.003" stroke="#F71963" stroke-width="2" stroke-miterlimit="10"/>
<path d="M312 120.064C312 141.706 276 175 276 175C276 175 240 141.706 240 120.064C240 97.876 258.603 85 276 85C293.397 85 312 97.876 312 120.064Z" stroke="#F71963" stroke-width="2" stroke-miterlimit="10" stroke-linecap="square"/>
<path d="M276 133C282.627 133 288 127.627 288 121C288 114.373 282.627 109 276 109C269.373 109 264 114.373 264 121C264 127.627 269.373 133 276 133Z" stroke="#F71963" stroke-width="2" stroke-miterlimit="10" stroke-linecap="square"/>
</svg>
