<svg width="40" height="40" viewBox="0 0 40 40" fill="none" xmlns="http://www.w3.org/2000/svg">
<path fill-rule="evenodd" clip-rule="evenodd" d="M34.6146 26.71V13.4284C34.6146 12.2411 33.9873 11.1451 32.968 10.5522L21.5638 3.91143C20.5445 3.31859 19.2898 3.31859 18.2706 3.91143L6.86632 10.5522C5.84708 11.1451 5.21973 12.2427 5.21973 13.4284V26.7084C5.21973 27.8957 5.84708 28.9917 6.86632 29.5846L18.2706 36.227C19.2898 36.8199 20.5445 36.8199 21.5638 36.227L32.968 29.5862C33.9873 28.9934 34.6146 27.8957 34.6146 26.71Z" stroke="#F8F7FC" stroke-width="1.5" stroke-linecap="round" stroke-linejoin="round"/>
<path d="M10.3176 21.1152L15.2574 24.0047" stroke="#F8F7FC" stroke-width="1.5" stroke-linecap="round" stroke-linejoin="round"/>
<path d="M5.66101 11.7676L19.9172 20.069L34.1733 11.7676" stroke="#F8F7FC" stroke-width="1.5" stroke-linecap="round" stroke-linejoin="round"/>
<path d="M19.9172 36.6755V20.0693" stroke="#F8F7FC" stroke-width="1.5" stroke-linecap="round" stroke-linejoin="round"/>
<path d="M27.0469 15.9174L12.5734 7.23242" stroke="#F8F7FC" stroke-width="1.5" stroke-linecap="round" stroke-linejoin="round"/>
</svg>
