<svg width="291" height="291" viewBox="0 0 291 291" fill="none" xmlns="http://www.w3.org/2000/svg">
<path d="M231.842 180.408C247.58 196.146 245.883 222.688 226.774 236.11C214.613 244.646 197.625 244.646 185.464 236.11C166.343 222.7 164.658 196.146 180.396 180.408C194.606 166.197 217.644 166.197 231.842 180.408" stroke="white" stroke-width="11" stroke-linecap="round" stroke-linejoin="round"/>
<path d="M254.625 254.625L231.83 231.83" stroke="white" stroke-width="11" stroke-linecap="round" stroke-linejoin="round"/>
<path d="M104.76 97V75.175V75.175C104.76 53.7501 122.135 36.375 143.56 36.375V36.375C164.985 36.375 182.36 53.7501 182.36 75.175V75.175V97" stroke="white" stroke-width="11" stroke-linecap="round" stroke-linejoin="round"/>
<path d="M231.236 133.375L229.296 108.191C228.811 101.874 223.549 97 217.207 97H69.9128C63.5714 97 58.3091 101.874 57.8241 108.204L48.5728 228.52C47.4936 242.597 58.6244 254.625 72.75 254.625H145.5" stroke="white" stroke-width="11" stroke-linecap="round" stroke-linejoin="round"/>
</svg>
