<svg width="146" height="106" viewBox="0 0 146 106" fill="none" xmlns="http://www.w3.org/2000/svg">
<rect width="146" height="106" fill="#FFE0EF"/>
<path d="M89 45H83V37H55C52.79 37 51 38.79 51 41V63H55C55 66.31 57.69 69 61 69C64.31 69 67 66.31 67 63H79C79 66.31 81.69 69 85 69C88.31 69 91 66.31 91 63H95V53L89 45ZM61 66C59.34 66 58 64.66 58 63C58 61.34 59.34 60 61 60C62.66 60 64 61.34 64 63C64 64.66 62.66 66 61 66ZM88 48L91.93 53H83V48H88ZM85 66C83.34 66 82 64.66 82 63C82 61.34 83.34 60 85 60C86.66 60 88 61.34 88 63C88 64.66 86.66 66 85 66Z" fill="#142032"/>
</svg>
