<svg xmlns="http://www.w3.org/2000/svg" width="377.477" height="377.477" viewBox="0 0 377.477 377.477"><path d="M373.992 103.626l-100.146-100.147c-2.965-2.965-7.281-4.139-11.33-3.117l-63.881 16.229c-2.074.527-3.966 1.602-5.479 3.115l-189.671 189.674c-4.644 4.644-4.644 12.164 0 16.808l147.8 147.807c2.229 2.229 5.252 3.482 8.403 3.482 3.151 0 6.176-1.254 8.404-3.482l189.672-189.68c1.516-1.508 2.59-3.406 3.117-5.479l16.227-63.881c1.033-4.064-.151-8.368-3.116-11.329zm-35.347 66.189l-178.957 178.967-130.989-131 178.955-178.959 54.162-13.754 90.588 90.588-13.759 54.158zM242.947 134.53c7.393 7.389 17.221 11.457 27.674 11.457s20.279-4.074 27.668-11.463c15.26-15.258 15.26-40.086.004-55.344-7.393-7.393-17.217-11.461-27.672-11.461s-20.283 4.068-27.678 11.461c-15.248 15.258-15.248 40.086.004 55.35zm16.807-38.541c2.904-2.902 6.762-4.498 10.867-4.498 4.104 0 7.959 1.596 10.861 4.498 5.99 5.988 5.99 15.738 0 21.729-5.803 5.809-15.928 5.785-21.727 0-5.985-5.991-5.985-15.741-.001-21.729zM189.564 131.194c-4.637-4.645-12.164-4.645-16.807 0l-84.047 84.041c-4.643 4.643-4.643 12.164 0 16.807 2.318 2.322 5.362 3.482 8.403 3.482s6.082-1.16 8.403-3.482l84.049-84.041c4.644-4.643 4.644-12.164-.001-16.807zM217.922 159.55c-4.643-4.643-12.17-4.643-16.807 0l-84.042 84.047c-4.644 4.646-4.644 12.166 0 16.81 2.321 2.319 5.362 3.481 8.403 3.481s6.085-1.162 8.403-3.481l84.041-84.049c4.644-4.644 4.644-12.166.002-16.808zM229.471 187.905l-84.042 84.049c-4.644 4.643-4.644 12.164 0 16.808 2.321 2.321 5.362 3.481 8.403 3.481s6.085-1.16 8.403-3.481l84.042-84.048c4.643-4.643 4.643-12.164 0-16.809-4.642-4.643-12.17-4.643-16.806 0z"/></svg>