<svg xmlns="http://www.w3.org/2000/svg" width="461.264" height="461.265" viewBox="0 0 461.264 461.265"><path d="M169.166 49.367c-63.055 0-114.362 51.298-114.362 114.362 0 63.062 51.308 114.361 114.362 114.361 63.062 0 114.36-51.3 114.36-114.361.002-63.063-51.297-114.362-114.36-114.362zm0 200.248c-47.357 0-85.886-38.529-85.886-85.886 0-47.359 38.529-85.886 85.886-85.886 47.358 0 85.885 38.526 85.885 85.886 0 47.357-38.526 85.886-85.885 85.886zM451.657 436.96l-162.246-162.254c26.967-29.199 43.482-68.188 43.482-110.977 0-90.28-73.447-163.729-163.728-163.729-90.28 0-163.729 73.448-163.729 163.729 0 90.279 73.449 163.729 163.729 163.729 37.256 0 71.621-12.528 99.166-33.566l163.191 163.202c2.781 2.779 6.424 4.171 10.066 4.171s7.293-1.392 10.066-4.171c5.565-5.563 5.565-14.572.003-20.134zm-417.743-273.23c0-74.582 60.677-135.252 135.252-135.252 74.583 0 135.254 60.67 135.254 135.252 0 74.583-60.672 135.252-135.254 135.252-74.575 0-135.252-60.67-135.252-135.252z"/></svg>