<svg xmlns="http://www.w3.org/2000/svg" width="389.663" height="389.663" viewBox="0 0 389.663 389.663"><path d="M194.832 132.997c-34.1 0-61.842 27.74-61.842 61.838 0 34.1 27.742 61.841 61.842 61.841 34.099 0 61.841-27.741 61.841-61.841.001-34.098-27.741-61.838-61.841-61.838zm0 93.447c-17.429 0-31.608-14.182-31.608-31.61 0-17.428 14.18-31.605 31.608-31.605 17.429 0 31.607 14.178 31.607 31.605 0 17.43-14.177 31.61-31.607 31.61zM385.23 150.784c-2.816-2.812-6.714-4.427-10.688-4.427l-49.715.015-3.799-9.194 35.149-35.155c5.892-5.894 5.892-15.483 0-21.377l-47.166-47.162c-2.688-2.691-6.586-4.235-10.688-4.235-4.103 0-7.996 1.544-10.687 4.235l-35.156 35.155-9.188-3.797v-49.726c0-8.335-6.781-15.116-15.115-15.116h-66.694c-8.335 0-15.116 6.78-15.116 15.115v49.716l-9.194 3.801-35.151-35.135c-2.855-2.854-6.65-4.426-10.686-4.426s-7.832 1.572-10.688 4.427l-47.172 47.172c-2.813 2.814-4.427 6.711-4.427 10.688 0 3.984 1.613 7.882 4.427 10.693l35.151 35.127-3.811 9.188-49.697.005c-8.338.001-15.119 6.782-15.119 15.117v66.708c0 4.035 1.573 7.832 4.431 10.689 2.817 2.815 6.713 4.432 10.688 4.432l49.708-.021 3.799 9.195-35.133 35.149c-5.894 5.896-5.894 15.484 0 21.378l47.161 47.172c2.692 2.69 6.591 4.233 10.693 4.233 4.105 0 8.002-1.543 10.69-4.233l35.136-35.162 9.186 3.815.008 49.691c0 8.338 6.781 15.121 15.116 15.121l66.708.006h.162c8.336 0 15.116-6.781 15.116-15.117 0-.721-.049-1.444-.147-2.151l-.015-.207-.013-47.355 9.195-3.801 35.149 35.139c2.855 2.857 6.65 4.432 10.688 4.432 4.035 0 7.83-1.573 10.686-4.432l47.172-47.166c2.855-2.854 4.429-6.649 4.429-10.688 0-4.045-1.572-7.847-4.429-10.699l-35.157-35.125 3.809-9.195h49.707c8.336 0 15.119-6.78 15.119-15.114v-66.708c0-4.036-1.574-7.833-4.432-10.69zm-25.802 62.279h-44.696c-6.134 0-11.615 3.662-13.966 9.328l-11.534 27.865c-2.351 5.672-1.062 12.141 3.274 16.482l31.609 31.58-25.789 25.789-31.605-31.603c-2.854-2.853-6.649-4.422-10.69-4.422-1.992 0-3.938.388-5.785 1.147l-27.854 11.537c-5.666 2.349-9.327 7.832-9.327 13.972l.008 44.688-36.468-.01-.008-44.686c0-6.136-3.661-11.615-9.328-13.966l-27.856-11.536c-1.854-.768-3.806-1.155-5.802-1.155-4.036 0-7.829 1.571-10.677 4.43l-31.586 31.615-25.789-25.788 31.592-31.604c4.339-4.343 5.625-10.81 3.275-16.478l-11.536-27.855c-2.352-5.666-7.833-9.328-13.965-9.328l-44.688.01v-36.466l44.688-.01c6.134 0 11.615-3.662 13.965-9.328l11.536-27.854c2.349-5.676 1.063-12.146-3.275-16.482l-31.603-31.576 25.79-25.796 31.599 31.582c2.856 2.857 6.658 4.43 10.704 4.43 1.988 0 3.928-.385 5.764-1.144l27.861-11.524c5.671-2.351 9.336-7.834 9.336-13.97v-44.706h36.459v44.705c0 6.137 3.662 11.618 9.328 13.965l27.855 11.534c1.848.766 3.795 1.153 5.789 1.153 4.039 0 7.832-1.572 10.684-4.429l31.607-31.617 25.789 25.789-31.609 31.607c-4.336 4.339-5.621 10.806-3.274 16.478l11.534 27.858c2.351 5.669 7.832 9.332 13.966 9.332l44.696-.01.002 36.467z"/></svg>