<svg xmlns="http://www.w3.org/2000/svg" viewBox="0 0 254.215 254.215" enable-background="new 0 0 254.215 254.215"><path d="M253.521 120.354l-19.709-42.577c-1.229-2.652-3.885-4.35-6.807-4.35h-61.982v-37.115c0-4.142-3.357-7.5-7.5-7.5h-150.023c-4.143 0-7.5 3.358-7.5 7.5v126.221c0 4.142 3.357 7.5 7.5 7.5h14.691c-1.256 2.75-2.205 5.667-2.799 8.712h-11.892c-4.143 0-7.5 3.358-7.5 7.5 0 4.142 3.357 7.5 7.5 7.5h11.893c3.51 18.016 19.406 31.659 38.436 31.659 19.027 0 34.922-13.644 38.432-31.659h62.596c3.51 18.016 19.405 31.659 38.434 31.659 19.026 0 34.92-13.644 38.43-31.659h10.996c4.143 0 7.5-3.358 7.5-7.5v-62.74c-.002-1.089-.238-2.164-.696-3.151zm-94.666 58.39h-62.595c-.593-3.045-1.543-5.962-2.799-8.712h64.063c1.988 0 3.791-.779 5.133-2.042-1.764 3.331-3.059 6.944-3.802 10.754zm-143.855-134.932h135.023v111.221h-68.576c-6.571-4.985-14.754-7.95-23.619-7.95s-17.05 2.965-23.621 7.95h-19.207v-111.221zm42.828 166.591c-13.324 0-24.164-10.838-24.164-24.159 0-13.323 10.84-24.162 24.164-24.162 13.322 0 24.16 10.839 24.16 24.162 0 13.321-10.838 24.159-24.16 24.159zm139.461 0c-13.323 0-24.162-10.838-24.162-24.159 0-13.323 10.839-24.162 24.162-24.162 13.321 0 24.158 10.839 24.158 24.162 0 13.321-10.837 24.159-24.158 24.159zm41.926-31.659h-3.496c-3.51-18.018-19.402-31.662-38.43-31.662-13.535 0-25.486 6.904-32.523 17.374.162-.615.258-1.257.258-1.923v-74.106h57.189l17.002 36.729v53.588zM211.066 95.302h-31.537c-4.143 0-7.5 3.358-7.5 7.5v20.85c0 4.142 3.357 7.5 7.5 7.5h41.448c4.143 0 7.5-3.358 7.5-7.5 0-1.343-.353-2.603-.971-3.693l-9.663-20.371c-1.242-2.618-3.88-4.286-6.777-4.286zm-24.037 20.849v-5.85h19.294l2.774 5.85h-22.068z"/></svg>