<svg xmlns="http://www.w3.org/2000/svg" width="392.135" height="392.135" viewBox="0 0 392.135 392.135"><path d="M196.071 0c-108.115 0-196.068 87.953-196.068 196.068 0 108.116 87.953 196.067 196.068 196.067 108.108 0 196.061-87.951 196.061-196.067 0-108.115-87.953-196.068-196.061-196.068zm0 365.322c-93.328 0-169.256-75.928-169.256-169.254 0-93.328 75.928-169.256 169.256-169.256 93.327 0 169.249 75.928 169.249 169.256-.001 93.327-75.923 169.254-169.249 169.254zM335.587 182.662h-279.032c-7.404 0-13.406 6.002-13.406 13.406 0 84.32 68.596 152.922 152.922 152.922 84.321 0 152.922-68.603 152.922-152.922 0-7.404-6.008-13.406-13.406-13.406zm-139.516 139.516c-65.01 0-118.688-49.449-125.402-112.703h250.805c-6.715 63.254-60.393 112.703-125.403 112.703zM123.842 153.957c21.51 0 39.008-17.498 39.008-39.008s-17.498-39.008-39.008-39.008c-21.504 0-39.002 17.498-39.002 39.008s17.498 39.008 39.002 39.008zm0-51.203c6.723 0 12.195 5.473 12.195 12.195s-5.473 12.195-12.195 12.195-12.189-5.473-12.189-12.195 5.467-12.195 12.189-12.195zM268.294 153.957c21.51 0 39.008-17.498 39.008-39.008s-17.498-39.008-39.008-39.008c-21.504 0-39.002 17.498-39.002 39.008s17.498 39.008 39.002 39.008zm0-51.203c6.723 0 12.195 5.473 12.195 12.195s-5.473 12.195-12.195 12.195-12.189-5.473-12.189-12.195c-.001-6.722 5.466-12.195 12.189-12.195z"/></svg>