<svg xmlns="http://www.w3.org/2000/svg" viewBox="0 0 215.639 215.639" enable-background="new 0 0 215.639 215.639"><path d="M118.713 101.426h86.426c4.142 0 7.5-3.357 7.5-7.5 0-51.791-42.135-93.926-93.926-93.926-4.142 0-7.5 3.357-7.5 7.5v86.426c0 4.142 3.358 7.5 7.5 7.5zm7.5-86.072c37.547 3.555 67.517 33.524 71.072 71.072h-71.072v-71.072zM101.427 118.606v-83.319c0-4.143-3.358-7.5-7.5-7.5-51.792 0-93.927 42.135-93.927 93.926 0 51.791 42.135 93.926 93.927 93.926 25.087 0 48.673-9.771 66.415-27.511 1.478-1.477 2.265-3.511 2.185-5.599-.074-1.904-.874-3.707-2.219-5.04l-58.881-58.883zm-7.5 82.033c-43.52 0-78.927-35.406-78.927-78.926 0-40.991 31.41-74.784 71.427-78.572v78.572c0 1.989.79 3.896 2.197 5.304l55.561 55.562c-14.115 11.695-31.699 18.06-50.258 18.06zM208.139 109.256h-86.426c-3.034 0-5.768 1.827-6.929 4.63-1.161 2.803-.519 6.028 1.626 8.174l61.1 61.1.214.206.013.012c1.439 1.329 3.265 1.99 5.088 1.99 1.923 0 3.843-.735 5.304-2.196 17.74-17.739 27.51-41.326 27.51-66.415 0-4.144-3.358-7.501-7.5-7.501zm-25.561 57.759l-42.758-42.759h60.47c-1.478 15.772-7.604 30.562-17.712 42.759z"/></svg>