<svg xmlns="http://www.w3.org/2000/svg" viewBox="0 0 209.281 209.281" enable-background="new 0 0 209.281 209.281"><path d="M104.64.001c-57.699 0-104.64 46.94-104.64 104.64 0 57.699 46.941 104.64 104.64 104.64 57.7 0 104.641-46.941 104.641-104.64 0-57.7-46.942-104.64-104.641-104.64zm0 194.279c-49.427 0-89.64-40.212-89.64-89.64s40.212-89.64 89.64-89.64 89.641 40.212 89.641 89.64-40.213 89.64-89.641 89.64zM167.684 137.157c-7.547-2.069-15.761-3.724-24.456-4.956.847-8.866 1.293-18.116 1.293-27.56 0-9.452-.446-18.699-1.292-27.561 8.695-1.232 16.908-2.887 24.453-4.956 3.995-1.096 6.345-5.222 5.25-9.217-1.097-3.994-5.227-6.347-9.217-5.249-6.782 1.86-14.326 3.37-22.349 4.512-1.679-10.705-3.999-20.577-6.912-29.176-1.329-3.923-5.586-6.025-9.51-4.697-3.923 1.329-6.026 5.586-4.697 9.51 2.59 7.646 4.674 16.435 6.206 26.007-7.1.567-14.42.867-21.817.867-7.393 0-14.708-.299-21.804-.866 1.498-9.356 3.519-17.97 6.026-25.491 1.31-3.93-.814-8.177-4.743-9.487-3.93-1.308-8.177.814-9.487 4.743-2.819 8.457-5.074 18.125-6.715 28.591-8.023-1.142-15.568-2.652-22.35-4.513-3.994-1.097-8.121 1.255-9.217 5.249-1.096 3.995 1.254 8.121 5.249 9.217 7.546 2.07 15.761 3.725 24.458 4.957-.846 8.866-1.293 18.115-1.293 27.56 0 9.451.446 18.698 1.292 27.56-8.696 1.232-16.911 2.887-24.457 4.956-3.995 1.096-6.345 5.222-5.249 9.217 1.095 3.994 5.219 6.346 9.217 5.249 6.783-1.86 14.329-3.371 22.352-4.513 1.679 10.705 3.998 20.576 6.911 29.176 1.059 3.126 3.976 5.096 7.103 5.096.798 0 1.609-.128 2.407-.398 3.923-1.329 6.026-5.586 4.698-9.509-2.589-7.646-4.673-16.436-6.206-26.007 7.098-.567 14.417-.867 21.812-.867 7.394 0 14.711.299 21.808.867-1.498 9.354-3.52 17.968-6.026 25.489-1.31 3.93.814 8.177 4.743 9.487.787.262 1.587.387 2.373.387 3.14 0 6.066-1.988 7.114-5.13 2.819-8.458 5.074-18.125 6.715-28.589 8.022 1.142 15.567 2.652 22.351 4.512.664.182 1.331.269 1.987.269 3.295-.001 6.315-2.188 7.229-5.519 1.095-3.996-1.256-8.122-5.25-9.217zm-63.044-7.556c-8.103 0-16.027.326-23.684.95-.782-8.305-1.195-16.998-1.195-25.91 0-8.906.413-17.601 1.196-25.911 7.656.625 15.578.95 23.68.95 8.105 0 16.031-.326 23.69-.95.781 8.305 1.194 16.999 1.194 25.911 0 8.905-.413 17.6-1.196 25.91-7.658-.625-15.582-.95-23.685-.95z"/></svg>