<svg xmlns="http://www.w3.org/2000/svg" width="512" height="512" viewBox="0 0 512 512"><title>512</title><desc>Created with Sketch.</desc><path d="M502.4 179.2l-48-64c-1.6-3.2-4.8-4.8-6.4-6.4v-76.8c0-17.6-14.4-32-32-32h-320c-17.6 0-32 14.4-32 32v76.8c-1.6 1.6-4.8 3.2-6.4 6.4l-48 64c-6.4 8-9.6 19.2-9.6 28.8v16c0 27.2 20.8 48 48 48v208c0 17.6 14.4 32 32 32h352c17.6 0 32-14.4 32-32v-208c27.2 0 48-20.8 48-48v-16c0-9.6-3.2-20.8-9.6-28.8zm-86.4-147.2v64h-320v-64h320zm-252.8 208h-67.2l64-112h35.2l-32 112zm48-112h36.8v112h-68.8l32-112zm52.8 0h36.8l32 112h-68.8v-112zm52.8 0h35.2l64 112h-67.2l-32-112zm-284.8 96v-16c0-3.2 1.6-6.4 3.2-9.6l48-64c3.2-4.8 8-6.4 12.8-6.4h46.4l-64 112h-30.4c-9.6 0-16-6.4-16-16zm288 256h-120v-160h120v160zm112 0h-96v-160c0-9.6-6.4-16-16-16h-120c-9.6 0-16 6.4-16 16v160h-104v-208h352v208zm48-256c0 9.6-6.4 16-16 16h-30.4l-64-112h46.4c4.8 0 9.6 1.6 12.8 6.4l48 64c1.6 3.2 3.2 6.4 3.2 9.6v16z"/></svg>