<?xml version="1.0" encoding="utf-8"?>
<!-- Generator: Adobe Illustrator 22.1.0, SVG Export Plug-In . SVG Version: 6.00 Build 0)  -->
<svg version="1.1" id="Layer_1" xmlns="http://www.w3.org/2000/svg" xmlns:xlink="http://www.w3.org/1999/xlink" x="0px" y="0px"
	 viewBox="0 0 459.7 459.7" style="enable-background:new 0 0 459.7 459.7;" xml:space="preserve">
<path d="M441.1,229.9c0-37.4-10.1-72.4-27.7-102.5c-1.2-2-1.2-4.4,0-6.4c3.5-6.2,5.5-13.4,5.5-21.1c0-23.6-19.4-42.9-42.9-42.8
	c-6.6,0-12.9,1.5-18.4,4.2c-2.1,1-4.5,0.8-6.5-0.5c-32.6-22-71.8-34.9-114-34.9c-112.5,0-204.1,91.6-204.1,204.1
	c0,10.3,0.8,20.4,2.3,30.3c0.3,2.2-0.4,4.4-2.1,5.9c-8.6,7.6-14,18.7-14,31.1c0,23,18.6,41.6,41.6,41.6c0,0,0,0,0,0
	c2.2,0,4.4,1.1,5.6,2.9c36.5,55.5,99.4,92.3,170.7,92.3c35.4,0,68.7-9.1,97.8-25c1.9-1,4.2-1.1,6.1-0.2c6.4,3.2,13.7,4.9,21.4,4.4
	c20.8-1.3,37.6-18.1,38.8-38.9c0.3-5.6-0.4-10.9-2.1-15.8c-0.7-2-0.3-4.3,1-6C425.8,318.2,441.1,275.8,441.1,229.9z M92.9,330.9
	c-1.7-2.4-1.5-5.6,0.3-7.8c5.7-7.1,9.1-16.1,9.1-26c0-20.6-15-37.7-34.6-41c-2.9-0.5-5.2-2.8-5.6-5.7c-0.8-6.7-1.2-13.6-1.2-20.5
	c0-97.1,79-176.1,176.1-176.1c34.9,0,67.5,10.2,94.9,27.8c2.4,1.6,3.5,4.5,2.7,7.3c-1.1,4.1-1.6,8.5-1.4,13
	c1,21.9,18.8,39.7,40.7,40.7c3.5,0.2,7-0.1,10.3-0.7c2.8-0.5,5.7,0.7,7.1,3.3c13.9,25.2,21.8,54,21.8,84.7
	c0,37.3-11.7,71.9-31.5,100.4c-1.7,2.4-4.8,3.3-7.6,2.3c-5.2-1.9-10.9-2.8-16.9-2.5c-20.7,1.2-37.5,17.9-39,38.5
	c-0.3,4,0,7.9,0.8,11.6c0.6,2.9-0.8,5.9-3.5,7.2c-23.6,11.8-50.3,18.4-78.4,18.4C177.5,405.9,124.8,376.3,92.9,330.9z"/>
<g>
	<circle cx="237" cy="170.9" r="31.2"/>
	<path d="M287.4,305.4v-37.5c0-27.7-22.7-50.4-50.4-50.4h0c-27.7,0-50.4,22.7-50.4,50.4v37.5c0,10.5,8.5,18.9,18.9,18.9h62.9
		C278.9,324.3,287.4,315.9,287.4,305.4z"/>
</g>
</svg>
