<svg xmlns="http://www.w3.org/2000/svg" width="459.7" height="459.7" viewBox="0 0 459.7 459.7"><path d="M404.7 76.1h-349.8c-30.3 0-54.9 24.6-54.9 54.9v197.6c0 30.3 24.6 54.9 54.9 54.9h349.8c30.3 0 54.9-24.6 54.9-54.9v-197.6c.1-30.3-24.6-54.9-54.9-54.9zm24.6 252.5c0 13.5-11 24.5-24.5 24.5h-349.9c-13.5 0-24.5-11-24.5-24.5v-132.4h398.9v132.4zm0-175.8h-398.9v-21.8c0-13.5 11-24.5 24.5-24.5h349.8c13.5 0 24.5 11 24.5 24.5v21.8zm-361.2 172.2h83.2c3 0 5.4-2.4 5.4-5.4v-16.4c0-3-2.4-5.4-5.4-5.4h-83.2c-3 0-5.4 2.4-5.4 5.4v16.4c0 3 2.5 5.4 5.4 5.4zm244.3-76c8.6 0 16.6 2.9 23 7.8 6.4-4.9 14.4-7.8 23-7.8 21 0 38 17 38 38s-17 38-38 38c-8.6 0-16.6-2.9-23-7.8-6.4 4.9-14.4 7.8-23 7.8-21 0-38-17-38-38s17-38 38-38z"/></svg>