<svg xmlns="http://www.w3.org/2000/svg" viewBox="0 0 208.955 208.955" enable-background="new 0 0 208.955 208.955"><path d="M190.85 200.227l-12.715-141.601c-.347-3.867-3.588-6.829-7.47-6.829h-26.221v-11.826c0-22.04-17.93-39.971-39.969-39.971-22.038 0-39.966 17.931-39.966 39.971v11.826h-26.239c-3.882 0-7.123 2.962-7.47 6.829l-12.765 142.158c-.188 2.098.514 4.177 1.935 5.731s3.43 2.439 5.535 2.439h157.946c4.143 0 7.5-3.358 7.5-7.5-.001-.417-.035-.828-.101-1.227zm-111.341-160.256c0-13.769 11.2-24.971 24.967-24.971 13.768 0 24.969 11.202 24.969 24.971v11.826h-49.936v-11.826zm-45.8 153.984l11.418-127.158h19.382v13.412c0 4.142 3.357 7.5 7.5 7.5s7.5-3.358 7.5-7.5v-13.412h49.936v13.412c0 4.142 3.357 7.5 7.5 7.5s7.5-3.358 7.5-7.5v-13.412h19.364l11.418 127.158h-141.518z"/></svg>