<svg xmlns="http://www.w3.org/2000/svg" viewBox="0 0 231.523 231.523" enable-background="new 0 0 231.523 231.523"><path d="M107.415 145.798c.399 3.858 3.656 6.73 7.451 6.73.258 0 .518-.013.78-.04 4.12-.426 7.115-4.111 6.689-8.231l-3.459-33.468c-.426-4.12-4.113-7.111-8.231-6.689-4.12.426-7.115 4.111-6.689 8.231l3.459 33.467zM154.351 152.488c.262.027.522.04.78.04 3.796 0 7.052-2.872 7.451-6.73l3.458-33.468c.426-4.121-2.569-7.806-6.689-8.231-4.123-.421-7.806 2.57-8.232 6.689l-3.458 33.468c-.426 4.121 2.569 7.806 6.69 8.232zM96.278 185.088c-12.801 0-23.215 10.414-23.215 23.215 0 12.804 10.414 23.221 23.215 23.221s23.216-10.417 23.216-23.221c0-12.801-10.415-23.215-23.216-23.215zm0 31.435c-4.53 0-8.215-3.688-8.215-8.221 0-4.53 3.685-8.215 8.215-8.215 4.53 0 8.216 3.685 8.216 8.215 0 4.533-3.686 8.221-8.216 8.221zM173.719 185.088c-12.801 0-23.216 10.414-23.216 23.215 0 12.804 10.414 23.221 23.216 23.221 12.802 0 23.218-10.417 23.218-23.221 0-12.801-10.416-23.215-23.218-23.215zm0 31.435c-4.53 0-8.216-3.688-8.216-8.221 0-4.53 3.686-8.215 8.216-8.215 4.531 0 8.218 3.685 8.218 8.215 0 4.533-3.686 8.221-8.218 8.221zM218.58 79.08c-1.42-1.837-3.611-2.913-5.933-2.913h-149.495l-6.278-24.141c-.86-3.305-3.844-5.612-7.259-5.612h-30.739c-4.142 0-7.5 3.358-7.5 7.5s3.358 7.5 7.5 7.5h24.94l6.227 23.946.104.398 23.157 89.046c.86 3.305 3.844 5.612 7.259 5.612h108.874c3.415 0 6.399-2.307 7.259-5.612l23.21-89.25c.584-2.245.094-4.636-1.326-6.474zm-34.942 86.338h-97.276l-19.309-74.25h135.895l-19.31 74.25zM105.556 52.851c1.464 1.463 3.383 2.195 5.302 2.195 1.92 0 3.84-.733 5.305-2.198 2.928-2.93 2.927-7.679-.003-10.607l-23.587-23.576c-2.93-2.928-7.678-2.927-10.607.002-2.928 2.93-2.927 7.679.002 10.607l23.588 23.577zM159.174 55.045c1.92 0 3.841-.733 5.306-2.199l23.552-23.573c2.928-2.93 2.925-7.679-.005-10.606-2.93-2.928-7.679-2.925-10.606.005l-23.552 23.573c-2.928 2.93-2.925 7.679.005 10.607 1.464 1.462 3.382 2.193 5.3 2.193zM135.006 48.311h.002c4.141 0 7.499-3.357 7.5-7.498l.008-33.311c.001-4.142-3.356-7.501-7.498-7.502h-.001c-4.142 0-7.5 3.357-7.501 7.498l-.008 33.311c-.001 4.142 3.356 7.501 7.498 7.502z"/></svg>