<svg xmlns="http://www.w3.org/2000/svg" viewBox="0 0 212.292 212.292" enable-background="new 0 0 212.292 212.292"><path d="M204.792 31.593h-197.292c-4.142 0-7.5 3.358-7.5 7.5v134.105c0 4.142 3.358 7.5 7.5 7.5h197.292c4.142 0 7.5-3.358 7.5-7.5v-134.105c0-4.142-3.358-7.5-7.5-7.5zm-189.792 62.712c24.486-3.382 43.827-23.065 46.682-47.712h88.937c2.854 24.648 22.191 44.333 46.674 47.716v24.867c-24.088 3.328-43.194 22.434-46.523 46.522h-89.24c-3.329-24.091-22.438-43.2-46.53-46.527v-24.866zm182.292-15.19c-16.198-3.123-28.905-16.156-31.541-32.521h31.541v32.521zm-150.743-32.522c-2.637 16.365-15.348 29.396-31.549 32.518v-32.518h31.549zm-31.549 87.773c15.807 3.046 28.289 15.526 31.336 31.333h-31.336v-31.333zm150.963 31.333c3.047-15.803 15.525-28.282 31.329-31.328v31.328h-31.329zM106.146 142.164c29.488 0 52.587-15.821 52.587-36.018 0-20.198-23.099-36.019-52.587-36.019s-52.587 15.822-52.587 36.019 23.099 36.018 52.587 36.018zm0-57.037c20.023 0 37.587 9.822 37.587 21.019 0 11.196-17.564 21.018-37.587 21.018-20.023 0-37.587-9.821-37.587-21.018 0-11.197 17.564-21.019 37.587-21.019z"/></svg>