<?xml version="1.0" encoding="UTF-8" standalone="no"?>
<svg viewBox="0 0 579 466" version="1.1" xmlns="http://www.w3.org/2000/svg" xmlns:xlink="http://www.w3.org/1999/xlink">
    <g stroke="none" stroke-width="1" fill-rule="evenodd">
        <g>
            <path d="M315,168.306064 C310.060586,164.519295 304.425808,161.671309 298.095503,159.762021 C291.647358,157.817191 284.972019,156.784547 278.069285,156.66406 C270.743935,156.536195 263.787027,157.507065 257.198352,159.576697 C250.609677,161.646329 244.743453,164.715135 239.599503,168.783207 C234.455553,172.851278 230.176747,177.815278 226.762955,183.675354 C223.349164,189.535431 221.153279,196.262331 220.175237,203.856256 L254.114522,209.09981 C254.936936,202.348835 257.250941,196.927713 261.056605,192.836281 C264.86227,188.74485 269.723344,186.750802 275.639973,186.854077 C281.274858,186.952434 285.7538,188.686686 289.076934,192.056885 C292.400068,195.427083 294.014881,199.789245 293.921422,205.143501 C293.84272,209.652347 292.644437,213.718757 290.326538,217.342853 C288.008638,220.966948 284.987653,224.508244 281.263492,227.966849 L222.02044,279.78664 L221.503959,309.375799 L315,311.007778 L315,280.141111 L269.164063,279.341042 L304.357046,249.08867 C307.792085,246.047852 311.122034,242.970011 314.346994,239.855054 C314.566271,239.643257 314.78394,239.430291 315,239.216157 L315,168.30606 Z" id="Combined-Shape"></path>
            <path d="M295.084264,413.994975 L407.785273,413.994975 C420.101177,413.994975 430.084264,404.567872 430.084264,392.957821 L430.084264,361 L397.297124,361 L397.297124,373.392136 C397.297124,378.744402 392.681472,383.077958 387.001989,383.077958 L178.010763,383.077958 C172.33128,383.077958 167.715628,378.744402 167.715628,373.392136 L167.715628,93.732199 C167.715628,88.363763 172.33128,84.0140364 178.010763,84.0140364 L283,84.0140364 L283,53 L157.298991,53 C144.983087,53 135,62.4109328 135,74.020984 L135,105 L22.2989911,105 C9.98308677,105 9.09494702e-13,114.410933 9.09494702e-13,126.020984 L9.09494702e-13,444.957821 C9.09494702e-13,456.567872 9.98308677,465.994975 22.2989911,465.994975 L272.785273,465.994975 C285.101177,465.994975 295.084264,456.567872 295.084264,444.957821 L295.084264,413.994975 Z M262.297124,413.994975 L157.298991,413.994975 C144.983087,413.994975 135,404.567872 135,392.957821 L135,136.014036 L43.0107627,136.014036 C37.3312803,136.014036 32.7156284,140.363763 32.7156284,145.732199 L32.7156284,425.392136 C32.7156284,430.744402 37.3312803,435.077958 43.0107627,435.077958 L252.001989,435.077958 C257.681472,435.077958 262.297124,430.744402 262.297124,425.392136 L262.297124,413.994975 Z M283,339.957821 C283,351.567872 292.983087,360.994975 305.298991,360.994975 L555.785273,360.994975 C568.101177,360.994975 578.084264,351.567872 578.084264,339.957821 L578.084264,21.020984 C578.084264,9.41093283 568.101177,0 555.785273,0 L305.298991,0 C292.983087,0 283,9.41093283 283,21.020984 L283,339.957821 Z M326.313901,330 C320.624066,330 316,325.66737 316,320.316248 L316,40.7160854 C316,35.348797 320.624066,31 326.313901,31 L535.686099,31 C541.375934,31 546,35.348797 546,40.7160854 L546,320.316248 C546,325.66737 541.375934,330 535.686099,330 L326.313901,330 Z" id="Combined-Shape"></path>
            <path d="M139,362.539519 L139,331.779965 C137.874149,332.30714 136.680595,332.741202 135.419328,333.082156 C132.879183,333.768824 130.373402,334.112154 127.90191,334.112154 C121.311263,334.112154 115.887792,332.292509 111.631333,328.653165 C107.374873,325.013821 104.56016,320.790872 103.187109,315.984191 L71.057868,324.430174 C72.9801399,331.29686 75.8635045,337.16779 79.7080483,342.043137 C83.5525921,346.918485 88.0492678,350.901103 93.1982104,353.991112 C98.3471529,357.081121 104.045231,359.381427 110.292614,360.892098 C116.539998,362.402769 122.958917,363.158093 129.549563,363.158093 C132.72263,363.158093 135.872768,362.951904 139.000001,362.539521 Z M139,300.063648 L139,267.021444 C138.642408,267.251332 138.272677,267.469948 137.890808,267.677291 C135.487969,268.981962 132.776233,269.874618 129.75552,270.355286 C126.734807,270.835954 123.576836,271.076284 120.281513,271.076284 L110.189636,271.076284 L110.189636,296.414232 L119.457686,296.414232 C123.02762,296.414232 126.5975,296.723228 130.167433,297.34123 C133.426289,297.90538 136.370454,298.812845 139,300.063648 Z M139,240.957596 L139,210.060841 C135.958675,209.675221 132.877189,209.482412 129.75552,209.482412 C123.714094,209.482412 117.810062,210.272069 112.043246,211.851407 C106.27643,213.430745 100.955936,215.765384 96.0816038,218.855393 C91.2072715,221.945402 86.9852019,225.790689 83.4152684,230.391369 C79.8453349,234.992049 77.1679249,240.382317 75.3829582,246.562335 L107.512199,253.97832 C108.61064,249.034305 110.979118,245.08602 114.617704,242.133344 C118.25629,239.180669 122.547012,237.704354 127.489996,237.704354 C131.760363,237.704354 135.597001,238.788758 139,240.957596 Z" id="Combined-Shape"></path>
            <polygon id="1" points="419.951467 256.738541 419.951467 143.867672 391.305598 166.007727 372.425366 140.177662 422.989665 103.060511 456.409846 103.060511 456.409846 256.738541"></polygon>
        </g>
    </g>
</svg>
