<svg width="512" height="512" viewBox="0 0 512 512" xmlns="http://www.w3.org/2000/svg" xmlns:sketch="http://www.bohemiancoding.com/sketch/ns"><path d="M403.366 252.463h-21.049c-7.523 0-13.622 6.099-13.622 13.622s6.099 13.622 13.622 13.622h21.049c27.334 0 49.493 22.159 49.493 49.493 0 27.334-22.159 49.493-49.493 49.493h-21.049c-7.523 0-13.622 6.099-13.622 13.622s6.099 13.622 13.622 13.622h21.049c27.416 0 52.749-14.626 66.457-38.369 13.708-23.743 13.708-52.995 0-76.738-13.708-23.743-39.041-38.369-66.457-38.369zM444.45 62.909c-7.416-31.237-29.81-53.538-61.44-61.181-5.43-1.322-11.117.809-14.34 5.375-3.223 4.566-3.328 10.638-.265 15.312 9.992 15.215 4.375 23.593-7.333 38.374-4.644 5.865-9.04 11.378-11.781 17.915-5.265 12.485-5.523 25.631-.745 37.019 1.973 4.697 4.741 9.018 8.182 12.774l-45.573 81.889h-202.473c-7.523.006-13.621 6.1-13.633 13.622v231.424c.04 30.757 24.973 55.677 55.73 55.699h189.44c30.755-.028 55.685-24.944 55.73-55.699v-231.424c-.011-7.523-6.11-13.617-13.633-13.622h-1.324l24.638-65.164c7.41-1.469 14.312-4.833 20.035-9.764 17.915-15.184 25.466-44.322 18.784-72.549zm-104.241 420.978h-189.43c-15.71-.017-28.442-12.745-28.465-28.455v-217.802h246.329v217.802c-.023 15.694-12.73 28.415-28.424 28.455h-.01zm2.131-273.501l29.531-53.02-20.025 53.02h-9.504999999999999zm38.384-96.908l-.372-.197c-2.942-1.996-5.255-4.787-6.672-8.047-1.945-4.644-1.686-10.147.745-15.939 1.262-3.041 4.479-7.096 7.871-11.378l.207-.259c7.313-9.206 17.005-21.432 18.277-37.298 8.636 7.544 14.64 17.646 17.139 28.837 4.241 17.894.093 36.998-9.857 45.428-5.854 4.934-13.157 5.461-22.3 1.634-1.137-.474-2.242-1.02-3.31-1.634-.544-.42-1.118-.8-1.717-1.138l-.01-.01zM204.782 217.398l-52.503-94.467-.228-.414v-.103l-.269-.362v-.217l-.476-.538-.476-1.448h-.827c-.879-.909-1.882-1.688-2.979-2.317l-52.379-31.434c-4.556-2.73-10.282-2.567-14.674.42-4.392 2.986-6.65 8.252-5.785 13.492l10.478 62.847c.213 1.495.678 2.943 1.376 4.282l31.496 62.95c2.294 4.624 7.012 7.547 12.174 7.54h63.147c4.831.011 9.305-2.538 11.758-6.7 2.453-4.161 2.517-9.311.168-13.532zm-88.954-86.802l-7.923 5.937-1.986-11.895 9.909 5.958zm53.858 79.789h-31.537l-22.756-45.418 20.521-15.36 33.771 60.778zM298.122 0h-84.196c-7.523.006-13.621 6.1-13.633 13.622v210.385c.011 7.523 6.11 13.617 13.633 13.622h84.196c7.523-.006 13.621-6.1 13.633-13.622v-210.385c-.011-7.523-6.11-13.617-13.633-13.622zm-55.73 55.699c.023 7.515 6.118 13.596 13.633 13.602h28.475v14.853h-7.427c-7.523 0-13.622 6.099-13.622 13.622s6.099 13.622 13.622 13.622h7.427v14.791h-28.475c-7.523 0-13.622 6.099-13.622 13.622s6.099 13.622 13.622 13.622h28.475v14.832h-7.427c-7.523 0-13.622 6.099-13.622 13.622s6.099 13.622 13.622 13.622h7.427v14.874h-56.951v-183.141h56.941v14.832h-28.465c-7.523.006-13.621 6.1-13.633 13.622z" /></svg>
