<svg xmlns="http://www.w3.org/2000/svg" viewBox="0 0 512 512"><path d="M430.8 410.5h-382.7c-26.7 0-48.1-21.4-48.1-48.1v-246.9c0-26.7 21.4-48.1 48.1-48.1h381.6c26.7 0 48.1 21.4 48.1 48.1v246.9c1.1 26.7-21.4 48.1-47 48.1zm-382.7-311.1c-8.6 0-16 7.5-16 16v246.9c0 8.6 7.5 16 16 16h381.6c8.6 0 16-7.5 16-16v-246.8c0-8.6-7.5-16-16-16h-381.6zM239.4 298.3c-4.3 0-7.5-1.1-10.7-4.3l-213.7-189.2c-6.4-5.3-7.5-16-1.1-22.4 5.3-6.4 16-7.5 22.4-1.1l203.1 179.6 203.1-179.6c6.4-5.3 17.1-5.3 22.4 1.1 5.3 6.4 5.3 17.1-1.1 22.4l-213.8 189.2c-3.1 2.1-7.3 4.3-10.6 4.3zM19.2 395.5c-4.3 0-8.6-2.1-11.8-5.3-6.4-6.4-5.3-17.1 1.1-22.4l151.8-143.2c6.4-6.4 17.1-5.3 22.4 1.1 6.4 6.4 5.3 17.1-1.1 22.4l-150.6 143.2c-3.2 2.1-7.5 4.2-11.8 4.2zm439.4 0c-4.3 0-7.5-1.1-10.7-4.3l-151.8-143.2c-6.4-6.4-6.4-16-1.1-22.4 6.4-6.4 16-6.4 22.4-1.1l151.8 143.2c6.4 6.4 6.4 16 1.1 22.4-3.2 3.3-7.4 5.4-11.7 5.4z"/></svg>