<svg width="512" height="512" viewBox="0 0 512 512" xmlns="http://www.w3.org/2000/svg" xmlns:sketch="http://www.bohemiancoding.com/sketch/ns"><path d="M362.162 398.116l-101.146 40.438v-161.019l101.146 40.438v80.144zm149.838-118.387c0-40.542-24.869-76.904-61.231-92.16-4.075-56.32-50.887-100.833-107.938-100.833-15.047 0-29.675 3.135-43.154 9.091-28.003-46.184-77.845-74.919-132.807-74.919-85.786 0-155.585 70.217-155.585 156.526 0 15.256 2.194 30.407 6.687 45.14-11.703 16.718-17.972 36.571-17.972 57.156 0 54.962 44.513 99.788 99.161 99.788 11.807 0 21.316-9.613 21.316-21.42 0-11.807-9.509-21.42-21.316-21.42-31.138 0-56.529-25.6-56.529-56.947 0-14.315 5.329-28.003 15.047-38.557 5.538-6.06 7.105-14.629 4.18-22.256-5.224-13.375-7.837-27.376-7.837-41.482 0-62.694 50.678-113.789 112.953-113.789 45.767 0 86.727 27.585 104.281 70.217 2.508 6.06 7.732 10.658 14.106 12.434 6.374 1.672 13.166.418 18.495-3.553 11.494-8.673 24.973-13.27 39.184-13.27 36.153 0 65.515 29.675 65.515 66.038 0 1.881-.104 3.866-.313 5.747-.94 10.658 6.269 20.376 16.718 22.674 25.809 5.642 44.513 29.048 44.513 55.693 0 30.616-34.691 55.484-64.47 56.947v-33.019c0-8.777-5.329-16.614-13.479-19.853l-143.778-57.574c-6.583-2.612-14.002-1.881-19.853 2.194-5.851 3.971-9.404 10.658-9.404 17.659v28.526h-61.544c-11.807 0-21.316 9.613-21.316 21.42 0 11.807 9.509 21.42 21.316 21.42h61.44v81.502h-61.544c-11.807 0-21.316 9.613-21.316 21.42 0 11.807 9.509 21.42 21.316 21.42h61.544v28.526c0 7.105 3.657 13.479 9.404 17.659 6.374 4.702 17.345 3.135 19.853 2.194l143.778-57.574c8.15-3.239 13.479-11.076 13.479-19.853v-33.123c51.096-1.567 107.102-43.677 107.102-99.788z" /></svg>
