<svg width="512" height="512" viewBox="0 0 512 512" xmlns="http://www.w3.org/2000/svg"><path d="M482.216 49.815h-452.968c-15.95 0-28.926 12.976-28.926 28.927v73.314c0 15.95 12.976 28.927 28.926 28.927h30.202v260.135c0 15.95 12.976 28.927 28.927 28.927h334.713c15.951 0 28.927-12.977 28.927-28.927v-260.135h30.199c15.95 0 28.926-12.977 28.926-28.927v-73.314c0-15.951-12.976-28.927-28.926-28.927zm-390.389 131.167h327.813v256.684h-327.813v-256.684zm386.938-32.376h-446.068v-66.415h446.067l.001 66.415z" /><path d="M190.402 348.513h130.66c12.939 0 23.468-10.527 23.468-23.468v-44.189c0-12.94-10.529-23.468-23.468-23.468h-130.66c-12.94 0-23.467 10.527-23.467 23.468v44.189c0 12.94 10.526 23.468 23.467 23.468zm5.27-62.388h120.121v33.651h-120.121v-33.651z" /></svg>
