<svg width="128" height="106" viewBox="0 0 128 106" version="1.1" xmlns="http://www.w3.org/2000/svg" xmlns:xlink="http://www.w3.org/1999/xlink">
<title>Slice</title>
<desc>Created using Figma</desc>
<g id="Canvas" transform="translate(-28 126)">
<rect x="28" y="-126" width="128" height="106" fill="#E5E5E5"/>
<g id="Vector">
<use xlink:href="#path0_fill" transform="translate(-307 -115)" fill="#1D1D1B"/>
</g>
</g>
<defs>
<path id="path0_fill" d="M 9.53605e-10 22.119L 13.271 22.119L 13.271 30.751C 17.479 24.817 24.384 20.285 34.203 20.285C 54.919 20.285 63.659 37.873 63.659 52.223C 63.659 69.055 51.682 83.189 34.311 83.189C 22.766 83.189 16.508 77.255 14.134 73.478L 14.134 81.355L 14.134 102.071L 9.53605e-10 102.071L 9.53605e-10 22.119ZM 49.525 51.683C 49.525 43.159 43.375 33.448 31.399 33.448C 26.22 33.448 21.796 35.498 18.559 38.843C 15.43 42.08 13.488 46.72 13.488 51.899C 13.488 56.97 15.43 61.502 18.667 64.739C 21.904 67.976 26.436 70.026 31.507 70.026C 42.297 70.026 49.526 61.502 49.526 51.791L 49.525 51.683ZM 68.263 51.575C 68.263 36.47 79.376 20.393 99.984 20.393C 120.593 20.393 131.706 36.47 131.706 51.683C 131.706 67.004 120.593 83.081 99.984 83.081C 79.376 83.081 68.263 67.004 68.263 51.683L 68.263 51.575ZM 82.397 51.791C 82.397 62.149 90.274 69.81 99.984 69.81C 109.695 69.81 117.463 62.149 117.463 51.684C 117.463 41.218 109.695 33.557 99.984 33.557C 90.273 33.557 82.397 41.218 82.397 51.684L 82.397 51.791ZM 199.969 81.355L 186.482 81.355L 186.482 72.83C 183.892 77.254 178.281 83.188 166.197 83.188C 147.962 83.188 136.202 68.946 136.202 51.682C 136.202 32.476 149.905 20.284 165.982 20.284C 177.311 20.284 183.677 26.327 185.835 29.779L 185.835 21.147L 185.835 1.51L 199.969 1.51L 199.969 81.355ZM 150.337 51.683C 150.337 61.717 157.566 69.918 168.464 69.918C 173.643 69.918 178.282 67.868 181.627 64.523C 184.972 61.178 186.914 56.538 186.698 51.359C 186.698 46.18 184.648 41.756 181.411 38.627C 178.174 35.39 173.643 33.448 168.571 33.448C 157.026 33.448 150.336 42.296 150.336 51.574L 150.337 51.683ZM 222.239 56.43C 222.886 65.925 231.302 71.212 239.394 71.104C 246.299 71.104 250.939 67.975 253.637 63.12L 268.203 63.12C 265.397 69.702 261.189 74.665 256.226 78.01C 251.263 81.463 245.436 83.189 239.287 83.189C 221.052 83.189 207.996 68.408 207.996 51.899C 207.996 35.067 221.16 20.285 239.07 20.285C 247.918 20.285 255.687 23.63 261.189 29.349C 268.419 36.794 271.116 46.073 269.93 56.431L 222.239 56.43ZM 256.011 45.641C 255.471 40.03 249.537 32.154 239.179 32.262C 228.713 32.262 222.994 39.815 222.454 45.641L 256.011 45.641ZM 279.537 22.119L 292.916 22.119L 292.916 29.887C 295.505 24.6 300.361 20.392 309.316 20.284L 309.316 34.527L 308.669 34.527C 298.743 34.527 293.671 39.167 293.671 49.417L 293.671 81.355L 279.537 81.355L 279.537 22.119ZM 330.491 81.355L 315.708 81.355L 315.708 65.386L 330.491 65.386L 330.491 81.355ZM 345.401 1.51L 361.478 1.51L 361.478 81.354L 345.401 81.354L 345.401 1.51ZM 371.838 42.08C 371.838 16.508 391.474 0 413.701 0C 437.87 0 455.673 18.774 455.673 41.433C 455.673 64.092 437.978 82.866 413.593 82.866C 389.101 82.866 371.837 63.553 371.837 42.189L 371.838 42.08ZM 387.915 41.433C 387.915 55.999 398.38 68.731 413.918 68.731C 430.103 68.731 439.597 54.704 439.597 41.541C 439.597 28.161 430.102 14.135 413.809 14.135C 397.841 14.135 387.914 27.299 387.914 41.326L 387.915 41.433Z"/>
</defs>
</svg>
