<svg width="480" height="350" viewBox="0 0 480 350" fill="none" xmlns="http://www.w3.org/2000/svg">
<rect width="480" height="350" fill="#142032"/>
<path d="M216 193H162C155.373 193 150 187.627 150 181V97C150 90.373 155.373 85 162 85H216C222.627 85 228 90.373 228 97V181C228 187.627 222.627 193 216 193Z" stroke="#F71963" stroke-width="2" stroke-miterlimit="10" stroke-linecap="square"/>
<path d="M318 265H264C257.373 265 252 259.627 252 253V169C252 162.373 257.373 157 264 157H318C324.627 157 330 162.373 330 169V253C330 259.627 324.627 265 318 265Z" stroke="#F71963" stroke-width="2" stroke-miterlimit="10" stroke-linecap="square"/>
<path d="M258 85C284.511 85 306 106.489 306 133" stroke="#F71963" stroke-width="2" stroke-miterlimit="10" stroke-linecap="square"/>
<path d="M174 217C174 243.511 195.489 265 222 265" stroke="#F71963" stroke-width="2" stroke-miterlimit="10" stroke-linecap="square"/>
<path d="M150 109H228" stroke="#F71963" stroke-width="2" stroke-miterlimit="10" stroke-linecap="square"/>
<path d="M150 157H228" stroke="#F71963" stroke-width="2" stroke-miterlimit="10" stroke-linecap="square"/>
<path d="M186 175H192" stroke="#F71963" stroke-width="2" stroke-miterlimit="10" stroke-linecap="square"/>
<path d="M252 181H330" stroke="#F71963" stroke-width="2" stroke-miterlimit="10" stroke-linecap="square"/>
<path d="M252 229H330" stroke="#F71963" stroke-width="2" stroke-miterlimit="10" stroke-linecap="square"/>
<path d="M288 247H294" stroke="#F71963" stroke-width="2" stroke-miterlimit="10" stroke-linecap="square"/>
</svg>
