<svg width="41" height="40" viewBox="0 0 41 40" fill="none" xmlns="http://www.w3.org/2000/svg">
<path fill-rule="evenodd" clip-rule="evenodd" d="M12.2847 23.6211L9.77966 11.0781H30.3844C31.4468 11.0781 32.2252 12.1358 31.9674 13.2298L29.7675 22.5634C29.433 23.9811 28.2972 25.0232 26.9264 25.1686L15.8031 26.3491C14.1451 26.524 12.629 25.3486 12.2847 23.6211Z" stroke="white" stroke-width="1.5" stroke-linecap="round" stroke-linejoin="round"/>
<path d="M9.78071 11.0777L9.01964 6.9082H7.00104" stroke="white" stroke-width="1.5" stroke-linecap="round" stroke-linejoin="round"/>
<path d="M28.5396 32.112C28.2588 32.112 28.0309 32.34 28.0337 32.6207C28.0337 32.9014 28.2616 33.1294 28.5423 33.1294C28.8231 33.1294 29.051 32.9014 29.051 32.6207C29.0496 32.34 28.8217 32.112 28.5396 32.112" stroke="white" stroke-width="1.5" stroke-linecap="round" stroke-linejoin="round"/>
<path d="M14.6437 32.1113C14.363 32.1113 14.135 32.3393 14.1378 32.62C14.135 32.9021 14.3644 33.1301 14.6451 33.1301C14.9259 33.1301 15.1538 32.9021 15.1538 32.6214C15.1538 32.3393 14.9259 32.1113 14.6437 32.1113" stroke="white" stroke-width="1.5" stroke-linecap="round" stroke-linejoin="round"/>
</svg>
