<svg width="480" height="350" viewBox="0 0 480 350" fill="none" xmlns="http://www.w3.org/2000/svg">
<rect width="480" height="350" fill="#142032"/>
<path d="M225 103H237" stroke="#F71963" stroke-width="2" stroke-miterlimit="10" stroke-linecap="square"/>
<path d="M168 121H294" stroke="#F71963" stroke-width="2" stroke-miterlimit="10" stroke-linecap="square"/>
<path d="M168 217H243" stroke="#F71963" stroke-width="2" stroke-miterlimit="10" stroke-linecap="square"/>
<path d="M270 265H180C173.373 265 168 259.627 168 253V97C168 90.373 173.373 85 180 85H282C288.627 85 294 90.373 294 97V184" stroke="#F71963" stroke-width="2" stroke-miterlimit="10" stroke-linecap="square"/>
<path d="M294 220C297.314 220 300 217.314 300 214C300 210.686 297.314 208 294 208C290.686 208 288 210.686 288 214C288 217.314 290.686 220 294 220Z" fill="#F71963"/>
<path d="M264 214C264 197.431 277.431 184 294 184C310.569 184 324 197.431 324 214C324 232.375 294 262 294 262C294 262 264 232.375 264 214Z" stroke="#F71963" stroke-width="2" stroke-miterlimit="10" stroke-linecap="square"/>
<path d="M244.607 201.536L263.536 182.607C264.474 181.669 265 180.398 265 179.071C265 177.745 264.474 176.474 263.536 175.536L235 147H209V173L237.536 201.536C238.474 202.474 239.745 203 241.071 203C242.398 203 243.669 202.474 244.607 201.536V201.536Z" stroke="#F71963" stroke-width="2" stroke-miterlimit="10" stroke-linecap="square"/>
<path d="M224 167C226.761 167 229 164.761 229 162C229 159.239 226.761 157 224 157C221.239 157 219 159.239 219 162C219 164.761 221.239 167 224 167Z" stroke="#F71963" stroke-width="2" stroke-miterlimit="10" stroke-linecap="square"/>
<path d="M238 168L250 180" stroke="#F71963" stroke-width="2" stroke-miterlimit="10" stroke-linecap="square"/>
<path d="M230 176L242 188" stroke="#F71963" stroke-width="2" stroke-miterlimit="10" stroke-linecap="square"/>
</svg>
