<svg width="703" height="115" viewBox="0 0 703 115" fill="none" xmlns="http://www.w3.org/2000/svg">
<rect width="703" height="115" fill="white"/>
<path d="M528 60C528 55.3406 528 53.0109 528.761 51.1732C529.776 48.7229 531.723 46.7761 534.173 45.7612C536.011 45 538.341 45 543 45H563C567.659 45 569.989 45 571.827 45.7612C574.277 46.7761 576.224 48.7229 577.239 51.1732C578 53.0109 578 55.3406 578 60V80C578 84.6594 578 86.9891 577.239 88.8268C576.224 91.2771 574.277 93.2239 571.827 94.2388C569.989 95 567.659 95 563 95H543C538.341 95 536.011 95 534.173 94.2388C531.723 93.2239 529.776 91.2771 528.761 88.8268C528 86.9891 528 84.6594 528 80V60Z" fill="#142032"/>
<path d="M506.101 26.724C507.073 26.724 507.625 27.18 507.769 28.092H509.749V27.936C509.557 26.112 507.925 25.02 506.005 25.02C503.797 25.02 502.009 26.676 502.009 28.98V29.268C502.009 31.644 503.809 33.18 506.005 33.18C507.997 33.18 509.521 32.064 509.749 30.132V29.964H507.781C507.697 30.864 507.193 31.464 506.101 31.464C504.709 31.464 504.085 30.372 504.085 29.088C504.085 27.816 504.709 26.724 506.101 26.724ZM510.458 29.244C510.458 31.584 512.259 33.18 514.575 33.18C516.891 33.18 518.691 31.584 518.691 29.244V28.956C518.691 26.616 516.879 25.02 514.575 25.02C512.271 25.02 510.458 26.616 510.458 28.956V29.244ZM512.535 29.1C512.535 27.756 513.207 26.688 514.563 26.688C515.943 26.688 516.615 27.756 516.615 29.1C516.615 30.444 515.883 31.512 514.563 31.512C513.267 31.512 512.535 30.444 512.535 29.1ZM526.627 29.22C526.795 28.824 526.999 28.02 527.059 27.516H527.083C527.047 28.02 527.095 28.824 527.155 29.328L527.683 33H529.639V32.784L528.499 25.2H526.627L524.527 30.24H524.503L522.427 25.2H520.507L519.319 32.784V33H521.215L521.743 29.436C521.803 28.956 521.803 28.032 521.767 27.516H521.791C521.887 27.984 522.163 28.98 522.295 29.268L523.759 32.88H525.175L526.627 29.22ZM534.41 30.84C536.15 30.84 537.482 29.892 537.482 28.164V27.972C537.482 26.184 536.102 25.2 534.518 25.2H530.918V33H532.91V30.84H534.41ZM534.314 26.724C535.19 26.724 535.49 27.264 535.49 28.068C535.49 28.788 535.166 29.304 534.254 29.304H532.91V26.724H534.314ZM545.195 25.2H543.251V30.324C543.251 31.14 542.627 31.536 541.895 31.536C541.031 31.536 540.479 31.14 540.479 30.324V25.2H538.475V30.012C538.475 32.076 539.603 33.18 541.847 33.18C544.055 33.18 545.195 32.076 545.195 30.012V25.2ZM546.328 26.796H548.548V33H550.528V26.796H552.664V25.2H546.328V26.796ZM553.828 25.2V33H559.228V31.392H555.808V29.88H558.712V28.236H555.808V26.796H559.228V25.2H553.828ZM560.625 25.2V33H563.961C565.929 33 567.765 31.74 567.765 29.244V28.956C567.765 26.496 565.929 25.2 563.973 25.2H560.625ZM563.865 26.748C565.113 26.748 565.713 27.624 565.713 29.064C565.713 30.504 565.149 31.452 563.841 31.452H562.581V26.748H563.865ZM574.64 30.84C576.38 30.84 577.712 29.892 577.712 28.164V27.972C577.712 26.184 576.332 25.2 574.748 25.2H571.148V33H573.14V30.84H574.64ZM574.544 26.724C575.42 26.724 575.72 27.264 575.72 28.068C575.72 28.788 575.396 29.304 574.484 29.304H573.14V26.724H574.544ZM582.066 26.724C582.942 26.724 583.206 27.252 583.206 27.732C583.206 28.32 582.894 28.848 581.934 28.848H580.734V26.724H582.066ZM585.138 27.684C585.138 26.016 583.758 25.2 582.114 25.2H578.754V33H580.734V30.264H581.37L583.35 33H585.45V32.76L583.434 30.096C584.49 29.748 585.138 28.944 585.138 27.876V27.684ZM588.328 33V25.2H586.348V33H588.328ZM593.629 26.724C594.601 26.724 595.153 27.18 595.297 28.092H597.277V27.936C597.085 26.112 595.453 25.02 593.533 25.02C591.325 25.02 589.537 26.676 589.537 28.98V29.268C589.537 31.644 591.337 33.18 593.533 33.18C595.525 33.18 597.049 32.064 597.277 30.132V29.964H595.309C595.225 30.864 594.721 31.464 593.629 31.464C592.237 31.464 591.613 30.372 591.613 29.088C591.613 27.816 592.237 26.724 593.629 26.724ZM598.418 25.2V33H603.818V31.392H600.398V29.88H603.302V28.236H600.398V26.796H603.818V25.2H598.418Z" fill="black"/>
<path d="M117 60C117 55.3406 117 53.0109 117.761 51.1732C118.776 48.7229 120.723 46.7761 123.173 45.7612C125.011 45 127.341 45 132 45H152C156.659 45 158.989 45 160.827 45.7612C163.277 46.7761 165.224 48.7229 166.239 51.1732C167 53.0109 167 55.3406 167 60V80C167 84.6594 167 86.9891 166.239 88.8268C165.224 91.2771 163.277 93.2239 160.827 94.2388C158.989 95 156.659 95 152 95H132C127.341 95 125.011 95 123.173 94.2388C120.723 93.2239 118.776 91.2771 117.761 88.8268C117 86.9891 117 84.6594 117 80V60Z" fill="#F71963"/>
<path d="M114.395 28.968C115.019 28.716 115.427 28.128 115.427 27.36V27.24C115.427 25.752 114.143 25.2 112.475 25.2H109.439V33H112.823C114.515 33 115.691 32.364 115.691 30.876V30.756C115.691 29.928 115.115 29.184 114.395 28.992V28.968ZM112.631 26.664C113.195 26.664 113.423 27.048 113.423 27.432C113.423 27.768 113.219 28.32 112.607 28.32H111.347V26.664H112.631ZM112.739 29.784C113.567 29.784 113.723 30.408 113.723 30.696C113.723 31.128 113.579 31.524 112.727 31.524H111.347V29.784H112.739ZM120.217 27.024C120.313 27.456 120.493 28.008 120.649 28.452L121.249 30.108H119.161L119.761 28.452C119.917 28.008 120.097 27.456 120.193 27.024H120.217ZM122.293 33H124.309V32.784L121.261 25.2H119.125L116.077 32.784V33H118.117L118.609 31.644H121.801L122.293 33ZM124.89 27.564C124.89 28.104 125.166 28.692 125.49 29.016C126.066 29.592 127.314 29.76 128.178 30.084C128.862 30.312 128.994 30.528 128.994 30.948C128.994 31.392 128.574 31.74 127.902 31.74C127.182 31.74 126.702 31.452 126.666 30.744H124.734V30.912C124.89 32.58 126.186 33.18 127.83 33.18C129.342 33.18 130.938 32.556 130.938 30.684V30.564C130.938 29.976 130.65 29.388 130.326 29.064C129.75 28.488 128.55 28.236 127.758 28.02C127.23 27.876 126.882 27.732 126.882 27.216C126.882 26.796 127.218 26.508 127.89 26.508C128.574 26.508 128.85 26.856 128.886 27.3H130.77V27.144C130.638 25.608 129.342 25.056 127.83 25.056C126.414 25.056 124.89 25.68 124.89 27.444V27.564ZM132.197 25.2V33H137.597V31.392H134.177V29.88H137.081V28.236H134.177V26.796H137.597V25.2H132.197ZM144.642 30.84C146.382 30.84 147.714 29.892 147.714 28.164V27.972C147.714 26.184 146.334 25.2 144.75 25.2H141.15V33H143.142V30.84H144.642ZM144.546 26.724C145.422 26.724 145.722 27.264 145.722 28.068C145.722 28.788 145.398 29.304 144.486 29.304H143.142V26.724H144.546ZM152.068 26.724C152.944 26.724 153.208 27.252 153.208 27.732C153.208 28.32 152.896 28.848 151.936 28.848H150.736V26.724H152.068ZM155.14 27.684C155.14 26.016 153.76 25.2 152.116 25.2H148.756V33H150.736V30.264H151.372L153.352 33H155.452V32.76L153.436 30.096C154.492 29.748 155.14 28.944 155.14 27.876V27.684ZM158.329 33V25.2H156.349V33H158.329ZM163.631 26.724C164.603 26.724 165.155 27.18 165.299 28.092H167.279V27.936C167.087 26.112 165.455 25.02 163.535 25.02C161.327 25.02 159.539 26.676 159.539 28.98V29.268C159.539 31.644 161.339 33.18 163.535 33.18C165.527 33.18 167.051 32.064 167.279 30.132V29.964H165.311C165.227 30.864 164.723 31.464 163.631 31.464C162.239 31.464 161.615 30.372 161.615 29.088C161.615 27.816 162.239 26.724 163.631 26.724ZM168.42 25.2V33H173.82V31.392H170.4V29.88H173.304V28.236H170.4V26.796H173.82V25.2H168.42Z" fill="black"/>
<path d="M241.154 30.84C242.894 30.84 244.226 29.892 244.226 28.164V27.972C244.226 26.184 242.846 25.2 241.262 25.2H237.662V33H239.654V30.84H241.154ZM241.058 26.724C241.934 26.724 242.234 27.264 242.234 28.068C242.234 28.788 241.91 29.304 240.998 29.304H239.654V26.724H241.058ZM248.579 26.724C249.455 26.724 249.719 27.252 249.719 27.732C249.719 28.32 249.407 28.848 248.447 28.848H247.247V26.724H248.579ZM251.651 27.684C251.651 26.016 250.271 25.2 248.627 25.2H245.267V33H247.247V30.264H247.883L249.863 33H251.963V32.76L249.947 30.096C251.003 29.748 251.651 28.944 251.651 27.876V27.684ZM254.841 33V25.2H252.861V33H254.841ZM260.142 26.724C261.114 26.724 261.666 27.18 261.81 28.092H263.79V27.936C263.598 26.112 261.966 25.02 260.046 25.02C257.838 25.02 256.05 26.676 256.05 28.98V29.268C256.05 31.644 257.85 33.18 260.046 33.18C262.038 33.18 263.562 32.064 263.79 30.132V29.964H261.822C261.738 30.864 261.234 31.464 260.142 31.464C258.75 31.464 258.126 30.372 258.126 29.088C258.126 27.816 258.75 26.724 260.142 26.724ZM264.932 25.2V33H270.332V31.392H266.912V29.88H269.816V28.236H266.912V26.796H270.332V25.2H264.932ZM277.197 26.724C278.073 26.724 278.337 27.252 278.337 27.732C278.337 28.32 278.025 28.848 277.065 28.848H275.865V26.724H277.197ZM280.269 27.684C280.269 26.016 278.889 25.2 277.245 25.2H273.885V33H275.865V30.264H276.501L278.481 33H280.581V32.76L278.565 30.096C279.621 29.748 280.269 28.944 280.269 27.876V27.684ZM288.15 25.2H286.206V30.324C286.206 31.14 285.582 31.536 284.85 31.536C283.986 31.536 283.434 31.14 283.434 30.324V25.2H281.43V30.012C281.43 32.076 282.558 33.18 284.802 33.18C287.01 33.18 288.15 32.076 288.15 30.012V25.2ZM289.764 33H295.044V31.428H291.744V25.2H289.764V33ZM296.197 25.2V33H301.597V31.392H298.177V29.88H301.081V28.236H298.177V26.796H301.597V25.2H296.197Z" fill="black"/>
<path d="M477.278 65.806H484.726V63.958H477.278V65.806ZM477.278 68.858H484.726V67.024H477.278V68.858Z" fill="black"/>
<path d="M201.48 72L202.964 69.9L204.448 72H206.8V71.762L204.28 68.248L206.492 65.238V65H204.238L203.048 66.778L201.872 65H199.52V65.238L201.746 68.304L199.198 71.762V72H201.48Z" fill="black"/>
<path d="M245 70C245 56.1929 256.193 45 270 45C283.807 45 295 56.1929 295 70C295 83.8071 283.807 95 270 95C256.193 95 245 83.8071 245 70Z" fill="#00BBD4"/>
<path d="M347.873 30.84C349.613 30.84 350.945 29.892 350.945 28.164V27.972C350.945 26.184 349.565 25.2 347.981 25.2H344.381V33H346.373V30.84H347.873ZM347.777 26.724C348.653 26.724 348.953 27.264 348.953 28.068C348.953 28.788 348.629 29.304 347.717 29.304H346.373V26.724H347.777ZM351.722 27.564C351.722 28.104 351.998 28.692 352.322 29.016C352.898 29.592 354.146 29.76 355.01 30.084C355.694 30.312 355.826 30.528 355.826 30.948C355.826 31.392 355.406 31.74 354.734 31.74C354.014 31.74 353.534 31.452 353.498 30.744H351.566V30.912C351.722 32.58 353.018 33.18 354.662 33.18C356.174 33.18 357.77 32.556 357.77 30.684V30.564C357.77 29.976 357.482 29.388 357.158 29.064C356.582 28.488 355.382 28.236 354.59 28.02C354.062 27.876 353.714 27.732 353.714 27.216C353.714 26.796 354.05 26.508 354.722 26.508C355.406 26.508 355.682 26.856 355.718 27.3H357.602V27.144C357.47 25.608 356.174 25.056 354.662 25.056C353.246 25.056 351.722 25.68 351.722 27.444V27.564ZM362.744 33V29.844L365.624 25.416V25.2H363.584L361.796 28.14L360.056 25.2H357.896V25.416L360.764 29.844V33H362.744ZM369.627 26.724C370.599 26.724 371.151 27.18 371.295 28.092H373.275V27.936C373.083 26.112 371.451 25.02 369.531 25.02C367.323 25.02 365.535 26.676 365.535 28.98V29.268C365.535 31.644 367.335 33.18 369.531 33.18C371.523 33.18 373.047 32.064 373.275 30.132V29.964H371.307C371.223 30.864 370.719 31.464 369.627 31.464C368.235 31.464 367.611 30.372 367.611 29.088C367.611 27.816 368.235 26.724 369.627 26.724ZM376.396 33V29.856H379.576V33H381.556V25.2H379.576V28.26H376.396V25.2H374.416V33H376.396ZM382.773 29.244C382.773 31.584 384.573 33.18 386.889 33.18C389.205 33.18 391.005 31.584 391.005 29.244V28.956C391.005 26.616 389.193 25.02 386.889 25.02C384.585 25.02 382.773 26.616 382.773 28.956V29.244ZM384.849 29.1C384.849 27.756 385.521 26.688 386.877 26.688C388.257 26.688 388.929 27.756 388.929 29.1C388.929 30.444 388.197 31.512 386.877 31.512C385.581 31.512 384.849 30.444 384.849 29.1ZM392.24 33H397.52V31.428H394.22V25.2H392.24V33ZM397.937 29.244C397.937 31.584 399.737 33.18 402.053 33.18C404.369 33.18 406.169 31.584 406.169 29.244V28.956C406.169 26.616 404.357 25.02 402.053 25.02C399.749 25.02 397.937 26.616 397.937 28.956V29.244ZM400.013 29.1C400.013 27.756 400.685 26.688 402.041 26.688C403.421 26.688 404.093 27.756 404.093 29.1C404.093 30.444 403.361 31.512 402.041 31.512C400.745 31.512 400.013 30.444 400.013 29.1ZM414.832 28.68H411.064V30.264H413.068V31.032C412.648 31.356 412.108 31.572 411.352 31.572C409.852 31.572 409.012 30.492 409.012 29.112C409.012 27.588 409.696 26.664 411.124 26.664C412 26.664 412.588 26.964 412.72 27.672H414.652V27.516C414.4 25.752 413.02 25.02 411.064 25.02C408.772 25.02 406.972 26.604 406.972 28.956V29.244C406.972 31.488 408.616 33.18 411.172 33.18C413.08 33.18 414.328 32.256 414.832 31.596V28.68ZM418.255 33V25.2H416.275V33H418.255ZM423.556 26.724C424.528 26.724 425.08 27.18 425.224 28.092H427.204V27.936C427.012 26.112 425.38 25.02 423.46 25.02C421.252 25.02 419.464 26.676 419.464 28.98V29.268C419.464 31.644 421.264 33.18 423.46 33.18C425.452 33.18 426.976 32.064 427.204 30.132V29.964H425.236C425.152 30.864 424.648 31.464 423.556 31.464C422.164 31.464 421.54 30.372 421.54 29.088C421.54 27.816 422.164 26.724 423.556 26.724ZM431.682 27.024C431.778 27.456 431.958 28.008 432.114 28.452L432.714 30.108H430.626L431.226 28.452C431.382 28.008 431.562 27.456 431.658 27.024H431.682ZM433.758 33H435.774V32.784L432.726 25.2H430.59L427.542 32.784V33H429.582L430.074 31.644H433.266L433.758 33ZM436.619 33H441.899V31.428H438.599V25.2H436.619V33ZM448.701 30.84C450.441 30.84 451.773 29.892 451.773 28.164V27.972C451.773 26.184 450.393 25.2 448.809 25.2H445.209V33H447.201V30.84H448.701ZM448.605 26.724C449.481 26.724 449.781 27.264 449.781 28.068C449.781 28.788 449.457 29.304 448.545 29.304H447.201V26.724H448.605ZM456.126 26.724C457.002 26.724 457.266 27.252 457.266 27.732C457.266 28.32 456.954 28.848 455.994 28.848H454.794V26.724H456.126ZM459.198 27.684C459.198 26.016 457.818 25.2 456.174 25.2H452.814V33H454.794V30.264H455.43L457.41 33H459.51V32.76L457.494 30.096C458.55 29.748 459.198 28.944 459.198 27.876V27.684ZM462.388 33V25.2H460.408V33H462.388ZM467.689 26.724C468.661 26.724 469.213 27.18 469.357 28.092H471.337V27.936C471.145 26.112 469.513 25.02 467.593 25.02C465.385 25.02 463.597 26.676 463.597 28.98V29.268C463.597 31.644 465.397 33.18 467.593 33.18C469.585 33.18 471.109 32.064 471.337 30.132V29.964H469.369C469.285 30.864 468.781 31.464 467.689 31.464C466.297 31.464 465.673 30.372 465.673 29.088C465.673 27.816 466.297 26.724 467.689 26.724ZM472.478 25.2V33H477.878V31.392H474.458V29.88H477.362V28.236H474.458V26.796H477.878V25.2H472.478Z" fill="black"/>
<path d="M335.48 73L336.964 70.9L338.448 73H340.8V72.762L338.28 69.248L340.492 66.238V66H338.238L337.048 67.778L335.872 66H333.52V66.238L335.746 69.304L333.198 72.762V73H335.48Z" fill="black"/>
<path d="M384 71C384 57.1929 395.193 46 409 46C422.807 46 434 57.1929 434 71C434 84.8071 422.807 96 409 96C395.193 96 384 84.8071 384 71Z" fill="#D6D8E0"/>
</svg>
