<svg width="703" height="115" viewBox="0 0 703 115" fill="none" xmlns="http://www.w3.org/2000/svg">
<rect width="703" height="115" fill="white"/>
<path d="M371 61C371 56.3406 371 54.0109 371.761 52.1732C372.776 49.7229 374.723 47.7761 377.173 46.7612C379.011 46 381.341 46 386 46H406C410.659 46 412.989 46 414.827 46.7612C417.277 47.7761 419.224 49.7229 420.239 52.1732C421 54.0109 421 56.3406 421 61V81C421 85.6594 421 87.9891 420.239 89.8268C419.224 92.2771 417.277 94.2239 414.827 95.2388C412.989 96 410.659 96 406 96H386C381.341 96 379.011 96 377.173 95.2388C374.723 94.2239 372.776 92.2771 371.761 89.8268C371 87.9891 371 85.6594 371 81V61Z" fill="#142032"/>
<path d="M352.539 30.84C354.279 30.84 355.611 29.892 355.611 28.164V27.972C355.611 26.184 354.231 25.2 352.647 25.2H349.047V33H351.039V30.84H352.539ZM352.443 26.724C353.319 26.724 353.619 27.264 353.619 28.068C353.619 28.788 353.295 29.304 352.383 29.304H351.039V26.724H352.443ZM359.964 26.724C360.84 26.724 361.104 27.252 361.104 27.732C361.104 28.32 360.792 28.848 359.832 28.848H358.632V26.724H359.964ZM363.036 27.684C363.036 26.016 361.656 25.2 360.012 25.2H356.652V33H358.632V30.264H359.268L361.248 33H363.348V32.76L361.332 30.096C362.388 29.748 363.036 28.944 363.036 27.876V27.684ZM364.246 25.2V33H369.646V31.392H366.226V29.88H369.13V28.236H366.226V26.796H369.646V25.2H364.246ZM373.927 35.34C374.695 35.34 375.571 35.124 375.571 34.308C375.571 33.912 375.151 33.612 374.755 33.552L374.851 33.168C376.639 33.012 377.983 31.92 378.175 30.132V29.964H376.207C376.123 30.864 375.619 31.464 374.527 31.464C373.135 31.464 372.511 30.372 372.511 29.088C372.511 27.816 373.135 26.724 374.527 26.724C375.499 26.724 376.051 27.18 376.195 28.092H378.175V27.936C377.983 26.112 376.351 25.02 374.431 25.02C372.223 25.02 370.435 26.676 370.435 28.98V29.268C370.435 31.44 371.959 32.928 373.915 33.156L373.651 33.756L373.723 33.888C374.107 33.9 374.299 34.008 374.299 34.212C374.299 34.392 374.071 34.488 373.723 34.488C373.507 34.488 373.243 34.428 372.943 34.296H372.751V35.16C373.039 35.268 373.531 35.34 373.927 35.34ZM378.884 29.244C378.884 31.584 380.684 33.18 383 33.18C385.316 33.18 387.116 31.584 387.116 29.244V28.956C387.116 26.616 385.304 25.02 383 25.02C380.696 25.02 378.884 26.616 378.884 28.956V29.244ZM380.96 29.1C380.96 27.756 381.632 26.688 382.988 26.688C384.368 26.688 385.04 27.756 385.04 29.1C385.04 30.444 384.308 31.512 382.988 31.512C381.692 31.512 380.96 30.444 380.96 29.1ZM394.168 26.724C395.14 26.724 395.692 27.18 395.836 28.092H397.816V27.936C397.624 26.112 395.992 25.02 394.072 25.02C391.864 25.02 390.076 26.676 390.076 28.98V29.268C390.076 31.644 391.876 33.18 394.072 33.18C396.064 33.18 397.588 32.064 397.816 30.132V29.964H395.848C395.764 30.864 395.26 31.464 394.168 31.464C392.776 31.464 392.152 30.372 392.152 29.088C392.152 27.816 392.776 26.724 394.168 26.724ZM398.525 29.244C398.525 31.584 400.325 33.18 402.641 33.18C404.957 33.18 406.757 31.584 406.757 29.244V28.956C406.757 26.616 404.945 25.02 402.641 25.02C400.337 25.02 398.525 26.616 398.525 28.956V29.244ZM400.601 29.1C400.601 27.756 401.273 26.688 402.629 26.688C404.009 26.688 404.681 27.756 404.681 29.1C404.681 30.444 403.949 31.512 402.629 31.512C401.333 31.512 400.601 30.444 400.601 29.1ZM414.694 29.22C414.862 28.824 415.066 28.02 415.126 27.516H415.15C415.114 28.02 415.162 28.824 415.222 29.328L415.75 33H417.706V32.784L416.566 25.2H414.694L412.594 30.24H412.57L410.494 25.2H408.574L407.386 32.784V33H409.282L409.81 29.436C409.87 28.956 409.87 28.032 409.834 27.516H409.858C409.954 27.984 410.23 28.98 410.362 29.268L411.826 32.88H413.242L414.694 29.22ZM422.476 30.84C424.216 30.84 425.548 29.892 425.548 28.164V27.972C425.548 26.184 424.168 25.2 422.584 25.2H418.984V33H420.976V30.84H422.476ZM422.38 26.724C423.256 26.724 423.556 27.264 423.556 28.068C423.556 28.788 423.232 29.304 422.32 29.304H420.976V26.724H422.38ZM433.262 25.2H431.318V30.324C431.318 31.14 430.694 31.536 429.962 31.536C429.098 31.536 428.546 31.14 428.546 30.324V25.2H426.542V30.012C426.542 32.076 427.67 33.18 429.914 33.18C432.122 33.18 433.262 32.076 433.262 30.012V25.2ZM434.395 26.796H436.615V33H438.595V26.796H440.731V25.2H434.395V26.796ZM444.269 27.024C444.365 27.456 444.545 28.008 444.701 28.452L445.301 30.108H443.213L443.813 28.452C443.969 28.008 444.149 27.456 444.245 27.024H444.269ZM446.345 33H448.361V32.784L445.313 25.2H443.177L440.129 32.784V33H442.169L442.661 31.644H445.853L446.345 33ZM449.207 25.2V33H452.543C454.511 33 456.347 31.74 456.347 29.244V28.956C456.347 26.496 454.511 25.2 452.555 25.2H449.207ZM452.447 26.748C453.695 26.748 454.295 27.624 454.295 29.064C454.295 30.504 453.731 31.452 452.423 31.452H451.163V26.748H452.447ZM457.142 29.244C457.142 31.584 458.942 33.18 461.258 33.18C463.574 33.18 465.374 31.584 465.374 29.244V28.956C465.374 26.616 463.562 25.02 461.258 25.02C458.954 25.02 457.142 26.616 457.142 28.956V29.244ZM459.218 29.1C459.218 27.756 459.89 26.688 461.246 26.688C462.626 26.688 463.298 27.756 463.298 29.1C463.298 30.444 462.566 31.512 461.246 31.512C459.95 31.512 459.218 30.444 459.218 29.1Z" fill="black"/>
<path d="M277 47.5H297C299.35 47.5 301.038 47.5008 302.369 47.5917C303.688 47.6816 304.547 47.8547 305.253 48.147C307.336 49.0097 308.99 50.6645 309.853 52.7472C310.145 53.4528 310.318 54.3124 310.408 55.6306C310.499 56.9622 310.5 58.6498 310.5 61V81C310.5 83.3502 310.499 85.0378 310.408 86.3694C310.318 87.6876 310.145 88.5472 309.853 89.2528C308.99 91.3355 307.336 92.9903 305.253 93.853C304.547 94.1453 303.688 94.3184 302.369 94.4083C301.038 94.4992 299.35 94.5 297 94.5H277C274.65 94.5 272.962 94.4992 271.631 94.4083C270.312 94.3184 269.453 94.1453 268.747 93.853C266.664 92.9903 265.01 91.3355 264.147 89.2528C263.855 88.5472 263.682 87.6876 263.592 86.3694C263.501 85.0378 263.5 83.3502 263.5 81V61C263.5 58.6498 263.501 56.9622 263.592 55.6306C263.682 54.3124 263.855 53.4528 264.147 52.7472C265.01 50.6645 266.664 49.0097 268.747 48.147C269.453 47.8547 270.312 47.6816 271.631 47.5917C272.962 47.5008 274.65 47.5 277 47.5Z" fill="#142032" stroke="#F71963" stroke-width="3"/>
<path d="M256.718 30.84C258.458 30.84 259.79 29.892 259.79 28.164V27.972C259.79 26.184 258.41 25.2 256.826 25.2H253.226V33H255.218V30.84H256.718ZM256.622 26.724C257.498 26.724 257.798 27.264 257.798 28.068C257.798 28.788 257.474 29.304 256.562 29.304H255.218V26.724H256.622ZM264.144 26.724C265.02 26.724 265.284 27.252 265.284 27.732C265.284 28.32 264.972 28.848 264.012 28.848H262.812V26.724H264.144ZM267.216 27.684C267.216 26.016 265.836 25.2 264.192 25.2H260.832V33H262.812V30.264H263.448L265.428 33H267.528V32.76L265.512 30.096C266.568 29.748 267.216 28.944 267.216 27.876V27.684ZM268.426 25.2V33H273.826V31.392H270.406V29.88H273.31V28.236H270.406V26.796H273.826V25.2H268.426ZM278.107 35.34C278.875 35.34 279.751 35.124 279.751 34.308C279.751 33.912 279.331 33.612 278.935 33.552L279.031 33.168C280.819 33.012 282.163 31.92 282.355 30.132V29.964H280.387C280.303 30.864 279.799 31.464 278.707 31.464C277.315 31.464 276.691 30.372 276.691 29.088C276.691 27.816 277.315 26.724 278.707 26.724C279.679 26.724 280.231 27.18 280.375 28.092H282.355V27.936C282.163 26.112 280.531 25.02 278.611 25.02C276.403 25.02 274.615 26.676 274.615 28.98V29.268C274.615 31.44 276.139 32.928 278.095 33.156L277.831 33.756L277.903 33.888C278.287 33.9 278.479 34.008 278.479 34.212C278.479 34.392 278.251 34.488 277.903 34.488C277.687 34.488 277.423 34.428 277.123 34.296H276.931V35.16C277.219 35.268 277.711 35.34 278.107 35.34ZM283.064 29.244C283.064 31.584 284.864 33.18 287.18 33.18C289.496 33.18 291.296 31.584 291.296 29.244V28.956C291.296 26.616 289.484 25.02 287.18 25.02C284.876 25.02 283.064 26.616 283.064 28.956V29.244ZM285.14 29.1C285.14 27.756 285.812 26.688 287.168 26.688C288.548 26.688 289.22 27.756 289.22 29.1C289.22 30.444 288.488 31.512 287.168 31.512C285.872 31.512 285.14 30.444 285.14 29.1ZM294.687 25.2V33H296.667V30.084H299.691V28.44H296.643V26.796H300.207V25.2H294.687ZM303.335 33V25.2H301.355V33H303.335ZM306.848 25.2H304.664V25.416L307.1 28.872L304.28 32.784V33H306.416L308.216 30.408L309.896 33H312.092V32.784L309.404 28.836L311.708 25.416V25.2H309.62L308.288 27.432L306.848 25.2ZM311.962 29.244C311.962 31.584 313.762 33.18 316.078 33.18C318.394 33.18 320.194 31.584 320.194 29.244V28.956C320.194 26.616 318.382 25.02 316.078 25.02C313.774 25.02 311.962 26.616 311.962 28.956V29.244ZM314.038 29.1C314.038 27.756 314.71 26.688 316.066 26.688C317.446 26.688 318.118 27.756 318.118 29.1C318.118 30.444 317.386 31.512 316.066 31.512C314.77 31.512 314.038 30.444 314.038 29.1Z" fill="black"/>
<path d="M338.278 70.806H345.726V68.958H338.278V70.806ZM338.278 73.858H345.726V72.024H338.278V73.858Z" fill="black"/>
</svg>
