<?xml version="1.0" encoding="UTF-8"?>
<svg width="693px" height="151px" viewBox="0 0 693 151" version="1.1" xmlns="http://www.w3.org/2000/svg" xmlns:xlink="http://www.w3.org/1999/xlink">
    <!-- Generator: Sketch 42 (36781) - http://www.bohemiancoding.com/sketch -->
    <title>Artboard@1x</title>
    <desc>Created with Sketch.</desc>
    <defs></defs>
    <g id="Page-1" stroke="none" stroke-width="1" fill="none" fill-rule="evenodd">
        <g id="Artboard" fill-rule="nonzero" fill="#B1B1B1">
            <path d="M610.392292,28.6122244 L646,28.7007434 L576.635785,74.3688214 L616.761808,109.430021 L579.745494,109.699426 L555.999325,87.8390956 L504.981624,121.387776 L467.234067,121.387776 L539.504012,72.8332102 L500.990574,39.5269952 L537.764423,39.6155141 L559.778699,58.9357359 L610.392292,28.6122244 Z M47,39.6001195 L86.6872763,39.5693303 L125.493212,75.5234164 L165.269007,39.5885736 L189.954247,39.5577844 L205.864565,58.4161682 L181.648861,58.4161682 L124.996736,113.028508 L47,39.6001195 Z M473.430393,39.6578493 L473.457334,55.7452053 L373.5079,55.7144161 L373.5079,66.352084 L467.530413,66.352084 L467.561203,79.8146608 L374.008224,79.7569311 C374.008224,83.1745321 374.123684,92.8192484 390.711364,92.8192484 L473.518912,92.8192484 L473.49582,109.837978 C473.49582,109.837978 396.445852,109.807188 377.214149,109.807188 C359.306382,109.807188 344.512172,101.444073 344.512172,88.1008038 C344.512172,73.3219887 344.473686,39.6616979 344.473686,39.6616979 L473.430393,39.6616979 L473.430393,39.6578493 Z M201.284672,39.5423898 L334.409467,39.6001195 L334.463348,58.4585033 L285.323788,58.4585033 L285.208328,109.74561 L253.033616,109.714821 L253.002827,58.4238655 L219.50418,58.4238655 L201.284672,39.5423898 Z" id="logo"></path>
        </g>
    </g>
</svg>