<svg xmlns="http://www.w3.org/2000/svg" viewBox="0 0 64 64" stroke="none" width="64" height="64"><title>web design</title><g class="nc-icon-wrapper" stroke-linecap="square" stroke-linejoin="miter" stroke-width="2" fill="#ffffff" stroke="#ffffff"><line data-cap="butt" fill="none" stroke="#f71963" stroke-miterlimit="10" x1="2" y1="20" x2="40.012" y2="20" stroke-linecap="butt"/> <polyline data-cap="butt" fill="none" stroke="#f71963" stroke-miterlimit="10" points="62,17 62,58 2,58 2,6 54.033,6 " stroke-linecap="butt"/> <line data-color="color-2" fill="none" stroke-miterlimit="10" x1="10" y1="13" x2="14" y2="13"/> <line data-color="color-2" fill="none" stroke-miterlimit="10" x1="20" y1="13" x2="24" y2="13"/> <path data-cap="butt" data-color="color-2" fill="none" stroke-miterlimit="10" d="M31.848,28.152L56,4.036 c1.381-1.381,3.619-1.381,5,0l0,0c1.381,1.381,1.381,3.619,0,5L36.849,33.151" stroke-linecap="butt"/> <path data-color="color-2" fill="none" stroke-miterlimit="10" d="M35.08,29.92 C33.842,28.682,32.197,28,30.446,28c-1.751,0-3.397,0.682-4.634,1.92C23.351,32.38,23,42,23,42s9.62-0.351,12.08-2.811 c1.238-1.238,1.92-2.884,1.92-4.634S36.318,31.158,35.08,29.92z"/> <line data-color="color-2" fill="none" stroke-miterlimit="10" x1="10" y1="50" x2="54" y2="50"/></g></svg>