<svg width="902" height="167" viewBox="0 0 902 167" fill="none" xmlns="http://www.w3.org/2000/svg">
<rect width="902" height="167" fill="white"/>
<rect x="44" y="33" width="111" height="101" fill="#FFE0EF"/>
<path d="M66.3374 78L61.9864 65.08H59.4404L55.0894 78H57.1414L58.0914 74.922H63.2784L64.2474 78H66.3374ZM60.6944 66.619L62.7844 73.345H58.5854L60.6944 66.619ZM71.0977 78.19C72.8077 78.19 73.7767 77.221 74.2707 75.283H74.3087V78H76.0377V65.08H74.3087V71.141H74.2707C73.8527 69.108 72.6177 68.443 70.9647 68.443C68.8177 68.443 67.1457 70.02 67.1457 73.25C67.1457 76.518 68.9127 78.19 71.0977 78.19ZM71.6107 76.651C70.0907 76.651 68.9887 75.53 68.9887 73.25C68.9887 71.046 70.0527 69.963 71.6107 69.963C73.1877 69.963 74.2517 71.065 74.2517 73.25C74.2517 75.511 73.1497 76.651 71.6107 76.651ZM79.7954 67.17C80.5554 67.17 80.9734 66.714 80.9734 66.03C80.9734 65.327 80.5554 64.871 79.7954 64.871C79.0544 64.871 78.6174 65.327 78.6174 66.03C78.6174 66.714 79.0544 67.17 79.7954 67.17ZM80.6504 78V68.614H78.9024V78H80.6504ZM87.7369 78.19C90.0929 78.19 91.6699 76.974 91.9929 74.675L90.3209 74.371C89.9409 75.948 89.0859 76.651 87.8129 76.651C86.2549 76.651 85.0199 75.72 85.0199 73.345C85.0199 71.084 86.1789 69.963 87.8129 69.963C89.1429 69.963 90.0169 70.59 90.2449 72.11L91.9549 71.749C91.6129 69.507 90.0169 68.424 87.8699 68.424C85.2099 68.424 83.1769 70.134 83.1769 73.326C83.1769 76.575 85.1529 78.19 87.7369 78.19ZM95.1958 67.17C95.9558 67.17 96.3738 66.714 96.3738 66.03C96.3738 65.327 95.9558 64.871 95.1958 64.871C94.4548 64.871 94.0178 65.327 94.0178 66.03C94.0178 66.714 94.4548 67.17 95.1958 67.17ZM96.0508 78V68.614H94.3028V78H96.0508ZM103.213 78.19C105.778 78.19 107.811 76.499 107.811 73.307C107.811 70.096 105.778 68.405 103.213 68.405C100.629 68.405 98.5773 70.096 98.5773 73.307C98.5773 76.499 100.629 78.19 103.213 78.19ZM103.213 76.651C101.541 76.651 100.42 75.435 100.42 73.307C100.42 71.16 101.541 69.963 103.213 69.963C104.885 69.963 105.987 71.16 105.987 73.307C105.987 75.435 104.885 76.651 103.213 76.651ZM111.949 78V72.281C111.949 70.837 112.709 69.963 114.267 69.963C115.692 69.963 116.395 70.818 116.395 72.281V78H118.143V72.167C118.143 69.602 116.965 68.405 114.894 68.405C113.317 68.405 112.272 69.241 111.911 70.989H111.854V68.614H110.201V78H111.949ZM124.637 68.405C122.414 68.405 120.951 69.545 120.609 71.293L122.262 71.844C122.452 70.571 123.402 69.944 124.542 69.944C125.891 69.944 126.746 70.628 126.784 72.186L124.086 72.585C122.148 72.851 120.305 73.478 120.305 75.549C120.305 77.316 121.559 78.19 123.307 78.19C124.979 78.19 126.385 77.202 126.841 75.188H126.879V78H128.532V72.357C128.532 69.735 127.012 68.405 124.637 68.405ZM123.706 76.689C122.775 76.689 122.11 76.309 122.11 75.397C122.11 74.314 123.117 74.048 124.352 73.858L126.803 73.497V73.516C126.803 74.922 125.606 76.689 123.706 76.689ZM132.287 67.17C133.047 67.17 133.465 66.714 133.465 66.03C133.465 65.327 133.047 64.871 132.287 64.871C131.546 64.871 131.109 65.327 131.109 66.03C131.109 66.714 131.546 67.17 132.287 67.17ZM133.142 78V68.614H131.394V78H133.142ZM139.62 78.19C142.033 78.19 143.572 77.088 143.572 75.055C143.572 73.136 141.976 72.756 140.399 72.49L139.031 72.281C138.119 72.129 137.492 71.901 137.492 71.103C137.492 70.248 138.252 69.811 139.297 69.811C140.513 69.811 141.33 70.381 141.482 71.616L143.211 71.236C142.983 69.374 141.349 68.424 139.373 68.424C137.264 68.424 135.706 69.469 135.706 71.236C135.706 72.927 137.074 73.459 138.366 73.687L139.867 73.915C141.064 74.105 141.786 74.352 141.786 75.264C141.786 76.214 141.026 76.784 139.563 76.784C138.252 76.784 137.359 76.138 137.207 74.694L135.402 75.074C135.554 77.145 137.226 78.19 139.62 78.19ZM70.374 101.19C72.084 101.19 73.053 100.221 73.547 98.283H73.585V101H75.314V88.08H73.585V94.141H73.547C73.129 92.108 71.894 91.443 70.241 91.443C68.094 91.443 66.422 93.02 66.422 96.25C66.422 99.518 68.189 101.19 70.374 101.19ZM70.887 99.651C69.367 99.651 68.265 98.53 68.265 96.25C68.265 94.046 69.329 92.963 70.887 92.963C72.464 92.963 73.528 94.065 73.528 96.25C73.528 98.511 72.426 99.651 70.887 99.651ZM86.2727 95.965C86.2727 93.039 84.7717 91.405 82.1877 91.405C79.3377 91.405 77.6847 93.476 77.6847 96.497C77.6847 99.442 79.2427 101.19 82.0927 101.19C84.4107 101.19 85.8547 100.05 86.2157 98.245L84.6007 97.846C84.3537 99.138 83.4417 99.727 82.1307 99.727C80.4017 99.727 79.5277 98.663 79.5087 96.421H86.2537C86.2537 96.326 86.2727 96.269 86.2727 95.965ZM82.1117 92.83C83.5557 92.83 84.3727 93.742 84.4107 95.205H79.6037C79.8697 93.647 80.7437 92.83 82.1117 92.83ZM96.0938 90.873C96.0938 89.6 96.6638 89.258 97.6328 89.258C98.1078 89.258 98.4688 89.334 98.7158 89.429L98.5828 88.061C98.1648 87.928 97.5948 87.89 97.2338 87.89C95.5998 87.89 94.3458 88.84 94.3458 90.797V91.614H92.3508V93.077H94.3458V101H96.0938V93.077H98.6018V91.614H96.0938V90.873ZM102.059 101V96.022C102.059 94.198 103.028 93.172 104.757 93.172C105.099 93.172 105.555 93.21 105.821 93.267L105.726 91.538C105.441 91.462 105.061 91.424 104.738 91.424C103.37 91.424 102.496 92.032 102.002 94.331H101.945V91.614H100.311V101H102.059ZM115.218 95.965C115.218 93.039 113.717 91.405 111.133 91.405C108.283 91.405 106.63 93.476 106.63 96.497C106.63 99.442 108.188 101.19 111.038 101.19C113.356 101.19 114.8 100.05 115.161 98.245L113.546 97.846C113.299 99.138 112.387 99.727 111.076 99.727C109.347 99.727 108.473 98.663 108.454 96.421H115.199C115.199 96.326 115.218 96.269 115.218 95.965ZM111.057 92.83C112.501 92.83 113.318 93.742 113.356 95.205H108.549C108.815 93.647 109.689 92.83 111.057 92.83ZM121.122 99.67C120.324 99.67 119.925 99.423 119.925 98.511V93.077H122.547V91.614H119.925V89.011H118.747C118.595 90.854 118.025 91.614 116.6 92.013V93.077H118.177V98.891C118.177 100.639 119.146 101.19 120.647 101.19C121.312 101.19 121.958 101.095 122.452 100.962L122.68 99.423C122.281 99.537 121.73 99.67 121.122 99.67ZM132.678 95.965C132.678 93.039 131.177 91.405 128.593 91.405C125.743 91.405 124.09 93.476 124.09 96.497C124.09 99.442 125.648 101.19 128.498 101.19C130.816 101.19 132.26 100.05 132.621 98.245L131.006 97.846C130.759 99.138 129.847 99.727 128.536 99.727C126.807 99.727 125.933 98.663 125.914 96.421H132.659C132.659 96.326 132.678 96.269 132.678 95.965ZM128.517 92.83C129.961 92.83 130.778 93.742 130.816 95.205H126.009C126.275 93.647 127.149 92.83 128.517 92.83Z" fill="black"/>
<rect x="396" y="33" width="111" height="101" fill="#FFE0EF"/>
<path d="M421.817 77L417.237 63.4H414.557L409.977 77H412.137L413.137 73.76H418.597L419.617 77H421.817ZM415.877 65.02L418.077 72.1H413.657L415.877 65.02ZM426.827 77.2C428.627 77.2 429.647 76.18 430.167 74.14H430.207V77H432.027V63.4H430.207V69.78H430.167C429.727 67.64 428.427 66.94 426.687 66.94C424.427 66.94 422.667 68.6 422.667 72C422.667 75.44 424.527 77.2 426.827 77.2ZM427.367 75.58C425.767 75.58 424.607 74.4 424.607 72C424.607 69.68 425.727 68.54 427.367 68.54C429.027 68.54 430.147 69.7 430.147 72C430.147 74.38 428.987 75.58 427.367 75.58ZM435.983 65.6C436.783 65.6 437.223 65.12 437.223 64.4C437.223 63.66 436.783 63.18 435.983 63.18C435.203 63.18 434.743 63.66 434.743 64.4C434.743 65.12 435.203 65.6 435.983 65.6ZM436.883 77V67.12H435.043V77H436.883ZM444.342 77.2C446.822 77.2 448.482 75.92 448.822 73.5L447.062 73.18C446.662 74.84 445.762 75.58 444.422 75.58C442.782 75.58 441.482 74.6 441.482 72.1C441.482 69.72 442.702 68.54 444.422 68.54C445.822 68.54 446.742 69.2 446.982 70.8L448.782 70.42C448.422 68.06 446.742 66.92 444.482 66.92C441.682 66.92 439.542 68.72 439.542 72.08C439.542 75.5 441.622 77.2 444.342 77.2ZM452.194 65.6C452.994 65.6 453.434 65.12 453.434 64.4C453.434 63.66 452.994 63.18 452.194 63.18C451.414 63.18 450.954 63.66 450.954 64.4C450.954 65.12 451.414 65.6 452.194 65.6ZM453.094 77V67.12H451.254V77H453.094ZM460.633 77.2C463.333 77.2 465.473 75.42 465.473 72.06C465.473 68.68 463.333 66.9 460.633 66.9C457.913 66.9 455.753 68.68 455.753 72.06C455.753 75.42 457.913 77.2 460.633 77.2ZM460.633 75.58C458.873 75.58 457.693 74.3 457.693 72.06C457.693 69.8 458.873 68.54 460.633 68.54C462.393 68.54 463.553 69.8 463.553 72.06C463.553 74.3 462.393 75.58 460.633 75.58ZM469.829 77V70.98C469.829 69.46 470.629 68.54 472.269 68.54C473.769 68.54 474.509 69.44 474.509 70.98V77H476.349V70.86C476.349 68.16 475.109 66.9 472.929 66.9C471.269 66.9 470.169 67.78 469.789 69.62H469.729V67.12H467.989V77H469.829ZM483.184 66.9C480.844 66.9 479.304 68.1 478.944 69.94L480.684 70.52C480.884 69.18 481.884 68.52 483.084 68.52C484.504 68.52 485.404 69.24 485.444 70.88L482.604 71.3C480.564 71.58 478.624 72.24 478.624 74.42C478.624 76.28 479.944 77.2 481.784 77.2C483.544 77.2 485.024 76.16 485.504 74.04H485.544V77H487.284V71.06C487.284 68.3 485.684 66.9 483.184 66.9ZM482.204 75.62C481.224 75.62 480.524 75.22 480.524 74.26C480.524 73.12 481.584 72.84 482.884 72.64L485.464 72.26V72.28C485.464 73.76 484.204 75.62 482.204 75.62ZM491.997 77V63.4H490.157V77H491.997ZM410.473 105.72V99.04H410.493C410.933 101.48 412.193 102.2 413.933 102.2C416.213 102.2 417.993 100.54 417.993 97.12C417.993 93.68 416.133 91.94 413.813 91.94C412.033 91.94 411.013 92.94 410.493 94.76H410.453V92.12H408.633V105.72H410.473ZM413.293 100.58C411.633 100.58 410.513 99.44 410.513 97.12C410.513 94.74 411.673 93.54 413.293 93.54C414.893 93.54 416.053 94.72 416.053 97.12C416.053 99.44 414.953 100.58 413.293 100.58ZM424.754 102.2C427.454 102.2 429.594 100.42 429.594 97.06C429.594 93.68 427.454 91.9 424.754 91.9C422.034 91.9 419.874 93.68 419.874 97.06C419.874 100.42 422.034 102.2 424.754 102.2ZM424.754 100.58C422.994 100.58 421.814 99.3 421.814 97.06C421.814 94.8 422.994 93.54 424.754 93.54C426.514 93.54 427.674 94.8 427.674 97.06C427.674 99.3 426.514 100.58 424.754 100.58ZM433.95 102V96.76C433.95 94.84 434.97 93.76 436.79 93.76C437.15 93.76 437.63 93.8 437.91 93.86L437.81 92.04C437.51 91.96 437.11 91.92 436.77 91.92C435.33 91.92 434.41 92.56 433.89 94.98H433.83V92.12H432.11V102H433.95ZM446.372 105.72V99.04H446.392C446.832 101.48 448.092 102.2 449.832 102.2C452.112 102.2 453.892 100.54 453.892 97.12C453.892 93.68 452.032 91.94 449.712 91.94C447.932 91.94 446.912 92.94 446.392 94.76H446.352V92.12H444.532V105.72H446.372ZM449.192 100.58C447.532 100.58 446.412 99.44 446.412 97.12C446.412 94.74 447.572 93.54 449.192 93.54C450.792 93.54 451.952 94.72 451.952 97.12C451.952 99.44 450.852 100.58 449.192 100.58ZM458.227 102V96.76C458.227 94.84 459.247 93.76 461.067 93.76C461.427 93.76 461.907 93.8 462.187 93.86L462.087 92.04C461.787 91.96 461.387 91.92 461.047 91.92C459.607 91.92 458.687 92.56 458.167 94.98H458.107V92.12H456.387V102H458.227ZM472.079 96.7C472.079 93.62 470.499 91.9 467.779 91.9C464.779 91.9 463.039 94.08 463.039 97.26C463.039 100.36 464.679 102.2 467.679 102.2C470.119 102.2 471.639 101 472.019 99.1L470.319 98.68C470.059 100.04 469.099 100.66 467.719 100.66C465.899 100.66 464.979 99.54 464.959 97.18H472.059C472.059 97.08 472.079 97.02 472.079 96.7ZM467.699 93.4C469.219 93.4 470.079 94.36 470.119 95.9H465.059C465.339 94.26 466.259 93.4 467.699 93.4ZM481.613 98.18C481.213 99.84 480.313 100.58 478.973 100.58C477.333 100.58 476.033 99.6 476.033 97.1C476.033 94.72 477.253 93.54 478.973 93.54C480.373 93.54 481.293 94.2 481.533 95.8L483.333 95.42C482.973 93.06 481.293 91.92 479.033 91.92C476.233 91.92 474.093 93.72 474.093 97.08C474.093 100.16 475.773 101.84 478.093 102.14L477.573 104.16H478.733C479.613 104.16 480.013 104.34 480.013 104.74C480.013 105.22 479.533 105.44 478.913 105.44C478.133 105.44 477.393 105.16 476.933 104.88L476.473 106.1C476.913 106.36 477.813 106.66 478.833 106.66C480.413 106.66 481.433 105.9 481.433 104.7C481.433 103.52 480.493 103.14 479.033 103.12L479.273 102.18C481.553 102.06 483.053 100.8 483.373 98.5L481.613 98.18ZM489.891 102.2C492.591 102.2 494.731 100.42 494.731 97.06C494.731 93.68 492.591 91.9 489.891 91.9C487.171 91.9 485.011 93.68 485.011 97.06C485.011 100.42 487.171 102.2 489.891 102.2ZM489.891 100.58C488.131 100.58 486.951 99.3 486.951 97.06C486.951 94.8 488.131 93.54 489.891 93.54C491.651 93.54 492.811 94.8 492.811 97.06C492.811 99.3 491.651 100.58 489.891 100.58Z" fill="black"/>
<rect x="225" y="33" width="111" height="101" fill="#FFE0EF"/>
<path d="M250.817 77L246.237 63.4H243.557L238.977 77H241.137L242.137 73.76H247.597L248.617 77H250.817ZM244.877 65.02L247.077 72.1H242.657L244.877 65.02ZM255.827 77.2C257.627 77.2 258.647 76.18 259.167 74.14H259.207V77H261.027V63.4H259.207V69.78H259.167C258.727 67.64 257.427 66.94 255.687 66.94C253.427 66.94 251.667 68.6 251.667 72C251.667 75.44 253.527 77.2 255.827 77.2ZM256.367 75.58C254.767 75.58 253.607 74.4 253.607 72C253.607 69.68 254.727 68.54 256.367 68.54C258.027 68.54 259.147 69.7 259.147 72C259.147 74.38 257.987 75.58 256.367 75.58ZM264.983 65.6C265.783 65.6 266.223 65.12 266.223 64.4C266.223 63.66 265.783 63.18 264.983 63.18C264.203 63.18 263.743 63.66 263.743 64.4C263.743 65.12 264.203 65.6 264.983 65.6ZM265.883 77V67.12H264.043V77H265.883ZM273.342 77.2C275.822 77.2 277.482 75.92 277.822 73.5L276.062 73.18C275.662 74.84 274.762 75.58 273.422 75.58C271.782 75.58 270.482 74.6 270.482 72.1C270.482 69.72 271.702 68.54 273.422 68.54C274.822 68.54 275.742 69.2 275.982 70.8L277.782 70.42C277.422 68.06 275.742 66.92 273.482 66.92C270.682 66.92 268.542 68.72 268.542 72.08C268.542 75.5 270.622 77.2 273.342 77.2ZM281.194 65.6C281.994 65.6 282.434 65.12 282.434 64.4C282.434 63.66 281.994 63.18 281.194 63.18C280.414 63.18 279.954 63.66 279.954 64.4C279.954 65.12 280.414 65.6 281.194 65.6ZM282.094 77V67.12H280.254V77H282.094ZM289.633 77.2C292.333 77.2 294.473 75.42 294.473 72.06C294.473 68.68 292.333 66.9 289.633 66.9C286.913 66.9 284.753 68.68 284.753 72.06C284.753 75.42 286.913 77.2 289.633 77.2ZM289.633 75.58C287.873 75.58 286.693 74.3 286.693 72.06C286.693 69.8 287.873 68.54 289.633 68.54C291.393 68.54 292.553 69.8 292.553 72.06C292.553 74.3 291.393 75.58 289.633 75.58ZM298.829 77V70.98C298.829 69.46 299.629 68.54 301.269 68.54C302.769 68.54 303.509 69.44 303.509 70.98V77H305.349V70.86C305.349 68.16 304.109 66.9 301.929 66.9C300.269 66.9 299.169 67.78 298.789 69.62H298.729V67.12H296.989V77H298.829ZM312.184 66.9C309.844 66.9 308.304 68.1 307.944 69.94L309.684 70.52C309.884 69.18 310.884 68.52 312.084 68.52C313.504 68.52 314.404 69.24 314.444 70.88L311.604 71.3C309.564 71.58 307.624 72.24 307.624 74.42C307.624 76.28 308.944 77.2 310.784 77.2C312.544 77.2 314.024 76.16 314.504 74.04H314.544V77H316.284V71.06C316.284 68.3 314.684 66.9 312.184 66.9ZM311.204 75.62C310.224 75.62 309.524 75.22 309.524 74.26C309.524 73.12 310.584 72.84 311.884 72.64L314.464 72.26V72.28C314.464 73.76 313.204 75.62 311.204 75.62ZM320.997 77V63.4H319.157V77H320.997ZM243.585 105.72V99.04H243.605C244.045 101.48 245.305 102.2 247.045 102.2C249.325 102.2 251.105 100.54 251.105 97.12C251.105 93.68 249.245 91.94 246.925 91.94C245.145 91.94 244.125 92.94 243.605 94.76H243.565V92.12H241.745V105.72H243.585ZM246.405 100.58C244.745 100.58 243.625 99.44 243.625 97.12C243.625 94.74 244.785 93.54 246.405 93.54C248.005 93.54 249.165 94.72 249.165 97.12C249.165 99.44 248.065 100.58 246.405 100.58ZM257.866 102.2C260.566 102.2 262.706 100.42 262.706 97.06C262.706 93.68 260.566 91.9 257.866 91.9C255.146 91.9 252.986 93.68 252.986 97.06C252.986 100.42 255.146 102.2 257.866 102.2ZM257.866 100.58C256.106 100.58 254.926 99.3 254.926 97.06C254.926 94.8 256.106 93.54 257.866 93.54C259.626 93.54 260.786 94.8 260.786 97.06C260.786 99.3 259.626 100.58 257.866 100.58ZM267.061 102V96.76C267.061 94.84 268.081 93.76 269.901 93.76C270.261 93.76 270.741 93.8 271.021 93.86L270.921 92.04C270.621 91.96 270.221 91.92 269.881 91.92C268.441 91.92 267.521 92.56 267.001 94.98H266.941V92.12H265.221V102H267.061ZM279.483 105.72V99.04H279.503C279.943 101.48 281.203 102.2 282.943 102.2C285.223 102.2 287.003 100.54 287.003 97.12C287.003 93.68 285.143 91.94 282.823 91.94C281.043 91.94 280.023 92.94 279.503 94.76H279.463V92.12H277.643V105.72H279.483ZM282.303 100.58C280.643 100.58 279.523 99.44 279.523 97.12C279.523 94.74 280.683 93.54 282.303 93.54C283.903 93.54 285.063 94.72 285.063 97.12C285.063 99.44 283.963 100.58 282.303 100.58ZM297.924 96.7C297.924 93.62 296.344 91.9 293.624 91.9C290.624 91.9 288.884 94.08 288.884 97.26C288.884 100.36 290.524 102.2 293.524 102.2C295.964 102.2 297.484 101 297.864 99.1L296.164 98.68C295.904 100.04 294.944 100.66 293.564 100.66C291.744 100.66 290.824 99.54 290.804 97.18H297.904C297.904 97.08 297.924 97.02 297.924 96.7ZM293.544 93.4C295.064 93.4 295.924 94.36 295.964 95.9H290.904C291.184 94.26 292.104 93.4 293.544 93.4ZM304.099 102.2C306.639 102.2 308.259 101.04 308.259 98.9C308.259 96.88 306.579 96.48 304.919 96.2L303.479 95.98C302.519 95.82 301.859 95.58 301.859 94.74C301.859 93.84 302.659 93.38 303.759 93.38C305.039 93.38 305.899 93.98 306.059 95.28L307.879 94.88C307.639 92.92 305.919 91.92 303.839 91.92C301.619 91.92 299.979 93.02 299.979 94.88C299.979 96.66 301.419 97.22 302.779 97.46L304.359 97.7C305.619 97.9 306.379 98.16 306.379 99.12C306.379 100.12 305.579 100.72 304.039 100.72C302.659 100.72 301.719 100.04 301.559 98.52L299.659 98.92C299.819 101.1 301.579 102.2 304.099 102.2ZM314.78 102.2C317.48 102.2 319.62 100.42 319.62 97.06C319.62 93.68 317.48 91.9 314.78 91.9C312.06 91.9 309.9 93.68 309.9 97.06C309.9 100.42 312.06 102.2 314.78 102.2ZM314.78 100.58C313.02 100.58 311.84 99.3 311.84 97.06C311.84 94.8 313.02 93.54 314.78 93.54C316.54 93.54 317.7 94.8 317.7 97.06C317.7 99.3 316.54 100.58 314.78 100.58Z" fill="black"/>
<rect x="748" y="33" width="111" height="101" fill="#FFE0EF"/>
<path d="M773.817 77L769.237 63.4H766.557L761.977 77H764.137L765.137 73.76H770.597L771.617 77H773.817ZM767.877 65.02L770.077 72.1H765.657L767.877 65.02ZM778.827 77.2C780.627 77.2 781.647 76.18 782.167 74.14H782.207V77H784.027V63.4H782.207V69.78H782.167C781.727 67.64 780.427 66.94 778.687 66.94C776.427 66.94 774.667 68.6 774.667 72C774.667 75.44 776.527 77.2 778.827 77.2ZM779.367 75.58C777.767 75.58 776.607 74.4 776.607 72C776.607 69.68 777.727 68.54 779.367 68.54C781.027 68.54 782.147 69.7 782.147 72C782.147 74.38 780.987 75.58 779.367 75.58ZM787.983 65.6C788.783 65.6 789.223 65.12 789.223 64.4C789.223 63.66 788.783 63.18 787.983 63.18C787.203 63.18 786.743 63.66 786.743 64.4C786.743 65.12 787.203 65.6 787.983 65.6ZM788.883 77V67.12H787.043V77H788.883ZM796.342 77.2C798.822 77.2 800.482 75.92 800.822 73.5L799.062 73.18C798.662 74.84 797.762 75.58 796.422 75.58C794.782 75.58 793.482 74.6 793.482 72.1C793.482 69.72 794.702 68.54 796.422 68.54C797.822 68.54 798.742 69.2 798.982 70.8L800.782 70.42C800.422 68.06 798.742 66.92 796.482 66.92C793.682 66.92 791.542 68.72 791.542 72.08C791.542 75.5 793.622 77.2 796.342 77.2ZM804.194 65.6C804.994 65.6 805.434 65.12 805.434 64.4C805.434 63.66 804.994 63.18 804.194 63.18C803.414 63.18 802.954 63.66 802.954 64.4C802.954 65.12 803.414 65.6 804.194 65.6ZM805.094 77V67.12H803.254V77H805.094ZM812.633 77.2C815.333 77.2 817.473 75.42 817.473 72.06C817.473 68.68 815.333 66.9 812.633 66.9C809.913 66.9 807.753 68.68 807.753 72.06C807.753 75.42 809.913 77.2 812.633 77.2ZM812.633 75.58C810.873 75.58 809.693 74.3 809.693 72.06C809.693 69.8 810.873 68.54 812.633 68.54C814.393 68.54 815.553 69.8 815.553 72.06C815.553 74.3 814.393 75.58 812.633 75.58ZM821.829 77V70.98C821.829 69.46 822.629 68.54 824.269 68.54C825.769 68.54 826.509 69.44 826.509 70.98V77H828.349V70.86C828.349 68.16 827.109 66.9 824.929 66.9C823.269 66.9 822.169 67.78 821.789 69.62H821.729V67.12H819.989V77H821.829ZM835.184 66.9C832.844 66.9 831.304 68.1 830.944 69.94L832.684 70.52C832.884 69.18 833.884 68.52 835.084 68.52C836.504 68.52 837.404 69.24 837.444 70.88L834.604 71.3C832.564 71.58 830.624 72.24 830.624 74.42C830.624 76.28 831.944 77.2 833.784 77.2C835.544 77.2 837.024 76.16 837.504 74.04H837.544V77H839.284V71.06C839.284 68.3 837.684 66.9 835.184 66.9ZM834.204 75.62C833.224 75.62 832.524 75.22 832.524 74.26C832.524 73.12 833.584 72.84 834.884 72.64L837.464 72.26V72.28C837.464 73.76 836.204 75.62 834.204 75.62ZM843.997 77V63.4H842.157V77H843.997ZM772.841 102.2C774.641 102.2 775.661 101.18 776.181 99.14H776.221V102H778.041V88.4H776.221V94.78H776.181C775.741 92.64 774.441 91.94 772.701 91.94C770.441 91.94 768.681 93.6 768.681 97C768.681 100.44 770.541 102.2 772.841 102.2ZM773.381 100.58C771.781 100.58 770.621 99.4 770.621 97C770.621 94.68 771.741 93.54 773.381 93.54C775.041 93.54 776.161 94.7 776.161 97C776.161 99.38 775.001 100.58 773.381 100.58ZM789.577 96.7C789.577 93.62 787.997 91.9 785.277 91.9C782.277 91.9 780.537 94.08 780.537 97.26C780.537 100.36 782.177 102.2 785.177 102.2C787.617 102.2 789.137 101 789.517 99.1L787.817 98.68C787.557 100.04 786.597 100.66 785.217 100.66C783.397 100.66 782.477 99.54 782.457 97.18H789.557C789.557 97.08 789.577 97.02 789.577 96.7ZM785.197 93.4C786.717 93.4 787.577 94.36 787.617 95.9H782.557C782.837 94.26 783.757 93.4 785.197 93.4ZM799.915 91.34C799.915 90 800.515 89.64 801.535 89.64C802.035 89.64 802.415 89.72 802.675 89.82L802.535 88.38C802.095 88.24 801.495 88.2 801.115 88.2C799.395 88.2 798.075 89.2 798.075 91.26V92.12H795.975V93.66H798.075V102H799.915V93.66H802.555V92.12H799.915V91.34ZM806.194 102V96.76C806.194 94.84 807.214 93.76 809.034 93.76C809.394 93.76 809.874 93.8 810.154 93.86L810.054 92.04C809.754 91.96 809.354 91.92 809.014 91.92C807.574 91.92 806.654 92.56 806.134 94.98H806.074V92.12H804.354V102H806.194ZM820.045 96.7C820.045 93.62 818.465 91.9 815.745 91.9C812.745 91.9 811.005 94.08 811.005 97.26C811.005 100.36 812.645 102.2 815.645 102.2C818.085 102.2 819.605 101 819.985 99.1L818.285 98.68C818.025 100.04 817.065 100.66 815.685 100.66C813.865 100.66 812.945 99.54 812.925 97.18H820.025C820.025 97.08 820.045 97.02 820.045 96.7ZM815.665 93.4C817.185 93.4 818.045 94.36 818.085 95.9H813.025C813.305 94.26 814.225 93.4 815.665 93.4ZM826.26 100.6C825.42 100.6 825 100.34 825 99.38V93.66H827.76V92.12H825V89.38H823.76C823.6 91.32 823 92.12 821.5 92.54V93.66H823.16V99.78C823.16 101.62 824.18 102.2 825.76 102.2C826.46 102.2 827.14 102.1 827.66 101.96L827.9 100.34C827.48 100.46 826.9 100.6 826.26 100.6ZM838.424 96.7C838.424 93.62 836.844 91.9 834.124 91.9C831.124 91.9 829.384 94.08 829.384 97.26C829.384 100.36 831.024 102.2 834.024 102.2C836.464 102.2 837.984 101 838.364 99.1L836.664 98.68C836.404 100.04 835.444 100.66 834.064 100.66C832.244 100.66 831.324 99.54 831.304 97.18H838.404C838.404 97.08 838.424 97.02 838.424 96.7ZM834.044 93.4C835.564 93.4 836.424 94.36 836.464 95.9H831.404C831.684 94.26 832.604 93.4 834.044 93.4Z" fill="black"/>
<rect x="572" y="33" width="111" height="101" fill="#FFE0EF"/>
<path d="M597.817 77L593.237 63.4H590.557L585.977 77H588.137L589.137 73.76H594.597L595.617 77H597.817ZM591.877 65.02L594.077 72.1H589.657L591.877 65.02ZM602.827 77.2C604.627 77.2 605.647 76.18 606.167 74.14H606.207V77H608.027V63.4H606.207V69.78H606.167C605.727 67.64 604.427 66.94 602.687 66.94C600.427 66.94 598.667 68.6 598.667 72C598.667 75.44 600.527 77.2 602.827 77.2ZM603.367 75.58C601.767 75.58 600.607 74.4 600.607 72C600.607 69.68 601.727 68.54 603.367 68.54C605.027 68.54 606.147 69.7 606.147 72C606.147 74.38 604.987 75.58 603.367 75.58ZM611.983 65.6C612.783 65.6 613.223 65.12 613.223 64.4C613.223 63.66 612.783 63.18 611.983 63.18C611.203 63.18 610.743 63.66 610.743 64.4C610.743 65.12 611.203 65.6 611.983 65.6ZM612.883 77V67.12H611.043V77H612.883ZM620.342 77.2C622.822 77.2 624.482 75.92 624.822 73.5L623.062 73.18C622.662 74.84 621.762 75.58 620.422 75.58C618.782 75.58 617.482 74.6 617.482 72.1C617.482 69.72 618.702 68.54 620.422 68.54C621.822 68.54 622.742 69.2 622.982 70.8L624.782 70.42C624.422 68.06 622.742 66.92 620.482 66.92C617.682 66.92 615.542 68.72 615.542 72.08C615.542 75.5 617.622 77.2 620.342 77.2ZM628.194 65.6C628.994 65.6 629.434 65.12 629.434 64.4C629.434 63.66 628.994 63.18 628.194 63.18C627.414 63.18 626.954 63.66 626.954 64.4C626.954 65.12 627.414 65.6 628.194 65.6ZM629.094 77V67.12H627.254V77H629.094ZM636.633 77.2C639.333 77.2 641.473 75.42 641.473 72.06C641.473 68.68 639.333 66.9 636.633 66.9C633.913 66.9 631.753 68.68 631.753 72.06C631.753 75.42 633.913 77.2 636.633 77.2ZM636.633 75.58C634.873 75.58 633.693 74.3 633.693 72.06C633.693 69.8 634.873 68.54 636.633 68.54C638.393 68.54 639.553 69.8 639.553 72.06C639.553 74.3 638.393 75.58 636.633 75.58ZM645.829 77V70.98C645.829 69.46 646.629 68.54 648.269 68.54C649.769 68.54 650.509 69.44 650.509 70.98V77H652.349V70.86C652.349 68.16 651.109 66.9 648.929 66.9C647.269 66.9 646.169 67.78 645.789 69.62H645.729V67.12H643.989V77H645.829ZM659.184 66.9C656.844 66.9 655.304 68.1 654.944 69.94L656.684 70.52C656.884 69.18 657.884 68.52 659.084 68.52C660.504 68.52 661.404 69.24 661.444 70.88L658.604 71.3C656.564 71.58 654.624 72.24 654.624 74.42C654.624 76.28 655.944 77.2 657.784 77.2C659.544 77.2 661.024 76.16 661.504 74.04H661.544V77H663.284V71.06C663.284 68.3 661.684 66.9 659.184 66.9ZM658.204 75.62C657.224 75.62 656.524 75.22 656.524 74.26C656.524 73.12 657.584 72.84 658.884 72.64L661.464 72.26V72.28C661.464 73.76 660.204 75.62 658.204 75.62ZM667.997 77V63.4H666.157V77H667.997ZM588.101 102.2C589.901 102.2 590.921 101.18 591.441 99.14H591.481V102H593.301V88.4H591.481V94.78H591.441C591.001 92.64 589.701 91.94 587.961 91.94C585.701 91.94 583.941 93.6 583.941 97C583.941 100.44 585.801 102.2 588.101 102.2ZM588.641 100.58C587.041 100.58 585.881 99.4 585.881 97C585.881 94.68 587.001 93.54 588.641 93.54C590.301 93.54 591.421 94.7 591.421 97C591.421 99.38 590.261 100.58 588.641 100.58ZM604.836 96.7C604.836 93.62 603.256 91.9 600.536 91.9C597.536 91.9 595.796 94.08 595.796 97.26C595.796 100.36 597.436 102.2 600.436 102.2C602.876 102.2 604.396 101 604.776 99.1L603.076 98.68C602.816 100.04 601.856 100.66 600.476 100.66C598.656 100.66 597.736 99.54 597.716 97.18H604.816C604.816 97.08 604.836 97.02 604.836 96.7ZM600.456 93.4C601.976 93.4 602.836 94.36 602.876 95.9H597.816C598.096 94.26 599.016 93.4 600.456 93.4ZM615.874 102.2C618.414 102.2 620.034 101.04 620.034 98.9C620.034 96.88 618.354 96.48 616.694 96.2L615.254 95.98C614.294 95.82 613.634 95.58 613.634 94.74C613.634 93.84 614.434 93.38 615.534 93.38C616.814 93.38 617.674 93.98 617.834 95.28L619.654 94.88C619.414 92.92 617.694 91.92 615.614 91.92C613.394 91.92 611.754 93.02 611.754 94.88C611.754 96.66 613.194 97.22 614.554 97.46L616.134 97.7C617.394 97.9 618.154 98.16 618.154 99.12C618.154 100.12 617.354 100.72 615.814 100.72C614.434 100.72 613.494 100.04 613.334 98.52L611.434 98.92C611.594 101.1 613.354 102.2 615.874 102.2ZM630.715 96.7C630.715 93.62 629.135 91.9 626.415 91.9C623.415 91.9 621.675 94.08 621.675 97.26C621.675 100.36 623.315 102.2 626.315 102.2C628.755 102.2 630.275 101 630.655 99.1L628.955 98.68C628.695 100.04 627.735 100.66 626.355 100.66C624.535 100.66 623.615 99.54 623.595 97.18H630.695C630.695 97.08 630.715 97.02 630.715 96.7ZM626.335 93.4C627.855 93.4 628.715 94.36 628.755 95.9H623.695C623.975 94.26 624.895 93.4 626.335 93.4ZM638.436 99.92C637.496 99.92 636.056 100.02 635.416 100.02C634.716 100 634.476 99.78 634.476 99.38C634.476 98.98 634.736 98.62 635.516 98.52C635.876 98.58 636.276 98.62 636.676 98.62C638.896 98.62 640.536 97.42 640.536 95.44C640.536 94.38 639.936 93.38 637.896 92.94L637.916 92.9C639.816 92.9 640.516 93.16 641.016 93.74H641.476V92.12H637.296C633.896 92.12 632.616 93.66 632.616 95.36C632.616 97.04 633.636 98.04 635.096 98.42C633.576 98.5 632.796 99.14 632.796 100.04C632.796 100.74 633.176 101.18 633.856 101.42C634.056 101.48 634.276 101.52 634.516 101.56C632.716 101.78 631.936 102.46 631.936 103.56C631.936 105.14 633.576 105.9 636.636 105.9C639.716 105.9 641.936 104.76 641.936 102.48C641.936 100.72 640.776 99.94 638.436 99.92ZM634.516 95.38C634.516 94.24 635.236 93.58 636.616 93.58C637.996 93.58 638.676 94.24 638.676 95.38C638.676 96.52 637.996 97.18 636.616 97.18C635.236 97.18 634.516 96.52 634.516 95.38ZM636.716 104.34C634.896 104.34 633.796 103.88 633.796 102.86C633.796 102.2 634.316 101.76 635.216 101.6H635.296C636.156 101.62 637.276 101.54 638.136 101.56C639.496 101.56 640.036 101.96 640.036 102.72C640.036 103.8 638.656 104.34 636.716 104.34ZM649.977 92.12V98.14C649.977 99.66 649.157 100.58 647.517 100.58C646.017 100.58 645.277 99.68 645.277 98.14V92.12H643.437V98.26C643.437 100.96 644.677 102.24 646.857 102.24C648.537 102.24 649.617 101.34 650.017 99.52H650.057V102H651.797V92.12H649.977ZM656.512 102V96.76C656.512 94.84 657.532 93.76 659.352 93.76C659.712 93.76 660.192 93.8 660.472 93.86L660.372 92.04C660.072 91.96 659.672 91.92 659.332 91.92C657.892 91.92 656.972 92.56 656.452 94.98H656.392V92.12H654.672V102H656.512ZM666.204 102.2C668.904 102.2 671.044 100.42 671.044 97.06C671.044 93.68 668.904 91.9 666.204 91.9C663.484 91.9 661.324 93.68 661.324 97.06C661.324 100.42 663.484 102.2 666.204 102.2ZM666.204 100.58C664.444 100.58 663.264 99.3 663.264 97.06C663.264 94.8 664.444 93.54 666.204 93.54C667.964 93.54 669.124 94.8 669.124 97.06C669.124 99.3 667.964 100.58 666.204 100.58Z" fill="black"/>
<path d="M195.781 83.1016H179.492V79.957H195.781V83.1016ZM195.781 91.207H179.492V88.082H195.781V91.207Z" fill="black"/>
<path d="M365.238 82.7461H373.168V86.1641H365.238V95.1484H361.605V86.1641H353.676V82.7461H361.605V74.4453H365.238V82.7461Z" fill="black"/>
<path d="M546.238 82.7461H554.168V86.1641H546.238V95.1484H542.605V86.1641H534.676V82.7461H542.605V74.4453H546.238V82.7461Z" fill="black"/>
<path d="M717.238 82.7461H725.168V86.1641H717.238V95.1484H713.605V86.1641H705.676V82.7461H713.605V74.4453H717.238V82.7461Z" fill="black"/>
</svg>
