<svg width="800" height="527" viewBox="0 0 800 527" fill="none" xmlns="http://www.w3.org/2000/svg">
<rect width="800" height="527" fill="white"/>
<rect x="85" y="55" width="129" height="103" fill="#FFE0EF"/>
<path d="M105.105 100.22C108.225 100.22 110.645 98.36 111.065 94.94L109.085 94.48C108.785 97.16 107.265 98.44 105.145 98.44C102.625 98.44 100.965 96.5 100.965 93.22C100.965 89.92 102.605 88 105.165 88C107.245 88 108.605 89.16 109.045 91.6L111.025 91.18C110.485 88.02 108.245 86.22 105.265 86.22C101.525 86.22 98.9454 88.72 98.9454 93.22C98.9454 97.7 101.485 100.22 105.105 100.22ZM119.321 90.12V96.14C119.321 97.66 118.501 98.58 116.861 98.58C115.361 98.58 114.621 97.68 114.621 96.14V90.12H112.781V96.26C112.781 98.96 114.021 100.24 116.201 100.24C117.881 100.24 118.961 99.34 119.361 97.52H119.401V100H121.141V90.12H119.321ZM127.796 100.2C130.336 100.2 131.956 99.04 131.956 96.9C131.956 94.88 130.276 94.48 128.616 94.2L127.176 93.98C126.216 93.82 125.556 93.58 125.556 92.74C125.556 91.84 126.356 91.38 127.456 91.38C128.736 91.38 129.596 91.98 129.756 93.28L131.576 92.88C131.336 90.92 129.616 89.92 127.536 89.92C125.316 89.92 123.676 91.02 123.676 92.88C123.676 94.66 125.116 95.22 126.476 95.46L128.056 95.7C129.316 95.9 130.076 96.16 130.076 97.12C130.076 98.12 129.276 98.72 127.736 98.72C126.356 98.72 125.416 98.04 125.256 96.52L123.356 96.92C123.516 99.1 125.276 100.2 127.796 100.2ZM137.895 98.6C137.055 98.6 136.635 98.34 136.635 97.38V91.66H139.395V90.12H136.635V87.38H135.395C135.235 89.32 134.635 90.12 133.135 90.54V91.66H134.795V97.78C134.795 99.62 135.815 100.2 137.395 100.2C138.095 100.2 138.775 100.1 139.295 99.96L139.535 98.34C139.115 98.46 138.535 98.6 137.895 98.6ZM145.899 100.2C148.599 100.2 150.739 98.42 150.739 95.06C150.739 91.68 148.599 89.9 145.899 89.9C143.179 89.9 141.019 91.68 141.019 95.06C141.019 98.42 143.179 100.2 145.899 100.2ZM145.899 98.58C144.139 98.58 142.959 97.3 142.959 95.06C142.959 92.8 144.139 91.54 145.899 91.54C147.659 91.54 148.819 92.8 148.819 95.06C148.819 97.3 147.659 98.58 145.899 98.58ZM166.738 86.18C165.938 86.18 165.478 86.66 165.478 87.4C165.478 88.12 165.938 88.6 166.738 88.6C167.518 88.6 167.958 88.12 167.958 87.4C167.958 86.66 167.518 86.18 166.738 86.18ZM162.818 87.64C163.318 87.64 163.698 87.72 163.958 87.82L163.818 86.38C163.378 86.24 162.778 86.2 162.398 86.2C160.678 86.2 159.358 87.2 159.358 89.26V90.12H157.258V91.66H159.358V100H161.198V91.66H163.838V90.12H161.198V89.34C161.198 88 161.798 87.64 162.818 87.64ZM167.618 100V90.12H165.798V100H167.618ZM172.497 100V93.98C172.497 92.46 173.297 91.54 174.937 91.54C176.437 91.54 177.177 92.44 177.177 93.98V100H179.017V93.86C179.017 91.16 177.777 89.9 175.597 89.9C173.937 89.9 172.837 90.78 172.457 92.62H172.397V90.12H170.657V100H172.497ZM185.852 89.9C183.512 89.9 181.972 91.1 181.612 92.94L183.352 93.52C183.552 92.18 184.552 91.52 185.752 91.52C187.172 91.52 188.072 92.24 188.112 93.88L185.272 94.3C183.232 94.58 181.292 95.24 181.292 97.42C181.292 99.28 182.612 100.2 184.452 100.2C186.212 100.2 187.692 99.16 188.172 97.04H188.212V100H189.952V94.06C189.952 91.3 188.352 89.9 185.852 89.9ZM184.872 98.62C183.892 98.62 183.192 98.22 183.192 97.26C183.192 96.12 184.252 95.84 185.552 95.64L188.132 95.26V95.28C188.132 96.76 186.872 98.62 184.872 98.62ZM194.665 100V86.4H192.825V100H194.665ZM115.814 125.2C117.614 125.2 118.634 124.18 119.154 122.14H119.194V125H121.014V111.4H119.194V117.78H119.154C118.714 115.64 117.414 114.94 115.674 114.94C113.414 114.94 111.654 116.6 111.654 120C111.654 123.44 113.514 125.2 115.814 125.2ZM116.354 123.58C114.754 123.58 113.594 122.4 113.594 120C113.594 117.68 114.714 116.54 116.354 116.54C118.014 116.54 119.134 117.7 119.134 120C119.134 122.38 117.974 123.58 116.354 123.58ZM128.389 125.2C131.089 125.2 133.229 123.42 133.229 120.06C133.229 116.68 131.089 114.9 128.389 114.9C125.669 114.9 123.509 116.68 123.509 120.06C123.509 123.42 125.669 125.2 128.389 125.2ZM128.389 123.58C126.629 123.58 125.449 122.3 125.449 120.06C125.449 117.8 126.629 116.54 128.389 116.54C130.149 116.54 131.309 117.8 131.309 120.06C131.309 122.3 130.149 123.58 128.389 123.58ZM149.268 119.7C149.268 116.62 147.688 114.9 144.968 114.9C141.968 114.9 140.228 117.08 140.228 120.26C140.228 123.36 141.868 125.2 144.868 125.2C147.308 125.2 148.828 124 149.208 122.1L147.508 121.68C147.248 123.04 146.288 123.66 144.908 123.66C143.088 123.66 142.168 122.54 142.148 120.18H149.248C149.248 120.08 149.268 120.02 149.268 119.7ZM144.888 116.4C146.408 116.4 147.268 117.36 147.308 118.9H142.248C142.528 117.26 143.448 116.4 144.888 116.4ZM153.503 125V118.98C153.503 117.46 154.303 116.54 155.943 116.54C157.443 116.54 158.183 117.44 158.183 118.98V125H160.023V118.86C160.023 116.16 158.783 114.9 156.603 114.9C154.943 114.9 153.843 115.78 153.463 117.62H153.403V115.12H151.663V125H153.503ZM166.323 123.78L163.643 115.12H161.543L164.823 125H167.723L171.023 115.12H169.043L166.323 123.78ZM174.051 113.6C174.851 113.6 175.291 113.12 175.291 112.4C175.291 111.66 174.851 111.18 174.051 111.18C173.271 111.18 172.811 111.66 172.811 112.4C172.811 113.12 173.271 113.6 174.051 113.6ZM174.951 125V115.12H173.111V125H174.951ZM182.491 125.2C185.191 125.2 187.331 123.42 187.331 120.06C187.331 116.68 185.191 114.9 182.491 114.9C179.771 114.9 177.611 116.68 177.611 120.06C177.611 123.42 179.771 125.2 182.491 125.2ZM182.491 123.58C180.731 123.58 179.551 122.3 179.551 120.06C179.551 117.8 180.731 116.54 182.491 116.54C184.251 116.54 185.411 117.8 185.411 120.06C185.411 122.3 184.251 123.58 182.491 123.58Z" fill="black"/>
<rect x="297" y="55" width="128" height="103" fill="#FFE0EF"/>
<rect x="297" y="55" width="128" height="103" fill="#FFE0EF"/>
<rect x="225" y="233" width="114" height="92" fill="#E7E9EE"/>
<path d="M249.303 273.08H239.347V274.657H243.394V286H245.275V274.657H249.303V273.08ZM253.857 276.405C251.634 276.405 250.171 277.545 249.829 279.293L251.482 279.844C251.672 278.571 252.622 277.944 253.762 277.944C255.111 277.944 255.966 278.628 256.004 280.186L253.306 280.585C251.368 280.851 249.525 281.478 249.525 283.549C249.525 285.316 250.779 286.19 252.527 286.19C254.199 286.19 255.605 285.202 256.061 283.188H256.099V286H257.752V280.357C257.752 277.735 256.232 276.405 253.857 276.405ZM252.926 284.689C251.995 284.689 251.33 284.309 251.33 283.397C251.33 282.314 252.337 282.048 253.572 281.858L256.023 281.497V281.516C256.023 282.922 254.826 284.689 252.926 284.689ZM262.229 286V281.022C262.229 279.198 263.198 278.172 264.927 278.172C265.269 278.172 265.725 278.21 265.991 278.267L265.896 276.538C265.611 276.462 265.231 276.424 264.908 276.424C263.54 276.424 262.666 277.032 262.172 279.331H262.115V276.614H260.481V286H262.229ZM268.539 275.17C269.299 275.17 269.717 274.714 269.717 274.03C269.717 273.327 269.299 272.871 268.539 272.871C267.798 272.871 267.361 273.327 267.361 274.03C267.361 274.714 267.798 275.17 268.539 275.17ZM269.394 286V276.614H267.646V286H269.394ZM275.208 275.873C275.208 274.6 275.778 274.258 276.747 274.258C277.222 274.258 277.583 274.334 277.83 274.429L277.697 273.061C277.279 272.928 276.709 272.89 276.348 272.89C274.714 272.89 273.46 273.84 273.46 275.797V276.614H271.465V278.077H273.46V286H275.208V278.077H277.716V276.614H275.208V275.873ZM283.396 276.405C281.173 276.405 279.71 277.545 279.368 279.293L281.021 279.844C281.211 278.571 282.161 277.944 283.301 277.944C284.65 277.944 285.505 278.628 285.543 280.186L282.845 280.585C280.907 280.851 279.064 281.478 279.064 283.549C279.064 285.316 280.318 286.19 282.066 286.19C283.738 286.19 285.144 285.202 285.6 283.188H285.638V286H287.291V280.357C287.291 277.735 285.771 276.405 283.396 276.405ZM282.465 284.689C281.534 284.689 280.869 284.309 280.869 283.397C280.869 282.314 281.876 282.048 283.111 281.858L285.562 281.497V281.516C285.562 282.922 284.365 284.689 282.465 284.689ZM302.829 272.871C302.069 272.871 301.632 273.327 301.632 274.03C301.632 274.714 302.069 275.17 302.829 275.17C303.57 275.17 303.988 274.714 303.988 274.03C303.988 273.327 303.57 272.871 302.829 272.871ZM299.105 274.258C299.58 274.258 299.941 274.334 300.188 274.429L300.055 273.061C299.637 272.928 299.067 272.89 298.706 272.89C297.072 272.89 295.818 273.84 295.818 275.797V276.614H293.823V278.077H295.818V286H297.566V278.077H300.074V276.614H297.566V275.873C297.566 274.6 298.136 274.258 299.105 274.258ZM303.665 286V276.614H301.936V286H303.665ZM311.096 281.269L314.516 276.614H312.35L310.032 279.996L307.619 276.614H305.453L309.006 281.288L305.586 286H307.657L310.013 282.542L312.502 286H314.687L311.096 281.269ZM319.967 276.405C317.744 276.405 316.281 277.545 315.939 279.293L317.592 279.844C317.782 278.571 318.732 277.944 319.872 277.944C321.221 277.944 322.076 278.628 322.114 280.186L319.416 280.585C317.478 280.851 315.635 281.478 315.635 283.549C315.635 285.316 316.889 286.19 318.637 286.19C320.309 286.19 321.715 285.202 322.171 283.188H322.209V286H323.862V280.357C323.862 277.735 322.342 276.405 319.967 276.405ZM319.036 284.689C318.105 284.689 317.44 284.309 317.44 283.397C317.44 282.314 318.447 282.048 319.682 281.858L322.133 281.497V281.516C322.133 282.922 320.936 284.689 319.036 284.689Z" fill="black"/>
<rect x="385" y="233" width="114" height="92" fill="#E7E9EE"/>
<path d="M408.837 273L404.486 260.08H401.94L397.589 273H399.641L400.591 269.922H405.778L406.747 273H408.837ZM403.194 261.619L405.284 268.345H401.085L403.194 261.619ZM413.598 273.19C415.308 273.19 416.277 272.221 416.771 270.283H416.809V273H418.538V260.08H416.809V266.141H416.771C416.353 264.108 415.118 263.443 413.465 263.443C411.318 263.443 409.646 265.02 409.646 268.25C409.646 271.518 411.413 273.19 413.598 273.19ZM414.111 271.651C412.591 271.651 411.489 270.53 411.489 268.25C411.489 266.046 412.553 264.963 414.111 264.963C415.688 264.963 416.752 266.065 416.752 268.25C416.752 270.511 415.65 271.651 414.111 271.651ZM422.295 262.17C423.055 262.17 423.473 261.714 423.473 261.03C423.473 260.327 423.055 259.871 422.295 259.871C421.554 259.871 421.117 260.327 421.117 261.03C421.117 261.714 421.554 262.17 422.295 262.17ZM423.15 273V263.614H421.402V273H423.15ZM430.237 273.19C432.593 273.19 434.17 271.974 434.493 269.675L432.821 269.371C432.441 270.948 431.586 271.651 430.313 271.651C428.755 271.651 427.52 270.72 427.52 268.345C427.52 266.084 428.679 264.963 430.313 264.963C431.643 264.963 432.517 265.59 432.745 267.11L434.455 266.749C434.113 264.507 432.517 263.424 430.37 263.424C427.71 263.424 425.677 265.134 425.677 268.326C425.677 271.575 427.653 273.19 430.237 273.19ZM437.696 262.17C438.456 262.17 438.874 261.714 438.874 261.03C438.874 260.327 438.456 259.871 437.696 259.871C436.955 259.871 436.518 260.327 436.518 261.03C436.518 261.714 436.955 262.17 437.696 262.17ZM438.551 273V263.614H436.803V273H438.551ZM445.713 273.19C448.278 273.19 450.311 271.499 450.311 268.307C450.311 265.096 448.278 263.405 445.713 263.405C443.129 263.405 441.077 265.096 441.077 268.307C441.077 271.499 443.129 273.19 445.713 273.19ZM445.713 271.651C444.041 271.651 442.92 270.435 442.92 268.307C442.92 266.16 444.041 264.963 445.713 264.963C447.385 264.963 448.487 266.16 448.487 268.307C448.487 270.435 447.385 271.651 445.713 271.651ZM454.449 273V267.281C454.449 265.837 455.209 264.963 456.767 264.963C458.192 264.963 458.895 265.818 458.895 267.281V273H460.643V267.167C460.643 264.602 459.465 263.405 457.394 263.405C455.817 263.405 454.772 264.241 454.411 265.989H454.354V263.614H452.701V273H454.449ZM467.137 263.405C464.914 263.405 463.451 264.545 463.109 266.293L464.762 266.844C464.952 265.571 465.902 264.944 467.042 264.944C468.391 264.944 469.246 265.628 469.284 267.186L466.586 267.585C464.648 267.851 462.805 268.478 462.805 270.549C462.805 272.316 464.059 273.19 465.807 273.19C467.479 273.19 468.885 272.202 469.341 270.188H469.379V273H471.032V267.357C471.032 264.735 469.512 263.405 467.137 263.405ZM466.206 271.689C465.275 271.689 464.61 271.309 464.61 270.397C464.61 269.314 465.617 269.048 466.852 268.858L469.303 268.497V268.516C469.303 269.922 468.106 271.689 466.206 271.689ZM474.787 262.17C475.547 262.17 475.965 261.714 475.965 261.03C475.965 260.327 475.547 259.871 474.787 259.871C474.046 259.871 473.609 260.327 473.609 261.03C473.609 261.714 474.046 262.17 474.787 262.17ZM475.642 273V263.614H473.894V273H475.642ZM482.12 273.19C484.533 273.19 486.072 272.088 486.072 270.055C486.072 268.136 484.476 267.756 482.899 267.49L481.531 267.281C480.619 267.129 479.992 266.901 479.992 266.103C479.992 265.248 480.752 264.811 481.797 264.811C483.013 264.811 483.83 265.381 483.982 266.616L485.711 266.236C485.483 264.374 483.849 263.424 481.873 263.424C479.764 263.424 478.206 264.469 478.206 266.236C478.206 267.927 479.574 268.459 480.866 268.687L482.367 268.915C483.564 269.105 484.286 269.352 484.286 270.264C484.286 271.214 483.526 271.784 482.063 271.784C480.752 271.784 479.859 271.138 479.707 269.694L477.902 270.074C478.054 272.145 479.726 273.19 482.12 273.19ZM410.378 296.19C412.088 296.19 413.057 295.221 413.551 293.283H413.589V296H415.318V283.08H413.589V289.141H413.551C413.133 287.108 411.898 286.443 410.245 286.443C408.098 286.443 406.426 288.02 406.426 291.25C406.426 294.518 408.193 296.19 410.378 296.19ZM410.891 294.651C409.371 294.651 408.269 293.53 408.269 291.25C408.269 289.046 409.333 287.963 410.891 287.963C412.468 287.963 413.532 289.065 413.532 291.25C413.532 293.511 412.43 294.651 410.891 294.651ZM426.277 290.965C426.277 288.039 424.776 286.405 422.192 286.405C419.342 286.405 417.689 288.476 417.689 291.497C417.689 294.442 419.247 296.19 422.097 296.19C424.415 296.19 425.859 295.05 426.22 293.245L424.605 292.846C424.358 294.138 423.446 294.727 422.135 294.727C420.406 294.727 419.532 293.663 419.513 291.421H426.258C426.258 291.326 426.277 291.269 426.277 290.965ZM422.116 287.83C423.56 287.83 424.377 288.742 424.415 290.205H419.608C419.874 288.647 420.748 287.83 422.116 287.83ZM441.399 290.965C441.399 288.039 439.898 286.405 437.314 286.405C434.464 286.405 432.811 288.476 432.811 291.497C432.811 294.442 434.369 296.19 437.219 296.19C439.537 296.19 440.981 295.05 441.342 293.245L439.727 292.846C439.48 294.138 438.568 294.727 437.257 294.727C435.528 294.727 434.654 293.663 434.635 291.421H441.38C441.38 291.326 441.399 291.269 441.399 290.965ZM437.238 287.83C438.682 287.83 439.499 288.742 439.537 290.205H434.73C434.996 288.647 435.87 287.83 437.238 287.83ZM445.422 296V290.281C445.422 288.837 446.182 287.963 447.74 287.963C449.165 287.963 449.868 288.818 449.868 290.281V296H451.616V290.167C451.616 287.602 450.438 286.405 448.367 286.405C446.79 286.405 445.745 287.241 445.384 288.989H445.327V286.614H443.674V296H445.422ZM457.601 294.841L455.055 286.614H453.06L456.176 296H458.931L462.066 286.614H460.185L457.601 294.841ZM464.943 285.17C465.703 285.17 466.121 284.714 466.121 284.03C466.121 283.327 465.703 282.871 464.943 282.871C464.202 282.871 463.765 283.327 463.765 284.03C463.765 284.714 464.202 285.17 464.943 285.17ZM465.798 296V286.614H464.05V296H465.798ZM472.961 296.19C475.526 296.19 477.559 294.499 477.559 291.307C477.559 288.096 475.526 286.405 472.961 286.405C470.377 286.405 468.325 288.096 468.325 291.307C468.325 294.499 470.377 296.19 472.961 296.19ZM472.961 294.651C471.289 294.651 470.168 293.435 470.168 291.307C470.168 289.16 471.289 287.963 472.961 287.963C474.633 287.963 475.735 289.16 475.735 291.307C475.735 293.435 474.633 294.651 472.961 294.651Z" fill="black"/>
<path d="M344.278 88.08H334.322V89.657H338.369V101H340.25V89.657H344.278V88.08ZM348.833 91.405C346.61 91.405 345.147 92.545 344.805 94.293L346.458 94.844C346.648 93.571 347.598 92.944 348.738 92.944C350.087 92.944 350.942 93.628 350.98 95.186L348.282 95.585C346.344 95.851 344.501 96.478 344.501 98.549C344.501 100.316 345.755 101.19 347.503 101.19C349.175 101.19 350.581 100.202 351.037 98.188H351.075V101H352.728V95.357C352.728 92.735 351.208 91.405 348.833 91.405ZM347.902 99.689C346.971 99.689 346.306 99.309 346.306 98.397C346.306 97.314 347.313 97.048 348.548 96.858L350.999 96.497V96.516C350.999 97.922 349.802 99.689 347.902 99.689ZM357.204 101V96.022C357.204 94.198 358.173 93.172 359.902 93.172C360.244 93.172 360.7 93.21 360.966 93.267L360.871 91.538C360.586 91.462 360.206 91.424 359.883 91.424C358.515 91.424 357.641 92.032 357.147 94.331H357.09V91.614H355.456V101H357.204ZM363.515 90.17C364.275 90.17 364.693 89.714 364.693 89.03C364.693 88.327 364.275 87.871 363.515 87.871C362.774 87.871 362.337 88.327 362.337 89.03C362.337 89.714 362.774 90.17 363.515 90.17ZM364.37 101V91.614H362.622V101H364.37ZM370.183 90.873C370.183 89.6 370.753 89.258 371.722 89.258C372.197 89.258 372.558 89.334 372.805 89.429L372.672 88.061C372.254 87.928 371.684 87.89 371.323 87.89C369.689 87.89 368.435 88.84 368.435 90.797V91.614H366.44V93.077H368.435V101H370.183V93.077H372.691V91.614H370.183V90.873ZM378.372 91.405C376.149 91.405 374.686 92.545 374.344 94.293L375.997 94.844C376.187 93.571 377.137 92.944 378.277 92.944C379.626 92.944 380.481 93.628 380.519 95.186L377.821 95.585C375.883 95.851 374.04 96.478 374.04 98.549C374.04 100.316 375.294 101.19 377.042 101.19C378.714 101.19 380.12 100.202 380.576 98.188H380.614V101H382.267V95.357C382.267 92.735 380.747 91.405 378.372 91.405ZM377.441 99.689C376.51 99.689 375.845 99.309 375.845 98.397C375.845 97.314 376.852 97.048 378.087 96.858L380.538 96.497V96.516C380.538 97.922 379.341 99.689 377.441 99.689ZM329.378 124.19C331.088 124.19 332.057 123.221 332.551 121.283H332.589V124H334.318V111.08H332.589V117.141H332.551C332.133 115.108 330.898 114.443 329.245 114.443C327.098 114.443 325.426 116.02 325.426 119.25C325.426 122.518 327.193 124.19 329.378 124.19ZM329.891 122.651C328.371 122.651 327.269 121.53 327.269 119.25C327.269 117.046 328.333 115.963 329.891 115.963C331.468 115.963 332.532 117.065 332.532 119.25C332.532 121.511 331.43 122.651 329.891 122.651ZM345.277 118.965C345.277 116.039 343.776 114.405 341.192 114.405C338.342 114.405 336.689 116.476 336.689 119.497C336.689 122.442 338.247 124.19 341.097 124.19C343.415 124.19 344.859 123.05 345.22 121.245L343.605 120.846C343.358 122.138 342.446 122.727 341.135 122.727C339.406 122.727 338.532 121.663 338.513 119.421H345.258C345.258 119.326 345.277 119.269 345.277 118.965ZM341.116 115.83C342.56 115.83 343.377 116.742 343.415 118.205H338.608C338.874 116.647 339.748 115.83 341.116 115.83ZM360.399 118.965C360.399 116.039 358.898 114.405 356.314 114.405C353.464 114.405 351.811 116.476 351.811 119.497C351.811 122.442 353.369 124.19 356.219 124.19C358.537 124.19 359.981 123.05 360.342 121.245L358.727 120.846C358.48 122.138 357.568 122.727 356.257 122.727C354.528 122.727 353.654 121.663 353.635 119.421H360.38C360.38 119.326 360.399 119.269 360.399 118.965ZM356.238 115.83C357.682 115.83 358.499 116.742 358.537 118.205H353.73C353.996 116.647 354.87 115.83 356.238 115.83ZM364.422 124V118.281C364.422 116.837 365.182 115.963 366.74 115.963C368.165 115.963 368.868 116.818 368.868 118.281V124H370.616V118.167C370.616 115.602 369.438 114.405 367.367 114.405C365.79 114.405 364.745 115.241 364.384 116.989H364.327V114.614H362.674V124H364.422ZM376.601 122.841L374.055 114.614H372.06L375.176 124H377.931L381.066 114.614H379.185L376.601 122.841ZM383.943 113.17C384.703 113.17 385.121 112.714 385.121 112.03C385.121 111.327 384.703 110.871 383.943 110.871C383.202 110.871 382.765 111.327 382.765 112.03C382.765 112.714 383.202 113.17 383.943 113.17ZM384.798 124V114.614H383.05V124H384.798ZM391.961 124.19C394.526 124.19 396.559 122.499 396.559 119.307C396.559 116.096 394.526 114.405 391.961 114.405C389.377 114.405 387.325 116.096 387.325 119.307C387.325 122.499 389.377 124.19 391.961 124.19ZM391.961 122.651C390.289 122.651 389.168 121.435 389.168 119.307C389.168 117.16 390.289 115.963 391.961 115.963C393.633 115.963 394.735 117.16 394.735 119.307C394.735 121.435 393.633 122.651 391.961 122.651Z" fill="black"/>
<rect x="509" y="55" width="129" height="103" fill="#FFE0EF"/>
<path d="M557.659 88.76H548.227V90.254H552.061V101H553.843V90.254H557.659V88.76ZM561.973 91.91C559.867 91.91 558.481 92.99 558.157 94.646L559.723 95.168C559.903 93.962 560.803 93.368 561.883 93.368C563.161 93.368 563.971 94.016 564.007 95.492L561.451 95.87C559.615 96.122 557.869 96.716 557.869 98.678C557.869 100.352 559.057 101.18 560.713 101.18C562.297 101.18 563.629 100.244 564.061 98.336H564.097V101H565.663V95.654C565.663 93.17 564.223 91.91 561.973 91.91ZM561.091 99.758C560.209 99.758 559.579 99.398 559.579 98.534C559.579 97.508 560.533 97.256 561.703 97.076L564.025 96.734V96.752C564.025 98.084 562.891 99.758 561.091 99.758ZM569.904 101V96.284C569.904 94.556 570.822 93.584 572.46 93.584C572.784 93.584 573.216 93.62 573.468 93.674L573.378 92.036C573.108 91.964 572.748 91.928 572.442 91.928C571.146 91.928 570.318 92.504 569.85 94.682H569.796V92.108H568.248V101H569.904ZM575.882 90.74C576.602 90.74 576.998 90.308 576.998 89.66C576.998 88.994 576.602 88.562 575.882 88.562C575.18 88.562 574.766 88.994 574.766 89.66C574.766 90.308 575.18 90.74 575.882 90.74ZM576.692 101V92.108H575.036V101H576.692ZM582.2 91.406C582.2 90.2 582.74 89.876 583.658 89.876C584.108 89.876 584.45 89.948 584.684 90.038L584.558 88.742C584.162 88.616 583.622 88.58 583.28 88.58C581.732 88.58 580.544 89.48 580.544 91.334V92.108H578.654V93.494H580.544V101H582.2V93.494H584.576V92.108H582.2V91.406ZM589.957 91.91C587.851 91.91 586.465 92.99 586.141 94.646L587.707 95.168C587.887 93.962 588.787 93.368 589.867 93.368C591.145 93.368 591.955 94.016 591.991 95.492L589.435 95.87C587.599 96.122 585.853 96.716 585.853 98.678C585.853 100.352 587.041 101.18 588.697 101.18C590.281 101.18 591.613 100.244 592.045 98.336H592.081V101H593.647V95.654C593.647 93.17 592.207 91.91 589.957 91.91ZM589.075 99.758C588.193 99.758 587.563 99.398 587.563 98.534C587.563 97.508 588.517 97.256 589.687 97.076L592.009 96.734V96.752C592.009 98.084 590.875 99.758 589.075 99.758ZM544.167 123.18C545.787 123.18 546.705 122.262 547.173 120.426H547.209V123H548.847V110.76H547.209V116.502H547.173C546.777 114.576 545.607 113.946 544.041 113.946C542.007 113.946 540.423 115.44 540.423 118.5C540.423 121.596 542.097 123.18 544.167 123.18ZM544.653 121.722C543.213 121.722 542.169 120.66 542.169 118.5C542.169 116.412 543.177 115.386 544.653 115.386C546.147 115.386 547.155 116.43 547.155 118.5C547.155 120.642 546.111 121.722 544.653 121.722ZM555.197 113.91C553.091 113.91 551.705 114.99 551.381 116.646L552.947 117.168C553.127 115.962 554.027 115.368 555.107 115.368C556.385 115.368 557.195 116.016 557.231 117.492L554.675 117.87C552.839 118.122 551.093 118.716 551.093 120.678C551.093 122.352 552.281 123.18 553.937 123.18C555.521 123.18 556.853 122.244 557.285 120.336H557.321V123H558.887V117.654C558.887 115.17 557.447 113.91 555.197 113.91ZM554.315 121.758C553.433 121.758 552.803 121.398 552.803 120.534C552.803 119.508 553.757 119.256 554.927 119.076L557.249 118.734V118.752C557.249 120.084 556.115 121.758 554.315 121.758ZM569.863 123C574.219 123 576.487 120.858 576.487 116.862C576.487 112.902 574.219 110.76 569.863 110.76H566.065V123H569.863ZM567.847 112.272H569.773C573.193 112.272 574.597 113.964 574.597 116.862C574.597 119.796 573.193 121.488 569.773 121.488H567.847V112.272ZM582.309 123.18C584.739 123.18 586.665 121.578 586.665 118.554C586.665 115.512 584.739 113.91 582.309 113.91C579.861 113.91 577.917 115.512 577.917 118.554C577.917 121.578 579.861 123.18 582.309 123.18ZM582.309 121.722C580.725 121.722 579.663 120.57 579.663 118.554C579.663 116.52 580.725 115.386 582.309 115.386C583.893 115.386 584.937 116.52 584.937 118.554C584.937 120.57 583.893 121.722 582.309 121.722ZM592.696 123.18C594.928 123.18 596.422 122.028 596.728 119.85L595.144 119.562C594.784 121.056 593.974 121.722 592.768 121.722C591.292 121.722 590.122 120.84 590.122 118.59C590.122 116.448 591.22 115.386 592.768 115.386C594.028 115.386 594.856 115.98 595.072 117.42L596.692 117.078C596.368 114.954 594.856 113.928 592.822 113.928C590.302 113.928 588.376 115.548 588.376 118.572C588.376 121.65 590.248 123.18 592.696 123.18ZM602.552 113.91C600.446 113.91 599.06 114.99 598.736 116.646L600.302 117.168C600.482 115.962 601.382 115.368 602.462 115.368C603.74 115.368 604.55 116.016 604.586 117.492L602.03 117.87C600.194 118.122 598.448 118.716 598.448 120.678C598.448 122.352 599.636 123.18 601.292 123.18C602.876 123.18 604.208 122.244 604.64 120.336H604.676V123H606.242V117.654C606.242 115.17 604.802 113.91 602.552 113.91ZM601.67 121.758C600.788 121.758 600.158 121.398 600.158 120.534C600.158 119.508 601.112 119.256 602.282 119.076L604.604 118.734V118.752C604.604 120.084 603.47 121.758 601.67 121.758Z" fill="black"/>
<path d="M263.781 116.102H247.492V112.957H263.781V116.102ZM263.781 124.207H247.492V121.082H263.781V124.207Z" fill="black"/>
<path d="M470.238 110.746H478.168V114.164H470.238V123.148H466.605V114.164H458.676V110.746H466.605V102.445H470.238V110.746Z" fill="black"/>
<path d="M363.238 270.746H371.168V274.164H363.238V283.148H359.605V274.164H351.676V270.746H359.605V262.445H363.238V270.746Z" fill="black"/>
<rect x="318" y="394" width="105" height="75" fill="#FFF3F6"/>
<rect x="172" y="395" width="105" height="75" fill="#FFF3F6"/>
<path d="M185.287 427L181.165 414.76H178.753L174.631 427H176.575L177.475 424.084H182.389L183.307 427H185.287ZM179.941 416.218L181.921 422.59H177.943L179.941 416.218ZM189.797 427.18C191.417 427.18 192.335 426.262 192.803 424.426H192.839V427H194.477V414.76H192.839V420.502H192.803C192.407 418.576 191.237 417.946 189.671 417.946C187.637 417.946 186.053 419.44 186.053 422.5C186.053 425.596 187.727 427.18 189.797 427.18ZM190.283 425.722C188.843 425.722 187.799 424.66 187.799 422.5C187.799 420.412 188.807 419.386 190.283 419.386C191.777 419.386 192.785 420.43 192.785 422.5C192.785 424.642 191.741 425.722 190.283 425.722ZM198.037 416.74C198.757 416.74 199.153 416.308 199.153 415.66C199.153 414.994 198.757 414.562 198.037 414.562C197.335 414.562 196.921 414.994 196.921 415.66C196.921 416.308 197.335 416.74 198.037 416.74ZM198.847 427V418.108H197.191V427H198.847ZM205.56 427.18C207.792 427.18 209.286 426.028 209.592 423.85L208.008 423.562C207.648 425.056 206.838 425.722 205.632 425.722C204.156 425.722 202.986 424.84 202.986 422.59C202.986 420.448 204.084 419.386 205.632 419.386C206.892 419.386 207.72 419.98 207.936 421.42L209.556 421.078C209.232 418.954 207.72 417.928 205.686 417.928C203.166 417.928 201.24 419.548 201.24 422.572C201.24 425.65 203.112 427.18 205.56 427.18ZM212.626 416.74C213.346 416.74 213.742 416.308 213.742 415.66C213.742 414.994 213.346 414.562 212.626 414.562C211.924 414.562 211.51 414.994 211.51 415.66C211.51 416.308 211.924 416.74 212.626 416.74ZM213.436 427V418.108H211.78V427H213.436ZM220.222 427.18C222.652 427.18 224.578 425.578 224.578 422.554C224.578 419.512 222.652 417.91 220.222 417.91C217.774 417.91 215.83 419.512 215.83 422.554C215.83 425.578 217.774 427.18 220.222 427.18ZM220.222 425.722C218.638 425.722 217.576 424.57 217.576 422.554C217.576 420.52 218.638 419.386 220.222 419.386C221.806 419.386 222.85 420.52 222.85 422.554C222.85 424.57 221.806 425.722 220.222 425.722ZM228.498 427V421.582C228.498 420.214 229.218 419.386 230.694 419.386C232.044 419.386 232.71 420.196 232.71 421.582V427H234.366V421.474C234.366 419.044 233.25 417.91 231.288 417.91C229.794 417.91 228.804 418.702 228.462 420.358H228.408V418.108H226.842V427H228.498ZM240.518 417.91C238.412 417.91 237.026 418.99 236.702 420.646L238.268 421.168C238.448 419.962 239.348 419.368 240.428 419.368C241.706 419.368 242.516 420.016 242.552 421.492L239.996 421.87C238.16 422.122 236.414 422.716 236.414 424.678C236.414 426.352 237.602 427.18 239.258 427.18C240.842 427.18 242.174 426.244 242.606 424.336H242.642V427H244.208V421.654C244.208 419.17 242.768 417.91 240.518 417.91ZM239.636 425.758C238.754 425.758 238.124 425.398 238.124 424.534C238.124 423.508 239.078 423.256 240.248 423.076L242.57 422.734V422.752C242.57 424.084 241.436 425.758 239.636 425.758ZM248.449 427V414.76H246.793V427H248.449ZM258.826 427.18C260.446 427.18 261.364 426.262 261.832 424.426H261.868V427H263.506V414.76H261.868V420.502H261.832C261.436 418.576 260.266 417.946 258.7 417.946C256.666 417.946 255.082 419.44 255.082 422.5C255.082 425.596 256.756 427.18 258.826 427.18ZM259.312 425.722C257.872 425.722 256.828 424.66 256.828 422.5C256.828 420.412 257.836 419.386 259.312 419.386C260.806 419.386 261.814 420.43 261.814 422.5C261.814 424.642 260.77 425.722 259.312 425.722ZM273.888 422.23C273.888 419.458 272.466 417.91 270.018 417.91C267.318 417.91 265.752 419.872 265.752 422.734C265.752 425.524 267.228 427.18 269.928 427.18C272.124 427.18 273.492 426.1 273.834 424.39L272.304 424.012C272.07 425.236 271.206 425.794 269.964 425.794C268.326 425.794 267.498 424.786 267.48 422.662H273.87C273.87 422.572 273.888 422.518 273.888 422.23ZM269.946 419.26C271.314 419.26 272.088 420.124 272.124 421.51H267.57C267.822 420.034 268.65 419.26 269.946 419.26ZM207.431 452.348V446.336H207.449C207.845 448.532 208.979 449.18 210.545 449.18C212.597 449.18 214.199 447.686 214.199 444.608C214.199 441.512 212.525 439.946 210.437 439.946C208.835 439.946 207.917 440.846 207.449 442.484H207.413V440.108H205.775V452.348H207.431ZM209.969 447.722C208.475 447.722 207.467 446.696 207.467 444.608C207.467 442.466 208.511 441.386 209.969 441.386C211.409 441.386 212.453 442.448 212.453 444.608C212.453 446.696 211.463 447.722 209.969 447.722ZM224.027 444.23C224.027 441.458 222.606 439.91 220.158 439.91C217.458 439.91 215.892 441.872 215.892 444.734C215.892 447.524 217.368 449.18 220.068 449.18C222.264 449.18 223.632 448.1 223.974 446.39L222.444 446.012C222.21 447.236 221.346 447.794 220.104 447.794C218.466 447.794 217.638 446.786 217.62 444.662H224.01C224.01 444.572 224.027 444.518 224.027 444.23ZM220.086 441.26C221.454 441.26 222.228 442.124 222.264 443.51H217.71C217.962 442.034 218.79 441.26 220.086 441.26ZM229.585 449.18C231.871 449.18 233.329 448.136 233.329 446.21C233.329 444.392 231.817 444.032 230.323 443.78L229.027 443.582C228.163 443.438 227.569 443.222 227.569 442.466C227.569 441.656 228.289 441.242 229.279 441.242C230.431 441.242 231.205 441.782 231.349 442.952L232.987 442.592C232.771 440.828 231.223 439.928 229.351 439.928C227.353 439.928 225.877 440.918 225.877 442.592C225.877 444.194 227.173 444.698 228.397 444.914L229.819 445.13C230.953 445.31 231.637 445.544 231.637 446.408C231.637 447.308 230.917 447.848 229.531 447.848C228.289 447.848 227.443 447.236 227.299 445.868L225.589 446.228C225.733 448.19 227.317 449.18 229.585 449.18ZM239.198 449.18C241.628 449.18 243.554 447.578 243.554 444.554C243.554 441.512 241.628 439.91 239.198 439.91C236.75 439.91 234.806 441.512 234.806 444.554C234.806 447.578 236.75 449.18 239.198 449.18ZM239.198 447.722C237.614 447.722 236.552 446.57 236.552 444.554C236.552 442.52 237.614 441.386 239.198 441.386C240.782 441.386 241.826 442.52 241.826 444.554C241.826 446.57 240.782 447.722 239.198 447.722Z" fill="black"/>
<rect x="464" y="395" width="105" height="75" fill="#FFF3F6"/>
<rect x="464" y="395" width="105" height="75" fill="#FFF3F6"/>
<path d="M343.785 423L339.663 410.76H337.251L333.129 423H335.073L335.973 420.084H340.887L341.805 423H343.785ZM338.439 412.218L340.419 418.59H336.441L338.439 412.218ZM348.295 423.18C349.915 423.18 350.833 422.262 351.301 420.426H351.337V423H352.975V410.76H351.337V416.502H351.301C350.905 414.576 349.735 413.946 348.169 413.946C346.135 413.946 344.551 415.44 344.551 418.5C344.551 421.596 346.225 423.18 348.295 423.18ZM348.781 421.722C347.341 421.722 346.297 420.66 346.297 418.5C346.297 416.412 347.305 415.386 348.781 415.386C350.275 415.386 351.283 416.43 351.283 418.5C351.283 420.642 350.239 421.722 348.781 421.722ZM356.535 412.74C357.255 412.74 357.651 412.308 357.651 411.66C357.651 410.994 357.255 410.562 356.535 410.562C355.833 410.562 355.419 410.994 355.419 411.66C355.419 412.308 355.833 412.74 356.535 412.74ZM357.345 423V414.108H355.689V423H357.345ZM364.058 423.18C366.29 423.18 367.784 422.028 368.09 419.85L366.506 419.562C366.146 421.056 365.336 421.722 364.13 421.722C362.654 421.722 361.484 420.84 361.484 418.59C361.484 416.448 362.582 415.386 364.13 415.386C365.39 415.386 366.218 415.98 366.434 417.42L368.054 417.078C367.73 414.954 366.218 413.928 364.184 413.928C361.664 413.928 359.738 415.548 359.738 418.572C359.738 421.65 361.61 423.18 364.058 423.18ZM371.124 412.74C371.844 412.74 372.24 412.308 372.24 411.66C372.24 410.994 371.844 410.562 371.124 410.562C370.422 410.562 370.008 410.994 370.008 411.66C370.008 412.308 370.422 412.74 371.124 412.74ZM371.934 423V414.108H370.278V423H371.934ZM378.72 423.18C381.15 423.18 383.076 421.578 383.076 418.554C383.076 415.512 381.15 413.91 378.72 413.91C376.272 413.91 374.328 415.512 374.328 418.554C374.328 421.578 376.272 423.18 378.72 423.18ZM378.72 421.722C377.136 421.722 376.074 420.57 376.074 418.554C376.074 416.52 377.136 415.386 378.72 415.386C380.304 415.386 381.348 416.52 381.348 418.554C381.348 420.57 380.304 421.722 378.72 421.722ZM386.996 423V417.582C386.996 416.214 387.716 415.386 389.192 415.386C390.542 415.386 391.208 416.196 391.208 417.582V423H392.864V417.474C392.864 415.044 391.748 413.91 389.786 413.91C388.292 413.91 387.302 414.702 386.96 416.358H386.906V414.108H385.34V423H386.996ZM399.016 413.91C396.91 413.91 395.524 414.99 395.2 416.646L396.766 417.168C396.946 415.962 397.846 415.368 398.926 415.368C400.204 415.368 401.014 416.016 401.05 417.492L398.494 417.87C396.658 418.122 394.912 418.716 394.912 420.678C394.912 422.352 396.1 423.18 397.756 423.18C399.34 423.18 400.672 422.244 401.104 420.336H401.14V423H402.706V417.654C402.706 415.17 401.266 413.91 399.016 413.91ZM398.134 421.758C397.252 421.758 396.622 421.398 396.622 420.534C396.622 419.508 397.576 419.256 398.746 419.076L401.068 418.734V418.752C401.068 420.084 399.934 421.758 398.134 421.758ZM406.947 423V410.76H405.291V423H406.947ZM333.576 448.348V442.336H333.594C333.99 444.532 335.124 445.18 336.69 445.18C338.742 445.18 340.344 443.686 340.344 440.608C340.344 437.512 338.67 435.946 336.582 435.946C334.98 435.946 334.062 436.846 333.594 438.484H333.558V436.108H331.92V448.348H333.576ZM336.114 443.722C334.62 443.722 333.612 442.696 333.612 440.608C333.612 438.466 334.656 437.386 336.114 437.386C337.554 437.386 338.598 438.448 338.598 440.608C338.598 442.696 337.608 443.722 336.114 443.722ZM346.429 445.18C348.859 445.18 350.785 443.578 350.785 440.554C350.785 437.512 348.859 435.91 346.429 435.91C343.981 435.91 342.037 437.512 342.037 440.554C342.037 443.578 343.981 445.18 346.429 445.18ZM346.429 443.722C344.845 443.722 343.783 442.57 343.783 440.554C343.783 438.52 344.845 437.386 346.429 437.386C348.013 437.386 349.057 438.52 349.057 440.554C349.057 442.57 348.013 443.722 346.429 443.722ZM354.705 445V440.284C354.705 438.556 355.623 437.584 357.261 437.584C357.585 437.584 358.017 437.62 358.269 437.674L358.179 436.036C357.909 435.964 357.549 435.928 357.243 435.928C355.947 435.928 355.119 436.504 354.651 438.682H354.597V436.108H353.049V445H354.705ZM365.885 448.348V442.336H365.903C366.299 444.532 367.433 445.18 368.999 445.18C371.051 445.18 372.653 443.686 372.653 440.608C372.653 437.512 370.979 435.946 368.891 435.946C367.289 435.946 366.371 436.846 365.903 438.484H365.867V436.108H364.229V448.348H365.885ZM368.423 443.722C366.929 443.722 365.921 442.696 365.921 440.608C365.921 438.466 366.965 437.386 368.423 437.386C369.863 437.386 370.907 438.448 370.907 440.608C370.907 442.696 369.917 443.722 368.423 443.722ZM376.555 445V440.284C376.555 438.556 377.473 437.584 379.111 437.584C379.435 437.584 379.867 437.62 380.119 437.674L380.029 436.036C379.759 435.964 379.399 435.928 379.093 435.928C377.797 435.928 376.969 436.504 376.501 438.682H376.447V436.108H374.899V445H376.555ZM389.021 440.23C389.021 437.458 387.599 435.91 385.151 435.91C382.451 435.91 380.885 437.872 380.885 440.734C380.885 443.524 382.361 445.18 385.061 445.18C387.257 445.18 388.625 444.1 388.967 442.39L387.437 442.012C387.203 443.236 386.339 443.794 385.097 443.794C383.459 443.794 382.631 442.786 382.613 440.662H389.003C389.003 440.572 389.021 440.518 389.021 440.23ZM385.079 437.26C386.447 437.26 387.221 438.124 387.257 439.51H382.703C382.955 438.034 383.783 437.26 385.079 437.26ZM397.602 441.562C397.242 443.056 396.432 443.722 395.226 443.722C393.75 443.722 392.58 442.84 392.58 440.59C392.58 438.448 393.678 437.386 395.226 437.386C396.486 437.386 397.314 437.98 397.53 439.42L399.15 439.078C398.826 436.954 397.314 435.928 395.28 435.928C392.76 435.928 390.834 437.548 390.834 440.572C390.834 443.344 392.346 444.856 394.434 445.126L393.966 446.944H395.01C395.802 446.944 396.162 447.106 396.162 447.466C396.162 447.898 395.73 448.096 395.172 448.096C394.47 448.096 393.804 447.844 393.39 447.592L392.976 448.69C393.372 448.924 394.182 449.194 395.1 449.194C396.522 449.194 397.44 448.51 397.44 447.43C397.44 446.368 396.594 446.026 395.28 446.008L395.496 445.162C397.548 445.054 398.898 443.92 399.186 441.85L397.602 441.562ZM405.052 445.18C407.482 445.18 409.408 443.578 409.408 440.554C409.408 437.512 407.482 435.91 405.052 435.91C402.604 435.91 400.66 437.512 400.66 440.554C400.66 443.578 402.604 445.18 405.052 445.18ZM405.052 443.722C403.468 443.722 402.406 442.57 402.406 440.554C402.406 438.52 403.468 437.386 405.052 437.386C406.636 437.386 407.68 438.52 407.68 440.554C407.68 442.57 406.636 443.722 405.052 443.722Z" fill="black"/>
<rect x="610" y="396" width="105" height="75" fill="#FFF3F6"/>
<rect x="610" y="396" width="105" height="75" fill="#FFF3F6"/>
<path d="M623.287 427L619.165 414.76H616.753L612.631 427H614.575L615.475 424.084H620.389L621.307 427H623.287ZM617.941 416.218L619.921 422.59H615.943L617.941 416.218ZM627.797 427.18C629.417 427.18 630.335 426.262 630.803 424.426H630.839V427H632.477V414.76H630.839V420.502H630.803C630.407 418.576 629.237 417.946 627.671 417.946C625.637 417.946 624.053 419.44 624.053 422.5C624.053 425.596 625.727 427.18 627.797 427.18ZM628.283 425.722C626.843 425.722 625.799 424.66 625.799 422.5C625.799 420.412 626.807 419.386 628.283 419.386C629.777 419.386 630.785 420.43 630.785 422.5C630.785 424.642 629.741 425.722 628.283 425.722ZM636.037 416.74C636.757 416.74 637.153 416.308 637.153 415.66C637.153 414.994 636.757 414.562 636.037 414.562C635.335 414.562 634.921 414.994 634.921 415.66C634.921 416.308 635.335 416.74 636.037 416.74ZM636.847 427V418.108H635.191V427H636.847ZM643.56 427.18C645.792 427.18 647.286 426.028 647.592 423.85L646.008 423.562C645.648 425.056 644.838 425.722 643.632 425.722C642.156 425.722 640.986 424.84 640.986 422.59C640.986 420.448 642.084 419.386 643.632 419.386C644.892 419.386 645.72 419.98 645.936 421.42L647.556 421.078C647.232 418.954 645.72 417.928 643.686 417.928C641.166 417.928 639.24 419.548 639.24 422.572C639.24 425.65 641.112 427.18 643.56 427.18ZM650.626 416.74C651.346 416.74 651.742 416.308 651.742 415.66C651.742 414.994 651.346 414.562 650.626 414.562C649.924 414.562 649.51 414.994 649.51 415.66C649.51 416.308 649.924 416.74 650.626 416.74ZM651.436 427V418.108H649.78V427H651.436ZM658.222 427.18C660.652 427.18 662.578 425.578 662.578 422.554C662.578 419.512 660.652 417.91 658.222 417.91C655.774 417.91 653.83 419.512 653.83 422.554C653.83 425.578 655.774 427.18 658.222 427.18ZM658.222 425.722C656.638 425.722 655.576 424.57 655.576 422.554C655.576 420.52 656.638 419.386 658.222 419.386C659.806 419.386 660.85 420.52 660.85 422.554C660.85 424.57 659.806 425.722 658.222 425.722ZM666.498 427V421.582C666.498 420.214 667.218 419.386 668.694 419.386C670.044 419.386 670.71 420.196 670.71 421.582V427H672.366V421.474C672.366 419.044 671.25 417.91 669.288 417.91C667.794 417.91 666.804 418.702 666.462 420.358H666.408V418.108H664.842V427H666.498ZM678.518 417.91C676.412 417.91 675.026 418.99 674.702 420.646L676.268 421.168C676.448 419.962 677.348 419.368 678.428 419.368C679.706 419.368 680.516 420.016 680.552 421.492L677.996 421.87C676.16 422.122 674.414 422.716 674.414 424.678C674.414 426.352 675.602 427.18 677.258 427.18C678.842 427.18 680.174 426.244 680.606 424.336H680.642V427H682.208V421.654C682.208 419.17 680.768 417.91 678.518 417.91ZM677.636 425.758C676.754 425.758 676.124 425.398 676.124 424.534C676.124 423.508 677.078 423.256 678.248 423.076L680.57 422.734V422.752C680.57 424.084 679.436 425.758 677.636 425.758ZM686.449 427V414.76H684.793V427H686.449ZM696.826 427.18C698.446 427.18 699.364 426.262 699.832 424.426H699.868V427H701.506V414.76H699.868V420.502H699.832C699.436 418.576 698.266 417.946 696.7 417.946C694.666 417.946 693.082 419.44 693.082 422.5C693.082 425.596 694.756 427.18 696.826 427.18ZM697.312 425.722C695.872 425.722 694.828 424.66 694.828 422.5C694.828 420.412 695.836 419.386 697.312 419.386C698.806 419.386 699.814 420.43 699.814 422.5C699.814 424.642 698.77 425.722 697.312 425.722ZM711.888 422.23C711.888 419.458 710.466 417.91 708.018 417.91C705.318 417.91 703.752 419.872 703.752 422.734C703.752 425.524 705.228 427.18 707.928 427.18C710.124 427.18 711.492 426.1 711.834 424.39L710.304 424.012C710.07 425.236 709.206 425.794 707.964 425.794C706.326 425.794 705.498 424.786 705.48 422.662H711.87C711.87 422.572 711.888 422.518 711.888 422.23ZM707.946 419.26C709.314 419.26 710.088 420.124 710.124 421.51H705.57C705.822 420.034 706.65 419.26 707.946 419.26ZM646.775 439.406C646.775 438.2 647.315 437.876 648.233 437.876C648.683 437.876 649.025 437.948 649.259 438.038L649.133 436.742C648.737 436.616 648.197 436.58 647.855 436.58C646.307 436.58 645.119 437.48 645.119 439.334V440.108H643.229V441.494H645.119V449H646.775V441.494H649.151V440.108H646.775V439.406ZM652.427 449V444.284C652.427 442.556 653.345 441.584 654.983 441.584C655.307 441.584 655.739 441.62 655.991 441.674L655.901 440.036C655.631 439.964 655.271 439.928 654.965 439.928C653.669 439.928 652.841 440.504 652.373 442.682H652.319V440.108H650.771V449H652.427ZM664.893 444.23C664.893 441.458 663.471 439.91 661.023 439.91C658.323 439.91 656.757 441.872 656.757 444.734C656.757 447.524 658.233 449.18 660.933 449.18C663.129 449.18 664.497 448.1 664.839 446.39L663.309 446.012C663.075 447.236 662.211 447.794 660.969 447.794C659.331 447.794 658.503 446.786 658.485 444.662H664.875C664.875 444.572 664.893 444.518 664.893 444.23ZM660.951 441.26C662.319 441.26 663.093 442.124 663.129 443.51H658.575C658.827 442.034 659.655 441.26 660.951 441.26ZM670.486 447.74C669.73 447.74 669.352 447.506 669.352 446.642V441.494H671.836V440.108H669.352V437.642H668.236C668.092 439.388 667.552 440.108 666.202 440.486V441.494H667.696V447.002C667.696 448.658 668.614 449.18 670.036 449.18C670.666 449.18 671.278 449.09 671.746 448.964L671.962 447.506C671.584 447.614 671.062 447.74 670.486 447.74ZM681.434 444.23C681.434 441.458 680.012 439.91 677.564 439.91C674.864 439.91 673.298 441.872 673.298 444.734C673.298 447.524 674.774 449.18 677.474 449.18C679.67 449.18 681.038 448.1 681.38 446.39L679.85 446.012C679.616 447.236 678.752 447.794 677.51 447.794C675.872 447.794 675.044 446.786 675.026 444.662H681.416C681.416 444.572 681.434 444.518 681.434 444.23ZM677.492 441.26C678.86 441.26 679.634 442.124 679.67 443.51H675.116C675.368 442.034 676.196 441.26 677.492 441.26Z" fill="black"/>
<path d="M478.287 428L474.165 415.76H471.753L467.631 428H469.575L470.475 425.084H475.389L476.307 428H478.287ZM472.941 417.218L474.921 423.59H470.943L472.941 417.218ZM482.797 428.18C484.417 428.18 485.335 427.262 485.803 425.426H485.839V428H487.477V415.76H485.839V421.502H485.803C485.407 419.576 484.237 418.946 482.671 418.946C480.637 418.946 479.053 420.44 479.053 423.5C479.053 426.596 480.727 428.18 482.797 428.18ZM483.283 426.722C481.843 426.722 480.799 425.66 480.799 423.5C480.799 421.412 481.807 420.386 483.283 420.386C484.777 420.386 485.785 421.43 485.785 423.5C485.785 425.642 484.741 426.722 483.283 426.722ZM491.037 417.74C491.757 417.74 492.153 417.308 492.153 416.66C492.153 415.994 491.757 415.562 491.037 415.562C490.335 415.562 489.921 415.994 489.921 416.66C489.921 417.308 490.335 417.74 491.037 417.74ZM491.847 428V419.108H490.191V428H491.847ZM498.56 428.18C500.792 428.18 502.286 427.028 502.592 424.85L501.008 424.562C500.648 426.056 499.838 426.722 498.632 426.722C497.156 426.722 495.986 425.84 495.986 423.59C495.986 421.448 497.084 420.386 498.632 420.386C499.892 420.386 500.72 420.98 500.936 422.42L502.556 422.078C502.232 419.954 500.72 418.928 498.686 418.928C496.166 418.928 494.24 420.548 494.24 423.572C494.24 426.65 496.112 428.18 498.56 428.18ZM505.626 417.74C506.346 417.74 506.742 417.308 506.742 416.66C506.742 415.994 506.346 415.562 505.626 415.562C504.924 415.562 504.51 415.994 504.51 416.66C504.51 417.308 504.924 417.74 505.626 417.74ZM506.436 428V419.108H504.78V428H506.436ZM513.222 428.18C515.652 428.18 517.578 426.578 517.578 423.554C517.578 420.512 515.652 418.91 513.222 418.91C510.774 418.91 508.83 420.512 508.83 423.554C508.83 426.578 510.774 428.18 513.222 428.18ZM513.222 426.722C511.638 426.722 510.576 425.57 510.576 423.554C510.576 421.52 511.638 420.386 513.222 420.386C514.806 420.386 515.85 421.52 515.85 423.554C515.85 425.57 514.806 426.722 513.222 426.722ZM521.498 428V422.582C521.498 421.214 522.218 420.386 523.694 420.386C525.044 420.386 525.71 421.196 525.71 422.582V428H527.366V422.474C527.366 420.044 526.25 418.91 524.288 418.91C522.794 418.91 521.804 419.702 521.462 421.358H521.408V419.108H519.842V428H521.498ZM533.518 418.91C531.412 418.91 530.026 419.99 529.702 421.646L531.268 422.168C531.448 420.962 532.348 420.368 533.428 420.368C534.706 420.368 535.516 421.016 535.552 422.492L532.996 422.87C531.16 423.122 529.414 423.716 529.414 425.678C529.414 427.352 530.602 428.18 532.258 428.18C533.842 428.18 535.174 427.244 535.606 425.336H535.642V428H537.208V422.654C537.208 420.17 535.768 418.91 533.518 418.91ZM532.636 426.758C531.754 426.758 531.124 426.398 531.124 425.534C531.124 424.508 532.078 424.256 533.248 424.076L535.57 423.734V423.752C535.57 425.084 534.436 426.758 532.636 426.758ZM541.449 428V415.76H539.793V428H541.449ZM551.826 428.18C553.446 428.18 554.364 427.262 554.832 425.426H554.868V428H556.506V415.76H554.868V421.502H554.832C554.436 419.576 553.266 418.946 551.7 418.946C549.666 418.946 548.082 420.44 548.082 423.5C548.082 426.596 549.756 428.18 551.826 428.18ZM552.312 426.722C550.872 426.722 549.828 425.66 549.828 423.5C549.828 421.412 550.836 420.386 552.312 420.386C553.806 420.386 554.814 421.43 554.814 423.5C554.814 425.642 553.77 426.722 552.312 426.722ZM566.888 423.23C566.888 420.458 565.466 418.91 563.018 418.91C560.318 418.91 558.752 420.872 558.752 423.734C558.752 426.524 560.228 428.18 562.928 428.18C565.124 428.18 566.492 427.1 566.834 425.39L565.304 425.012C565.07 426.236 564.206 426.794 562.964 426.794C561.326 426.794 560.498 425.786 560.48 423.662H566.87C566.87 423.572 566.888 423.518 566.888 423.23ZM562.946 420.26C564.314 420.26 565.088 421.124 565.124 422.51H560.57C560.822 421.034 561.65 420.26 562.946 420.26ZM494.539 450.18C496.825 450.18 498.283 449.136 498.283 447.21C498.283 445.392 496.771 445.032 495.277 444.78L493.981 444.582C493.117 444.438 492.523 444.222 492.523 443.466C492.523 442.656 493.243 442.242 494.233 442.242C495.385 442.242 496.159 442.782 496.303 443.952L497.941 443.592C497.725 441.828 496.177 440.928 494.305 440.928C492.307 440.928 490.831 441.918 490.831 443.592C490.831 445.194 492.127 445.698 493.351 445.914L494.773 446.13C495.907 446.31 496.591 446.544 496.591 447.408C496.591 448.308 495.871 448.848 494.485 448.848C493.243 448.848 492.397 448.236 492.253 446.868L490.543 447.228C490.687 449.19 492.271 450.18 494.539 450.18ZM507.896 445.23C507.896 442.458 506.474 440.91 504.026 440.91C501.326 440.91 499.76 442.872 499.76 445.734C499.76 448.524 501.236 450.18 503.936 450.18C506.132 450.18 507.5 449.1 507.842 447.39L506.312 447.012C506.078 448.236 505.214 448.794 503.972 448.794C502.334 448.794 501.506 447.786 501.488 445.662H507.878C507.878 445.572 507.896 445.518 507.896 445.23ZM503.954 442.26C505.322 442.26 506.096 443.124 506.132 444.51H501.578C501.83 443.034 502.658 442.26 503.954 442.26ZM514.844 448.128C513.998 448.128 512.702 448.218 512.126 448.218C511.496 448.2 511.28 448.002 511.28 447.642C511.28 447.282 511.514 446.958 512.216 446.868C512.54 446.922 512.9 446.958 513.26 446.958C515.258 446.958 516.734 445.878 516.734 444.096C516.734 443.142 516.194 442.242 514.358 441.846L514.376 441.81C516.086 441.81 516.716 442.044 517.166 442.566H517.58V441.108H513.818C510.758 441.108 509.606 442.494 509.606 444.024C509.606 445.536 510.524 446.436 511.838 446.778C510.47 446.85 509.768 447.426 509.768 448.236C509.768 448.866 510.11 449.262 510.722 449.478C510.902 449.532 511.1 449.568 511.316 449.604C509.696 449.802 508.994 450.414 508.994 451.404C508.994 452.826 510.47 453.51 513.224 453.51C515.996 453.51 517.994 452.484 517.994 450.432C517.994 448.848 516.95 448.146 514.844 448.128ZM511.316 444.042C511.316 443.016 511.964 442.422 513.206 442.422C514.448 442.422 515.06 443.016 515.06 444.042C515.06 445.068 514.448 445.662 513.206 445.662C511.964 445.662 511.316 445.068 511.316 444.042ZM513.296 452.106C511.658 452.106 510.668 451.692 510.668 450.774C510.668 450.18 511.136 449.784 511.946 449.64H512.018C512.792 449.658 513.8 449.586 514.574 449.604C515.798 449.604 516.284 449.964 516.284 450.648C516.284 451.62 515.042 452.106 513.296 452.106ZM525.231 441.108V446.526C525.231 447.894 524.493 448.722 523.017 448.722C521.667 448.722 521.001 447.912 521.001 446.526V441.108H519.345V446.634C519.345 449.064 520.461 450.216 522.423 450.216C523.935 450.216 524.907 449.406 525.267 447.768H525.303V450H526.869V441.108H525.231ZM531.113 450V445.284C531.113 443.556 532.031 442.584 533.669 442.584C533.993 442.584 534.425 442.62 534.677 442.674L534.587 441.036C534.317 440.964 533.957 440.928 533.651 440.928C532.355 440.928 531.527 441.504 531.059 443.682H531.005V441.108H529.457V450H531.113ZM539.835 450.18C542.265 450.18 544.191 448.578 544.191 445.554C544.191 442.512 542.265 440.91 539.835 440.91C537.387 440.91 535.443 442.512 535.443 445.554C535.443 448.578 537.387 450.18 539.835 450.18ZM539.835 448.722C538.251 448.722 537.189 447.57 537.189 445.554C537.189 443.52 538.251 442.386 539.835 442.386C541.419 442.386 542.463 443.52 542.463 445.554C542.463 447.57 541.419 448.722 539.835 448.722Z" fill="black"/>
<path d="M445.238 432.746H453.168V436.164H445.238V445.148H441.605V436.164H433.676V432.746H441.605V424.445H445.238V432.746Z" fill="black"/>
<path d="M299.238 432.746H307.168V436.164H299.238V445.148H295.605V436.164H287.676V432.746H295.605V424.445H299.238V432.746Z" fill="black"/>
<path d="M591.238 432.746H599.168V436.164H591.238V445.148H587.605V436.164H579.676V432.746H587.605V424.445H591.238V432.746Z" fill="black"/>
<path d="M360.939 206.06C361.524 206.646 362.474 206.647 363.06 206.061L372.613 196.522C373.199 195.937 373.2 194.987 372.614 194.401C372.029 193.815 371.079 193.814 370.493 194.4L362.002 202.879L353.522 194.387C352.937 193.801 351.987 193.8 351.401 194.386C350.815 194.971 350.814 195.921 351.4 196.507L360.939 206.06ZM360.527 167.999L360.5 204.999L363.5 205.001L363.527 168.001L360.527 167.999Z" fill="black"/>
<path d="M440.939 374.06C441.524 374.646 442.474 374.647 443.06 374.061L452.613 364.522C453.199 363.937 453.2 362.987 452.614 362.401C452.029 361.815 451.079 361.814 450.493 362.4L442.002 370.879L433.522 362.387C432.937 361.801 431.987 361.8 431.401 362.386C430.815 362.971 430.814 363.921 431.4 364.507L440.939 374.06ZM440.527 335.999L440.5 372.999L443.5 373.001L443.527 336.001L440.527 335.999Z" fill="black"/>
</svg>
