<svg width="703" height="115" viewBox="0 0 703 115" fill="none" xmlns="http://www.w3.org/2000/svg">
<rect width="703" height="115" fill="white"/>
<path d="M456 60C456 55.3406 456 53.0109 456.761 51.1732C457.776 48.7229 459.723 46.7761 462.173 45.7612C464.011 45 466.341 45 471 45H491C495.659 45 497.989 45 499.827 45.7612C502.277 46.7761 504.224 48.7229 505.239 51.1732C506 53.0109 506 55.3406 506 60V80C506 84.6594 506 86.9891 505.239 88.8268C504.224 91.2771 502.277 93.2239 499.827 94.2388C497.989 95 495.659 95 491 95H471C466.341 95 464.011 95 462.173 94.2388C459.723 93.2239 457.776 91.2771 456.761 88.8268C456 86.9891 456 84.6594 456 80V60Z" fill="#142032"/>
<path d="M426.931 30.84C428.671 30.84 430.003 29.892 430.003 28.164V27.972C430.003 26.184 428.623 25.2 427.039 25.2H423.439V33H425.431V30.84H426.931ZM426.835 26.724C427.711 26.724 428.011 27.264 428.011 28.068C428.011 28.788 427.687 29.304 426.775 29.304H425.431V26.724H426.835ZM434.357 26.724C435.233 26.724 435.497 27.252 435.497 27.732C435.497 28.32 435.185 28.848 434.225 28.848H433.025V26.724H434.357ZM437.429 27.684C437.429 26.016 436.049 25.2 434.405 25.2H431.045V33H433.025V30.264H433.661L435.641 33H437.741V32.76L435.725 30.096C436.781 29.748 437.429 28.944 437.429 27.876V27.684ZM438.639 25.2V33H444.039V31.392H440.619V29.88H443.523V28.236H440.619V26.796H444.039V25.2H438.639ZM448.92 26.724C449.892 26.724 450.444 27.18 450.588 28.092H452.568V27.936C452.376 26.112 450.744 25.02 448.824 25.02C446.616 25.02 444.828 26.676 444.828 28.98V29.268C444.828 31.644 446.628 33.18 448.824 33.18C450.816 33.18 452.34 32.064 452.568 30.132V29.964H450.6C450.516 30.864 450.012 31.464 448.92 31.464C447.528 31.464 446.904 30.372 446.904 29.088C446.904 27.816 447.528 26.724 448.92 26.724ZM455.689 33V25.2H453.709V33H455.689ZM456.898 29.244C456.898 31.584 458.698 33.18 461.014 33.18C463.33 33.18 465.13 31.584 465.13 29.244V28.956C465.13 26.616 463.318 25.02 461.014 25.02C458.71 25.02 456.898 26.616 456.898 28.956V29.244ZM458.974 29.1C458.974 27.756 459.646 26.688 461.002 26.688C462.382 26.688 463.054 27.756 463.054 29.1C463.054 30.444 462.322 31.512 461.002 31.512C459.706 31.512 458.974 30.444 458.974 29.1ZM472.181 26.724C473.153 26.724 473.705 27.18 473.849 28.092H475.829V27.936C475.637 26.112 474.005 25.02 472.085 25.02C469.877 25.02 468.089 26.676 468.089 28.98V29.268C468.089 31.644 469.889 33.18 472.085 33.18C474.077 33.18 475.601 32.064 475.829 30.132V29.964H473.861C473.777 30.864 473.273 31.464 472.181 31.464C470.789 31.464 470.165 30.372 470.165 29.088C470.165 27.816 470.789 26.724 472.181 26.724ZM480.307 27.024C480.403 27.456 480.583 28.008 480.739 28.452L481.339 30.108H479.251L479.851 28.452C480.007 28.008 480.187 27.456 480.283 27.024H480.307ZM482.383 33H484.399V32.784L481.351 25.2H479.215L476.167 32.784V33H478.207L478.699 31.644H481.891L482.383 33ZM485.244 33H490.524V31.428H487.224V25.2H485.244V33ZM495.033 26.724C496.005 26.724 496.557 27.18 496.701 28.092H498.681V27.936C498.489 26.112 496.857 25.02 494.937 25.02C492.729 25.02 490.941 26.676 490.941 28.98V29.268C490.941 31.644 492.741 33.18 494.937 33.18C496.929 33.18 498.453 32.064 498.681 30.132V29.964H496.713C496.629 30.864 496.125 31.464 495.033 31.464C493.641 31.464 493.017 30.372 493.017 29.088C493.017 27.816 493.641 26.724 495.033 26.724ZM506.494 25.2H504.55V30.324C504.55 31.14 503.926 31.536 503.194 31.536C502.33 31.536 501.778 31.14 501.778 30.324V25.2H499.774V30.012C499.774 32.076 500.902 33.18 503.146 33.18C505.354 33.18 506.494 32.076 506.494 30.012V25.2ZM508.107 33H513.387V31.428H510.087V25.2H508.107V33ZM517.877 27.024C517.973 27.456 518.153 28.008 518.309 28.452L518.909 30.108H516.821L517.421 28.452C517.577 28.008 517.757 27.456 517.853 27.024H517.877ZM519.953 33H521.969V32.784L518.921 25.2H516.785L513.737 32.784V33H515.777L516.269 31.644H519.461L519.953 33ZM522.814 25.2V33H526.15C528.118 33 529.954 31.74 529.954 29.244V28.956C529.954 26.496 528.118 25.2 526.162 25.2H522.814ZM526.054 26.748C527.302 26.748 527.902 27.624 527.902 29.064C527.902 30.504 527.338 31.452 526.03 31.452H524.77V26.748H526.054ZM530.75 29.244C530.75 31.584 532.55 33.18 534.866 33.18C537.182 33.18 538.982 31.584 538.982 29.244V28.956C538.982 26.616 537.17 25.02 534.866 25.02C532.562 25.02 530.75 26.616 530.75 28.956V29.244ZM532.826 29.1C532.826 27.756 533.498 26.688 534.854 26.688C536.234 26.688 536.906 27.756 536.906 29.1C536.906 30.444 536.174 31.512 534.854 31.512C533.558 31.512 532.826 30.444 532.826 29.1Z" fill="black"/>
<path d="M189 60C189 55.3406 189 53.0109 189.761 51.1732C190.776 48.7229 192.723 46.7761 195.173 45.7612C197.011 45 199.341 45 204 45H224C228.659 45 230.989 45 232.827 45.7612C235.277 46.7761 237.224 48.7229 238.239 51.1732C239 53.0109 239 55.3406 239 60V80C239 84.6594 239 86.9891 238.239 88.8268C237.224 91.2771 235.277 93.2239 232.827 94.2388C230.989 95 228.659 95 224 95H204C199.341 95 197.011 95 195.173 94.2388C192.723 93.2239 190.776 91.2771 189.761 88.8268C189 86.9891 189 84.6594 189 80V60Z" fill="#F71963"/>
<path d="M180.502 30.84C182.242 30.84 183.574 29.892 183.574 28.164V27.972C183.574 26.184 182.194 25.2 180.61 25.2H177.01V33H179.002V30.84H180.502ZM180.406 26.724C181.282 26.724 181.582 27.264 181.582 28.068C181.582 28.788 181.258 29.304 180.346 29.304H179.002V26.724H180.406ZM187.927 26.724C188.803 26.724 189.067 27.252 189.067 27.732C189.067 28.32 188.755 28.848 187.795 28.848H186.595V26.724H187.927ZM190.999 27.684C190.999 26.016 189.619 25.2 187.975 25.2H184.615V33H186.595V30.264H187.231L189.211 33H191.311V32.76L189.295 30.096C190.351 29.748 190.999 28.944 190.999 27.876V27.684ZM192.209 25.2V33H197.609V31.392H194.189V29.88H197.093V28.236H194.189V26.796H197.609V25.2H192.209ZM202.49 26.724C203.462 26.724 204.014 27.18 204.158 28.092H206.138V27.936C205.946 26.112 204.314 25.02 202.394 25.02C200.186 25.02 198.398 26.676 198.398 28.98V29.268C198.398 31.644 200.198 33.18 202.394 33.18C204.386 33.18 205.91 32.064 206.138 30.132V29.964H204.17C204.086 30.864 203.582 31.464 202.49 31.464C201.098 31.464 200.474 30.372 200.474 29.088C200.474 27.816 201.098 26.724 202.49 26.724ZM209.259 33V25.2H207.279V33H209.259ZM210.468 29.244C210.468 31.584 212.268 33.18 214.584 33.18C216.9 33.18 218.7 31.584 218.7 29.244V28.956C218.7 26.616 216.888 25.02 214.584 25.02C212.28 25.02 210.468 26.616 210.468 28.956V29.244ZM212.544 29.1C212.544 27.756 213.216 26.688 214.572 26.688C215.952 26.688 216.624 27.756 216.624 29.1C216.624 30.444 215.892 31.512 214.572 31.512C213.276 31.512 212.544 30.444 212.544 29.1ZM227.048 28.968C227.672 28.716 228.08 28.128 228.08 27.36V27.24C228.08 25.752 226.796 25.2 225.128 25.2H222.092V33H225.476C227.168 33 228.344 32.364 228.344 30.876V30.756C228.344 29.928 227.768 29.184 227.048 28.992V28.968ZM225.284 26.664C225.848 26.664 226.076 27.048 226.076 27.432C226.076 27.768 225.872 28.32 225.26 28.32H224V26.664H225.284ZM225.392 29.784C226.22 29.784 226.376 30.408 226.376 30.696C226.376 31.128 226.232 31.524 225.38 31.524H224V29.784H225.392ZM232.869 27.024C232.965 27.456 233.145 28.008 233.301 28.452L233.901 30.108H231.813L232.413 28.452C232.569 28.008 232.749 27.456 232.845 27.024H232.869ZM234.945 33H236.961V32.784L233.913 25.2H231.777L228.729 32.784V33H230.769L231.261 31.644H234.453L234.945 33ZM237.543 27.564C237.543 28.104 237.819 28.692 238.143 29.016C238.719 29.592 239.967 29.76 240.831 30.084C241.515 30.312 241.647 30.528 241.647 30.948C241.647 31.392 241.227 31.74 240.555 31.74C239.835 31.74 239.355 31.452 239.319 30.744H237.387V30.912C237.543 32.58 238.839 33.18 240.483 33.18C241.995 33.18 243.591 32.556 243.591 30.684V30.564C243.591 29.976 243.303 29.388 242.979 29.064C242.403 28.488 241.203 28.236 240.411 28.02C239.883 27.876 239.535 27.732 239.535 27.216C239.535 26.796 239.871 26.508 240.543 26.508C241.227 26.508 241.503 26.856 241.539 27.3H243.423V27.144C243.291 25.608 241.995 25.056 240.483 25.056C239.067 25.056 237.543 25.68 237.543 27.444V27.564ZM244.849 25.2V33H250.249V31.392H246.829V29.88H249.733V28.236H246.829V26.796H250.249V25.2H244.849Z" fill="black"/>
<path d="M314.562 19.724C315.438 19.724 315.702 20.252 315.702 20.732C315.702 21.32 315.39 21.848 314.43 21.848H313.23V19.724H314.562ZM317.634 20.684C317.634 19.016 316.254 18.2 314.61 18.2H311.25V26H313.23V23.264H313.866L315.846 26H317.946V25.76L315.93 23.096C316.986 22.748 317.634 21.944 317.634 20.876V20.684ZM318.844 18.2V26H324.244V24.392H320.824V22.88H323.728V21.236H320.824V19.796H324.244V18.2H318.844ZM332.893 21.68H329.125V23.264H331.129V24.032C330.709 24.356 330.169 24.572 329.413 24.572C327.913 24.572 327.073 23.492 327.073 22.112C327.073 20.588 327.757 19.664 329.185 19.664C330.061 19.664 330.649 19.964 330.781 20.672H332.713V20.516C332.461 18.752 331.081 18.02 329.125 18.02C326.833 18.02 325.033 19.604 325.033 21.956V22.244C325.033 24.488 326.677 26.18 329.233 26.18C331.141 26.18 332.389 25.256 332.893 24.596V21.68ZM334.336 26H339.616V24.428H336.316V18.2H334.336V26ZM344.105 20.024C344.201 20.456 344.381 21.008 344.537 21.452L345.137 23.108H343.049L343.649 21.452C343.805 21.008 343.985 20.456 344.081 20.024H344.105ZM346.181 26H348.197V25.784L345.149 18.2H343.013L339.965 25.784V26H342.005L342.497 24.644H345.689L346.181 26ZM348.779 20.564C348.779 21.104 349.055 21.692 349.379 22.016C349.955 22.592 351.203 22.76 352.067 23.084C352.751 23.312 352.883 23.528 352.883 23.948C352.883 24.392 352.463 24.74 351.791 24.74C351.071 24.74 350.591 24.452 350.555 23.744H348.623V23.912C348.779 25.58 350.075 26.18 351.719 26.18C353.231 26.18 354.827 25.556 354.827 23.684V23.564C354.827 22.976 354.539 22.388 354.215 22.064C353.639 21.488 352.439 21.236 351.647 21.02C351.119 20.876 350.771 20.732 350.771 20.216C350.771 19.796 351.107 19.508 351.779 19.508C352.463 19.508 352.739 19.856 352.775 20.3H354.659V20.144C354.527 18.608 353.231 18.056 351.719 18.056C350.303 18.056 348.779 18.68 348.779 20.444V20.564ZM358.242 18.2V26H361.578C363.546 26 365.382 24.74 365.382 22.244V21.956C365.382 19.496 363.546 18.2 361.59 18.2H358.242ZM361.482 19.748C362.73 19.748 363.33 20.624 363.33 22.064C363.33 23.504 362.766 24.452 361.458 24.452H360.198V19.748H361.482ZM366.609 18.2V26H372.009V24.392H368.589V22.88H371.493V21.236H368.589V19.796H372.009V18.2H366.609ZM324.357 38.84C326.097 38.84 327.429 37.892 327.429 36.164V35.972C327.429 34.184 326.049 33.2 324.465 33.2H320.865V41H322.857V38.84H324.357ZM324.261 34.724C325.137 34.724 325.437 35.264 325.437 36.068C325.437 36.788 325.113 37.304 324.201 37.304H322.857V34.724H324.261ZM331.783 34.724C332.659 34.724 332.923 35.252 332.923 35.732C332.923 36.32 332.611 36.848 331.651 36.848H330.451V34.724H331.783ZM334.855 35.684C334.855 34.016 333.475 33.2 331.831 33.2H328.471V41H330.451V38.264H331.087L333.067 41H335.167V40.76L333.151 38.096C334.207 37.748 334.855 36.944 334.855 35.876V35.684ZM336.064 33.2V41H341.464V39.392H338.044V37.88H340.948V36.236H338.044V34.796H341.464V33.2H336.064ZM346.345 34.724C347.317 34.724 347.869 35.18 348.013 36.092H349.993V35.936C349.801 34.112 348.169 33.02 346.249 33.02C344.041 33.02 342.253 34.676 342.253 36.98V37.268C342.253 39.644 344.053 41.18 346.249 41.18C348.241 41.18 349.765 40.064 349.993 38.132V37.964H348.025C347.941 38.864 347.437 39.464 346.345 39.464C344.953 39.464 344.329 38.372 344.329 37.088C344.329 35.816 344.953 34.724 346.345 34.724ZM353.115 41V33.2H351.135V41H353.115ZM354.324 37.244C354.324 39.584 356.124 41.18 358.44 41.18C360.756 41.18 362.556 39.584 362.556 37.244V36.956C362.556 34.616 360.744 33.02 358.44 33.02C356.136 33.02 354.324 34.616 354.324 36.956V37.244ZM356.4 37.1C356.4 35.756 357.072 34.688 358.428 34.688C359.808 34.688 360.48 35.756 360.48 37.1C360.48 38.444 359.748 39.512 358.428 39.512C357.132 39.512 356.4 38.444 356.4 37.1Z" fill="black"/>
<path d="M405.278 65.806H412.726V63.958H405.278V65.806ZM405.278 68.858H412.726V67.024H405.278V68.858Z" fill="black"/>
<path d="M273.48 72L274.964 69.9L276.448 72H278.8V71.762L276.28 68.248L278.492 65.238V65H276.238L275.048 66.778L273.872 65H271.52V65.238L273.746 68.304L271.198 71.762V72H273.48Z" fill="black"/>
<path d="M317 70C317 56.1929 328.193 45 342 45C355.807 45 367 56.1929 367 70C367 83.8071 355.807 95 342 95C328.193 95 317 83.8071 317 70Z" fill="#00BBD4"/>
</svg>
