<svg width="703" height="316" viewBox="0 0 703 316" fill="none" xmlns="http://www.w3.org/2000/svg">
<rect width="703" height="316" fill="white"/>
<path d="M258 48C258 43.3406 258 41.0109 258.761 39.1732C259.776 36.7229 261.723 34.7761 264.173 33.7612C266.011 33 268.341 33 273 33H444C448.659 33 450.989 33 452.827 33.7612C455.277 34.7761 457.224 36.7229 458.239 39.1732C459 41.0109 459 43.3406 459 48V268C459 272.659 459 274.989 458.239 276.827C457.224 279.277 455.277 281.224 452.827 282.239C450.989 283 448.659 283 444 283H273C268.341 283 266.011 283 264.173 282.239C261.723 281.224 259.776 279.277 258.761 276.827C258 274.989 258 272.659 258 268V48Z" fill="#F71963"/>
<path d="M280 94C280 89.3406 280 87.0109 280.761 85.1732C281.776 82.7229 283.723 80.7761 286.173 79.7612C288.011 79 290.341 79 295 79H392C396.659 79 398.989 79 400.827 79.7612C403.277 80.7761 405.224 82.7229 406.239 85.1732C407 87.0109 407 89.3406 407 94V222C407 226.659 407 228.989 406.239 230.827C405.224 233.277 403.277 235.224 400.827 236.239C398.989 237 396.659 237 392 237H295C290.341 237 288.011 237 286.173 236.239C283.723 235.224 281.776 233.277 280.761 230.827C280 228.989 280 226.659 280 222V94Z" fill="#142032"/>
<path d="M293.04 95.83H294.89V101H296.54V95.83H298.32V94.5H293.04V95.83ZM301.269 96.02C301.349 96.38 301.499 96.84 301.629 97.21L302.129 98.59H300.389L300.889 97.21C301.019 96.84 301.169 96.38 301.249 96.02H301.269ZM302.999 101H304.679V100.82L302.139 94.5H300.359L297.819 100.82V101H299.519L299.929 99.87H302.589L302.999 101ZM309.513 97.64C310.033 97.43 310.373 96.94 310.373 96.3V96.2C310.373 94.96 309.303 94.5 307.913 94.5H305.383V101H308.203C309.613 101 310.593 100.47 310.593 99.23V99.13C310.593 98.44 310.113 97.82 309.513 97.66V97.64ZM308.043 95.72C308.513 95.72 308.703 96.04 308.703 96.36C308.703 96.64 308.533 97.1 308.023 97.1H306.973V95.72H308.043ZM308.133 98.32C308.823 98.32 308.953 98.84 308.953 99.08C308.953 99.44 308.833 99.77 308.123 99.77H306.973V98.32H308.133ZM311.682 101H316.082V99.69H313.332V94.5H311.682V101ZM319.824 96.02C319.904 96.38 320.054 96.84 320.184 97.21L320.684 98.59H318.944L319.444 97.21C319.574 96.84 319.724 96.38 319.804 96.02H319.824ZM321.554 101H323.234V100.82L320.694 94.5H318.914L316.374 100.82V101H318.074L318.484 99.87H321.144L321.554 101ZM325.735 94.5V101H328.515C330.155 101 331.685 99.95 331.685 97.87V97.63C331.685 95.58 330.155 94.5 328.525 94.5H325.735ZM328.435 95.79C329.475 95.79 329.975 96.52 329.975 97.72C329.975 98.92 329.505 99.71 328.415 99.71H327.365V95.79H328.435ZM332.708 94.5V101H337.208V99.66H334.358V98.4H336.778V97.03H334.358V95.83H337.208V94.5H332.708ZM343.079 99.2C344.529 99.2 345.639 98.41 345.639 96.97V96.81C345.639 95.32 344.489 94.5 343.169 94.5H340.169V101H341.829V99.2H343.079ZM342.999 95.77C343.729 95.77 343.979 96.22 343.979 96.89C343.979 97.49 343.709 97.92 342.949 97.92H341.829V95.77H342.999ZM349.266 95.77C349.996 95.77 350.216 96.21 350.216 96.61C350.216 97.1 349.956 97.54 349.156 97.54H348.156V95.77H349.266ZM351.826 96.57C351.826 95.18 350.676 94.5 349.306 94.5H346.506V101H348.156V98.72H348.686L350.336 101H352.086V100.8L350.406 98.58C351.286 98.29 351.826 97.62 351.826 96.73V96.57ZM352.835 94.5V101H357.335V99.66H354.485V98.4H356.905V97.03H354.485V95.83H357.335V94.5H352.835ZM361.402 95.77C362.212 95.77 362.672 96.15 362.792 96.91H364.442V96.78C364.282 95.26 362.922 94.35 361.322 94.35C359.482 94.35 357.992 95.73 357.992 97.65V97.89C357.992 99.87 359.492 101.15 361.322 101.15C362.982 101.15 364.252 100.22 364.442 98.61V98.47H362.802C362.732 99.22 362.312 99.72 361.402 99.72C360.242 99.72 359.722 98.81 359.722 97.74C359.722 96.68 360.242 95.77 361.402 95.77ZM367.043 101V94.5H365.393V101H367.043ZM368.051 97.87C368.051 99.82 369.551 101.15 371.481 101.15C373.411 101.15 374.911 99.82 374.911 97.87V97.63C374.911 95.68 373.401 94.35 371.481 94.35C369.561 94.35 368.051 95.68 368.051 97.63V97.87ZM369.781 97.75C369.781 96.63 370.341 95.74 371.471 95.74C372.621 95.74 373.181 96.63 373.181 97.75C373.181 98.87 372.571 99.76 371.471 99.76C370.391 99.76 369.781 98.87 369.781 97.75Z" fill="white"/>
<path d="M296.423 129.923C296.423 130.328 296.63 130.769 296.873 131.012C297.305 131.444 298.241 131.57 298.889 131.813C299.402 131.984 299.501 132.146 299.501 132.461C299.501 132.794 299.186 133.055 298.682 133.055C298.142 133.055 297.782 132.839 297.755 132.308H296.306V132.434C296.423 133.685 297.395 134.135 298.628 134.135C299.762 134.135 300.959 133.667 300.959 132.263V132.173C300.959 131.732 300.743 131.291 300.5 131.048C300.068 130.616 299.168 130.427 298.574 130.265C298.178 130.157 297.917 130.049 297.917 129.662C297.917 129.347 298.169 129.131 298.673 129.131C299.186 129.131 299.393 129.392 299.42 129.725H300.833V129.608C300.734 128.456 299.762 128.042 298.628 128.042C297.566 128.042 296.423 128.51 296.423 129.833V129.923ZM305.368 134H307.051V133.838L304.774 130.913L306.952 128.312V128.15H305.35L303.388 130.508V128.15H301.903V134H303.388V131.408L305.368 134ZM312.559 128.15H311.101V131.993C311.101 132.605 310.633 132.902 310.084 132.902C309.436 132.902 309.022 132.605 309.022 131.993V128.15H307.519V131.759C307.519 133.307 308.365 134.135 310.048 134.135C311.704 134.135 312.559 133.307 312.559 131.759V128.15ZM317.366 134V128.114H316.187C316.043 128.888 315.494 128.969 314.801 129.014V130.013H315.917V134H317.366ZM321.719 132.002H325.067V130.742H321.719V132.002ZM330.388 132.38C331.693 132.38 332.692 131.669 332.692 130.373V130.229C332.692 128.888 331.657 128.15 330.469 128.15H327.769V134H329.263V132.38H330.388ZM330.316 129.293C330.973 129.293 331.198 129.698 331.198 130.301C331.198 130.841 330.955 131.228 330.271 131.228H329.263V129.293H330.316ZM334.797 131.876C334.797 131.291 334.932 130.832 335.733 130.832H336.309V129.518C336.192 129.482 335.994 129.464 335.859 129.464C335.283 129.464 334.779 129.815 334.716 130.454H334.689L334.428 129.5H333.384V134H334.797V131.876ZM339.022 129.356C337.726 129.356 336.7 130.274 336.7 131.687V131.84C336.7 133.28 337.807 134.144 339.076 134.144C340.111 134.144 341.029 133.64 341.245 132.596H339.922C339.787 132.947 339.481 133.064 339.112 133.064C338.527 133.064 338.203 132.659 338.14 132.092H341.236C341.245 131.993 341.254 131.777 341.254 131.597C341.254 130.085 340.183 129.356 339.022 129.356ZM338.167 131.192C338.239 130.724 338.509 130.364 339.058 130.364C339.535 130.364 339.85 130.697 339.85 131.192H338.167ZM344.263 130.481C344.731 130.481 345.046 130.76 345.145 131.264H346.432V131.147C346.333 129.995 345.343 129.356 344.2 129.356C342.904 129.356 341.851 130.301 341.851 131.669V131.84C341.851 133.253 342.94 134.144 344.209 134.144C345.289 134.144 346.315 133.505 346.432 132.353V132.236H345.145C345.028 132.767 344.767 133.019 344.263 133.019C343.588 133.019 343.282 132.479 343.282 131.75C343.282 131.03 343.588 130.481 344.263 130.481ZM348.695 128.258C348.695 127.79 348.299 127.511 347.831 127.511C347.354 127.511 346.967 127.79 346.967 128.258V128.321C346.967 128.789 347.354 129.05 347.831 129.05C348.299 129.05 348.695 128.789 348.695 128.321V128.258ZM348.542 134V129.5H347.12V134H348.542ZM349.348 131.84C349.348 133.28 350.455 134.144 351.769 134.144C353.038 134.144 354.154 133.28 354.154 131.831V131.66C354.154 130.22 353.047 129.356 351.751 129.356C350.455 129.356 349.348 130.22 349.348 131.669V131.84ZM350.833 131.732C350.833 131.057 351.121 130.526 351.751 130.526C352.381 130.526 352.669 131.075 352.669 131.759C352.669 132.434 352.381 132.965 351.751 132.965C351.121 132.965 350.833 132.416 350.833 131.732ZM358.665 134V128.114H357.486C357.342 128.888 356.793 128.969 356.1 129.014V130.013H357.216V134H358.665ZM296.423 141.923C296.423 142.328 296.63 142.769 296.873 143.012C297.305 143.444 298.241 143.57 298.889 143.813C299.402 143.984 299.501 144.146 299.501 144.461C299.501 144.794 299.186 145.055 298.682 145.055C298.142 145.055 297.782 144.839 297.755 144.308H296.306V144.434C296.423 145.685 297.395 146.135 298.628 146.135C299.762 146.135 300.959 145.667 300.959 144.263V144.173C300.959 143.732 300.743 143.291 300.5 143.048C300.068 142.616 299.168 142.427 298.574 142.265C298.178 142.157 297.917 142.049 297.917 141.662C297.917 141.347 298.169 141.131 298.673 141.131C299.186 141.131 299.393 141.392 299.42 141.725H300.833V141.608C300.734 140.456 299.762 140.042 298.628 140.042C297.566 140.042 296.423 140.51 296.423 141.833V141.923ZM305.368 146H307.051V145.838L304.774 142.913L306.952 140.312V140.15H305.35L303.388 142.508V140.15H301.903V146H303.388V143.408L305.368 146ZM312.559 140.15H311.101V143.993C311.101 144.605 310.633 144.902 310.084 144.902C309.436 144.902 309.022 144.605 309.022 143.993V140.15H307.519V143.759C307.519 145.307 308.365 146.135 310.048 146.135C311.704 146.135 312.559 145.307 312.559 143.759V140.15ZM319.355 141.86C319.355 140.609 318.437 140.015 317.249 140.015C316.169 140.015 315.125 140.591 315.125 141.806C315.125 142.103 315.179 142.4 315.242 142.544H316.529V142.382C316.493 142.211 316.475 142.022 316.475 141.905C316.475 141.437 316.745 141.131 317.213 141.131C317.717 141.131 317.951 141.428 317.951 141.896C317.951 142.436 317.771 142.769 317.384 143.165C316.7 143.876 316.007 144.506 315.143 145.199V146H319.481V144.803H318.194C318.014 144.803 317.501 144.812 317.321 144.839V144.821C318.23 144.074 319.355 143.138 319.355 141.986V141.86ZM322.018 144.002H325.366V142.742H322.018V144.002ZM330.687 144.38C331.992 144.38 332.991 143.669 332.991 142.373V142.229C332.991 140.888 331.956 140.15 330.768 140.15H328.068V146H329.562V144.38H330.687ZM330.615 141.293C331.272 141.293 331.497 141.698 331.497 142.301C331.497 142.841 331.254 143.228 330.57 143.228H329.562V141.293H330.615ZM335.095 143.876C335.095 143.291 335.23 142.832 336.031 142.832H336.607V141.518C336.49 141.482 336.292 141.464 336.157 141.464C335.581 141.464 335.077 141.815 335.014 142.454H334.987L334.726 141.5H333.682V146H335.095V143.876ZM339.321 141.356C338.025 141.356 336.999 142.274 336.999 143.687V143.84C336.999 145.28 338.106 146.144 339.375 146.144C340.41 146.144 341.328 145.64 341.544 144.596H340.221C340.086 144.947 339.78 145.064 339.411 145.064C338.826 145.064 338.502 144.659 338.439 144.092H341.535C341.544 143.993 341.553 143.777 341.553 143.597C341.553 142.085 340.482 141.356 339.321 141.356ZM338.466 143.192C338.538 142.724 338.808 142.364 339.357 142.364C339.834 142.364 340.149 142.697 340.149 143.192H338.466ZM344.562 142.481C345.03 142.481 345.345 142.76 345.444 143.264H346.731V143.147C346.632 141.995 345.642 141.356 344.499 141.356C343.203 141.356 342.15 142.301 342.15 143.669V143.84C342.15 145.253 343.239 146.144 344.508 146.144C345.588 146.144 346.614 145.505 346.731 144.353V144.236H345.444C345.327 144.767 345.066 145.019 344.562 145.019C343.887 145.019 343.581 144.479 343.581 143.75C343.581 143.03 343.887 142.481 344.562 142.481ZM348.994 140.258C348.994 139.79 348.598 139.511 348.13 139.511C347.653 139.511 347.266 139.79 347.266 140.258V140.321C347.266 140.789 347.653 141.05 348.13 141.05C348.598 141.05 348.994 140.789 348.994 140.321V140.258ZM348.841 146V141.5H347.419V146H348.841ZM349.647 143.84C349.647 145.28 350.754 146.144 352.068 146.144C353.337 146.144 354.453 145.28 354.453 143.831V143.66C354.453 142.22 353.346 141.356 352.05 141.356C350.754 141.356 349.647 142.22 349.647 143.669V143.84ZM351.132 143.732C351.132 143.057 351.42 142.526 352.05 142.526C352.68 142.526 352.968 143.075 352.968 143.759C352.968 144.434 352.68 144.965 352.05 144.965C351.42 144.965 351.132 144.416 351.132 143.732ZM360.953 141.86C360.953 140.609 360.035 140.015 358.847 140.015C357.767 140.015 356.723 140.591 356.723 141.806C356.723 142.103 356.777 142.4 356.84 142.544H358.127V142.382C358.091 142.211 358.073 142.022 358.073 141.905C358.073 141.437 358.343 141.131 358.811 141.131C359.315 141.131 359.549 141.428 359.549 141.896C359.549 142.436 359.369 142.769 358.982 143.165C358.298 143.876 357.605 144.506 356.741 145.199V146H361.079V144.803H359.792C359.612 144.803 359.099 144.812 358.919 144.839V144.821C359.828 144.074 360.953 143.138 360.953 141.986V141.86ZM296.423 153.923C296.423 154.328 296.63 154.769 296.873 155.012C297.305 155.444 298.241 155.57 298.889 155.813C299.402 155.984 299.501 156.146 299.501 156.461C299.501 156.794 299.186 157.055 298.682 157.055C298.142 157.055 297.782 156.839 297.755 156.308H296.306V156.434C296.423 157.685 297.395 158.135 298.628 158.135C299.762 158.135 300.959 157.667 300.959 156.263V156.173C300.959 155.732 300.743 155.291 300.5 155.048C300.068 154.616 299.168 154.427 298.574 154.265C298.178 154.157 297.917 154.049 297.917 153.662C297.917 153.347 298.169 153.131 298.673 153.131C299.186 153.131 299.393 153.392 299.42 153.725H300.833V153.608C300.734 152.456 299.762 152.042 298.628 152.042C297.566 152.042 296.423 152.51 296.423 153.833V153.923ZM305.368 158H307.051V157.838L304.774 154.913L306.952 152.312V152.15H305.35L303.388 154.508V152.15H301.903V158H303.388V155.408L305.368 158ZM312.559 152.15H311.101V155.993C311.101 156.605 310.633 156.902 310.084 156.902C309.436 156.902 309.022 156.605 309.022 155.993V152.15H307.519V155.759C307.519 157.307 308.365 158.135 310.048 158.135C311.704 158.135 312.559 157.307 312.559 155.759V152.15ZM316.394 155.192L316.493 155.237C316.628 155.219 316.781 155.21 316.934 155.21C317.609 155.21 318.032 155.417 318.032 156.146C318.032 156.677 317.726 157.037 317.186 157.037C316.655 157.037 316.34 156.74 316.304 156.2H314.954V156.326C315.017 157.541 315.845 158.135 317.15 158.135C318.437 158.135 319.409 157.514 319.409 156.056V155.966C319.409 155.093 318.842 154.436 317.978 154.292L319.139 152.96V152.15H315.197V153.275H316.403C316.601 153.275 317.267 153.275 317.465 153.248V153.266C317.24 153.482 316.934 153.851 316.754 154.058L316.25 154.625L316.394 155.192ZM321.789 156.002H325.137V154.742H321.789V156.002ZM330.459 156.38C331.764 156.38 332.763 155.669 332.763 154.373V154.229C332.763 152.888 331.728 152.15 330.54 152.15H327.84V158H329.334V156.38H330.459ZM330.387 153.293C331.044 153.293 331.269 153.698 331.269 154.301C331.269 154.841 331.026 155.228 330.342 155.228H329.334V153.293H330.387ZM334.867 155.876C334.867 155.291 335.002 154.832 335.803 154.832H336.379V153.518C336.262 153.482 336.064 153.464 335.929 153.464C335.353 153.464 334.849 153.815 334.786 154.454H334.759L334.498 153.5H333.454V158H334.867V155.876ZM339.093 153.356C337.797 153.356 336.771 154.274 336.771 155.687V155.84C336.771 157.28 337.878 158.144 339.147 158.144C340.182 158.144 341.1 157.64 341.316 156.596H339.993C339.858 156.947 339.552 157.064 339.183 157.064C338.598 157.064 338.274 156.659 338.211 156.092H341.307C341.316 155.993 341.325 155.777 341.325 155.597C341.325 154.085 340.254 153.356 339.093 153.356ZM338.238 155.192C338.31 154.724 338.58 154.364 339.129 154.364C339.606 154.364 339.921 154.697 339.921 155.192H338.238ZM344.333 154.481C344.801 154.481 345.116 154.76 345.215 155.264H346.502V155.147C346.403 153.995 345.413 153.356 344.27 153.356C342.974 153.356 341.921 154.301 341.921 155.669V155.84C341.921 157.253 343.01 158.144 344.279 158.144C345.359 158.144 346.385 157.505 346.502 156.353V156.236H345.215C345.098 156.767 344.837 157.019 344.333 157.019C343.658 157.019 343.352 156.479 343.352 155.75C343.352 155.03 343.658 154.481 344.333 154.481ZM348.766 152.258C348.766 151.79 348.37 151.511 347.902 151.511C347.425 151.511 347.038 151.79 347.038 152.258V152.321C347.038 152.789 347.425 153.05 347.902 153.05C348.37 153.05 348.766 152.789 348.766 152.321V152.258ZM348.613 158V153.5H347.191V158H348.613ZM349.418 155.84C349.418 157.28 350.525 158.144 351.839 158.144C353.108 158.144 354.224 157.28 354.224 155.831V155.66C354.224 154.22 353.117 153.356 351.821 153.356C350.525 153.356 349.418 154.22 349.418 155.669V155.84ZM350.903 155.732C350.903 155.057 351.191 154.526 351.821 154.526C352.451 154.526 352.739 155.075 352.739 155.759C352.739 156.434 352.451 156.965 351.821 156.965C351.191 156.965 350.903 156.416 350.903 155.732ZM357.764 155.192L357.863 155.237C357.998 155.219 358.151 155.21 358.304 155.21C358.979 155.21 359.402 155.417 359.402 156.146C359.402 156.677 359.096 157.037 358.556 157.037C358.025 157.037 357.71 156.74 357.674 156.2H356.324V156.326C356.387 157.541 357.215 158.135 358.52 158.135C359.807 158.135 360.779 157.514 360.779 156.056V155.966C360.779 155.093 360.212 154.436 359.348 154.292L360.509 152.96V152.15H356.567V153.275H357.773C357.971 153.275 358.637 153.275 358.835 153.248V153.266C358.61 153.482 358.304 153.851 358.124 154.058L357.62 154.625L357.764 155.192ZM296.423 164.923C296.423 165.328 296.63 165.769 296.873 166.012C297.305 166.444 298.241 166.57 298.889 166.813C299.402 166.984 299.501 167.146 299.501 167.461C299.501 167.794 299.186 168.055 298.682 168.055C298.142 168.055 297.782 167.839 297.755 167.308H296.306V167.434C296.423 168.685 297.395 169.135 298.628 169.135C299.762 169.135 300.959 168.667 300.959 167.263V167.173C300.959 166.732 300.743 166.291 300.5 166.048C300.068 165.616 299.168 165.427 298.574 165.265C298.178 165.157 297.917 165.049 297.917 164.662C297.917 164.347 298.169 164.131 298.673 164.131C299.186 164.131 299.393 164.392 299.42 164.725H300.833V164.608C300.734 163.456 299.762 163.042 298.628 163.042C297.566 163.042 296.423 163.51 296.423 164.833V164.923ZM305.368 169H307.051V168.838L304.774 165.913L306.952 163.312V163.15H305.35L303.388 165.508V163.15H301.903V169H303.388V166.408L305.368 169ZM312.559 163.15H311.101V166.993C311.101 167.605 310.633 167.902 310.084 167.902C309.436 167.902 309.022 167.605 309.022 166.993V163.15H307.519V166.759C307.519 168.307 308.365 169.135 310.048 169.135C311.704 169.135 312.559 168.307 312.559 166.759V163.15ZM314.981 167.578H317.744V169H319.175V167.578H320.039V166.435H319.175V163.15H317.726L314.864 166.795L314.981 167.578ZM316.925 166.435C316.772 166.435 316.583 166.435 316.484 166.462V166.444C316.592 166.309 316.718 166.138 316.817 165.994L317.537 165.04C317.672 164.869 317.762 164.671 317.843 164.518H317.861C317.843 164.734 317.834 164.941 317.834 165.148V166.435H316.925ZM322.308 167.002H325.656V165.742H322.308V167.002ZM330.977 167.38C332.282 167.38 333.281 166.669 333.281 165.373V165.229C333.281 163.888 332.246 163.15 331.058 163.15H328.358V169H329.852V167.38H330.977ZM330.905 164.293C331.562 164.293 331.787 164.698 331.787 165.301C331.787 165.841 331.544 166.228 330.86 166.228H329.852V164.293H330.905ZM335.385 166.876C335.385 166.291 335.52 165.832 336.321 165.832H336.897V164.518C336.78 164.482 336.582 164.464 336.447 164.464C335.871 164.464 335.367 164.815 335.304 165.454H335.277L335.016 164.5H333.972V169H335.385V166.876ZM339.611 164.356C338.315 164.356 337.289 165.274 337.289 166.687V166.84C337.289 168.28 338.396 169.144 339.665 169.144C340.7 169.144 341.618 168.64 341.834 167.596H340.511C340.376 167.947 340.07 168.064 339.701 168.064C339.116 168.064 338.792 167.659 338.729 167.092H341.825C341.834 166.993 341.843 166.777 341.843 166.597C341.843 165.085 340.772 164.356 339.611 164.356ZM338.756 166.192C338.828 165.724 339.098 165.364 339.647 165.364C340.124 165.364 340.439 165.697 340.439 166.192H338.756ZM344.852 165.481C345.32 165.481 345.635 165.76 345.734 166.264H347.021V166.147C346.922 164.995 345.932 164.356 344.789 164.356C343.493 164.356 342.44 165.301 342.44 166.669V166.84C342.44 168.253 343.529 169.144 344.798 169.144C345.878 169.144 346.904 168.505 347.021 167.353V167.236H345.734C345.617 167.767 345.356 168.019 344.852 168.019C344.177 168.019 343.871 167.479 343.871 166.75C343.871 166.03 344.177 165.481 344.852 165.481ZM349.284 163.258C349.284 162.79 348.888 162.511 348.42 162.511C347.943 162.511 347.556 162.79 347.556 163.258V163.321C347.556 163.789 347.943 164.05 348.42 164.05C348.888 164.05 349.284 163.789 349.284 163.321V163.258ZM349.131 169V164.5H347.709V169H349.131ZM349.937 166.84C349.937 168.28 351.044 169.144 352.358 169.144C353.627 169.144 354.743 168.28 354.743 166.831V166.66C354.743 165.22 353.636 164.356 352.34 164.356C351.044 164.356 349.937 165.22 349.937 166.669V166.84ZM351.422 166.732C351.422 166.057 351.71 165.526 352.34 165.526C352.97 165.526 353.258 166.075 353.258 166.759C353.258 167.434 352.97 167.965 352.34 167.965C351.71 167.965 351.422 167.416 351.422 166.732ZM356.869 167.578H359.632V169H361.063V167.578H361.927V166.435H361.063V163.15H359.614L356.752 166.795L356.869 167.578ZM358.813 166.435C358.66 166.435 358.471 166.435 358.372 166.462V166.444C358.48 166.309 358.606 166.138 358.705 165.994L359.425 165.04C359.56 164.869 359.65 164.671 359.731 164.518H359.749C359.731 164.734 359.722 164.941 359.722 165.148V166.435H358.813ZM298.439 180.208C298.439 179.704 298.052 179.398 297.557 179.398C297.062 179.398 296.675 179.704 296.675 180.208V180.28C296.675 180.793 297.062 181.072 297.557 181.072C298.052 181.072 298.439 180.793 298.439 180.28V180.208ZM301.55 180.208C301.55 179.704 301.163 179.398 300.668 179.398C300.173 179.398 299.786 179.704 299.786 180.208V180.28C299.786 180.793 300.173 181.072 300.668 181.072C301.163 181.072 301.55 180.793 301.55 180.28V180.208ZM304.662 180.208C304.662 179.704 304.275 179.398 303.78 179.398C303.285 179.398 302.898 179.704 302.898 180.208V180.28C302.898 180.793 303.285 181.072 303.78 181.072C304.275 181.072 304.662 180.793 304.662 180.28V180.208ZM296.423 187.923C296.423 188.328 296.63 188.769 296.873 189.012C297.305 189.444 298.241 189.57 298.889 189.813C299.402 189.984 299.501 190.146 299.501 190.461C299.501 190.794 299.186 191.055 298.682 191.055C298.142 191.055 297.782 190.839 297.755 190.308H296.306V190.434C296.423 191.685 297.395 192.135 298.628 192.135C299.762 192.135 300.959 191.667 300.959 190.263V190.173C300.959 189.732 300.743 189.291 300.5 189.048C300.068 188.616 299.168 188.427 298.574 188.265C298.178 188.157 297.917 188.049 297.917 187.662C297.917 187.347 298.169 187.131 298.673 187.131C299.186 187.131 299.393 187.392 299.42 187.725H300.833V187.608C300.734 186.456 299.762 186.042 298.628 186.042C297.566 186.042 296.423 186.51 296.423 187.833V187.923ZM305.368 192H307.051V191.838L304.774 188.913L306.952 186.312V186.15H305.35L303.388 188.508V186.15H301.903V192H303.388V189.408L305.368 192ZM312.559 186.15H311.101V189.993C311.101 190.605 310.633 190.902 310.084 190.902C309.436 190.902 309.022 190.605 309.022 189.993V186.15H307.519V189.759C307.519 191.307 308.365 192.135 310.048 192.135C311.704 192.135 312.559 191.307 312.559 189.759V186.15ZM318.326 189.39C318.326 188.814 318.605 188.535 319.064 188.535C319.46 188.535 319.757 188.787 319.757 189.39V192H321.17V188.967C321.17 188.094 320.648 187.365 319.541 187.365C318.965 187.365 318.524 187.581 318.209 188.085H318.191L318.011 187.5H316.913V192H318.326V189.39ZM323.697 190.002H327.045V188.742H323.697V190.002ZM332.366 190.38C333.671 190.38 334.67 189.669 334.67 188.373V188.229C334.67 186.888 333.635 186.15 332.447 186.15H329.747V192H331.241V190.38H332.366ZM332.294 187.293C332.951 187.293 333.176 187.698 333.176 188.301C333.176 188.841 332.933 189.228 332.249 189.228H331.241V187.293H332.294ZM336.774 189.876C336.774 189.291 336.909 188.832 337.71 188.832H338.286V187.518C338.169 187.482 337.971 187.464 337.836 187.464C337.26 187.464 336.756 187.815 336.693 188.454H336.666L336.405 187.5H335.361V192H336.774V189.876ZM341 187.356C339.704 187.356 338.678 188.274 338.678 189.687V189.84C338.678 191.28 339.785 192.144 341.054 192.144C342.089 192.144 343.007 191.64 343.223 190.596H341.9C341.765 190.947 341.459 191.064 341.09 191.064C340.505 191.064 340.181 190.659 340.118 190.092H343.214C343.223 189.993 343.232 189.777 343.232 189.597C343.232 188.085 342.161 187.356 341 187.356ZM340.145 189.192C340.217 188.724 340.487 188.364 341.036 188.364C341.513 188.364 341.828 188.697 341.828 189.192H340.145ZM346.24 188.481C346.708 188.481 347.023 188.76 347.122 189.264H348.409V189.147C348.31 187.995 347.32 187.356 346.177 187.356C344.881 187.356 343.828 188.301 343.828 189.669V189.84C343.828 191.253 344.917 192.144 346.186 192.144C347.266 192.144 348.292 191.505 348.409 190.353V190.236H347.122C347.005 190.767 346.744 191.019 346.24 191.019C345.565 191.019 345.259 190.479 345.259 189.75C345.259 189.03 345.565 188.481 346.24 188.481ZM350.673 186.258C350.673 185.79 350.277 185.511 349.809 185.511C349.332 185.511 348.945 185.79 348.945 186.258V186.321C348.945 186.789 349.332 187.05 349.809 187.05C350.277 187.05 350.673 186.789 350.673 186.321V186.258ZM350.52 192V187.5H349.098V192H350.52ZM351.325 189.84C351.325 191.28 352.432 192.144 353.746 192.144C355.015 192.144 356.131 191.28 356.131 189.831V189.66C356.131 188.22 355.024 187.356 353.728 187.356C352.432 187.356 351.325 188.22 351.325 189.669V189.84ZM352.81 189.732C352.81 189.057 353.098 188.526 353.728 188.526C354.358 188.526 354.646 189.075 354.646 189.759C354.646 190.434 354.358 190.965 353.728 190.965C353.098 190.965 352.81 190.416 352.81 189.732ZM359.986 189.39C359.986 188.814 360.265 188.535 360.724 188.535C361.12 188.535 361.417 188.787 361.417 189.39V192H362.83V188.967C362.83 188.094 362.308 187.365 361.201 187.365C360.625 187.365 360.184 187.581 359.869 188.085H359.851L359.671 187.5H358.573V192H359.986V189.39Z" fill="white"/>
<path d="M277.677 48.724C278.649 48.724 279.201 49.18 279.345 50.092H281.325V49.936C281.133 48.112 279.501 47.02 277.581 47.02C275.373 47.02 273.585 48.676 273.585 50.98V51.268C273.585 53.644 275.385 55.18 277.581 55.18C279.573 55.18 281.097 54.064 281.325 52.132V51.964H279.357C279.273 52.864 278.769 53.464 277.677 53.464C276.285 53.464 275.661 52.372 275.661 51.088C275.661 49.816 276.285 48.724 277.677 48.724ZM282.035 51.244C282.035 53.584 283.835 55.18 286.151 55.18C288.467 55.18 290.267 53.584 290.267 51.244V50.956C290.267 48.616 288.455 47.02 286.151 47.02C283.847 47.02 282.035 48.616 282.035 50.956V51.244ZM284.111 51.1C284.111 49.756 284.783 48.688 286.139 48.688C287.519 48.688 288.191 49.756 288.191 51.1C288.191 52.444 287.459 53.512 286.139 53.512C284.843 53.512 284.111 52.444 284.111 51.1ZM296.71 47.2L296.722 50.044C296.722 50.8 296.794 51.856 296.794 52.108H296.77C296.578 51.784 296.122 50.932 295.678 50.296L293.362 47.2H291.502V55H293.434V52.024C293.434 51.388 293.35 50.32 293.35 50.068H293.374C293.566 50.428 294.034 51.22 294.442 51.796L296.866 55H298.642V47.2H296.71ZM299.811 48.796H302.031V55H304.011V48.796H306.147V47.2H299.811V48.796ZM307.31 47.2V55H312.71V53.392H309.29V51.88H312.194V50.236H309.29V48.796H312.71V47.2H307.31ZM315.979 47.2H313.795V47.416L316.231 50.872L313.411 54.784V55H315.547L317.347 52.408L319.027 55H321.223V54.784L318.535 50.836L320.839 47.416V47.2H318.751L317.419 49.432L315.979 47.2ZM321.467 48.796H323.687V55H325.667V48.796H327.803V47.2H321.467V48.796ZM328.171 51.244C328.171 53.584 329.971 55.18 332.287 55.18C334.603 55.18 336.403 53.584 336.403 51.244V50.956C336.403 48.616 334.591 47.02 332.287 47.02C329.983 47.02 328.171 48.616 328.171 50.956V51.244ZM330.247 51.1C330.247 49.756 330.919 48.688 332.275 48.688C333.655 48.688 334.327 49.756 334.327 51.1C334.327 52.444 333.595 53.512 332.275 53.512C330.979 53.512 330.247 52.444 330.247 51.1Z" fill="white"/>
<rect x="288.5" y="115.5" width="101" height="108" rx="9.5" stroke="white"/>
</svg>
