<svg width="703" height="115" viewBox="0 0 703 115" fill="none" xmlns="http://www.w3.org/2000/svg">
<rect width="703" height="115" fill="white"/>
<path d="M371 61C371 56.3406 371 54.0109 371.761 52.1732C372.776 49.7229 374.723 47.7761 377.173 46.7612C379.011 46 381.341 46 386 46H406C410.659 46 412.989 46 414.827 46.7612C417.277 47.7761 419.224 49.7229 420.239 52.1732C421 54.0109 421 56.3406 421 61V81C421 85.6594 421 87.9891 420.239 89.8268C419.224 92.2771 417.277 94.2239 414.827 95.2388C412.989 96 410.659 96 406 96H386C381.341 96 379.011 96 377.173 95.2388C374.723 94.2239 372.776 92.2771 371.761 89.8268C371 87.9891 371 85.6594 371 81V61Z" fill="#142032"/>
<path d="M352.931 30.84C354.671 30.84 356.003 29.892 356.003 28.164V27.972C356.003 26.184 354.623 25.2 353.039 25.2H349.439V33H351.431V30.84H352.931ZM352.835 26.724C353.711 26.724 354.011 27.264 354.011 28.068C354.011 28.788 353.687 29.304 352.775 29.304H351.431V26.724H352.835ZM360.357 26.724C361.233 26.724 361.497 27.252 361.497 27.732C361.497 28.32 361.185 28.848 360.225 28.848H359.025V26.724H360.357ZM363.429 27.684C363.429 26.016 362.049 25.2 360.405 25.2H357.045V33H359.025V30.264H359.661L361.641 33H363.741V32.76L361.725 30.096C362.781 29.748 363.429 28.944 363.429 27.876V27.684ZM364.639 25.2V33H370.039V31.392H366.619V29.88H369.523V28.236H366.619V26.796H370.039V25.2H364.639ZM374.92 26.724C375.892 26.724 376.444 27.18 376.588 28.092H378.568V27.936C378.376 26.112 376.744 25.02 374.824 25.02C372.616 25.02 370.828 26.676 370.828 28.98V29.268C370.828 31.644 372.628 33.18 374.824 33.18C376.816 33.18 378.34 32.064 378.568 30.132V29.964H376.6C376.516 30.864 376.012 31.464 374.92 31.464C373.528 31.464 372.904 30.372 372.904 29.088C372.904 27.816 373.528 26.724 374.92 26.724ZM381.689 33V25.2H379.709V33H381.689ZM382.898 29.244C382.898 31.584 384.698 33.18 387.014 33.18C389.33 33.18 391.13 31.584 391.13 29.244V28.956C391.13 26.616 389.318 25.02 387.014 25.02C384.71 25.02 382.898 26.616 382.898 28.956V29.244ZM384.974 29.1C384.974 27.756 385.646 26.688 387.002 26.688C388.382 26.688 389.054 27.756 389.054 29.1C389.054 30.444 388.322 31.512 387.002 31.512C385.706 31.512 384.974 30.444 384.974 29.1ZM398.181 26.724C399.153 26.724 399.705 27.18 399.849 28.092H401.829V27.936C401.637 26.112 400.005 25.02 398.085 25.02C395.877 25.02 394.089 26.676 394.089 28.98V29.268C394.089 31.644 395.889 33.18 398.085 33.18C400.077 33.18 401.601 32.064 401.829 30.132V29.964H399.861C399.777 30.864 399.273 31.464 398.181 31.464C396.789 31.464 396.165 30.372 396.165 29.088C396.165 27.816 396.789 26.724 398.181 26.724ZM406.307 27.024C406.403 27.456 406.583 28.008 406.739 28.452L407.339 30.108H405.251L405.851 28.452C406.007 28.008 406.187 27.456 406.283 27.024H406.307ZM408.383 33H410.399V32.784L407.351 25.2H405.215L402.167 32.784V33H404.207L404.699 31.644H407.891L408.383 33ZM411.244 33H416.524V31.428H413.224V25.2H411.244V33ZM421.033 26.724C422.005 26.724 422.557 27.18 422.701 28.092H424.681V27.936C424.489 26.112 422.857 25.02 420.937 25.02C418.729 25.02 416.941 26.676 416.941 28.98V29.268C416.941 31.644 418.741 33.18 420.937 33.18C422.929 33.18 424.453 32.064 424.681 30.132V29.964H422.713C422.629 30.864 422.125 31.464 421.033 31.464C419.641 31.464 419.017 30.372 419.017 29.088C419.017 27.816 419.641 26.724 421.033 26.724ZM432.494 25.2H430.55V30.324C430.55 31.14 429.926 31.536 429.194 31.536C428.33 31.536 427.778 31.14 427.778 30.324V25.2H425.774V30.012C425.774 32.076 426.902 33.18 429.146 33.18C431.354 33.18 432.494 32.076 432.494 30.012V25.2ZM434.107 33H439.387V31.428H436.087V25.2H434.107V33ZM443.877 27.024C443.973 27.456 444.153 28.008 444.309 28.452L444.909 30.108H442.821L443.421 28.452C443.577 28.008 443.757 27.456 443.853 27.024H443.877ZM445.953 33H447.969V32.784L444.921 25.2H442.785L439.737 32.784V33H441.777L442.269 31.644H445.461L445.953 33ZM448.814 25.2V33H452.15C454.118 33 455.954 31.74 455.954 29.244V28.956C455.954 26.496 454.118 25.2 452.162 25.2H448.814ZM452.054 26.748C453.302 26.748 453.902 27.624 453.902 29.064C453.902 30.504 453.338 31.452 452.03 31.452H450.77V26.748H452.054ZM456.75 29.244C456.75 31.584 458.55 33.18 460.866 33.18C463.182 33.18 464.982 31.584 464.982 29.244V28.956C464.982 26.616 463.17 25.02 460.866 25.02C458.562 25.02 456.75 26.616 456.75 28.956V29.244ZM458.826 29.1C458.826 27.756 459.498 26.688 460.854 26.688C462.234 26.688 462.906 27.756 462.906 29.1C462.906 30.444 462.174 31.512 460.854 31.512C459.558 31.512 458.826 30.444 458.826 29.1Z" fill="black"/>
<path d="M263.5 61C263.5 58.6498 263.501 56.9622 263.592 55.6306C263.682 54.3124 263.855 53.4528 264.147 52.7472C265.01 50.6645 266.664 49.0097 268.747 48.147C269.453 47.8547 270.312 47.6816 271.631 47.5917C272.962 47.5008 274.65 47.5 277 47.5H297C299.35 47.5 301.038 47.5008 302.369 47.5917C303.688 47.6816 304.547 47.8547 305.253 48.147C307.336 49.0097 308.99 50.6645 309.853 52.7472C310.145 53.4528 310.318 54.3124 310.408 55.6306C310.499 56.9622 310.5 58.6498 310.5 61V81C310.5 83.3502 310.499 85.0378 310.408 86.3694C310.318 87.6876 310.145 88.5472 309.853 89.2528C308.99 91.3355 307.336 92.9903 305.253 93.853C304.547 94.1453 303.688 94.3184 302.369 94.4083C301.038 94.4992 299.35 94.5 297 94.5H277C274.65 94.5 272.962 94.4992 271.631 94.4083C270.312 94.3184 269.453 94.1453 268.747 93.853C266.664 92.9903 265.01 91.3355 264.147 89.2528C263.855 88.5472 263.682 87.6876 263.592 86.3694C263.501 85.0378 263.5 83.3502 263.5 81V61Z" fill="#142032" stroke="#F71963" stroke-width="3"/>
<path d="M255.939 30.84C257.679 30.84 259.011 29.892 259.011 28.164V27.972C259.011 26.184 257.631 25.2 256.047 25.2H252.447V33H254.439V30.84H255.939ZM255.843 26.724C256.719 26.724 257.019 27.264 257.019 28.068C257.019 28.788 256.695 29.304 255.783 29.304H254.439V26.724H255.843ZM263.365 26.724C264.241 26.724 264.505 27.252 264.505 27.732C264.505 28.32 264.193 28.848 263.233 28.848H262.033V26.724H263.365ZM266.437 27.684C266.437 26.016 265.057 25.2 263.413 25.2H260.053V33H262.033V30.264H262.669L264.649 33H266.749V32.76L264.733 30.096C265.789 29.748 266.437 28.944 266.437 27.876V27.684ZM267.646 25.2V33H273.046V31.392H269.626V29.88H272.53V28.236H269.626V26.796H273.046V25.2H267.646ZM277.927 26.724C278.899 26.724 279.451 27.18 279.595 28.092H281.575V27.936C281.383 26.112 279.751 25.02 277.831 25.02C275.623 25.02 273.835 26.676 273.835 28.98V29.268C273.835 31.644 275.635 33.18 277.831 33.18C279.823 33.18 281.347 32.064 281.575 30.132V29.964H279.607C279.523 30.864 279.019 31.464 277.927 31.464C276.535 31.464 275.911 30.372 275.911 29.088C275.911 27.816 276.535 26.724 277.927 26.724ZM284.697 33V25.2H282.717V33H284.697ZM285.906 29.244C285.906 31.584 287.706 33.18 290.022 33.18C292.338 33.18 294.138 31.584 294.138 29.244V28.956C294.138 26.616 292.326 25.02 290.022 25.02C287.718 25.02 285.906 26.616 285.906 28.956V29.244ZM287.982 29.1C287.982 27.756 288.654 26.688 290.01 26.688C291.39 26.688 292.062 27.756 292.062 29.1C292.062 30.444 291.33 31.512 290.01 31.512C288.714 31.512 287.982 30.444 287.982 29.1ZM297.529 25.2V33H299.509V30.084H302.533V28.44H299.485V26.796H303.049V25.2H297.529ZM306.177 33V25.2H304.197V33H306.177ZM307.218 31.32V32.928C307.614 33.108 308.166 33.18 308.658 33.18C310.542 33.18 311.514 32.244 311.514 30.696V25.2H309.582V30.444C309.582 31.272 309.162 31.524 308.478 31.524C308.142 31.524 307.734 31.476 307.434 31.32H307.218ZM312.742 29.244C312.742 31.584 314.542 33.18 316.858 33.18C319.174 33.18 320.974 31.584 320.974 29.244V28.956C320.974 26.616 319.162 25.02 316.858 25.02C314.554 25.02 312.742 26.616 312.742 28.956V29.244ZM314.818 29.1C314.818 27.756 315.49 26.688 316.846 26.688C318.226 26.688 318.898 27.756 318.898 29.1C318.898 30.444 318.166 31.512 316.846 31.512C315.55 31.512 314.818 30.444 314.818 29.1Z" fill="black"/>
<path d="M338.278 70.806H345.726V68.958H338.278V70.806ZM338.278 73.858H345.726V72.024H338.278V73.858Z" fill="black"/>
</svg>
