<svg width="293" height="115" viewBox="0 0 293 115" fill="none" xmlns="http://www.w3.org/2000/svg">
<rect width="293" height="115" fill="white"/>
<path d="M30 58C30 57.0681 30 56.6022 30.1522 56.2346C30.3552 55.7446 30.7446 55.3552 31.2346 55.1522C31.6022 55 32.0681 55 33 55H147C147.932 55 148.398 55 148.765 55.1522C149.255 55.3552 149.645 55.7446 149.848 56.2346C150 56.6022 150 57.0681 150 58V66C150 66.9319 150 67.3978 149.848 67.7654C149.645 68.2554 149.255 68.6448 148.765 68.8478C148.398 69 147.932 69 147 69H33C32.0681 69 31.6022 69 31.2346 68.8478C30.7446 68.6448 30.3552 68.2554 30.1522 67.7654C30 67.3978 30 66.9319 30 66V58Z" fill="#142032" fill-opacity="0.8"/>
<path d="M77.4343 62.16C77.7243 62.11 78.2743 62.04 78.7443 62.04C79.5043 62.04 80.1843 62.2 80.1843 62.92C80.1843 63.44 79.8343 63.82 79.0243 63.82C78.3743 63.82 77.8343 63.66 77.1943 63.33H77.0243V64.75C77.6643 65.06 78.3643 65.15 79.0843 65.15C80.4043 65.15 81.7443 64.48 81.7443 62.92V62.78C81.7443 61.4 80.3243 60.65 78.8443 60.78L78.9543 59.78H81.4243V58.5H77.6443L77.2743 62.03L77.4343 62.16ZM82.4263 61.85C82.4263 63.79 83.3063 65.15 85.0363 65.15C86.7963 65.15 87.6463 63.79 87.6463 61.85V61.65C87.6463 59.69 86.7663 58.35 85.0363 58.35C83.3063 58.35 82.4263 59.69 82.4263 61.65V61.85ZM85.0263 59.64C85.8363 59.64 86.0163 60.48 86.0163 61.75C86.0163 63.02 85.8063 63.86 85.0463 63.86C84.2863 63.86 84.0463 63.03 84.0463 61.75C84.0463 60.48 84.2563 59.64 85.0263 59.64ZM88.1639 66.27H89.3439L90.4239 63.49V63.33H88.6339L88.1639 66.27ZM91.0005 61.85C91.0005 63.79 91.8805 65.15 93.6105 65.15C95.3705 65.15 96.2205 63.79 96.2205 61.85V61.65C96.2205 59.69 95.3405 58.35 93.6105 58.35C91.8805 58.35 91.0005 59.69 91.0005 61.65V61.85ZM93.6005 59.64C94.4105 59.64 94.5905 60.48 94.5905 61.75C94.5905 63.02 94.3805 63.86 93.6205 63.86C92.8605 63.86 92.6205 63.03 92.6205 61.75C92.6205 60.48 92.8305 59.64 93.6005 59.64ZM96.9185 61.85C96.9185 63.79 97.7985 65.15 99.5285 65.15C101.289 65.15 102.139 63.79 102.139 61.85V61.65C102.139 59.69 101.259 58.35 99.5285 58.35C97.7985 58.35 96.9185 59.69 96.9185 61.65V61.85ZM99.5185 59.64C100.329 59.64 100.509 60.48 100.509 61.75C100.509 63.02 100.299 63.86 99.5385 63.86C98.7785 63.86 98.5385 63.03 98.5385 61.75C98.5385 60.48 98.7485 59.64 99.5185 59.64Z" fill="white"/>
<line x1="10" y1="51.5" x2="267" y2="51.5" stroke="black"/>
<line x1="30.5" y1="45" x2="30.5" y2="51" stroke="black"/>
<line x1="70.5" y1="45" x2="70.5" y2="51" stroke="black"/>
<line x1="150.5" y1="45" x2="150.5" y2="51" stroke="black"/>
<line x1="230.5" y1="45" x2="230.5" y2="51" stroke="black"/>
<path d="M66.9972 41V31.844H65.1632C64.9392 33.048 64.0852 33.174 63.0072 33.244V34.798H64.7432V41H66.9972ZM75.1498 34.56C75.1498 32.614 73.7218 31.69 71.8738 31.69C70.1938 31.69 68.5698 32.586 68.5698 34.476C68.5698 34.938 68.6538 35.4 68.7518 35.624H70.7538V35.372C70.6978 35.106 70.6698 34.812 70.6698 34.63C70.6698 33.902 71.0898 33.426 71.8178 33.426C72.6018 33.426 72.9658 33.888 72.9658 34.616C72.9658 35.456 72.6858 35.974 72.0838 36.59C71.0198 37.696 69.9418 38.676 68.5978 39.754V41H75.3458V39.138H73.3438C73.0638 39.138 72.2658 39.152 71.9858 39.194V39.166C73.3998 38.004 75.1498 36.548 75.1498 34.756V34.56Z" fill="black"/>
<path d="M148.052 41V31.844H146.218C145.994 33.048 145.14 33.174 144.062 33.244V34.798H145.798V41H148.052ZM149.484 38.06C149.61 40.118 150.982 41.21 153.068 41.21C154.916 41.21 156.61 40.076 156.61 38.032V37.864C156.61 36.086 155.238 34.91 153.67 34.91C153.53 34.91 152.942 34.952 152.802 35.022L152.788 35.008C153.418 34 154.79 32.824 155.616 32.152V31.9H153.11C152.214 32.67 151.64 33.258 151.066 34.028C149.946 35.498 149.484 36.814 149.484 37.766V38.06ZM153.096 36.646C154.048 36.646 154.454 37.262 154.454 38.032C154.454 38.774 154.048 39.46 153.11 39.46C152.144 39.46 151.71 38.816 151.71 38.074C151.71 37.304 152.13 36.646 153.096 36.646Z" fill="black"/>
<path d="M28.8741 41V31.844H27.0401C26.8161 33.048 25.9621 33.174 24.8841 33.244V34.798H26.6201V41H28.8741ZM30.3767 36.59C30.3767 39.306 31.6087 41.21 34.0307 41.21C36.4947 41.21 37.6847 39.306 37.6847 36.59V36.31C37.6847 33.566 36.4527 31.69 34.0307 31.69C31.6087 31.69 30.3767 33.566 30.3767 36.31V36.59ZM34.0167 33.496C35.1507 33.496 35.4027 34.672 35.4027 36.45C35.4027 38.228 35.1087 39.404 34.0447 39.404C32.9807 39.404 32.6447 38.242 32.6447 36.45C32.6447 34.672 32.9387 33.496 34.0167 33.496Z" fill="black"/>
<path d="M266.165 49.25L269.915 51.4151L266.165 53.5801L266.165 49.25Z" fill="black"/>
<path d="M70 73C70 72.0681 70 71.6022 70.1522 71.2346C70.3552 70.7446 70.7446 70.3552 71.2346 70.1522C71.6022 70 72.0681 70 73 70H227C227.932 70 228.398 70 228.765 70.1522C229.255 70.3552 229.645 70.7446 229.848 71.2346C230 71.6022 230 72.0681 230 73V81C230 81.9319 230 82.3978 229.848 82.7654C229.645 83.2554 229.255 83.6448 228.765 83.8478C228.398 84 227.932 84 227 84H73C72.0681 84 71.6022 84 71.2346 83.8478C70.7446 83.6448 70.3552 83.2554 70.1522 82.7654C70 82.3978 70 81.9319 70 81V73Z" fill="#F71963" fill-opacity="0.8"/>
<path d="M141.768 75.4C141.768 74.01 140.748 73.35 139.428 73.35C138.228 73.35 137.068 73.99 137.068 75.34C137.068 75.67 137.128 76 137.198 76.16H138.628V75.98C138.588 75.79 138.568 75.58 138.568 75.45C138.568 74.93 138.868 74.59 139.388 74.59C139.948 74.59 140.208 74.92 140.208 75.44C140.208 76.04 140.008 76.41 139.578 76.85C138.818 77.64 138.048 78.34 137.088 79.11V80H141.908V78.67H140.478C140.278 78.67 139.708 78.68 139.508 78.71V78.69C140.518 77.86 141.768 76.82 141.768 75.54V75.4ZM143.1 77.16C143.39 77.11 143.94 77.04 144.41 77.04C145.17 77.04 145.85 77.2 145.85 77.92C145.85 78.44 145.5 78.82 144.69 78.82C144.04 78.82 143.5 78.66 142.86 78.33H142.69V79.75C143.33 80.06 144.03 80.15 144.75 80.15C146.07 80.15 147.41 79.48 147.41 77.92V77.78C147.41 76.4 145.99 75.65 144.51 75.78L144.62 74.78H147.09V73.5H143.31L142.94 77.03L143.1 77.16ZM148.009 81.27H149.189L150.269 78.49V78.33H148.479L148.009 81.27ZM150.846 76.85C150.846 78.79 151.726 80.15 153.456 80.15C155.216 80.15 156.066 78.79 156.066 76.85V76.65C156.066 74.69 155.186 73.35 153.456 73.35C151.726 73.35 150.846 74.69 150.846 76.65V76.85ZM153.446 74.64C154.256 74.64 154.436 75.48 154.436 76.75C154.436 78.02 154.226 78.86 153.466 78.86C152.706 78.86 152.466 78.03 152.466 76.75C152.466 75.48 152.676 74.64 153.446 74.64ZM156.764 76.85C156.764 78.79 157.644 80.15 159.374 80.15C161.134 80.15 161.984 78.79 161.984 76.85V76.65C161.984 74.69 161.104 73.35 159.374 73.35C157.644 73.35 156.764 74.69 156.764 76.65V76.85ZM159.364 74.64C160.174 74.64 160.354 75.48 160.354 76.75C160.354 78.02 160.144 78.86 159.384 78.86C158.624 78.86 158.384 78.03 158.384 76.75C158.384 75.48 158.594 74.64 159.364 74.64Z" fill="white"/>
<path d="M230.58 34.56C230.58 32.614 229.152 31.69 227.304 31.69C225.624 31.69 224 32.586 224 34.476C224 34.938 224.084 35.4 224.182 35.624H226.184V35.372C226.128 35.106 226.1 34.812 226.1 34.63C226.1 33.902 226.52 33.426 227.248 33.426C228.032 33.426 228.396 33.888 228.396 34.616C228.396 35.456 228.116 35.974 227.514 36.59C226.45 37.696 225.372 38.676 224.028 39.754V41H230.776V39.138H228.774C228.494 39.138 227.696 39.152 227.416 39.194V39.166C228.83 38.004 230.58 36.548 230.58 34.756V34.56ZM231.764 36.59C231.764 39.306 232.996 41.21 235.418 41.21C237.882 41.21 239.072 39.306 239.072 36.59V36.31C239.072 33.566 237.84 31.69 235.418 31.69C232.996 31.69 231.764 33.566 231.764 36.31V36.59ZM235.404 33.496C236.538 33.496 236.79 34.672 236.79 36.45C236.79 38.228 236.496 39.404 235.432 39.404C234.368 39.404 234.032 38.242 234.032 36.45C234.032 34.672 234.326 33.496 235.404 33.496Z" fill="black"/>
</svg>
