<svg width="902" height="167" viewBox="0 0 902 167" fill="none" xmlns="http://www.w3.org/2000/svg">
<rect width="902" height="167" fill="white"/>
<rect x="44" y="33" width="111" height="101" fill="#FFE0EF"/>
<path d="M61.2256 78L56.8746 65.08H54.3286L49.9776 78H52.0296L52.9796 74.922H58.1666L59.1356 78H61.2256ZM55.5826 66.619L57.6726 73.345H53.4736L55.5826 66.619ZM65.9859 78.19C67.6959 78.19 68.6649 77.221 69.1589 75.283H69.1969V78H70.9259V65.08H69.1969V71.141H69.1589C68.7409 69.108 67.5059 68.443 65.8529 68.443C63.7059 68.443 62.0339 70.02 62.0339 73.25C62.0339 76.518 63.8009 78.19 65.9859 78.19ZM66.4989 76.651C64.9789 76.651 63.8769 75.53 63.8769 73.25C63.8769 71.046 64.9409 69.963 66.4989 69.963C68.0759 69.963 69.1399 71.065 69.1399 73.25C69.1399 75.511 68.0379 76.651 66.4989 76.651ZM74.6836 67.17C75.4436 67.17 75.8616 66.714 75.8616 66.03C75.8616 65.327 75.4436 64.871 74.6836 64.871C73.9426 64.871 73.5056 65.327 73.5056 66.03C73.5056 66.714 73.9426 67.17 74.6836 67.17ZM75.5386 78V68.614H73.7906V78H75.5386ZM82.6251 78.19C84.9811 78.19 86.5581 76.974 86.8811 74.675L85.2091 74.371C84.8291 75.948 83.9741 76.651 82.7011 76.651C81.1431 76.651 79.9081 75.72 79.9081 73.345C79.9081 71.084 81.0671 69.963 82.7011 69.963C84.0311 69.963 84.9051 70.59 85.1331 72.11L86.8431 71.749C86.5011 69.507 84.9051 68.424 82.7581 68.424C80.0981 68.424 78.0651 70.134 78.0651 73.326C78.0651 76.575 80.0411 78.19 82.6251 78.19ZM90.0839 67.17C90.8439 67.17 91.2619 66.714 91.2619 66.03C91.2619 65.327 90.8439 64.871 90.0839 64.871C89.3429 64.871 88.9059 65.327 88.9059 66.03C88.9059 66.714 89.3429 67.17 90.0839 67.17ZM90.9389 78V68.614H89.1909V78H90.9389ZM98.1015 78.19C100.666 78.19 102.699 76.499 102.699 73.307C102.699 70.096 100.666 68.405 98.1015 68.405C95.5175 68.405 93.4655 70.096 93.4655 73.307C93.4655 76.499 95.5175 78.19 98.1015 78.19ZM98.1015 76.651C96.4295 76.651 95.3085 75.435 95.3085 73.307C95.3085 71.16 96.4295 69.963 98.1015 69.963C99.7735 69.963 100.875 71.16 100.875 73.307C100.875 75.435 99.7735 76.651 98.1015 76.651ZM106.837 78V72.281C106.837 70.837 107.597 69.963 109.155 69.963C110.58 69.963 111.283 70.818 111.283 72.281V78H113.031V72.167C113.031 69.602 111.853 68.405 109.782 68.405C108.205 68.405 107.16 69.241 106.799 70.989H106.742V68.614H105.089V78H106.837ZM119.525 68.405C117.302 68.405 115.839 69.545 115.497 71.293L117.15 71.844C117.34 70.571 118.29 69.944 119.43 69.944C120.779 69.944 121.634 70.628 121.672 72.186L118.974 72.585C117.036 72.851 115.193 73.478 115.193 75.549C115.193 77.316 116.447 78.19 118.195 78.19C119.867 78.19 121.273 77.202 121.729 75.188H121.767V78H123.42V72.357C123.42 69.735 121.9 68.405 119.525 68.405ZM118.594 76.689C117.663 76.689 116.998 76.309 116.998 75.397C116.998 74.314 118.005 74.048 119.24 73.858L121.691 73.497V73.516C121.691 74.922 120.494 76.689 118.594 76.689ZM127.897 78V65.08H126.149V78H127.897ZM138.866 72.965C138.866 70.039 137.365 68.405 134.781 68.405C131.931 68.405 130.278 70.476 130.278 73.497C130.278 76.442 131.836 78.19 134.686 78.19C137.004 78.19 138.448 77.05 138.809 75.245L137.194 74.846C136.947 76.138 136.035 76.727 134.724 76.727C132.995 76.727 132.121 75.663 132.102 73.421H138.847C138.847 73.326 138.866 73.269 138.866 72.965ZM134.705 69.83C136.149 69.83 136.966 70.742 137.004 72.205H132.197C132.463 70.647 133.337 69.83 134.705 69.83ZM144.732 78.19C147.145 78.19 148.684 77.088 148.684 75.055C148.684 73.136 147.088 72.756 145.511 72.49L144.143 72.281C143.231 72.129 142.604 71.901 142.604 71.103C142.604 70.248 143.364 69.811 144.409 69.811C145.625 69.811 146.442 70.381 146.594 71.616L148.323 71.236C148.095 69.374 146.461 68.424 144.485 68.424C142.376 68.424 140.818 69.469 140.818 71.236C140.818 72.927 142.186 73.459 143.478 73.687L144.979 73.915C146.176 74.105 146.898 74.352 146.898 75.264C146.898 76.214 146.138 76.784 144.675 76.784C143.364 76.784 142.471 76.138 142.319 74.694L140.514 75.074C140.666 77.145 142.338 78.19 144.732 78.19ZM71.4688 101.19C73.1788 101.19 74.1478 100.221 74.6418 98.283H74.6798V101H76.4088V88.08H74.6798V94.141H74.6418C74.2238 92.108 72.9888 91.443 71.3358 91.443C69.1888 91.443 67.5168 93.02 67.5168 96.25C67.5168 99.518 69.2838 101.19 71.4688 101.19ZM71.9818 99.651C70.4618 99.651 69.3598 98.53 69.3598 96.25C69.3598 94.046 70.4238 92.963 71.9818 92.963C73.5588 92.963 74.6228 94.065 74.6228 96.25C74.6228 98.511 73.5208 99.651 71.9818 99.651ZM87.3675 95.965C87.3675 93.039 85.8665 91.405 83.2825 91.405C80.4325 91.405 78.7795 93.476 78.7795 96.497C78.7795 99.442 80.3375 101.19 83.1875 101.19C85.5055 101.19 86.9495 100.05 87.3105 98.245L85.6955 97.846C85.4485 99.138 84.5365 99.727 83.2255 99.727C81.4965 99.727 80.6225 98.663 80.6035 96.421H87.3485C87.3485 96.326 87.3675 96.269 87.3675 95.965ZM83.2065 92.83C84.6505 92.83 85.4675 93.742 85.5055 95.205H80.6985C80.9645 93.647 81.8385 92.83 83.2065 92.83ZM98.7275 89.258C99.2025 89.258 99.5635 89.334 99.8105 89.429L99.6775 88.061C99.2595 87.928 98.6895 87.89 98.3285 87.89C96.6945 87.89 95.4405 88.84 95.4405 90.797V91.614H93.4455V93.077H95.4405V101H97.1885V93.077H99.6965V91.614H97.1885V90.873C97.1885 89.6 97.7585 89.258 98.7275 89.258ZM101.407 101H103.155V88.08H101.407V101ZM114.123 95.965C114.123 93.039 112.622 91.405 110.038 91.405C107.188 91.405 105.535 93.476 105.535 96.497C105.535 99.442 107.093 101.19 109.943 101.19C112.261 101.19 113.705 100.05 114.066 98.245L112.451 97.846C112.204 99.138 111.292 99.727 109.981 99.727C108.252 99.727 107.378 98.663 107.359 96.421H114.104C114.104 96.326 114.123 96.269 114.123 95.965ZM109.962 92.83C111.406 92.83 112.223 93.742 112.261 95.205H107.454C107.72 93.647 108.594 92.83 109.962 92.83ZM120.027 99.67C119.229 99.67 118.83 99.423 118.83 98.511V93.077H121.452V91.614H118.83V89.011H117.652C117.5 90.854 116.93 91.614 115.505 92.013V93.077H117.082V98.891C117.082 100.639 118.051 101.19 119.552 101.19C120.217 101.19 120.863 101.095 121.357 100.962L121.585 99.423C121.186 99.537 120.635 99.67 120.027 99.67ZM131.583 95.965C131.583 93.039 130.082 91.405 127.498 91.405C124.648 91.405 122.995 93.476 122.995 96.497C122.995 99.442 124.553 101.19 127.403 101.19C129.721 101.19 131.165 100.05 131.526 98.245L129.911 97.846C129.664 99.138 128.752 99.727 127.441 99.727C125.712 99.727 124.838 98.663 124.819 96.421H131.564C131.564 96.326 131.583 96.269 131.583 95.965ZM127.422 92.83C128.866 92.83 129.683 93.742 129.721 95.205H124.914C125.18 93.647 126.054 92.83 127.422 92.83Z" fill="black"/>
<rect x="396" y="33" width="111" height="101" fill="#FFE0EF"/>
<path d="M421.817 77L417.237 63.4H414.557L409.977 77H412.137L413.137 73.76H418.597L419.617 77H421.817ZM415.877 65.02L418.077 72.1H413.657L415.877 65.02ZM426.827 77.2C428.627 77.2 429.647 76.18 430.167 74.14H430.207V77H432.027V63.4H430.207V69.78H430.167C429.727 67.64 428.427 66.94 426.687 66.94C424.427 66.94 422.667 68.6 422.667 72C422.667 75.44 424.527 77.2 426.827 77.2ZM427.367 75.58C425.767 75.58 424.607 74.4 424.607 72C424.607 69.68 425.727 68.54 427.367 68.54C429.027 68.54 430.147 69.7 430.147 72C430.147 74.38 428.987 75.58 427.367 75.58ZM435.983 65.6C436.783 65.6 437.223 65.12 437.223 64.4C437.223 63.66 436.783 63.18 435.983 63.18C435.203 63.18 434.743 63.66 434.743 64.4C434.743 65.12 435.203 65.6 435.983 65.6ZM436.883 77V67.12H435.043V77H436.883ZM444.342 77.2C446.822 77.2 448.482 75.92 448.822 73.5L447.062 73.18C446.662 74.84 445.762 75.58 444.422 75.58C442.782 75.58 441.482 74.6 441.482 72.1C441.482 69.72 442.702 68.54 444.422 68.54C445.822 68.54 446.742 69.2 446.982 70.8L448.782 70.42C448.422 68.06 446.742 66.92 444.482 66.92C441.682 66.92 439.542 68.72 439.542 72.08C439.542 75.5 441.622 77.2 444.342 77.2ZM452.194 65.6C452.994 65.6 453.434 65.12 453.434 64.4C453.434 63.66 452.994 63.18 452.194 63.18C451.414 63.18 450.954 63.66 450.954 64.4C450.954 65.12 451.414 65.6 452.194 65.6ZM453.094 77V67.12H451.254V77H453.094ZM460.633 77.2C463.333 77.2 465.473 75.42 465.473 72.06C465.473 68.68 463.333 66.9 460.633 66.9C457.913 66.9 455.753 68.68 455.753 72.06C455.753 75.42 457.913 77.2 460.633 77.2ZM460.633 75.58C458.873 75.58 457.693 74.3 457.693 72.06C457.693 69.8 458.873 68.54 460.633 68.54C462.393 68.54 463.553 69.8 463.553 72.06C463.553 74.3 462.393 75.58 460.633 75.58ZM469.829 77V70.98C469.829 69.46 470.629 68.54 472.269 68.54C473.769 68.54 474.509 69.44 474.509 70.98V77H476.349V70.86C476.349 68.16 475.109 66.9 472.929 66.9C471.269 66.9 470.169 67.78 469.789 69.62H469.729V67.12H467.989V77H469.829ZM483.184 66.9C480.844 66.9 479.304 68.1 478.944 69.94L480.684 70.52C480.884 69.18 481.884 68.52 483.084 68.52C484.504 68.52 485.404 69.24 485.444 70.88L482.604 71.3C480.564 71.58 478.624 72.24 478.624 74.42C478.624 76.28 479.944 77.2 481.784 77.2C483.544 77.2 485.024 76.16 485.504 74.04H485.544V77H487.284V71.06C487.284 68.3 485.684 66.9 483.184 66.9ZM482.204 75.62C481.224 75.62 480.524 75.22 480.524 74.26C480.524 73.12 481.584 72.84 482.884 72.64L485.464 72.26V72.28C485.464 73.76 484.204 75.62 482.204 75.62ZM491.997 77V63.4H490.157V77H491.997ZM413.829 102.2C415.629 102.2 416.649 101.18 417.169 99.14H417.209V102H419.029V88.4H417.209V94.78H417.169C416.729 92.64 415.429 91.94 413.689 91.94C411.429 91.94 409.669 93.6 409.669 97C409.669 100.44 411.529 102.2 413.829 102.2ZM414.369 100.58C412.769 100.58 411.609 99.4 411.609 97C411.609 94.68 412.729 93.54 414.369 93.54C416.029 93.54 417.149 94.7 417.149 97C417.149 99.38 415.989 100.58 414.369 100.58ZM430.565 96.7C430.565 93.62 428.985 91.9 426.265 91.9C423.265 91.9 421.525 94.08 421.525 97.26C421.525 100.36 423.165 102.2 426.165 102.2C428.605 102.2 430.125 101 430.505 99.1L428.805 98.68C428.545 100.04 427.585 100.66 426.205 100.66C424.385 100.66 423.465 99.54 423.445 97.18H430.545C430.545 97.08 430.565 97.02 430.565 96.7ZM426.185 93.4C427.705 93.4 428.565 94.36 428.605 95.9H423.545C423.825 94.26 424.745 93.4 426.185 93.4ZM439.663 105.72V99.04H439.683C440.123 101.48 441.383 102.2 443.123 102.2C445.403 102.2 447.183 100.54 447.183 97.12C447.183 93.68 445.323 91.94 443.003 91.94C441.223 91.94 440.203 92.94 439.683 94.76H439.643V92.12H437.823V105.72H439.663ZM442.483 100.58C440.823 100.58 439.703 99.44 439.703 97.12C439.703 94.74 440.863 93.54 442.483 93.54C444.083 93.54 445.243 94.72 445.243 97.12C445.243 99.44 444.143 100.58 442.483 100.58ZM451.518 102V96.76C451.518 94.84 452.538 93.76 454.358 93.76C454.718 93.76 455.198 93.8 455.478 93.86L455.378 92.04C455.078 91.96 454.678 91.92 454.338 91.92C452.898 91.92 451.978 92.56 451.458 94.98H451.398V92.12H449.678V102H451.518ZM465.37 96.7C465.37 93.62 463.79 91.9 461.07 91.9C458.07 91.9 456.33 94.08 456.33 97.26C456.33 100.36 457.97 102.2 460.97 102.2C463.41 102.2 464.93 101 465.31 99.1L463.61 98.68C463.35 100.04 462.39 100.66 461.01 100.66C459.19 100.66 458.27 99.54 458.25 97.18H465.35C465.35 97.08 465.37 97.02 465.37 96.7ZM460.99 93.4C462.51 93.4 463.37 94.36 463.41 95.9H458.35C458.63 94.26 459.55 93.4 460.99 93.4ZM472.184 102.2C474.664 102.2 476.324 100.92 476.664 98.5L474.904 98.18C474.504 99.84 473.604 100.58 472.264 100.58C470.624 100.58 469.324 99.6 469.324 97.1C469.324 94.72 470.544 93.54 472.264 93.54C473.664 93.54 474.584 94.2 474.824 95.8L476.624 95.42C476.264 93.06 474.584 91.92 472.324 91.92C469.524 91.92 467.384 93.72 467.384 97.08C467.384 100.5 469.464 102.2 472.184 102.2ZM480.036 90.6C480.836 90.6 481.276 90.12 481.276 89.4C481.276 88.66 480.836 88.18 480.036 88.18C479.256 88.18 478.796 88.66 478.796 89.4C478.796 90.12 479.256 90.6 480.036 90.6ZM480.936 102V92.12H479.096V102H480.936ZM488.475 102.2C491.175 102.2 493.315 100.42 493.315 97.06C493.315 93.68 491.175 91.9 488.475 91.9C485.755 91.9 483.595 93.68 483.595 97.06C483.595 100.42 485.755 102.2 488.475 102.2ZM488.475 100.58C486.715 100.58 485.535 99.3 485.535 97.06C485.535 94.8 486.715 93.54 488.475 93.54C490.235 93.54 491.395 94.8 491.395 97.06C491.395 99.3 490.235 100.58 488.475 100.58Z" fill="black"/>
<rect x="225" y="33" width="111" height="101" fill="#FFE0EF"/>
<path d="M250.817 77L246.237 63.4H243.557L238.977 77H241.137L242.137 73.76H247.597L248.617 77H250.817ZM244.877 65.02L247.077 72.1H242.657L244.877 65.02ZM255.827 77.2C257.627 77.2 258.647 76.18 259.167 74.14H259.207V77H261.027V63.4H259.207V69.78H259.167C258.727 67.64 257.427 66.94 255.687 66.94C253.427 66.94 251.667 68.6 251.667 72C251.667 75.44 253.527 77.2 255.827 77.2ZM256.367 75.58C254.767 75.58 253.607 74.4 253.607 72C253.607 69.68 254.727 68.54 256.367 68.54C258.027 68.54 259.147 69.7 259.147 72C259.147 74.38 257.987 75.58 256.367 75.58ZM264.983 65.6C265.783 65.6 266.223 65.12 266.223 64.4C266.223 63.66 265.783 63.18 264.983 63.18C264.203 63.18 263.743 63.66 263.743 64.4C263.743 65.12 264.203 65.6 264.983 65.6ZM265.883 77V67.12H264.043V77H265.883ZM273.342 77.2C275.822 77.2 277.482 75.92 277.822 73.5L276.062 73.18C275.662 74.84 274.762 75.58 273.422 75.58C271.782 75.58 270.482 74.6 270.482 72.1C270.482 69.72 271.702 68.54 273.422 68.54C274.822 68.54 275.742 69.2 275.982 70.8L277.782 70.42C277.422 68.06 275.742 66.92 273.482 66.92C270.682 66.92 268.542 68.72 268.542 72.08C268.542 75.5 270.622 77.2 273.342 77.2ZM281.194 65.6C281.994 65.6 282.434 65.12 282.434 64.4C282.434 63.66 281.994 63.18 281.194 63.18C280.414 63.18 279.954 63.66 279.954 64.4C279.954 65.12 280.414 65.6 281.194 65.6ZM282.094 77V67.12H280.254V77H282.094ZM289.633 77.2C292.333 77.2 294.473 75.42 294.473 72.06C294.473 68.68 292.333 66.9 289.633 66.9C286.913 66.9 284.753 68.68 284.753 72.06C284.753 75.42 286.913 77.2 289.633 77.2ZM289.633 75.58C287.873 75.58 286.693 74.3 286.693 72.06C286.693 69.8 287.873 68.54 289.633 68.54C291.393 68.54 292.553 69.8 292.553 72.06C292.553 74.3 291.393 75.58 289.633 75.58ZM298.829 77V70.98C298.829 69.46 299.629 68.54 301.269 68.54C302.769 68.54 303.509 69.44 303.509 70.98V77H305.349V70.86C305.349 68.16 304.109 66.9 301.929 66.9C300.269 66.9 299.169 67.78 298.789 69.62H298.729V67.12H296.989V77H298.829ZM312.184 66.9C309.844 66.9 308.304 68.1 307.944 69.94L309.684 70.52C309.884 69.18 310.884 68.52 312.084 68.52C313.504 68.52 314.404 69.24 314.444 70.88L311.604 71.3C309.564 71.58 307.624 72.24 307.624 74.42C307.624 76.28 308.944 77.2 310.784 77.2C312.544 77.2 314.024 76.16 314.504 74.04H314.544V77H316.284V71.06C316.284 68.3 314.684 66.9 312.184 66.9ZM311.204 75.62C310.224 75.62 309.524 75.22 309.524 74.26C309.524 73.12 310.584 72.84 311.884 72.64L314.464 72.26V72.28C314.464 73.76 313.204 75.62 311.204 75.62ZM320.997 77V63.4H319.157V77H320.997ZM249.587 102.2C251.387 102.2 252.407 101.18 252.927 99.14H252.967V102H254.787V88.4H252.967V94.78H252.927C252.487 92.64 251.187 91.94 249.447 91.94C247.187 91.94 245.427 93.6 245.427 97C245.427 100.44 247.287 102.2 249.587 102.2ZM250.127 100.58C248.527 100.58 247.367 99.4 247.367 97C247.367 94.68 248.487 93.54 250.127 93.54C251.787 93.54 252.907 94.7 252.907 97C252.907 99.38 251.747 100.58 250.127 100.58ZM266.323 96.7C266.323 93.62 264.743 91.9 262.023 91.9C259.023 91.9 257.283 94.08 257.283 97.26C257.283 100.36 258.923 102.2 261.923 102.2C264.363 102.2 265.883 101 266.263 99.1L264.563 98.68C264.303 100.04 263.343 100.66 261.963 100.66C260.143 100.66 259.223 99.54 259.203 97.18H266.303C266.303 97.08 266.323 97.02 266.323 96.7ZM261.943 93.4C263.463 93.4 264.323 94.36 264.363 95.9H259.303C259.583 94.26 260.503 93.4 261.943 93.4ZM275.421 105.72V99.04H275.441C275.881 101.48 277.141 102.2 278.881 102.2C281.161 102.2 282.941 100.54 282.941 97.12C282.941 93.68 281.081 91.94 278.761 91.94C276.981 91.94 275.961 92.94 275.441 94.76H275.401V92.12H273.581V105.72H275.421ZM278.241 100.58C276.581 100.58 275.461 99.44 275.461 97.12C275.461 94.74 276.621 93.54 278.241 93.54C279.841 93.54 281.001 94.72 281.001 97.12C281.001 99.44 279.901 100.58 278.241 100.58ZM293.862 96.7C293.862 93.62 292.282 91.9 289.562 91.9C286.562 91.9 284.822 94.08 284.822 97.26C284.822 100.36 286.462 102.2 289.462 102.2C291.902 102.2 293.422 101 293.802 99.1L292.102 98.68C291.842 100.04 290.882 100.66 289.502 100.66C287.682 100.66 286.762 99.54 286.742 97.18H293.842C293.842 97.08 293.862 97.02 293.862 96.7ZM289.482 93.4C291.002 93.4 291.862 94.36 291.902 95.9H286.842C287.122 94.26 288.042 93.4 289.482 93.4ZM300.036 102.2C302.576 102.2 304.196 101.04 304.196 98.9C304.196 96.88 302.516 96.48 300.856 96.2L299.416 95.98C298.456 95.82 297.796 95.58 297.796 94.74C297.796 93.84 298.596 93.38 299.696 93.38C300.976 93.38 301.836 93.98 301.996 95.28L303.816 94.88C303.576 92.92 301.856 91.92 299.776 91.92C297.556 91.92 295.916 93.02 295.916 94.88C295.916 96.66 297.356 97.22 298.716 97.46L300.296 97.7C301.556 97.9 302.316 98.16 302.316 99.12C302.316 100.12 301.516 100.72 299.976 100.72C298.596 100.72 297.656 100.04 297.496 98.52L295.596 98.92C295.756 101.1 297.516 102.2 300.036 102.2ZM310.717 102.2C313.417 102.2 315.557 100.42 315.557 97.06C315.557 93.68 313.417 91.9 310.717 91.9C307.997 91.9 305.837 93.68 305.837 97.06C305.837 100.42 307.997 102.2 310.717 102.2ZM310.717 100.58C308.957 100.58 307.777 99.3 307.777 97.06C307.777 94.8 308.957 93.54 310.717 93.54C312.477 93.54 313.637 94.8 313.637 97.06C313.637 99.3 312.477 100.58 310.717 100.58Z" fill="black"/>
<rect x="748" y="33" width="111" height="101" fill="#FFE0EF"/>
<path d="M773.817 77L769.237 63.4H766.557L761.977 77H764.137L765.137 73.76H770.597L771.617 77H773.817ZM767.877 65.02L770.077 72.1H765.657L767.877 65.02ZM778.827 77.2C780.627 77.2 781.647 76.18 782.167 74.14H782.207V77H784.027V63.4H782.207V69.78H782.167C781.727 67.64 780.427 66.94 778.687 66.94C776.427 66.94 774.667 68.6 774.667 72C774.667 75.44 776.527 77.2 778.827 77.2ZM779.367 75.58C777.767 75.58 776.607 74.4 776.607 72C776.607 69.68 777.727 68.54 779.367 68.54C781.027 68.54 782.147 69.7 782.147 72C782.147 74.38 780.987 75.58 779.367 75.58ZM787.983 65.6C788.783 65.6 789.223 65.12 789.223 64.4C789.223 63.66 788.783 63.18 787.983 63.18C787.203 63.18 786.743 63.66 786.743 64.4C786.743 65.12 787.203 65.6 787.983 65.6ZM788.883 77V67.12H787.043V77H788.883ZM796.342 77.2C798.822 77.2 800.482 75.92 800.822 73.5L799.062 73.18C798.662 74.84 797.762 75.58 796.422 75.58C794.782 75.58 793.482 74.6 793.482 72.1C793.482 69.72 794.702 68.54 796.422 68.54C797.822 68.54 798.742 69.2 798.982 70.8L800.782 70.42C800.422 68.06 798.742 66.92 796.482 66.92C793.682 66.92 791.542 68.72 791.542 72.08C791.542 75.5 793.622 77.2 796.342 77.2ZM804.194 65.6C804.994 65.6 805.434 65.12 805.434 64.4C805.434 63.66 804.994 63.18 804.194 63.18C803.414 63.18 802.954 63.66 802.954 64.4C802.954 65.12 803.414 65.6 804.194 65.6ZM805.094 77V67.12H803.254V77H805.094ZM812.633 77.2C815.333 77.2 817.473 75.42 817.473 72.06C817.473 68.68 815.333 66.9 812.633 66.9C809.913 66.9 807.753 68.68 807.753 72.06C807.753 75.42 809.913 77.2 812.633 77.2ZM812.633 75.58C810.873 75.58 809.693 74.3 809.693 72.06C809.693 69.8 810.873 68.54 812.633 68.54C814.393 68.54 815.553 69.8 815.553 72.06C815.553 74.3 814.393 75.58 812.633 75.58ZM821.829 77V70.98C821.829 69.46 822.629 68.54 824.269 68.54C825.769 68.54 826.509 69.44 826.509 70.98V77H828.349V70.86C828.349 68.16 827.109 66.9 824.929 66.9C823.269 66.9 822.169 67.78 821.789 69.62H821.729V67.12H819.989V77H821.829ZM835.184 66.9C832.844 66.9 831.304 68.1 830.944 69.94L832.684 70.52C832.884 69.18 833.884 68.52 835.084 68.52C836.504 68.52 837.404 69.24 837.444 70.88L834.604 71.3C832.564 71.58 830.624 72.24 830.624 74.42C830.624 76.28 831.944 77.2 833.784 77.2C835.544 77.2 837.024 76.16 837.504 74.04H837.544V77H839.284V71.06C839.284 68.3 837.684 66.9 835.184 66.9ZM834.204 75.62C833.224 75.62 832.524 75.22 832.524 74.26C832.524 73.12 833.584 72.84 834.884 72.64L837.464 72.26V72.28C837.464 73.76 836.204 75.62 834.204 75.62ZM843.997 77V63.4H842.157V77H843.997ZM773.993 102.2C775.793 102.2 776.813 101.18 777.333 99.14H777.373V102H779.193V88.4H777.373V94.78H777.333C776.893 92.64 775.593 91.94 773.853 91.94C771.593 91.94 769.833 93.6 769.833 97C769.833 100.44 771.693 102.2 773.993 102.2ZM774.533 100.58C772.933 100.58 771.773 99.4 771.773 97C771.773 94.68 772.893 93.54 774.533 93.54C776.193 93.54 777.313 94.7 777.313 97C777.313 99.38 776.153 100.58 774.533 100.58ZM790.729 96.7C790.729 93.62 789.149 91.9 786.429 91.9C783.429 91.9 781.689 94.08 781.689 97.26C781.689 100.36 783.329 102.2 786.329 102.2C788.769 102.2 790.289 101 790.669 99.1L788.969 98.68C788.709 100.04 787.749 100.66 786.369 100.66C784.549 100.66 783.629 99.54 783.609 97.18H790.709C790.709 97.08 790.729 97.02 790.729 96.7ZM786.349 93.4C787.869 93.4 788.729 94.36 788.769 95.9H783.709C783.989 94.26 784.909 93.4 786.349 93.4ZM802.687 89.64C803.187 89.64 803.567 89.72 803.827 89.82L803.687 88.38C803.247 88.24 802.647 88.2 802.267 88.2C800.547 88.2 799.227 89.2 799.227 91.26V92.12H797.127V93.66H799.227V102H801.067V93.66H803.707V92.12H801.067V91.34C801.067 90 801.667 89.64 802.687 89.64ZM805.507 102H807.347V88.4H805.507V102ZM818.893 96.7C818.893 93.62 817.313 91.9 814.593 91.9C811.593 91.9 809.853 94.08 809.853 97.26C809.853 100.36 811.493 102.2 814.493 102.2C816.933 102.2 818.453 101 818.833 99.1L817.133 98.68C816.873 100.04 815.913 100.66 814.533 100.66C812.713 100.66 811.793 99.54 811.773 97.18H818.873C818.873 97.08 818.893 97.02 818.893 96.7ZM814.513 93.4C816.033 93.4 816.893 94.36 816.933 95.9H811.873C812.153 94.26 813.073 93.4 814.513 93.4ZM825.108 100.6C824.268 100.6 823.848 100.34 823.848 99.38V93.66H826.608V92.12H823.848V89.38H822.608C822.448 91.32 821.848 92.12 820.348 92.54V93.66H822.008V99.78C822.008 101.62 823.028 102.2 824.608 102.2C825.308 102.2 825.988 102.1 826.508 101.96L826.748 100.34C826.328 100.46 825.748 100.6 825.108 100.6ZM837.272 96.7C837.272 93.62 835.692 91.9 832.972 91.9C829.972 91.9 828.232 94.08 828.232 97.26C828.232 100.36 829.872 102.2 832.872 102.2C835.312 102.2 836.832 101 837.212 99.1L835.512 98.68C835.252 100.04 834.292 100.66 832.912 100.66C831.092 100.66 830.172 99.54 830.152 97.18H837.252C837.252 97.08 837.272 97.02 837.272 96.7ZM832.892 93.4C834.412 93.4 835.272 94.36 835.312 95.9H830.252C830.532 94.26 831.452 93.4 832.892 93.4Z" fill="black"/>
<rect x="572" y="33" width="111" height="101" fill="#FFE0EF"/>
<path d="M597.817 77L593.237 63.4H590.557L585.977 77H588.137L589.137 73.76H594.597L595.617 77H597.817ZM591.877 65.02L594.077 72.1H589.657L591.877 65.02ZM602.827 77.2C604.627 77.2 605.647 76.18 606.167 74.14H606.207V77H608.027V63.4H606.207V69.78H606.167C605.727 67.64 604.427 66.94 602.687 66.94C600.427 66.94 598.667 68.6 598.667 72C598.667 75.44 600.527 77.2 602.827 77.2ZM603.367 75.58C601.767 75.58 600.607 74.4 600.607 72C600.607 69.68 601.727 68.54 603.367 68.54C605.027 68.54 606.147 69.7 606.147 72C606.147 74.38 604.987 75.58 603.367 75.58ZM611.983 65.6C612.783 65.6 613.223 65.12 613.223 64.4C613.223 63.66 612.783 63.18 611.983 63.18C611.203 63.18 610.743 63.66 610.743 64.4C610.743 65.12 611.203 65.6 611.983 65.6ZM612.883 77V67.12H611.043V77H612.883ZM620.342 77.2C622.822 77.2 624.482 75.92 624.822 73.5L623.062 73.18C622.662 74.84 621.762 75.58 620.422 75.58C618.782 75.58 617.482 74.6 617.482 72.1C617.482 69.72 618.702 68.54 620.422 68.54C621.822 68.54 622.742 69.2 622.982 70.8L624.782 70.42C624.422 68.06 622.742 66.92 620.482 66.92C617.682 66.92 615.542 68.72 615.542 72.08C615.542 75.5 617.622 77.2 620.342 77.2ZM628.194 65.6C628.994 65.6 629.434 65.12 629.434 64.4C629.434 63.66 628.994 63.18 628.194 63.18C627.414 63.18 626.954 63.66 626.954 64.4C626.954 65.12 627.414 65.6 628.194 65.6ZM629.094 77V67.12H627.254V77H629.094ZM636.633 77.2C639.333 77.2 641.473 75.42 641.473 72.06C641.473 68.68 639.333 66.9 636.633 66.9C633.913 66.9 631.753 68.68 631.753 72.06C631.753 75.42 633.913 77.2 636.633 77.2ZM636.633 75.58C634.873 75.58 633.693 74.3 633.693 72.06C633.693 69.8 634.873 68.54 636.633 68.54C638.393 68.54 639.553 69.8 639.553 72.06C639.553 74.3 638.393 75.58 636.633 75.58ZM645.829 77V70.98C645.829 69.46 646.629 68.54 648.269 68.54C649.769 68.54 650.509 69.44 650.509 70.98V77H652.349V70.86C652.349 68.16 651.109 66.9 648.929 66.9C647.269 66.9 646.169 67.78 645.789 69.62H645.729V67.12H643.989V77H645.829ZM659.184 66.9C656.844 66.9 655.304 68.1 654.944 69.94L656.684 70.52C656.884 69.18 657.884 68.52 659.084 68.52C660.504 68.52 661.404 69.24 661.444 70.88L658.604 71.3C656.564 71.58 654.624 72.24 654.624 74.42C654.624 76.28 655.944 77.2 657.784 77.2C659.544 77.2 661.024 76.16 661.504 74.04H661.544V77H663.284V71.06C663.284 68.3 661.684 66.9 659.184 66.9ZM658.204 75.62C657.224 75.62 656.524 75.22 656.524 74.26C656.524 73.12 657.584 72.84 658.884 72.64L661.464 72.26V72.28C661.464 73.76 660.204 75.62 658.204 75.62ZM667.997 77V63.4H666.157V77H667.997ZM588.101 102.2C589.901 102.2 590.921 101.18 591.441 99.14H591.481V102H593.301V88.4H591.481V94.78H591.441C591.001 92.64 589.701 91.94 587.961 91.94C585.701 91.94 583.941 93.6 583.941 97C583.941 100.44 585.801 102.2 588.101 102.2ZM588.641 100.58C587.041 100.58 585.881 99.4 585.881 97C585.881 94.68 587.001 93.54 588.641 93.54C590.301 93.54 591.421 94.7 591.421 97C591.421 99.38 590.261 100.58 588.641 100.58ZM604.836 96.7C604.836 93.62 603.256 91.9 600.536 91.9C597.536 91.9 595.796 94.08 595.796 97.26C595.796 100.36 597.436 102.2 600.436 102.2C602.876 102.2 604.396 101 604.776 99.1L603.076 98.68C602.816 100.04 601.856 100.66 600.476 100.66C598.656 100.66 597.736 99.54 597.716 97.18H604.816C604.816 97.08 604.836 97.02 604.836 96.7ZM600.456 93.4C601.976 93.4 602.836 94.36 602.876 95.9H597.816C598.096 94.26 599.016 93.4 600.456 93.4ZM615.874 102.2C618.414 102.2 620.034 101.04 620.034 98.9C620.034 96.88 618.354 96.48 616.694 96.2L615.254 95.98C614.294 95.82 613.634 95.58 613.634 94.74C613.634 93.84 614.434 93.38 615.534 93.38C616.814 93.38 617.674 93.98 617.834 95.28L619.654 94.88C619.414 92.92 617.694 91.92 615.614 91.92C613.394 91.92 611.754 93.02 611.754 94.88C611.754 96.66 613.194 97.22 614.554 97.46L616.134 97.7C617.394 97.9 618.154 98.16 618.154 99.12C618.154 100.12 617.354 100.72 615.814 100.72C614.434 100.72 613.494 100.04 613.334 98.52L611.434 98.92C611.594 101.1 613.354 102.2 615.874 102.2ZM630.715 96.7C630.715 93.62 629.135 91.9 626.415 91.9C623.415 91.9 621.675 94.08 621.675 97.26C621.675 100.36 623.315 102.2 626.315 102.2C628.755 102.2 630.275 101 630.655 99.1L628.955 98.68C628.695 100.04 627.735 100.66 626.355 100.66C624.535 100.66 623.615 99.54 623.595 97.18H630.695C630.695 97.08 630.715 97.02 630.715 96.7ZM626.335 93.4C627.855 93.4 628.715 94.36 628.755 95.9H623.695C623.975 94.26 624.895 93.4 626.335 93.4ZM638.436 99.92C637.496 99.92 636.056 100.02 635.416 100.02C634.716 100 634.476 99.78 634.476 99.38C634.476 98.98 634.736 98.62 635.516 98.52C635.876 98.58 636.276 98.62 636.676 98.62C638.896 98.62 640.536 97.42 640.536 95.44C640.536 94.38 639.936 93.38 637.896 92.94L637.916 92.9C639.816 92.9 640.516 93.16 641.016 93.74H641.476V92.12H637.296C633.896 92.12 632.616 93.66 632.616 95.36C632.616 97.04 633.636 98.04 635.096 98.42C633.576 98.5 632.796 99.14 632.796 100.04C632.796 100.74 633.176 101.18 633.856 101.42C634.056 101.48 634.276 101.52 634.516 101.56C632.716 101.78 631.936 102.46 631.936 103.56C631.936 105.14 633.576 105.9 636.636 105.9C639.716 105.9 641.936 104.76 641.936 102.48C641.936 100.72 640.776 99.94 638.436 99.92ZM634.516 95.38C634.516 94.24 635.236 93.58 636.616 93.58C637.996 93.58 638.676 94.24 638.676 95.38C638.676 96.52 637.996 97.18 636.616 97.18C635.236 97.18 634.516 96.52 634.516 95.38ZM636.716 104.34C634.896 104.34 633.796 103.88 633.796 102.86C633.796 102.2 634.316 101.76 635.216 101.6H635.296C636.156 101.62 637.276 101.54 638.136 101.56C639.496 101.56 640.036 101.96 640.036 102.72C640.036 103.8 638.656 104.34 636.716 104.34ZM649.977 92.12V98.14C649.977 99.66 649.157 100.58 647.517 100.58C646.017 100.58 645.277 99.68 645.277 98.14V92.12H643.437V98.26C643.437 100.96 644.677 102.24 646.857 102.24C648.537 102.24 649.617 101.34 650.017 99.52H650.057V102H651.797V92.12H649.977ZM656.512 102V96.76C656.512 94.84 657.532 93.76 659.352 93.76C659.712 93.76 660.192 93.8 660.472 93.86L660.372 92.04C660.072 91.96 659.672 91.92 659.332 91.92C657.892 91.92 656.972 92.56 656.452 94.98H656.392V92.12H654.672V102H656.512ZM666.204 102.2C668.904 102.2 671.044 100.42 671.044 97.06C671.044 93.68 668.904 91.9 666.204 91.9C663.484 91.9 661.324 93.68 661.324 97.06C661.324 100.42 663.484 102.2 666.204 102.2ZM666.204 100.58C664.444 100.58 663.264 99.3 663.264 97.06C663.264 94.8 664.444 93.54 666.204 93.54C667.964 93.54 669.124 94.8 669.124 97.06C669.124 99.3 667.964 100.58 666.204 100.58Z" fill="black"/>
<path d="M195.781 83.1016H179.492V79.957H195.781V83.1016ZM195.781 91.207H179.492V88.082H195.781V91.207Z" fill="black"/>
<path d="M365.238 82.7461H373.168V86.1641H365.238V95.1484H361.605V86.1641H353.676V82.7461H361.605V74.4453H365.238V82.7461Z" fill="black"/>
<path d="M546.238 82.7461H554.168V86.1641H546.238V95.1484H542.605V86.1641H534.676V82.7461H542.605V74.4453H546.238V82.7461Z" fill="black"/>
<path d="M717.238 82.7461H725.168V86.1641H717.238V95.1484H713.605V86.1641H705.676V82.7461H713.605V74.4453H717.238V82.7461Z" fill="black"/>
</svg>
