<svg width="800" height="527" viewBox="0 0 800 527" fill="none" xmlns="http://www.w3.org/2000/svg">
<rect width="800" height="527" fill="white"/>
<rect x="85" y="55" width="129" height="103" fill="#FFE0EF"/>
<path d="M107.215 100.22C110.335 100.22 112.755 98.36 113.175 94.94L111.195 94.48C110.895 97.16 109.375 98.44 107.255 98.44C104.735 98.44 103.075 96.5 103.075 93.22C103.075 89.92 104.715 88 107.275 88C109.355 88 110.715 89.16 111.155 91.6L113.135 91.18C112.595 88.02 110.355 86.22 107.375 86.22C103.635 86.22 101.055 88.72 101.055 93.22C101.055 97.7 103.595 100.22 107.215 100.22ZM119.61 100.2C122.31 100.2 124.45 98.42 124.45 95.06C124.45 91.68 122.31 89.9 119.61 89.9C116.89 89.9 114.73 91.68 114.73 95.06C114.73 98.42 116.89 100.2 119.61 100.2ZM119.61 98.58C117.85 98.58 116.67 97.3 116.67 95.06C116.67 92.8 117.85 91.54 119.61 91.54C121.37 91.54 122.53 92.8 122.53 95.06C122.53 97.3 121.37 98.58 119.61 98.58ZM130.55 100.2C133.09 100.2 134.71 99.04 134.71 96.9C134.71 94.88 133.03 94.48 131.37 94.2L129.93 93.98C128.97 93.82 128.31 93.58 128.31 92.74C128.31 91.84 129.11 91.38 130.21 91.38C131.49 91.38 132.35 91.98 132.51 93.28L134.33 92.88C134.09 90.92 132.37 89.92 130.29 89.92C128.07 89.92 126.43 91.02 126.43 92.88C126.43 94.66 127.87 95.22 129.23 95.46L130.81 95.7C132.07 95.9 132.83 96.16 132.83 97.12C132.83 98.12 132.03 98.72 130.49 98.72C129.11 98.72 128.17 98.04 128.01 96.52L126.11 96.92C126.27 99.1 128.03 100.2 130.55 100.2ZM140.649 98.6C139.809 98.6 139.389 98.34 139.389 97.38V91.66H142.149V90.12H139.389V87.38H138.149C137.989 89.32 137.389 90.12 135.889 90.54V91.66H137.549V97.78C137.549 99.62 138.569 100.2 140.149 100.2C140.849 100.2 141.529 100.1 142.049 99.96L142.289 98.34C141.869 98.46 141.289 98.6 140.649 98.6ZM148.653 100.2C151.353 100.2 153.493 98.42 153.493 95.06C153.493 91.68 151.353 89.9 148.653 89.9C145.933 89.9 143.773 91.68 143.773 95.06C143.773 98.42 145.933 100.2 148.653 100.2ZM148.653 98.58C146.893 98.58 145.713 97.3 145.713 95.06C145.713 92.8 146.893 91.54 148.653 91.54C150.413 91.54 151.573 92.8 151.573 95.06C151.573 97.3 150.413 98.58 148.653 98.58ZM169.492 86.18C168.692 86.18 168.232 86.66 168.232 87.4C168.232 88.12 168.692 88.6 169.492 88.6C170.272 88.6 170.712 88.12 170.712 87.4C170.712 86.66 170.272 86.18 169.492 86.18ZM165.572 87.64C166.072 87.64 166.452 87.72 166.712 87.82L166.572 86.38C166.132 86.24 165.532 86.2 165.152 86.2C163.432 86.2 162.112 87.2 162.112 89.26V90.12H160.012V91.66H162.112V100H163.952V91.66H166.592V90.12H163.952V89.34C163.952 88 164.552 87.64 165.572 87.64ZM170.372 100V90.12H168.552V100H170.372ZM175.251 100V93.98C175.251 92.46 176.051 91.54 177.691 91.54C179.191 91.54 179.931 92.44 179.931 93.98V100H181.771V93.86C181.771 91.16 180.531 89.9 178.351 89.9C176.691 89.9 175.591 90.78 175.211 92.62H175.151V90.12H173.411V100H175.251ZM188.606 89.9C186.266 89.9 184.726 91.1 184.366 92.94L186.106 93.52C186.306 92.18 187.306 91.52 188.506 91.52C189.926 91.52 190.826 92.24 190.866 93.88L188.026 94.3C185.986 94.58 184.046 95.24 184.046 97.42C184.046 99.28 185.366 100.2 187.206 100.2C188.966 100.2 190.446 99.16 190.926 97.04H190.966V100H192.706V94.06C192.706 91.3 191.106 89.9 188.606 89.9ZM187.626 98.62C186.646 98.62 185.946 98.22 185.946 97.26C185.946 96.12 187.006 95.84 188.306 95.64L190.886 95.26V95.28C190.886 96.76 189.626 98.62 187.626 98.62ZM197.419 100V86.4H195.579V100H197.419ZM113.851 125.2C115.651 125.2 116.671 124.18 117.191 122.14H117.231V125H119.051V111.4H117.231V117.78H117.191C116.751 115.64 115.451 114.94 113.711 114.94C111.451 114.94 109.691 116.6 109.691 120C109.691 123.44 111.551 125.2 113.851 125.2ZM114.391 123.58C112.791 123.58 111.631 122.4 111.631 120C111.631 117.68 112.751 116.54 114.391 116.54C116.051 116.54 117.171 117.7 117.171 120C117.171 122.38 116.011 123.58 114.391 123.58ZM130.586 119.7C130.586 116.62 129.006 114.9 126.286 114.9C123.286 114.9 121.546 117.08 121.546 120.26C121.546 123.36 123.186 125.2 126.186 125.2C128.626 125.2 130.146 124 130.526 122.1L128.826 121.68C128.566 123.04 127.606 123.66 126.226 123.66C124.406 123.66 123.486 122.54 123.466 120.18H130.566C130.566 120.08 130.586 120.02 130.586 119.7ZM126.206 116.4C127.726 116.4 128.586 117.36 128.626 118.9H123.566C123.846 117.26 124.766 116.4 126.206 116.4ZM134.821 125V111.4H132.981V125H134.821ZM151.231 119.7C151.231 116.62 149.651 114.9 146.931 114.9C143.931 114.9 142.191 117.08 142.191 120.26C142.191 123.36 143.831 125.2 146.831 125.2C149.271 125.2 150.791 124 151.171 122.1L149.471 121.68C149.211 123.04 148.251 123.66 146.871 123.66C145.051 123.66 144.131 122.54 144.111 120.18H151.211C151.211 120.08 151.231 120.02 151.231 119.7ZM146.851 116.4C148.371 116.4 149.231 117.36 149.271 118.9H144.211C144.491 117.26 145.411 116.4 146.851 116.4ZM155.466 125V118.98C155.466 117.46 156.266 116.54 157.906 116.54C159.406 116.54 160.146 117.44 160.146 118.98V125H161.986V118.86C161.986 116.16 160.746 114.9 158.566 114.9C156.906 114.9 155.806 115.78 155.426 117.62H155.366V115.12H153.626V125H155.466ZM168.286 123.78L165.606 115.12H163.506L166.786 125H169.686L172.986 115.12H171.006L168.286 123.78ZM176.374 113.8L178.714 110.96H176.674L175.074 113.8H176.374ZM176.914 125V115.12H175.074V125H176.914ZM184.454 125.2C187.154 125.2 189.294 123.42 189.294 120.06C189.294 116.68 187.154 114.9 184.454 114.9C181.734 114.9 179.574 116.68 179.574 120.06C179.574 123.42 181.734 125.2 184.454 125.2ZM184.454 123.58C182.694 123.58 181.514 122.3 181.514 120.06C181.514 117.8 182.694 116.54 184.454 116.54C186.214 116.54 187.374 117.8 187.374 120.06C187.374 122.3 186.214 123.58 184.454 123.58Z" fill="black"/>
<rect x="297" y="55" width="128" height="103" fill="#FFE0EF"/>
<rect x="297" y="55" width="128" height="103" fill="#FFE0EF"/>
<rect x="225" y="233" width="114" height="92" fill="#E7E9EE"/>
<path d="M251.715 273.08H241.759V274.657H245.806V286H247.687V274.657H251.715V273.08ZM256.269 276.405C254.046 276.405 252.583 277.545 252.241 279.293L253.894 279.844C254.084 278.571 255.034 277.944 256.174 277.944C257.523 277.944 258.378 278.628 258.416 280.186L255.718 280.585C253.78 280.851 251.937 281.478 251.937 283.549C251.937 285.316 253.191 286.19 254.939 286.19C256.611 286.19 258.017 285.202 258.473 283.188H258.511V286H260.164V280.357C260.164 277.735 258.644 276.405 256.269 276.405ZM255.338 284.689C254.407 284.689 253.742 284.309 253.742 283.397C253.742 282.314 254.749 282.048 255.984 281.858L258.435 281.497V281.516C258.435 282.922 257.238 284.689 255.338 284.689ZM264.641 286V281.022C264.641 279.198 265.61 278.172 267.339 278.172C267.681 278.172 268.137 278.21 268.403 278.267L268.308 276.538C268.023 276.462 267.643 276.424 267.32 276.424C265.952 276.424 265.078 277.032 264.584 279.331H264.527V276.614H262.893V286H264.641ZM270.951 275.17C271.711 275.17 272.129 274.714 272.129 274.03C272.129 273.327 271.711 272.871 270.951 272.871C270.21 272.871 269.773 273.327 269.773 274.03C269.773 274.714 270.21 275.17 270.951 275.17ZM271.806 286V276.614H270.058V286H271.806ZM277.62 275.873C277.62 274.6 278.19 274.258 279.159 274.258C279.634 274.258 279.995 274.334 280.242 274.429L280.109 273.061C279.691 272.928 279.121 272.89 278.76 272.89C277.126 272.89 275.872 273.84 275.872 275.797V276.614H273.877V278.077H275.872V286H277.62V278.077H280.128V276.614H277.62V275.873ZM285.808 276.405C283.585 276.405 282.122 277.545 281.78 279.293L283.433 279.844C283.623 278.571 284.573 277.944 285.713 277.944C287.062 277.944 287.917 278.628 287.955 280.186L285.257 280.585C283.319 280.851 281.476 281.478 281.476 283.549C281.476 285.316 282.73 286.19 284.478 286.19C286.15 286.19 287.556 285.202 288.012 283.188H288.05V286H289.703V280.357C289.703 277.735 288.183 276.405 285.808 276.405ZM284.877 284.689C283.946 284.689 283.281 284.309 283.281 283.397C283.281 282.314 284.288 282.048 285.523 281.858L287.974 281.497V281.516C287.974 282.922 286.777 284.689 284.877 284.689ZM305.241 272.871C304.481 272.871 304.044 273.327 304.044 274.03C304.044 274.714 304.481 275.17 305.241 275.17C305.982 275.17 306.4 274.714 306.4 274.03C306.4 273.327 305.982 272.871 305.241 272.871ZM301.517 274.258C301.992 274.258 302.353 274.334 302.6 274.429L302.467 273.061C302.049 272.928 301.479 272.89 301.118 272.89C299.484 272.89 298.23 273.84 298.23 275.797V276.614H296.235V278.077H298.23V286H299.978V278.077H302.486V276.614H299.978V275.873C299.978 274.6 300.548 274.258 301.517 274.258ZM306.077 286V276.614H304.348V286H306.077ZM309.99 275.17C310.75 275.17 311.168 274.714 311.168 274.03C311.168 273.327 310.75 272.871 309.99 272.871C309.23 272.871 308.812 273.327 308.812 274.03C308.812 274.714 309.23 275.17 309.99 275.17ZM308.09 289.724C309.914 289.724 310.845 289.002 310.845 286.969V276.614H309.097V286.741C309.097 287.919 308.603 288.261 307.615 288.261C307.178 288.261 306.741 288.147 306.532 288.071L306.703 289.572C307.064 289.648 307.577 289.724 308.09 289.724ZM317.555 276.405C315.332 276.405 313.869 277.545 313.527 279.293L315.18 279.844C315.37 278.571 316.32 277.944 317.46 277.944C318.809 277.944 319.664 278.628 319.702 280.186L317.004 280.585C315.066 280.851 313.223 281.478 313.223 283.549C313.223 285.316 314.477 286.19 316.225 286.19C317.897 286.19 319.303 285.202 319.759 283.188H319.797V286H321.45V280.357C321.45 277.735 319.93 276.405 317.555 276.405ZM316.624 284.689C315.693 284.689 315.028 284.309 315.028 283.397C315.028 282.314 316.035 282.048 317.27 281.858L319.721 281.497V281.516C319.721 282.922 318.524 284.689 316.624 284.689Z" fill="black"/>
<rect x="385" y="233" width="114" height="92" fill="#E7E9EE"/>
<path d="M403.726 273L399.375 260.08H396.829L392.478 273H394.53L395.48 269.922H400.667L401.636 273H403.726ZM398.083 261.619L400.173 268.345H395.974L398.083 261.619ZM408.486 273.19C410.196 273.19 411.165 272.221 411.659 270.283H411.697V273H413.426V260.08H411.697V266.141H411.659C411.241 264.108 410.006 263.443 408.353 263.443C406.206 263.443 404.534 265.02 404.534 268.25C404.534 271.518 406.301 273.19 408.486 273.19ZM408.999 271.651C407.479 271.651 406.377 270.53 406.377 268.25C406.377 266.046 407.441 264.963 408.999 264.963C410.576 264.963 411.64 266.065 411.64 268.25C411.64 270.511 410.538 271.651 408.999 271.651ZM417.184 262.17C417.944 262.17 418.362 261.714 418.362 261.03C418.362 260.327 417.944 259.871 417.184 259.871C416.443 259.871 416.006 260.327 416.006 261.03C416.006 261.714 416.443 262.17 417.184 262.17ZM418.039 273V263.614H416.291V273H418.039ZM425.125 273.19C427.481 273.19 429.058 271.974 429.381 269.675L427.709 269.371C427.329 270.948 426.474 271.651 425.201 271.651C423.643 271.651 422.408 270.72 422.408 268.345C422.408 266.084 423.567 264.963 425.201 264.963C426.531 264.963 427.405 265.59 427.633 267.11L429.343 266.749C429.001 264.507 427.405 263.424 425.258 263.424C422.598 263.424 420.565 265.134 420.565 268.326C420.565 271.575 422.541 273.19 425.125 273.19ZM432.584 262.17C433.344 262.17 433.762 261.714 433.762 261.03C433.762 260.327 433.344 259.871 432.584 259.871C431.843 259.871 431.406 260.327 431.406 261.03C431.406 261.714 431.843 262.17 432.584 262.17ZM433.439 273V263.614H431.691V273H433.439ZM440.601 273.19C443.166 273.19 445.199 271.499 445.199 268.307C445.199 265.096 443.166 263.405 440.601 263.405C438.017 263.405 435.965 265.096 435.965 268.307C435.965 271.499 438.017 273.19 440.601 273.19ZM440.601 271.651C438.929 271.651 437.808 270.435 437.808 268.307C437.808 266.16 438.929 264.963 440.601 264.963C442.273 264.963 443.375 266.16 443.375 268.307C443.375 270.435 442.273 271.651 440.601 271.651ZM449.337 273V267.281C449.337 265.837 450.097 264.963 451.655 264.963C453.08 264.963 453.783 265.818 453.783 267.281V273H455.531V267.167C455.531 264.602 454.353 263.405 452.282 263.405C450.705 263.405 449.66 264.241 449.299 265.989H449.242V263.614H447.589V273H449.337ZM462.025 263.405C459.802 263.405 458.339 264.545 457.997 266.293L459.65 266.844C459.84 265.571 460.79 264.944 461.93 264.944C463.279 264.944 464.134 265.628 464.172 267.186L461.474 267.585C459.536 267.851 457.693 268.478 457.693 270.549C457.693 272.316 458.947 273.19 460.695 273.19C462.367 273.19 463.773 272.202 464.229 270.188H464.267V273H465.92V267.357C465.92 264.735 464.4 263.405 462.025 263.405ZM461.094 271.689C460.163 271.689 459.498 271.309 459.498 270.397C459.498 269.314 460.505 269.048 461.74 268.858L464.191 268.497V268.516C464.191 269.922 462.994 271.689 461.094 271.689ZM470.397 273V260.08H468.649V273H470.397ZM481.366 267.965C481.366 265.039 479.865 263.405 477.281 263.405C474.431 263.405 472.778 265.476 472.778 268.497C472.778 271.442 474.336 273.19 477.186 273.19C479.504 273.19 480.948 272.05 481.309 270.245L479.694 269.846C479.447 271.138 478.535 271.727 477.224 271.727C475.495 271.727 474.621 270.663 474.602 268.421H481.347C481.347 268.326 481.366 268.269 481.366 267.965ZM477.205 264.83C478.649 264.83 479.466 265.742 479.504 267.205H474.697C474.963 265.647 475.837 264.83 477.205 264.83ZM487.232 273.19C489.645 273.19 491.184 272.088 491.184 270.055C491.184 268.136 489.588 267.756 488.011 267.49L486.643 267.281C485.731 267.129 485.104 266.901 485.104 266.103C485.104 265.248 485.864 264.811 486.909 264.811C488.125 264.811 488.942 265.381 489.094 266.616L490.823 266.236C490.595 264.374 488.961 263.424 486.985 263.424C484.876 263.424 483.318 264.469 483.318 266.236C483.318 267.927 484.686 268.459 485.978 268.687L487.479 268.915C488.676 269.105 489.398 269.352 489.398 270.264C489.398 271.214 488.638 271.784 487.175 271.784C485.864 271.784 484.971 271.138 484.819 269.694L483.014 270.074C483.166 272.145 484.838 273.19 487.232 273.19ZM410.378 296.19C412.088 296.19 413.057 295.221 413.551 293.283H413.589V296H415.318V283.08H413.589V289.141H413.551C413.133 287.108 411.898 286.443 410.245 286.443C408.098 286.443 406.426 288.02 406.426 291.25C406.426 294.518 408.193 296.19 410.378 296.19ZM410.891 294.651C409.371 294.651 408.269 293.53 408.269 291.25C408.269 289.046 409.333 287.963 410.891 287.963C412.468 287.963 413.532 289.065 413.532 291.25C413.532 293.511 412.43 294.651 410.891 294.651ZM426.277 290.965C426.277 288.039 424.776 286.405 422.192 286.405C419.342 286.405 417.689 288.476 417.689 291.497C417.689 294.442 419.247 296.19 422.097 296.19C424.415 296.19 425.859 295.05 426.22 293.245L424.605 292.846C424.358 294.138 423.446 294.727 422.135 294.727C420.406 294.727 419.532 293.663 419.513 291.421H426.258C426.258 291.326 426.277 291.269 426.277 290.965ZM422.116 287.83C423.56 287.83 424.377 288.742 424.415 290.205H419.608C419.874 288.647 420.748 287.83 422.116 287.83ZM441.399 290.965C441.399 288.039 439.898 286.405 437.314 286.405C434.464 286.405 432.811 288.476 432.811 291.497C432.811 294.442 434.369 296.19 437.219 296.19C439.537 296.19 440.981 295.05 441.342 293.245L439.727 292.846C439.48 294.138 438.568 294.727 437.257 294.727C435.528 294.727 434.654 293.663 434.635 291.421H441.38C441.38 291.326 441.399 291.269 441.399 290.965ZM437.238 287.83C438.682 287.83 439.499 288.742 439.537 290.205H434.73C434.996 288.647 435.87 287.83 437.238 287.83ZM445.422 296V290.281C445.422 288.837 446.182 287.963 447.74 287.963C449.165 287.963 449.868 288.818 449.868 290.281V296H451.616V290.167C451.616 287.602 450.438 286.405 448.367 286.405C446.79 286.405 445.745 287.241 445.384 288.989H445.327V286.614H443.674V296H445.422ZM457.601 294.841L455.055 286.614H453.06L456.176 296H458.931L462.066 286.614H460.185L457.601 294.841ZM465.285 285.36L467.508 282.662H465.57L464.05 285.36H465.285ZM465.798 296V286.614H464.05V296H465.798ZM472.961 296.19C475.526 296.19 477.559 294.499 477.559 291.307C477.559 288.096 475.526 286.405 472.961 286.405C470.377 286.405 468.325 288.096 468.325 291.307C468.325 294.499 470.377 296.19 472.961 296.19ZM472.961 294.651C471.289 294.651 470.168 293.435 470.168 291.307C470.168 289.16 471.289 287.963 472.961 287.963C474.633 287.963 475.735 289.16 475.735 291.307C475.735 293.435 474.633 294.651 472.961 294.651Z" fill="black"/>
<path d="M344.278 88.08H334.322V89.657H338.369V101H340.25V89.657H344.278V88.08ZM348.833 91.405C346.61 91.405 345.147 92.545 344.805 94.293L346.458 94.844C346.648 93.571 347.598 92.944 348.738 92.944C350.087 92.944 350.942 93.628 350.98 95.186L348.282 95.585C346.344 95.851 344.501 96.478 344.501 98.549C344.501 100.316 345.755 101.19 347.503 101.19C349.175 101.19 350.581 100.202 351.037 98.188H351.075V101H352.728V95.357C352.728 92.735 351.208 91.405 348.833 91.405ZM347.902 99.689C346.971 99.689 346.306 99.309 346.306 98.397C346.306 97.314 347.313 97.048 348.548 96.858L350.999 96.497V96.516C350.999 97.922 349.802 99.689 347.902 99.689ZM357.204 101V96.022C357.204 94.198 358.173 93.172 359.902 93.172C360.244 93.172 360.7 93.21 360.966 93.267L360.871 91.538C360.586 91.462 360.206 91.424 359.883 91.424C358.515 91.424 357.641 92.032 357.147 94.331H357.09V91.614H355.456V101H357.204ZM363.515 90.17C364.275 90.17 364.693 89.714 364.693 89.03C364.693 88.327 364.275 87.871 363.515 87.871C362.774 87.871 362.337 88.327 362.337 89.03C362.337 89.714 362.774 90.17 363.515 90.17ZM364.37 101V91.614H362.622V101H364.37ZM370.183 90.873C370.183 89.6 370.753 89.258 371.722 89.258C372.197 89.258 372.558 89.334 372.805 89.429L372.672 88.061C372.254 87.928 371.684 87.89 371.323 87.89C369.689 87.89 368.435 88.84 368.435 90.797V91.614H366.44V93.077H368.435V101H370.183V93.077H372.691V91.614H370.183V90.873ZM378.372 91.405C376.149 91.405 374.686 92.545 374.344 94.293L375.997 94.844C376.187 93.571 377.137 92.944 378.277 92.944C379.626 92.944 380.481 93.628 380.519 95.186L377.821 95.585C375.883 95.851 374.04 96.478 374.04 98.549C374.04 100.316 375.294 101.19 377.042 101.19C378.714 101.19 380.12 100.202 380.576 98.188H380.614V101H382.267V95.357C382.267 92.735 380.747 91.405 378.372 91.405ZM377.441 99.689C376.51 99.689 375.845 99.309 375.845 98.397C375.845 97.314 376.852 97.048 378.087 96.858L380.538 96.497V96.516C380.538 97.922 379.341 99.689 377.441 99.689ZM329.378 124.19C331.088 124.19 332.057 123.221 332.551 121.283H332.589V124H334.318V111.08H332.589V117.141H332.551C332.133 115.108 330.898 114.443 329.245 114.443C327.098 114.443 325.426 116.02 325.426 119.25C325.426 122.518 327.193 124.19 329.378 124.19ZM329.891 122.651C328.371 122.651 327.269 121.53 327.269 119.25C327.269 117.046 328.333 115.963 329.891 115.963C331.468 115.963 332.532 117.065 332.532 119.25C332.532 121.511 331.43 122.651 329.891 122.651ZM345.277 118.965C345.277 116.039 343.776 114.405 341.192 114.405C338.342 114.405 336.689 116.476 336.689 119.497C336.689 122.442 338.247 124.19 341.097 124.19C343.415 124.19 344.859 123.05 345.22 121.245L343.605 120.846C343.358 122.138 342.446 122.727 341.135 122.727C339.406 122.727 338.532 121.663 338.513 119.421H345.258C345.258 119.326 345.277 119.269 345.277 118.965ZM341.116 115.83C342.56 115.83 343.377 116.742 343.415 118.205H338.608C338.874 116.647 339.748 115.83 341.116 115.83ZM360.399 118.965C360.399 116.039 358.898 114.405 356.314 114.405C353.464 114.405 351.811 116.476 351.811 119.497C351.811 122.442 353.369 124.19 356.219 124.19C358.537 124.19 359.981 123.05 360.342 121.245L358.727 120.846C358.48 122.138 357.568 122.727 356.257 122.727C354.528 122.727 353.654 121.663 353.635 119.421H360.38C360.38 119.326 360.399 119.269 360.399 118.965ZM356.238 115.83C357.682 115.83 358.499 116.742 358.537 118.205H353.73C353.996 116.647 354.87 115.83 356.238 115.83ZM364.422 124V118.281C364.422 116.837 365.182 115.963 366.74 115.963C368.165 115.963 368.868 116.818 368.868 118.281V124H370.616V118.167C370.616 115.602 369.438 114.405 367.367 114.405C365.79 114.405 364.745 115.241 364.384 116.989H364.327V114.614H362.674V124H364.422ZM376.601 122.841L374.055 114.614H372.06L375.176 124H377.931L381.066 114.614H379.185L376.601 122.841ZM384.285 113.36L386.508 110.662H384.57L383.05 113.36H384.285ZM384.798 124V114.614H383.05V124H384.798ZM391.961 124.19C394.526 124.19 396.559 122.499 396.559 119.307C396.559 116.096 394.526 114.405 391.961 114.405C389.377 114.405 387.325 116.096 387.325 119.307C387.325 122.499 389.377 124.19 391.961 124.19ZM391.961 122.651C390.289 122.651 389.168 121.435 389.168 119.307C389.168 117.16 390.289 115.963 391.961 115.963C393.633 115.963 394.735 117.16 394.735 119.307C394.735 121.435 393.633 122.651 391.961 122.651Z" fill="black"/>
<rect x="509" y="55" width="129" height="103" fill="#FFE0EF"/>
<path d="M545.222 88.76H535.79V90.254H539.624V101H541.406V90.254H545.222V88.76ZM549.537 91.91C547.431 91.91 546.045 92.99 545.721 94.646L547.287 95.168C547.467 93.962 548.367 93.368 549.447 93.368C550.725 93.368 551.535 94.016 551.571 95.492L549.015 95.87C547.179 96.122 545.433 96.716 545.433 98.678C545.433 100.352 546.621 101.18 548.277 101.18C549.861 101.18 551.193 100.244 551.625 98.336H551.661V101H553.227V95.654C553.227 93.17 551.787 91.91 549.537 91.91ZM548.655 99.758C547.773 99.758 547.143 99.398 547.143 98.534C547.143 97.508 548.097 97.256 549.267 97.076L551.589 96.734V96.752C551.589 98.084 550.455 99.758 548.655 99.758ZM557.468 101V96.284C557.468 94.556 558.386 93.584 560.024 93.584C560.348 93.584 560.78 93.62 561.032 93.674L560.942 92.036C560.672 91.964 560.312 91.928 560.006 91.928C558.71 91.928 557.882 92.504 557.414 94.682H557.36V92.108H555.812V101H557.468ZM563.446 90.74C564.166 90.74 564.562 90.308 564.562 89.66C564.562 88.994 564.166 88.562 563.446 88.562C562.744 88.562 562.33 88.994 562.33 89.66C562.33 90.308 562.744 90.74 563.446 90.74ZM564.256 101V92.108H562.6V101H564.256ZM569.763 91.406C569.763 90.2 570.303 89.876 571.221 89.876C571.671 89.876 572.013 89.948 572.247 90.038L572.121 88.742C571.725 88.616 571.185 88.58 570.843 88.58C569.295 88.58 568.107 89.48 568.107 91.334V92.108H566.217V93.494H568.107V101H569.763V93.494H572.139V92.108H569.763V91.406ZM577.521 91.91C575.415 91.91 574.029 92.99 573.705 94.646L575.271 95.168C575.451 93.962 576.351 93.368 577.431 93.368C578.709 93.368 579.519 94.016 579.555 95.492L576.999 95.87C575.163 96.122 573.417 96.716 573.417 98.678C573.417 100.352 574.605 101.18 576.261 101.18C577.845 101.18 579.177 100.244 579.609 98.336H579.645V101H581.211V95.654C581.211 93.17 579.771 91.91 577.521 91.91ZM576.639 99.758C575.757 99.758 575.127 99.398 575.127 98.534C575.127 97.508 576.081 97.256 577.251 97.076L579.573 96.734V96.752C579.573 98.084 578.439 99.758 576.639 99.758ZM591.575 101.18C593.195 101.18 594.113 100.262 594.581 98.426H594.617V101H596.255V88.76H594.617V94.502H594.581C594.185 92.576 593.015 91.946 591.449 91.946C589.415 91.946 587.831 93.44 587.831 96.5C587.831 99.596 589.505 101.18 591.575 101.18ZM592.061 99.722C590.621 99.722 589.577 98.66 589.577 96.5C589.577 94.412 590.585 93.386 592.061 93.386C593.555 93.386 594.563 94.43 594.563 96.5C594.563 98.642 593.519 99.722 592.061 99.722ZM606.637 96.23C606.637 93.458 605.215 91.91 602.767 91.91C600.067 91.91 598.501 93.872 598.501 96.734C598.501 99.524 599.977 101.18 602.677 101.18C604.873 101.18 606.241 100.1 606.583 98.39L605.053 98.012C604.819 99.236 603.955 99.794 602.713 99.794C601.075 99.794 600.247 98.786 600.229 96.662H606.619C606.619 96.572 606.637 96.518 606.637 96.23ZM602.695 93.26C604.063 93.26 604.837 94.124 604.873 95.51H600.319C600.571 94.034 601.399 93.26 602.695 93.26ZM610.448 101V88.76H608.792V101H610.448ZM549.874 123V117.348C549.874 116.052 550.594 115.368 551.746 115.368C552.898 115.368 553.618 116.052 553.618 117.33V122.982H555.256V117.474C555.256 116.142 555.994 115.368 557.128 115.368C558.298 115.368 559 116.088 559 117.24V122.982H560.656V116.916C560.656 114.918 559.594 113.91 557.902 113.91C556.318 113.91 555.472 114.828 555.256 116.088H555.22C555.04 114.648 553.996 113.91 552.502 113.91C550.954 113.91 550.108 114.756 549.856 115.998H549.838V114.108H548.218V123H549.874ZM568.742 114.108V119.526C568.742 120.894 568.004 121.722 566.528 121.722C565.178 121.722 564.512 120.912 564.512 119.526V114.108H562.856V119.634C562.856 122.064 563.972 123.216 565.934 123.216C567.446 123.216 568.418 122.406 568.778 120.768H568.814V123H570.38V114.108H568.742ZM580.762 118.23C580.762 115.458 579.34 113.91 576.892 113.91C574.192 113.91 572.626 115.872 572.626 118.734C572.626 121.524 574.102 123.18 576.802 123.18C578.998 123.18 580.366 122.1 580.708 120.39L579.178 120.012C578.944 121.236 578.08 121.794 576.838 121.794C575.2 121.794 574.372 120.786 574.354 118.662H580.744C580.744 118.572 580.762 118.518 580.762 118.23ZM576.82 115.26C578.188 115.26 578.962 116.124 578.998 117.51H574.444C574.696 116.034 575.524 115.26 576.82 115.26ZM584.573 123V110.76H582.917V123H584.573ZM588.827 123V110.76H587.171V123H588.827ZM599.219 118.23C599.219 115.458 597.797 113.91 595.349 113.91C592.649 113.91 591.083 115.872 591.083 118.734C591.083 121.524 592.559 123.18 595.259 123.18C597.455 123.18 598.823 122.1 599.165 120.39L597.635 120.012C597.401 121.236 596.537 121.794 595.295 121.794C593.657 121.794 592.829 120.786 592.811 118.662H599.201C599.201 118.572 599.219 118.518 599.219 118.23ZM595.277 115.26C596.645 115.26 597.419 116.124 597.455 117.51H592.901C593.153 116.034 593.981 115.26 595.277 115.26Z" fill="black"/>
<path d="M263.781 116.102H247.492V112.957H263.781V116.102ZM263.781 124.207H247.492V121.082H263.781V124.207Z" fill="black"/>
<path d="M470.238 110.746H478.168V114.164H470.238V123.148H466.605V114.164H458.676V110.746H466.605V102.445H470.238V110.746Z" fill="black"/>
<path d="M363.238 270.746H371.168V274.164H363.238V283.148H359.605V274.164H351.676V270.746H359.605V262.445H363.238V270.746Z" fill="black"/>
<rect x="318" y="394" width="105" height="75" fill="#FFF3F6"/>
<rect x="172" y="395" width="105" height="75" fill="#FFF3F6"/>
<path d="M183.287 426L179.165 413.76H176.753L172.631 426H174.575L175.475 423.084H180.389L181.307 426H183.287ZM177.941 415.218L179.921 421.59H175.943L177.941 415.218ZM187.797 426.18C189.417 426.18 190.335 425.262 190.803 423.426H190.839V426H192.477V413.76H190.839V419.502H190.803C190.407 417.576 189.237 416.946 187.671 416.946C185.637 416.946 184.053 418.44 184.053 421.5C184.053 424.596 185.727 426.18 187.797 426.18ZM188.283 424.722C186.843 424.722 185.799 423.66 185.799 421.5C185.799 419.412 186.807 418.386 188.283 418.386C189.777 418.386 190.785 419.43 190.785 421.5C190.785 423.642 189.741 424.722 188.283 424.722ZM196.037 415.74C196.757 415.74 197.153 415.308 197.153 414.66C197.153 413.994 196.757 413.562 196.037 413.562C195.335 413.562 194.921 413.994 194.921 414.66C194.921 415.308 195.335 415.74 196.037 415.74ZM196.847 426V417.108H195.191V426H196.847ZM203.56 426.18C205.792 426.18 207.286 425.028 207.592 422.85L206.008 422.562C205.648 424.056 204.838 424.722 203.632 424.722C202.156 424.722 200.986 423.84 200.986 421.59C200.986 419.448 202.084 418.386 203.632 418.386C204.892 418.386 205.72 418.98 205.936 420.42L207.556 420.078C207.232 417.954 205.72 416.928 203.686 416.928C201.166 416.928 199.24 418.548 199.24 421.572C199.24 424.65 201.112 426.18 203.56 426.18ZM210.626 415.74C211.346 415.74 211.742 415.308 211.742 414.66C211.742 413.994 211.346 413.562 210.626 413.562C209.924 413.562 209.51 413.994 209.51 414.66C209.51 415.308 209.924 415.74 210.626 415.74ZM211.436 426V417.108H209.78V426H211.436ZM218.222 426.18C220.652 426.18 222.578 424.578 222.578 421.554C222.578 418.512 220.652 416.91 218.222 416.91C215.774 416.91 213.83 418.512 213.83 421.554C213.83 424.578 215.774 426.18 218.222 426.18ZM218.222 424.722C216.638 424.722 215.576 423.57 215.576 421.554C215.576 419.52 216.638 418.386 218.222 418.386C219.806 418.386 220.85 419.52 220.85 421.554C220.85 423.57 219.806 424.722 218.222 424.722ZM226.498 426V420.582C226.498 419.214 227.218 418.386 228.694 418.386C230.044 418.386 230.71 419.196 230.71 420.582V426H232.366V420.474C232.366 418.044 231.25 416.91 229.288 416.91C227.794 416.91 226.804 417.702 226.462 419.358H226.408V417.108H224.842V426H226.498ZM238.518 416.91C236.412 416.91 235.026 417.99 234.702 419.646L236.268 420.168C236.448 418.962 237.348 418.368 238.428 418.368C239.706 418.368 240.516 419.016 240.552 420.492L237.996 420.87C236.16 421.122 234.414 421.716 234.414 423.678C234.414 425.352 235.602 426.18 237.258 426.18C238.842 426.18 240.174 425.244 240.606 423.336H240.642V426H242.208V420.654C242.208 418.17 240.768 416.91 238.518 416.91ZM237.636 424.758C236.754 424.758 236.124 424.398 236.124 423.534C236.124 422.508 237.078 422.256 238.248 422.076L240.57 421.734V421.752C240.57 423.084 239.436 424.758 237.636 424.758ZM246.449 426V413.76H244.793V426H246.449ZM256.826 426.18C258.446 426.18 259.364 425.262 259.832 423.426H259.868V426H261.506V413.76H259.868V419.502H259.832C259.436 417.576 258.266 416.946 256.7 416.946C254.666 416.946 253.082 418.44 253.082 421.5C253.082 424.596 254.756 426.18 256.826 426.18ZM257.312 424.722C255.872 424.722 254.828 423.66 254.828 421.5C254.828 419.412 255.836 418.386 257.312 418.386C258.806 418.386 259.814 419.43 259.814 421.5C259.814 423.642 258.77 424.722 257.312 424.722ZM271.888 421.23C271.888 418.458 270.466 416.91 268.018 416.91C265.318 416.91 263.752 418.872 263.752 421.734C263.752 424.524 265.228 426.18 267.928 426.18C270.124 426.18 271.492 425.1 271.834 423.39L270.304 423.012C270.07 424.236 269.206 424.794 267.964 424.794C266.326 424.794 265.498 423.786 265.48 421.662H271.87C271.87 421.572 271.888 421.518 271.888 421.23ZM267.946 418.26C269.314 418.26 270.088 419.124 270.124 420.51H265.57C265.822 419.034 266.65 418.26 267.946 418.26ZM205.431 451.348V445.336H205.449C205.845 447.532 206.979 448.18 208.545 448.18C210.597 448.18 212.199 446.686 212.199 443.608C212.199 440.512 210.525 438.946 208.437 438.946C206.835 438.946 205.917 439.846 205.449 441.484H205.413V439.108H203.775V451.348H205.431ZM207.969 446.722C206.475 446.722 205.467 445.696 205.467 443.608C205.467 441.466 206.511 440.386 207.969 440.386C209.409 440.386 210.453 441.448 210.453 443.608C210.453 445.696 209.463 446.722 207.969 446.722ZM222.027 443.23C222.027 440.458 220.606 438.91 218.158 438.91C215.458 438.91 213.892 440.872 213.892 443.734C213.892 446.524 215.368 448.18 218.068 448.18C220.264 448.18 221.632 447.1 221.974 445.39L220.444 445.012C220.21 446.236 219.346 446.794 218.104 446.794C216.466 446.794 215.638 445.786 215.62 443.662H222.01C222.01 443.572 222.027 443.518 222.027 443.23ZM218.086 440.26C219.454 440.26 220.228 441.124 220.264 442.51H215.71C215.962 441.034 216.79 440.26 218.086 440.26ZM227.585 448.18C229.871 448.18 231.329 447.136 231.329 445.21C231.329 443.392 229.817 443.032 228.323 442.78L227.027 442.582C226.163 442.438 225.569 442.222 225.569 441.466C225.569 440.656 226.289 440.242 227.279 440.242C228.431 440.242 229.205 440.782 229.349 441.952L230.987 441.592C230.771 439.828 229.223 438.928 227.351 438.928C225.353 438.928 223.877 439.918 223.877 441.592C223.877 443.194 225.173 443.698 226.397 443.914L227.819 444.13C228.953 444.31 229.637 444.544 229.637 445.408C229.637 446.308 228.917 446.848 227.531 446.848C226.289 446.848 225.443 446.236 225.299 444.868L223.589 445.228C223.733 447.19 225.317 448.18 227.585 448.18ZM237.198 448.18C239.628 448.18 241.554 446.578 241.554 443.554C241.554 440.512 239.628 438.91 237.198 438.91C234.75 438.91 232.806 440.512 232.806 443.554C232.806 446.578 234.75 448.18 237.198 448.18ZM237.198 446.722C235.614 446.722 234.552 445.57 234.552 443.554C234.552 441.52 235.614 440.386 237.198 440.386C238.782 440.386 239.826 441.52 239.826 443.554C239.826 445.57 238.782 446.722 237.198 446.722Z" fill="black"/>
<rect x="464" y="395" width="105" height="75" fill="#FFF3F6"/>
<rect x="464" y="395" width="105" height="75" fill="#FFF3F6"/>
<path d="M331.287 427L327.165 414.76H324.753L320.631 427H322.575L323.475 424.084H328.389L329.307 427H331.287ZM325.941 416.218L327.921 422.59H323.943L325.941 416.218ZM335.797 427.18C337.417 427.18 338.335 426.262 338.803 424.426H338.839V427H340.477V414.76H338.839V420.502H338.803C338.407 418.576 337.237 417.946 335.671 417.946C333.637 417.946 332.053 419.44 332.053 422.5C332.053 425.596 333.727 427.18 335.797 427.18ZM336.283 425.722C334.843 425.722 333.799 424.66 333.799 422.5C333.799 420.412 334.807 419.386 336.283 419.386C337.777 419.386 338.785 420.43 338.785 422.5C338.785 424.642 337.741 425.722 336.283 425.722ZM344.037 416.74C344.757 416.74 345.153 416.308 345.153 415.66C345.153 414.994 344.757 414.562 344.037 414.562C343.335 414.562 342.921 414.994 342.921 415.66C342.921 416.308 343.335 416.74 344.037 416.74ZM344.847 427V418.108H343.191V427H344.847ZM351.56 427.18C353.792 427.18 355.286 426.028 355.592 423.85L354.008 423.562C353.648 425.056 352.838 425.722 351.632 425.722C350.156 425.722 348.986 424.84 348.986 422.59C348.986 420.448 350.084 419.386 351.632 419.386C352.892 419.386 353.72 419.98 353.936 421.42L355.556 421.078C355.232 418.954 353.72 417.928 351.686 417.928C349.166 417.928 347.24 419.548 347.24 422.572C347.24 425.65 349.112 427.18 351.56 427.18ZM358.626 416.74C359.346 416.74 359.742 416.308 359.742 415.66C359.742 414.994 359.346 414.562 358.626 414.562C357.924 414.562 357.51 414.994 357.51 415.66C357.51 416.308 357.924 416.74 358.626 416.74ZM359.436 427V418.108H357.78V427H359.436ZM366.222 427.18C368.652 427.18 370.578 425.578 370.578 422.554C370.578 419.512 368.652 417.91 366.222 417.91C363.774 417.91 361.83 419.512 361.83 422.554C361.83 425.578 363.774 427.18 366.222 427.18ZM366.222 425.722C364.638 425.722 363.576 424.57 363.576 422.554C363.576 420.52 364.638 419.386 366.222 419.386C367.806 419.386 368.85 420.52 368.85 422.554C368.85 424.57 367.806 425.722 366.222 425.722ZM374.498 427V421.582C374.498 420.214 375.218 419.386 376.694 419.386C378.044 419.386 378.71 420.196 378.71 421.582V427H380.366V421.474C380.366 419.044 379.25 417.91 377.288 417.91C375.794 417.91 374.804 418.702 374.462 420.358H374.408V418.108H372.842V427H374.498ZM386.518 417.91C384.412 417.91 383.026 418.99 382.702 420.646L384.268 421.168C384.448 419.962 385.348 419.368 386.428 419.368C387.706 419.368 388.516 420.016 388.552 421.492L385.996 421.87C384.16 422.122 382.414 422.716 382.414 424.678C382.414 426.352 383.602 427.18 385.258 427.18C386.842 427.18 388.174 426.244 388.606 424.336H388.642V427H390.208V421.654C390.208 419.17 388.768 417.91 386.518 417.91ZM385.636 425.758C384.754 425.758 384.124 425.398 384.124 424.534C384.124 423.508 385.078 423.256 386.248 423.076L388.57 422.734V422.752C388.57 424.084 387.436 425.758 385.636 425.758ZM394.449 427V414.76H392.793V427H394.449ZM404.826 427.18C406.446 427.18 407.364 426.262 407.832 424.426H407.868V427H409.506V414.76H407.868V420.502H407.832C407.436 418.576 406.266 417.946 404.7 417.946C402.666 417.946 401.082 419.44 401.082 422.5C401.082 425.596 402.756 427.18 404.826 427.18ZM405.312 425.722C403.872 425.722 402.828 424.66 402.828 422.5C402.828 420.412 403.836 419.386 405.312 419.386C406.806 419.386 407.814 420.43 407.814 422.5C407.814 424.642 406.77 425.722 405.312 425.722ZM419.888 422.23C419.888 419.458 418.466 417.91 416.018 417.91C413.318 417.91 411.752 419.872 411.752 422.734C411.752 425.524 413.228 427.18 415.928 427.18C418.124 427.18 419.492 426.1 419.834 424.39L418.304 424.012C418.07 425.236 417.206 425.794 415.964 425.794C414.326 425.794 413.498 424.786 413.48 422.662H419.87C419.87 422.572 419.888 422.518 419.888 422.23ZM415.946 419.26C417.314 419.26 418.088 420.124 418.124 421.51H413.57C413.822 420.034 414.65 419.26 415.946 419.26ZM347.348 452.348V446.336H347.366C347.762 448.532 348.896 449.18 350.462 449.18C352.514 449.18 354.116 447.686 354.116 444.608C354.116 441.512 352.442 439.946 350.354 439.946C348.752 439.946 347.834 440.846 347.366 442.484H347.33V440.108H345.692V452.348H347.348ZM349.886 447.722C348.392 447.722 347.384 446.696 347.384 444.608C347.384 442.466 348.428 441.386 349.886 441.386C351.326 441.386 352.37 442.448 352.37 444.608C352.37 446.696 351.38 447.722 349.886 447.722ZM358.018 449V444.284C358.018 442.556 358.936 441.584 360.574 441.584C360.898 441.584 361.33 441.62 361.582 441.674L361.492 440.036C361.222 439.964 360.862 439.928 360.556 439.928C359.26 439.928 358.432 440.504 357.964 442.682H357.91V440.108H356.362V449H358.018ZM370.485 444.23C370.485 441.458 369.063 439.91 366.615 439.91C363.915 439.91 362.349 441.872 362.349 444.734C362.349 447.524 363.825 449.18 366.525 449.18C368.721 449.18 370.089 448.1 370.431 446.39L368.901 446.012C368.667 447.236 367.803 447.794 366.561 447.794C364.923 447.794 364.095 446.786 364.077 444.662H370.467C370.467 444.572 370.485 444.518 370.485 444.23ZM366.543 441.26C367.911 441.26 368.685 442.124 368.721 443.51H364.167C364.419 442.034 365.247 441.26 366.543 441.26ZM376.618 449.18C378.85 449.18 380.344 448.028 380.65 445.85L379.066 445.562C378.706 447.056 377.896 447.722 376.69 447.722C375.214 447.722 374.044 446.84 374.044 444.59C374.044 442.448 375.142 441.386 376.69 441.386C377.95 441.386 378.778 441.98 378.994 443.42L380.614 443.078C380.29 440.954 378.778 439.928 376.744 439.928C374.224 439.928 372.298 441.548 372.298 444.572C372.298 447.65 374.17 449.18 376.618 449.18ZM383.684 438.74C384.404 438.74 384.8 438.308 384.8 437.66C384.8 436.994 384.404 436.562 383.684 436.562C382.982 436.562 382.568 436.994 382.568 437.66C382.568 438.308 382.982 438.74 383.684 438.74ZM384.494 449V440.108H382.838V449H384.494ZM391.28 449.18C393.71 449.18 395.636 447.578 395.636 444.554C395.636 441.512 393.71 439.91 391.28 439.91C388.832 439.91 386.888 441.512 386.888 444.554C386.888 447.578 388.832 449.18 391.28 449.18ZM391.28 447.722C389.696 447.722 388.634 446.57 388.634 444.554C388.634 442.52 389.696 441.386 391.28 441.386C392.864 441.386 393.908 442.52 393.908 444.554C393.908 446.57 392.864 447.722 391.28 447.722Z" fill="black"/>
<rect x="610" y="396" width="105" height="75" fill="#FFF3F6"/>
<rect x="610" y="396" width="105" height="75" fill="#FFF3F6"/>
<path d="M623.287 427L619.165 414.76H616.753L612.631 427H614.575L615.475 424.084H620.389L621.307 427H623.287ZM617.941 416.218L619.921 422.59H615.943L617.941 416.218ZM627.797 427.18C629.417 427.18 630.335 426.262 630.803 424.426H630.839V427H632.477V414.76H630.839V420.502H630.803C630.407 418.576 629.237 417.946 627.671 417.946C625.637 417.946 624.053 419.44 624.053 422.5C624.053 425.596 625.727 427.18 627.797 427.18ZM628.283 425.722C626.843 425.722 625.799 424.66 625.799 422.5C625.799 420.412 626.807 419.386 628.283 419.386C629.777 419.386 630.785 420.43 630.785 422.5C630.785 424.642 629.741 425.722 628.283 425.722ZM636.037 416.74C636.757 416.74 637.153 416.308 637.153 415.66C637.153 414.994 636.757 414.562 636.037 414.562C635.335 414.562 634.921 414.994 634.921 415.66C634.921 416.308 635.335 416.74 636.037 416.74ZM636.847 427V418.108H635.191V427H636.847ZM643.56 427.18C645.792 427.18 647.286 426.028 647.592 423.85L646.008 423.562C645.648 425.056 644.838 425.722 643.632 425.722C642.156 425.722 640.986 424.84 640.986 422.59C640.986 420.448 642.084 419.386 643.632 419.386C644.892 419.386 645.72 419.98 645.936 421.42L647.556 421.078C647.232 418.954 645.72 417.928 643.686 417.928C641.166 417.928 639.24 419.548 639.24 422.572C639.24 425.65 641.112 427.18 643.56 427.18ZM650.626 416.74C651.346 416.74 651.742 416.308 651.742 415.66C651.742 414.994 651.346 414.562 650.626 414.562C649.924 414.562 649.51 414.994 649.51 415.66C649.51 416.308 649.924 416.74 650.626 416.74ZM651.436 427V418.108H649.78V427H651.436ZM658.222 427.18C660.652 427.18 662.578 425.578 662.578 422.554C662.578 419.512 660.652 417.91 658.222 417.91C655.774 417.91 653.83 419.512 653.83 422.554C653.83 425.578 655.774 427.18 658.222 427.18ZM658.222 425.722C656.638 425.722 655.576 424.57 655.576 422.554C655.576 420.52 656.638 419.386 658.222 419.386C659.806 419.386 660.85 420.52 660.85 422.554C660.85 424.57 659.806 425.722 658.222 425.722ZM666.498 427V421.582C666.498 420.214 667.218 419.386 668.694 419.386C670.044 419.386 670.71 420.196 670.71 421.582V427H672.366V421.474C672.366 419.044 671.25 417.91 669.288 417.91C667.794 417.91 666.804 418.702 666.462 420.358H666.408V418.108H664.842V427H666.498ZM678.518 417.91C676.412 417.91 675.026 418.99 674.702 420.646L676.268 421.168C676.448 419.962 677.348 419.368 678.428 419.368C679.706 419.368 680.516 420.016 680.552 421.492L677.996 421.87C676.16 422.122 674.414 422.716 674.414 424.678C674.414 426.352 675.602 427.18 677.258 427.18C678.842 427.18 680.174 426.244 680.606 424.336H680.642V427H682.208V421.654C682.208 419.17 680.768 417.91 678.518 417.91ZM677.636 425.758C676.754 425.758 676.124 425.398 676.124 424.534C676.124 423.508 677.078 423.256 678.248 423.076L680.57 422.734V422.752C680.57 424.084 679.436 425.758 677.636 425.758ZM686.449 427V414.76H684.793V427H686.449ZM696.826 427.18C698.446 427.18 699.364 426.262 699.832 424.426H699.868V427H701.506V414.76H699.868V420.502H699.832C699.436 418.576 698.266 417.946 696.7 417.946C694.666 417.946 693.082 419.44 693.082 422.5C693.082 425.596 694.756 427.18 696.826 427.18ZM697.312 425.722C695.872 425.722 694.828 424.66 694.828 422.5C694.828 420.412 695.836 419.386 697.312 419.386C698.806 419.386 699.814 420.43 699.814 422.5C699.814 424.642 698.77 425.722 697.312 425.722ZM711.888 422.23C711.888 419.458 710.466 417.91 708.018 417.91C705.318 417.91 703.752 419.872 703.752 422.734C703.752 425.524 705.228 427.18 707.928 427.18C710.124 427.18 711.492 426.1 711.834 424.39L710.304 424.012C710.07 425.236 709.206 425.794 707.964 425.794C706.326 425.794 705.498 424.786 705.48 422.662H711.87C711.87 422.572 711.888 422.518 711.888 422.23ZM707.946 419.26C709.314 419.26 710.088 420.124 710.124 421.51H705.57C705.822 420.034 706.65 419.26 707.946 419.26ZM649.27 437.876C649.72 437.876 650.062 437.948 650.296 438.038L650.17 436.742C649.774 436.616 649.234 436.58 648.892 436.58C647.344 436.58 646.156 437.48 646.156 439.334V440.108H644.266V441.494H646.156V449H647.812V441.494H650.188V440.108H647.812V439.406C647.812 438.2 648.352 437.876 649.27 437.876ZM651.808 449H653.464V436.76H651.808V449ZM663.856 444.23C663.856 441.458 662.434 439.91 659.986 439.91C657.286 439.91 655.72 441.872 655.72 444.734C655.72 447.524 657.196 449.18 659.896 449.18C662.092 449.18 663.46 448.1 663.802 446.39L662.272 446.012C662.038 447.236 661.174 447.794 659.932 447.794C658.294 447.794 657.466 446.786 657.448 444.662H663.838C663.838 444.572 663.856 444.518 663.856 444.23ZM659.914 441.26C661.282 441.26 662.056 442.124 662.092 443.51H657.538C657.79 442.034 658.618 441.26 659.914 441.26ZM669.449 447.74C668.693 447.74 668.315 447.506 668.315 446.642V441.494H670.799V440.108H668.315V437.642H667.199C667.055 439.388 666.515 440.108 665.165 440.486V441.494H666.659V447.002C666.659 448.658 667.577 449.18 668.999 449.18C669.629 449.18 670.241 449.09 670.709 448.964L670.925 447.506C670.547 447.614 670.025 447.74 669.449 447.74ZM680.397 444.23C680.397 441.458 678.975 439.91 676.527 439.91C673.827 439.91 672.261 441.872 672.261 444.734C672.261 447.524 673.737 449.18 676.437 449.18C678.633 449.18 680.001 448.1 680.343 446.39L678.813 446.012C678.579 447.236 677.715 447.794 676.473 447.794C674.835 447.794 674.007 446.786 673.989 444.662H680.379C680.379 444.572 680.397 444.518 680.397 444.23ZM676.455 441.26C677.823 441.26 678.597 442.124 678.633 443.51H674.079C674.331 442.034 675.159 441.26 676.455 441.26Z" fill="black"/>
<path d="M478.287 428L474.165 415.76H471.753L467.631 428H469.575L470.475 425.084H475.389L476.307 428H478.287ZM472.941 417.218L474.921 423.59H470.943L472.941 417.218ZM482.797 428.18C484.417 428.18 485.335 427.262 485.803 425.426H485.839V428H487.477V415.76H485.839V421.502H485.803C485.407 419.576 484.237 418.946 482.671 418.946C480.637 418.946 479.053 420.44 479.053 423.5C479.053 426.596 480.727 428.18 482.797 428.18ZM483.283 426.722C481.843 426.722 480.799 425.66 480.799 423.5C480.799 421.412 481.807 420.386 483.283 420.386C484.777 420.386 485.785 421.43 485.785 423.5C485.785 425.642 484.741 426.722 483.283 426.722ZM491.037 417.74C491.757 417.74 492.153 417.308 492.153 416.66C492.153 415.994 491.757 415.562 491.037 415.562C490.335 415.562 489.921 415.994 489.921 416.66C489.921 417.308 490.335 417.74 491.037 417.74ZM491.847 428V419.108H490.191V428H491.847ZM498.56 428.18C500.792 428.18 502.286 427.028 502.592 424.85L501.008 424.562C500.648 426.056 499.838 426.722 498.632 426.722C497.156 426.722 495.986 425.84 495.986 423.59C495.986 421.448 497.084 420.386 498.632 420.386C499.892 420.386 500.72 420.98 500.936 422.42L502.556 422.078C502.232 419.954 500.72 418.928 498.686 418.928C496.166 418.928 494.24 420.548 494.24 423.572C494.24 426.65 496.112 428.18 498.56 428.18ZM505.626 417.74C506.346 417.74 506.742 417.308 506.742 416.66C506.742 415.994 506.346 415.562 505.626 415.562C504.924 415.562 504.51 415.994 504.51 416.66C504.51 417.308 504.924 417.74 505.626 417.74ZM506.436 428V419.108H504.78V428H506.436ZM513.222 428.18C515.652 428.18 517.578 426.578 517.578 423.554C517.578 420.512 515.652 418.91 513.222 418.91C510.774 418.91 508.83 420.512 508.83 423.554C508.83 426.578 510.774 428.18 513.222 428.18ZM513.222 426.722C511.638 426.722 510.576 425.57 510.576 423.554C510.576 421.52 511.638 420.386 513.222 420.386C514.806 420.386 515.85 421.52 515.85 423.554C515.85 425.57 514.806 426.722 513.222 426.722ZM521.498 428V422.582C521.498 421.214 522.218 420.386 523.694 420.386C525.044 420.386 525.71 421.196 525.71 422.582V428H527.366V422.474C527.366 420.044 526.25 418.91 524.288 418.91C522.794 418.91 521.804 419.702 521.462 421.358H521.408V419.108H519.842V428H521.498ZM533.518 418.91C531.412 418.91 530.026 419.99 529.702 421.646L531.268 422.168C531.448 420.962 532.348 420.368 533.428 420.368C534.706 420.368 535.516 421.016 535.552 422.492L532.996 422.87C531.16 423.122 529.414 423.716 529.414 425.678C529.414 427.352 530.602 428.18 532.258 428.18C533.842 428.18 535.174 427.244 535.606 425.336H535.642V428H537.208V422.654C537.208 420.17 535.768 418.91 533.518 418.91ZM532.636 426.758C531.754 426.758 531.124 426.398 531.124 425.534C531.124 424.508 532.078 424.256 533.248 424.076L535.57 423.734V423.752C535.57 425.084 534.436 426.758 532.636 426.758ZM541.449 428V415.76H539.793V428H541.449ZM551.826 428.18C553.446 428.18 554.364 427.262 554.832 425.426H554.868V428H556.506V415.76H554.868V421.502H554.832C554.436 419.576 553.266 418.946 551.7 418.946C549.666 418.946 548.082 420.44 548.082 423.5C548.082 426.596 549.756 428.18 551.826 428.18ZM552.312 426.722C550.872 426.722 549.828 425.66 549.828 423.5C549.828 421.412 550.836 420.386 552.312 420.386C553.806 420.386 554.814 421.43 554.814 423.5C554.814 425.642 553.77 426.722 552.312 426.722ZM566.888 423.23C566.888 420.458 565.466 418.91 563.018 418.91C560.318 418.91 558.752 420.872 558.752 423.734C558.752 426.524 560.228 428.18 562.928 428.18C565.124 428.18 566.492 427.1 566.834 425.39L565.304 425.012C565.07 426.236 564.206 426.794 562.964 426.794C561.326 426.794 560.498 425.786 560.48 423.662H566.87C566.87 423.572 566.888 423.518 566.888 423.23ZM562.946 420.26C564.314 420.26 565.088 421.124 565.124 422.51H560.57C560.822 421.034 561.65 420.26 562.946 420.26ZM494.539 450.18C496.825 450.18 498.283 449.136 498.283 447.21C498.283 445.392 496.771 445.032 495.277 444.78L493.981 444.582C493.117 444.438 492.523 444.222 492.523 443.466C492.523 442.656 493.243 442.242 494.233 442.242C495.385 442.242 496.159 442.782 496.303 443.952L497.941 443.592C497.725 441.828 496.177 440.928 494.305 440.928C492.307 440.928 490.831 441.918 490.831 443.592C490.831 445.194 492.127 445.698 493.351 445.914L494.773 446.13C495.907 446.31 496.591 446.544 496.591 447.408C496.591 448.308 495.871 448.848 494.485 448.848C493.243 448.848 492.397 448.236 492.253 446.868L490.543 447.228C490.687 449.19 492.271 450.18 494.539 450.18ZM507.896 445.23C507.896 442.458 506.474 440.91 504.026 440.91C501.326 440.91 499.76 442.872 499.76 445.734C499.76 448.524 501.236 450.18 503.936 450.18C506.132 450.18 507.5 449.1 507.842 447.39L506.312 447.012C506.078 448.236 505.214 448.794 503.972 448.794C502.334 448.794 501.506 447.786 501.488 445.662H507.878C507.878 445.572 507.896 445.518 507.896 445.23ZM503.954 442.26C505.322 442.26 506.096 443.124 506.132 444.51H501.578C501.83 443.034 502.658 442.26 503.954 442.26ZM514.844 448.128C513.998 448.128 512.702 448.218 512.126 448.218C511.496 448.2 511.28 448.002 511.28 447.642C511.28 447.282 511.514 446.958 512.216 446.868C512.54 446.922 512.9 446.958 513.26 446.958C515.258 446.958 516.734 445.878 516.734 444.096C516.734 443.142 516.194 442.242 514.358 441.846L514.376 441.81C516.086 441.81 516.716 442.044 517.166 442.566H517.58V441.108H513.818C510.758 441.108 509.606 442.494 509.606 444.024C509.606 445.536 510.524 446.436 511.838 446.778C510.47 446.85 509.768 447.426 509.768 448.236C509.768 448.866 510.11 449.262 510.722 449.478C510.902 449.532 511.1 449.568 511.316 449.604C509.696 449.802 508.994 450.414 508.994 451.404C508.994 452.826 510.47 453.51 513.224 453.51C515.996 453.51 517.994 452.484 517.994 450.432C517.994 448.848 516.95 448.146 514.844 448.128ZM511.316 444.042C511.316 443.016 511.964 442.422 513.206 442.422C514.448 442.422 515.06 443.016 515.06 444.042C515.06 445.068 514.448 445.662 513.206 445.662C511.964 445.662 511.316 445.068 511.316 444.042ZM513.296 452.106C511.658 452.106 510.668 451.692 510.668 450.774C510.668 450.18 511.136 449.784 511.946 449.64H512.018C512.792 449.658 513.8 449.586 514.574 449.604C515.798 449.604 516.284 449.964 516.284 450.648C516.284 451.62 515.042 452.106 513.296 452.106ZM525.231 441.108V446.526C525.231 447.894 524.493 448.722 523.017 448.722C521.667 448.722 521.001 447.912 521.001 446.526V441.108H519.345V446.634C519.345 449.064 520.461 450.216 522.423 450.216C523.935 450.216 524.907 449.406 525.267 447.768H525.303V450H526.869V441.108H525.231ZM531.113 450V445.284C531.113 443.556 532.031 442.584 533.669 442.584C533.993 442.584 534.425 442.62 534.677 442.674L534.587 441.036C534.317 440.964 533.957 440.928 533.651 440.928C532.355 440.928 531.527 441.504 531.059 443.682H531.005V441.108H529.457V450H531.113ZM539.835 450.18C542.265 450.18 544.191 448.578 544.191 445.554C544.191 442.512 542.265 440.91 539.835 440.91C537.387 440.91 535.443 442.512 535.443 445.554C535.443 448.578 537.387 450.18 539.835 450.18ZM539.835 448.722C538.251 448.722 537.189 447.57 537.189 445.554C537.189 443.52 538.251 442.386 539.835 442.386C541.419 442.386 542.463 443.52 542.463 445.554C542.463 447.57 541.419 448.722 539.835 448.722Z" fill="black"/>
<path d="M445.238 432.746H453.168V436.164H445.238V445.148H441.605V436.164H433.676V432.746H441.605V424.445H445.238V432.746Z" fill="black"/>
<path d="M299.238 432.746H307.168V436.164H299.238V445.148H295.605V436.164H287.676V432.746H295.605V424.445H299.238V432.746Z" fill="black"/>
<path d="M591.238 432.746H599.168V436.164H591.238V445.148H587.605V436.164H579.676V432.746H587.605V424.445H591.238V432.746Z" fill="black"/>
<path d="M360.939 206.06C361.524 206.646 362.474 206.647 363.06 206.061L372.613 196.522C373.199 195.937 373.2 194.987 372.614 194.401C372.029 193.815 371.079 193.814 370.493 194.4L362.002 202.879L353.522 194.387C352.937 193.801 351.987 193.8 351.401 194.386C350.815 194.971 350.814 195.921 351.4 196.507L360.939 206.06ZM360.527 167.999L360.5 204.999L363.5 205.001L363.527 168.001L360.527 167.999Z" fill="black"/>
<path d="M440.939 374.06C441.524 374.646 442.474 374.647 443.06 374.061L452.613 364.522C453.199 363.937 453.2 362.987 452.614 362.401C452.029 361.815 451.079 361.814 450.493 362.4L442.002 370.879L433.522 362.387C432.937 361.801 431.987 361.8 431.401 362.386C430.815 362.971 430.814 363.921 431.4 364.507L440.939 374.06ZM440.527 335.999L440.5 372.999L443.5 373.001L443.527 336.001L440.527 335.999Z" fill="black"/>
</svg>
