<svg width="584" height="162" viewBox="0 0 584 162" fill="none" xmlns="http://www.w3.org/2000/svg">
<rect width="584" height="162" fill="white"/>
<rect x="24" y="31" width="111" height="101" fill="#FFE0EF"/>
<path d="M45.3652 61.4H34.8852V63.06H39.1452V75H41.1252V63.06H45.3652V61.4ZM50.1591 64.9C47.8191 64.9 46.2791 66.1 45.9191 67.94L47.6591 68.52C47.8591 67.18 48.8591 66.52 50.0591 66.52C51.4791 66.52 52.3791 67.24 52.4191 68.88L49.5791 69.3C47.5391 69.58 45.5991 70.24 45.5991 72.42C45.5991 74.28 46.9191 75.2 48.7591 75.2C50.5191 75.2 51.9991 74.16 52.4791 72.04H52.5191V75H54.2591V69.06C54.2591 66.3 52.6591 64.9 50.1591 64.9ZM49.1791 73.62C48.1991 73.62 47.4991 73.22 47.4991 72.26C47.4991 71.12 48.5591 70.84 49.8591 70.64L52.4391 70.26V70.28C52.4391 71.76 51.1791 73.62 49.1791 73.62ZM58.9714 75V69.76C58.9714 67.84 59.9914 66.76 61.8114 66.76C62.1714 66.76 62.6514 66.8 62.9314 66.86L62.8314 65.04C62.5314 64.96 62.1314 64.92 61.7914 64.92C60.3514 64.92 59.4314 65.56 58.9114 67.98H58.8514V65.12H57.1314V75H58.9714ZM65.6138 63.6C66.4138 63.6 66.8538 63.12 66.8538 62.4C66.8538 61.66 66.4138 61.18 65.6138 61.18C64.8338 61.18 64.3738 61.66 64.3738 62.4C64.3738 63.12 64.8338 63.6 65.6138 63.6ZM66.5138 75V65.12H64.6738V75H66.5138ZM72.6333 64.34C72.6333 63 73.2333 62.64 74.2533 62.64C74.7533 62.64 75.1333 62.72 75.3933 62.82L75.2533 61.38C74.8133 61.24 74.2133 61.2 73.8333 61.2C72.1133 61.2 70.7933 62.2 70.7933 64.26V65.12H68.6933V66.66H70.7933V75H72.6333V66.66H75.2733V65.12H72.6333V64.34ZM81.2528 64.9C78.9128 64.9 77.3728 66.1 77.0128 67.94L78.7528 68.52C78.9528 67.18 79.9528 66.52 81.1528 66.52C82.5728 66.52 83.4728 67.24 83.5128 68.88L80.6728 69.3C78.6328 69.58 76.6928 70.24 76.6928 72.42C76.6928 74.28 78.0128 75.2 79.8528 75.2C81.6128 75.2 83.0928 74.16 83.5728 72.04H83.6128V75H85.3528V69.06C85.3528 66.3 83.7528 64.9 81.2528 64.9ZM80.2728 73.62C79.2928 73.62 78.5928 73.22 78.5928 72.26C78.5928 71.12 79.6528 70.84 80.9528 70.64L83.5328 70.26V70.28C83.5328 71.76 82.2728 73.62 80.2728 73.62ZM92.0052 75.2C94.5452 75.2 96.1652 74.04 96.1652 71.9C96.1652 69.88 94.4852 69.48 92.8252 69.2L91.3852 68.98C90.4252 68.82 89.7652 68.58 89.7652 67.74C89.7652 66.84 90.5652 66.38 91.6652 66.38C92.9452 66.38 93.8052 66.98 93.9652 68.28L95.7852 67.88C95.5452 65.92 93.8252 64.92 91.7452 64.92C89.5252 64.92 87.8852 66.02 87.8852 67.88C87.8852 69.66 89.3252 70.22 90.6852 70.46L92.2652 70.7C93.5252 70.9 94.2852 71.16 94.2852 72.12C94.2852 73.12 93.4852 73.72 91.9452 73.72C90.5652 73.72 89.6252 73.04 89.4652 71.52L87.5652 71.92C87.7252 74.1 89.4852 75.2 92.0052 75.2ZM107.025 75.2C108.825 75.2 109.845 74.18 110.365 72.14H110.405V75H112.225V61.4H110.405V67.78H110.365C109.925 65.64 108.625 64.94 106.885 64.94C104.625 64.94 102.865 66.6 102.865 70C102.865 73.44 104.725 75.2 107.025 75.2ZM107.565 73.58C105.965 73.58 104.805 72.4 104.805 70C104.805 67.68 105.925 66.54 107.565 66.54C109.225 66.54 110.345 67.7 110.345 70C110.345 72.38 109.185 73.58 107.565 73.58ZM123.76 69.7C123.76 66.62 122.18 64.9 119.46 64.9C116.46 64.9 114.72 67.08 114.72 70.26C114.72 73.36 116.36 75.2 119.36 75.2C121.8 75.2 123.32 74 123.7 72.1L122 71.68C121.74 73.04 120.78 73.66 119.4 73.66C117.58 73.66 116.66 72.54 116.64 70.18H123.74C123.74 70.08 123.76 70.02 123.76 69.7ZM119.38 66.4C120.9 66.4 121.76 67.36 121.8 68.9H116.74C117.02 67.26 117.94 66.4 119.38 66.4ZM59.9809 94.7C59.9809 91.62 58.4009 89.9 55.6809 89.9C52.6809 89.9 50.9409 92.08 50.9409 95.26C50.9409 98.36 52.5809 100.2 55.5809 100.2C58.0209 100.2 59.5409 99 59.9209 97.1L58.2209 96.68C57.9609 98.04 57.0009 98.66 55.6209 98.66C53.8009 98.66 52.8809 97.54 52.8609 95.18H59.9609C59.9609 95.08 59.9809 95.02 59.9809 94.7ZM55.6009 91.4C57.1209 91.4 57.9809 92.36 58.0209 93.9H52.9609C53.2409 92.26 54.1609 91.4 55.6009 91.4ZM64.2155 100V93.98C64.2155 92.46 65.0155 91.54 66.6555 91.54C68.1555 91.54 68.8955 92.44 68.8955 93.98V100H70.7355V93.86C70.7355 91.16 69.4955 89.9 67.3155 89.9C65.6555 89.9 64.5555 90.78 64.1755 92.62H64.1155V90.12H62.3755V100H64.2155ZM77.0359 98.78L74.3559 90.12H72.2559L75.5359 100H78.4359L81.7359 90.12H79.7559L77.0359 98.78ZM85.1241 88.8L87.4641 85.96H85.4241L83.8241 88.8H85.1241ZM85.6641 100V90.12H83.8241V100H85.6641ZM93.2037 100.2C95.9037 100.2 98.0437 98.42 98.0437 95.06C98.0437 91.68 95.9037 89.9 93.2037 89.9C90.4837 89.9 88.3237 91.68 88.3237 95.06C88.3237 98.42 90.4837 100.2 93.2037 100.2ZM93.2037 98.58C91.4437 98.58 90.2637 97.3 90.2637 95.06C90.2637 92.8 91.4437 91.54 93.2037 91.54C94.9637 91.54 96.1237 92.8 96.1237 95.06C96.1237 97.3 94.9637 98.58 93.2037 98.58Z" fill="black"/>
<rect x="449" y="31" width="111" height="101" fill="#FFE0EF"/>
<path d="M464.211 75L459.631 61.4H456.951L452.371 75H454.531L455.531 71.76H460.991L462.011 75H464.211ZM458.271 63.02L460.471 70.1H456.051L458.271 63.02ZM469.222 75.2C471.022 75.2 472.042 74.18 472.562 72.14H472.602V75H474.422V61.4H472.602V67.78H472.562C472.122 65.64 470.822 64.94 469.082 64.94C466.822 64.94 465.062 66.6 465.062 70C465.062 73.44 466.922 75.2 469.222 75.2ZM469.762 73.58C468.162 73.58 467.002 72.4 467.002 70C467.002 67.68 468.122 66.54 469.762 66.54C471.422 66.54 472.542 67.7 472.542 70C472.542 72.38 471.382 73.58 469.762 73.58ZM478.377 63.6C479.177 63.6 479.617 63.12 479.617 62.4C479.617 61.66 479.177 61.18 478.377 61.18C477.597 61.18 477.137 61.66 477.137 62.4C477.137 63.12 477.597 63.6 478.377 63.6ZM479.277 75V65.12H477.437V75H479.277ZM486.737 75.2C489.217 75.2 490.877 73.92 491.217 71.5L489.457 71.18C489.057 72.84 488.157 73.58 486.817 73.58C485.177 73.58 483.877 72.6 483.877 70.1C483.877 67.72 485.097 66.54 486.817 66.54C488.217 66.54 489.137 67.2 489.377 68.8L491.177 68.42C490.817 66.06 489.137 64.92 486.877 64.92C484.077 64.92 481.937 66.72 481.937 70.08C481.937 73.5 484.017 75.2 486.737 75.2ZM494.588 63.6C495.388 63.6 495.828 63.12 495.828 62.4C495.828 61.66 495.388 61.18 494.588 61.18C493.808 61.18 493.348 61.66 493.348 62.4C493.348 63.12 493.808 63.6 494.588 63.6ZM495.488 75V65.12H493.648V75H495.488ZM503.028 75.2C505.728 75.2 507.868 73.42 507.868 70.06C507.868 66.68 505.728 64.9 503.028 64.9C500.308 64.9 498.148 66.68 498.148 70.06C498.148 73.42 500.308 75.2 503.028 75.2ZM503.028 73.58C501.268 73.58 500.088 72.3 500.088 70.06C500.088 67.8 501.268 66.54 503.028 66.54C504.788 66.54 505.948 67.8 505.948 70.06C505.948 72.3 504.788 73.58 503.028 73.58ZM512.223 75V68.98C512.223 67.46 513.023 66.54 514.663 66.54C516.163 66.54 516.903 67.44 516.903 68.98V75H518.743V68.86C518.743 66.16 517.503 64.9 515.323 64.9C513.663 64.9 512.563 65.78 512.183 67.62H512.123V65.12H510.383V75H512.223ZM525.579 64.9C523.239 64.9 521.699 66.1 521.339 67.94L523.079 68.52C523.279 67.18 524.279 66.52 525.479 66.52C526.899 66.52 527.799 67.24 527.839 68.88L524.999 69.3C522.959 69.58 521.019 70.24 521.019 72.42C521.019 74.28 522.339 75.2 524.179 75.2C525.939 75.2 527.419 74.16 527.899 72.04H527.939V75H529.679V69.06C529.679 66.3 528.079 64.9 525.579 64.9ZM524.599 73.62C523.619 73.62 522.919 73.22 522.919 72.26C522.919 71.12 523.979 70.84 525.279 70.64L527.859 70.26V70.28C527.859 71.76 526.599 73.62 524.599 73.62ZM534.391 75V61.4H532.551V75H534.391ZM545.938 69.7C545.938 66.62 544.358 64.9 541.638 64.9C538.638 64.9 536.898 67.08 536.898 70.26C536.898 73.36 538.538 75.2 541.538 75.2C543.978 75.2 545.498 74 545.878 72.1L544.178 71.68C543.918 73.04 542.958 73.66 541.578 73.66C539.758 73.66 538.838 72.54 538.818 70.18H545.918C545.918 70.08 545.938 70.02 545.938 69.7ZM541.558 66.4C543.078 66.4 543.938 67.36 543.978 68.9H538.918C539.198 67.26 540.118 66.4 541.558 66.4ZM552.113 75.2C554.653 75.2 556.273 74.04 556.273 71.9C556.273 69.88 554.593 69.48 552.933 69.2L551.493 68.98C550.533 68.82 549.873 68.58 549.873 67.74C549.873 66.84 550.673 66.38 551.773 66.38C553.053 66.38 553.913 66.98 554.073 68.28L555.893 67.88C555.653 65.92 553.933 64.92 551.853 64.92C549.633 64.92 547.993 66.02 547.993 67.88C547.993 69.66 549.433 70.22 550.793 70.46L552.373 70.7C553.633 70.9 554.393 71.16 554.393 72.12C554.393 73.12 553.593 73.72 552.053 73.72C550.673 73.72 549.733 73.04 549.573 71.52L547.673 71.92C547.833 74.1 549.593 75.2 552.113 75.2ZM469.993 100.2C471.793 100.2 472.813 99.18 473.333 97.14H473.373V100H475.193V86.4H473.373V92.78H473.333C472.893 90.64 471.593 89.94 469.853 89.94C467.593 89.94 465.833 91.6 465.833 95C465.833 98.44 467.693 100.2 469.993 100.2ZM470.533 98.58C468.933 98.58 467.773 97.4 467.773 95C467.773 92.68 468.893 91.54 470.533 91.54C472.193 91.54 473.313 92.7 473.313 95C473.313 97.38 472.153 98.58 470.533 98.58ZM486.729 94.7C486.729 91.62 485.149 89.9 482.429 89.9C479.429 89.9 477.689 92.08 477.689 95.26C477.689 98.36 479.329 100.2 482.329 100.2C484.769 100.2 486.289 99 486.669 97.1L484.969 96.68C484.709 98.04 483.749 98.66 482.369 98.66C480.549 98.66 479.629 97.54 479.609 95.18H486.709C486.709 95.08 486.729 95.02 486.729 94.7ZM482.349 91.4C483.869 91.4 484.729 92.36 484.769 93.9H479.709C479.989 92.26 480.909 91.4 482.349 91.4ZM498.687 87.64C499.187 87.64 499.567 87.72 499.827 87.82L499.687 86.38C499.247 86.24 498.647 86.2 498.267 86.2C496.547 86.2 495.227 87.2 495.227 89.26V90.12H493.127V91.66H495.227V100H497.067V91.66H499.707V90.12H497.067V89.34C497.067 88 497.667 87.64 498.687 87.64ZM501.507 100H503.347V86.4H501.507V100ZM514.893 94.7C514.893 91.62 513.313 89.9 510.593 89.9C507.593 89.9 505.853 92.08 505.853 95.26C505.853 98.36 507.493 100.2 510.493 100.2C512.933 100.2 514.453 99 514.833 97.1L513.133 96.68C512.873 98.04 511.913 98.66 510.533 98.66C508.713 98.66 507.793 97.54 507.773 95.18H514.873C514.873 95.08 514.893 95.02 514.893 94.7ZM510.513 91.4C512.033 91.4 512.893 92.36 512.933 93.9H507.873C508.153 92.26 509.073 91.4 510.513 91.4ZM521.108 98.6C520.268 98.6 519.848 98.34 519.848 97.38V91.66H522.608V90.12H519.848V87.38H518.608C518.448 89.32 517.848 90.12 516.348 90.54V91.66H518.008V97.78C518.008 99.62 519.028 100.2 520.608 100.2C521.308 100.2 521.988 100.1 522.508 99.96L522.748 98.34C522.328 98.46 521.748 98.6 521.108 98.6ZM533.272 94.7C533.272 91.62 531.692 89.9 528.972 89.9C525.972 89.9 524.232 92.08 524.232 95.26C524.232 98.36 525.872 100.2 528.872 100.2C531.312 100.2 532.832 99 533.212 97.1L531.512 96.68C531.252 98.04 530.292 98.66 528.912 98.66C527.092 98.66 526.172 97.54 526.152 95.18H533.252C533.252 95.08 533.272 95.02 533.272 94.7ZM528.892 91.4C530.412 91.4 531.272 92.36 531.312 93.9H526.252C526.532 92.26 527.452 91.4 528.892 91.4Z" fill="black"/>
<rect x="237" y="31" width="110" height="101" fill="#FFE0EF"/>
<path d="M260.121 74.4H249.641V76.06H253.901V88H255.881V76.06H260.121V74.4ZM264.915 77.9C262.575 77.9 261.035 79.1 260.675 80.94L262.415 81.52C262.615 80.18 263.615 79.52 264.815 79.52C266.235 79.52 267.135 80.24 267.175 81.88L264.335 82.3C262.295 82.58 260.355 83.24 260.355 85.42C260.355 87.28 261.675 88.2 263.515 88.2C265.275 88.2 266.755 87.16 267.235 85.04H267.275V88H269.015V82.06C269.015 79.3 267.415 77.9 264.915 77.9ZM263.935 86.62C262.955 86.62 262.255 86.22 262.255 85.26C262.255 84.12 263.315 83.84 264.615 83.64L267.195 83.26V83.28C267.195 84.76 265.935 86.62 263.935 86.62ZM273.727 88V82.76C273.727 80.84 274.747 79.76 276.567 79.76C276.927 79.76 277.407 79.8 277.687 79.86L277.587 78.04C277.287 77.96 276.887 77.92 276.547 77.92C275.107 77.92 274.187 78.56 273.667 80.98H273.607V78.12H271.887V88H273.727ZM280.37 76.6C281.17 76.6 281.61 76.12 281.61 75.4C281.61 74.66 281.17 74.18 280.37 74.18C279.59 74.18 279.13 74.66 279.13 75.4C279.13 76.12 279.59 76.6 280.37 76.6ZM281.27 88V78.12H279.43V88H281.27ZM287.389 77.34C287.389 76 287.989 75.64 289.009 75.64C289.509 75.64 289.889 75.72 290.149 75.82L290.009 74.38C289.569 74.24 288.969 74.2 288.589 74.2C286.869 74.2 285.549 75.2 285.549 77.26V78.12H283.449V79.66H285.549V88H287.389V79.66H290.029V78.12H287.389V77.34ZM296.009 77.9C293.669 77.9 292.129 79.1 291.769 80.94L293.509 81.52C293.709 80.18 294.709 79.52 295.909 79.52C297.329 79.52 298.229 80.24 298.269 81.88L295.429 82.3C293.389 82.58 291.449 83.24 291.449 85.42C291.449 87.28 292.769 88.2 294.609 88.2C296.369 88.2 297.849 87.16 298.329 85.04H298.369V88H300.109V82.06C300.109 79.3 298.509 77.9 296.009 77.9ZM295.029 86.62C294.049 86.62 293.349 86.22 293.349 85.26C293.349 84.12 294.409 83.84 295.709 83.64L298.289 83.26V83.28C298.289 84.76 297.029 86.62 295.029 86.62ZM316.464 74.18C315.664 74.18 315.204 74.66 315.204 75.4C315.204 76.12 315.664 76.6 316.464 76.6C317.244 76.6 317.684 76.12 317.684 75.4C317.684 74.66 317.244 74.18 316.464 74.18ZM312.544 75.64C313.044 75.64 313.424 75.72 313.684 75.82L313.544 74.38C313.104 74.24 312.504 74.2 312.124 74.2C310.404 74.2 309.084 75.2 309.084 77.26V78.12H306.984V79.66H309.084V88H310.924V79.66H313.564V78.12H310.924V77.34C310.924 76 311.524 75.64 312.544 75.64ZM317.344 88V78.12H315.524V88H317.344ZM321.463 76.6C322.263 76.6 322.703 76.12 322.703 75.4C322.703 74.66 322.263 74.18 321.463 74.18C320.663 74.18 320.223 74.66 320.223 75.4C320.223 76.12 320.663 76.6 321.463 76.6ZM319.463 91.92C321.383 91.92 322.363 91.16 322.363 89.02V78.12H320.523V88.78C320.523 90.02 320.003 90.38 318.963 90.38C318.503 90.38 318.043 90.26 317.823 90.18L318.003 91.76C318.383 91.84 318.923 91.92 319.463 91.92ZM329.427 77.9C327.087 77.9 325.547 79.1 325.187 80.94L326.927 81.52C327.127 80.18 328.127 79.52 329.327 79.52C330.747 79.52 331.647 80.24 331.687 81.88L328.847 82.3C326.807 82.58 324.867 83.24 324.867 85.42C324.867 87.28 326.187 88.2 328.027 88.2C329.787 88.2 331.267 87.16 331.747 85.04H331.787V88H333.527V82.06C333.527 79.3 331.927 77.9 329.427 77.9ZM328.447 86.62C327.467 86.62 326.767 86.22 326.767 85.26C326.767 84.12 327.827 83.84 329.127 83.64L331.707 83.26V83.28C331.707 84.76 330.447 86.62 328.447 86.62Z" fill="black"/>
<path d="M194.781 82.1016H178.492V78.957H194.781V82.1016ZM194.781 90.207H178.492V87.082H194.781V90.207Z" fill="black"/>
<path d="M406.738 82.7461H414.668V86.1641H406.738V95.1484H403.105V86.1641H395.176V82.7461H403.105V74.4453H406.738V82.7461Z" fill="black"/>
</svg>
